<?xml version="1.0" encoding="utf-8" standalone="no"?>
<!DOCTYPE svg PUBLIC "-//W3C//DTD SVG 1.1//EN"
  "http://www.w3.org/Graphics/SVG/1.1/DTD/svg11.dtd">
<svg xmlns:xlink="http://www.w3.org/1999/xlink" width="720pt" height="864pt" viewBox="0 0 720 864" xmlns="http://www.w3.org/2000/svg" version="1.1">
 <metadata>
  <rdf:RDF xmlns:dc="http://purl.org/dc/elements/1.1/" xmlns:cc="http://creativecommons.org/ns#" xmlns:rdf="http://www.w3.org/1999/02/22-rdf-syntax-ns#">
   <cc:Work>
    <dc:type rdf:resource="http://purl.org/dc/dcmitype/StillImage"/>
    <dc:date>2024-06-04T13:46:24.142203</dc:date>
    <dc:format>image/svg+xml</dc:format>
    <dc:creator>
     <cc:Agent>
      <dc:title>Matplotlib v3.8.4, https://matplotlib.org/</dc:title>
     </cc:Agent>
    </dc:creator>
   </cc:Work>
  </rdf:RDF>
 </metadata>
 <defs>
  <style type="text/css">*{stroke-linejoin: round; stroke-linecap: butt}</style>
 </defs>
 <g id="figure_1">
  <g id="patch_1">
   <path d="M 0 864 
L 720 864 
L 720 0 
L 0 0 
z
" style="fill: #ffffff"/>
  </g>
  <g id="axes_1">
   <g id="patch_2">
    <path d="M 52.94 301.506667 
L 709.2 301.506667 
L 709.2 85.2 
L 52.94 85.2 
z
" style="fill: #ffffff"/>
   </g>
   <g id="matplotlib.axis_1">
    <g id="xtick_1">
     <g id="line2d_1">
      <defs>
       <path id="m09dbde300d" d="M 0 0 
L 0 3.5 
" style="stroke: #000000; stroke-width: 0.8"/>
      </defs>
      <g>
       <use xlink:href="#m09dbde300d" x="82.77" y="301.506667" style="stroke: #000000; stroke-width: 0.8"/>
      </g>
     </g>
     <g id="text_1">
      <!-- 0.000 -->
      <g transform="translate(68.455937 316.105104) scale(0.1 -0.1)">
       <defs>
        <path id="DejaVuSans-30" d="M 2034 4250 
Q 1547 4250 1301 3770 
Q 1056 3291 1056 2328 
Q 1056 1369 1301 889 
Q 1547 409 2034 409 
Q 2525 409 2770 889 
Q 3016 1369 3016 2328 
Q 3016 3291 2770 3770 
Q 2525 4250 2034 4250 
z
M 2034 4750 
Q 2819 4750 3233 4129 
Q 3647 3509 3647 2328 
Q 3647 1150 3233 529 
Q 2819 -91 2034 -91 
Q 1250 -91 836 529 
Q 422 1150 422 2328 
Q 422 3509 836 4129 
Q 1250 4750 2034 4750 
z
" transform="scale(0.015625)"/>
        <path id="DejaVuSans-2e" d="M 684 794 
L 1344 794 
L 1344 0 
L 684 0 
L 684 794 
z
" transform="scale(0.015625)"/>
       </defs>
       <use xlink:href="#DejaVuSans-30"/>
       <use xlink:href="#DejaVuSans-2e" x="63.623047"/>
       <use xlink:href="#DejaVuSans-30" x="95.410156"/>
       <use xlink:href="#DejaVuSans-30" x="159.033203"/>
       <use xlink:href="#DejaVuSans-30" x="222.65625"/>
      </g>
     </g>
    </g>
    <g id="xtick_2">
     <g id="line2d_2">
      <g>
       <use xlink:href="#m09dbde300d" x="202.09" y="301.506667" style="stroke: #000000; stroke-width: 0.8"/>
      </g>
     </g>
     <g id="text_2">
      <!-- 0.002 -->
      <g transform="translate(187.775937 316.105104) scale(0.1 -0.1)">
       <defs>
        <path id="DejaVuSans-32" d="M 1228 531 
L 3431 531 
L 3431 0 
L 469 0 
L 469 531 
Q 828 903 1448 1529 
Q 2069 2156 2228 2338 
Q 2531 2678 2651 2914 
Q 2772 3150 2772 3378 
Q 2772 3750 2511 3984 
Q 2250 4219 1831 4219 
Q 1534 4219 1204 4116 
Q 875 4013 500 3803 
L 500 4441 
Q 881 4594 1212 4672 
Q 1544 4750 1819 4750 
Q 2544 4750 2975 4387 
Q 3406 4025 3406 3419 
Q 3406 3131 3298 2873 
Q 3191 2616 2906 2266 
Q 2828 2175 2409 1742 
Q 1991 1309 1228 531 
z
" transform="scale(0.015625)"/>
       </defs>
       <use xlink:href="#DejaVuSans-30"/>
       <use xlink:href="#DejaVuSans-2e" x="63.623047"/>
       <use xlink:href="#DejaVuSans-30" x="95.410156"/>
       <use xlink:href="#DejaVuSans-30" x="159.033203"/>
       <use xlink:href="#DejaVuSans-32" x="222.65625"/>
      </g>
     </g>
    </g>
    <g id="xtick_3">
     <g id="line2d_3">
      <g>
       <use xlink:href="#m09dbde300d" x="321.41" y="301.506667" style="stroke: #000000; stroke-width: 0.8"/>
      </g>
     </g>
     <g id="text_3">
      <!-- 0.004 -->
      <g transform="translate(307.095937 316.105104) scale(0.1 -0.1)">
       <defs>
        <path id="DejaVuSans-34" d="M 2419 4116 
L 825 1625 
L 2419 1625 
L 2419 4116 
z
M 2253 4666 
L 3047 4666 
L 3047 1625 
L 3713 1625 
L 3713 1100 
L 3047 1100 
L 3047 0 
L 2419 0 
L 2419 1100 
L 313 1100 
L 313 1709 
L 2253 4666 
z
" transform="scale(0.015625)"/>
       </defs>
       <use xlink:href="#DejaVuSans-30"/>
       <use xlink:href="#DejaVuSans-2e" x="63.623047"/>
       <use xlink:href="#DejaVuSans-30" x="95.410156"/>
       <use xlink:href="#DejaVuSans-30" x="159.033203"/>
       <use xlink:href="#DejaVuSans-34" x="222.65625"/>
      </g>
     </g>
    </g>
    <g id="xtick_4">
     <g id="line2d_4">
      <g>
       <use xlink:href="#m09dbde300d" x="440.73" y="301.506667" style="stroke: #000000; stroke-width: 0.8"/>
      </g>
     </g>
     <g id="text_4">
      <!-- 0.006 -->
      <g transform="translate(426.415937 316.105104) scale(0.1 -0.1)">
       <defs>
        <path id="DejaVuSans-36" d="M 2113 2584 
Q 1688 2584 1439 2293 
Q 1191 2003 1191 1497 
Q 1191 994 1439 701 
Q 1688 409 2113 409 
Q 2538 409 2786 701 
Q 3034 994 3034 1497 
Q 3034 2003 2786 2293 
Q 2538 2584 2113 2584 
z
M 3366 4563 
L 3366 3988 
Q 3128 4100 2886 4159 
Q 2644 4219 2406 4219 
Q 1781 4219 1451 3797 
Q 1122 3375 1075 2522 
Q 1259 2794 1537 2939 
Q 1816 3084 2150 3084 
Q 2853 3084 3261 2657 
Q 3669 2231 3669 1497 
Q 3669 778 3244 343 
Q 2819 -91 2113 -91 
Q 1303 -91 875 529 
Q 447 1150 447 2328 
Q 447 3434 972 4092 
Q 1497 4750 2381 4750 
Q 2619 4750 2861 4703 
Q 3103 4656 3366 4563 
z
" transform="scale(0.015625)"/>
       </defs>
       <use xlink:href="#DejaVuSans-30"/>
       <use xlink:href="#DejaVuSans-2e" x="63.623047"/>
       <use xlink:href="#DejaVuSans-30" x="95.410156"/>
       <use xlink:href="#DejaVuSans-30" x="159.033203"/>
       <use xlink:href="#DejaVuSans-36" x="222.65625"/>
      </g>
     </g>
    </g>
    <g id="xtick_5">
     <g id="line2d_5">
      <g>
       <use xlink:href="#m09dbde300d" x="560.05" y="301.506667" style="stroke: #000000; stroke-width: 0.8"/>
      </g>
     </g>
     <g id="text_5">
      <!-- 0.008 -->
      <g transform="translate(545.735937 316.105104) scale(0.1 -0.1)">
       <defs>
        <path id="DejaVuSans-38" d="M 2034 2216 
Q 1584 2216 1326 1975 
Q 1069 1734 1069 1313 
Q 1069 891 1326 650 
Q 1584 409 2034 409 
Q 2484 409 2743 651 
Q 3003 894 3003 1313 
Q 3003 1734 2745 1975 
Q 2488 2216 2034 2216 
z
M 1403 2484 
Q 997 2584 770 2862 
Q 544 3141 544 3541 
Q 544 4100 942 4425 
Q 1341 4750 2034 4750 
Q 2731 4750 3128 4425 
Q 3525 4100 3525 3541 
Q 3525 3141 3298 2862 
Q 3072 2584 2669 2484 
Q 3125 2378 3379 2068 
Q 3634 1759 3634 1313 
Q 3634 634 3220 271 
Q 2806 -91 2034 -91 
Q 1263 -91 848 271 
Q 434 634 434 1313 
Q 434 1759 690 2068 
Q 947 2378 1403 2484 
z
M 1172 3481 
Q 1172 3119 1398 2916 
Q 1625 2713 2034 2713 
Q 2441 2713 2670 2916 
Q 2900 3119 2900 3481 
Q 2900 3844 2670 4047 
Q 2441 4250 2034 4250 
Q 1625 4250 1398 4047 
Q 1172 3844 1172 3481 
z
" transform="scale(0.015625)"/>
       </defs>
       <use xlink:href="#DejaVuSans-30"/>
       <use xlink:href="#DejaVuSans-2e" x="63.623047"/>
       <use xlink:href="#DejaVuSans-30" x="95.410156"/>
       <use xlink:href="#DejaVuSans-30" x="159.033203"/>
       <use xlink:href="#DejaVuSans-38" x="222.65625"/>
      </g>
     </g>
    </g>
    <g id="xtick_6">
     <g id="line2d_6">
      <g>
       <use xlink:href="#m09dbde300d" x="679.37" y="301.506667" style="stroke: #000000; stroke-width: 0.8"/>
      </g>
     </g>
     <g id="text_6">
      <!-- 0.010 -->
      <g transform="translate(665.055937 316.105104) scale(0.1 -0.1)">
       <defs>
        <path id="DejaVuSans-31" d="M 794 531 
L 1825 531 
L 1825 4091 
L 703 3866 
L 703 4441 
L 1819 4666 
L 2450 4666 
L 2450 531 
L 3481 531 
L 3481 0 
L 794 0 
L 794 531 
z
" transform="scale(0.015625)"/>
       </defs>
       <use xlink:href="#DejaVuSans-30"/>
       <use xlink:href="#DejaVuSans-2e" x="63.623047"/>
       <use xlink:href="#DejaVuSans-30" x="95.410156"/>
       <use xlink:href="#DejaVuSans-31" x="159.033203"/>
       <use xlink:href="#DejaVuSans-30" x="222.65625"/>
      </g>
     </g>
    </g>
   </g>
   <g id="matplotlib.axis_2">
    <g id="ytick_1">
     <g id="line2d_7">
      <defs>
       <path id="m32ba20fc76" d="M 0 0 
L -3.5 0 
" style="stroke: #ff4500; stroke-width: 0.8"/>
      </defs>
      <g>
       <use xlink:href="#m32ba20fc76" x="52.94" y="291.689508" style="fill: #ff4500; stroke: #ff4500; stroke-width: 0.8"/>
      </g>
     </g>
     <g id="text_7">
      <!-- 0 -->
      <g style="fill: #ff4500" transform="translate(39.5775 295.488727) scale(0.1 -0.1)">
       <use xlink:href="#DejaVuSans-30"/>
      </g>
     </g>
    </g>
    <g id="ytick_2">
     <g id="line2d_8">
      <g>
       <use xlink:href="#m32ba20fc76" x="52.94" y="250.125906" style="fill: #ff4500; stroke: #ff4500; stroke-width: 0.8"/>
      </g>
     </g>
     <g id="text_8">
      <!-- 1 -->
      <g style="fill: #ff4500" transform="translate(39.5775 253.925125) scale(0.1 -0.1)">
       <use xlink:href="#DejaVuSans-31"/>
      </g>
     </g>
    </g>
    <g id="ytick_3">
     <g id="line2d_9">
      <g>
       <use xlink:href="#m32ba20fc76" x="52.94" y="208.562304" style="fill: #ff4500; stroke: #ff4500; stroke-width: 0.8"/>
      </g>
     </g>
     <g id="text_9">
      <!-- 2 -->
      <g style="fill: #ff4500" transform="translate(39.5775 212.361523) scale(0.1 -0.1)">
       <use xlink:href="#DejaVuSans-32"/>
      </g>
     </g>
    </g>
    <g id="ytick_4">
     <g id="line2d_10">
      <g>
       <use xlink:href="#m32ba20fc76" x="52.94" y="166.998703" style="fill: #ff4500; stroke: #ff4500; stroke-width: 0.8"/>
      </g>
     </g>
     <g id="text_10">
      <!-- 3 -->
      <g style="fill: #ff4500" transform="translate(39.5775 170.797921) scale(0.1 -0.1)">
       <defs>
        <path id="DejaVuSans-33" d="M 2597 2516 
Q 3050 2419 3304 2112 
Q 3559 1806 3559 1356 
Q 3559 666 3084 287 
Q 2609 -91 1734 -91 
Q 1441 -91 1130 -33 
Q 819 25 488 141 
L 488 750 
Q 750 597 1062 519 
Q 1375 441 1716 441 
Q 2309 441 2620 675 
Q 2931 909 2931 1356 
Q 2931 1769 2642 2001 
Q 2353 2234 1838 2234 
L 1294 2234 
L 1294 2753 
L 1863 2753 
Q 2328 2753 2575 2939 
Q 2822 3125 2822 3475 
Q 2822 3834 2567 4026 
Q 2313 4219 1838 4219 
Q 1578 4219 1281 4162 
Q 984 4106 628 3988 
L 628 4550 
Q 988 4650 1302 4700 
Q 1616 4750 1894 4750 
Q 2613 4750 3031 4423 
Q 3450 4097 3450 3541 
Q 3450 3153 3228 2886 
Q 3006 2619 2597 2516 
z
" transform="scale(0.015625)"/>
       </defs>
       <use xlink:href="#DejaVuSans-33"/>
      </g>
     </g>
    </g>
    <g id="ytick_5">
     <g id="line2d_11">
      <g>
       <use xlink:href="#m32ba20fc76" x="52.94" y="125.435101" style="fill: #ff4500; stroke: #ff4500; stroke-width: 0.8"/>
      </g>
     </g>
     <g id="text_11">
      <!-- 4 -->
      <g style="fill: #ff4500" transform="translate(39.5775 129.234319) scale(0.1 -0.1)">
       <use xlink:href="#DejaVuSans-34"/>
      </g>
     </g>
    </g>
    <g id="text_12">
     <!-- Output Voltage -->
     <g style="fill: #ff4500" transform="translate(33.497812 231.066615) rotate(-90) scale(0.1 -0.1)">
      <defs>
       <path id="DejaVuSans-4f" d="M 2522 4238 
Q 1834 4238 1429 3725 
Q 1025 3213 1025 2328 
Q 1025 1447 1429 934 
Q 1834 422 2522 422 
Q 3209 422 3611 934 
Q 4013 1447 4013 2328 
Q 4013 3213 3611 3725 
Q 3209 4238 2522 4238 
z
M 2522 4750 
Q 3503 4750 4090 4092 
Q 4678 3434 4678 2328 
Q 4678 1225 4090 567 
Q 3503 -91 2522 -91 
Q 1538 -91 948 565 
Q 359 1222 359 2328 
Q 359 3434 948 4092 
Q 1538 4750 2522 4750 
z
" transform="scale(0.015625)"/>
       <path id="DejaVuSans-75" d="M 544 1381 
L 544 3500 
L 1119 3500 
L 1119 1403 
Q 1119 906 1312 657 
Q 1506 409 1894 409 
Q 2359 409 2629 706 
Q 2900 1003 2900 1516 
L 2900 3500 
L 3475 3500 
L 3475 0 
L 2900 0 
L 2900 538 
Q 2691 219 2414 64 
Q 2138 -91 1772 -91 
Q 1169 -91 856 284 
Q 544 659 544 1381 
z
M 1991 3584 
L 1991 3584 
z
" transform="scale(0.015625)"/>
       <path id="DejaVuSans-74" d="M 1172 4494 
L 1172 3500 
L 2356 3500 
L 2356 3053 
L 1172 3053 
L 1172 1153 
Q 1172 725 1289 603 
Q 1406 481 1766 481 
L 2356 481 
L 2356 0 
L 1766 0 
Q 1100 0 847 248 
Q 594 497 594 1153 
L 594 3053 
L 172 3053 
L 172 3500 
L 594 3500 
L 594 4494 
L 1172 4494 
z
" transform="scale(0.015625)"/>
       <path id="DejaVuSans-70" d="M 1159 525 
L 1159 -1331 
L 581 -1331 
L 581 3500 
L 1159 3500 
L 1159 2969 
Q 1341 3281 1617 3432 
Q 1894 3584 2278 3584 
Q 2916 3584 3314 3078 
Q 3713 2572 3713 1747 
Q 3713 922 3314 415 
Q 2916 -91 2278 -91 
Q 1894 -91 1617 61 
Q 1341 213 1159 525 
z
M 3116 1747 
Q 3116 2381 2855 2742 
Q 2594 3103 2138 3103 
Q 1681 3103 1420 2742 
Q 1159 2381 1159 1747 
Q 1159 1113 1420 752 
Q 1681 391 2138 391 
Q 2594 391 2855 752 
Q 3116 1113 3116 1747 
z
" transform="scale(0.015625)"/>
       <path id="DejaVuSans-20" transform="scale(0.015625)"/>
       <path id="DejaVuSans-56" d="M 1831 0 
L 50 4666 
L 709 4666 
L 2188 738 
L 3669 4666 
L 4325 4666 
L 2547 0 
L 1831 0 
z
" transform="scale(0.015625)"/>
       <path id="DejaVuSans-6f" d="M 1959 3097 
Q 1497 3097 1228 2736 
Q 959 2375 959 1747 
Q 959 1119 1226 758 
Q 1494 397 1959 397 
Q 2419 397 2687 759 
Q 2956 1122 2956 1747 
Q 2956 2369 2687 2733 
Q 2419 3097 1959 3097 
z
M 1959 3584 
Q 2709 3584 3137 3096 
Q 3566 2609 3566 1747 
Q 3566 888 3137 398 
Q 2709 -91 1959 -91 
Q 1206 -91 779 398 
Q 353 888 353 1747 
Q 353 2609 779 3096 
Q 1206 3584 1959 3584 
z
" transform="scale(0.015625)"/>
       <path id="DejaVuSans-6c" d="M 603 4863 
L 1178 4863 
L 1178 0 
L 603 0 
L 603 4863 
z
" transform="scale(0.015625)"/>
       <path id="DejaVuSans-61" d="M 2194 1759 
Q 1497 1759 1228 1600 
Q 959 1441 959 1056 
Q 959 750 1161 570 
Q 1363 391 1709 391 
Q 2188 391 2477 730 
Q 2766 1069 2766 1631 
L 2766 1759 
L 2194 1759 
z
M 3341 1997 
L 3341 0 
L 2766 0 
L 2766 531 
Q 2569 213 2275 61 
Q 1981 -91 1556 -91 
Q 1019 -91 701 211 
Q 384 513 384 1019 
Q 384 1609 779 1909 
Q 1175 2209 1959 2209 
L 2766 2209 
L 2766 2266 
Q 2766 2663 2505 2880 
Q 2244 3097 1772 3097 
Q 1472 3097 1187 3025 
Q 903 2953 641 2809 
L 641 3341 
Q 956 3463 1253 3523 
Q 1550 3584 1831 3584 
Q 2591 3584 2966 3190 
Q 3341 2797 3341 1997 
z
" transform="scale(0.015625)"/>
       <path id="DejaVuSans-67" d="M 2906 1791 
Q 2906 2416 2648 2759 
Q 2391 3103 1925 3103 
Q 1463 3103 1205 2759 
Q 947 2416 947 1791 
Q 947 1169 1205 825 
Q 1463 481 1925 481 
Q 2391 481 2648 825 
Q 2906 1169 2906 1791 
z
M 3481 434 
Q 3481 -459 3084 -895 
Q 2688 -1331 1869 -1331 
Q 1566 -1331 1297 -1286 
Q 1028 -1241 775 -1147 
L 775 -588 
Q 1028 -725 1275 -790 
Q 1522 -856 1778 -856 
Q 2344 -856 2625 -561 
Q 2906 -266 2906 331 
L 2906 616 
Q 2728 306 2450 153 
Q 2172 0 1784 0 
Q 1141 0 747 490 
Q 353 981 353 1791 
Q 353 2603 747 3093 
Q 1141 3584 1784 3584 
Q 2172 3584 2450 3431 
Q 2728 3278 2906 2969 
L 2906 3500 
L 3481 3500 
L 3481 434 
z
" transform="scale(0.015625)"/>
       <path id="DejaVuSans-65" d="M 3597 1894 
L 3597 1613 
L 953 1613 
Q 991 1019 1311 708 
Q 1631 397 2203 397 
Q 2534 397 2845 478 
Q 3156 559 3463 722 
L 3463 178 
Q 3153 47 2828 -22 
Q 2503 -91 2169 -91 
Q 1331 -91 842 396 
Q 353 884 353 1716 
Q 353 2575 817 3079 
Q 1281 3584 2069 3584 
Q 2775 3584 3186 3129 
Q 3597 2675 3597 1894 
z
M 3022 2063 
Q 3016 2534 2758 2815 
Q 2500 3097 2075 3097 
Q 1594 3097 1305 2825 
Q 1016 2553 972 2059 
L 3022 2063 
z
" transform="scale(0.015625)"/>
      </defs>
      <use xlink:href="#DejaVuSans-4f"/>
      <use xlink:href="#DejaVuSans-75" x="78.710938"/>
      <use xlink:href="#DejaVuSans-74" x="142.089844"/>
      <use xlink:href="#DejaVuSans-70" x="181.298828"/>
      <use xlink:href="#DejaVuSans-75" x="244.775391"/>
      <use xlink:href="#DejaVuSans-74" x="308.154297"/>
      <use xlink:href="#DejaVuSans-20" x="347.363281"/>
      <use xlink:href="#DejaVuSans-56" x="379.150391"/>
      <use xlink:href="#DejaVuSans-6f" x="439.808594"/>
      <use xlink:href="#DejaVuSans-6c" x="500.990234"/>
      <use xlink:href="#DejaVuSans-74" x="528.773438"/>
      <use xlink:href="#DejaVuSans-61" x="567.982422"/>
      <use xlink:href="#DejaVuSans-67" x="629.261719"/>
      <use xlink:href="#DejaVuSans-65" x="692.738281"/>
     </g>
    </g>
   </g>
   <g id="line2d_12">
    <path d="M 82.77 291.674545 
L 83.9632 291.541124 
L 85.1564 291.10609 
L 86.3496 290.345737 
L 87.5428 289.281638 
L 88.736 287.934206 
L 89.9292 286.32276 
L 91.719 283.450271 
L 93.5088 280.082206 
L 95.2986 276.271499 
L 97.685 270.585523 
L 101.2646 261.663816 
L 103.0544 257.787974 
L 104.8442 254.396038 
L 106.634 251.447765 
L 108.4238 248.905983 
L 110.2136 246.736359 
L 112.0034 244.907193 
L 114.3898 242.623946 
L 115.583 241.187102 
L 117.3728 238.620391 
L 119.1626 235.605809 
L 120.9524 232.191148 
L 123.3388 227.091322 
L 125.7252 221.452297 
L 130.498 209.85496 
L 132.2878 206.382875 
L 134.0776 203.444343 
L 135.8674 200.99362 
L 137.6572 198.98848 
L 139.447 197.389951 
L 141.2368 196.162074 
L 144.8164 194.086087 
L 146.0096 193.037386 
L 147.7994 191.075494 
L 149.5892 188.689631 
L 151.379 185.924234 
L 153.7654 181.716791 
L 156.1518 176.994697 
L 157.9416 173.488251 
L 159.7314 170.536014 
L 161.5212 168.129273 
L 163.311 166.220236 
L 165.1008 164.764807 
L 166.8906 163.722308 
L 168.6804 163.055227 
L 170.4702 162.728977 
L 172.26 162.71168 
L 173.4532 162.72131 
L 174.6464 162.515733 
L 175.8396 162.069588 
L 177.0328 161.398737 
L 178.226 160.518192 
L 180.0158 158.835065 
L 181.8056 156.756674 
L 183.5954 154.324199 
L 185.9818 150.595104 
L 188.3682 146.709868 
L 190.158 144.375403 
L 191.3512 143.117395 
L 192.5444 142.081279 
L 193.7376 141.253547 
L 194.9308 140.621398 
L 196.124 140.172707 
L 197.3172 139.895989 
L 198.5104 139.780365 
L 200.3002 139.886598 
L 202.09 140.299761 
L 203.8798 140.665505 
L 205.073 140.621188 
L 206.2662 140.342852 
L 207.4594 139.845806 
L 208.6526 139.144541 
L 209.8458 138.252773 
L 211.6356 136.586122 
L 213.4254 134.560759 
L 215.2152 132.214294 
L 217.6016 128.970102 
L 218.7948 127.662825 
L 219.988 126.592583 
L 221.1812 125.744916 
L 222.3744 125.106124 
L 223.5676 124.66323 
L 224.7608 124.403942 
L 225.954 124.316617 
L 227.1472 124.390232 
L 228.937 124.779737 
L 230.7268 125.475095 
L 233.7098 126.907538 
L 234.903 127.151742 
L 236.0962 127.153745 
L 237.2894 126.929166 
L 238.4826 126.492795 
L 239.6758 125.858628 
L 241.4656 124.565299 
L 243.2554 122.898325 
L 245.0452 120.896121 
L 246.835 118.594022 
L 249.2214 115.43884 
L 250.4146 114.187127 
L 251.6078 113.179297 
L 252.801 112.400401 
L 253.9942 111.836275 
L 255.1874 111.473505 
L 256.3806 111.299383 
L 257.5738 111.301876 
L 258.767 111.469591 
L 260.5568 112.007518 
L 263.5398 113.261353 
L 264.733 113.459807 
L 265.9262 113.42961 
L 267.1194 113.185534 
L 268.3126 112.741562 
L 269.5058 112.110931 
L 271.2956 110.842219 
L 273.0854 109.22103 
L 274.8752 107.283688 
L 278.4548 103.195088 
L 279.648 102.237188 
L 280.8412 101.513473 
L 282.0344 101.009398 
L 283.2276 100.711186 
L 284.4208 100.60579 
L 285.614 100.680855 
L 286.8072 100.924684 
L 288.597 101.582798 
L 290.3868 102.560945 
L 293.3698 104.49157 
L 294.563 104.942801 
L 295.7562 105.155671 
L 296.9494 105.145389 
L 298.1426 104.926356 
L 299.3358 104.512207 
L 300.529 103.915846 
L 302.3188 102.706196 
L 304.1086 101.152388 
L 306.495 98.93006 
L 307.6882 98.119797 
L 308.8814 97.537382 
L 310.0746 97.168572 
L 311.2678 96.999875 
L 312.461 97.018513 
L 313.6542 97.212389 
L 314.8474 97.570051 
L 316.6372 98.390087 
L 318.427 99.520215 
L 320.2168 100.928987 
L 323.1998 103.493007 
L 324.393 104.17134 
L 325.5862 104.597262 
L 326.7794 104.786722 
L 327.9726 104.754826 
L 329.1658 104.515876 
L 330.359 104.083411 
L 331.5522 103.470247 
L 333.342 102.238048 
L 335.1318 100.664639 
L 336.9216 99.108945 
L 338.1148 98.346753 
L 339.308 97.809134 
L 340.5012 97.482019 
L 341.6944 97.352084 
L 342.8876 97.406712 
L 344.0808 97.633957 
L 345.8706 98.273907 
L 347.6604 99.241287 
L 349.4502 100.503279 
L 353.6264 103.824317 
L 354.8196 104.346547 
L 356.0128 104.626298 
L 357.206 104.678992 
L 358.3992 104.519236 
L 359.5924 104.160854 
L 360.7856 103.616936 
L 362.5754 102.480093 
L 364.3652 100.992552 
L 366.7516 98.849126 
L 367.9448 98.074722 
L 369.138 97.52589 
L 370.3312 97.188504 
L 371.5244 97.049188 
L 372.7176 97.095275 
L 373.9108 97.314771 
L 375.104 97.69632 
L 376.8938 98.549142 
L 378.6836 99.708665 
L 380.4734 101.143711 
L 382.2632 102.68859 
L 383.4564 103.466728 
L 384.6496 103.986562 
L 385.8428 104.26435 
L 387.036 104.31549 
L 388.2292 104.154559 
L 389.4224 103.795362 
L 390.6156 103.250963 
L 392.4054 102.113984 
L 394.1952 100.626945 
L 396.5816 98.485094 
L 398.3714 97.227282 
L 399.5646 96.609621 
L 400.7578 96.208555 
L 401.951 96.010424 
L 403.1442 96.002295 
L 404.3374 96.171916 
L 405.5306 96.507693 
L 407.3204 97.29905 
L 409.1102 98.405098 
L 411.4966 100.273421 
L 412.6898 101.111372 
L 413.883 101.689176 
L 415.0762 102.022974 
L 416.2694 102.128245 
L 417.4626 102.019649 
L 418.6558 101.711062 
L 419.849 101.215624 
L 421.6388 100.149139 
L 423.4286 98.729252 
L 425.815 96.672006 
L 427.0082 95.939118 
L 428.2014 95.430776 
L 429.3946 95.132892 
L 430.5878 95.032121 
L 431.781 95.115828 
L 432.9742 95.37205 
L 434.764 96.055239 
L 436.5538 97.065545 
L 438.3436 98.370105 
L 440.1334 99.938678 
L 441.9232 101.606168 
L 443.1164 102.460728 
L 444.3096 103.052834 
L 445.5028 103.398956 
L 446.696 103.514691 
L 447.8892 103.41481 
L 449.0824 103.113297 
L 450.2756 102.62339 
L 451.4688 101.95762 
L 453.2586 100.654988 
L 455.645 98.731443 
L 456.8382 98.056849 
L 458.0314 97.601403 
L 459.2246 97.351322 
L 460.4178 97.293554 
L 461.611 97.41574 
L 462.8042 97.706177 
L 464.594 98.433238 
L 466.3838 99.479167 
L 468.1736 100.811823 
L 469.9634 102.401635 
L 471.7532 104.083966 
L 472.9464 104.945349 
L 474.1396 105.541915 
L 475.3328 105.890282 
L 476.526 106.00619 
L 477.7192 105.90454 
L 478.9124 105.599446 
L 480.1056 105.104264 
L 481.2988 104.431639 
L 483.0886 103.115993 
L 485.475 101.170447 
L 486.6682 100.483138 
L 487.8614 100.013918 
L 489.0546 99.749084 
L 490.2478 99.675658 
L 491.441 99.781351 
L 492.6342 100.054529 
L 495.6172 101.115539 
L 497.407 102.074118 
L 499.7934 103.512727 
L 501.5832 104.714925 
L 502.7764 105.280402 
L 503.9696 105.599887 
L 505.1628 105.688999 
L 506.356 105.56253 
L 507.5492 105.23448 
L 508.7424 104.718107 
L 510.5322 103.6177 
L 512.322 102.161176 
L 514.1118 100.384923 
L 515.9016 98.646677 
L 517.0948 97.772629 
L 518.288 97.130814 
L 519.4812 96.706748 
L 520.6744 96.486717 
L 521.8676 96.457729 
L 523.0608 96.607486 
L 524.254 96.924342 
L 526.0438 97.688987 
L 527.8336 98.770198 
L 529.6234 100.135993 
L 531.4132 101.620151 
L 532.6064 102.361934 
L 533.7996 102.848613 
L 534.9928 103.096266 
L 536.186 103.120118 
L 537.3792 102.934586 
L 538.5724 102.553317 
L 539.7656 101.989234 
L 541.5554 100.826897 
L 543.3452 99.319119 
L 545.7316 97.15621 
L 546.9248 96.374877 
L 548.118 95.820878 
L 549.3112 95.47998 
L 550.5044 95.3387 
L 551.6976 95.384275 
L 552.8908 95.604615 
L 554.084 95.988278 
L 555.8738 96.846471 
L 557.6636 98.013769 
L 559.4534 99.458756 
L 561.2432 101.015564 
L 562.4364 101.802595 
L 563.6296 102.332038 
L 564.8228 102.620095 
L 566.016 102.682115 
L 567.2092 102.532627 
L 568.4024 102.18539 
L 569.5956 101.653426 
L 571.3854 100.535903 
L 573.1752 99.069172 
L 575.5616 96.955541 
L 576.7548 96.196774 
L 577.948 95.664022 
L 579.1412 95.343122 
L 580.3344 95.220658 
L 581.5276 95.283924 
L 582.7208 95.520893 
L 583.914 95.920178 
L 585.7038 96.800028 
L 587.4936 97.987002 
L 589.2834 99.449837 
L 591.0732 101.022768 
L 592.2664 101.819709 
L 593.4596 102.358409 
L 594.6528 102.655106 
L 595.846 102.725181 
L 597.0392 102.583196 
L 598.2324 102.242938 
L 599.4256 101.71746 
L 601.2154 100.608795 
L 603.0052 99.149954 
L 605.3916 97.045451 
L 606.5848 96.29072 
L 607.778 95.761672 
L 608.9712 95.444161 
L 610.1644 95.324789 
L 611.3576 95.390867 
L 612.5508 95.630385 
L 614.3406 96.290148 
L 616.1304 97.278856 
L 617.9202 98.563507 
L 622.0964 101.941719 
L 623.2896 102.481182 
L 624.4828 102.778499 
L 625.676 102.849057 
L 626.8692 102.707428 
L 628.0624 102.367408 
L 629.2556 101.842055 
L 631.0454 100.733384 
L 632.8352 99.274325 
L 634.625 97.824263 
L 635.8182 97.128237 
L 637.0114 96.653459 
L 638.2046 96.386028 
L 639.3978 96.312776 
L 640.591 96.421235 
L 641.7842 96.699601 
L 643.574 97.411448 
L 645.3638 98.44536 
L 647.1536 99.768915 
L 648.9434 101.35228 
L 650.7332 103.030634 
L 651.9264 103.890552 
L 653.1196 104.486564 
L 654.3128 104.835229 
L 655.506 104.952232 
L 656.6992 104.852424 
L 657.8924 104.549866 
L 659.0856 104.05787 
L 660.2788 103.389035 
L 662.0686 102.080117 
L 664.455 100.145312 
L 665.6482 99.464025 
L 666.8414 99.001228 
L 668.0346 98.743186 
L 669.2278 98.676893 
L 670.421 98.790032 
L 671.6142 99.070943 
L 673.404 99.782897 
L 675.1938 100.812843 
L 676.9836 102.128753 
L 678.7734 103.701157 
L 679.37 104.277541 
L 679.37 104.277541 
" clip-path="url(#pb66cb4522b)" style="fill: none; stroke: #ff4500; stroke-width: 1.5; stroke-linecap: square"/>
   </g>
   <g id="patch_3">
    <path d="M 52.94 301.506667 
L 52.94 85.2 
" style="fill: none; stroke: #000000; stroke-width: 0.8; stroke-linejoin: miter; stroke-linecap: square"/>
   </g>
   <g id="patch_4">
    <path d="M 709.2 301.506667 
L 709.2 85.2 
" style="fill: none; stroke: #000000; stroke-width: 0.8; stroke-linejoin: miter; stroke-linecap: square"/>
   </g>
   <g id="patch_5">
    <path d="M 52.94 301.506667 
L 709.2 301.506667 
" style="fill: none; stroke: #000000; stroke-width: 0.8; stroke-linejoin: miter; stroke-linecap: square"/>
   </g>
   <g id="patch_6">
    <path d="M 52.94 85.2 
L 709.2 85.2 
" style="fill: none; stroke: #000000; stroke-width: 0.8; stroke-linejoin: miter; stroke-linecap: square"/>
   </g>
   <g id="text_13">
    <!-- Output Voltage -->
    <g transform="translate(335.814062 79.2) scale(0.12 -0.12)">
     <use xlink:href="#DejaVuSans-4f"/>
     <use xlink:href="#DejaVuSans-75" x="78.710938"/>
     <use xlink:href="#DejaVuSans-74" x="142.089844"/>
     <use xlink:href="#DejaVuSans-70" x="181.298828"/>
     <use xlink:href="#DejaVuSans-75" x="244.775391"/>
     <use xlink:href="#DejaVuSans-74" x="308.154297"/>
     <use xlink:href="#DejaVuSans-20" x="347.363281"/>
     <use xlink:href="#DejaVuSans-56" x="379.150391"/>
     <use xlink:href="#DejaVuSans-6f" x="439.808594"/>
     <use xlink:href="#DejaVuSans-6c" x="500.990234"/>
     <use xlink:href="#DejaVuSans-74" x="528.773438"/>
     <use xlink:href="#DejaVuSans-61" x="567.982422"/>
     <use xlink:href="#DejaVuSans-67" x="629.261719"/>
     <use xlink:href="#DejaVuSans-65" x="692.738281"/>
    </g>
   </g>
  </g>
  <g id="axes_2">
   <g id="patch_7">
    <path d="M 52.94 561.773333 
L 709.2 561.773333 
L 709.2 345.466667 
L 52.94 345.466667 
z
" style="fill: #ffffff"/>
   </g>
   <g id="matplotlib.axis_3">
    <g id="xtick_7">
     <g id="line2d_13">
      <g>
       <use xlink:href="#m09dbde300d" x="82.77" y="561.773333" style="stroke: #000000; stroke-width: 0.8"/>
      </g>
     </g>
     <g id="text_14">
      <!-- 0.000 -->
      <g transform="translate(68.455937 576.371771) scale(0.1 -0.1)">
       <use xlink:href="#DejaVuSans-30"/>
       <use xlink:href="#DejaVuSans-2e" x="63.623047"/>
       <use xlink:href="#DejaVuSans-30" x="95.410156"/>
       <use xlink:href="#DejaVuSans-30" x="159.033203"/>
       <use xlink:href="#DejaVuSans-30" x="222.65625"/>
      </g>
     </g>
    </g>
    <g id="xtick_8">
     <g id="line2d_14">
      <g>
       <use xlink:href="#m09dbde300d" x="202.09" y="561.773333" style="stroke: #000000; stroke-width: 0.8"/>
      </g>
     </g>
     <g id="text_15">
      <!-- 0.002 -->
      <g transform="translate(187.775937 576.371771) scale(0.1 -0.1)">
       <use xlink:href="#DejaVuSans-30"/>
       <use xlink:href="#DejaVuSans-2e" x="63.623047"/>
       <use xlink:href="#DejaVuSans-30" x="95.410156"/>
       <use xlink:href="#DejaVuSans-30" x="159.033203"/>
       <use xlink:href="#DejaVuSans-32" x="222.65625"/>
      </g>
     </g>
    </g>
    <g id="xtick_9">
     <g id="line2d_15">
      <g>
       <use xlink:href="#m09dbde300d" x="321.41" y="561.773333" style="stroke: #000000; stroke-width: 0.8"/>
      </g>
     </g>
     <g id="text_16">
      <!-- 0.004 -->
      <g transform="translate(307.095937 576.371771) scale(0.1 -0.1)">
       <use xlink:href="#DejaVuSans-30"/>
       <use xlink:href="#DejaVuSans-2e" x="63.623047"/>
       <use xlink:href="#DejaVuSans-30" x="95.410156"/>
       <use xlink:href="#DejaVuSans-30" x="159.033203"/>
       <use xlink:href="#DejaVuSans-34" x="222.65625"/>
      </g>
     </g>
    </g>
    <g id="xtick_10">
     <g id="line2d_16">
      <g>
       <use xlink:href="#m09dbde300d" x="440.73" y="561.773333" style="stroke: #000000; stroke-width: 0.8"/>
      </g>
     </g>
     <g id="text_17">
      <!-- 0.006 -->
      <g transform="translate(426.415937 576.371771) scale(0.1 -0.1)">
       <use xlink:href="#DejaVuSans-30"/>
       <use xlink:href="#DejaVuSans-2e" x="63.623047"/>
       <use xlink:href="#DejaVuSans-30" x="95.410156"/>
       <use xlink:href="#DejaVuSans-30" x="159.033203"/>
       <use xlink:href="#DejaVuSans-36" x="222.65625"/>
      </g>
     </g>
    </g>
    <g id="xtick_11">
     <g id="line2d_17">
      <g>
       <use xlink:href="#m09dbde300d" x="560.05" y="561.773333" style="stroke: #000000; stroke-width: 0.8"/>
      </g>
     </g>
     <g id="text_18">
      <!-- 0.008 -->
      <g transform="translate(545.735937 576.371771) scale(0.1 -0.1)">
       <use xlink:href="#DejaVuSans-30"/>
       <use xlink:href="#DejaVuSans-2e" x="63.623047"/>
       <use xlink:href="#DejaVuSans-30" x="95.410156"/>
       <use xlink:href="#DejaVuSans-30" x="159.033203"/>
       <use xlink:href="#DejaVuSans-38" x="222.65625"/>
      </g>
     </g>
    </g>
    <g id="xtick_12">
     <g id="line2d_18">
      <g>
       <use xlink:href="#m09dbde300d" x="679.37" y="561.773333" style="stroke: #000000; stroke-width: 0.8"/>
      </g>
     </g>
     <g id="text_19">
      <!-- 0.010 -->
      <g transform="translate(665.055937 576.371771) scale(0.1 -0.1)">
       <use xlink:href="#DejaVuSans-30"/>
       <use xlink:href="#DejaVuSans-2e" x="63.623047"/>
       <use xlink:href="#DejaVuSans-30" x="95.410156"/>
       <use xlink:href="#DejaVuSans-31" x="159.033203"/>
       <use xlink:href="#DejaVuSans-30" x="222.65625"/>
      </g>
     </g>
    </g>
   </g>
   <g id="matplotlib.axis_4">
    <g id="ytick_6">
     <g id="line2d_19">
      <defs>
       <path id="m66baf88376" d="M 0 0 
L -3.5 0 
" style="stroke: #4682b4; stroke-width: 0.8"/>
      </defs>
      <g>
       <use xlink:href="#m66baf88376" x="52.94" y="531.055543" style="fill: #4682b4; stroke: #4682b4; stroke-width: 0.8"/>
      </g>
     </g>
     <g id="text_20">
      <!-- 0.2 -->
      <g style="fill: #4682b4" transform="translate(30.036875 534.854762) scale(0.1 -0.1)">
       <use xlink:href="#DejaVuSans-30"/>
       <use xlink:href="#DejaVuSans-2e" x="63.623047"/>
       <use xlink:href="#DejaVuSans-32" x="95.410156"/>
      </g>
     </g>
    </g>
    <g id="ytick_7">
     <g id="line2d_20">
      <g>
       <use xlink:href="#m66baf88376" x="52.94" y="487.071016" style="fill: #4682b4; stroke: #4682b4; stroke-width: 0.8"/>
      </g>
     </g>
     <g id="text_21">
      <!-- 0.4 -->
      <g style="fill: #4682b4" transform="translate(30.036875 490.870234) scale(0.1 -0.1)">
       <use xlink:href="#DejaVuSans-30"/>
       <use xlink:href="#DejaVuSans-2e" x="63.623047"/>
       <use xlink:href="#DejaVuSans-34" x="95.410156"/>
      </g>
     </g>
    </g>
    <g id="ytick_8">
     <g id="line2d_21">
      <g>
       <use xlink:href="#m66baf88376" x="52.94" y="443.086488" style="fill: #4682b4; stroke: #4682b4; stroke-width: 0.8"/>
      </g>
     </g>
     <g id="text_22">
      <!-- 0.6 -->
      <g style="fill: #4682b4" transform="translate(30.036875 446.885707) scale(0.1 -0.1)">
       <use xlink:href="#DejaVuSans-30"/>
       <use xlink:href="#DejaVuSans-2e" x="63.623047"/>
       <use xlink:href="#DejaVuSans-36" x="95.410156"/>
      </g>
     </g>
    </g>
    <g id="ytick_9">
     <g id="line2d_22">
      <g>
       <use xlink:href="#m66baf88376" x="52.94" y="399.10196" style="fill: #4682b4; stroke: #4682b4; stroke-width: 0.8"/>
      </g>
     </g>
     <g id="text_23">
      <!-- 0.8 -->
      <g style="fill: #4682b4" transform="translate(30.036875 402.901179) scale(0.1 -0.1)">
       <use xlink:href="#DejaVuSans-30"/>
       <use xlink:href="#DejaVuSans-2e" x="63.623047"/>
       <use xlink:href="#DejaVuSans-38" x="95.410156"/>
      </g>
     </g>
    </g>
    <g id="ytick_10">
     <g id="line2d_23">
      <g>
       <use xlink:href="#m66baf88376" x="52.94" y="355.117432" style="fill: #4682b4; stroke: #4682b4; stroke-width: 0.8"/>
      </g>
     </g>
     <g id="text_24">
      <!-- 1.0 -->
      <g style="fill: #4682b4" transform="translate(30.036875 358.916651) scale(0.1 -0.1)">
       <use xlink:href="#DejaVuSans-31"/>
       <use xlink:href="#DejaVuSans-2e" x="63.623047"/>
       <use xlink:href="#DejaVuSans-30" x="95.410156"/>
      </g>
     </g>
    </g>
    <g id="text_25">
     <!-- Duty Cycle -->
     <g style="fill: #4682b4" transform="translate(23.957187 480.812969) rotate(-90) scale(0.1 -0.1)">
      <defs>
       <path id="DejaVuSans-44" d="M 1259 4147 
L 1259 519 
L 2022 519 
Q 2988 519 3436 956 
Q 3884 1394 3884 2338 
Q 3884 3275 3436 3711 
Q 2988 4147 2022 4147 
L 1259 4147 
z
M 628 4666 
L 1925 4666 
Q 3281 4666 3915 4102 
Q 4550 3538 4550 2338 
Q 4550 1131 3912 565 
Q 3275 0 1925 0 
L 628 0 
L 628 4666 
z
" transform="scale(0.015625)"/>
       <path id="DejaVuSans-79" d="M 2059 -325 
Q 1816 -950 1584 -1140 
Q 1353 -1331 966 -1331 
L 506 -1331 
L 506 -850 
L 844 -850 
Q 1081 -850 1212 -737 
Q 1344 -625 1503 -206 
L 1606 56 
L 191 3500 
L 800 3500 
L 1894 763 
L 2988 3500 
L 3597 3500 
L 2059 -325 
z
" transform="scale(0.015625)"/>
       <path id="DejaVuSans-43" d="M 4122 4306 
L 4122 3641 
Q 3803 3938 3442 4084 
Q 3081 4231 2675 4231 
Q 1875 4231 1450 3742 
Q 1025 3253 1025 2328 
Q 1025 1406 1450 917 
Q 1875 428 2675 428 
Q 3081 428 3442 575 
Q 3803 722 4122 1019 
L 4122 359 
Q 3791 134 3420 21 
Q 3050 -91 2638 -91 
Q 1578 -91 968 557 
Q 359 1206 359 2328 
Q 359 3453 968 4101 
Q 1578 4750 2638 4750 
Q 3056 4750 3426 4639 
Q 3797 4528 4122 4306 
z
" transform="scale(0.015625)"/>
       <path id="DejaVuSans-63" d="M 3122 3366 
L 3122 2828 
Q 2878 2963 2633 3030 
Q 2388 3097 2138 3097 
Q 1578 3097 1268 2742 
Q 959 2388 959 1747 
Q 959 1106 1268 751 
Q 1578 397 2138 397 
Q 2388 397 2633 464 
Q 2878 531 3122 666 
L 3122 134 
Q 2881 22 2623 -34 
Q 2366 -91 2075 -91 
Q 1284 -91 818 406 
Q 353 903 353 1747 
Q 353 2603 823 3093 
Q 1294 3584 2113 3584 
Q 2378 3584 2631 3529 
Q 2884 3475 3122 3366 
z
" transform="scale(0.015625)"/>
      </defs>
      <use xlink:href="#DejaVuSans-44"/>
      <use xlink:href="#DejaVuSans-75" x="77.001953"/>
      <use xlink:href="#DejaVuSans-74" x="140.380859"/>
      <use xlink:href="#DejaVuSans-79" x="179.589844"/>
      <use xlink:href="#DejaVuSans-20" x="238.769531"/>
      <use xlink:href="#DejaVuSans-43" x="270.556641"/>
      <use xlink:href="#DejaVuSans-79" x="340.380859"/>
      <use xlink:href="#DejaVuSans-63" x="399.560547"/>
      <use xlink:href="#DejaVuSans-6c" x="454.541016"/>
      <use xlink:href="#DejaVuSans-65" x="482.324219"/>
     </g>
    </g>
   </g>
   <g id="line2d_24">
    <path d="M 82.77 462.588765 
L 83.3666 462.773118 
L 83.9632 462.664972 
L 84.5598 463.330975 
L 86.9462 463.927584 
L 87.5428 463.427231 
L 88.1394 441.16662 
L 88.736 463.174065 
L 89.3326 463.29982 
L 89.9292 462.689496 
L 90.5258 462.391521 
L 91.1224 462.620885 
L 91.719 460.972362 
L 92.3156 461.853707 
L 92.9122 462.265525 
L 93.5088 463.078547 
L 94.1054 462.883473 
L 95.8952 463.284468 
L 96.4918 464.146572 
L 97.0884 464.08736 
L 97.685 464.666081 
L 98.2816 464.090029 
L 98.8782 363.493624 
L 99.4748 465.098734 
L 100.0714 465.214324 
L 100.668 465.457078 
L 101.2646 466.463602 
L 101.8612 466.575717 
L 102.4578 466.199129 
L 103.0544 466.313768 
L 103.651 465.419539 
L 104.2476 465.818099 
L 105.4408 465.581762 
L 106.0374 465.908726 
L 106.634 465.986298 
L 107.2306 466.556579 
L 107.8272 466.818886 
L 108.4238 467.434104 
L 109.0204 467.485236 
L 109.617 466.598896 
L 110.2136 465.939889 
L 110.8102 466.420348 
L 111.4068 466.454338 
L 112.0034 467.258615 
L 112.6 466.618039 
L 113.1966 466.418031 
L 113.7932 466.841198 
L 114.3898 467.472486 
L 114.9864 466.244129 
L 115.583 465.876562 
L 116.1796 465.801041 
L 116.7762 528.321623 
L 117.3728 466.325692 
L 117.9694 467.068826 
L 118.566 466.915545 
L 119.1626 467.911575 
L 120.3558 468.287911 
L 120.9524 470.024188 
L 121.549 469.441087 
L 122.1456 469.445641 
L 123.9354 468.654744 
L 124.532 468.187789 
L 125.1286 468.988636 
L 125.7252 468.819043 
L 126.3218 468.213405 
L 126.9184 468.668977 
L 127.515 469.797741 
L 128.1116 469.485255 
L 128.7082 469.46014 
L 129.3048 468.810507 
L 130.498 470.601029 
L 131.0946 471.679574 
L 131.6912 470.925469 
L 132.2878 470.547589 
L 132.8844 471.040563 
L 133.481 470.772763 
L 134.0776 470.837504 
L 134.6742 471.55621 
L 135.2708 551.941212 
L 135.8674 471.552339 
L 137.0606 473.376619 
L 137.6572 473.835541 
L 138.2538 473.321697 
L 138.8504 474.155163 
L 139.447 474.215675 
L 140.0436 475.106355 
L 140.6402 476.686197 
L 141.2368 475.802785 
L 141.8334 476.131945 
L 142.43 476.683549 
L 143.0266 476.609094 
L 144.2198 476.741161 
L 144.8164 476.684641 
L 145.413 475.258203 
L 146.0096 475.412094 
L 146.6062 476.265549 
L 147.2028 475.063551 
L 147.7994 475.985199 
L 148.396 475.884789 
L 149.5892 474.732912 
L 150.7824 475.78602 
L 151.9756 476.295888 
L 152.5722 475.610038 
L 153.1688 476.560812 
L 153.7654 476.771763 
L 154.362 475.977201 
L 154.9586 475.454525 
L 155.5552 434.75499 
L 156.1518 475.364172 
L 156.7484 475.92768 
L 157.345 474.813222 
L 157.9416 475.370916 
L 158.5382 474.753134 
L 159.1348 473.914641 
L 160.328 474.151741 
L 160.9246 473.353211 
L 161.5212 473.772148 
L 162.1178 473.618439 
L 162.7144 474.444599 
L 163.311 473.627234 
L 163.9076 474.927394 
L 164.5042 475.178626 
L 165.1008 475.233309 
L 165.6974 475.010336 
L 166.294 475.5003 
L 166.8906 474.924924 
L 167.4872 475.626712 
L 168.0838 475.441462 
L 168.6804 474.819093 
L 171.0668 476.012689 
L 171.6634 475.417821 
L 172.26 475.70771 
L 173.4532 474.937879 
L 174.0498 474.472124 
L 175.243 474.909288 
L 175.8396 474.854727 
L 176.4362 474.638722 
L 177.0328 475.197537 
L 177.6294 473.862503 
L 178.226 473.885428 
L 179.4192 471.081316 
L 180.0158 471.120825 
L 180.6124 470.955096 
L 181.8056 471.33321 
L 182.4022 472.075482 
L 182.9988 472.33585 
L 183.5954 472.258434 
L 184.192 472.432421 
L 184.7886 472.233572 
L 185.3852 473.613697 
L 185.9818 473.837694 
L 186.5784 473.391847 
L 187.175 473.44756 
L 187.7716 474.543777 
L 188.3682 475.335075 
L 188.9648 475.219931 
L 189.5614 475.993383 
L 190.158 477.03702 
L 191.3512 476.653121 
L 191.9478 475.167715 
L 192.5444 475.046297 
L 193.141 475.459299 
L 193.7376 474.967849 
L 194.3342 474.751939 
L 194.9308 475.048633 
L 195.5274 476.166828 
L 196.124 475.697339 
L 196.7206 475.624266 
L 197.3172 476.134074 
L 197.9138 477.064148 
L 198.5104 477.157468 
L 199.107 477.019152 
L 200.3002 477.454242 
L 200.8968 477.76669 
L 201.4934 477.615885 
L 202.09 476.643743 
L 203.2832 475.341665 
L 203.8798 475.273563 
L 204.4764 474.69817 
L 205.073 474.903755 
L 205.6696 474.373791 
L 206.2662 474.651786 
L 206.8628 475.574395 
L 208.056 476.440685 
L 208.6526 475.307379 
L 209.2492 474.949272 
L 209.8458 474.751753 
L 210.4424 475.057306 
L 211.039 476.016669 
L 211.6356 475.500618 
L 212.8288 475.220013 
L 213.4254 474.347686 
L 214.022 474.822652 
L 214.6186 474.545282 
L 215.2152 473.977702 
L 215.8118 474.196646 
L 216.4084 474.228054 
L 217.6016 473.955861 
L 218.7948 473.23768 
L 219.3914 473.578499 
L 219.988 473.452768 
L 220.5846 472.712786 
L 221.1812 473.057518 
L 221.7778 472.489056 
L 222.3744 472.849371 
L 222.971 472.38538 
L 223.5676 472.238149 
L 224.1642 471.518194 
L 224.7608 470.589948 
L 225.3574 470.138487 
L 225.954 470.742952 
L 226.5506 471.617673 
L 227.1472 471.713275 
L 227.7438 472.495449 
L 228.3404 471.358817 
L 228.937 470.915233 
L 229.5336 472.28287 
L 230.1302 473.062688 
L 230.7268 472.179247 
L 231.3234 470.413854 
L 231.92 470.391806 
L 233.7098 467.281415 
L 234.3064 466.84224 
L 234.903 467.056506 
L 235.4996 467.597066 
L 236.0962 467.758891 
L 236.6928 468.485673 
L 237.2894 467.63718 
L 237.886 466.185233 
L 238.4826 465.866552 
L 239.0792 464.750072 
L 240.2724 465.849828 
L 241.4656 465.895874 
L 242.6588 464.088352 
L 243.2554 464.054451 
L 243.852 463.855547 
L 244.4486 463.484866 
L 245.6418 463.867874 
L 246.2384 464.922437 
L 246.835 464.475001 
L 247.4316 465.020949 
L 248.0282 464.639207 
L 248.6248 465.305047 
L 249.2214 464.983058 
L 250.4146 465.350383 
L 251.0112 464.980353 
L 251.6078 465.087457 
L 252.2044 463.886903 
L 252.801 463.234258 
L 253.3976 463.180324 
L 254.5908 463.66931 
L 255.1874 463.897242 
L 256.3806 463.033999 
L 256.9772 463.605001 
L 257.5738 463.837767 
L 258.1704 464.279482 
L 258.767 464.259394 
L 259.3636 463.789622 
L 259.9602 464.015032 
L 260.5568 463.340012 
L 261.1534 464.265274 
L 261.75 464.602485 
L 262.9432 466.57002 
L 263.5398 466.610229 
L 264.1364 466.525472 
L 264.733 466.173181 
L 265.9262 464.937934 
L 266.5228 465.696042 
L 267.1194 465.7124 
L 268.3126 467.531091 
L 268.9092 467.862555 
L 269.5058 468.602596 
L 270.1024 468.171099 
L 270.699 467.918512 
L 271.2956 468.536292 
L 272.4888 469.335362 
L 273.0854 469.920743 
L 273.682 472.288251 
L 274.2786 473.271084 
L 274.8752 473.414312 
L 275.4718 473.372131 
L 276.0684 473.163173 
L 276.665 473.516806 
L 277.2616 474.515415 
L 277.8582 473.578854 
L 278.4548 472.977634 
L 279.0514 473.040767 
L 279.648 473.402605 
L 280.2446 472.685773 
L 280.8412 472.657887 
L 282.0344 471.499828 
L 282.631 471.337032 
L 283.2276 471.453355 
L 283.8242 470.806112 
L 284.4208 470.331497 
L 285.0174 470.641873 
L 285.614 472.158439 
L 286.2106 472.0317 
L 286.8072 473.167136 
L 287.4038 473.247028 
L 288.0004 472.040506 
L 288.597 471.874818 
L 289.1936 471.363722 
L 289.7902 471.526115 
L 290.3868 472.271226 
L 290.9834 471.319672 
L 291.58 472.095338 
L 292.1766 471.537282 
L 292.7732 471.717751 
L 293.3698 472.316392 
L 293.9664 472.373184 
L 294.563 471.761755 
L 295.7562 472.459745 
L 296.3528 472.020063 
L 296.9494 472.471502 
L 297.546 473.134116 
L 298.1426 473.346821 
L 298.7392 474.173733 
L 299.9324 474.427642 
L 301.7222 476.791825 
L 302.9154 477.61192 
L 303.512 478.656165 
L 304.1086 479.072916 
L 304.7052 479.795091 
L 305.3018 479.522578 
L 305.8984 480.213801 
L 306.495 480.079554 
L 307.0916 480.84139 
L 307.6882 479.94766 
L 308.2848 480.108589 
L 308.8814 480.518891 
L 309.478 479.387454 
L 310.0746 479.763909 
L 310.6712 478.916777 
L 311.2678 477.866436 
L 311.8644 478.31964 
L 312.461 479.463809 
L 313.0576 479.418681 
L 313.6542 478.531255 
L 314.2508 479.494676 
L 315.444 480.319953 
L 316.0406 479.879433 
L 316.6372 480.951488 
L 317.2338 480.306707 
L 317.8304 480.37095 
L 318.427 480.577243 
L 319.0236 480.4923 
L 319.6202 479.21068 
L 320.2168 479.239192 
L 320.8134 478.26596 
L 321.41 478.475288 
L 322.0066 478.985111 
L 322.6032 478.220474 
L 323.1998 477.035833 
L 323.7964 476.578399 
L 324.393 476.954692 
L 324.9896 475.690417 
L 325.5862 475.872991 
L 326.1828 476.211942 
L 326.7794 475.758582 
L 327.376 476.233472 
L 327.9726 475.596702 
L 328.5692 474.171797 
L 329.7624 472.95471 
L 330.9556 473.564928 
L 331.5522 473.601086 
L 332.1488 473.938423 
L 332.7454 473.615669 
L 333.342 473.496744 
L 333.9386 474.327292 
L 334.5352 474.36907 
L 335.1318 475.606369 
L 335.7284 476.011299 
L 336.325 475.670879 
L 337.5182 474.694725 
L 338.1148 475.725951 
L 338.7114 475.352202 
L 339.308 475.340995 
L 339.9046 475.915083 
L 340.5012 477.280793 
L 341.6944 477.384681 
L 342.291 477.90789 
L 342.8876 476.617214 
L 343.4842 475.970821 
L 344.6774 476.260754 
L 345.274 477.255652 
L 345.8706 477.929764 
L 346.4672 479.141706 
L 347.0638 478.843121 
L 347.6604 479.891859 
L 348.257 480.295315 
L 348.8536 479.133392 
L 349.4502 478.275796 
L 350.0468 478.917157 
L 350.6434 478.27145 
L 351.24 478.51674 
L 351.8366 479.360072 
L 352.4332 478.516603 
L 353.0298 541.08395 
L 353.6264 477.293306 
L 354.223 477.71571 
L 354.8196 470.689371 
L 355.4162 477.521575 
L 356.0128 478.066242 
L 356.6094 478.321527 
L 357.206 477.142231 
L 358.3992 476.504428 
L 358.9958 476.650684 
L 360.189 474.977857 
L 360.7856 474.047769 
L 361.3822 474.389034 
L 361.9788 474.187708 
L 362.5754 474.669765 
L 363.7686 473.153054 
L 364.3652 473.406401 
L 364.9618 474.211051 
L 365.5584 474.073474 
L 366.155 475.107012 
L 366.7516 474.917917 
L 367.3482 474.908421 
L 367.9448 475.969373 
L 369.7346 474.56735 
L 370.3312 474.574618 
L 371.5244 473.186781 
L 372.121 472.993345 
L 372.7176 473.709971 
L 373.3142 473.792664 
L 373.9108 474.619427 
L 374.5074 474.856292 
L 375.104 474.39665 
L 376.2972 473.734615 
L 376.8938 474.972305 
L 377.4904 475.554451 
L 378.6836 477.901847 
L 379.2802 476.857298 
L 379.8768 476.548387 
L 380.4734 476.511111 
L 381.07 475.762193 
L 381.6666 475.757197 
L 382.2632 476.150507 
L 382.8598 476.206035 
L 384.053 475.686817 
L 384.6496 475.932265 
L 385.2462 475.417884 
L 385.8428 476.33674 
L 386.4394 477.510149 
L 387.036 478.355729 
L 387.6326 478.334916 
L 388.2292 478.045051 
L 388.8258 480.184563 
L 389.4224 481.0066 
L 391.2122 481.181266 
L 391.8088 376.268307 
L 392.4054 481.744904 
L 393.002 481.213792 
L 393.5986 481.307749 
L 394.1952 468.412503 
L 394.7918 482.811662 
L 395.3884 483.14455 
L 395.985 482.942204 
L 396.5816 417.50515 
L 397.1782 483.981334 
L 398.3714 483.980063 
L 398.968 484.7825 
L 399.5646 482.159724 
L 400.1612 482.307019 
L 400.7578 484.458528 
L 401.3544 484.800223 
L 401.951 483.762468 
L 403.1442 483.744994 
L 403.7408 483.935041 
L 404.3374 483.936574 
L 404.934 481.862656 
L 405.5306 482.117564 
L 406.1272 480.600198 
L 406.7238 479.95833 
L 407.3204 480.302893 
L 407.917 480.372584 
L 408.5136 479.98487 
L 409.1102 478.933566 
L 409.7068 479.297958 
L 410.3034 479.905731 
L 410.9 478.711956 
L 411.4966 479.45647 
L 412.0932 478.87488 
L 412.6898 477.264312 
L 413.2864 477.588648 
L 413.883 478.353546 
L 414.4796 478.673279 
L 415.0762 479.383941 
L 415.6728 479.661247 
L 416.2694 479.747729 
L 417.4626 478.757074 
L 418.0592 478.649124 
L 418.6558 478.283822 
L 419.2524 478.607932 
L 419.849 478.760457 
L 420.4456 478.404057 
L 421.0422 477.480509 
L 421.6388 477.639562 
L 422.2354 478.576446 
L 422.832 478.296065 
L 423.4286 478.568884 
L 424.0252 479.598407 
L 424.6218 479.99431 
L 425.2184 478.884809 
L 425.815 479.345267 
L 427.0082 478.363752 
L 427.6048 478.591757 
L 428.2014 479.070752 
L 429.3946 479.742562 
L 430.5878 481.174526 
L 431.1844 481.060307 
L 431.781 480.162909 
L 432.3776 480.689578 
L 432.9742 480.33975 
L 433.5708 480.593115 
L 434.1674 481.285179 
L 434.764 480.407237 
L 435.3606 480.118815 
L 435.9572 481.299129 
L 436.5538 481.054712 
L 437.1504 481.630907 
L 437.747 480.707502 
L 438.3436 480.824802 
L 438.9402 480.43721 
L 439.5368 480.251637 
L 440.73 481.545401 
L 441.3266 481.284328 
L 441.9232 482.130929 
L 442.5198 481.483491 
L 443.1164 482.436506 
L 443.713 482.695308 
L 444.3096 482.823523 
L 444.9062 483.414238 
L 445.5028 483.123439 
L 446.0994 483.81597 
L 446.696 483.123007 
L 448.4858 482.364757 
L 449.0824 482.282567 
L 449.679 482.522656 
L 450.2756 481.855887 
L 450.8722 481.688581 
L 451.4688 482.241154 
L 452.0654 481.541077 
L 452.662 482.229719 
L 453.2586 482.320421 
L 453.8552 482.252514 
L 454.4518 481.712036 
L 455.0484 481.547501 
L 455.645 481.955667 
L 456.2416 482.073661 
L 456.8382 481.624455 
L 457.4348 480.824305 
L 458.628 480.919135 
L 459.2246 481.238141 
L 459.8212 480.584156 
L 461.0144 480.553873 
L 461.611 480.8131 
L 462.2076 479.862697 
L 462.8042 480.334738 
L 463.4008 479.394375 
L 463.9974 479.584147 
L 464.594 480.028223 
L 465.1906 479.543298 
L 465.7872 478.446012 
L 466.3838 478.613294 
L 466.9804 479.429769 
L 467.577 479.626486 
L 468.7702 480.75672 
L 469.3668 480.128338 
L 469.9634 479.888369 
L 470.56 480.023447 
L 471.1566 480.599974 
L 471.7532 548.791627 
L 472.3498 480.944497 
L 472.9464 481.914401 
L 473.543 481.142544 
L 474.1396 482.12906 
L 474.7362 483.528508 
L 475.3328 483.130496 
L 475.9294 482.964292 
L 476.526 481.593377 
L 477.1226 481.994817 
L 477.7192 482.708644 
L 478.3158 482.367501 
L 478.9124 482.807358 
L 479.509 481.983462 
L 480.7022 482.094798 
L 481.2988 481.983262 
L 481.8954 482.744867 
L 482.492 481.316853 
L 483.0886 481.161585 
L 483.6852 482.173586 
L 484.2818 482.852265 
L 484.8784 483.831255 
L 485.475 483.536161 
L 486.0716 483.895225 
L 486.6682 483.757649 
L 487.2648 483.322026 
L 487.8614 483.292475 
L 488.458 483.05668 
L 489.0546 483.447858 
L 489.6512 483.313708 
L 490.2478 484.165226 
L 490.8444 483.186377 
L 491.441 483.316153 
L 492.0376 482.709139 
L 492.6342 483.398306 
L 493.2308 355.298788 
L 493.8274 483.191579 
L 494.424 482.365879 
L 495.6172 483.729275 
L 496.2138 483.262623 
L 496.8104 483.600489 
L 497.407 356.424924 
L 498.0036 484.043825 
L 499.1968 484.707376 
L 499.7934 484.349025 
L 500.39 483.024752 
L 500.9866 482.665147 
L 501.5832 482.459505 
L 502.1798 481.512786 
L 502.7764 481.82681 
L 503.373 480.975317 
L 503.9696 481.039744 
L 504.5662 480.147144 
L 505.1628 479.698513 
L 505.7594 479.055274 
L 506.9526 478.290037 
L 507.5492 478.754875 
L 508.1458 479.372101 
L 508.7424 479.40254 
L 509.9356 478.236759 
L 510.5322 478.019575 
L 511.1288 477.2276 
L 512.322 477.204895 
L 512.9186 476.484883 
L 513.5152 476.748287 
L 514.1118 476.878396 
L 514.7084 476.4012 
L 515.305 477.657092 
L 515.9016 477.000524 
L 516.4982 477.547348 
L 517.0948 477.324667 
L 517.6914 476.707525 
L 518.288 476.830785 
L 518.8846 476.76642 
L 519.4812 477.52611 
L 520.0778 477.591596 
L 520.6744 477.883409 
L 521.271 477.423844 
L 521.8676 477.854426 
L 522.4642 479.01067 
L 523.0608 479.787593 
L 523.6574 480.827923 
L 524.254 480.761448 
L 524.8506 480.812416 
L 525.4472 479.942917 
L 526.0438 480.653499 
L 526.6404 479.06479 
L 527.237 478.000797 
L 528.4302 474.308355 
L 529.0268 474.569448 
L 530.22 474.18348 
L 530.8166 474.713028 
L 531.4132 474.806315 
L 532.0098 473.339813 
L 532.6064 472.20653 
L 533.7996 472.409023 
L 534.3962 473.262457 
L 534.9928 474.320733 
L 536.186 474.285991 
L 536.7826 474.484429 
L 537.9758 475.759474 
L 538.5724 476.058634 
L 539.169 476.069424 
L 539.7656 475.423883 
L 540.3622 475.01933 
L 540.9588 475.784427 
L 541.5554 475.054673 
L 542.152 474.558442 
L 542.7486 474.521756 
L 543.3452 475.988355 
L 543.9418 474.870546 
L 544.5384 474.630751 
L 545.7316 474.848798 
L 546.3282 474.177292 
L 546.9248 474.571631 
L 547.5214 475.681126 
L 548.118 475.785541 
L 549.3112 476.859649 
L 549.9078 476.75807 
L 550.5044 476.974277 
L 551.101 476.093978 
L 551.6976 476.918321 
L 552.2942 476.336431 
L 552.8908 476.048174 
L 553.4874 476.219843 
L 554.084 477.677834 
L 554.6806 477.832393 
L 555.2772 477.52149 
L 555.8738 477.822768 
L 556.4704 477.945592 
L 557.067 478.840916 
L 557.6636 478.476133 
L 558.2602 478.261608 
L 558.8568 478.374894 
L 560.05 479.050667 
L 561.8398 477.746102 
L 562.4364 476.471888 
L 563.033 476.645835 
L 563.6296 475.47334 
L 564.2262 476.05543 
L 564.8228 476.476195 
L 565.4194 475.125324 
L 566.016 474.22952 
L 566.6126 475.175221 
L 567.8058 476.463599 
L 568.4024 476.375808 
L 568.999 475.923428 
L 569.5956 476.385977 
L 570.1922 474.714093 
L 570.7888 474.76332 
L 571.3854 475.156734 
L 571.982 474.7357 
L 572.5786 475.284711 
L 573.1752 475.405312 
L 573.7718 475.875895 
L 574.3684 475.164007 
L 574.965 476.258871 
L 575.5616 475.753549 
L 576.1582 475.436268 
L 576.7548 476.341292 
L 577.3514 475.7024 
L 577.948 474.727365 
L 578.5446 473.383927 
L 579.1412 473.788474 
L 579.7378 474.00352 
L 580.3344 474.488983 
L 581.5276 473.457942 
L 582.1242 474.225331 
L 582.7208 473.790902 
L 584.5106 472.00474 
L 585.1072 472.451379 
L 585.7038 472.092444 
L 586.3004 471.540197 
L 587.4936 471.609651 
L 588.0902 471.376316 
L 588.6868 471.697373 
L 589.2834 472.475425 
L 589.88 472.793716 
L 591.0732 474.383569 
L 591.6698 474.17651 
L 592.863 474.238234 
L 593.4596 473.844134 
L 594.0562 474.914141 
L 595.2494 474.801323 
L 595.846 475.851571 
L 596.4426 475.051157 
L 597.0392 476.122696 
L 597.6358 475.962594 
L 598.2324 475.58056 
L 598.829 377.113807 
L 599.4256 475.379413 
L 600.0222 475.518404 
L 600.6188 476.725171 
L 601.2154 477.223153 
L 601.812 476.665036 
L 602.4086 477.171506 
L 603.0052 476.653502 
L 603.6018 476.844111 
L 604.795 476.200524 
L 605.3916 475.300036 
L 605.9882 474.958537 
L 607.1814 476.210329 
L 607.778 476.249828 
L 608.3746 475.959033 
L 608.9712 476.138901 
L 609.5678 476.452794 
L 610.1644 477.206749 
L 610.761 477.072404 
L 611.9542 479.926867 
L 613.744 479.419672 
L 614.3406 479.285659 
L 614.9372 478.952413 
L 615.5338 478.82574 
L 616.1304 478.537814 
L 616.727 477.963504 
L 617.3236 478.698534 
L 617.9202 477.835888 
L 618.5168 479.267484 
L 619.1134 478.616964 
L 619.71 479.208739 
L 620.3066 479.130828 
L 620.9032 478.756447 
L 621.4998 478.557663 
L 622.0964 477.938228 
L 622.693 477.857037 
L 623.8862 479.561942 
L 625.0794 479.206846 
L 625.676 479.134506 
L 626.2726 480.260605 
L 627.4658 480.474506 
L 628.0624 480.017431 
L 628.659 479.914459 
L 629.2556 480.142598 
L 629.8522 479.933448 
L 630.4488 479.99706 
L 631.0454 479.869533 
L 631.642 479.393032 
L 632.2386 480.036106 
L 632.8352 481.20903 
L 633.4318 481.747162 
L 634.0284 481.788733 
L 634.625 481.011388 
L 635.2216 480.841266 
L 635.8182 480.522227 
L 636.4148 481.142831 
L 637.0114 480.673475 
L 638.8012 480.423064 
L 639.3978 480.901348 
L 639.9944 479.936426 
L 640.591 480.131187 
L 641.1876 480.513744 
L 641.7842 480.301139 
L 642.9774 480.212391 
L 643.574 479.851685 
L 644.1706 479.811424 
L 644.7672 480.385571 
L 645.3638 480.549714 
L 645.9604 481.442368 
L 646.557 481.698586 
L 647.1536 481.221324 
L 647.7502 481.398651 
L 648.3468 482.094207 
L 648.9434 481.114687 
L 649.54 481.955177 
L 650.1366 481.508777 
L 650.7332 480.42577 
L 651.3298 480.766366 
L 651.9264 479.553943 
L 652.523 479.756324 
L 653.1196 480.44426 
L 653.7162 480.603834 
L 654.3128 480.195345 
L 654.9094 480.12498 
L 656.1026 478.989301 
L 656.6992 477.935192 
L 657.2958 477.61731 
L 657.8924 478.391959 
L 658.489 477.99106 
L 659.0856 478.542547 
L 659.6822 479.664936 
L 660.2788 479.194939 
L 660.8754 479.075119 
L 661.472 481.314409 
L 662.0686 481.331747 
L 662.6652 480.912894 
L 663.2618 480.017991 
L 663.8584 479.326537 
L 664.455 480.046708 
L 665.0516 480.030966 
L 665.6482 480.69154 
L 666.2448 479.660297 
L 666.8414 479.11095 
L 667.438 479.785481 
L 668.0346 479.84443 
L 668.6312 479.298146 
L 669.2278 479.349609 
L 669.8244 479.990446 
L 671.6142 478.084397 
L 672.8074 478.011128 
L 673.404 478.499786 
L 674.0006 478.022897 
L 674.5972 478.843122 
L 675.1938 479.103792 
L 675.7904 478.099963 
L 676.387 478.763456 
L 676.9836 478.420321 
L 677.5802 478.216723 
L 678.1768 477.460954 
L 678.7734 478.072299 
L 679.37 478.02034 
L 679.37 478.02034 
" clip-path="url(#p6a6a2b9548)" style="fill: none; stroke: #4682b4; stroke-width: 1.5; stroke-linecap: square"/>
   </g>
   <g id="patch_8">
    <path d="M 52.94 561.773333 
L 52.94 345.466667 
" style="fill: none; stroke: #000000; stroke-width: 0.8; stroke-linejoin: miter; stroke-linecap: square"/>
   </g>
   <g id="patch_9">
    <path d="M 709.2 561.773333 
L 709.2 345.466667 
" style="fill: none; stroke: #000000; stroke-width: 0.8; stroke-linejoin: miter; stroke-linecap: square"/>
   </g>
   <g id="patch_10">
    <path d="M 52.94 561.773333 
L 709.2 561.773333 
" style="fill: none; stroke: #000000; stroke-width: 0.8; stroke-linejoin: miter; stroke-linecap: square"/>
   </g>
   <g id="patch_11">
    <path d="M 52.94 345.466667 
L 709.2 345.466667 
" style="fill: none; stroke: #000000; stroke-width: 0.8; stroke-linejoin: miter; stroke-linecap: square"/>
   </g>
   <g id="text_26">
    <!-- Duty Cycle -->
    <g transform="translate(348.438437 339.466667) scale(0.12 -0.12)">
     <use xlink:href="#DejaVuSans-44"/>
     <use xlink:href="#DejaVuSans-75" x="77.001953"/>
     <use xlink:href="#DejaVuSans-74" x="140.380859"/>
     <use xlink:href="#DejaVuSans-79" x="179.589844"/>
     <use xlink:href="#DejaVuSans-20" x="238.769531"/>
     <use xlink:href="#DejaVuSans-43" x="270.556641"/>
     <use xlink:href="#DejaVuSans-79" x="340.380859"/>
     <use xlink:href="#DejaVuSans-63" x="399.560547"/>
     <use xlink:href="#DejaVuSans-6c" x="454.541016"/>
     <use xlink:href="#DejaVuSans-65" x="482.324219"/>
    </g>
   </g>
  </g>
  <g id="axes_3">
   <g id="patch_12">
    <path d="M 52.94 822.04 
L 709.2 822.04 
L 709.2 605.733333 
L 52.94 605.733333 
z
" style="fill: #ffffff"/>
   </g>
   <g id="matplotlib.axis_5">
    <g id="xtick_13">
     <g id="line2d_25">
      <g>
       <use xlink:href="#m09dbde300d" x="82.77" y="822.04" style="stroke: #000000; stroke-width: 0.8"/>
      </g>
     </g>
     <g id="text_27">
      <!-- 0.000 -->
      <g transform="translate(68.455937 836.638437) scale(0.1 -0.1)">
       <use xlink:href="#DejaVuSans-30"/>
       <use xlink:href="#DejaVuSans-2e" x="63.623047"/>
       <use xlink:href="#DejaVuSans-30" x="95.410156"/>
       <use xlink:href="#DejaVuSans-30" x="159.033203"/>
       <use xlink:href="#DejaVuSans-30" x="222.65625"/>
      </g>
     </g>
    </g>
    <g id="xtick_14">
     <g id="line2d_26">
      <g>
       <use xlink:href="#m09dbde300d" x="202.09" y="822.04" style="stroke: #000000; stroke-width: 0.8"/>
      </g>
     </g>
     <g id="text_28">
      <!-- 0.002 -->
      <g transform="translate(187.775937 836.638437) scale(0.1 -0.1)">
       <use xlink:href="#DejaVuSans-30"/>
       <use xlink:href="#DejaVuSans-2e" x="63.623047"/>
       <use xlink:href="#DejaVuSans-30" x="95.410156"/>
       <use xlink:href="#DejaVuSans-30" x="159.033203"/>
       <use xlink:href="#DejaVuSans-32" x="222.65625"/>
      </g>
     </g>
    </g>
    <g id="xtick_15">
     <g id="line2d_27">
      <g>
       <use xlink:href="#m09dbde300d" x="321.41" y="822.04" style="stroke: #000000; stroke-width: 0.8"/>
      </g>
     </g>
     <g id="text_29">
      <!-- 0.004 -->
      <g transform="translate(307.095937 836.638437) scale(0.1 -0.1)">
       <use xlink:href="#DejaVuSans-30"/>
       <use xlink:href="#DejaVuSans-2e" x="63.623047"/>
       <use xlink:href="#DejaVuSans-30" x="95.410156"/>
       <use xlink:href="#DejaVuSans-30" x="159.033203"/>
       <use xlink:href="#DejaVuSans-34" x="222.65625"/>
      </g>
     </g>
    </g>
    <g id="xtick_16">
     <g id="line2d_28">
      <g>
       <use xlink:href="#m09dbde300d" x="440.73" y="822.04" style="stroke: #000000; stroke-width: 0.8"/>
      </g>
     </g>
     <g id="text_30">
      <!-- 0.006 -->
      <g transform="translate(426.415937 836.638437) scale(0.1 -0.1)">
       <use xlink:href="#DejaVuSans-30"/>
       <use xlink:href="#DejaVuSans-2e" x="63.623047"/>
       <use xlink:href="#DejaVuSans-30" x="95.410156"/>
       <use xlink:href="#DejaVuSans-30" x="159.033203"/>
       <use xlink:href="#DejaVuSans-36" x="222.65625"/>
      </g>
     </g>
    </g>
    <g id="xtick_17">
     <g id="line2d_29">
      <g>
       <use xlink:href="#m09dbde300d" x="560.05" y="822.04" style="stroke: #000000; stroke-width: 0.8"/>
      </g>
     </g>
     <g id="text_31">
      <!-- 0.008 -->
      <g transform="translate(545.735937 836.638437) scale(0.1 -0.1)">
       <use xlink:href="#DejaVuSans-30"/>
       <use xlink:href="#DejaVuSans-2e" x="63.623047"/>
       <use xlink:href="#DejaVuSans-30" x="95.410156"/>
       <use xlink:href="#DejaVuSans-30" x="159.033203"/>
       <use xlink:href="#DejaVuSans-38" x="222.65625"/>
      </g>
     </g>
    </g>
    <g id="xtick_18">
     <g id="line2d_30">
      <g>
       <use xlink:href="#m09dbde300d" x="679.37" y="822.04" style="stroke: #000000; stroke-width: 0.8"/>
      </g>
     </g>
     <g id="text_32">
      <!-- 0.010 -->
      <g transform="translate(665.055937 836.638437) scale(0.1 -0.1)">
       <use xlink:href="#DejaVuSans-30"/>
       <use xlink:href="#DejaVuSans-2e" x="63.623047"/>
       <use xlink:href="#DejaVuSans-30" x="95.410156"/>
       <use xlink:href="#DejaVuSans-31" x="159.033203"/>
       <use xlink:href="#DejaVuSans-30" x="222.65625"/>
      </g>
     </g>
    </g>
    <g id="text_33">
     <!-- Time -->
     <g transform="translate(368.836406 850.316562) scale(0.1 -0.1)">
      <defs>
       <path id="DejaVuSans-54" d="M -19 4666 
L 3928 4666 
L 3928 4134 
L 2272 4134 
L 2272 0 
L 1638 0 
L 1638 4134 
L -19 4134 
L -19 4666 
z
" transform="scale(0.015625)"/>
       <path id="DejaVuSans-69" d="M 603 3500 
L 1178 3500 
L 1178 0 
L 603 0 
L 603 3500 
z
M 603 4863 
L 1178 4863 
L 1178 4134 
L 603 4134 
L 603 4863 
z
" transform="scale(0.015625)"/>
       <path id="DejaVuSans-6d" d="M 3328 2828 
Q 3544 3216 3844 3400 
Q 4144 3584 4550 3584 
Q 5097 3584 5394 3201 
Q 5691 2819 5691 2113 
L 5691 0 
L 5113 0 
L 5113 2094 
Q 5113 2597 4934 2840 
Q 4756 3084 4391 3084 
Q 3944 3084 3684 2787 
Q 3425 2491 3425 1978 
L 3425 0 
L 2847 0 
L 2847 2094 
Q 2847 2600 2669 2842 
Q 2491 3084 2119 3084 
Q 1678 3084 1418 2786 
Q 1159 2488 1159 1978 
L 1159 0 
L 581 0 
L 581 3500 
L 1159 3500 
L 1159 2956 
Q 1356 3278 1631 3431 
Q 1906 3584 2284 3584 
Q 2666 3584 2933 3390 
Q 3200 3197 3328 2828 
z
" transform="scale(0.015625)"/>
      </defs>
      <use xlink:href="#DejaVuSans-54"/>
      <use xlink:href="#DejaVuSans-69" x="57.958984"/>
      <use xlink:href="#DejaVuSans-6d" x="85.742188"/>
      <use xlink:href="#DejaVuSans-65" x="183.154297"/>
     </g>
    </g>
   </g>
   <g id="matplotlib.axis_6">
    <g id="ytick_11">
     <g id="line2d_31">
      <defs>
       <path id="mb09a611452" d="M 0 0 
L -3.5 0 
" style="stroke: #008000; stroke-width: 0.8"/>
      </defs>
      <g>
       <use xlink:href="#mb09a611452" x="52.94" y="812.228188" style="fill: #008000; stroke: #008000; stroke-width: 0.8"/>
      </g>
     </g>
     <g id="text_34">
      <!-- 60 -->
      <g style="fill: #008000" transform="translate(24.835313 816.027407) scale(0.1 -0.1)">
       <defs>
        <path id="DejaVuSans-2212" d="M 678 2272 
L 4684 2272 
L 4684 1741 
L 678 1741 
L 678 2272 
z
" transform="scale(0.015625)"/>
       </defs>
       <use xlink:href="#DejaVuSans-2212"/>
       <use xlink:href="#DejaVuSans-36" x="83.789062"/>
       <use xlink:href="#DejaVuSans-30" x="147.412109"/>
      </g>
     </g>
    </g>
    <g id="ytick_12">
     <g id="line2d_32">
      <g>
       <use xlink:href="#mb09a611452" x="52.94" y="774.040243" style="fill: #008000; stroke: #008000; stroke-width: 0.8"/>
      </g>
     </g>
     <g id="text_35">
      <!-- 50 -->
      <g style="fill: #008000" transform="translate(24.835313 777.839462) scale(0.1 -0.1)">
       <defs>
        <path id="DejaVuSans-35" d="M 691 4666 
L 3169 4666 
L 3169 4134 
L 1269 4134 
L 1269 2991 
Q 1406 3038 1543 3061 
Q 1681 3084 1819 3084 
Q 2600 3084 3056 2656 
Q 3513 2228 3513 1497 
Q 3513 744 3044 326 
Q 2575 -91 1722 -91 
Q 1428 -91 1123 -41 
Q 819 9 494 109 
L 494 744 
Q 775 591 1075 516 
Q 1375 441 1709 441 
Q 2250 441 2565 725 
Q 2881 1009 2881 1497 
Q 2881 1984 2565 2268 
Q 2250 2553 1709 2553 
Q 1456 2553 1204 2497 
Q 953 2441 691 2322 
L 691 4666 
z
" transform="scale(0.015625)"/>
       </defs>
       <use xlink:href="#DejaVuSans-2212"/>
       <use xlink:href="#DejaVuSans-35" x="83.789062"/>
       <use xlink:href="#DejaVuSans-30" x="147.412109"/>
      </g>
     </g>
    </g>
    <g id="ytick_13">
     <g id="line2d_33">
      <g>
       <use xlink:href="#mb09a611452" x="52.94" y="735.852298" style="fill: #008000; stroke: #008000; stroke-width: 0.8"/>
      </g>
     </g>
     <g id="text_36">
      <!-- 40 -->
      <g style="fill: #008000" transform="translate(24.835313 739.651517) scale(0.1 -0.1)">
       <use xlink:href="#DejaVuSans-2212"/>
       <use xlink:href="#DejaVuSans-34" x="83.789062"/>
       <use xlink:href="#DejaVuSans-30" x="147.412109"/>
      </g>
     </g>
    </g>
    <g id="ytick_14">
     <g id="line2d_34">
      <g>
       <use xlink:href="#mb09a611452" x="52.94" y="697.664354" style="fill: #008000; stroke: #008000; stroke-width: 0.8"/>
      </g>
     </g>
     <g id="text_37">
      <!-- 30 -->
      <g style="fill: #008000" transform="translate(24.835313 701.463572) scale(0.1 -0.1)">
       <use xlink:href="#DejaVuSans-2212"/>
       <use xlink:href="#DejaVuSans-33" x="83.789062"/>
       <use xlink:href="#DejaVuSans-30" x="147.412109"/>
      </g>
     </g>
    </g>
    <g id="ytick_15">
     <g id="line2d_35">
      <g>
       <use xlink:href="#mb09a611452" x="52.94" y="659.476409" style="fill: #008000; stroke: #008000; stroke-width: 0.8"/>
      </g>
     </g>
     <g id="text_38">
      <!-- 20 -->
      <g style="fill: #008000" transform="translate(24.835313 663.275628) scale(0.1 -0.1)">
       <use xlink:href="#DejaVuSans-2212"/>
       <use xlink:href="#DejaVuSans-32" x="83.789062"/>
       <use xlink:href="#DejaVuSans-30" x="147.412109"/>
      </g>
     </g>
    </g>
    <g id="ytick_16">
     <g id="line2d_36">
      <g>
       <use xlink:href="#mb09a611452" x="52.94" y="621.288464" style="fill: #008000; stroke: #008000; stroke-width: 0.8"/>
      </g>
     </g>
     <g id="text_39">
      <!-- 10 -->
      <g style="fill: #008000" transform="translate(24.835313 625.087683) scale(0.1 -0.1)">
       <use xlink:href="#DejaVuSans-2212"/>
       <use xlink:href="#DejaVuSans-31" x="83.789062"/>
       <use xlink:href="#DejaVuSans-30" x="147.412109"/>
      </g>
     </g>
    </g>
    <g id="text_40">
     <!-- Cost -->
     <g style="fill: #008000" transform="translate(18.755625 725.002292) rotate(-90) scale(0.1 -0.1)">
      <defs>
       <path id="DejaVuSans-73" d="M 2834 3397 
L 2834 2853 
Q 2591 2978 2328 3040 
Q 2066 3103 1784 3103 
Q 1356 3103 1142 2972 
Q 928 2841 928 2578 
Q 928 2378 1081 2264 
Q 1234 2150 1697 2047 
L 1894 2003 
Q 2506 1872 2764 1633 
Q 3022 1394 3022 966 
Q 3022 478 2636 193 
Q 2250 -91 1575 -91 
Q 1294 -91 989 -36 
Q 684 19 347 128 
L 347 722 
Q 666 556 975 473 
Q 1284 391 1588 391 
Q 1994 391 2212 530 
Q 2431 669 2431 922 
Q 2431 1156 2273 1281 
Q 2116 1406 1581 1522 
L 1381 1569 
Q 847 1681 609 1914 
Q 372 2147 372 2553 
Q 372 3047 722 3315 
Q 1072 3584 1716 3584 
Q 2034 3584 2315 3537 
Q 2597 3491 2834 3397 
z
" transform="scale(0.015625)"/>
      </defs>
      <use xlink:href="#DejaVuSans-43"/>
      <use xlink:href="#DejaVuSans-6f" x="69.824219"/>
      <use xlink:href="#DejaVuSans-73" x="131.005859"/>
      <use xlink:href="#DejaVuSans-74" x="183.105469"/>
     </g>
    </g>
   </g>
   <g id="line2d_37">
    <path d="M 82.77 812.207879 
L 83.3666 797.823322 
L 83.9632 797.704914 
L 85.1564 797.109669 
L 86.3496 796.069121 
L 87.5428 794.61603 
L 88.736 792.782491 
L 89.9292 790.599592 
L 91.719 786.736215 
L 93.5088 782.25207 
L 95.8952 775.464664 
L 98.8782 766.010451 
L 101.2646 758.627166 
L 103.0544 753.858321 
L 104.8442 749.741844 
L 106.634 746.20771 
L 108.4238 743.194414 
L 110.2136 740.647799 
L 112.0034 738.52006 
L 114.3898 735.877438 
L 115.583 734.21954 
L 117.3728 731.279919 
L 119.1626 727.862955 
L 121.549 722.68807 
L 123.9354 716.94676 
L 126.9184 709.184688 
L 129.3048 702.998989 
L 131.0946 699.095103 
L 132.8844 695.819563 
L 134.6742 693.100245 
L 136.464 690.874781 
L 138.2538 689.089086 
L 140.0436 687.696114 
L 141.8334 686.654803 
L 144.2198 685.436259 
L 145.413 684.554511 
L 147.2028 682.8622 
L 148.9926 680.777362 
L 150.7824 678.354855 
L 153.1688 674.688339 
L 155.5552 670.625853 
L 157.9416 666.555285 
L 159.7314 664.074686 
L 161.5212 662.084991 
L 163.311 660.529486 
L 165.1008 659.359592 
L 166.8906 658.533552 
L 168.6804 658.015336 
L 170.4702 657.773717 
L 172.26 657.781501 
L 174.0498 657.744031 
L 175.243 657.48527 
L 176.4362 657.040339 
L 178.226 656.054571 
L 180.0158 654.727954 
L 181.8056 653.105235 
L 184.192 650.554254 
L 187.175 646.906223 
L 188.9648 644.921481 
L 190.7546 643.378987 
L 192.5444 642.22494 
L 194.3342 641.415311 
L 196.124 640.912685 
L 197.9138 640.685135 
L 199.7036 640.705281 
L 201.4934 640.949506 
L 203.8798 641.34927 
L 205.073 641.323593 
L 206.2662 641.132237 
L 208.056 640.560064 
L 209.8458 639.68043 
L 211.6356 638.531503 
L 213.4254 637.150003 
L 215.8118 635.006248 
L 217.6016 633.43642 
L 219.3914 632.237129 
L 221.1812 631.385201 
L 222.971 630.841367 
L 224.7608 630.57256 
L 226.5506 630.550807 
L 228.3404 630.752309 
L 230.1302 631.156692 
L 234.3064 632.38852 
L 235.4996 632.473107 
L 237.2894 632.318049 
L 239.0792 631.855313 
L 240.869 631.119349 
L 242.6588 630.143949 
L 245.0452 628.527128 
L 248.0282 626.126242 
L 249.818 624.84779 
L 251.6078 623.924044 
L 253.3976 623.311307 
L 255.1874 622.974774 
L 256.9772 622.885404 
L 258.767 623.018851 
L 260.5568 623.354572 
L 264.1364 624.196307 
L 265.9262 624.228914 
L 267.716 623.978641 
L 269.5058 623.475456 
L 271.2956 622.749172 
L 273.682 621.483893 
L 276.0684 619.939326 
L 277.8582 618.820786 
L 279.648 618.014605 
L 281.4378 617.499978 
L 283.2276 617.244091 
L 285.0174 617.219849 
L 286.8072 617.404779 
L 288.597 617.780121 
L 290.9834 618.549852 
L 293.3698 619.411594 
L 295.1596 619.743948 
L 296.9494 619.790696 
L 298.7392 619.5785 
L 300.529 619.134689 
L 302.3188 618.486552 
L 304.7052 617.350559 
L 306.495 616.506619 
L 308.2848 615.940889 
L 310.0746 615.63683 
L 311.8644 615.566439 
L 313.6542 615.706618 
L 315.444 616.038212 
L 317.8304 616.750794 
L 320.2168 617.744232 
L 323.7964 619.361883 
L 325.5862 619.772811 
L 327.376 619.892553 
L 329.1658 619.747331 
L 330.9556 619.364255 
L 332.7454 618.77057 
L 335.1318 617.697573 
L 336.9216 616.894079 
L 338.7114 616.364326 
L 340.5012 616.092547 
L 342.291 616.051431 
L 344.0808 616.21843 
L 345.8706 616.574817 
L 348.257 617.317866 
L 350.6434 618.33933 
L 353.0298 619.427853 
L 354.8196 619.917662 
L 356.6094 620.110426 
L 358.3992 620.031651 
L 360.189 619.708259 
L 361.9788 619.167487 
L 364.3652 618.154747 
L 366.7516 617.043477 
L 368.5414 616.505631 
L 370.3312 616.226416 
L 372.121 616.178372 
L 373.9108 616.338839 
L 375.7006 616.689007 
L 378.087 617.42416 
L 380.4734 618.438103 
L 382.8598 619.51966 
L 384.6496 620.006341 
L 386.4394 620.197059 
L 388.2292 620.117511 
L 390.019 619.794512 
L 391.8088 619.256057 
L 394.1952 618.245845 
L 396.5816 617.139201 
L 398.968 616.338219 
L 400.7578 616.011367 
L 402.5476 615.91971 
L 404.3374 616.0398 
L 406.1272 616.352226 
L 408.5136 617.040388 
L 410.9 618.010481 
L 412.6898 618.724513 
L 414.4796 619.149016 
L 416.2694 619.289257 
L 418.0592 619.170501 
L 419.849 618.818989 
L 421.6388 618.261171 
L 424.0252 617.241457 
L 425.815 616.477703 
L 427.6048 615.981826 
L 429.3946 615.738393 
L 431.1844 615.720811 
L 432.9742 615.907178 
L 434.764 616.27935 
L 437.1504 617.038769 
L 439.5368 618.072249 
L 443.1164 619.74377 
L 444.9062 620.184106 
L 446.696 620.334702 
L 448.4858 620.221213 
L 450.2756 619.87029 
L 452.0654 619.308803 
L 456.8382 617.501084 
L 458.628 617.210346 
L 460.4178 617.152157 
L 462.2076 617.303641 
L 463.9974 617.645806 
L 466.3838 618.371555 
L 468.7702 619.377281 
L 472.9464 621.389581 
L 474.7362 621.841823 
L 476.526 621.995773 
L 478.3158 621.877869 
L 480.1056 621.515541 
L 481.8954 620.936419 
L 486.6682 619.06699 
L 488.458 618.758573 
L 490.2478 618.686419 
L 492.0376 618.827204 
L 495.0206 619.375485 
L 496.8104 619.856392 
L 503.373 621.962661 
L 505.1628 622.09359 
L 506.9526 621.955812 
L 508.7424 621.5767 
L 510.5322 620.983775 
L 512.9186 619.9073 
L 516.4982 618.130814 
L 518.288 617.610239 
L 520.0778 617.345935 
L 521.8676 617.31079 
L 523.6574 617.482445 
L 525.4472 617.842345 
L 527.8336 618.588583 
L 530.22 619.611846 
L 532.0098 620.361632 
L 533.7996 620.816545 
L 535.5894 620.981667 
L 537.3792 620.882454 
L 539.169 620.545406 
L 540.9588 619.997285 
L 543.3452 618.983681 
L 545.7316 617.878267 
L 547.5214 617.343545 
L 549.3112 617.065782 
L 551.101 617.017616 
L 552.8908 617.176516 
L 554.6806 617.523827 
L 557.067 618.253451 
L 559.4534 619.260278 
L 561.8398 620.335962 
L 563.6296 620.823862 
L 565.4194 621.020665 
L 567.2092 620.951503 
L 568.999 620.64266 
L 570.7888 620.120765 
L 573.1752 619.138945 
L 575.5616 618.061336 
L 577.3514 617.544623 
L 579.1412 617.282791 
L 580.931 617.248834 
L 582.7208 617.420513 
L 584.5106 617.779408 
L 586.897 618.522943 
L 589.2834 619.542241 
L 591.6698 620.629179 
L 593.4596 621.124749 
L 595.2494 621.328485 
L 597.0392 621.265491 
L 598.829 620.962811 
L 600.6188 620.444791 
L 603.0052 619.468023 
L 605.3916 618.394367 
L 607.1814 617.880265 
L 608.9712 617.62084 
L 610.761 617.589134 
L 612.5508 617.762945 
L 614.3406 618.123877 
L 616.727 618.870011 
L 619.1134 619.891797 
L 621.4998 620.980942 
L 623.2896 621.477644 
L 625.0794 621.682047 
L 626.8692 621.619291 
L 628.659 621.315692 
L 630.4488 620.797929 
L 632.8352 619.819999 
L 634.625 619.080958 
L 636.4148 618.607722 
L 638.2046 618.385484 
L 639.9944 618.388051 
L 641.7842 618.593801 
L 643.574 618.984778 
L 645.9604 619.768571 
L 648.3468 620.825735 
L 651.9264 622.52763 
L 653.7162 622.975888 
L 655.506 623.129396 
L 657.2958 623.014256 
L 659.0856 622.657564 
L 660.8754 622.086628 
L 665.6482 620.244867 
L 667.438 619.944422 
L 669.2278 619.878637 
L 671.0176 620.024383 
L 672.8074 620.362428 
L 675.1938 621.084812 
L 677.5802 622.089154 
L 679.37 623.011779 
L 679.37 623.011779 
" clip-path="url(#pb2d0be13d0)" style="fill: none; stroke: #008000; stroke-width: 1.5; stroke-linecap: square"/>
   </g>
   <g id="patch_13">
    <path d="M 52.94 822.04 
L 52.94 605.733333 
" style="fill: none; stroke: #000000; stroke-width: 0.8; stroke-linejoin: miter; stroke-linecap: square"/>
   </g>
   <g id="patch_14">
    <path d="M 709.2 822.04 
L 709.2 605.733333 
" style="fill: none; stroke: #000000; stroke-width: 0.8; stroke-linejoin: miter; stroke-linecap: square"/>
   </g>
   <g id="patch_15">
    <path d="M 52.94 822.04 
L 709.2 822.04 
" style="fill: none; stroke: #000000; stroke-width: 0.8; stroke-linejoin: miter; stroke-linecap: square"/>
   </g>
   <g id="patch_16">
    <path d="M 52.94 605.733333 
L 709.2 605.733333 
" style="fill: none; stroke: #000000; stroke-width: 0.8; stroke-linejoin: miter; stroke-linecap: square"/>
   </g>
   <g id="text_41">
    <!-- Cost Over Time -->
    <g transform="translate(334.804375 599.733333) scale(0.12 -0.12)">
     <defs>
      <path id="DejaVuSans-76" d="M 191 3500 
L 800 3500 
L 1894 563 
L 2988 3500 
L 3597 3500 
L 2284 0 
L 1503 0 
L 191 3500 
z
" transform="scale(0.015625)"/>
      <path id="DejaVuSans-72" d="M 2631 2963 
Q 2534 3019 2420 3045 
Q 2306 3072 2169 3072 
Q 1681 3072 1420 2755 
Q 1159 2438 1159 1844 
L 1159 0 
L 581 0 
L 581 3500 
L 1159 3500 
L 1159 2956 
Q 1341 3275 1631 3429 
Q 1922 3584 2338 3584 
Q 2397 3584 2469 3576 
Q 2541 3569 2628 3553 
L 2631 2963 
z
" transform="scale(0.015625)"/>
     </defs>
     <use xlink:href="#DejaVuSans-43"/>
     <use xlink:href="#DejaVuSans-6f" x="69.824219"/>
     <use xlink:href="#DejaVuSans-73" x="131.005859"/>
     <use xlink:href="#DejaVuSans-74" x="183.105469"/>
     <use xlink:href="#DejaVuSans-20" x="222.314453"/>
     <use xlink:href="#DejaVuSans-4f" x="254.101562"/>
     <use xlink:href="#DejaVuSans-76" x="332.8125"/>
     <use xlink:href="#DejaVuSans-65" x="391.992188"/>
     <use xlink:href="#DejaVuSans-72" x="453.515625"/>
     <use xlink:href="#DejaVuSans-20" x="494.628906"/>
     <use xlink:href="#DejaVuSans-54" x="526.416016"/>
     <use xlink:href="#DejaVuSans-69" x="584.375"/>
     <use xlink:href="#DejaVuSans-6d" x="612.158203"/>
     <use xlink:href="#DejaVuSans-65" x="709.570312"/>
    </g>
   </g>
  </g>
  <g id="text_42">
   <!-- Episode 5 - Total Reward: -13973.47 -->
   <g transform="translate(251.745938 26.398125) scale(0.12 -0.12)">
    <defs>
     <path id="DejaVuSans-45" d="M 628 4666 
L 3578 4666 
L 3578 4134 
L 1259 4134 
L 1259 2753 
L 3481 2753 
L 3481 2222 
L 1259 2222 
L 1259 531 
L 3634 531 
L 3634 0 
L 628 0 
L 628 4666 
z
" transform="scale(0.015625)"/>
     <path id="DejaVuSans-64" d="M 2906 2969 
L 2906 4863 
L 3481 4863 
L 3481 0 
L 2906 0 
L 2906 525 
Q 2725 213 2448 61 
Q 2172 -91 1784 -91 
Q 1150 -91 751 415 
Q 353 922 353 1747 
Q 353 2572 751 3078 
Q 1150 3584 1784 3584 
Q 2172 3584 2448 3432 
Q 2725 3281 2906 2969 
z
M 947 1747 
Q 947 1113 1208 752 
Q 1469 391 1925 391 
Q 2381 391 2643 752 
Q 2906 1113 2906 1747 
Q 2906 2381 2643 2742 
Q 2381 3103 1925 3103 
Q 1469 3103 1208 2742 
Q 947 2381 947 1747 
z
" transform="scale(0.015625)"/>
     <path id="DejaVuSans-2d" d="M 313 2009 
L 1997 2009 
L 1997 1497 
L 313 1497 
L 313 2009 
z
" transform="scale(0.015625)"/>
     <path id="DejaVuSans-52" d="M 2841 2188 
Q 3044 2119 3236 1894 
Q 3428 1669 3622 1275 
L 4263 0 
L 3584 0 
L 2988 1197 
Q 2756 1666 2539 1819 
Q 2322 1972 1947 1972 
L 1259 1972 
L 1259 0 
L 628 0 
L 628 4666 
L 2053 4666 
Q 2853 4666 3247 4331 
Q 3641 3997 3641 3322 
Q 3641 2881 3436 2590 
Q 3231 2300 2841 2188 
z
M 1259 4147 
L 1259 2491 
L 2053 2491 
Q 2509 2491 2742 2702 
Q 2975 2913 2975 3322 
Q 2975 3731 2742 3939 
Q 2509 4147 2053 4147 
L 1259 4147 
z
" transform="scale(0.015625)"/>
     <path id="DejaVuSans-77" d="M 269 3500 
L 844 3500 
L 1563 769 
L 2278 3500 
L 2956 3500 
L 3675 769 
L 4391 3500 
L 4966 3500 
L 4050 0 
L 3372 0 
L 2619 2869 
L 1863 0 
L 1184 0 
L 269 3500 
z
" transform="scale(0.015625)"/>
     <path id="DejaVuSans-3a" d="M 750 794 
L 1409 794 
L 1409 0 
L 750 0 
L 750 794 
z
M 750 3309 
L 1409 3309 
L 1409 2516 
L 750 2516 
L 750 3309 
z
" transform="scale(0.015625)"/>
     <path id="DejaVuSans-39" d="M 703 97 
L 703 672 
Q 941 559 1184 500 
Q 1428 441 1663 441 
Q 2288 441 2617 861 
Q 2947 1281 2994 2138 
Q 2813 1869 2534 1725 
Q 2256 1581 1919 1581 
Q 1219 1581 811 2004 
Q 403 2428 403 3163 
Q 403 3881 828 4315 
Q 1253 4750 1959 4750 
Q 2769 4750 3195 4129 
Q 3622 3509 3622 2328 
Q 3622 1225 3098 567 
Q 2575 -91 1691 -91 
Q 1453 -91 1209 -44 
Q 966 3 703 97 
z
M 1959 2075 
Q 2384 2075 2632 2365 
Q 2881 2656 2881 3163 
Q 2881 3666 2632 3958 
Q 2384 4250 1959 4250 
Q 1534 4250 1286 3958 
Q 1038 3666 1038 3163 
Q 1038 2656 1286 2365 
Q 1534 2075 1959 2075 
z
" transform="scale(0.015625)"/>
     <path id="DejaVuSans-37" d="M 525 4666 
L 3525 4666 
L 3525 4397 
L 1831 0 
L 1172 0 
L 2766 4134 
L 525 4134 
L 525 4666 
z
" transform="scale(0.015625)"/>
    </defs>
    <use xlink:href="#DejaVuSans-45"/>
    <use xlink:href="#DejaVuSans-70" x="63.183594"/>
    <use xlink:href="#DejaVuSans-69" x="126.660156"/>
    <use xlink:href="#DejaVuSans-73" x="154.443359"/>
    <use xlink:href="#DejaVuSans-6f" x="206.542969"/>
    <use xlink:href="#DejaVuSans-64" x="267.724609"/>
    <use xlink:href="#DejaVuSans-65" x="331.201172"/>
    <use xlink:href="#DejaVuSans-20" x="392.724609"/>
    <use xlink:href="#DejaVuSans-35" x="424.511719"/>
    <use xlink:href="#DejaVuSans-20" x="488.134766"/>
    <use xlink:href="#DejaVuSans-2d" x="519.921875"/>
    <use xlink:href="#DejaVuSans-20" x="556.005859"/>
    <use xlink:href="#DejaVuSans-54" x="587.792969"/>
    <use xlink:href="#DejaVuSans-6f" x="631.876953"/>
    <use xlink:href="#DejaVuSans-74" x="693.058594"/>
    <use xlink:href="#DejaVuSans-61" x="732.267578"/>
    <use xlink:href="#DejaVuSans-6c" x="793.546875"/>
    <use xlink:href="#DejaVuSans-20" x="821.330078"/>
    <use xlink:href="#DejaVuSans-52" x="853.117188"/>
    <use xlink:href="#DejaVuSans-65" x="918.099609"/>
    <use xlink:href="#DejaVuSans-77" x="979.623047"/>
    <use xlink:href="#DejaVuSans-61" x="1061.410156"/>
    <use xlink:href="#DejaVuSans-72" x="1122.689453"/>
    <use xlink:href="#DejaVuSans-64" x="1162.052734"/>
    <use xlink:href="#DejaVuSans-3a" x="1225.529297"/>
    <use xlink:href="#DejaVuSans-20" x="1259.220703"/>
    <use xlink:href="#DejaVuSans-2d" x="1291.007812"/>
    <use xlink:href="#DejaVuSans-31" x="1327.091797"/>
    <use xlink:href="#DejaVuSans-33" x="1390.714844"/>
    <use xlink:href="#DejaVuSans-39" x="1454.337891"/>
    <use xlink:href="#DejaVuSans-37" x="1517.960938"/>
    <use xlink:href="#DejaVuSans-33" x="1581.583984"/>
    <use xlink:href="#DejaVuSans-2e" x="1645.207031"/>
    <use xlink:href="#DejaVuSans-34" x="1676.994141"/>
    <use xlink:href="#DejaVuSans-37" x="1740.617188"/>
   </g>
  </g>
 </g>
 <defs>
  <clipPath id="pb66cb4522b">
   <rect x="52.94" y="85.2" width="656.26" height="216.306667"/>
  </clipPath>
  <clipPath id="p6a6a2b9548">
   <rect x="52.94" y="345.466667" width="656.26" height="216.306667"/>
  </clipPath>
  <clipPath id="pb2d0be13d0">
   <rect x="52.94" y="605.733333" width="656.26" height="216.306667"/>
  </clipPath>
 </defs>
</svg>
