<?xml version="1.0" encoding="utf-8" standalone="no"?>
<!DOCTYPE svg PUBLIC "-//W3C//DTD SVG 1.1//EN"
  "http://www.w3.org/Graphics/SVG/1.1/DTD/svg11.dtd">
<svg xmlns:xlink="http://www.w3.org/1999/xlink" width="720pt" height="864pt" viewBox="0 0 720 864" xmlns="http://www.w3.org/2000/svg" version="1.1">
 <metadata>
  <rdf:RDF xmlns:dc="http://purl.org/dc/elements/1.1/" xmlns:cc="http://creativecommons.org/ns#" xmlns:rdf="http://www.w3.org/1999/02/22-rdf-syntax-ns#">
   <cc:Work>
    <dc:type rdf:resource="http://purl.org/dc/dcmitype/StillImage"/>
    <dc:date>2024-06-08T15:45:06.070579</dc:date>
    <dc:format>image/svg+xml</dc:format>
    <dc:creator>
     <cc:Agent>
      <dc:title>Matplotlib v3.8.4, https://matplotlib.org/</dc:title>
     </cc:Agent>
    </dc:creator>
   </cc:Work>
  </rdf:RDF>
 </metadata>
 <defs>
  <style type="text/css">*{stroke-linejoin: round; stroke-linecap: butt}</style>
 </defs>
 <g id="figure_1">
  <g id="patch_1">
   <path d="M 0 864 
L 720 864 
L 720 0 
L 0 0 
z
" style="fill: #ffffff"/>
  </g>
  <g id="axes_1">
   <g id="patch_2">
    <path d="M 52.94 301.506667 
L 709.2 301.506667 
L 709.2 85.2 
L 52.94 85.2 
z
" style="fill: #ffffff"/>
   </g>
   <g id="matplotlib.axis_1">
    <g id="xtick_1">
     <g id="line2d_1">
      <defs>
       <path id="m4cd05a0b55" d="M 0 0 
L 0 3.5 
" style="stroke: #000000; stroke-width: 0.8"/>
      </defs>
      <g>
       <use xlink:href="#m4cd05a0b55" x="82.77" y="301.506667" style="stroke: #000000; stroke-width: 0.8"/>
      </g>
     </g>
     <g id="text_1">
      <!-- 0.0 -->
      <g transform="translate(74.818438 316.105104) scale(0.1 -0.1)">
       <defs>
        <path id="DejaVuSans-30" d="M 2034 4250 
Q 1547 4250 1301 3770 
Q 1056 3291 1056 2328 
Q 1056 1369 1301 889 
Q 1547 409 2034 409 
Q 2525 409 2770 889 
Q 3016 1369 3016 2328 
Q 3016 3291 2770 3770 
Q 2525 4250 2034 4250 
z
M 2034 4750 
Q 2819 4750 3233 4129 
Q 3647 3509 3647 2328 
Q 3647 1150 3233 529 
Q 2819 -91 2034 -91 
Q 1250 -91 836 529 
Q 422 1150 422 2328 
Q 422 3509 836 4129 
Q 1250 4750 2034 4750 
z
" transform="scale(0.015625)"/>
        <path id="DejaVuSans-2e" d="M 684 794 
L 1344 794 
L 1344 0 
L 684 0 
L 684 794 
z
" transform="scale(0.015625)"/>
       </defs>
       <use xlink:href="#DejaVuSans-30"/>
       <use xlink:href="#DejaVuSans-2e" x="63.623047"/>
       <use xlink:href="#DejaVuSans-30" x="95.410156"/>
      </g>
     </g>
    </g>
    <g id="xtick_2">
     <g id="line2d_2">
      <g>
       <use xlink:href="#m4cd05a0b55" x="202.031562" y="301.506667" style="stroke: #000000; stroke-width: 0.8"/>
      </g>
     </g>
     <g id="text_2">
      <!-- 0.2 -->
      <g transform="translate(194.079999 316.105104) scale(0.1 -0.1)">
       <defs>
        <path id="DejaVuSans-32" d="M 1228 531 
L 3431 531 
L 3431 0 
L 469 0 
L 469 531 
Q 828 903 1448 1529 
Q 2069 2156 2228 2338 
Q 2531 2678 2651 2914 
Q 2772 3150 2772 3378 
Q 2772 3750 2511 3984 
Q 2250 4219 1831 4219 
Q 1534 4219 1204 4116 
Q 875 4013 500 3803 
L 500 4441 
Q 881 4594 1212 4672 
Q 1544 4750 1819 4750 
Q 2544 4750 2975 4387 
Q 3406 4025 3406 3419 
Q 3406 3131 3298 2873 
Q 3191 2616 2906 2266 
Q 2828 2175 2409 1742 
Q 1991 1309 1228 531 
z
" transform="scale(0.015625)"/>
       </defs>
       <use xlink:href="#DejaVuSans-30"/>
       <use xlink:href="#DejaVuSans-2e" x="63.623047"/>
       <use xlink:href="#DejaVuSans-32" x="95.410156"/>
      </g>
     </g>
    </g>
    <g id="xtick_3">
     <g id="line2d_3">
      <g>
       <use xlink:href="#m4cd05a0b55" x="321.293124" y="301.506667" style="stroke: #000000; stroke-width: 0.8"/>
      </g>
     </g>
     <g id="text_3">
      <!-- 0.4 -->
      <g transform="translate(313.341561 316.105104) scale(0.1 -0.1)">
       <defs>
        <path id="DejaVuSans-34" d="M 2419 4116 
L 825 1625 
L 2419 1625 
L 2419 4116 
z
M 2253 4666 
L 3047 4666 
L 3047 1625 
L 3713 1625 
L 3713 1100 
L 3047 1100 
L 3047 0 
L 2419 0 
L 2419 1100 
L 313 1100 
L 313 1709 
L 2253 4666 
z
" transform="scale(0.015625)"/>
       </defs>
       <use xlink:href="#DejaVuSans-30"/>
       <use xlink:href="#DejaVuSans-2e" x="63.623047"/>
       <use xlink:href="#DejaVuSans-34" x="95.410156"/>
      </g>
     </g>
    </g>
    <g id="xtick_4">
     <g id="line2d_4">
      <g>
       <use xlink:href="#m4cd05a0b55" x="440.554686" y="301.506667" style="stroke: #000000; stroke-width: 0.8"/>
      </g>
     </g>
     <g id="text_4">
      <!-- 0.6 -->
      <g transform="translate(432.603123 316.105104) scale(0.1 -0.1)">
       <defs>
        <path id="DejaVuSans-36" d="M 2113 2584 
Q 1688 2584 1439 2293 
Q 1191 2003 1191 1497 
Q 1191 994 1439 701 
Q 1688 409 2113 409 
Q 2538 409 2786 701 
Q 3034 994 3034 1497 
Q 3034 2003 2786 2293 
Q 2538 2584 2113 2584 
z
M 3366 4563 
L 3366 3988 
Q 3128 4100 2886 4159 
Q 2644 4219 2406 4219 
Q 1781 4219 1451 3797 
Q 1122 3375 1075 2522 
Q 1259 2794 1537 2939 
Q 1816 3084 2150 3084 
Q 2853 3084 3261 2657 
Q 3669 2231 3669 1497 
Q 3669 778 3244 343 
Q 2819 -91 2113 -91 
Q 1303 -91 875 529 
Q 447 1150 447 2328 
Q 447 3434 972 4092 
Q 1497 4750 2381 4750 
Q 2619 4750 2861 4703 
Q 3103 4656 3366 4563 
z
" transform="scale(0.015625)"/>
       </defs>
       <use xlink:href="#DejaVuSans-30"/>
       <use xlink:href="#DejaVuSans-2e" x="63.623047"/>
       <use xlink:href="#DejaVuSans-36" x="95.410156"/>
      </g>
     </g>
    </g>
    <g id="xtick_5">
     <g id="line2d_5">
      <g>
       <use xlink:href="#m4cd05a0b55" x="559.816247" y="301.506667" style="stroke: #000000; stroke-width: 0.8"/>
      </g>
     </g>
     <g id="text_5">
      <!-- 0.8 -->
      <g transform="translate(551.864685 316.105104) scale(0.1 -0.1)">
       <defs>
        <path id="DejaVuSans-38" d="M 2034 2216 
Q 1584 2216 1326 1975 
Q 1069 1734 1069 1313 
Q 1069 891 1326 650 
Q 1584 409 2034 409 
Q 2484 409 2743 651 
Q 3003 894 3003 1313 
Q 3003 1734 2745 1975 
Q 2488 2216 2034 2216 
z
M 1403 2484 
Q 997 2584 770 2862 
Q 544 3141 544 3541 
Q 544 4100 942 4425 
Q 1341 4750 2034 4750 
Q 2731 4750 3128 4425 
Q 3525 4100 3525 3541 
Q 3525 3141 3298 2862 
Q 3072 2584 2669 2484 
Q 3125 2378 3379 2068 
Q 3634 1759 3634 1313 
Q 3634 634 3220 271 
Q 2806 -91 2034 -91 
Q 1263 -91 848 271 
Q 434 634 434 1313 
Q 434 1759 690 2068 
Q 947 2378 1403 2484 
z
M 1172 3481 
Q 1172 3119 1398 2916 
Q 1625 2713 2034 2713 
Q 2441 2713 2670 2916 
Q 2900 3119 2900 3481 
Q 2900 3844 2670 4047 
Q 2441 4250 2034 4250 
Q 1625 4250 1398 4047 
Q 1172 3844 1172 3481 
z
" transform="scale(0.015625)"/>
       </defs>
       <use xlink:href="#DejaVuSans-30"/>
       <use xlink:href="#DejaVuSans-2e" x="63.623047"/>
       <use xlink:href="#DejaVuSans-38" x="95.410156"/>
      </g>
     </g>
    </g>
    <g id="xtick_6">
     <g id="line2d_6">
      <g>
       <use xlink:href="#m4cd05a0b55" x="679.077809" y="301.506667" style="stroke: #000000; stroke-width: 0.8"/>
      </g>
     </g>
     <g id="text_6">
      <!-- 1.0 -->
      <g transform="translate(671.126247 316.105104) scale(0.1 -0.1)">
       <defs>
        <path id="DejaVuSans-31" d="M 794 531 
L 1825 531 
L 1825 4091 
L 703 3866 
L 703 4441 
L 1819 4666 
L 2450 4666 
L 2450 531 
L 3481 531 
L 3481 0 
L 794 0 
L 794 531 
z
" transform="scale(0.015625)"/>
       </defs>
       <use xlink:href="#DejaVuSans-31"/>
       <use xlink:href="#DejaVuSans-2e" x="63.623047"/>
       <use xlink:href="#DejaVuSans-30" x="95.410156"/>
      </g>
     </g>
    </g>
   </g>
   <g id="matplotlib.axis_2">
    <g id="ytick_1">
     <g id="line2d_7">
      <defs>
       <path id="m1b74a3ca04" d="M 0 0 
L -3.5 0 
" style="stroke: #ff4500; stroke-width: 0.8"/>
      </defs>
      <g>
       <use xlink:href="#m1b74a3ca04" x="52.94" y="291.680983" style="fill: #ff4500; stroke: #ff4500; stroke-width: 0.8"/>
      </g>
     </g>
     <g id="text_7">
      <!-- 0 -->
      <g style="fill: #ff4500" transform="translate(39.5775 295.480202) scale(0.1 -0.1)">
       <use xlink:href="#DejaVuSans-30"/>
      </g>
     </g>
    </g>
    <g id="ytick_2">
     <g id="line2d_8">
      <g>
       <use xlink:href="#m1b74a3ca04" x="52.94" y="255.914727" style="fill: #ff4500; stroke: #ff4500; stroke-width: 0.8"/>
      </g>
     </g>
     <g id="text_8">
      <!-- 2 -->
      <g style="fill: #ff4500" transform="translate(39.5775 259.713945) scale(0.1 -0.1)">
       <use xlink:href="#DejaVuSans-32"/>
      </g>
     </g>
    </g>
    <g id="ytick_3">
     <g id="line2d_9">
      <g>
       <use xlink:href="#m1b74a3ca04" x="52.94" y="220.14847" style="fill: #ff4500; stroke: #ff4500; stroke-width: 0.8"/>
      </g>
     </g>
     <g id="text_9">
      <!-- 4 -->
      <g style="fill: #ff4500" transform="translate(39.5775 223.947689) scale(0.1 -0.1)">
       <use xlink:href="#DejaVuSans-34"/>
      </g>
     </g>
    </g>
    <g id="ytick_4">
     <g id="line2d_10">
      <g>
       <use xlink:href="#m1b74a3ca04" x="52.94" y="184.382213" style="fill: #ff4500; stroke: #ff4500; stroke-width: 0.8"/>
      </g>
     </g>
     <g id="text_10">
      <!-- 6 -->
      <g style="fill: #ff4500" transform="translate(39.5775 188.181432) scale(0.1 -0.1)">
       <use xlink:href="#DejaVuSans-36"/>
      </g>
     </g>
    </g>
    <g id="ytick_5">
     <g id="line2d_11">
      <g>
       <use xlink:href="#m1b74a3ca04" x="52.94" y="148.615957" style="fill: #ff4500; stroke: #ff4500; stroke-width: 0.8"/>
      </g>
     </g>
     <g id="text_11">
      <!-- 8 -->
      <g style="fill: #ff4500" transform="translate(39.5775 152.415175) scale(0.1 -0.1)">
       <use xlink:href="#DejaVuSans-38"/>
      </g>
     </g>
    </g>
    <g id="ytick_6">
     <g id="line2d_12">
      <g>
       <use xlink:href="#m1b74a3ca04" x="52.94" y="112.8497" style="fill: #ff4500; stroke: #ff4500; stroke-width: 0.8"/>
      </g>
     </g>
     <g id="text_12">
      <!-- 10 -->
      <g style="fill: #ff4500" transform="translate(33.215 116.648919) scale(0.1 -0.1)">
       <use xlink:href="#DejaVuSans-31"/>
       <use xlink:href="#DejaVuSans-30" x="63.623047"/>
      </g>
     </g>
    </g>
    <g id="text_13">
     <!-- Output Voltage -->
     <g style="fill: #ff4500" transform="translate(27.135313 231.066615) rotate(-90) scale(0.1 -0.1)">
      <defs>
       <path id="DejaVuSans-4f" d="M 2522 4238 
Q 1834 4238 1429 3725 
Q 1025 3213 1025 2328 
Q 1025 1447 1429 934 
Q 1834 422 2522 422 
Q 3209 422 3611 934 
Q 4013 1447 4013 2328 
Q 4013 3213 3611 3725 
Q 3209 4238 2522 4238 
z
M 2522 4750 
Q 3503 4750 4090 4092 
Q 4678 3434 4678 2328 
Q 4678 1225 4090 567 
Q 3503 -91 2522 -91 
Q 1538 -91 948 565 
Q 359 1222 359 2328 
Q 359 3434 948 4092 
Q 1538 4750 2522 4750 
z
" transform="scale(0.015625)"/>
       <path id="DejaVuSans-75" d="M 544 1381 
L 544 3500 
L 1119 3500 
L 1119 1403 
Q 1119 906 1312 657 
Q 1506 409 1894 409 
Q 2359 409 2629 706 
Q 2900 1003 2900 1516 
L 2900 3500 
L 3475 3500 
L 3475 0 
L 2900 0 
L 2900 538 
Q 2691 219 2414 64 
Q 2138 -91 1772 -91 
Q 1169 -91 856 284 
Q 544 659 544 1381 
z
M 1991 3584 
L 1991 3584 
z
" transform="scale(0.015625)"/>
       <path id="DejaVuSans-74" d="M 1172 4494 
L 1172 3500 
L 2356 3500 
L 2356 3053 
L 1172 3053 
L 1172 1153 
Q 1172 725 1289 603 
Q 1406 481 1766 481 
L 2356 481 
L 2356 0 
L 1766 0 
Q 1100 0 847 248 
Q 594 497 594 1153 
L 594 3053 
L 172 3053 
L 172 3500 
L 594 3500 
L 594 4494 
L 1172 4494 
z
" transform="scale(0.015625)"/>
       <path id="DejaVuSans-70" d="M 1159 525 
L 1159 -1331 
L 581 -1331 
L 581 3500 
L 1159 3500 
L 1159 2969 
Q 1341 3281 1617 3432 
Q 1894 3584 2278 3584 
Q 2916 3584 3314 3078 
Q 3713 2572 3713 1747 
Q 3713 922 3314 415 
Q 2916 -91 2278 -91 
Q 1894 -91 1617 61 
Q 1341 213 1159 525 
z
M 3116 1747 
Q 3116 2381 2855 2742 
Q 2594 3103 2138 3103 
Q 1681 3103 1420 2742 
Q 1159 2381 1159 1747 
Q 1159 1113 1420 752 
Q 1681 391 2138 391 
Q 2594 391 2855 752 
Q 3116 1113 3116 1747 
z
" transform="scale(0.015625)"/>
       <path id="DejaVuSans-20" transform="scale(0.015625)"/>
       <path id="DejaVuSans-56" d="M 1831 0 
L 50 4666 
L 709 4666 
L 2188 738 
L 3669 4666 
L 4325 4666 
L 2547 0 
L 1831 0 
z
" transform="scale(0.015625)"/>
       <path id="DejaVuSans-6f" d="M 1959 3097 
Q 1497 3097 1228 2736 
Q 959 2375 959 1747 
Q 959 1119 1226 758 
Q 1494 397 1959 397 
Q 2419 397 2687 759 
Q 2956 1122 2956 1747 
Q 2956 2369 2687 2733 
Q 2419 3097 1959 3097 
z
M 1959 3584 
Q 2709 3584 3137 3096 
Q 3566 2609 3566 1747 
Q 3566 888 3137 398 
Q 2709 -91 1959 -91 
Q 1206 -91 779 398 
Q 353 888 353 1747 
Q 353 2609 779 3096 
Q 1206 3584 1959 3584 
z
" transform="scale(0.015625)"/>
       <path id="DejaVuSans-6c" d="M 603 4863 
L 1178 4863 
L 1178 0 
L 603 0 
L 603 4863 
z
" transform="scale(0.015625)"/>
       <path id="DejaVuSans-61" d="M 2194 1759 
Q 1497 1759 1228 1600 
Q 959 1441 959 1056 
Q 959 750 1161 570 
Q 1363 391 1709 391 
Q 2188 391 2477 730 
Q 2766 1069 2766 1631 
L 2766 1759 
L 2194 1759 
z
M 3341 1997 
L 3341 0 
L 2766 0 
L 2766 531 
Q 2569 213 2275 61 
Q 1981 -91 1556 -91 
Q 1019 -91 701 211 
Q 384 513 384 1019 
Q 384 1609 779 1909 
Q 1175 2209 1959 2209 
L 2766 2209 
L 2766 2266 
Q 2766 2663 2505 2880 
Q 2244 3097 1772 3097 
Q 1472 3097 1187 3025 
Q 903 2953 641 2809 
L 641 3341 
Q 956 3463 1253 3523 
Q 1550 3584 1831 3584 
Q 2591 3584 2966 3190 
Q 3341 2797 3341 1997 
z
" transform="scale(0.015625)"/>
       <path id="DejaVuSans-67" d="M 2906 1791 
Q 2906 2416 2648 2759 
Q 2391 3103 1925 3103 
Q 1463 3103 1205 2759 
Q 947 2416 947 1791 
Q 947 1169 1205 825 
Q 1463 481 1925 481 
Q 2391 481 2648 825 
Q 2906 1169 2906 1791 
z
M 3481 434 
Q 3481 -459 3084 -895 
Q 2688 -1331 1869 -1331 
Q 1566 -1331 1297 -1286 
Q 1028 -1241 775 -1147 
L 775 -588 
Q 1028 -725 1275 -790 
Q 1522 -856 1778 -856 
Q 2344 -856 2625 -561 
Q 2906 -266 2906 331 
L 2906 616 
Q 2728 306 2450 153 
Q 2172 0 1784 0 
Q 1141 0 747 490 
Q 353 981 353 1791 
Q 353 2603 747 3093 
Q 1141 3584 1784 3584 
Q 2172 3584 2450 3431 
Q 2728 3278 2906 2969 
L 2906 3500 
L 3481 3500 
L 3481 434 
z
" transform="scale(0.015625)"/>
       <path id="DejaVuSans-65" d="M 3597 1894 
L 3597 1613 
L 953 1613 
Q 991 1019 1311 708 
Q 1631 397 2203 397 
Q 2534 397 2845 478 
Q 3156 559 3463 722 
L 3463 178 
Q 3153 47 2828 -22 
Q 2503 -91 2169 -91 
Q 1331 -91 842 396 
Q 353 884 353 1716 
Q 353 2575 817 3079 
Q 1281 3584 2069 3584 
Q 2775 3584 3186 3129 
Q 3597 2675 3597 1894 
z
M 3022 2063 
Q 3016 2534 2758 2815 
Q 2500 3097 2075 3097 
Q 1594 3097 1305 2825 
Q 1016 2553 972 2059 
L 3022 2063 
z
" transform="scale(0.015625)"/>
      </defs>
      <use xlink:href="#DejaVuSans-4f"/>
      <use xlink:href="#DejaVuSans-75" x="78.710938"/>
      <use xlink:href="#DejaVuSans-74" x="142.089844"/>
      <use xlink:href="#DejaVuSans-70" x="181.298828"/>
      <use xlink:href="#DejaVuSans-75" x="244.775391"/>
      <use xlink:href="#DejaVuSans-74" x="308.154297"/>
      <use xlink:href="#DejaVuSans-20" x="347.363281"/>
      <use xlink:href="#DejaVuSans-56" x="379.150391"/>
      <use xlink:href="#DejaVuSans-6f" x="439.808594"/>
      <use xlink:href="#DejaVuSans-6c" x="500.990234"/>
      <use xlink:href="#DejaVuSans-74" x="528.773438"/>
      <use xlink:href="#DejaVuSans-61" x="567.982422"/>
      <use xlink:href="#DejaVuSans-67" x="629.261719"/>
      <use xlink:href="#DejaVuSans-65" x="692.738281"/>
     </g>
    </g>
   </g>
   <g id="line2d_13">
    <path d="M 82.77 291.674545 
L 82.799815 291.283292 
L 82.895225 285.047241 
L 83.175489 246.648907 
L 83.807576 166.771105 
L 84.272696 134.346789 
L 84.72589 116.739819 
L 85.179084 106.994188 
L 85.632277 101.620405 
L 86.085471 98.66022 
L 86.544628 97.014384 
L 87.015712 96.098276 
L 87.522573 95.579165 
L 88.130807 95.277741 
L 89.013343 95.108976 
L 90.808229 95.039356 
L 103.277026 95.032121 
L 103.449955 95.093704 
L 103.503623 97.115735 
L 103.664626 114.72106 
L 103.879296 127.514399 
L 103.950853 128.047132 
L 104.004521 127.798542 
L 104.147635 125.500985 
L 105.292546 103.133505 
L 105.751703 99.47759 
L 106.21086 97.463635 
L 106.228749 97.54969 
L 106.294343 100.538191 
L 106.586534 114.641057 
L 106.658091 114.942992 
L 106.711759 114.782853 
L 106.854872 113.382007 
L 107.99382 99.943316 
L 108.452977 97.727177 
L 108.918097 96.494723 
L 109.401107 95.806746 
L 109.943747 95.411321 
L 110.653353 95.181111 
L 111.834043 95.063606 
L 115.280702 95.032458 
L 153.396697 95.093704 
L 153.456328 97.247031 
L 153.682925 102.414684 
L 153.814112 102.870402 
L 153.843928 102.847199 
L 153.963189 102.479139 
L 154.362716 100.176575 
L 154.905356 97.678978 
L 155.382402 96.457645 
L 155.871374 95.782678 
L 156.419978 95.396843 
L 157.147473 95.172102 
L 158.369904 95.060121 
L 162.150496 95.032314 
L 162.228016 95.093878 
L 162.281683 97.115897 
L 162.705062 121.342089 
L 162.75873 121.140392 
L 162.901843 119.304095 
L 164.046754 101.483782 
L 164.505911 98.572314 
L 164.965068 96.968478 
L 165.436152 96.073883 
L 165.943013 95.566688 
L 166.55721 95.270266 
L 167.457635 95.104903 
L 169.324079 95.038357 
L 178.048062 95.052791 
L 178.08384 95.874106 
L 178.203102 105.925919 
L 178.423736 116.837093 
L 178.519145 117.480838 
L 178.56685 117.333986 
L 178.704 115.890309 
L 179.908542 100.194801 
L 180.367699 97.863347 
L 180.826856 96.580465 
L 181.303902 95.858587 
L 181.840579 95.439883 
L 182.526333 95.197444 
L 183.635466 95.070508 
L 186.58719 95.032909 
L 222.63996 95.093704 
L 222.693627 97.115735 
L 222.848667 114.123444 
L 223.128932 138.937152 
L 223.1826 139.351999 
L 223.242231 138.968851 
L 223.391308 135.640798 
L 224.482551 106.540663 
L 224.941708 101.35098 
L 225.394902 98.516058 
L 225.854059 96.936224 
L 226.325142 96.056323 
L 226.837967 95.55354 
L 227.458127 95.26259 
L 227.54161 95.259275 
L 227.547573 95.298574 
L 227.601241 97.30663 
L 228.00673 117.592711 
L 228.024619 117.577175 
L 228.102139 117.125023 
L 228.31681 114.071771 
L 229.080084 102.884364 
L 229.545204 99.330445 
L 230.004361 97.386269 
L 230.469481 96.309072 
L 230.958454 95.703046 
L 231.524946 95.350394 
L 232.300146 95.146826 
L 233.68358 95.050682 
L 239.008609 95.032138 
L 250.344421 95.122813 
L 250.576981 95.926689 
L 250.660464 96.199817 
L 250.875134 96.861912 
L 251.036138 96.840583 
L 251.220993 96.62759 
L 251.256771 96.779929 
L 251.453553 97.165571 
L 251.608593 97.069644 
L 252.061787 96.362326 
L 252.634243 95.686537 
L 253.224587 95.335379 
L 254.02364 95.138197 
L 254.810766 95.11561 
L 255.0314 95.929615 
L 255.138735 96.261615 
L 255.353406 96.884601 
L 255.419 97.0292 
L 255.621745 97.594855 
L 255.723117 97.726126 
L 255.913935 98.122141 
L 256.003382 98.095571 
L 256.021271 98.190903 
L 256.188237 98.498976 
L 256.200163 98.494733 
L 256.295572 98.407166 
L 256.325388 98.534517 
L 256.468502 98.763769 
L 256.492354 98.752469 
L 256.587763 98.622033 
L 256.629505 98.77116 
L 256.754729 98.94674 
L 256.790508 98.925589 
L 256.885917 98.774825 
L 256.933622 98.934614 
L 257.04692 99.071545 
L 257.082699 99.04877 
L 257.184071 98.878145 
L 257.237739 99.04831 
L 257.345074 99.155161 
L 257.380853 99.128544 
L 257.482225 98.947961 
L 257.535893 99.113369 
L 257.637265 99.214061 
L 257.679007 99.182437 
L 257.780379 98.995123 
L 257.834047 99.157316 
L 257.935419 99.252519 
L 257.97716 99.218838 
L 258.078533 99.026978 
L 258.132201 99.186999 
L 258.233573 99.278493 
L 258.275314 99.243425 
L 258.376687 99.048493 
L 258.430354 99.207046 
L 258.531727 99.296037 
L 258.573468 99.26003 
L 258.674841 99.063023 
L 258.728508 99.220586 
L 258.829881 99.307885 
L 258.865659 99.278452 
L 258.972995 99.072837 
L 259.032625 99.243627 
L 259.128035 99.315887 
L 259.169776 99.278819 
L 259.271148 99.079465 
L 259.330779 99.249754 
L 259.426188 99.321291 
L 259.46793 99.283934 
L 259.569302 99.083941 
L 259.628933 99.253893 
L 259.724342 99.324941 
L 259.766084 99.287389 
L 259.867456 99.086964 
L 259.927087 99.256688 
L 260.022496 99.327406 
L 260.064238 99.289722 
L 260.16561 99.089006 
L 260.225241 99.258575 
L 260.32065 99.329071 
L 260.362392 99.291298 
L 260.463764 99.090385 
L 260.523395 99.25985 
L 260.618804 99.330195 
L 260.660546 99.292362 
L 260.761918 99.091316 
L 260.821549 99.260711 
L 260.916958 99.330955 
L 260.9587 99.293081 
L 261.060072 99.091945 
L 261.119703 99.261293 
L 261.215112 99.331468 
L 261.256853 99.293566 
L 261.358226 99.09237 
L 261.417857 99.261686 
L 261.513266 99.331814 
L 261.555007 99.293894 
L 261.7339 98.873973 
L 262.687992 96.308346 
L 263.188891 95.696717 
L 263.761346 95.345434 
L 264.131057 95.224742 
L 264.142983 95.283328 
L 264.196651 97.292427 
L 264.351691 114.249341 
L 264.572325 129.365335 
L 264.649845 130.046512 
L 264.703513 129.787357 
L 264.846626 127.357353 
L 265.997501 103.563273 
L 266.456658 99.71309 
L 266.915815 97.592399 
L 267.380935 96.420401 
L 267.863944 95.767223 
L 268.41851 95.386348 
L 269.151969 95.166995 
L 270.404215 95.05806 
L 274.429293 95.032251 
L 303.266739 95.093704 
L 303.320406 97.115735 
L 303.737822 119.413828 
L 303.7736 119.3223 
L 303.886899 118.220443 
L 304.268536 111.39066 
L 304.817139 103.410747 
L 305.282259 99.617277 
L 305.741416 97.543185 
L 306.206536 96.394162 
L 306.695509 95.747751 
L 307.250075 95.376972 
L 307.99546 95.16138 
L 309.277521 95.056024 
L 313.582864 95.032204 
L 341.08458 95.093704 
L 341.138248 97.115735 
L 341.299251 114.563718 
L 341.513921 126.629801 
L 341.579515 127.093487 
L 341.633183 126.872425 
L 341.770334 124.79397 
L 342.968913 102.449772 
L 343.42807 99.100189 
L 343.887227 97.2569 
L 344.352347 96.238442 
L 344.847282 95.66092 
L 345.425701 95.325756 
L 346.230716 95.133872 
L 347.721486 95.046416 
L 354.412059 95.032123 
L 394.519723 95.093704 
L 394.57339 97.115735 
L 394.97888 116.513303 
L 395.026584 116.385835 
L 395.157772 115.10607 
L 396.421945 99.654281 
L 396.881102 97.565594 
L 397.346222 96.406617 
L 397.835194 95.754335 
L 398.38976 95.38015 
L 399.129182 95.1636 
L 400.399318 95.056819 
L 404.585398 95.032221 
L 418.908712 95.093704 
L 418.96238 97.115735 
L 419.129346 115.00843 
L 419.344017 125.812468 
L 419.403648 126.13848 
L 419.457315 125.895566 
L 419.600429 123.71788 
L 420.739377 102.713764 
L 421.198534 99.247532 
L 421.657691 97.337839 
L 422.122811 96.28238 
L 422.617747 95.683829 
L 423.190202 95.338853 
L 423.977328 95.140944 
L 425.408467 95.048659 
L 431.294025 95.032128 
L 441.604187 95.093704 
L 441.657855 97.115735 
L 442.07527 120.378625 
L 442.122975 120.237719 
L 442.254163 118.743127 
L 443.530261 100.413003 
L 443.989418 97.981174 
L 444.448575 96.644646 
L 444.925622 95.892809 
L 445.456336 95.46011 
L 446.130164 95.20839 
L 447.197554 95.075362 
L 448.324576 95.103511 
L 448.378244 97.124873 
L 448.533284 114.130894 
L 448.831438 141.803018 
L 448.879143 142.138981 
L 448.93281 141.798301 
L 449.069961 138.721413 
L 450.256614 106.082487 
L 450.715771 101.093217 
L 451.168965 98.373071 
L 451.628122 96.857951 
L 452.099205 96.014203 
L 452.612029 95.532095 
L 453.244116 95.249668 
L 454.192245 95.094561 
L 456.261433 95.036218 
L 469.48754 95.052791 
L 469.523319 95.874106 
L 469.636617 105.466985 
L 470.04807 142.134255 
L 470.083848 141.979257 
L 470.191184 140.04993 
L 470.531079 128.427728 
L 471.103535 111.773541 
L 471.568655 104.200881 
L 472.021849 100.093869 
L 472.475043 97.82129 
L 472.9342 96.55627 
L 473.417209 95.839145 
L 473.953886 95.43027 
L 473.983701 95.834672 
L 474.073147 101.874373 
L 474.520378 142.323127 
L 474.574046 141.969885 
L 474.71716 138.683079 
L 475.498323 113.821204 
L 475.563917 115.874136 
L 475.72492 132.36607 
L 475.945554 147.076813 
L 475.975369 147.210426 
L 476.023074 146.898838 
L 476.154262 143.78706 
L 477.418434 106.257113 
L 477.877591 101.184693 
L 478.330785 98.42289 
L 478.789942 96.885091 
L 479.261025 96.028789 
L 479.77385 95.539519 
L 480.399973 95.254638 
L 481.336177 95.096998 
L 483.351697 95.036689 
L 493.554524 95.052791 
L 493.590302 95.874106 
L 493.965976 107.737381 
L 494.001754 107.753795 
L 494.043496 107.665446 
L 494.18661 106.783547 
L 495.337484 98.134013 
L 495.802604 96.720843 
L 496.27965 95.934277 
L 496.804401 95.484368 
L 497.46034 95.22283 
L 498.480026 95.081937 
L 499.803829 95.102424 
L 499.857497 97.12386 
L 500.17354 110.44823 
L 500.245097 110.689011 
L 500.298765 110.564857 
L 500.441879 109.465943 
L 501.580827 98.896223 
L 502.045947 97.136063 
L 502.51703 96.164985 
L 503.017929 95.618141 
L 503.614236 95.299424 
L 504.460993 95.119796 
L 506.106803 95.042165 
L 515.301869 95.032121 
L 517.120608 95.093704 
L 517.174276 97.115735 
L 517.424725 106.160152 
L 517.54995 106.781888 
L 517.585728 106.73557 
L 517.70499 106.160021 
L 518.128368 102.493036 
L 518.659082 98.913455 
L 519.130166 97.137903 
L 519.601249 96.16714 
L 520.102147 95.61941 
L 520.698455 95.300019 
L 521.545212 95.119992 
L 523.191022 95.042187 
L 524.347859 95.125008 
L 524.580419 95.928305 
L 524.663902 96.201265 
L 524.878573 96.863004 
L 524.956093 97.049707 
L 525.158837 97.584551 
L 525.254247 97.715466 
L 525.445065 98.11385 
L 525.534511 98.0882 
L 525.552401 98.183703 
L 525.719367 98.493197 
L 525.731293 98.489044 
L 525.868444 98.303814 
L 525.898259 98.240477 
L 525.916148 98.342501 
L 525.981742 101.367037 
L 526.411084 133.728241 
L 526.506493 132.942168 
L 526.721164 127.739237 
L 527.615626 108.014529 
L 528.098635 102.042519 
L 528.557792 98.879781 
L 529.016949 97.136773 
L 529.482069 96.173365 
L 529.982968 95.622354 
L 530.579275 95.301332 
L 531.420069 95.121117 
L 533.04799 95.042559 
L 533.226882 95.101952 
L 533.28055 97.12342 
L 533.519073 105.144393 
L 533.650261 105.809821 
L 533.686039 105.77254 
L 533.799338 105.292018 
L 534.175012 102.324529 
L 534.729578 98.743496 
L 535.200661 97.047474 
L 535.671744 96.118634 
L 536.178606 95.589948 
L 536.78684 95.282619 
L 537.663412 95.111122 
L 539.428483 95.039856 
L 551.139969 95.032121 
L 561.915251 95.122813 
L 562.147811 95.926689 
L 562.350556 96.006073 
L 562.672562 95.810939 
L 563.489503 95.325391 
L 564.318371 95.131434 
L 565.016051 95.13337 
L 565.069719 97.152695 
L 565.272464 117.457395 
L 565.475208 124.183081 
L 565.505024 124.244506 
L 565.552728 124.052817 
L 565.689879 122.17318 
L 566.894421 101.74953 
L 567.353578 98.715961 
L 567.812735 97.046743 
L 568.283818 96.115947 
L 568.79068 95.588267 
L 569.398914 95.281832 
L 570.275486 95.110872 
L 572.040557 95.039832 
L 575.266583 95.093814 
L 575.32025 97.115838 
L 575.558774 105.138854 
L 575.689961 105.805161 
L 575.72574 105.768094 
L 575.839038 105.288188 
L 576.214712 102.322194 
L 576.769278 98.74237 
L 577.240362 97.046868 
L 577.711445 96.118309 
L 578.218306 95.589781 
L 578.82654 95.282544 
L 579.703113 95.111099 
L 581.468184 95.039854 
L 593.185632 95.032121 
L 608.600189 95.093704 
L 608.653857 97.115735 
L 609.04742 115.540164 
L 609.071272 115.530604 
L 609.095125 115.460819 
L 609.214386 114.452364 
L 609.637765 108.049477 
L 610.168479 101.803591 
L 610.633599 98.734641 
L 611.092756 97.059384 
L 611.563839 96.123086 
L 612.070701 95.591975 
L 612.672972 95.285483 
L 613.543581 95.112654 
L 615.2848 95.040258 
L 626.459608 95.032121 
L 679.37 95.032121 
L 679.37 95.032121 
" clip-path="url(#p61fe19ccfb)" style="fill: none; stroke: #ff4500; stroke-width: 1.5; stroke-linecap: square"/>
   </g>
   <g id="patch_3">
    <path d="M 52.94 301.506667 
L 52.94 85.2 
" style="fill: none; stroke: #000000; stroke-width: 0.8; stroke-linejoin: miter; stroke-linecap: square"/>
   </g>
   <g id="patch_4">
    <path d="M 709.2 301.506667 
L 709.2 85.2 
" style="fill: none; stroke: #000000; stroke-width: 0.8; stroke-linejoin: miter; stroke-linecap: square"/>
   </g>
   <g id="patch_5">
    <path d="M 52.94 301.506667 
L 709.2 301.506667 
" style="fill: none; stroke: #000000; stroke-width: 0.8; stroke-linejoin: miter; stroke-linecap: square"/>
   </g>
   <g id="patch_6">
    <path d="M 52.94 85.2 
L 709.2 85.2 
" style="fill: none; stroke: #000000; stroke-width: 0.8; stroke-linejoin: miter; stroke-linecap: square"/>
   </g>
   <g id="text_14">
    <!-- Output Voltage -->
    <g transform="translate(335.814062 79.2) scale(0.12 -0.12)">
     <use xlink:href="#DejaVuSans-4f"/>
     <use xlink:href="#DejaVuSans-75" x="78.710938"/>
     <use xlink:href="#DejaVuSans-74" x="142.089844"/>
     <use xlink:href="#DejaVuSans-70" x="181.298828"/>
     <use xlink:href="#DejaVuSans-75" x="244.775391"/>
     <use xlink:href="#DejaVuSans-74" x="308.154297"/>
     <use xlink:href="#DejaVuSans-20" x="347.363281"/>
     <use xlink:href="#DejaVuSans-56" x="379.150391"/>
     <use xlink:href="#DejaVuSans-6f" x="439.808594"/>
     <use xlink:href="#DejaVuSans-6c" x="500.990234"/>
     <use xlink:href="#DejaVuSans-74" x="528.773438"/>
     <use xlink:href="#DejaVuSans-61" x="567.982422"/>
     <use xlink:href="#DejaVuSans-67" x="629.261719"/>
     <use xlink:href="#DejaVuSans-65" x="692.738281"/>
    </g>
   </g>
  </g>
  <g id="axes_2">
   <g id="patch_7">
    <path d="M 52.94 561.773333 
L 709.2 561.773333 
L 709.2 345.466667 
L 52.94 345.466667 
z
" style="fill: #ffffff"/>
   </g>
   <g id="matplotlib.axis_3">
    <g id="xtick_7">
     <g id="line2d_14">
      <g>
       <use xlink:href="#m4cd05a0b55" x="82.77" y="561.773333" style="stroke: #000000; stroke-width: 0.8"/>
      </g>
     </g>
     <g id="text_15">
      <!-- 0.0 -->
      <g transform="translate(74.818438 576.371771) scale(0.1 -0.1)">
       <use xlink:href="#DejaVuSans-30"/>
       <use xlink:href="#DejaVuSans-2e" x="63.623047"/>
       <use xlink:href="#DejaVuSans-30" x="95.410156"/>
      </g>
     </g>
    </g>
    <g id="xtick_8">
     <g id="line2d_15">
      <g>
       <use xlink:href="#m4cd05a0b55" x="202.031562" y="561.773333" style="stroke: #000000; stroke-width: 0.8"/>
      </g>
     </g>
     <g id="text_16">
      <!-- 0.2 -->
      <g transform="translate(194.079999 576.371771) scale(0.1 -0.1)">
       <use xlink:href="#DejaVuSans-30"/>
       <use xlink:href="#DejaVuSans-2e" x="63.623047"/>
       <use xlink:href="#DejaVuSans-32" x="95.410156"/>
      </g>
     </g>
    </g>
    <g id="xtick_9">
     <g id="line2d_16">
      <g>
       <use xlink:href="#m4cd05a0b55" x="321.293124" y="561.773333" style="stroke: #000000; stroke-width: 0.8"/>
      </g>
     </g>
     <g id="text_17">
      <!-- 0.4 -->
      <g transform="translate(313.341561 576.371771) scale(0.1 -0.1)">
       <use xlink:href="#DejaVuSans-30"/>
       <use xlink:href="#DejaVuSans-2e" x="63.623047"/>
       <use xlink:href="#DejaVuSans-34" x="95.410156"/>
      </g>
     </g>
    </g>
    <g id="xtick_10">
     <g id="line2d_17">
      <g>
       <use xlink:href="#m4cd05a0b55" x="440.554686" y="561.773333" style="stroke: #000000; stroke-width: 0.8"/>
      </g>
     </g>
     <g id="text_18">
      <!-- 0.6 -->
      <g transform="translate(432.603123 576.371771) scale(0.1 -0.1)">
       <use xlink:href="#DejaVuSans-30"/>
       <use xlink:href="#DejaVuSans-2e" x="63.623047"/>
       <use xlink:href="#DejaVuSans-36" x="95.410156"/>
      </g>
     </g>
    </g>
    <g id="xtick_11">
     <g id="line2d_18">
      <g>
       <use xlink:href="#m4cd05a0b55" x="559.816247" y="561.773333" style="stroke: #000000; stroke-width: 0.8"/>
      </g>
     </g>
     <g id="text_19">
      <!-- 0.8 -->
      <g transform="translate(551.864685 576.371771) scale(0.1 -0.1)">
       <use xlink:href="#DejaVuSans-30"/>
       <use xlink:href="#DejaVuSans-2e" x="63.623047"/>
       <use xlink:href="#DejaVuSans-38" x="95.410156"/>
      </g>
     </g>
    </g>
    <g id="xtick_12">
     <g id="line2d_19">
      <g>
       <use xlink:href="#m4cd05a0b55" x="679.077809" y="561.773333" style="stroke: #000000; stroke-width: 0.8"/>
      </g>
     </g>
     <g id="text_20">
      <!-- 1.0 -->
      <g transform="translate(671.126247 576.371771) scale(0.1 -0.1)">
       <use xlink:href="#DejaVuSans-31"/>
       <use xlink:href="#DejaVuSans-2e" x="63.623047"/>
       <use xlink:href="#DejaVuSans-30" x="95.410156"/>
      </g>
     </g>
    </g>
   </g>
   <g id="matplotlib.axis_4">
    <g id="ytick_7">
     <g id="line2d_20">
      <defs>
       <path id="m62e6bc0cfa" d="M 0 0 
L -3.5 0 
" style="stroke: #4682b4; stroke-width: 0.8"/>
      </defs>
      <g>
       <use xlink:href="#m62e6bc0cfa" x="52.94" y="553.202438" style="fill: #4682b4; stroke: #4682b4; stroke-width: 0.8"/>
      </g>
     </g>
     <g id="text_21">
      <!-- 0.0 -->
      <g style="fill: #4682b4" transform="translate(30.036875 557.001657) scale(0.1 -0.1)">
       <use xlink:href="#DejaVuSans-30"/>
       <use xlink:href="#DejaVuSans-2e" x="63.623047"/>
       <use xlink:href="#DejaVuSans-30" x="95.410156"/>
      </g>
     </g>
    </g>
    <g id="ytick_8">
     <g id="line2d_21">
      <g>
       <use xlink:href="#m62e6bc0cfa" x="52.94" y="513.621708" style="fill: #4682b4; stroke: #4682b4; stroke-width: 0.8"/>
      </g>
     </g>
     <g id="text_22">
      <!-- 0.2 -->
      <g style="fill: #4682b4" transform="translate(30.036875 517.420927) scale(0.1 -0.1)">
       <use xlink:href="#DejaVuSans-30"/>
       <use xlink:href="#DejaVuSans-2e" x="63.623047"/>
       <use xlink:href="#DejaVuSans-32" x="95.410156"/>
      </g>
     </g>
    </g>
    <g id="ytick_9">
     <g id="line2d_22">
      <g>
       <use xlink:href="#m62e6bc0cfa" x="52.94" y="474.040978" style="fill: #4682b4; stroke: #4682b4; stroke-width: 0.8"/>
      </g>
     </g>
     <g id="text_23">
      <!-- 0.4 -->
      <g style="fill: #4682b4" transform="translate(30.036875 477.840197) scale(0.1 -0.1)">
       <use xlink:href="#DejaVuSans-30"/>
       <use xlink:href="#DejaVuSans-2e" x="63.623047"/>
       <use xlink:href="#DejaVuSans-34" x="95.410156"/>
      </g>
     </g>
    </g>
    <g id="ytick_10">
     <g id="line2d_23">
      <g>
       <use xlink:href="#m62e6bc0cfa" x="52.94" y="434.460248" style="fill: #4682b4; stroke: #4682b4; stroke-width: 0.8"/>
      </g>
     </g>
     <g id="text_24">
      <!-- 0.6 -->
      <g style="fill: #4682b4" transform="translate(30.036875 438.259467) scale(0.1 -0.1)">
       <use xlink:href="#DejaVuSans-30"/>
       <use xlink:href="#DejaVuSans-2e" x="63.623047"/>
       <use xlink:href="#DejaVuSans-36" x="95.410156"/>
      </g>
     </g>
    </g>
    <g id="ytick_11">
     <g id="line2d_24">
      <g>
       <use xlink:href="#m62e6bc0cfa" x="52.94" y="394.879518" style="fill: #4682b4; stroke: #4682b4; stroke-width: 0.8"/>
      </g>
     </g>
     <g id="text_25">
      <!-- 0.8 -->
      <g style="fill: #4682b4" transform="translate(30.036875 398.678737) scale(0.1 -0.1)">
       <use xlink:href="#DejaVuSans-30"/>
       <use xlink:href="#DejaVuSans-2e" x="63.623047"/>
       <use xlink:href="#DejaVuSans-38" x="95.410156"/>
      </g>
     </g>
    </g>
    <g id="ytick_12">
     <g id="line2d_25">
      <g>
       <use xlink:href="#m62e6bc0cfa" x="52.94" y="355.298788" style="fill: #4682b4; stroke: #4682b4; stroke-width: 0.8"/>
      </g>
     </g>
     <g id="text_26">
      <!-- 1.0 -->
      <g style="fill: #4682b4" transform="translate(30.036875 359.098007) scale(0.1 -0.1)">
       <use xlink:href="#DejaVuSans-31"/>
       <use xlink:href="#DejaVuSans-2e" x="63.623047"/>
       <use xlink:href="#DejaVuSans-30" x="95.410156"/>
      </g>
     </g>
    </g>
    <g id="text_27">
     <!-- Duty Cycle -->
     <g style="fill: #4682b4" transform="translate(23.957187 480.812969) rotate(-90) scale(0.1 -0.1)">
      <defs>
       <path id="DejaVuSans-44" d="M 1259 4147 
L 1259 519 
L 2022 519 
Q 2988 519 3436 956 
Q 3884 1394 3884 2338 
Q 3884 3275 3436 3711 
Q 2988 4147 2022 4147 
L 1259 4147 
z
M 628 4666 
L 1925 4666 
Q 3281 4666 3915 4102 
Q 4550 3538 4550 2338 
Q 4550 1131 3912 565 
Q 3275 0 1925 0 
L 628 0 
L 628 4666 
z
" transform="scale(0.015625)"/>
       <path id="DejaVuSans-79" d="M 2059 -325 
Q 1816 -950 1584 -1140 
Q 1353 -1331 966 -1331 
L 506 -1331 
L 506 -850 
L 844 -850 
Q 1081 -850 1212 -737 
Q 1344 -625 1503 -206 
L 1606 56 
L 191 3500 
L 800 3500 
L 1894 763 
L 2988 3500 
L 3597 3500 
L 2059 -325 
z
" transform="scale(0.015625)"/>
       <path id="DejaVuSans-43" d="M 4122 4306 
L 4122 3641 
Q 3803 3938 3442 4084 
Q 3081 4231 2675 4231 
Q 1875 4231 1450 3742 
Q 1025 3253 1025 2328 
Q 1025 1406 1450 917 
Q 1875 428 2675 428 
Q 3081 428 3442 575 
Q 3803 722 4122 1019 
L 4122 359 
Q 3791 134 3420 21 
Q 3050 -91 2638 -91 
Q 1578 -91 968 557 
Q 359 1206 359 2328 
Q 359 3453 968 4101 
Q 1578 4750 2638 4750 
Q 3056 4750 3426 4639 
Q 3797 4528 4122 4306 
z
" transform="scale(0.015625)"/>
       <path id="DejaVuSans-63" d="M 3122 3366 
L 3122 2828 
Q 2878 2963 2633 3030 
Q 2388 3097 2138 3097 
Q 1578 3097 1268 2742 
Q 959 2388 959 1747 
Q 959 1106 1268 751 
Q 1578 397 2138 397 
Q 2388 397 2633 464 
Q 2878 531 3122 666 
L 3122 134 
Q 2881 22 2623 -34 
Q 2366 -91 2075 -91 
Q 1284 -91 818 406 
Q 353 903 353 1747 
Q 353 2603 823 3093 
Q 1294 3584 2113 3584 
Q 2378 3584 2631 3529 
Q 2884 3475 3122 3366 
z
" transform="scale(0.015625)"/>
      </defs>
      <use xlink:href="#DejaVuSans-44"/>
      <use xlink:href="#DejaVuSans-75" x="77.001953"/>
      <use xlink:href="#DejaVuSans-74" x="140.380859"/>
      <use xlink:href="#DejaVuSans-79" x="179.589844"/>
      <use xlink:href="#DejaVuSans-20" x="238.769531"/>
      <use xlink:href="#DejaVuSans-43" x="270.556641"/>
      <use xlink:href="#DejaVuSans-79" x="340.380859"/>
      <use xlink:href="#DejaVuSans-63" x="399.560547"/>
      <use xlink:href="#DejaVuSans-6c" x="454.541016"/>
      <use xlink:href="#DejaVuSans-65" x="482.324219"/>
     </g>
    </g>
   </g>
   <g id="line2d_26">
    <path d="M 82.77 355.298788 
L 103.336656 355.298788 
L 103.449955 490.846424 
L 103.63481 490.846424 
L 103.748109 355.298788 
L 106.020041 355.298788 
L 106.13334 432.552031 
L 106.318195 432.552031 
L 106.431494 355.298788 
L 153.128358 355.298788 
L 153.241657 390.135856 
L 153.426512 390.135856 
L 153.539811 355.298788 
L 162.072976 355.298788 
L 162.186274 463.469364 
L 162.371129 463.469364 
L 162.484428 355.298788 
L 177.875132 355.298788 
L 177.988431 448.995215 
L 178.173286 448.995215 
L 178.286585 355.298788 
L 193.379136 355.298788 
L 193.492434 355.856158 
L 193.677289 355.856158 
L 193.790588 355.407331 
L 194.273597 355.298788 
L 194.386896 355.550824 
L 194.571751 355.550824 
L 194.68505 356.038172 
L 194.869905 356.038172 
L 194.983204 355.298788 
L 196.360675 355.298788 
L 196.473973 355.620737 
L 197.55329 355.527435 
L 197.666589 355.298788 
L 199.04406 355.298788 
L 199.157358 355.700686 
L 199.342214 355.700686 
L 199.455512 355.298788 
L 199.640368 355.298788 
L 199.753666 355.979925 
L 199.938521 355.979925 
L 200.05182 355.298788 
L 203.218214 355.401847 
L 203.331513 355.590028 
L 203.516368 355.590028 
L 203.629667 355.298788 
L 220.212987 355.308247 
L 220.326285 355.769905 
L 220.511141 355.769905 
L 220.624439 355.494681 
L 220.809295 355.494681 
L 220.922593 359.240605 
L 221.107449 359.240605 
L 221.220747 355.919668 
L 222.00191 355.999426 
L 222.115209 356.780365 
L 222.598218 356.670413 
L 222.711517 538.000914 
L 222.896372 538.000914 
L 223.009671 356.818046 
L 223.194526 356.818046 
L 223.307824 357.804109 
L 223.49268 357.804109 
L 223.605978 358.629516 
L 223.790834 358.629516 
L 223.904132 357.938265 
L 224.088988 357.938265 
L 224.202286 357.701858 
L 224.387142 357.701858 
L 224.50044 357.276813 
L 224.983449 357.384289 
L 225.096748 357.084179 
L 225.281603 357.084179 
L 225.394902 356.079544 
L 225.579757 356.079544 
L 225.693056 355.721201 
L 225.877911 355.721201 
L 225.99121 355.298788 
L 226.772373 355.3897 
L 226.885671 355.680235 
L 227.368681 355.744103 
L 227.481979 449.624684 
L 227.666835 449.624684 
L 227.780133 357.461751 
L 227.964988 357.461751 
L 228.078287 356.511955 
L 228.263142 356.511955 
L 228.376441 356.311252 
L 228.561296 356.311252 
L 228.674595 356.016477 
L 228.85945 356.016477 
L 228.972749 356.14606 
L 229.157604 356.14606 
L 229.270903 356.740027 
L 229.455758 356.740027 
L 229.569056 356.535126 
L 229.753912 356.535126 
L 229.86721 356.247935 
L 230.052066 356.247935 
L 230.165364 356.454199 
L 230.35022 356.454199 
L 230.463518 356.835936 
L 230.648374 356.835936 
L 230.761672 356.552413 
L 231.244681 356.535817 
L 231.35798 355.687553 
L 231.542835 355.687553 
L 231.656134 355.873003 
L 231.840989 355.873003 
L 231.954288 355.642075 
L 232.139143 355.642075 
L 232.252442 356.241742 
L 232.437297 356.241742 
L 232.550596 355.298788 
L 240.189299 355.298788 
L 240.302597 355.887916 
L 240.487452 355.887916 
L 240.600751 355.602908 
L 240.785606 355.602908 
L 240.898905 355.884738 
L 241.08376 355.884738 
L 241.197059 355.352762 
L 241.381914 355.352762 
L 241.495213 356.04913 
L 241.978222 356.123802 
L 242.09152 355.930667 
L 242.276376 355.930667 
L 242.389674 356.334417 
L 242.872684 356.272578 
L 242.985982 356.516622 
L 243.170838 356.516622 
L 243.284136 356.64755 
L 243.767145 356.684206 
L 243.880444 356.996571 
L 244.363453 356.91139 
L 244.476752 355.792851 
L 244.661607 355.792851 
L 244.774906 355.298788 
L 246.450531 355.298788 
L 246.563829 356.187985 
L 246.748684 356.187985 
L 246.861983 356.668333 
L 247.046838 356.668333 
L 247.160137 357.063715 
L 247.344992 357.063715 
L 247.458291 357.732532 
L 247.643146 357.732532 
L 247.756445 357.542508 
L 247.9413 357.542508 
L 248.054599 357.428702 
L 248.239454 357.428702 
L 248.352752 358.802177 
L 248.537608 358.802177 
L 248.650906 358.576302 
L 248.835762 358.576302 
L 248.94906 358.766582 
L 249.133916 358.766582 
L 249.247214 357.545326 
L 249.43207 357.545326 
L 249.545368 359.128813 
L 250.028377 359.180579 
L 250.141676 360.013071 
L 250.326531 360.013071 
L 250.43983 359.585643 
L 250.624685 359.585643 
L 250.737984 359.242571 
L 250.922839 359.242571 
L 251.036138 359.416964 
L 251.220993 359.416964 
L 251.334291 358.41396 
L 251.519147 358.41396 
L 251.632445 358.01786 
L 251.817301 358.01786 
L 251.930599 358.470186 
L 252.413609 358.376974 
L 252.526907 358.106827 
L 252.711763 358.106827 
L 252.825061 358.651566 
L 253.009916 358.651566 
L 253.123215 358.873501 
L 253.30807 358.873501 
L 253.421369 358.733642 
L 253.606224 358.733642 
L 253.719523 358.879645 
L 253.904378 358.879645 
L 254.017677 358.644168 
L 254.202532 358.644168 
L 254.315831 358.983718 
L 254.500686 358.983718 
L 254.613984 360.05479 
L 254.79884 360.05479 
L 254.912138 360.50539 
L 255.395148 360.554411 
L 255.508446 360.972611 
L 255.693302 360.972611 
L 255.8066 361.240886 
L 255.991455 361.240886 
L 256.104754 359.994143 
L 256.289609 359.994143 
L 256.402908 360.235462 
L 256.587763 360.235462 
L 256.701062 360.937498 
L 256.885917 360.937498 
L 256.999216 360.473419 
L 257.184071 360.473419 
L 257.29737 360.895168 
L 257.482225 360.895168 
L 257.595523 360.598136 
L 257.780379 360.598136 
L 257.893677 360.864177 
L 258.078533 360.864177 
L 258.191831 360.5933 
L 258.376687 360.5933 
L 258.489985 360.7631 
L 258.674841 360.7631 
L 258.788139 360.004994 
L 258.972995 360.004994 
L 259.086293 360.247767 
L 259.271148 360.247767 
L 259.384447 360.572146 
L 259.569302 360.572146 
L 259.682601 359.941991 
L 259.867456 359.941991 
L 259.980755 359.810492 
L 260.16561 359.810492 
L 260.278909 360.02291 
L 260.463764 360.02291 
L 260.577063 359.829133 
L 261.358226 359.85554 
L 261.471524 358.884552 
L 261.65638 358.884552 
L 261.769678 359.090854 
L 261.954534 359.090854 
L 262.067832 358.927174 
L 262.252687 358.927174 
L 262.365986 357.756837 
L 262.550841 357.756837 
L 262.66414 357.474297 
L 263.147149 357.368231 
L 263.260448 357.099241 
L 263.445303 357.099241 
L 263.558602 356.549428 
L 263.743457 356.549428 
L 263.856755 355.856161 
L 264.041611 355.856161 
L 264.154909 498.264731 
L 264.339765 498.264731 
L 264.453063 355.488975 
L 264.637919 355.488975 
L 264.751217 355.606343 
L 264.936073 355.606343 
L 265.049371 355.765465 
L 265.234227 355.765465 
L 265.347525 355.543574 
L 265.53238 355.543574 
L 265.645679 355.298788 
L 270.302843 355.298788 
L 270.416141 355.604581 
L 270.600997 355.604581 
L 270.714295 355.745454 
L 270.899151 355.745454 
L 271.012449 355.898823 
L 271.197305 355.898823 
L 271.310603 355.66943 
L 271.495459 355.66943 
L 271.608757 355.527529 
L 271.793612 355.527529 
L 271.906911 355.298788 
L 303.099772 355.298788 
L 303.213071 457.789219 
L 303.397926 457.789219 
L 303.511225 355.298788 
L 310.851774 355.298788 
L 310.965072 355.882776 
L 311.149928 355.882776 
L 311.263226 356.480345 
L 311.448082 356.480345 
L 311.56138 356.062529 
L 312.04439 356.06252 
L 312.157688 356.220344 
L 312.640697 356.139156 
L 312.753996 356.512089 
L 312.938851 356.512089 
L 313.05215 356.99518 
L 313.237005 356.99518 
L 313.350304 356.643965 
L 313.535159 356.643965 
L 313.648458 356.064142 
L 313.833313 356.064142 
L 313.946611 355.840566 
L 314.131467 355.840566 
L 314.244765 355.298788 
L 315.324082 355.298788 
L 315.437381 356.178652 
L 315.622236 356.178652 
L 315.735535 355.967976 
L 315.92039 355.967976 
L 316.033689 355.298788 
L 316.218544 355.298788 
L 316.331843 355.663998 
L 316.516698 355.663998 
L 316.629997 355.462629 
L 316.814852 355.462629 
L 316.928151 355.298788 
L 327.846546 355.298788 
L 327.959845 355.696141 
L 328.1447 355.696141 
L 328.257999 355.379456 
L 329.337316 355.298788 
L 329.450614 355.83649 
L 329.63547 355.83649 
L 329.748768 355.725282 
L 329.933624 355.725282 
L 330.046922 355.310696 
L 330.231778 355.310696 
L 330.345076 355.482986 
L 330.529932 355.482986 
L 330.64323 355.298788 
L 340.965318 355.298788 
L 341.078617 488.674101 
L 341.263472 488.674101 
L 341.376771 355.298788 
L 366.010246 355.298788 
L 366.123545 355.559881 
L 366.3084 355.559881 
L 366.421699 355.298788 
L 366.606554 355.298788 
L 366.719853 355.468966 
L 366.904708 355.468966 
L 367.018006 355.916288 
L 367.202862 355.916288 
L 367.31616 355.34375 
L 367.501016 355.34375 
L 367.614314 355.516097 
L 367.79917 355.516097 
L 367.912468 355.895177 
L 368.395478 355.866126 
L 368.508776 355.298788 
L 371.078863 355.298788 
L 371.192161 355.450264 
L 371.377017 355.450264 
L 371.490315 355.298788 
L 372.867786 355.298788 
L 372.981085 355.739737 
L 373.16594 355.739737 
L 373.279238 355.899684 
L 373.464094 355.899684 
L 373.577392 355.68062 
L 373.762248 355.68062 
L 373.875546 355.298788 
L 374.65671 355.305999 
L 374.770008 355.641885 
L 375.551171 355.660103 
L 375.66447 355.822105 
L 375.849325 355.822105 
L 375.962624 355.495221 
L 376.147479 355.495221 
L 376.260778 356.465641 
L 376.743787 356.436592 
L 376.857085 357.237423 
L 377.041941 357.237423 
L 377.155239 357.734755 
L 377.340095 357.734755 
L 377.453393 358.703689 
L 377.638249 358.703689 
L 377.751547 359.22891 
L 377.936402 359.22891 
L 378.049701 358.956221 
L 378.234556 358.956221 
L 378.347855 357.542619 
L 378.53271 357.542619 
L 378.646009 356.748439 
L 379.129018 356.819596 
L 379.242317 356.502808 
L 379.427172 356.502808 
L 379.54047 356.820291 
L 379.725326 356.820291 
L 379.838624 356.978457 
L 380.02348 356.978457 
L 380.136778 356.411127 
L 380.321634 356.411127 
L 380.434932 356.256262 
L 381.216095 356.15679 
L 381.329394 355.831336 
L 381.514249 355.831336 
L 381.627548 355.67245 
L 381.812403 355.67245 
L 381.925702 355.983197 
L 382.110557 355.983197 
L 382.223856 355.671492 
L 382.408711 355.671492 
L 382.52201 355.808786 
L 383.005019 355.889059 
L 383.118317 356.377352 
L 383.303173 356.377352 
L 383.416471 356.800586 
L 383.601327 356.800586 
L 383.714625 357.012844 
L 383.899481 357.012844 
L 384.012779 356.754284 
L 384.197634 356.754284 
L 384.310933 355.399403 
L 385.39025 355.433618 
L 385.503549 356.405735 
L 385.986558 356.502254 
L 386.099856 357.2873 
L 386.284712 357.2873 
L 386.39801 357.069138 
L 386.88102 357.040453 
L 386.994318 356.615306 
L 387.179174 356.615306 
L 387.292472 356.475722 
L 387.477327 356.475722 
L 387.590626 355.318375 
L 388.073635 355.298788 
L 388.186934 355.713497 
L 388.371789 355.713497 
L 388.485088 355.973256 
L 388.968097 355.891309 
L 389.081395 355.820455 
L 389.266251 355.820455 
L 389.379549 355.298788 
L 394.334867 355.298788 
L 394.448166 444.3056 
L 394.633021 444.3056 
L 394.74632 355.298788 
L 418.783487 355.298788 
L 418.896786 485.000956 
L 419.081641 485.000956 
L 419.19494 355.298788 
L 425.044719 355.329152 
L 425.158018 355.599176 
L 425.342873 355.599176 
L 425.456172 355.891035 
L 425.641027 355.891035 
L 425.754326 356.099994 
L 425.939181 356.099994 
L 426.05248 355.452767 
L 426.535489 355.514637 
L 426.648787 355.312591 
L 427.131797 355.298788 
L 427.245095 356.115453 
L 427.429951 356.115453 
L 427.543249 356.728851 
L 428.026258 356.62988 
L 428.139557 356.586884 
L 429.218874 356.614398 
L 429.332173 356.834726 
L 429.517028 356.834726 
L 429.630326 355.727041 
L 430.113336 355.6872 
L 430.226634 356.101153 
L 430.41149 356.101153 
L 430.524788 355.914308 
L 430.709644 355.914308 
L 430.822942 356.326116 
L 431.007797 356.326116 
L 431.121096 356.534477 
L 431.305951 356.534477 
L 431.41925 356.66615 
L 431.604105 356.66615 
L 431.717404 356.482294 
L 431.902259 356.482294 
L 432.015558 355.444641 
L 432.200413 355.444641 
L 432.313712 355.298788 
L 433.691183 355.298788 
L 433.804481 355.477368 
L 433.989337 355.477368 
L 434.102635 355.59037 
L 434.883798 355.640097 
L 434.997097 355.298788 
L 440.846876 355.298788 
L 440.960175 355.538426 
L 441.14503 355.538426 
L 441.258329 355.729259 
L 441.443184 355.729259 
L 441.556483 460.343384 
L 441.741338 460.343384 
L 441.854637 356.833485 
L 442.039492 356.833485 
L 442.15279 357.526397 
L 442.337646 357.526397 
L 442.450944 358.173619 
L 442.6358 358.173619 
L 442.749098 357.744534 
L 442.933954 357.744534 
L 443.047252 357.296549 
L 443.232108 357.296549 
L 443.345406 358.341753 
L 443.530261 358.341753 
L 443.64356 358.819236 
L 444.126569 358.831436 
L 444.239868 359.095886 
L 444.424723 359.095886 
L 444.538022 357.97131 
L 445.319185 357.901217 
L 445.432483 358.364996 
L 445.617339 358.364996 
L 445.730637 358.187879 
L 445.915493 358.187879 
L 446.028791 358.009134 
L 446.213647 358.009134 
L 446.326945 357.552412 
L 446.511801 357.552412 
L 446.625099 357.299534 
L 446.809954 357.299534 
L 446.923253 357.686089 
L 447.108108 357.686089 
L 447.221407 357.135361 
L 447.406262 357.135361 
L 447.519561 356.947597 
L 447.704416 356.947597 
L 447.817715 356.768593 
L 448.00257 356.768593 
L 448.115869 356.92039 
L 448.300724 356.92039 
L 448.414022 549.78353 
L 448.598878 549.78353 
L 448.712176 357.036975 
L 448.897032 357.036975 
L 449.01033 357.67322 
L 449.49334 357.765828 
L 449.606638 358.401577 
L 449.791493 358.401577 
L 449.904792 357.213752 
L 450.387801 357.153411 
L 450.5011 357.608657 
L 450.685955 357.608657 
L 450.799254 357.418407 
L 450.984109 357.418407 
L 451.097408 357.00709 
L 451.282263 357.00709 
L 451.395561 356.561667 
L 451.580417 356.561667 
L 451.693715 356.679545 
L 451.878571 356.679545 
L 451.991869 356.842007 
L 452.176725 356.842007 
L 452.290023 356.01062 
L 452.474879 356.01062 
L 452.588177 356.170557 
L 452.773033 356.170557 
L 452.886331 356.28279 
L 453.071186 356.28279 
L 453.184485 357.107898 
L 453.667494 357.2145 
L 453.780793 357.914881 
L 453.965648 357.914881 
L 454.078947 357.590138 
L 454.263802 357.590138 
L 454.377101 358.088216 
L 454.561956 358.088216 
L 454.675254 358.617299 
L 454.86011 358.617299 
L 454.973408 358.461245 
L 455.158264 358.461245 
L 455.271562 357.834767 
L 455.754572 357.76212 
L 455.86787 357.036645 
L 456.052725 357.036645 
L 456.166024 357.367036 
L 456.350879 357.367036 
L 456.464178 356.926995 
L 456.649033 356.926995 
L 456.762332 356.451445 
L 457.543495 356.410428 
L 457.656793 355.804839 
L 457.841649 355.804839 
L 457.954947 355.298788 
L 469.171497 355.298788 
L 469.284796 355.676391 
L 469.469651 355.676391 
L 469.58295 551.788323 
L 469.767805 551.788323 
L 469.881104 356.608845 
L 470.065959 356.608845 
L 470.179257 357.497426 
L 470.364113 357.497426 
L 470.477411 357.17786 
L 470.662267 357.17786 
L 470.775565 355.368531 
L 470.960421 355.368531 
L 471.073719 356.065765 
L 471.258575 356.065765 
L 471.371873 356.228616 
L 471.556729 356.228616 
L 471.670027 356.100054 
L 471.854882 356.100054 
L 471.968181 355.696 
L 472.45119 355.649649 
L 472.564489 355.298788 
L 472.749344 355.298788 
L 472.862643 355.622119 
L 473.047498 355.622119 
L 473.160797 355.298788 
L 473.345652 355.298788 
L 473.45895 355.938715 
L 473.94196 355.865672 
L 474.055258 551.941212 
L 474.240114 551.941212 
L 474.353412 356.603205 
L 474.538268 356.603205 
L 474.651566 357.207522 
L 474.836421 357.207522 
L 474.94972 356.744273 
L 475.432729 356.649022 
L 475.546028 531.273389 
L 475.730883 531.273389 
L 475.844182 356.56484 
L 476.029037 356.56484 
L 476.142336 357.219534 
L 476.923499 357.326035 
L 477.036797 355.636794 
L 477.221653 355.636794 
L 477.334951 355.748266 
L 477.519807 355.748266 
L 477.633105 355.298788 
L 478.414268 355.298788 
L 478.527567 356.070894 
L 478.712422 356.070894 
L 478.825721 355.820803 
L 479.010576 355.820803 
L 479.123875 355.423762 
L 479.30873 355.423762 
L 479.422029 355.298788 
L 480.7995 355.298788 
L 480.912798 355.628807 
L 481.097653 355.628807 
L 481.210952 355.792893 
L 481.395807 355.792893 
L 481.509106 355.298788 
L 481.992115 355.298788 
L 482.105414 355.532712 
L 482.290269 355.532712 
L 482.403568 355.298788 
L 484.079192 355.298788 
L 484.192491 355.440155 
L 484.377346 355.440155 
L 484.490645 355.298788 
L 484.6755 355.298788 
L 484.788799 355.743927 
L 484.973654 355.743927 
L 485.086953 355.352006 
L 485.569962 355.298788 
L 485.683261 355.530543 
L 485.868116 355.530543 
L 485.981414 355.925394 
L 486.16627 355.925394 
L 486.279568 355.383484 
L 487.358885 355.298788 
L 487.472184 356.026084 
L 487.657039 356.026084 
L 487.770338 355.619671 
L 487.955193 355.619671 
L 488.068492 355.807667 
L 488.253347 355.807667 
L 488.366646 356.606208 
L 488.551501 356.606208 
L 488.6648 357.516362 
L 488.849655 357.516362 
L 488.962953 357.783402 
L 489.147809 357.783402 
L 489.261107 358.235499 
L 489.744117 358.186113 
L 489.857415 357.764109 
L 490.042271 357.764109 
L 490.155569 357.49935 
L 490.340424 357.49935 
L 490.453723 355.987355 
L 490.638578 355.987355 
L 490.751877 355.547132 
L 490.936732 355.547132 
L 491.050031 356.576434 
L 491.53304 356.602931 
L 491.646339 356.845742 
L 492.129348 356.925986 
L 492.242646 356.421171 
L 492.725656 356.412739 
L 492.838954 356.239757 
L 493.02381 356.239757 
L 493.137108 355.823972 
L 493.321964 355.823972 
L 493.435262 409.340371 
L 493.620117 409.340371 
L 493.733416 355.582917 
L 494.216425 355.615188 
L 494.329724 356.813426 
L 494.514579 356.813426 
L 494.627878 355.823611 
L 495.110887 355.873133 
L 495.224185 355.298788 
L 496.005349 355.298788 
L 496.118647 355.500975 
L 496.601656 355.554636 
L 496.714955 356.01548 
L 496.89981 356.01548 
L 497.013109 355.792628 
L 497.197964 355.792628 
L 497.311263 355.91447 
L 497.496118 355.91447 
L 497.609417 357.123276 
L 498.092426 357.199066 
L 498.205724 357.430046 
L 498.39058 357.430046 
L 498.503878 356.851386 
L 498.688734 356.851386 
L 498.802032 357.175343 
L 498.986888 357.175343 
L 499.100186 356.327446 
L 499.285042 356.327446 
L 499.39834 356.058161 
L 499.583196 356.058161 
L 499.696494 422.084344 
L 499.881349 422.084344 
L 499.994648 355.710845 
L 500.179503 355.710845 
L 500.292802 355.832681 
L 500.477657 355.832681 
L 500.590956 355.431722 
L 501.073965 355.334103 
L 501.187264 355.298788 
L 502.266581 355.394508 
L 502.379879 357.238679 
L 502.564735 357.238679 
L 502.678033 357.085699 
L 502.862888 357.085699 
L 502.976187 355.694903 
L 503.161042 355.694903 
L 503.274341 355.467039 
L 503.459196 355.467039 
L 503.572495 355.298788 
L 516.876122 355.298788 
L 516.98942 404.696871 
L 517.174276 404.696871 
L 517.287574 355.298788 
L 518.963199 355.298788 
L 519.076498 356.379818 
L 519.261353 356.379818 
L 519.374652 356.838755 
L 519.857661 356.849332 
L 519.97096 357.101462 
L 520.453969 357.112868 
L 520.567267 356.680809 
L 520.752123 356.680809 
L 520.865421 357.311455 
L 521.050277 357.311455 
L 521.163575 357.1898 
L 521.348431 357.1898 
L 521.461729 356.963222 
L 521.646584 356.963222 
L 521.759883 357.753744 
L 521.944738 357.753744 
L 522.058037 357.913869 
L 522.242892 357.913869 
L 522.356191 358.737532 
L 522.541046 358.737532 
L 522.654345 358.258057 
L 523.137354 358.350276 
L 523.250652 358.732206 
L 523.733662 358.734807 
L 523.84696 358.363554 
L 524.031816 358.363554 
L 524.145114 359.575749 
L 524.628124 359.596883 
L 524.741422 359.909767 
L 525.224431 359.932378 
L 525.33773 360.200537 
L 525.522585 360.200537 
L 525.635884 359.144986 
L 525.820739 359.144986 
L 525.934038 506.794007 
L 526.118893 506.794007 
L 526.232192 359.127166 
L 526.417047 359.127166 
L 526.530345 359.57555 
L 526.715201 359.57555 
L 526.828499 359.757586 
L 527.013355 359.757586 
L 527.126653 358.941366 
L 527.311509 358.941366 
L 527.424807 358.71421 
L 527.609663 358.71421 
L 527.722961 358.536703 
L 528.20597 358.497224 
L 528.319269 358.2434 
L 528.504124 358.2434 
L 528.617423 357.424736 
L 529.100432 357.395757 
L 529.213731 356.45502 
L 529.994894 356.378896 
L 530.108192 357.110432 
L 530.293048 357.110432 
L 530.406346 356.731294 
L 530.591202 356.731294 
L 530.7045 356.049387 
L 531.187509 356.083055 
L 531.300808 356.49033 
L 531.485663 356.49033 
L 531.598962 356.060462 
L 531.783817 356.060462 
L 531.897116 355.898708 
L 532.081971 355.898708 
L 532.19527 356.058836 
L 532.380125 356.058836 
L 532.493424 355.716661 
L 532.678279 355.716661 
L 532.791577 355.407389 
L 532.976433 355.407389 
L 533.089731 401.449242 
L 533.274587 401.449242 
L 533.387885 356.298791 
L 533.572741 356.298791 
L 533.686039 356.440946 
L 533.870895 356.440946 
L 533.984193 357.451745 
L 534.169048 357.451745 
L 534.282347 357.267547 
L 534.467202 357.267547 
L 534.580501 356.97559 
L 535.06351 357.027101 
L 535.176809 357.233789 
L 535.361664 357.233789 
L 535.474963 357.544889 
L 535.957972 357.51308 
L 536.07127 357.696864 
L 536.256126 357.696864 
L 536.369424 357.357896 
L 536.55428 357.357896 
L 536.667578 357.643656 
L 536.852434 357.643656 
L 536.965732 358.088922 
L 537.150588 358.088922 
L 537.263886 357.51778 
L 537.448741 357.51778 
L 537.56204 356.742745 
L 537.746895 356.742745 
L 537.860194 356.383499 
L 538.045049 356.383499 
L 538.158348 355.636352 
L 538.641357 355.578021 
L 538.754656 355.298788 
L 545.200743 355.298788 
L 545.314041 355.577728 
L 545.498897 355.577728 
L 545.612195 355.298788 
L 545.797051 355.298788 
L 545.910349 355.478127 
L 546.095205 355.478127 
L 546.208503 355.640976 
L 546.393359 355.640976 
L 546.506657 356.663191 
L 546.691512 356.663191 
L 546.804811 356.908216 
L 546.989666 356.908216 
L 547.102965 356.77951 
L 547.884128 356.757104 
L 547.997427 356.183339 
L 548.182282 356.183339 
L 548.29558 356.621996 
L 548.480436 356.621996 
L 548.593734 356.01352 
L 548.77859 356.01352 
L 548.891888 356.93238 
L 549.076744 356.93238 
L 549.190042 357.110582 
L 549.374898 357.110582 
L 549.488196 356.797174 
L 549.673052 356.797174 
L 549.78635 357.433416 
L 550.269359 357.541346 
L 550.382658 356.770842 
L 550.567513 356.770842 
L 550.680812 356.183064 
L 550.865667 356.183064 
L 550.978966 355.871206 
L 551.163821 355.871206 
L 551.27712 356.009271 
L 551.461975 356.009271 
L 551.575273 356.492579 
L 551.760129 356.492579 
L 551.873427 355.742824 
L 552.058283 355.742824 
L 552.171581 355.298788 
L 561.599208 355.298788 
L 561.712506 361.776617 
L 561.897362 361.776617 
L 562.01066 355.298788 
L 564.878901 355.298788 
L 564.992199 475.92377 
L 565.177055 475.92377 
L 565.290353 355.298788 
L 567.562286 355.298788 
L 567.675584 355.478067 
L 567.86044 355.478067 
L 567.973738 355.298788 
L 568.456747 355.298788 
L 568.570046 355.43666 
L 569.053055 355.386777 
L 569.166354 355.732557 
L 569.351209 355.732557 
L 569.464508 357.018319 
L 569.649363 357.018319 
L 569.762662 357.382542 
L 569.947517 357.382542 
L 570.060816 357.010633 
L 570.245671 357.010633 
L 570.358969 356.152187 
L 570.543825 356.152187 
L 570.657123 355.377035 
L 571.438287 355.298788 
L 571.551585 355.588582 
L 572.034594 355.650398 
L 572.147893 355.298788 
L 575.016133 355.298788 
L 575.129432 402.05468 
L 575.314287 402.05468 
L 575.427586 355.298788 
L 588.134905 355.298788 
L 588.248204 355.485515 
L 588.731213 355.477463 
L 588.844511 355.298788 
L 589.029367 355.298788 
L 589.142665 355.460495 
L 589.327521 355.460495 
L 589.440819 355.298788 
L 589.923829 355.298788 
L 590.037127 355.91347 
L 590.221983 355.91347 
L 590.335281 356.075917 
L 590.520136 356.075917 
L 590.633435 355.730607 
L 590.81829 355.730607 
L 590.931589 355.861121 
L 591.116444 355.861121 
L 591.229743 356.172059 
L 591.712752 356.244062 
L 591.826051 355.528683 
L 592.010906 355.528683 
L 592.124204 355.298788 
L 592.607214 355.298788 
L 592.720512 355.67355 
L 592.905368 355.67355 
L 593.018666 356.250538 
L 593.203522 356.250538 
L 593.31682 355.983695 
L 593.799829 355.989117 
L 593.913128 355.298788 
L 608.409371 355.298788 
L 608.522669 442.152312 
L 608.707525 442.152312 
L 608.820823 355.298788 
L 679.37 355.298788 
L 679.37 355.298788 
" clip-path="url(#p33530de9e4)" style="fill: none; stroke: #4682b4; stroke-width: 1.5; stroke-linecap: square"/>
   </g>
   <g id="patch_8">
    <path d="M 52.94 561.773333 
L 52.94 345.466667 
" style="fill: none; stroke: #000000; stroke-width: 0.8; stroke-linejoin: miter; stroke-linecap: square"/>
   </g>
   <g id="patch_9">
    <path d="M 709.2 561.773333 
L 709.2 345.466667 
" style="fill: none; stroke: #000000; stroke-width: 0.8; stroke-linejoin: miter; stroke-linecap: square"/>
   </g>
   <g id="patch_10">
    <path d="M 52.94 561.773333 
L 709.2 561.773333 
" style="fill: none; stroke: #000000; stroke-width: 0.8; stroke-linejoin: miter; stroke-linecap: square"/>
   </g>
   <g id="patch_11">
    <path d="M 52.94 345.466667 
L 709.2 345.466667 
" style="fill: none; stroke: #000000; stroke-width: 0.8; stroke-linejoin: miter; stroke-linecap: square"/>
   </g>
   <g id="text_28">
    <!-- Duty Cycle -->
    <g transform="translate(348.438437 339.466667) scale(0.12 -0.12)">
     <use xlink:href="#DejaVuSans-44"/>
     <use xlink:href="#DejaVuSans-75" x="77.001953"/>
     <use xlink:href="#DejaVuSans-74" x="140.380859"/>
     <use xlink:href="#DejaVuSans-79" x="179.589844"/>
     <use xlink:href="#DejaVuSans-20" x="238.769531"/>
     <use xlink:href="#DejaVuSans-43" x="270.556641"/>
     <use xlink:href="#DejaVuSans-79" x="340.380859"/>
     <use xlink:href="#DejaVuSans-63" x="399.560547"/>
     <use xlink:href="#DejaVuSans-6c" x="454.541016"/>
     <use xlink:href="#DejaVuSans-65" x="482.324219"/>
    </g>
   </g>
  </g>
  <g id="axes_3">
   <g id="patch_12">
    <path d="M 52.94 822.04 
L 709.2 822.04 
L 709.2 605.733333 
L 52.94 605.733333 
z
" style="fill: #ffffff"/>
   </g>
   <g id="matplotlib.axis_5">
    <g id="xtick_13">
     <g id="line2d_27">
      <g>
       <use xlink:href="#m4cd05a0b55" x="82.77" y="822.04" style="stroke: #000000; stroke-width: 0.8"/>
      </g>
     </g>
     <g id="text_29">
      <!-- 0.0 -->
      <g transform="translate(74.818438 836.638437) scale(0.1 -0.1)">
       <use xlink:href="#DejaVuSans-30"/>
       <use xlink:href="#DejaVuSans-2e" x="63.623047"/>
       <use xlink:href="#DejaVuSans-30" x="95.410156"/>
      </g>
     </g>
    </g>
    <g id="xtick_14">
     <g id="line2d_28">
      <g>
       <use xlink:href="#m4cd05a0b55" x="202.031562" y="822.04" style="stroke: #000000; stroke-width: 0.8"/>
      </g>
     </g>
     <g id="text_30">
      <!-- 0.2 -->
      <g transform="translate(194.079999 836.638437) scale(0.1 -0.1)">
       <use xlink:href="#DejaVuSans-30"/>
       <use xlink:href="#DejaVuSans-2e" x="63.623047"/>
       <use xlink:href="#DejaVuSans-32" x="95.410156"/>
      </g>
     </g>
    </g>
    <g id="xtick_15">
     <g id="line2d_29">
      <g>
       <use xlink:href="#m4cd05a0b55" x="321.293124" y="822.04" style="stroke: #000000; stroke-width: 0.8"/>
      </g>
     </g>
     <g id="text_31">
      <!-- 0.4 -->
      <g transform="translate(313.341561 836.638437) scale(0.1 -0.1)">
       <use xlink:href="#DejaVuSans-30"/>
       <use xlink:href="#DejaVuSans-2e" x="63.623047"/>
       <use xlink:href="#DejaVuSans-34" x="95.410156"/>
      </g>
     </g>
    </g>
    <g id="xtick_16">
     <g id="line2d_30">
      <g>
       <use xlink:href="#m4cd05a0b55" x="440.554686" y="822.04" style="stroke: #000000; stroke-width: 0.8"/>
      </g>
     </g>
     <g id="text_32">
      <!-- 0.6 -->
      <g transform="translate(432.603123 836.638437) scale(0.1 -0.1)">
       <use xlink:href="#DejaVuSans-30"/>
       <use xlink:href="#DejaVuSans-2e" x="63.623047"/>
       <use xlink:href="#DejaVuSans-36" x="95.410156"/>
      </g>
     </g>
    </g>
    <g id="xtick_17">
     <g id="line2d_31">
      <g>
       <use xlink:href="#m4cd05a0b55" x="559.816247" y="822.04" style="stroke: #000000; stroke-width: 0.8"/>
      </g>
     </g>
     <g id="text_33">
      <!-- 0.8 -->
      <g transform="translate(551.864685 836.638437) scale(0.1 -0.1)">
       <use xlink:href="#DejaVuSans-30"/>
       <use xlink:href="#DejaVuSans-2e" x="63.623047"/>
       <use xlink:href="#DejaVuSans-38" x="95.410156"/>
      </g>
     </g>
    </g>
    <g id="xtick_18">
     <g id="line2d_32">
      <g>
       <use xlink:href="#m4cd05a0b55" x="679.077809" y="822.04" style="stroke: #000000; stroke-width: 0.8"/>
      </g>
     </g>
     <g id="text_34">
      <!-- 1.0 -->
      <g transform="translate(671.126247 836.638437) scale(0.1 -0.1)">
       <use xlink:href="#DejaVuSans-31"/>
       <use xlink:href="#DejaVuSans-2e" x="63.623047"/>
       <use xlink:href="#DejaVuSans-30" x="95.410156"/>
      </g>
     </g>
    </g>
    <g id="text_35">
     <!-- Time (s) -->
     <g transform="translate(360.741094 850.316562) scale(0.1 -0.1)">
      <defs>
       <path id="DejaVuSans-54" d="M -19 4666 
L 3928 4666 
L 3928 4134 
L 2272 4134 
L 2272 0 
L 1638 0 
L 1638 4134 
L -19 4134 
L -19 4666 
z
" transform="scale(0.015625)"/>
       <path id="DejaVuSans-69" d="M 603 3500 
L 1178 3500 
L 1178 0 
L 603 0 
L 603 3500 
z
M 603 4863 
L 1178 4863 
L 1178 4134 
L 603 4134 
L 603 4863 
z
" transform="scale(0.015625)"/>
       <path id="DejaVuSans-6d" d="M 3328 2828 
Q 3544 3216 3844 3400 
Q 4144 3584 4550 3584 
Q 5097 3584 5394 3201 
Q 5691 2819 5691 2113 
L 5691 0 
L 5113 0 
L 5113 2094 
Q 5113 2597 4934 2840 
Q 4756 3084 4391 3084 
Q 3944 3084 3684 2787 
Q 3425 2491 3425 1978 
L 3425 0 
L 2847 0 
L 2847 2094 
Q 2847 2600 2669 2842 
Q 2491 3084 2119 3084 
Q 1678 3084 1418 2786 
Q 1159 2488 1159 1978 
L 1159 0 
L 581 0 
L 581 3500 
L 1159 3500 
L 1159 2956 
Q 1356 3278 1631 3431 
Q 1906 3584 2284 3584 
Q 2666 3584 2933 3390 
Q 3200 3197 3328 2828 
z
" transform="scale(0.015625)"/>
       <path id="DejaVuSans-28" d="M 1984 4856 
Q 1566 4138 1362 3434 
Q 1159 2731 1159 2009 
Q 1159 1288 1364 580 
Q 1569 -128 1984 -844 
L 1484 -844 
Q 1016 -109 783 600 
Q 550 1309 550 2009 
Q 550 2706 781 3412 
Q 1013 4119 1484 4856 
L 1984 4856 
z
" transform="scale(0.015625)"/>
       <path id="DejaVuSans-73" d="M 2834 3397 
L 2834 2853 
Q 2591 2978 2328 3040 
Q 2066 3103 1784 3103 
Q 1356 3103 1142 2972 
Q 928 2841 928 2578 
Q 928 2378 1081 2264 
Q 1234 2150 1697 2047 
L 1894 2003 
Q 2506 1872 2764 1633 
Q 3022 1394 3022 966 
Q 3022 478 2636 193 
Q 2250 -91 1575 -91 
Q 1294 -91 989 -36 
Q 684 19 347 128 
L 347 722 
Q 666 556 975 473 
Q 1284 391 1588 391 
Q 1994 391 2212 530 
Q 2431 669 2431 922 
Q 2431 1156 2273 1281 
Q 2116 1406 1581 1522 
L 1381 1569 
Q 847 1681 609 1914 
Q 372 2147 372 2553 
Q 372 3047 722 3315 
Q 1072 3584 1716 3584 
Q 2034 3584 2315 3537 
Q 2597 3491 2834 3397 
z
" transform="scale(0.015625)"/>
       <path id="DejaVuSans-29" d="M 513 4856 
L 1013 4856 
Q 1481 4119 1714 3412 
Q 1947 2706 1947 2009 
Q 1947 1309 1714 600 
Q 1481 -109 1013 -844 
L 513 -844 
Q 928 -128 1133 580 
Q 1338 1288 1338 2009 
Q 1338 2731 1133 3434 
Q 928 4138 513 4856 
z
" transform="scale(0.015625)"/>
      </defs>
      <use xlink:href="#DejaVuSans-54"/>
      <use xlink:href="#DejaVuSans-69" x="57.958984"/>
      <use xlink:href="#DejaVuSans-6d" x="85.742188"/>
      <use xlink:href="#DejaVuSans-65" x="183.154297"/>
      <use xlink:href="#DejaVuSans-20" x="244.677734"/>
      <use xlink:href="#DejaVuSans-28" x="276.464844"/>
      <use xlink:href="#DejaVuSans-73" x="315.478516"/>
      <use xlink:href="#DejaVuSans-29" x="367.578125"/>
     </g>
    </g>
   </g>
   <g id="matplotlib.axis_6">
    <g id="ytick_13">
     <g id="line2d_33">
      <defs>
       <path id="m0ddb4679c0" d="M 0 0 
L -3.5 0 
" style="stroke: #008000; stroke-width: 0.8"/>
      </defs>
      <g>
       <use xlink:href="#m0ddb4679c0" x="52.94" y="812.222887" style="fill: #008000; stroke: #008000; stroke-width: 0.8"/>
      </g>
     </g>
     <g id="text_36">
      <!-- 60 -->
      <g style="fill: #008000" transform="translate(24.835313 816.022105) scale(0.1 -0.1)">
       <defs>
        <path id="DejaVuSans-2212" d="M 678 2272 
L 4684 2272 
L 4684 1741 
L 678 1741 
L 678 2272 
z
" transform="scale(0.015625)"/>
       </defs>
       <use xlink:href="#DejaVuSans-2212"/>
       <use xlink:href="#DejaVuSans-36" x="83.789062"/>
       <use xlink:href="#DejaVuSans-30" x="147.412109"/>
      </g>
     </g>
    </g>
    <g id="ytick_14">
     <g id="line2d_34">
      <g>
       <use xlink:href="#m0ddb4679c0" x="52.94" y="779.452427" style="fill: #008000; stroke: #008000; stroke-width: 0.8"/>
      </g>
     </g>
     <g id="text_37">
      <!-- 50 -->
      <g style="fill: #008000" transform="translate(24.835313 783.251646) scale(0.1 -0.1)">
       <defs>
        <path id="DejaVuSans-35" d="M 691 4666 
L 3169 4666 
L 3169 4134 
L 1269 4134 
L 1269 2991 
Q 1406 3038 1543 3061 
Q 1681 3084 1819 3084 
Q 2600 3084 3056 2656 
Q 3513 2228 3513 1497 
Q 3513 744 3044 326 
Q 2575 -91 1722 -91 
Q 1428 -91 1123 -41 
Q 819 9 494 109 
L 494 744 
Q 775 591 1075 516 
Q 1375 441 1709 441 
Q 2250 441 2565 725 
Q 2881 1009 2881 1497 
Q 2881 1984 2565 2268 
Q 2250 2553 1709 2553 
Q 1456 2553 1204 2497 
Q 953 2441 691 2322 
L 691 4666 
z
" transform="scale(0.015625)"/>
       </defs>
       <use xlink:href="#DejaVuSans-2212"/>
       <use xlink:href="#DejaVuSans-35" x="83.789062"/>
       <use xlink:href="#DejaVuSans-30" x="147.412109"/>
      </g>
     </g>
    </g>
    <g id="ytick_15">
     <g id="line2d_35">
      <g>
       <use xlink:href="#m0ddb4679c0" x="52.94" y="746.681968" style="fill: #008000; stroke: #008000; stroke-width: 0.8"/>
      </g>
     </g>
     <g id="text_38">
      <!-- 40 -->
      <g style="fill: #008000" transform="translate(24.835313 750.481186) scale(0.1 -0.1)">
       <use xlink:href="#DejaVuSans-2212"/>
       <use xlink:href="#DejaVuSans-34" x="83.789062"/>
       <use xlink:href="#DejaVuSans-30" x="147.412109"/>
      </g>
     </g>
    </g>
    <g id="ytick_16">
     <g id="line2d_36">
      <g>
       <use xlink:href="#m0ddb4679c0" x="52.94" y="713.911508" style="fill: #008000; stroke: #008000; stroke-width: 0.8"/>
      </g>
     </g>
     <g id="text_39">
      <!-- 30 -->
      <g style="fill: #008000" transform="translate(24.835313 717.710727) scale(0.1 -0.1)">
       <defs>
        <path id="DejaVuSans-33" d="M 2597 2516 
Q 3050 2419 3304 2112 
Q 3559 1806 3559 1356 
Q 3559 666 3084 287 
Q 2609 -91 1734 -91 
Q 1441 -91 1130 -33 
Q 819 25 488 141 
L 488 750 
Q 750 597 1062 519 
Q 1375 441 1716 441 
Q 2309 441 2620 675 
Q 2931 909 2931 1356 
Q 2931 1769 2642 2001 
Q 2353 2234 1838 2234 
L 1294 2234 
L 1294 2753 
L 1863 2753 
Q 2328 2753 2575 2939 
Q 2822 3125 2822 3475 
Q 2822 3834 2567 4026 
Q 2313 4219 1838 4219 
Q 1578 4219 1281 4162 
Q 984 4106 628 3988 
L 628 4550 
Q 988 4650 1302 4700 
Q 1616 4750 1894 4750 
Q 2613 4750 3031 4423 
Q 3450 4097 3450 3541 
Q 3450 3153 3228 2886 
Q 3006 2619 2597 2516 
z
" transform="scale(0.015625)"/>
       </defs>
       <use xlink:href="#DejaVuSans-2212"/>
       <use xlink:href="#DejaVuSans-33" x="83.789062"/>
       <use xlink:href="#DejaVuSans-30" x="147.412109"/>
      </g>
     </g>
    </g>
    <g id="ytick_17">
     <g id="line2d_37">
      <g>
       <use xlink:href="#m0ddb4679c0" x="52.94" y="681.141049" style="fill: #008000; stroke: #008000; stroke-width: 0.8"/>
      </g>
     </g>
     <g id="text_40">
      <!-- 20 -->
      <g style="fill: #008000" transform="translate(24.835313 684.940267) scale(0.1 -0.1)">
       <use xlink:href="#DejaVuSans-2212"/>
       <use xlink:href="#DejaVuSans-32" x="83.789062"/>
       <use xlink:href="#DejaVuSans-30" x="147.412109"/>
      </g>
     </g>
    </g>
    <g id="ytick_18">
     <g id="line2d_38">
      <g>
       <use xlink:href="#m0ddb4679c0" x="52.94" y="648.370589" style="fill: #008000; stroke: #008000; stroke-width: 0.8"/>
      </g>
     </g>
     <g id="text_41">
      <!-- 10 -->
      <g style="fill: #008000" transform="translate(24.835313 652.169808) scale(0.1 -0.1)">
       <use xlink:href="#DejaVuSans-2212"/>
       <use xlink:href="#DejaVuSans-31" x="83.789062"/>
       <use xlink:href="#DejaVuSans-30" x="147.412109"/>
      </g>
     </g>
    </g>
    <g id="ytick_19">
     <g id="line2d_39">
      <g>
       <use xlink:href="#m0ddb4679c0" x="52.94" y="615.60013" style="fill: #008000; stroke: #008000; stroke-width: 0.8"/>
      </g>
     </g>
     <g id="text_42">
      <!-- 0 -->
      <g style="fill: #008000" transform="translate(39.5775 619.399348) scale(0.1 -0.1)">
       <use xlink:href="#DejaVuSans-30"/>
      </g>
     </g>
    </g>
    <g id="text_43">
     <!-- Cost -->
     <g style="fill: #008000" transform="translate(18.755625 725.002292) rotate(-90) scale(0.1 -0.1)">
      <use xlink:href="#DejaVuSans-43"/>
      <use xlink:href="#DejaVuSans-6f" x="69.824219"/>
      <use xlink:href="#DejaVuSans-73" x="131.005859"/>
      <use xlink:href="#DejaVuSans-74" x="183.105469"/>
     </g>
    </g>
   </g>
   <g id="line2d_40">
    <path d="M 82.77 812.207879 
L 82.895225 782.099697 
L 83.62272 623.581408 
L 83.85528 615.81548 
L 83.914911 615.565455 
L 83.962616 615.792989 
L 84.081877 617.15285 
L 84.374068 623.723288 
L 85.185047 641.923447 
L 85.679982 648.15224 
L 86.151065 651.539206 
L 86.616185 653.414517 
L 87.087269 654.462453 
L 87.588167 655.05953 
L 88.166586 655.404818 
L 88.965638 655.60619 
L 90.432555 655.707827 
L 96.771307 655.775269 
L 103.449955 655.747705 
L 103.509586 652.692626 
L 103.94489 624.699012 
L 103.992595 624.796223 
L 104.111856 625.842152 
L 104.404047 630.893873 
L 105.244841 645.568314 
L 105.733814 650.233 
L 106.204897 652.776089 
L 106.21086 652.799701 
L 106.234712 652.558541 
L 106.312232 647.412555 
L 106.544792 635.140647 
L 106.658091 634.405463 
L 106.699832 634.496924 
L 106.825057 635.465872 
L 107.194768 640.678432 
L 107.814928 648.331761 
L 108.297937 651.752749 
L 108.76902 653.627815 
L 109.240104 654.66126 
L 109.741002 655.250511 
L 110.325384 655.593704 
L 111.136362 655.792726 
L 112.639058 655.892105 
L 119.466783 655.962357 
L 153.396697 656.159433 
L 153.462291 653.113721 
L 153.682925 647.338392 
L 153.814112 646.831167 
L 153.843928 646.858081 
L 153.957226 647.245231 
L 154.303085 649.519842 
L 154.899393 652.911558 
L 155.382402 654.453615 
L 155.865411 655.299488 
L 156.384199 655.778572 
L 157.028211 656.062521 
L 157.99423 656.221175 
L 160.158827 656.294395 
L 162.228016 656.23201 
L 162.287646 653.176955 
L 162.669283 629.764699 
L 162.705062 629.698364 
L 162.75873 629.8527 
L 162.901843 631.264553 
L 163.325222 638.497655 
L 163.933456 647.331685 
L 164.422428 651.434386 
L 164.893511 653.658646 
L 165.364595 654.888222 
L 165.853567 655.578294 
L 166.40217 655.976094 
L 167.123703 656.210669 
L 168.328244 656.335519 
L 171.947833 656.394726 
L 178.054025 656.362692 
L 178.113656 653.307612 
L 178.459514 633.027909 
L 178.519145 632.847444 
L 178.572813 633.000602 
L 178.715926 634.336574 
L 179.198936 641.876734 
L 179.765428 648.894054 
L 180.248438 652.335743 
L 180.713558 654.198753 
L 181.184641 655.242375 
L 181.685539 655.837363 
L 182.269921 656.183879 
L 183.074937 656.383942 
L 184.559743 656.484384 
L 191.142981 656.553208 
L 222.63996 656.730229 
L 222.699591 653.675149 
L 223.1826 620.15325 
L 223.200489 620.168406 
L 223.278009 620.521311 
L 223.456901 622.661282 
L 223.844501 630.702588 
L 224.566034 644.697329 
L 225.060969 650.211954 
L 225.532053 653.198139 
L 225.997173 654.846164 
L 226.474219 655.773783 
L 226.987044 656.301797 
L 227.535647 656.587133 
L 227.565462 656.048882 
L 227.666835 647.299546 
L 227.881505 634.238457 
L 228.00673 633.163293 
L 228.042508 633.22182 
L 228.149844 633.984184 
L 228.436072 638.088477 
L 229.181456 648.524076 
L 229.670429 652.334381 
L 230.141512 654.396743 
L 230.612595 655.535416 
L 231.107531 656.179638 
L 231.674023 656.553055 
L 232.431334 656.770062 
L 233.755137 656.882846 
L 238.436154 656.943018 
L 250.338457 656.980143 
L 250.553128 655.947633 
L 250.666427 655.511197 
L 250.881098 654.729587 
L 251.024211 654.752186 
L 251.220993 655.030868 
L 251.256771 654.837901 
L 251.453553 654.363133 
L 251.590704 654.458885 
L 251.930599 655.106931 
L 252.550759 656.131943 
L 253.0934 656.603997 
L 253.755301 656.876207 
L 254.769024 657.026792 
L 254.810766 656.968855 
L 255.025437 655.948671 
L 255.138735 655.517371 
L 255.353406 654.743553 
L 255.419 654.561412 
L 255.621745 653.867946 
L 255.717154 653.743896 
L 255.907972 653.224407 
L 256.003382 653.256967 
L 256.021271 653.140019 
L 256.182274 652.768745 
L 256.200163 652.775616 
L 256.289609 652.896028 
L 256.325388 652.72604 
L 256.462539 652.451314 
L 256.492354 652.466859 
L 256.587763 652.625703 
L 256.629505 652.443163 
L 256.754729 652.235037 
L 256.784545 652.254824 
L 256.885917 652.443965 
L 256.927659 652.271656 
L 257.040957 652.086027 
L 257.082699 652.115691 
L 257.184071 652.322138 
L 257.231776 652.135288 
L 257.339111 651.987608 
L 257.380853 652.022617 
L 257.482225 652.240737 
L 257.52993 652.059189 
L 257.631302 651.919914 
L 257.673044 651.952718 
L 257.780379 652.186604 
L 257.834047 651.989904 
L 257.929456 651.876071 
L 257.971197 651.911329 
L 258.078533 652.150864 
L 258.132201 651.956866 
L 258.22761 651.847274 
L 258.269351 651.884188 
L 258.376687 652.127534 
L 258.430354 651.935361 
L 258.525764 651.82863 
L 258.567505 651.866662 
L 258.674841 652.112581 
L 258.728508 651.921639 
L 258.823918 651.81684 
L 258.865659 651.855627 
L 258.972995 652.103283 
L 259.026662 651.913171 
L 259.122071 651.809677 
L 259.163813 651.848973 
L 259.271148 652.097802 
L 259.324816 651.908252 
L 259.420225 651.805638 
L 259.461967 651.845278 
L 259.569302 652.094898 
L 259.62297 651.905727 
L 259.712416 651.801526 
L 259.760121 651.84358 
L 259.867456 652.093736 
L 259.921124 651.90482 
L 260.01057 651.800997 
L 260.058275 651.843232 
L 260.16561 652.093748 
L 260.219278 651.905006 
L 260.308724 651.801438 
L 260.356429 651.843795 
L 260.463764 652.094555 
L 260.517432 651.905929 
L 260.606878 651.802534 
L 260.654583 651.844972 
L 260.761918 652.095897 
L 260.815586 651.90735 
L 260.905032 651.804072 
L 260.952736 651.846566 
L 261.060072 652.097602 
L 261.11374 651.909108 
L 261.203186 651.805908 
L 261.25089 651.84844 
L 261.358226 652.099551 
L 261.411893 651.911093 
L 261.50134 651.807946 
L 261.549044 651.850503 
L 261.71601 652.300327 
L 262.777438 655.701039 
L 263.272374 656.38855 
L 263.82694 656.785137 
L 264.131057 656.908572 
L 264.142983 656.830115 
L 264.196651 654.27883 
L 264.649845 624.854558 
L 264.673697 624.888038 
L 264.763143 625.457835 
L 264.977814 628.623709 
L 266.200245 649.223617 
L 266.677291 652.814885 
L 267.142412 654.78311 
L 267.613495 655.885203 
L 268.10843 656.508226 
L 268.680886 656.871877 
L 269.456086 657.083115 
L 270.833557 657.191253 
L 276.087029 657.253414 
L 303.266739 657.394863 
L 303.326369 654.339784 
L 303.690117 632.447212 
L 303.737822 632.330271 
L 303.791489 632.484904 
L 303.934603 633.864505 
L 304.381834 641.203426 
L 304.972179 649.18406 
L 305.455188 652.950051 
L 305.926271 655.017099 
L 306.397355 656.15784 
L 306.89229 656.803163 
L 307.458782 657.177207 
L 308.216093 657.394571 
L 309.539897 657.507529 
L 314.208987 657.567639 
L 341.08458 657.706608 
L 341.144211 654.651529 
L 341.573552 627.245376 
L 341.603368 627.271669 
L 341.621257 627.33081 
L 341.740518 628.357405 
L 342.032709 633.357399 
L 342.861577 647.628359 
L 343.35055 652.248057 
L 343.821633 654.766101 
L 344.286753 656.149141 
L 344.769762 656.932775 
L 345.300476 657.381766 
L 345.968341 657.645627 
L 347.011879 657.791509 
L 349.57004 657.857573 
L 394.507796 658.229616 
L 394.537612 657.679422 
L 394.638984 648.872785 
L 394.853655 636.445191 
L 394.97888 635.43588 
L 395.014658 635.500301 
L 395.127957 636.32089 
L 395.438037 640.738691 
L 396.135717 650.124015 
L 396.624689 653.834307 
L 397.095772 655.841315 
L 397.566856 656.948951 
L 398.061791 657.575483 
L 398.628283 657.938649 
L 399.397521 658.151742 
L 400.757102 658.261385 
L 405.807829 658.32274 
L 418.908712 658.348139 
L 418.968343 655.29306 
L 419.391721 628.494721 
L 419.415574 628.501707 
L 419.439426 628.567955 
L 419.552724 629.501679 
L 419.832989 634.166212 
L 420.679746 648.522193 
L 421.168719 653.032398 
L 421.639802 655.487206 
L 422.104922 656.834581 
L 422.587931 657.597765 
L 423.118645 658.035002 
L 423.792473 658.293451 
L 424.853901 658.43583 
L 427.52536 658.500486 
L 441.604187 658.535226 
L 441.663818 655.480146 
L 442.033529 632.830819 
L 442.07527 632.725704 
L 442.128938 632.865426 
L 442.266089 634.160777 
L 442.665615 640.798617 
L 443.285775 649.726001 
L 443.774748 653.78681 
L 444.245831 655.988766 
L 444.716914 657.205926 
L 445.205886 657.888987 
L 445.760453 658.285675 
L 446.487948 658.517285 
L 447.710379 658.639996 
L 448.324576 658.578078 
L 448.384207 655.524394 
L 448.879143 621.053572 
L 448.897032 621.068618 
L 448.980515 621.433716 
L 449.159407 623.495442 
L 449.517192 630.833606 
L 450.298355 646.408471 
L 450.793291 651.989593 
L 451.264374 655.012526 
L 451.729494 656.681273 
L 452.20654 657.620707 
L 452.713402 658.15108 
L 453.321636 658.463258 
L 454.198208 658.642365 
L 455.957316 658.728336 
L 467.543577 658.831675 
L 469.493503 658.765127 
L 469.553134 655.710048 
L 470.04807 621.229565 
L 470.065959 621.24458 
L 470.149442 621.609617 
L 470.328334 623.6714 
L 470.686119 631.009549 
L 471.467282 646.583751 
L 471.962218 652.16454 
L 472.433301 655.187278 
L 472.898421 656.855914 
L 473.375467 657.795284 
L 473.882329 658.325621 
L 473.953886 658.376244 
L 473.965812 658.302101 
L 474.01948 655.776132 
L 474.520378 621.207234 
L 474.56212 621.282092 
L 474.675418 622.043292 
L 474.902015 625.418143 
L 475.498323 638.440425 
L 475.56988 636.298393 
L 475.975369 619.938063 
L 476.040963 620.071099 
L 476.178114 621.035591 
L 476.410674 624.596476 
L 477.883554 651.480812 
L 478.354638 654.823141 
L 478.819758 656.675441 
L 479.290841 657.710649 
L 479.791739 658.300473 
L 480.376121 658.643937 
L 481.1871 658.843105 
L 482.689795 658.942549 
L 489.511557 659.012763 
L 493.560487 658.963519 
L 493.620117 655.90844 
L 493.852677 645.29496 
L 493.989828 644.401436 
L 494.019644 644.433451 
L 494.121016 644.904184 
L 494.407244 647.631126 
L 495.087035 653.757723 
L 495.570044 656.183267 
L 496.041127 657.501185 
L 496.524136 658.237401 
L 497.060814 658.6628 
L 497.746567 658.913268 
L 498.849737 659.050539 
L 499.803829 659.00383 
L 499.86346 655.949991 
L 500.131799 642.190976 
L 500.245097 641.550521 
L 500.286839 641.628097 
L 500.412063 642.459764 
L 500.805627 647.154685 
L 501.395971 653.072494 
L 501.878981 655.831299 
L 502.350064 657.331925 
L 502.82711 658.163577 
L 503.345898 658.640923 
L 503.98991 658.923624 
L 504.961892 659.082082 
L 507.144379 659.154836 
L 517.114645 659.211931 
L 517.150424 658.148003 
L 517.478393 645.781866 
L 517.54995 645.602509 
L 517.603618 645.704435 
L 517.752694 646.62797 
L 519.010904 656.166502 
L 519.481987 657.577686 
L 519.964996 658.367987 
L 520.49571 658.821392 
L 521.157612 659.0864 
L 522.189225 659.23395 
L 524.32997 659.296906 
L 525.10517 656.150186 
L 525.307914 655.669243 
L 525.445065 655.457461 
L 525.474881 655.472809 
L 525.522585 655.527367 
L 525.546438 655.405171 
L 525.713404 654.997627 
L 525.72533 655.001339 
L 525.850555 655.188137 
L 525.898259 655.308229 
L 525.916148 655.177092 
L 525.981742 651.567981 
L 526.393195 625.096023 
L 526.417047 625.075862 
L 526.458788 625.178842 
L 526.57805 626.203194 
L 526.917946 631.759333 
L 527.848186 647.888873 
L 528.349084 653.117921 
L 528.820167 655.921636 
L 529.285288 657.469424 
L 529.762334 658.340301 
L 530.281122 658.839969 
L 530.913208 659.132232 
L 531.849411 659.297033 
L 533.220919 659.334059 
L 533.256698 658.270754 
L 533.566778 647.012007 
L 533.650261 646.756348 
L 533.703928 646.843751 
L 533.847042 647.648579 
L 535.14103 656.647435 
L 535.612113 657.902058 
L 536.101086 658.609614 
L 536.649689 659.01798 
L 537.359295 659.256342 
L 538.528059 659.384418 
L 541.897198 659.444213 
L 561.909288 659.548528 
L 562.123959 658.516018 
L 562.32074 658.368071 
L 562.559263 658.517034 
L 563.567023 659.284163 
L 564.336261 659.505434 
L 565.010088 659.555584 
L 565.045867 658.494651 
L 565.177055 644.981981 
L 565.385762 631.901395 
L 565.499061 630.950481 
L 565.540802 631.032445 
L 565.654101 631.968405 
L 565.946292 636.779018 
L 566.745344 649.891138 
L 567.234316 654.326779 
L 567.7054 656.741203 
L 568.17052 658.066154 
L 568.653529 658.816532 
L 569.190206 659.249768 
L 569.87596 659.504761 
L 570.967203 659.643671 
L 573.799665 659.706606 
L 575.266583 659.636909 
L 575.326213 656.599809 
L 575.546847 647.967681 
L 575.689961 647.107835 
L 575.719777 647.136728 
L 575.827112 647.588274 
L 576.137192 650.216238 
L 576.781205 655.189245 
L 577.264214 657.274212 
L 577.735297 658.40326 
L 578.230232 659.044134 
L 578.796725 659.415921 
L 579.554036 659.632033 
L 580.883802 659.744606 
L 585.612523 659.804915 
L 608.600189 659.911831 
L 608.65982 656.856751 
L 608.981826 638.332209 
L 609.053383 638.02548 
L 609.107051 638.148018 
L 609.244202 639.316014 
L 609.685469 645.781147 
L 610.263888 652.705454 
L 610.746897 656.028511 
L 611.21798 657.844163 
L 611.689064 658.843803 
L 612.189962 659.413576 
L 612.780307 659.747692 
L 613.609175 659.941196 
L 615.177464 660.036671 
L 623.001023 660.113163 
L 679.37 660.577832 
L 679.37 660.577832 
" clip-path="url(#p243fadc340)" style="fill: none; stroke: #008000; stroke-width: 1.5; stroke-linecap: square"/>
   </g>
   <g id="patch_13">
    <path d="M 52.94 822.04 
L 52.94 605.733333 
" style="fill: none; stroke: #000000; stroke-width: 0.8; stroke-linejoin: miter; stroke-linecap: square"/>
   </g>
   <g id="patch_14">
    <path d="M 709.2 822.04 
L 709.2 605.733333 
" style="fill: none; stroke: #000000; stroke-width: 0.8; stroke-linejoin: miter; stroke-linecap: square"/>
   </g>
   <g id="patch_15">
    <path d="M 52.94 822.04 
L 709.2 822.04 
" style="fill: none; stroke: #000000; stroke-width: 0.8; stroke-linejoin: miter; stroke-linecap: square"/>
   </g>
   <g id="patch_16">
    <path d="M 52.94 605.733333 
L 709.2 605.733333 
" style="fill: none; stroke: #000000; stroke-width: 0.8; stroke-linejoin: miter; stroke-linecap: square"/>
   </g>
   <g id="text_44">
    <!-- Cost Over Time -->
    <g transform="translate(334.804375 599.733333) scale(0.12 -0.12)">
     <defs>
      <path id="DejaVuSans-76" d="M 191 3500 
L 800 3500 
L 1894 563 
L 2988 3500 
L 3597 3500 
L 2284 0 
L 1503 0 
L 191 3500 
z
" transform="scale(0.015625)"/>
      <path id="DejaVuSans-72" d="M 2631 2963 
Q 2534 3019 2420 3045 
Q 2306 3072 2169 3072 
Q 1681 3072 1420 2755 
Q 1159 2438 1159 1844 
L 1159 0 
L 581 0 
L 581 3500 
L 1159 3500 
L 1159 2956 
Q 1341 3275 1631 3429 
Q 1922 3584 2338 3584 
Q 2397 3584 2469 3576 
Q 2541 3569 2628 3553 
L 2631 2963 
z
" transform="scale(0.015625)"/>
     </defs>
     <use xlink:href="#DejaVuSans-43"/>
     <use xlink:href="#DejaVuSans-6f" x="69.824219"/>
     <use xlink:href="#DejaVuSans-73" x="131.005859"/>
     <use xlink:href="#DejaVuSans-74" x="183.105469"/>
     <use xlink:href="#DejaVuSans-20" x="222.314453"/>
     <use xlink:href="#DejaVuSans-4f" x="254.101562"/>
     <use xlink:href="#DejaVuSans-76" x="332.8125"/>
     <use xlink:href="#DejaVuSans-65" x="391.992188"/>
     <use xlink:href="#DejaVuSans-72" x="453.515625"/>
     <use xlink:href="#DejaVuSans-20" x="494.628906"/>
     <use xlink:href="#DejaVuSans-54" x="526.416016"/>
     <use xlink:href="#DejaVuSans-69" x="584.375"/>
     <use xlink:href="#DejaVuSans-6d" x="612.158203"/>
     <use xlink:href="#DejaVuSans-65" x="709.570312"/>
    </g>
   </g>
  </g>
  <g id="text_45">
   <!-- Episode 621 - Total Reward: -24922.39 -->
   <g transform="translate(244.110938 26.398125) scale(0.12 -0.12)">
    <defs>
     <path id="DejaVuSans-45" d="M 628 4666 
L 3578 4666 
L 3578 4134 
L 1259 4134 
L 1259 2753 
L 3481 2753 
L 3481 2222 
L 1259 2222 
L 1259 531 
L 3634 531 
L 3634 0 
L 628 0 
L 628 4666 
z
" transform="scale(0.015625)"/>
     <path id="DejaVuSans-64" d="M 2906 2969 
L 2906 4863 
L 3481 4863 
L 3481 0 
L 2906 0 
L 2906 525 
Q 2725 213 2448 61 
Q 2172 -91 1784 -91 
Q 1150 -91 751 415 
Q 353 922 353 1747 
Q 353 2572 751 3078 
Q 1150 3584 1784 3584 
Q 2172 3584 2448 3432 
Q 2725 3281 2906 2969 
z
M 947 1747 
Q 947 1113 1208 752 
Q 1469 391 1925 391 
Q 2381 391 2643 752 
Q 2906 1113 2906 1747 
Q 2906 2381 2643 2742 
Q 2381 3103 1925 3103 
Q 1469 3103 1208 2742 
Q 947 2381 947 1747 
z
" transform="scale(0.015625)"/>
     <path id="DejaVuSans-2d" d="M 313 2009 
L 1997 2009 
L 1997 1497 
L 313 1497 
L 313 2009 
z
" transform="scale(0.015625)"/>
     <path id="DejaVuSans-52" d="M 2841 2188 
Q 3044 2119 3236 1894 
Q 3428 1669 3622 1275 
L 4263 0 
L 3584 0 
L 2988 1197 
Q 2756 1666 2539 1819 
Q 2322 1972 1947 1972 
L 1259 1972 
L 1259 0 
L 628 0 
L 628 4666 
L 2053 4666 
Q 2853 4666 3247 4331 
Q 3641 3997 3641 3322 
Q 3641 2881 3436 2590 
Q 3231 2300 2841 2188 
z
M 1259 4147 
L 1259 2491 
L 2053 2491 
Q 2509 2491 2742 2702 
Q 2975 2913 2975 3322 
Q 2975 3731 2742 3939 
Q 2509 4147 2053 4147 
L 1259 4147 
z
" transform="scale(0.015625)"/>
     <path id="DejaVuSans-77" d="M 269 3500 
L 844 3500 
L 1563 769 
L 2278 3500 
L 2956 3500 
L 3675 769 
L 4391 3500 
L 4966 3500 
L 4050 0 
L 3372 0 
L 2619 2869 
L 1863 0 
L 1184 0 
L 269 3500 
z
" transform="scale(0.015625)"/>
     <path id="DejaVuSans-3a" d="M 750 794 
L 1409 794 
L 1409 0 
L 750 0 
L 750 794 
z
M 750 3309 
L 1409 3309 
L 1409 2516 
L 750 2516 
L 750 3309 
z
" transform="scale(0.015625)"/>
     <path id="DejaVuSans-39" d="M 703 97 
L 703 672 
Q 941 559 1184 500 
Q 1428 441 1663 441 
Q 2288 441 2617 861 
Q 2947 1281 2994 2138 
Q 2813 1869 2534 1725 
Q 2256 1581 1919 1581 
Q 1219 1581 811 2004 
Q 403 2428 403 3163 
Q 403 3881 828 4315 
Q 1253 4750 1959 4750 
Q 2769 4750 3195 4129 
Q 3622 3509 3622 2328 
Q 3622 1225 3098 567 
Q 2575 -91 1691 -91 
Q 1453 -91 1209 -44 
Q 966 3 703 97 
z
M 1959 2075 
Q 2384 2075 2632 2365 
Q 2881 2656 2881 3163 
Q 2881 3666 2632 3958 
Q 2384 4250 1959 4250 
Q 1534 4250 1286 3958 
Q 1038 3666 1038 3163 
Q 1038 2656 1286 2365 
Q 1534 2075 1959 2075 
z
" transform="scale(0.015625)"/>
    </defs>
    <use xlink:href="#DejaVuSans-45"/>
    <use xlink:href="#DejaVuSans-70" x="63.183594"/>
    <use xlink:href="#DejaVuSans-69" x="126.660156"/>
    <use xlink:href="#DejaVuSans-73" x="154.443359"/>
    <use xlink:href="#DejaVuSans-6f" x="206.542969"/>
    <use xlink:href="#DejaVuSans-64" x="267.724609"/>
    <use xlink:href="#DejaVuSans-65" x="331.201172"/>
    <use xlink:href="#DejaVuSans-20" x="392.724609"/>
    <use xlink:href="#DejaVuSans-36" x="424.511719"/>
    <use xlink:href="#DejaVuSans-32" x="488.134766"/>
    <use xlink:href="#DejaVuSans-31" x="551.757812"/>
    <use xlink:href="#DejaVuSans-20" x="615.380859"/>
    <use xlink:href="#DejaVuSans-2d" x="647.167969"/>
    <use xlink:href="#DejaVuSans-20" x="683.251953"/>
    <use xlink:href="#DejaVuSans-54" x="715.039062"/>
    <use xlink:href="#DejaVuSans-6f" x="759.123047"/>
    <use xlink:href="#DejaVuSans-74" x="820.304688"/>
    <use xlink:href="#DejaVuSans-61" x="859.513672"/>
    <use xlink:href="#DejaVuSans-6c" x="920.792969"/>
    <use xlink:href="#DejaVuSans-20" x="948.576172"/>
    <use xlink:href="#DejaVuSans-52" x="980.363281"/>
    <use xlink:href="#DejaVuSans-65" x="1045.345703"/>
    <use xlink:href="#DejaVuSans-77" x="1106.869141"/>
    <use xlink:href="#DejaVuSans-61" x="1188.65625"/>
    <use xlink:href="#DejaVuSans-72" x="1249.935547"/>
    <use xlink:href="#DejaVuSans-64" x="1289.298828"/>
    <use xlink:href="#DejaVuSans-3a" x="1352.775391"/>
    <use xlink:href="#DejaVuSans-20" x="1386.466797"/>
    <use xlink:href="#DejaVuSans-2d" x="1418.253906"/>
    <use xlink:href="#DejaVuSans-32" x="1454.337891"/>
    <use xlink:href="#DejaVuSans-34" x="1517.960938"/>
    <use xlink:href="#DejaVuSans-39" x="1581.583984"/>
    <use xlink:href="#DejaVuSans-32" x="1645.207031"/>
    <use xlink:href="#DejaVuSans-32" x="1708.830078"/>
    <use xlink:href="#DejaVuSans-2e" x="1772.453125"/>
    <use xlink:href="#DejaVuSans-33" x="1804.240234"/>
    <use xlink:href="#DejaVuSans-39" x="1867.863281"/>
   </g>
  </g>
 </g>
 <defs>
  <clipPath id="p61fe19ccfb">
   <rect x="52.94" y="85.2" width="656.26" height="216.306667"/>
  </clipPath>
  <clipPath id="p33530de9e4">
   <rect x="52.94" y="345.466667" width="656.26" height="216.306667"/>
  </clipPath>
  <clipPath id="p243fadc340">
   <rect x="52.94" y="605.733333" width="656.26" height="216.306667"/>
  </clipPath>
 </defs>
</svg>
