<?xml version="1.0" encoding="utf-8" standalone="no"?>
<!DOCTYPE svg PUBLIC "-//W3C//DTD SVG 1.1//EN"
  "http://www.w3.org/Graphics/SVG/1.1/DTD/svg11.dtd">
<svg xmlns:xlink="http://www.w3.org/1999/xlink" width="720pt" height="864pt" viewBox="0 0 720 864" xmlns="http://www.w3.org/2000/svg" version="1.1">
 <metadata>
  <rdf:RDF xmlns:dc="http://purl.org/dc/elements/1.1/" xmlns:cc="http://creativecommons.org/ns#" xmlns:rdf="http://www.w3.org/1999/02/22-rdf-syntax-ns#">
   <cc:Work>
    <dc:type rdf:resource="http://purl.org/dc/dcmitype/StillImage"/>
    <dc:date>2024-06-04T13:49:48.314192</dc:date>
    <dc:format>image/svg+xml</dc:format>
    <dc:creator>
     <cc:Agent>
      <dc:title>Matplotlib v3.8.4, https://matplotlib.org/</dc:title>
     </cc:Agent>
    </dc:creator>
   </cc:Work>
  </rdf:RDF>
 </metadata>
 <defs>
  <style type="text/css">*{stroke-linejoin: round; stroke-linecap: butt}</style>
 </defs>
 <g id="figure_1">
  <g id="patch_1">
   <path d="M 0 864 
L 720 864 
L 720 0 
L 0 0 
z
" style="fill: #ffffff"/>
  </g>
  <g id="axes_1">
   <g id="patch_2">
    <path d="M 54.02 301.506667 
L 709.2 301.506667 
L 709.2 85.2 
L 54.02 85.2 
z
" style="fill: #ffffff"/>
   </g>
   <g id="matplotlib.axis_1">
    <g id="xtick_1">
     <g id="line2d_1">
      <defs>
       <path id="mc26085917a" d="M 0 0 
L 0 3.5 
" style="stroke: #000000; stroke-width: 0.8"/>
      </defs>
      <g>
       <use xlink:href="#mc26085917a" x="83.800909" y="301.506667" style="stroke: #000000; stroke-width: 0.8"/>
      </g>
     </g>
     <g id="text_1">
      <!-- 0.000 -->
      <g transform="translate(69.486847 316.105104) scale(0.1 -0.1)">
       <defs>
        <path id="DejaVuSans-30" d="M 2034 4250 
Q 1547 4250 1301 3770 
Q 1056 3291 1056 2328 
Q 1056 1369 1301 889 
Q 1547 409 2034 409 
Q 2525 409 2770 889 
Q 3016 1369 3016 2328 
Q 3016 3291 2770 3770 
Q 2525 4250 2034 4250 
z
M 2034 4750 
Q 2819 4750 3233 4129 
Q 3647 3509 3647 2328 
Q 3647 1150 3233 529 
Q 2819 -91 2034 -91 
Q 1250 -91 836 529 
Q 422 1150 422 2328 
Q 422 3509 836 4129 
Q 1250 4750 2034 4750 
z
" transform="scale(0.015625)"/>
        <path id="DejaVuSans-2e" d="M 684 794 
L 1344 794 
L 1344 0 
L 684 0 
L 684 794 
z
" transform="scale(0.015625)"/>
       </defs>
       <use xlink:href="#DejaVuSans-30"/>
       <use xlink:href="#DejaVuSans-2e" x="63.623047"/>
       <use xlink:href="#DejaVuSans-30" x="95.410156"/>
       <use xlink:href="#DejaVuSans-30" x="159.033203"/>
       <use xlink:href="#DejaVuSans-30" x="222.65625"/>
      </g>
     </g>
    </g>
    <g id="xtick_2">
     <g id="line2d_2">
      <g>
       <use xlink:href="#mc26085917a" x="202.924545" y="301.506667" style="stroke: #000000; stroke-width: 0.8"/>
      </g>
     </g>
     <g id="text_2">
      <!-- 0.002 -->
      <g transform="translate(188.610483 316.105104) scale(0.1 -0.1)">
       <defs>
        <path id="DejaVuSans-32" d="M 1228 531 
L 3431 531 
L 3431 0 
L 469 0 
L 469 531 
Q 828 903 1448 1529 
Q 2069 2156 2228 2338 
Q 2531 2678 2651 2914 
Q 2772 3150 2772 3378 
Q 2772 3750 2511 3984 
Q 2250 4219 1831 4219 
Q 1534 4219 1204 4116 
Q 875 4013 500 3803 
L 500 4441 
Q 881 4594 1212 4672 
Q 1544 4750 1819 4750 
Q 2544 4750 2975 4387 
Q 3406 4025 3406 3419 
Q 3406 3131 3298 2873 
Q 3191 2616 2906 2266 
Q 2828 2175 2409 1742 
Q 1991 1309 1228 531 
z
" transform="scale(0.015625)"/>
       </defs>
       <use xlink:href="#DejaVuSans-30"/>
       <use xlink:href="#DejaVuSans-2e" x="63.623047"/>
       <use xlink:href="#DejaVuSans-30" x="95.410156"/>
       <use xlink:href="#DejaVuSans-30" x="159.033203"/>
       <use xlink:href="#DejaVuSans-32" x="222.65625"/>
      </g>
     </g>
    </g>
    <g id="xtick_3">
     <g id="line2d_3">
      <g>
       <use xlink:href="#mc26085917a" x="322.048182" y="301.506667" style="stroke: #000000; stroke-width: 0.8"/>
      </g>
     </g>
     <g id="text_3">
      <!-- 0.004 -->
      <g transform="translate(307.734119 316.105104) scale(0.1 -0.1)">
       <defs>
        <path id="DejaVuSans-34" d="M 2419 4116 
L 825 1625 
L 2419 1625 
L 2419 4116 
z
M 2253 4666 
L 3047 4666 
L 3047 1625 
L 3713 1625 
L 3713 1100 
L 3047 1100 
L 3047 0 
L 2419 0 
L 2419 1100 
L 313 1100 
L 313 1709 
L 2253 4666 
z
" transform="scale(0.015625)"/>
       </defs>
       <use xlink:href="#DejaVuSans-30"/>
       <use xlink:href="#DejaVuSans-2e" x="63.623047"/>
       <use xlink:href="#DejaVuSans-30" x="95.410156"/>
       <use xlink:href="#DejaVuSans-30" x="159.033203"/>
       <use xlink:href="#DejaVuSans-34" x="222.65625"/>
      </g>
     </g>
    </g>
    <g id="xtick_4">
     <g id="line2d_4">
      <g>
       <use xlink:href="#mc26085917a" x="441.171818" y="301.506667" style="stroke: #000000; stroke-width: 0.8"/>
      </g>
     </g>
     <g id="text_4">
      <!-- 0.006 -->
      <g transform="translate(426.857756 316.105104) scale(0.1 -0.1)">
       <defs>
        <path id="DejaVuSans-36" d="M 2113 2584 
Q 1688 2584 1439 2293 
Q 1191 2003 1191 1497 
Q 1191 994 1439 701 
Q 1688 409 2113 409 
Q 2538 409 2786 701 
Q 3034 994 3034 1497 
Q 3034 2003 2786 2293 
Q 2538 2584 2113 2584 
z
M 3366 4563 
L 3366 3988 
Q 3128 4100 2886 4159 
Q 2644 4219 2406 4219 
Q 1781 4219 1451 3797 
Q 1122 3375 1075 2522 
Q 1259 2794 1537 2939 
Q 1816 3084 2150 3084 
Q 2853 3084 3261 2657 
Q 3669 2231 3669 1497 
Q 3669 778 3244 343 
Q 2819 -91 2113 -91 
Q 1303 -91 875 529 
Q 447 1150 447 2328 
Q 447 3434 972 4092 
Q 1497 4750 2381 4750 
Q 2619 4750 2861 4703 
Q 3103 4656 3366 4563 
z
" transform="scale(0.015625)"/>
       </defs>
       <use xlink:href="#DejaVuSans-30"/>
       <use xlink:href="#DejaVuSans-2e" x="63.623047"/>
       <use xlink:href="#DejaVuSans-30" x="95.410156"/>
       <use xlink:href="#DejaVuSans-30" x="159.033203"/>
       <use xlink:href="#DejaVuSans-36" x="222.65625"/>
      </g>
     </g>
    </g>
    <g id="xtick_5">
     <g id="line2d_5">
      <g>
       <use xlink:href="#mc26085917a" x="560.295455" y="301.506667" style="stroke: #000000; stroke-width: 0.8"/>
      </g>
     </g>
     <g id="text_5">
      <!-- 0.008 -->
      <g transform="translate(545.981392 316.105104) scale(0.1 -0.1)">
       <defs>
        <path id="DejaVuSans-38" d="M 2034 2216 
Q 1584 2216 1326 1975 
Q 1069 1734 1069 1313 
Q 1069 891 1326 650 
Q 1584 409 2034 409 
Q 2484 409 2743 651 
Q 3003 894 3003 1313 
Q 3003 1734 2745 1975 
Q 2488 2216 2034 2216 
z
M 1403 2484 
Q 997 2584 770 2862 
Q 544 3141 544 3541 
Q 544 4100 942 4425 
Q 1341 4750 2034 4750 
Q 2731 4750 3128 4425 
Q 3525 4100 3525 3541 
Q 3525 3141 3298 2862 
Q 3072 2584 2669 2484 
Q 3125 2378 3379 2068 
Q 3634 1759 3634 1313 
Q 3634 634 3220 271 
Q 2806 -91 2034 -91 
Q 1263 -91 848 271 
Q 434 634 434 1313 
Q 434 1759 690 2068 
Q 947 2378 1403 2484 
z
M 1172 3481 
Q 1172 3119 1398 2916 
Q 1625 2713 2034 2713 
Q 2441 2713 2670 2916 
Q 2900 3119 2900 3481 
Q 2900 3844 2670 4047 
Q 2441 4250 2034 4250 
Q 1625 4250 1398 4047 
Q 1172 3844 1172 3481 
z
" transform="scale(0.015625)"/>
       </defs>
       <use xlink:href="#DejaVuSans-30"/>
       <use xlink:href="#DejaVuSans-2e" x="63.623047"/>
       <use xlink:href="#DejaVuSans-30" x="95.410156"/>
       <use xlink:href="#DejaVuSans-30" x="159.033203"/>
       <use xlink:href="#DejaVuSans-38" x="222.65625"/>
      </g>
     </g>
    </g>
    <g id="xtick_6">
     <g id="line2d_6">
      <g>
       <use xlink:href="#mc26085917a" x="679.419091" y="301.506667" style="stroke: #000000; stroke-width: 0.8"/>
      </g>
     </g>
     <g id="text_6">
      <!-- 0.010 -->
      <g transform="translate(665.105028 316.105104) scale(0.1 -0.1)">
       <defs>
        <path id="DejaVuSans-31" d="M 794 531 
L 1825 531 
L 1825 4091 
L 703 3866 
L 703 4441 
L 1819 4666 
L 2450 4666 
L 2450 531 
L 3481 531 
L 3481 0 
L 794 0 
L 794 531 
z
" transform="scale(0.015625)"/>
       </defs>
       <use xlink:href="#DejaVuSans-30"/>
       <use xlink:href="#DejaVuSans-2e" x="63.623047"/>
       <use xlink:href="#DejaVuSans-30" x="95.410156"/>
       <use xlink:href="#DejaVuSans-31" x="159.033203"/>
       <use xlink:href="#DejaVuSans-30" x="222.65625"/>
      </g>
     </g>
    </g>
   </g>
   <g id="matplotlib.axis_2">
    <g id="ytick_1">
     <g id="line2d_7">
      <defs>
       <path id="m585a0edfb2" d="M 0 0 
L -3.5 0 
" style="stroke: #ff4500; stroke-width: 0.8"/>
      </defs>
      <g>
       <use xlink:href="#m585a0edfb2" x="54.02" y="291.692705" style="fill: #ff4500; stroke: #ff4500; stroke-width: 0.8"/>
      </g>
     </g>
     <g id="text_7">
      <!-- 0.0 -->
      <g style="fill: #ff4500" transform="translate(31.116875 295.491923) scale(0.1 -0.1)">
       <use xlink:href="#DejaVuSans-30"/>
       <use xlink:href="#DejaVuSans-2e" x="63.623047"/>
       <use xlink:href="#DejaVuSans-30" x="95.410156"/>
      </g>
     </g>
    </g>
    <g id="ytick_2">
     <g id="line2d_8">
      <g>
       <use xlink:href="#m585a0edfb2" x="54.02" y="266.470853" style="fill: #ff4500; stroke: #ff4500; stroke-width: 0.8"/>
      </g>
     </g>
     <g id="text_8">
      <!-- 0.5 -->
      <g style="fill: #ff4500" transform="translate(31.116875 270.270072) scale(0.1 -0.1)">
       <defs>
        <path id="DejaVuSans-35" d="M 691 4666 
L 3169 4666 
L 3169 4134 
L 1269 4134 
L 1269 2991 
Q 1406 3038 1543 3061 
Q 1681 3084 1819 3084 
Q 2600 3084 3056 2656 
Q 3513 2228 3513 1497 
Q 3513 744 3044 326 
Q 2575 -91 1722 -91 
Q 1428 -91 1123 -41 
Q 819 9 494 109 
L 494 744 
Q 775 591 1075 516 
Q 1375 441 1709 441 
Q 2250 441 2565 725 
Q 2881 1009 2881 1497 
Q 2881 1984 2565 2268 
Q 2250 2553 1709 2553 
Q 1456 2553 1204 2497 
Q 953 2441 691 2322 
L 691 4666 
z
" transform="scale(0.015625)"/>
       </defs>
       <use xlink:href="#DejaVuSans-30"/>
       <use xlink:href="#DejaVuSans-2e" x="63.623047"/>
       <use xlink:href="#DejaVuSans-35" x="95.410156"/>
      </g>
     </g>
    </g>
    <g id="ytick_3">
     <g id="line2d_9">
      <g>
       <use xlink:href="#m585a0edfb2" x="54.02" y="241.249002" style="fill: #ff4500; stroke: #ff4500; stroke-width: 0.8"/>
      </g>
     </g>
     <g id="text_9">
      <!-- 1.0 -->
      <g style="fill: #ff4500" transform="translate(31.116875 245.048221) scale(0.1 -0.1)">
       <use xlink:href="#DejaVuSans-31"/>
       <use xlink:href="#DejaVuSans-2e" x="63.623047"/>
       <use xlink:href="#DejaVuSans-30" x="95.410156"/>
      </g>
     </g>
    </g>
    <g id="ytick_4">
     <g id="line2d_10">
      <g>
       <use xlink:href="#m585a0edfb2" x="54.02" y="216.027151" style="fill: #ff4500; stroke: #ff4500; stroke-width: 0.8"/>
      </g>
     </g>
     <g id="text_10">
      <!-- 1.5 -->
      <g style="fill: #ff4500" transform="translate(31.116875 219.826369) scale(0.1 -0.1)">
       <use xlink:href="#DejaVuSans-31"/>
       <use xlink:href="#DejaVuSans-2e" x="63.623047"/>
       <use xlink:href="#DejaVuSans-35" x="95.410156"/>
      </g>
     </g>
    </g>
    <g id="ytick_5">
     <g id="line2d_11">
      <g>
       <use xlink:href="#m585a0edfb2" x="54.02" y="190.805299" style="fill: #ff4500; stroke: #ff4500; stroke-width: 0.8"/>
      </g>
     </g>
     <g id="text_11">
      <!-- 2.0 -->
      <g style="fill: #ff4500" transform="translate(31.116875 194.604518) scale(0.1 -0.1)">
       <use xlink:href="#DejaVuSans-32"/>
       <use xlink:href="#DejaVuSans-2e" x="63.623047"/>
       <use xlink:href="#DejaVuSans-30" x="95.410156"/>
      </g>
     </g>
    </g>
    <g id="ytick_6">
     <g id="line2d_12">
      <g>
       <use xlink:href="#m585a0edfb2" x="54.02" y="165.583448" style="fill: #ff4500; stroke: #ff4500; stroke-width: 0.8"/>
      </g>
     </g>
     <g id="text_12">
      <!-- 2.5 -->
      <g style="fill: #ff4500" transform="translate(31.116875 169.382667) scale(0.1 -0.1)">
       <use xlink:href="#DejaVuSans-32"/>
       <use xlink:href="#DejaVuSans-2e" x="63.623047"/>
       <use xlink:href="#DejaVuSans-35" x="95.410156"/>
      </g>
     </g>
    </g>
    <g id="ytick_7">
     <g id="line2d_13">
      <g>
       <use xlink:href="#m585a0edfb2" x="54.02" y="140.361597" style="fill: #ff4500; stroke: #ff4500; stroke-width: 0.8"/>
      </g>
     </g>
     <g id="text_13">
      <!-- 3.0 -->
      <g style="fill: #ff4500" transform="translate(31.116875 144.160815) scale(0.1 -0.1)">
       <defs>
        <path id="DejaVuSans-33" d="M 2597 2516 
Q 3050 2419 3304 2112 
Q 3559 1806 3559 1356 
Q 3559 666 3084 287 
Q 2609 -91 1734 -91 
Q 1441 -91 1130 -33 
Q 819 25 488 141 
L 488 750 
Q 750 597 1062 519 
Q 1375 441 1716 441 
Q 2309 441 2620 675 
Q 2931 909 2931 1356 
Q 2931 1769 2642 2001 
Q 2353 2234 1838 2234 
L 1294 2234 
L 1294 2753 
L 1863 2753 
Q 2328 2753 2575 2939 
Q 2822 3125 2822 3475 
Q 2822 3834 2567 4026 
Q 2313 4219 1838 4219 
Q 1578 4219 1281 4162 
Q 984 4106 628 3988 
L 628 4550 
Q 988 4650 1302 4700 
Q 1616 4750 1894 4750 
Q 2613 4750 3031 4423 
Q 3450 4097 3450 3541 
Q 3450 3153 3228 2886 
Q 3006 2619 2597 2516 
z
" transform="scale(0.015625)"/>
       </defs>
       <use xlink:href="#DejaVuSans-33"/>
       <use xlink:href="#DejaVuSans-2e" x="63.623047"/>
       <use xlink:href="#DejaVuSans-30" x="95.410156"/>
      </g>
     </g>
    </g>
    <g id="ytick_8">
     <g id="line2d_14">
      <g>
       <use xlink:href="#m585a0edfb2" x="54.02" y="115.139745" style="fill: #ff4500; stroke: #ff4500; stroke-width: 0.8"/>
      </g>
     </g>
     <g id="text_14">
      <!-- 3.5 -->
      <g style="fill: #ff4500" transform="translate(31.116875 118.938964) scale(0.1 -0.1)">
       <use xlink:href="#DejaVuSans-33"/>
       <use xlink:href="#DejaVuSans-2e" x="63.623047"/>
       <use xlink:href="#DejaVuSans-35" x="95.410156"/>
      </g>
     </g>
    </g>
    <g id="ytick_9">
     <g id="line2d_15">
      <g>
       <use xlink:href="#m585a0edfb2" x="54.02" y="89.917894" style="fill: #ff4500; stroke: #ff4500; stroke-width: 0.8"/>
      </g>
     </g>
     <g id="text_15">
      <!-- 4.0 -->
      <g style="fill: #ff4500" transform="translate(31.116875 93.717113) scale(0.1 -0.1)">
       <use xlink:href="#DejaVuSans-34"/>
       <use xlink:href="#DejaVuSans-2e" x="63.623047"/>
       <use xlink:href="#DejaVuSans-30" x="95.410156"/>
      </g>
     </g>
    </g>
    <g id="text_16">
     <!-- Output Voltage -->
     <g style="fill: #ff4500" transform="translate(25.037188 231.066615) rotate(-90) scale(0.1 -0.1)">
      <defs>
       <path id="DejaVuSans-4f" d="M 2522 4238 
Q 1834 4238 1429 3725 
Q 1025 3213 1025 2328 
Q 1025 1447 1429 934 
Q 1834 422 2522 422 
Q 3209 422 3611 934 
Q 4013 1447 4013 2328 
Q 4013 3213 3611 3725 
Q 3209 4238 2522 4238 
z
M 2522 4750 
Q 3503 4750 4090 4092 
Q 4678 3434 4678 2328 
Q 4678 1225 4090 567 
Q 3503 -91 2522 -91 
Q 1538 -91 948 565 
Q 359 1222 359 2328 
Q 359 3434 948 4092 
Q 1538 4750 2522 4750 
z
" transform="scale(0.015625)"/>
       <path id="DejaVuSans-75" d="M 544 1381 
L 544 3500 
L 1119 3500 
L 1119 1403 
Q 1119 906 1312 657 
Q 1506 409 1894 409 
Q 2359 409 2629 706 
Q 2900 1003 2900 1516 
L 2900 3500 
L 3475 3500 
L 3475 0 
L 2900 0 
L 2900 538 
Q 2691 219 2414 64 
Q 2138 -91 1772 -91 
Q 1169 -91 856 284 
Q 544 659 544 1381 
z
M 1991 3584 
L 1991 3584 
z
" transform="scale(0.015625)"/>
       <path id="DejaVuSans-74" d="M 1172 4494 
L 1172 3500 
L 2356 3500 
L 2356 3053 
L 1172 3053 
L 1172 1153 
Q 1172 725 1289 603 
Q 1406 481 1766 481 
L 2356 481 
L 2356 0 
L 1766 0 
Q 1100 0 847 248 
Q 594 497 594 1153 
L 594 3053 
L 172 3053 
L 172 3500 
L 594 3500 
L 594 4494 
L 1172 4494 
z
" transform="scale(0.015625)"/>
       <path id="DejaVuSans-70" d="M 1159 525 
L 1159 -1331 
L 581 -1331 
L 581 3500 
L 1159 3500 
L 1159 2969 
Q 1341 3281 1617 3432 
Q 1894 3584 2278 3584 
Q 2916 3584 3314 3078 
Q 3713 2572 3713 1747 
Q 3713 922 3314 415 
Q 2916 -91 2278 -91 
Q 1894 -91 1617 61 
Q 1341 213 1159 525 
z
M 3116 1747 
Q 3116 2381 2855 2742 
Q 2594 3103 2138 3103 
Q 1681 3103 1420 2742 
Q 1159 2381 1159 1747 
Q 1159 1113 1420 752 
Q 1681 391 2138 391 
Q 2594 391 2855 752 
Q 3116 1113 3116 1747 
z
" transform="scale(0.015625)"/>
       <path id="DejaVuSans-20" transform="scale(0.015625)"/>
       <path id="DejaVuSans-56" d="M 1831 0 
L 50 4666 
L 709 4666 
L 2188 738 
L 3669 4666 
L 4325 4666 
L 2547 0 
L 1831 0 
z
" transform="scale(0.015625)"/>
       <path id="DejaVuSans-6f" d="M 1959 3097 
Q 1497 3097 1228 2736 
Q 959 2375 959 1747 
Q 959 1119 1226 758 
Q 1494 397 1959 397 
Q 2419 397 2687 759 
Q 2956 1122 2956 1747 
Q 2956 2369 2687 2733 
Q 2419 3097 1959 3097 
z
M 1959 3584 
Q 2709 3584 3137 3096 
Q 3566 2609 3566 1747 
Q 3566 888 3137 398 
Q 2709 -91 1959 -91 
Q 1206 -91 779 398 
Q 353 888 353 1747 
Q 353 2609 779 3096 
Q 1206 3584 1959 3584 
z
" transform="scale(0.015625)"/>
       <path id="DejaVuSans-6c" d="M 603 4863 
L 1178 4863 
L 1178 0 
L 603 0 
L 603 4863 
z
" transform="scale(0.015625)"/>
       <path id="DejaVuSans-61" d="M 2194 1759 
Q 1497 1759 1228 1600 
Q 959 1441 959 1056 
Q 959 750 1161 570 
Q 1363 391 1709 391 
Q 2188 391 2477 730 
Q 2766 1069 2766 1631 
L 2766 1759 
L 2194 1759 
z
M 3341 1997 
L 3341 0 
L 2766 0 
L 2766 531 
Q 2569 213 2275 61 
Q 1981 -91 1556 -91 
Q 1019 -91 701 211 
Q 384 513 384 1019 
Q 384 1609 779 1909 
Q 1175 2209 1959 2209 
L 2766 2209 
L 2766 2266 
Q 2766 2663 2505 2880 
Q 2244 3097 1772 3097 
Q 1472 3097 1187 3025 
Q 903 2953 641 2809 
L 641 3341 
Q 956 3463 1253 3523 
Q 1550 3584 1831 3584 
Q 2591 3584 2966 3190 
Q 3341 2797 3341 1997 
z
" transform="scale(0.015625)"/>
       <path id="DejaVuSans-67" d="M 2906 1791 
Q 2906 2416 2648 2759 
Q 2391 3103 1925 3103 
Q 1463 3103 1205 2759 
Q 947 2416 947 1791 
Q 947 1169 1205 825 
Q 1463 481 1925 481 
Q 2391 481 2648 825 
Q 2906 1169 2906 1791 
z
M 3481 434 
Q 3481 -459 3084 -895 
Q 2688 -1331 1869 -1331 
Q 1566 -1331 1297 -1286 
Q 1028 -1241 775 -1147 
L 775 -588 
Q 1028 -725 1275 -790 
Q 1522 -856 1778 -856 
Q 2344 -856 2625 -561 
Q 2906 -266 2906 331 
L 2906 616 
Q 2728 306 2450 153 
Q 2172 0 1784 0 
Q 1141 0 747 490 
Q 353 981 353 1791 
Q 353 2603 747 3093 
Q 1141 3584 1784 3584 
Q 2172 3584 2450 3431 
Q 2728 3278 2906 2969 
L 2906 3500 
L 3481 3500 
L 3481 434 
z
" transform="scale(0.015625)"/>
       <path id="DejaVuSans-65" d="M 3597 1894 
L 3597 1613 
L 953 1613 
Q 991 1019 1311 708 
Q 1631 397 2203 397 
Q 2534 397 2845 478 
Q 3156 559 3463 722 
L 3463 178 
Q 3153 47 2828 -22 
Q 2503 -91 2169 -91 
Q 1331 -91 842 396 
Q 353 884 353 1716 
Q 353 2575 817 3079 
Q 1281 3584 2069 3584 
Q 2775 3584 3186 3129 
Q 3597 2675 3597 1894 
z
M 3022 2063 
Q 3016 2534 2758 2815 
Q 2500 3097 2075 3097 
Q 1594 3097 1305 2825 
Q 1016 2553 972 2059 
L 3022 2063 
z
" transform="scale(0.015625)"/>
      </defs>
      <use xlink:href="#DejaVuSans-4f"/>
      <use xlink:href="#DejaVuSans-75" x="78.710938"/>
      <use xlink:href="#DejaVuSans-74" x="142.089844"/>
      <use xlink:href="#DejaVuSans-70" x="181.298828"/>
      <use xlink:href="#DejaVuSans-75" x="244.775391"/>
      <use xlink:href="#DejaVuSans-74" x="308.154297"/>
      <use xlink:href="#DejaVuSans-20" x="347.363281"/>
      <use xlink:href="#DejaVuSans-56" x="379.150391"/>
      <use xlink:href="#DejaVuSans-6f" x="439.808594"/>
      <use xlink:href="#DejaVuSans-6c" x="500.990234"/>
      <use xlink:href="#DejaVuSans-74" x="528.773438"/>
      <use xlink:href="#DejaVuSans-61" x="567.982422"/>
      <use xlink:href="#DejaVuSans-67" x="629.261719"/>
      <use xlink:href="#DejaVuSans-65" x="692.738281"/>
     </g>
    </g>
   </g>
   <g id="line2d_16">
    <path d="M 83.800909 291.674545 
L 84.992145 291.512618 
L 86.183382 290.984639 
L 87.374618 290.061836 
L 88.565855 288.770391 
L 89.757091 287.135079 
L 90.948327 285.179346 
L 92.735182 281.693148 
L 94.522036 277.605492 
L 96.308891 272.980624 
L 98.691364 266.126846 
L 100.478218 261.153029 
L 102.265073 256.773796 
L 104.051927 252.940287 
L 105.838782 249.607135 
L 107.625636 246.732429 
L 109.412491 244.277464 
L 111.199345 242.206499 
L 112.9862 240.486536 
L 114.773055 238.921526 
L 115.964291 237.585804 
L 117.155527 235.948698 
L 118.942382 232.972929 
L 120.729236 229.430599 
L 122.516091 225.381697 
L 124.898564 219.289826 
L 127.281036 212.513412 
L 129.663509 205.552805 
L 131.450364 201.042606 
L 133.237218 197.186082 
L 135.024073 193.927629 
L 136.810927 191.215911 
L 138.597782 189.003541 
L 140.384636 187.246784 
L 142.171491 185.905291 
L 145.149582 184.099293 
L 146.340818 183.010809 
L 147.532055 181.647245 
L 148.723291 180.027397 
L 150.510145 177.155731 
L 152.297 173.803229 
L 154.083855 170.021396 
L 156.466327 164.392367 
L 158.253182 160.180458 
L 160.040036 156.617228 
L 161.826891 153.693664 
L 163.613745 151.353897 
L 164.804982 150.092759 
L 165.996218 149.053815 
L 167.187455 148.22354 
L 168.378691 147.589117 
L 169.569927 147.138405 
L 170.761164 146.859903 
L 171.9524 146.74272 
L 174.930491 146.69501 
L 176.121727 146.282437 
L 177.312964 145.57962 
L 178.5042 144.605824 
L 179.695436 143.379281 
L 181.482291 141.103047 
L 183.269145 138.351079 
L 185.651618 134.075739 
L 187.438473 131.084159 
L 188.629709 129.442606 
L 189.820945 128.063772 
L 191.012182 126.931778 
L 192.203418 126.03158 
L 193.394655 125.348924 
L 194.585891 124.870308 
L 195.777127 124.582941 
L 196.968364 124.47471 
L 198.1596 124.534146 
L 199.350836 124.750387 
L 201.137691 125.346421 
L 202.924545 126.239854 
L 204.115782 126.819067 
L 205.307018 127.108818 
L 206.498255 127.07787 
L 207.689491 126.746931 
L 208.880727 126.135606 
L 210.071964 125.262455 
L 211.2632 124.145039 
L 213.050055 122.047031 
L 216.623764 117.248941 
L 217.815 116.052894 
L 219.006236 115.101195 
L 220.197473 114.378822 
L 221.388709 113.871543 
L 222.579945 113.565877 
L 223.771182 113.449057 
L 224.962418 113.508992 
L 226.153655 113.734236 
L 227.940509 114.358511 
L 229.727364 115.296322 
L 231.514218 116.516225 
L 234.492309 118.702406 
L 235.683545 119.122925 
L 236.874782 119.220492 
L 238.066018 119.015863 
L 239.257255 118.528686 
L 240.448491 117.777563 
L 241.639727 116.7801 
L 242.830964 115.552959 
L 247.000291 110.842877 
L 248.191527 109.957219 
L 249.382764 109.300609 
L 250.574 108.858783 
L 251.765236 108.618228 
L 252.956473 108.56615 
L 254.147709 108.690432 
L 255.338945 108.979603 
L 257.1258 109.698931 
L 258.912655 110.730734 
L 260.699509 112.043504 
L 264.273218 115.001744 
L 265.464455 115.525906 
L 266.655691 115.723217 
L 267.846927 115.614605 
L 269.038164 115.219885 
L 270.2294 114.557818 
L 271.420636 113.646159 
L 272.611873 112.501713 
L 274.398727 110.383115 
L 276.7812 107.276565 
L 277.972436 106.051905 
L 279.163673 105.081181 
L 280.354909 104.348768 
L 281.546145 103.839861 
L 282.737382 103.540438 
L 283.928618 103.437219 
L 285.119855 103.517629 
L 286.311091 103.769763 
L 288.097945 104.445454 
L 289.8848 105.446774 
L 291.671655 106.741015 
L 293.458509 108.130901 
L 294.649745 108.734324 
L 295.840982 109.011041 
L 297.032218 108.98191 
L 298.223455 108.66668 
L 299.414691 108.084049 
L 300.605927 107.251714 
L 301.797164 106.186426 
L 303.584018 104.186144 
L 305.370873 102.138359 
L 306.562109 101.074003 
L 307.753345 100.257099 
L 308.944582 99.672318 
L 310.135818 99.305142 
L 311.327055 99.141818 
L 312.518291 99.169326 
L 313.709527 99.375336 
L 314.900764 99.748174 
L 316.687618 100.596229 
L 318.474473 101.760103 
L 320.261327 103.207745 
L 323.835036 106.442222 
L 325.026273 107.059879 
L 326.217509 107.351209 
L 327.408745 107.337033 
L 328.599982 107.037067 
L 329.791218 106.469977 
L 330.982455 105.65343 
L 332.173691 104.60415 
L 333.960545 102.628231 
L 335.7474 100.605168 
L 336.938636 99.557445 
L 338.129873 98.757274 
L 339.321109 98.189308 
L 340.512345 97.83901 
L 341.703582 97.692612 
L 342.894818 97.737075 
L 344.086055 97.960055 
L 345.277291 98.349865 
L 347.064145 99.22335 
L 348.851 100.412587 
L 350.637855 101.885486 
L 353.615945 104.495267 
L 354.807182 105.085447 
L 355.998418 105.352599 
L 357.189655 105.317352 
L 358.380891 104.999238 
L 359.572127 104.416748 
L 360.763364 103.587384 
L 361.9546 102.527712 
L 366.123927 98.397532 
L 367.315164 97.675495 
L 368.5064 97.181461 
L 369.697636 96.901107 
L 370.888873 96.820867 
L 372.080109 96.927897 
L 373.271345 97.210034 
L 375.0582 97.936551 
L 376.845055 98.995012 
L 378.631909 100.352011 
L 380.418764 101.97681 
L 383.396855 104.807505 
L 384.588091 105.476025 
L 385.779327 105.816162 
L 386.970564 105.848835 
L 388.1618 105.593847 
L 389.353036 105.069952 
L 390.544273 104.294898 
L 391.735509 103.285485 
L 392.926745 102.057611 
L 395.309218 99.396998 
L 396.500455 98.383353 
L 397.691691 97.615971 
L 398.882927 97.079563 
L 400.074164 96.759647 
L 401.2654 96.642506 
L 402.456636 96.715152 
L 403.647873 96.965289 
L 404.839109 97.381274 
L 406.625964 98.292276 
L 408.412818 99.517053 
L 410.199673 101.023645 
L 413.177764 103.685748 
L 414.369 104.295642 
L 415.560236 104.581849 
L 416.751473 104.565024 
L 417.942709 104.264726 
L 419.133945 103.699472 
L 420.325182 102.886787 
L 421.516418 101.843262 
L 423.303273 99.87925 
L 425.090127 97.871759 
L 426.281364 96.836156 
L 427.4726 96.04943 
L 428.663836 95.496139 
L 429.855073 95.161654 
L 431.046309 95.032121 
L 432.237545 95.094422 
L 433.428782 95.336135 
L 434.620018 95.745501 
L 436.406873 96.649715 
L 438.193727 97.871166 
L 439.980582 99.377567 
L 442.958673 102.045591 
L 444.149909 102.659749 
L 445.341145 102.951211 
L 446.532382 102.940566 
L 447.723618 102.647306 
L 448.914855 102.089888 
L 450.106091 101.285781 
L 451.297327 100.251518 
L 453.6798 97.94481 
L 454.871036 97.093233 
L 456.062273 96.478464 
L 457.253509 96.085707 
L 458.444745 95.900945 
L 459.635982 95.910907 
L 460.827218 96.103024 
L 462.018455 96.465399 
L 463.805309 97.303726 
L 465.592164 98.464439 
L 467.379018 99.914867 
L 469.165873 101.624953 
L 472.739582 105.318703 
L 473.930818 106.072166 
L 475.122055 106.491307 
L 476.313291 106.597364 
L 477.504527 106.410448 
L 478.695764 105.949602 
L 479.887 105.232849 
L 481.078236 104.277252 
L 483.460709 102.103322 
L 484.651945 101.307261 
L 485.843182 100.741167 
L 487.034418 100.390644 
L 488.225655 100.242059 
L 489.416891 100.282504 
L 490.608127 100.499754 
L 491.799364 100.882237 
L 493.586218 101.741974 
L 495.373073 102.914456 
L 497.159927 104.367909 
L 498.946782 106.073102 
L 502.520491 109.73614 
L 503.711727 110.474015 
L 504.902964 110.875165 
L 506.0942 110.960998 
L 507.285436 110.751785 
L 508.476673 110.266718 
L 509.667909 109.523966 
L 510.859145 108.540723 
L 513.241618 106.30699 
L 514.432855 105.479093 
L 515.624091 104.879985 
L 516.815327 104.495375 
L 518.006564 104.311724 
L 519.1978 104.316213 
L 520.389036 104.496703 
L 521.580273 104.841704 
L 523.367127 105.644026 
L 525.153982 106.757871 
L 526.940836 108.151682 
L 528.727691 109.796427 
L 532.3014 113.336845 
L 533.492636 114.033516 
L 534.683873 114.393364 
L 535.875109 114.437836 
L 537.066345 114.187237 
L 538.257582 113.660794 
L 539.448818 112.876707 
L 540.640055 111.852199 
L 543.022527 109.536266 
L 544.213764 108.667475 
L 545.405 108.027643 
L 546.596236 107.602497 
L 547.787473 107.37852 
L 548.978709 107.34291 
L 550.169945 107.483544 
L 551.361182 107.788947 
L 553.148036 108.532388 
L 554.934891 109.588006 
L 556.721745 110.924284 
L 558.5086 112.51222 
L 562.082309 115.941327 
L 563.273545 116.60159 
L 564.464782 116.925389 
L 565.656018 116.934177 
L 566.847255 116.648264 
L 568.038491 116.086879 
L 569.229727 115.268225 
L 570.420964 114.209529 
L 574.590291 110.014421 
L 575.781527 109.256882 
L 576.972764 108.72067 
L 578.164 108.391925 
L 579.355236 108.257519 
L 580.546473 108.305023 
L 581.737709 108.522666 
L 583.524564 109.143931 
L 585.311418 110.087955 
L 587.098273 111.322401 
L 588.885127 112.817516 
L 591.2676 115.001348 
L 592.458836 115.747505 
L 593.650073 116.152319 
L 594.841309 116.237495 
L 596.032545 116.023582 
L 597.223782 115.530037 
L 598.415018 114.775279 
L 599.606255 113.776739 
L 600.797491 112.550915 
L 603.179964 109.869721 
L 604.3712 108.834971 
L 605.562436 108.039755 
L 606.753673 107.469238 
L 607.944909 107.10937 
L 609.136145 106.946841 
L 610.327382 106.96905 
L 611.518618 107.164064 
L 612.709855 107.520587 
L 614.496709 108.334965 
L 616.283564 109.455108 
L 618.070418 110.849997 
L 621.644127 113.955443 
L 622.835364 114.524162 
L 624.0266 114.763931 
L 625.217836 114.695781 
L 626.409073 114.339625 
L 627.600309 113.714316 
L 628.791545 112.837698 
L 629.982782 111.726658 
L 634.152109 107.388373 
L 635.343345 106.600014 
L 636.534582 106.037027 
L 637.725818 105.685311 
L 638.917055 105.531511 
L 640.108291 105.562983 
L 641.299527 105.76775 
L 642.490764 106.134477 
L 644.277618 106.96493 
L 646.064473 108.101965 
L 647.851327 109.514456 
L 651.425036 112.656869 
L 652.616273 113.23833 
L 653.807509 113.491013 
L 654.998745 113.435931 
L 656.189982 113.092975 
L 657.381218 112.48098 
L 658.572455 111.617771 
L 659.763691 110.52022 
L 662.146164 108.075429 
L 663.3374 107.149865 
L 664.528636 106.458097 
L 665.719873 105.98558 
L 666.911109 105.718539 
L 668.102345 105.643928 
L 669.293582 105.749392 
L 670.484818 106.023236 
L 672.271673 106.725655 
L 674.058527 107.747251 
L 675.845382 109.055899 
L 677.632236 110.622036 
L 679.419091 112.418473 
L 679.419091 112.418473 
" clip-path="url(#p075efffe99)" style="fill: none; stroke: #ff4500; stroke-width: 1.5; stroke-linecap: square"/>
   </g>
   <g id="patch_3">
    <path d="M 54.02 301.506667 
L 54.02 85.2 
" style="fill: none; stroke: #000000; stroke-width: 0.8; stroke-linejoin: miter; stroke-linecap: square"/>
   </g>
   <g id="patch_4">
    <path d="M 709.2 301.506667 
L 709.2 85.2 
" style="fill: none; stroke: #000000; stroke-width: 0.8; stroke-linejoin: miter; stroke-linecap: square"/>
   </g>
   <g id="patch_5">
    <path d="M 54.02 301.506667 
L 709.2 301.506667 
" style="fill: none; stroke: #000000; stroke-width: 0.8; stroke-linejoin: miter; stroke-linecap: square"/>
   </g>
   <g id="patch_6">
    <path d="M 54.02 85.2 
L 709.2 85.2 
" style="fill: none; stroke: #000000; stroke-width: 0.8; stroke-linejoin: miter; stroke-linecap: square"/>
   </g>
   <g id="text_17">
    <!-- Output Voltage -->
    <g transform="translate(336.354062 79.2) scale(0.12 -0.12)">
     <use xlink:href="#DejaVuSans-4f"/>
     <use xlink:href="#DejaVuSans-75" x="78.710938"/>
     <use xlink:href="#DejaVuSans-74" x="142.089844"/>
     <use xlink:href="#DejaVuSans-70" x="181.298828"/>
     <use xlink:href="#DejaVuSans-75" x="244.775391"/>
     <use xlink:href="#DejaVuSans-74" x="308.154297"/>
     <use xlink:href="#DejaVuSans-20" x="347.363281"/>
     <use xlink:href="#DejaVuSans-56" x="379.150391"/>
     <use xlink:href="#DejaVuSans-6f" x="439.808594"/>
     <use xlink:href="#DejaVuSans-6c" x="500.990234"/>
     <use xlink:href="#DejaVuSans-74" x="528.773438"/>
     <use xlink:href="#DejaVuSans-61" x="567.982422"/>
     <use xlink:href="#DejaVuSans-67" x="629.261719"/>
     <use xlink:href="#DejaVuSans-65" x="692.738281"/>
    </g>
   </g>
  </g>
  <g id="axes_2">
   <g id="patch_7">
    <path d="M 54.02 561.773333 
L 709.2 561.773333 
L 709.2 345.466667 
L 54.02 345.466667 
z
" style="fill: #ffffff"/>
   </g>
   <g id="matplotlib.axis_3">
    <g id="xtick_7">
     <g id="line2d_17">
      <g>
       <use xlink:href="#mc26085917a" x="83.800909" y="561.773333" style="stroke: #000000; stroke-width: 0.8"/>
      </g>
     </g>
     <g id="text_18">
      <!-- 0.000 -->
      <g transform="translate(69.486847 576.371771) scale(0.1 -0.1)">
       <use xlink:href="#DejaVuSans-30"/>
       <use xlink:href="#DejaVuSans-2e" x="63.623047"/>
       <use xlink:href="#DejaVuSans-30" x="95.410156"/>
       <use xlink:href="#DejaVuSans-30" x="159.033203"/>
       <use xlink:href="#DejaVuSans-30" x="222.65625"/>
      </g>
     </g>
    </g>
    <g id="xtick_8">
     <g id="line2d_18">
      <g>
       <use xlink:href="#mc26085917a" x="202.924545" y="561.773333" style="stroke: #000000; stroke-width: 0.8"/>
      </g>
     </g>
     <g id="text_19">
      <!-- 0.002 -->
      <g transform="translate(188.610483 576.371771) scale(0.1 -0.1)">
       <use xlink:href="#DejaVuSans-30"/>
       <use xlink:href="#DejaVuSans-2e" x="63.623047"/>
       <use xlink:href="#DejaVuSans-30" x="95.410156"/>
       <use xlink:href="#DejaVuSans-30" x="159.033203"/>
       <use xlink:href="#DejaVuSans-32" x="222.65625"/>
      </g>
     </g>
    </g>
    <g id="xtick_9">
     <g id="line2d_19">
      <g>
       <use xlink:href="#mc26085917a" x="322.048182" y="561.773333" style="stroke: #000000; stroke-width: 0.8"/>
      </g>
     </g>
     <g id="text_20">
      <!-- 0.004 -->
      <g transform="translate(307.734119 576.371771) scale(0.1 -0.1)">
       <use xlink:href="#DejaVuSans-30"/>
       <use xlink:href="#DejaVuSans-2e" x="63.623047"/>
       <use xlink:href="#DejaVuSans-30" x="95.410156"/>
       <use xlink:href="#DejaVuSans-30" x="159.033203"/>
       <use xlink:href="#DejaVuSans-34" x="222.65625"/>
      </g>
     </g>
    </g>
    <g id="xtick_10">
     <g id="line2d_20">
      <g>
       <use xlink:href="#mc26085917a" x="441.171818" y="561.773333" style="stroke: #000000; stroke-width: 0.8"/>
      </g>
     </g>
     <g id="text_21">
      <!-- 0.006 -->
      <g transform="translate(426.857756 576.371771) scale(0.1 -0.1)">
       <use xlink:href="#DejaVuSans-30"/>
       <use xlink:href="#DejaVuSans-2e" x="63.623047"/>
       <use xlink:href="#DejaVuSans-30" x="95.410156"/>
       <use xlink:href="#DejaVuSans-30" x="159.033203"/>
       <use xlink:href="#DejaVuSans-36" x="222.65625"/>
      </g>
     </g>
    </g>
    <g id="xtick_11">
     <g id="line2d_21">
      <g>
       <use xlink:href="#mc26085917a" x="560.295455" y="561.773333" style="stroke: #000000; stroke-width: 0.8"/>
      </g>
     </g>
     <g id="text_22">
      <!-- 0.008 -->
      <g transform="translate(545.981392 576.371771) scale(0.1 -0.1)">
       <use xlink:href="#DejaVuSans-30"/>
       <use xlink:href="#DejaVuSans-2e" x="63.623047"/>
       <use xlink:href="#DejaVuSans-30" x="95.410156"/>
       <use xlink:href="#DejaVuSans-30" x="159.033203"/>
       <use xlink:href="#DejaVuSans-38" x="222.65625"/>
      </g>
     </g>
    </g>
    <g id="xtick_12">
     <g id="line2d_22">
      <g>
       <use xlink:href="#mc26085917a" x="679.419091" y="561.773333" style="stroke: #000000; stroke-width: 0.8"/>
      </g>
     </g>
     <g id="text_23">
      <!-- 0.010 -->
      <g transform="translate(665.105028 576.371771) scale(0.1 -0.1)">
       <use xlink:href="#DejaVuSans-30"/>
       <use xlink:href="#DejaVuSans-2e" x="63.623047"/>
       <use xlink:href="#DejaVuSans-30" x="95.410156"/>
       <use xlink:href="#DejaVuSans-31" x="159.033203"/>
       <use xlink:href="#DejaVuSans-30" x="222.65625"/>
      </g>
     </g>
    </g>
   </g>
   <g id="matplotlib.axis_4">
    <g id="ytick_10">
     <g id="line2d_23">
      <defs>
       <path id="ma13183d81c" d="M 0 0 
L -3.5 0 
" style="stroke: #4682b4; stroke-width: 0.8"/>
      </defs>
      <g>
       <use xlink:href="#ma13183d81c" x="54.02" y="543.639715" style="fill: #4682b4; stroke: #4682b4; stroke-width: 0.8"/>
      </g>
     </g>
     <g id="text_24">
      <!-- 0.34 -->
      <g style="fill: #4682b4" transform="translate(24.754375 547.438934) scale(0.1 -0.1)">
       <use xlink:href="#DejaVuSans-30"/>
       <use xlink:href="#DejaVuSans-2e" x="63.623047"/>
       <use xlink:href="#DejaVuSans-33" x="95.410156"/>
       <use xlink:href="#DejaVuSans-34" x="159.033203"/>
      </g>
     </g>
    </g>
    <g id="ytick_11">
     <g id="line2d_24">
      <g>
       <use xlink:href="#ma13183d81c" x="54.02" y="517.102141" style="fill: #4682b4; stroke: #4682b4; stroke-width: 0.8"/>
      </g>
     </g>
     <g id="text_25">
      <!-- 0.36 -->
      <g style="fill: #4682b4" transform="translate(24.754375 520.90136) scale(0.1 -0.1)">
       <use xlink:href="#DejaVuSans-30"/>
       <use xlink:href="#DejaVuSans-2e" x="63.623047"/>
       <use xlink:href="#DejaVuSans-33" x="95.410156"/>
       <use xlink:href="#DejaVuSans-36" x="159.033203"/>
      </g>
     </g>
    </g>
    <g id="ytick_12">
     <g id="line2d_25">
      <g>
       <use xlink:href="#ma13183d81c" x="54.02" y="490.564567" style="fill: #4682b4; stroke: #4682b4; stroke-width: 0.8"/>
      </g>
     </g>
     <g id="text_26">
      <!-- 0.38 -->
      <g style="fill: #4682b4" transform="translate(24.754375 494.363786) scale(0.1 -0.1)">
       <use xlink:href="#DejaVuSans-30"/>
       <use xlink:href="#DejaVuSans-2e" x="63.623047"/>
       <use xlink:href="#DejaVuSans-33" x="95.410156"/>
       <use xlink:href="#DejaVuSans-38" x="159.033203"/>
      </g>
     </g>
    </g>
    <g id="ytick_13">
     <g id="line2d_26">
      <g>
       <use xlink:href="#ma13183d81c" x="54.02" y="464.026993" style="fill: #4682b4; stroke: #4682b4; stroke-width: 0.8"/>
      </g>
     </g>
     <g id="text_27">
      <!-- 0.40 -->
      <g style="fill: #4682b4" transform="translate(24.754375 467.826212) scale(0.1 -0.1)">
       <use xlink:href="#DejaVuSans-30"/>
       <use xlink:href="#DejaVuSans-2e" x="63.623047"/>
       <use xlink:href="#DejaVuSans-34" x="95.410156"/>
       <use xlink:href="#DejaVuSans-30" x="159.033203"/>
      </g>
     </g>
    </g>
    <g id="ytick_14">
     <g id="line2d_27">
      <g>
       <use xlink:href="#ma13183d81c" x="54.02" y="437.48942" style="fill: #4682b4; stroke: #4682b4; stroke-width: 0.8"/>
      </g>
     </g>
     <g id="text_28">
      <!-- 0.42 -->
      <g style="fill: #4682b4" transform="translate(24.754375 441.288638) scale(0.1 -0.1)">
       <use xlink:href="#DejaVuSans-30"/>
       <use xlink:href="#DejaVuSans-2e" x="63.623047"/>
       <use xlink:href="#DejaVuSans-34" x="95.410156"/>
       <use xlink:href="#DejaVuSans-32" x="159.033203"/>
      </g>
     </g>
    </g>
    <g id="ytick_15">
     <g id="line2d_28">
      <g>
       <use xlink:href="#ma13183d81c" x="54.02" y="410.951846" style="fill: #4682b4; stroke: #4682b4; stroke-width: 0.8"/>
      </g>
     </g>
     <g id="text_29">
      <!-- 0.44 -->
      <g style="fill: #4682b4" transform="translate(24.754375 414.751064) scale(0.1 -0.1)">
       <use xlink:href="#DejaVuSans-30"/>
       <use xlink:href="#DejaVuSans-2e" x="63.623047"/>
       <use xlink:href="#DejaVuSans-34" x="95.410156"/>
       <use xlink:href="#DejaVuSans-34" x="159.033203"/>
      </g>
     </g>
    </g>
    <g id="ytick_16">
     <g id="line2d_29">
      <g>
       <use xlink:href="#ma13183d81c" x="54.02" y="384.414272" style="fill: #4682b4; stroke: #4682b4; stroke-width: 0.8"/>
      </g>
     </g>
     <g id="text_30">
      <!-- 0.46 -->
      <g style="fill: #4682b4" transform="translate(24.754375 388.21349) scale(0.1 -0.1)">
       <use xlink:href="#DejaVuSans-30"/>
       <use xlink:href="#DejaVuSans-2e" x="63.623047"/>
       <use xlink:href="#DejaVuSans-34" x="95.410156"/>
       <use xlink:href="#DejaVuSans-36" x="159.033203"/>
      </g>
     </g>
    </g>
    <g id="ytick_17">
     <g id="line2d_30">
      <g>
       <use xlink:href="#ma13183d81c" x="54.02" y="357.876698" style="fill: #4682b4; stroke: #4682b4; stroke-width: 0.8"/>
      </g>
     </g>
     <g id="text_31">
      <!-- 0.48 -->
      <g style="fill: #4682b4" transform="translate(24.754375 361.675916) scale(0.1 -0.1)">
       <use xlink:href="#DejaVuSans-30"/>
       <use xlink:href="#DejaVuSans-2e" x="63.623047"/>
       <use xlink:href="#DejaVuSans-34" x="95.410156"/>
       <use xlink:href="#DejaVuSans-38" x="159.033203"/>
      </g>
     </g>
    </g>
    <g id="text_32">
     <!-- Duty Cycle -->
     <g style="fill: #4682b4" transform="translate(18.674688 480.812969) rotate(-90) scale(0.1 -0.1)">
      <defs>
       <path id="DejaVuSans-44" d="M 1259 4147 
L 1259 519 
L 2022 519 
Q 2988 519 3436 956 
Q 3884 1394 3884 2338 
Q 3884 3275 3436 3711 
Q 2988 4147 2022 4147 
L 1259 4147 
z
M 628 4666 
L 1925 4666 
Q 3281 4666 3915 4102 
Q 4550 3538 4550 2338 
Q 4550 1131 3912 565 
Q 3275 0 1925 0 
L 628 0 
L 628 4666 
z
" transform="scale(0.015625)"/>
       <path id="DejaVuSans-79" d="M 2059 -325 
Q 1816 -950 1584 -1140 
Q 1353 -1331 966 -1331 
L 506 -1331 
L 506 -850 
L 844 -850 
Q 1081 -850 1212 -737 
Q 1344 -625 1503 -206 
L 1606 56 
L 191 3500 
L 800 3500 
L 1894 763 
L 2988 3500 
L 3597 3500 
L 2059 -325 
z
" transform="scale(0.015625)"/>
       <path id="DejaVuSans-43" d="M 4122 4306 
L 4122 3641 
Q 3803 3938 3442 4084 
Q 3081 4231 2675 4231 
Q 1875 4231 1450 3742 
Q 1025 3253 1025 2328 
Q 1025 1406 1450 917 
Q 1875 428 2675 428 
Q 3081 428 3442 575 
Q 3803 722 4122 1019 
L 4122 359 
Q 3791 134 3420 21 
Q 3050 -91 2638 -91 
Q 1578 -91 968 557 
Q 359 1206 359 2328 
Q 359 3453 968 4101 
Q 1578 4750 2638 4750 
Q 3056 4750 3426 4639 
Q 3797 4528 4122 4306 
z
" transform="scale(0.015625)"/>
       <path id="DejaVuSans-63" d="M 3122 3366 
L 3122 2828 
Q 2878 2963 2633 3030 
Q 2388 3097 2138 3097 
Q 1578 3097 1268 2742 
Q 959 2388 959 1747 
Q 959 1106 1268 751 
Q 1578 397 2138 397 
Q 2388 397 2633 464 
Q 2878 531 3122 666 
L 3122 134 
Q 2881 22 2623 -34 
Q 2366 -91 2075 -91 
Q 1284 -91 818 406 
Q 353 903 353 1747 
Q 353 2603 823 3093 
Q 1294 3584 2113 3584 
Q 2378 3584 2631 3529 
Q 2884 3475 3122 3366 
z
" transform="scale(0.015625)"/>
      </defs>
      <use xlink:href="#DejaVuSans-44"/>
      <use xlink:href="#DejaVuSans-75" x="77.001953"/>
      <use xlink:href="#DejaVuSans-74" x="140.380859"/>
      <use xlink:href="#DejaVuSans-79" x="179.589844"/>
      <use xlink:href="#DejaVuSans-20" x="238.769531"/>
      <use xlink:href="#DejaVuSans-43" x="270.556641"/>
      <use xlink:href="#DejaVuSans-79" x="340.380859"/>
      <use xlink:href="#DejaVuSans-63" x="399.560547"/>
      <use xlink:href="#DejaVuSans-6c" x="454.541016"/>
      <use xlink:href="#DejaVuSans-65" x="482.324219"/>
     </g>
    </g>
   </g>
   <g id="line2d_31">
    <path d="M 83.800909 366.39717 
L 84.396527 359.966782 
L 84.992145 359.8216 
L 85.587764 359.217535 
L 86.183382 366.093147 
L 87.970236 374.136145 
L 88.565855 373.386014 
L 89.161473 374.874246 
L 89.757091 375.709221 
L 90.352709 372.730533 
L 90.948327 376.928867 
L 91.543945 375.868872 
L 92.139564 373.609298 
L 92.735182 375.308227 
L 93.3308 374.468746 
L 93.926418 370.44153 
L 94.522036 372.23006 
L 95.117655 372.136378 
L 95.713273 369.59064 
L 96.308891 372.446282 
L 96.904509 365.628313 
L 97.500127 363.495785 
L 98.095745 365.404789 
L 98.691364 358.619972 
L 99.286982 363.326623 
L 99.8826 365.10081 
L 100.478218 367.660534 
L 101.073836 367.585669 
L 101.669455 366.277516 
L 102.265073 372.98627 
L 103.456309 382.813885 
L 104.051927 379.667551 
L 104.647545 379.703305 
L 105.838782 370.745156 
L 106.4344 366.32083 
L 107.030018 366.439464 
L 107.625636 355.298788 
L 108.221255 357.573902 
L 108.816873 356.808839 
L 109.412491 362.164453 
L 110.008109 362.428546 
L 110.603727 362.113877 
L 111.199345 364.930514 
L 111.794964 364.604653 
L 112.390582 364.810866 
L 112.9862 367.024693 
L 113.581818 371.22789 
L 114.177436 371.126586 
L 114.773055 366.308533 
L 115.368673 366.667362 
L 115.964291 364.420741 
L 116.559909 360.604112 
L 117.155527 362.679524 
L 117.751145 365.809378 
L 118.346764 365.346364 
L 118.942382 366.308552 
L 119.538 371.413829 
L 120.133618 366.851606 
L 120.729236 375.09995 
L 121.324855 374.963103 
L 121.920473 376.190232 
L 122.516091 375.339401 
L 123.111709 378.87475 
L 123.707327 380.14617 
L 124.302945 379.754911 
L 124.898564 371.448891 
L 125.494182 368.613241 
L 126.0898 373.763709 
L 126.685418 376.410183 
L 127.281036 384.331255 
L 127.876655 389.296989 
L 128.472273 396.022675 
L 129.067891 397.096713 
L 129.663509 397.006314 
L 130.854745 404.117853 
L 131.450364 405.974684 
L 132.045982 404.14674 
L 132.6416 408.828373 
L 133.237218 408.458103 
L 133.832836 410.413583 
L 134.428455 413.9825 
L 135.024073 415.694098 
L 135.619691 416.745548 
L 136.215309 416.503885 
L 136.810927 408.28238 
L 137.406545 413.62159 
L 138.002164 408.193469 
L 138.597782 413.673116 
L 139.1934 417.938461 
L 139.789018 418.541066 
L 140.384636 410.18877 
L 140.980255 404.146018 
L 141.575873 395.987642 
L 142.171491 389.828292 
L 143.362727 396.315231 
L 143.958345 397.211997 
L 144.553964 401.295451 
L 145.149582 398.980331 
L 145.7452 406.070614 
L 146.340818 405.624575 
L 146.936436 404.032639 
L 147.532055 404.739277 
L 148.127673 404.684701 
L 148.723291 404.178485 
L 149.318909 407.31924 
L 149.914527 409.717028 
L 150.510145 404.682448 
L 151.105764 406.632284 
L 151.701382 407.642592 
L 152.297 411.830172 
L 152.892618 413.898316 
L 153.488236 407.749242 
L 154.083855 407.606092 
L 154.679473 409.470067 
L 155.275091 411.916486 
L 155.870709 412.693342 
L 156.466327 417.980165 
L 157.061945 408.859257 
L 157.657564 410.920292 
L 158.253182 409.036494 
L 158.8488 411.64895 
L 159.444418 412.2505 
L 160.040036 414.273581 
L 160.635655 423.954109 
L 161.231273 426.798655 
L 161.826891 430.423023 
L 162.422509 434.808696 
L 163.018127 426.324625 
L 163.613745 428.599214 
L 164.209364 430.419632 
L 164.804982 425.881146 
L 165.4006 430.178315 
L 166.591836 431.42912 
L 167.187455 438.387069 
L 167.783073 439.706157 
L 168.378691 441.427502 
L 168.974309 443.673392 
L 169.569927 440.665378 
L 170.165545 444.868596 
L 170.761164 447.709155 
L 171.356782 442.058373 
L 171.9524 444.377043 
L 172.548018 444.547814 
L 173.143636 452.318964 
L 173.739255 449.820406 
L 174.334873 449.502098 
L 174.930491 451.861947 
L 175.526109 456.491967 
L 176.121727 457.811673 
L 176.717345 458.810555 
L 177.312964 461.197415 
L 177.908582 456.153537 
L 178.5042 457.507904 
L 179.099818 457.805833 
L 179.695436 458.697465 
L 180.291055 458.37846 
L 180.886673 463.811192 
L 181.482291 466.473523 
L 182.077909 476.916447 
L 182.673527 479.460989 
L 183.269145 480.995678 
L 183.864764 486.544188 
L 184.460382 482.303004 
L 185.056 481.165189 
L 185.651618 487.034194 
L 186.247236 489.382873 
L 186.842855 493.710072 
L 187.438473 494.080189 
L 188.034091 497.14793 
L 188.629709 496.744652 
L 189.225327 491.499169 
L 189.820945 499.208999 
L 190.416564 493.971224 
L 191.012182 493.866288 
L 191.6078 493.107718 
L 192.203418 492.145775 
L 192.799036 485.788138 
L 193.394655 484.661997 
L 193.990273 480.99251 
L 194.585891 479.238221 
L 195.181509 472.20511 
L 195.777127 473.228129 
L 196.372745 479.060911 
L 196.968364 487.168641 
L 197.563982 483.73677 
L 198.1596 482.490874 
L 198.755218 479.622201 
L 199.350836 484.125534 
L 199.946455 492.081938 
L 200.542073 494.418909 
L 201.137691 490.79248 
L 202.328927 494.913486 
L 202.924545 488.006521 
L 203.520164 488.884643 
L 204.115782 488.728655 
L 204.7114 486.728838 
L 205.307018 490.878305 
L 205.902636 490.246151 
L 206.498255 488.497758 
L 207.093873 491.960573 
L 207.689491 497.100771 
L 208.285109 494.061353 
L 208.880727 496.337184 
L 209.476345 492.782756 
L 210.071964 493.007624 
L 210.667582 489.924931 
L 211.2632 492.301443 
L 211.858818 494.118588 
L 212.454436 494.597734 
L 213.050055 494.788215 
L 215.432527 512.319204 
L 216.028145 510.016418 
L 216.623764 508.190039 
L 217.219382 509.883664 
L 217.815 506.430809 
L 218.410618 504.632335 
L 219.006236 505.062922 
L 219.601855 503.200535 
L 220.197473 507.652831 
L 220.793091 515.00336 
L 221.388709 516.961768 
L 221.984327 511.336985 
L 222.579945 510.795048 
L 223.175564 514.079536 
L 223.771182 514.12871 
L 224.3668 509.3108 
L 224.962418 513.347603 
L 225.558036 516.47491 
L 226.153655 513.465802 
L 226.749273 515.422434 
L 227.344891 512.026035 
L 227.940509 509.68435 
L 228.536127 509.681824 
L 229.131745 505.508741 
L 229.727364 498.8029 
L 230.322982 498.287723 
L 230.9186 504.809222 
L 231.514218 507.219027 
L 232.109836 510.330356 
L 232.705455 495.744109 
L 233.301073 496.907081 
L 233.896691 498.900349 
L 235.087927 505.426551 
L 235.683545 496.744619 
L 236.279164 495.281436 
L 236.874782 497.121973 
L 237.4704 499.963469 
L 238.661636 497.858946 
L 239.257255 497.307957 
L 239.852873 502.193645 
L 240.448491 505.860402 
L 241.044109 500.963961 
L 241.639727 499.296953 
L 242.235345 506.629255 
L 242.830964 504.895501 
L 243.426582 501.585812 
L 244.0222 502.030711 
L 244.617818 502.172099 
L 245.213436 498.421166 
L 245.809055 489.673816 
L 246.404673 487.342036 
L 247.000291 487.774688 
L 247.595909 488.412123 
L 248.191527 488.662394 
L 249.382764 481.151854 
L 249.978382 485.258256 
L 251.169618 481.330208 
L 251.765236 481.041489 
L 252.360855 482.932428 
L 252.956473 486.693045 
L 253.552091 484.617137 
L 254.147709 480.544486 
L 254.743327 473.390751 
L 255.338945 472.737573 
L 255.934564 470.47593 
L 256.530182 467.482514 
L 257.1258 465.422408 
L 257.721418 461.534121 
L 258.317036 459.921483 
L 258.912655 457.972685 
L 259.508273 457.52977 
L 260.103891 460.421212 
L 261.295127 467.718342 
L 261.890745 465.828732 
L 262.486364 458.858045 
L 263.081982 460.027263 
L 263.6776 455.360333 
L 264.273218 452.260583 
L 264.868836 449.795984 
L 265.464455 443.940208 
L 266.060073 441.843504 
L 266.655691 441.806695 
L 267.251309 442.581853 
L 267.846927 447.352863 
L 268.442545 441.734036 
L 269.038164 447.262087 
L 269.633782 445.642905 
L 270.825018 446.249454 
L 271.420636 442.018475 
L 272.016255 443.090734 
L 272.611873 446.444448 
L 273.207491 439.983696 
L 273.803109 445.481436 
L 274.398727 443.73202 
L 274.994345 452.110102 
L 275.589964 455.258237 
L 276.185582 454.696243 
L 276.7812 456.825883 
L 277.972436 456.750061 
L 278.568055 464.206398 
L 279.163673 458.463154 
L 279.759291 462.041196 
L 280.354909 464.257442 
L 280.950527 465.49143 
L 281.546145 467.792221 
L 282.141764 480.467454 
L 282.737382 478.210833 
L 283.333 478.394923 
L 284.524236 483.42871 
L 285.119855 488.907043 
L 285.715473 486.177335 
L 286.311091 484.358124 
L 286.906709 483.707202 
L 287.502327 487.253232 
L 288.097945 477.649137 
L 288.693564 472.722878 
L 289.289182 469.304751 
L 289.8848 469.617601 
L 290.480418 466.154218 
L 291.076036 469.659948 
L 291.671655 474.443511 
L 292.267273 473.413608 
L 292.862891 471.850475 
L 293.458509 475.429772 
L 294.054127 466.79153 
L 294.649745 469.823078 
L 295.245364 468.354331 
L 295.840982 474.393286 
L 296.4366 468.898987 
L 297.032218 473.691802 
L 297.627836 469.70108 
L 298.223455 468.339712 
L 298.819073 471.97839 
L 299.414691 474.131535 
L 300.010309 475.261367 
L 300.605927 487.297261 
L 301.201545 491.577971 
L 301.797164 490.986369 
L 302.9884 498.296713 
L 303.584018 495.775754 
L 304.179636 496.93724 
L 304.775255 496.510339 
L 305.370873 499.594192 
L 305.966491 504.177811 
L 307.157727 501.240973 
L 308.348964 492.979961 
L 308.944582 493.697724 
L 309.5402 494.188973 
L 310.135818 487.02393 
L 310.731436 491.124523 
L 311.327055 489.602749 
L 311.922673 489.548835 
L 312.518291 488.999584 
L 313.113909 488.615323 
L 313.709527 487.647969 
L 314.305145 495.372425 
L 314.900764 490.40154 
L 315.496382 486.947402 
L 316.092 488.287346 
L 316.687618 484.901788 
L 317.283236 487.599615 
L 317.878855 492.23334 
L 318.474473 485.103171 
L 319.070091 484.515369 
L 319.665709 484.357331 
L 320.261327 487.996985 
L 320.856945 490.47823 
L 321.452564 489.241276 
L 322.048182 487.037357 
L 322.6438 477.863818 
L 323.239418 477.139425 
L 325.026273 494.311454 
L 325.621891 491.071406 
L 326.217509 489.241472 
L 326.813127 490.509106 
L 327.408745 489.166746 
L 328.004364 487.401611 
L 328.599982 493.231302 
L 329.1956 491.11587 
L 329.791218 495.469304 
L 330.386836 491.803474 
L 330.982455 491.416079 
L 331.578073 490.868999 
L 332.173691 485.975907 
L 332.769309 485.315354 
L 333.364927 478.898103 
L 333.960545 484.53787 
L 334.556164 484.930489 
L 335.151782 486.346693 
L 335.7474 489.216041 
L 336.343018 485.174684 
L 336.938636 485.346615 
L 337.534255 481.352036 
L 338.129873 482.371693 
L 338.725491 488.214195 
L 339.321109 487.255048 
L 339.916727 486.957049 
L 340.512345 483.870765 
L 341.107964 482.235611 
L 341.703582 486.700913 
L 342.2992 486.909636 
L 342.894818 480.568535 
L 343.490436 477.912495 
L 344.086055 486.010737 
L 344.681673 481.114567 
L 345.277291 483.693624 
L 345.872909 489.156332 
L 346.468527 482.756493 
L 347.064145 483.338226 
L 347.659764 480.966182 
L 348.255382 482.234551 
L 348.851 492.384127 
L 349.446618 484.377034 
L 350.042236 485.274117 
L 350.637855 483.398653 
L 351.233473 483.219343 
L 351.829091 483.896578 
L 352.424709 482.089913 
L 353.020327 483.288073 
L 353.615945 474.969449 
L 354.211564 469.445798 
L 354.807182 470.890861 
L 355.4028 470.591652 
L 355.998418 472.926736 
L 356.594036 480.031613 
L 357.189655 477.759557 
L 357.785273 476.608893 
L 358.380891 479.147064 
L 359.572127 477.559846 
L 360.167745 486.258579 
L 360.763364 491.923414 
L 361.358982 492.972166 
L 361.9546 497.071844 
L 363.145836 498.491272 
L 363.741455 501.620511 
L 364.337073 502.04056 
L 364.932691 500.738844 
L 365.528309 502.418498 
L 366.123927 502.273431 
L 366.719545 502.866532 
L 367.315164 501.363729 
L 367.910782 500.916949 
L 368.5064 504.197759 
L 369.102018 508.681522 
L 369.697636 510.262602 
L 370.293255 510.824225 
L 370.888873 506.903162 
L 371.484491 508.981332 
L 372.080109 496.456747 
L 372.675727 495.549346 
L 373.271345 496.845733 
L 373.866964 496.058635 
L 374.462582 494.970684 
L 375.0582 490.287143 
L 376.249436 493.218241 
L 376.845055 489.01577 
L 377.440673 492.696485 
L 378.036291 492.778291 
L 378.631909 491.428037 
L 379.227527 495.325551 
L 379.823145 501.865068 
L 380.418764 503.3852 
L 381.014382 505.424653 
L 381.61 495.338237 
L 382.205618 494.383606 
L 382.801236 494.80105 
L 383.396855 492.047514 
L 383.992473 493.480872 
L 384.588091 490.17582 
L 385.183709 491.861056 
L 385.779327 487.442721 
L 386.374945 487.096687 
L 386.970564 489.90898 
L 387.566182 493.519431 
L 388.1618 486.033539 
L 388.757418 485.754846 
L 389.353036 479.234179 
L 389.948655 480.192525 
L 390.544273 478.845672 
L 391.139891 482.376206 
L 391.735509 482.92582 
L 392.331127 482.88025 
L 393.522364 481.784809 
L 394.117982 481.926501 
L 394.7136 477.989651 
L 395.309218 467.926676 
L 395.904836 453.285488 
L 396.500455 452.441734 
L 397.691691 451.240843 
L 398.287309 447.633071 
L 398.882927 456.365195 
L 399.478545 457.638403 
L 400.074164 458.569191 
L 400.669782 459.059081 
L 401.2654 457.05593 
L 401.861018 461.070209 
L 402.456636 459.544815 
L 403.052255 460.657859 
L 403.647873 453.424909 
L 404.243491 451.977675 
L 404.839109 453.81343 
L 405.434727 451.166027 
L 406.030345 449.196096 
L 406.625964 443.789892 
L 407.221582 442.25883 
L 407.8172 447.061141 
L 408.412818 440.482614 
L 409.008436 438.265153 
L 409.604055 441.793204 
L 410.199673 440.653008 
L 410.795291 441.650961 
L 411.390909 445.956152 
L 411.986527 443.382839 
L 412.582145 447.074698 
L 413.177764 452.000648 
L 413.773382 451.904064 
L 414.369 451.017181 
L 414.964618 458.632465 
L 415.560236 454.43309 
L 416.155855 463.228649 
L 416.751473 467.300804 
L 417.347091 463.690846 
L 417.942709 464.411549 
L 418.538327 466.183372 
L 419.133945 466.236644 
L 419.729564 464.161022 
L 420.325182 466.570057 
L 420.9208 470.820056 
L 421.516418 473.870924 
L 422.112036 478.60756 
L 423.303273 498.795639 
L 423.898891 496.292004 
L 424.494509 496.671953 
L 425.090127 498.205088 
L 425.685745 496.921932 
L 426.281364 496.681271 
L 426.876982 505.270115 
L 427.4726 504.752083 
L 428.068218 499.285695 
L 428.663836 504.256775 
L 429.259455 505.259462 
L 429.855073 509.861463 
L 430.450691 516.404246 
L 431.046309 520.23689 
L 431.641927 519.857863 
L 432.237545 521.555341 
L 432.833164 521.796063 
L 433.428782 522.939569 
L 434.0244 515.962822 
L 434.620018 518.300623 
L 435.215636 514.123572 
L 435.811255 515.089919 
L 436.406873 510.605685 
L 437.002491 517.857952 
L 437.598109 513.273095 
L 438.193727 513.252671 
L 438.789345 511.948991 
L 439.384964 513.950123 
L 439.980582 509.327353 
L 440.5762 508.837067 
L 441.171818 510.292952 
L 441.767436 506.58794 
L 442.363055 508.131688 
L 442.958673 505.687673 
L 443.554291 511.375582 
L 444.149909 512.515644 
L 444.745527 510.211433 
L 445.341145 515.288749 
L 445.936764 519.405641 
L 446.532382 520.763825 
L 447.128 518.236335 
L 447.723618 520.784829 
L 448.319236 521.083764 
L 448.914855 521.015453 
L 449.510473 515.069876 
L 450.106091 520.670467 
L 450.701709 522.193472 
L 451.297327 527.108553 
L 451.892945 522.534321 
L 452.488564 529.496221 
L 453.6798 534.639474 
L 454.275418 538.077398 
L 455.466655 541.058381 
L 456.062273 541.554258 
L 456.657891 537.495075 
L 457.253509 537.2208 
L 457.849127 533.748504 
L 458.444745 541.507398 
L 459.040364 542.038577 
L 459.635982 545.430449 
L 460.2316 545.771183 
L 460.827218 543.330987 
L 461.422836 533.964975 
L 462.018455 535.890491 
L 462.614073 530.362731 
L 463.209691 531.142982 
L 463.805309 523.783103 
L 464.400927 523.521244 
L 464.996545 513.68073 
L 465.592164 517.108963 
L 466.187782 512.189725 
L 466.7834 513.180013 
L 467.379018 514.998108 
L 467.974636 518.209534 
L 468.570255 524.364394 
L 469.165873 519.152373 
L 469.761491 518.261526 
L 470.357109 522.690572 
L 471.548345 518.745668 
L 472.143964 518.921535 
L 472.739582 520.398354 
L 473.3352 520.247867 
L 473.930818 520.820965 
L 475.122055 530.649749 
L 475.717673 524.547517 
L 476.313291 525.119453 
L 476.908909 518.558025 
L 477.504527 520.134388 
L 478.100145 520.929882 
L 478.695764 520.015448 
L 479.291382 525.40112 
L 479.887 533.253667 
L 481.078236 542.778441 
L 481.673855 540.045145 
L 482.269473 545.451179 
L 482.865091 548.268299 
L 483.460709 544.426404 
L 484.056327 550.711983 
L 484.651945 549.888688 
L 485.247564 551.941212 
L 485.843182 550.503913 
L 486.4388 549.969471 
L 487.630036 539.353204 
L 488.225655 541.526213 
L 488.821273 537.128708 
L 489.416891 537.632359 
L 490.012509 539.700947 
L 490.608127 537.591786 
L 491.203745 542.145854 
L 491.799364 541.224114 
L 492.394982 539.54021 
L 492.9906 535.868923 
L 493.586218 533.797503 
L 494.181836 536.48809 
L 494.777455 526.186836 
L 495.373073 530.762328 
L 495.968691 538.600865 
L 496.564309 535.923475 
L 497.159927 537.544624 
L 497.755545 537.312268 
L 498.946782 543.804878 
L 499.5424 545.421542 
L 500.138018 544.195376 
L 500.733636 540.882102 
L 501.329255 536.125284 
L 501.924873 535.46275 
L 502.520491 533.370957 
L 503.116109 535.930213 
L 503.711727 540.259598 
L 504.307345 542.401629 
L 504.902964 544.024948 
L 505.498582 541.764492 
L 506.0942 547.41345 
L 506.689818 544.115991 
L 507.285436 541.465283 
L 507.881055 539.632062 
L 508.476673 541.441442 
L 509.072291 544.777252 
L 509.667909 542.889269 
L 510.263527 536.28902 
L 510.859145 531.239222 
L 511.454764 527.387766 
L 512.050382 534.0517 
L 512.646 542.990015 
L 513.241618 542.668605 
L 513.837236 538.602479 
L 515.028473 534.347399 
L 515.624091 533.171385 
L 516.219709 529.228116 
L 516.815327 528.677771 
L 518.006564 522.557833 
L 518.602182 524.204278 
L 519.1978 530.000754 
L 519.793418 531.121059 
L 520.389036 535.07299 
L 520.984655 529.657263 
L 521.580273 536.197338 
L 522.175891 522.805068 
L 523.367127 525.539025 
L 523.962745 521.678399 
L 524.558364 520.43799 
L 525.153982 515.478017 
L 525.7496 512.734944 
L 526.345218 511.610281 
L 526.940836 510.809523 
L 527.536455 506.424042 
L 528.132073 499.058006 
L 528.727691 499.507516 
L 529.323309 500.647609 
L 529.918927 498.312768 
L 530.514545 498.586671 
L 531.110164 493.740484 
L 531.705782 501.881947 
L 532.3014 504.768559 
L 532.897018 503.018536 
L 533.492636 502.536439 
L 534.088255 504.29632 
L 534.683873 509.931772 
L 535.279491 504.246661 
L 535.875109 506.20742 
L 536.470727 506.782693 
L 537.066345 510.603613 
L 537.661964 512.196545 
L 538.257582 515.809279 
L 538.8532 514.655345 
L 539.448818 515.290054 
L 540.044436 519.305715 
L 540.640055 518.18687 
L 541.235673 523.658352 
L 541.831291 523.85989 
L 542.426909 526.600894 
L 543.022527 521.056745 
L 543.618145 521.693971 
L 544.213764 521.236954 
L 544.809382 523.871932 
L 545.405 521.006697 
L 546.000618 520.788081 
L 546.596236 526.238044 
L 547.191855 521.672056 
L 547.787473 524.950323 
L 548.383091 521.68315 
L 548.978709 522.132237 
L 550.169945 519.587534 
L 550.765564 510.014601 
L 551.9568 519.344188 
L 552.552418 513.760089 
L 553.148036 516.61332 
L 553.743655 518.070984 
L 554.339273 507.416994 
L 554.934891 512.802546 
L 555.530509 510.61123 
L 556.126127 507.266051 
L 556.721745 496.223149 
L 557.317364 491.867286 
L 557.912982 495.659273 
L 558.5086 496.10688 
L 559.699836 488.060055 
L 560.295455 477.618172 
L 560.891073 489.171736 
L 561.486691 493.403179 
L 562.082309 496.205423 
L 562.677927 494.841295 
L 563.869164 494.028212 
L 564.464782 497.934574 
L 565.0604 502.9052 
L 565.656018 501.432 
L 566.251636 502.328524 
L 566.847255 502.37059 
L 567.442873 503.807541 
L 568.038491 505.736597 
L 568.634109 512.293558 
L 569.229727 510.773967 
L 569.825345 518.87662 
L 570.420964 518.554701 
L 571.016582 514.285443 
L 571.6122 521.372116 
L 572.207818 522.464404 
L 572.803436 515.948059 
L 573.399055 518.764778 
L 573.994673 517.715308 
L 574.590291 514.621112 
L 575.185909 514.545889 
L 575.781527 515.072139 
L 576.377145 509.438153 
L 576.972764 500.850267 
L 577.568382 498.390686 
L 578.164 502.071774 
L 578.759618 500.859318 
L 579.355236 502.993949 
L 579.950855 504.507926 
L 580.546473 506.524705 
L 581.142091 513.051935 
L 581.737709 512.043467 
L 582.333327 511.855813 
L 582.928945 513.256906 
L 583.524564 509.434482 
L 584.120182 502.841453 
L 584.7158 497.906107 
L 585.311418 496.494329 
L 585.907036 502.380732 
L 586.502655 505.360272 
L 587.098273 509.379739 
L 587.693891 509.349464 
L 588.289509 510.347595 
L 588.885127 505.28223 
L 589.480745 501.537029 
L 590.076364 504.666664 
L 590.671982 504.78302 
L 591.2676 507.709394 
L 591.863218 509.419981 
L 592.458836 513.999054 
L 593.054455 515.774013 
L 593.650073 519.620665 
L 594.245691 517.741185 
L 594.841309 515.40326 
L 595.436927 516.748366 
L 596.032545 517.293202 
L 596.628164 517.550161 
L 597.223782 519.232962 
L 597.8194 521.806672 
L 598.415018 518.386791 
L 599.010636 519.309273 
L 599.606255 521.531435 
L 600.797491 513.814352 
L 601.393109 513.988462 
L 601.988727 512.265595 
L 602.584345 513.709354 
L 603.179964 514.770178 
L 603.775582 512.204157 
L 604.3712 512.214744 
L 604.966818 507.101883 
L 605.562436 506.898002 
L 606.158055 507.152846 
L 606.753673 500.563394 
L 607.349291 500.257698 
L 607.944909 505.514554 
L 608.540527 507.497564 
L 609.136145 507.791201 
L 609.731764 502.9764 
L 610.327382 503.949803 
L 610.923 509.19059 
L 611.518618 512.330564 
L 612.114236 517.080913 
L 612.709855 512.472865 
L 613.305473 514.907562 
L 613.901091 514.87674 
L 615.092327 508.353395 
L 615.687945 511.60566 
L 616.283564 513.530726 
L 616.879182 507.681711 
L 617.4748 504.346208 
L 618.070418 508.148563 
L 619.261655 499.775032 
L 619.857273 504.038887 
L 620.452891 504.940474 
L 621.048509 505.343571 
L 621.644127 508.4776 
L 622.239745 508.546682 
L 622.835364 505.136311 
L 623.430982 508.319835 
L 624.0266 509.53754 
L 624.622218 510.026026 
L 625.217836 511.09508 
L 625.813455 513.250838 
L 626.409073 509.188081 
L 627.004691 510.129248 
L 627.600309 508.286864 
L 628.195927 503.86973 
L 628.791545 502.445871 
L 629.387164 505.067556 
L 629.982782 502.953738 
L 630.5784 507.331039 
L 631.174018 508.986505 
L 631.769636 505.590301 
L 632.365255 504.016258 
L 632.960873 507.140021 
L 633.556491 505.547938 
L 634.152109 501.792418 
L 634.747727 496.204212 
L 635.343345 498.200039 
L 635.938964 498.306891 
L 636.534582 496.114944 
L 637.1302 501.118322 
L 637.725818 495.341413 
L 638.321436 492.174093 
L 638.917055 490.556093 
L 639.512673 483.734717 
L 640.108291 482.230698 
L 640.703909 483.47966 
L 641.299527 483.189872 
L 641.895145 494.362913 
L 642.490764 493.742387 
L 643.086382 484.252139 
L 643.682 485.994268 
L 644.277618 488.189448 
L 644.873236 496.062905 
L 645.468855 494.011881 
L 646.064473 494.611894 
L 646.660091 489.249431 
L 647.255709 493.876033 
L 647.851327 493.894247 
L 648.446945 499.361123 
L 649.042564 502.605707 
L 649.638182 502.152147 
L 650.2338 497.116303 
L 650.829418 500.357585 
L 651.425036 502.040231 
L 652.020655 499.339232 
L 652.616273 502.154566 
L 653.211891 501.601379 
L 653.807509 504.16811 
L 654.403127 505.684967 
L 654.998745 506.76282 
L 655.594364 510.852652 
L 656.7856 505.604887 
L 657.381218 508.839148 
L 657.976836 510.127417 
L 658.572455 513.660239 
L 659.168073 518.870155 
L 659.763691 518.001176 
L 660.359309 519.197338 
L 660.954927 520.905399 
L 661.550545 517.558702 
L 662.146164 515.178362 
L 662.741782 515.985604 
L 663.3374 518.745351 
L 663.933018 528.10244 
L 664.528636 521.603224 
L 665.124255 521.999921 
L 665.719873 521.009895 
L 666.315491 528.056884 
L 666.911109 528.157796 
L 667.506727 528.407722 
L 668.102345 532.110265 
L 668.697964 535.053441 
L 669.293582 538.61002 
L 669.8892 539.013445 
L 670.484818 536.04119 
L 671.080436 539.993156 
L 671.676055 538.56626 
L 672.271673 538.456295 
L 672.867291 540.191961 
L 673.462909 543.668189 
L 674.058527 536.761196 
L 674.654145 536.281569 
L 675.249764 536.023201 
L 675.845382 540.142054 
L 676.441 542.169674 
L 677.036618 543.005942 
L 677.632236 542.151737 
L 678.227855 542.727715 
L 678.823473 543.605433 
L 679.419091 536.382285 
L 679.419091 536.382285 
" clip-path="url(#pcd6ed084cd)" style="fill: none; stroke: #4682b4; stroke-width: 1.5; stroke-linecap: square"/>
   </g>
   <g id="patch_8">
    <path d="M 54.02 561.773333 
L 54.02 345.466667 
" style="fill: none; stroke: #000000; stroke-width: 0.8; stroke-linejoin: miter; stroke-linecap: square"/>
   </g>
   <g id="patch_9">
    <path d="M 709.2 561.773333 
L 709.2 345.466667 
" style="fill: none; stroke: #000000; stroke-width: 0.8; stroke-linejoin: miter; stroke-linecap: square"/>
   </g>
   <g id="patch_10">
    <path d="M 54.02 561.773333 
L 709.2 561.773333 
" style="fill: none; stroke: #000000; stroke-width: 0.8; stroke-linejoin: miter; stroke-linecap: square"/>
   </g>
   <g id="patch_11">
    <path d="M 54.02 345.466667 
L 709.2 345.466667 
" style="fill: none; stroke: #000000; stroke-width: 0.8; stroke-linejoin: miter; stroke-linecap: square"/>
   </g>
   <g id="text_33">
    <!-- Duty Cycle -->
    <g transform="translate(348.978438 339.466667) scale(0.12 -0.12)">
     <use xlink:href="#DejaVuSans-44"/>
     <use xlink:href="#DejaVuSans-75" x="77.001953"/>
     <use xlink:href="#DejaVuSans-74" x="140.380859"/>
     <use xlink:href="#DejaVuSans-79" x="179.589844"/>
     <use xlink:href="#DejaVuSans-20" x="238.769531"/>
     <use xlink:href="#DejaVuSans-43" x="270.556641"/>
     <use xlink:href="#DejaVuSans-79" x="340.380859"/>
     <use xlink:href="#DejaVuSans-63" x="399.560547"/>
     <use xlink:href="#DejaVuSans-6c" x="454.541016"/>
     <use xlink:href="#DejaVuSans-65" x="482.324219"/>
    </g>
   </g>
  </g>
  <g id="axes_3">
   <g id="patch_12">
    <path d="M 54.02 822.04 
L 709.2 822.04 
L 709.2 605.733333 
L 54.02 605.733333 
z
" style="fill: #ffffff"/>
   </g>
   <g id="matplotlib.axis_5">
    <g id="xtick_13">
     <g id="line2d_32">
      <g>
       <use xlink:href="#mc26085917a" x="83.800909" y="822.04" style="stroke: #000000; stroke-width: 0.8"/>
      </g>
     </g>
     <g id="text_34">
      <!-- 0.000 -->
      <g transform="translate(69.486847 836.638437) scale(0.1 -0.1)">
       <use xlink:href="#DejaVuSans-30"/>
       <use xlink:href="#DejaVuSans-2e" x="63.623047"/>
       <use xlink:href="#DejaVuSans-30" x="95.410156"/>
       <use xlink:href="#DejaVuSans-30" x="159.033203"/>
       <use xlink:href="#DejaVuSans-30" x="222.65625"/>
      </g>
     </g>
    </g>
    <g id="xtick_14">
     <g id="line2d_33">
      <g>
       <use xlink:href="#mc26085917a" x="202.924545" y="822.04" style="stroke: #000000; stroke-width: 0.8"/>
      </g>
     </g>
     <g id="text_35">
      <!-- 0.002 -->
      <g transform="translate(188.610483 836.638437) scale(0.1 -0.1)">
       <use xlink:href="#DejaVuSans-30"/>
       <use xlink:href="#DejaVuSans-2e" x="63.623047"/>
       <use xlink:href="#DejaVuSans-30" x="95.410156"/>
       <use xlink:href="#DejaVuSans-30" x="159.033203"/>
       <use xlink:href="#DejaVuSans-32" x="222.65625"/>
      </g>
     </g>
    </g>
    <g id="xtick_15">
     <g id="line2d_34">
      <g>
       <use xlink:href="#mc26085917a" x="322.048182" y="822.04" style="stroke: #000000; stroke-width: 0.8"/>
      </g>
     </g>
     <g id="text_36">
      <!-- 0.004 -->
      <g transform="translate(307.734119 836.638437) scale(0.1 -0.1)">
       <use xlink:href="#DejaVuSans-30"/>
       <use xlink:href="#DejaVuSans-2e" x="63.623047"/>
       <use xlink:href="#DejaVuSans-30" x="95.410156"/>
       <use xlink:href="#DejaVuSans-30" x="159.033203"/>
       <use xlink:href="#DejaVuSans-34" x="222.65625"/>
      </g>
     </g>
    </g>
    <g id="xtick_16">
     <g id="line2d_35">
      <g>
       <use xlink:href="#mc26085917a" x="441.171818" y="822.04" style="stroke: #000000; stroke-width: 0.8"/>
      </g>
     </g>
     <g id="text_37">
      <!-- 0.006 -->
      <g transform="translate(426.857756 836.638437) scale(0.1 -0.1)">
       <use xlink:href="#DejaVuSans-30"/>
       <use xlink:href="#DejaVuSans-2e" x="63.623047"/>
       <use xlink:href="#DejaVuSans-30" x="95.410156"/>
       <use xlink:href="#DejaVuSans-30" x="159.033203"/>
       <use xlink:href="#DejaVuSans-36" x="222.65625"/>
      </g>
     </g>
    </g>
    <g id="xtick_17">
     <g id="line2d_36">
      <g>
       <use xlink:href="#mc26085917a" x="560.295455" y="822.04" style="stroke: #000000; stroke-width: 0.8"/>
      </g>
     </g>
     <g id="text_38">
      <!-- 0.008 -->
      <g transform="translate(545.981392 836.638437) scale(0.1 -0.1)">
       <use xlink:href="#DejaVuSans-30"/>
       <use xlink:href="#DejaVuSans-2e" x="63.623047"/>
       <use xlink:href="#DejaVuSans-30" x="95.410156"/>
       <use xlink:href="#DejaVuSans-30" x="159.033203"/>
       <use xlink:href="#DejaVuSans-38" x="222.65625"/>
      </g>
     </g>
    </g>
    <g id="xtick_18">
     <g id="line2d_37">
      <g>
       <use xlink:href="#mc26085917a" x="679.419091" y="822.04" style="stroke: #000000; stroke-width: 0.8"/>
      </g>
     </g>
     <g id="text_39">
      <!-- 0.010 -->
      <g transform="translate(665.105028 836.638437) scale(0.1 -0.1)">
       <use xlink:href="#DejaVuSans-30"/>
       <use xlink:href="#DejaVuSans-2e" x="63.623047"/>
       <use xlink:href="#DejaVuSans-30" x="95.410156"/>
       <use xlink:href="#DejaVuSans-31" x="159.033203"/>
       <use xlink:href="#DejaVuSans-30" x="222.65625"/>
      </g>
     </g>
    </g>
    <g id="text_40">
     <!-- Time -->
     <g transform="translate(369.376406 850.316562) scale(0.1 -0.1)">
      <defs>
       <path id="DejaVuSans-54" d="M -19 4666 
L 3928 4666 
L 3928 4134 
L 2272 4134 
L 2272 0 
L 1638 0 
L 1638 4134 
L -19 4134 
L -19 4666 
z
" transform="scale(0.015625)"/>
       <path id="DejaVuSans-69" d="M 603 3500 
L 1178 3500 
L 1178 0 
L 603 0 
L 603 3500 
z
M 603 4863 
L 1178 4863 
L 1178 4134 
L 603 4134 
L 603 4863 
z
" transform="scale(0.015625)"/>
       <path id="DejaVuSans-6d" d="M 3328 2828 
Q 3544 3216 3844 3400 
Q 4144 3584 4550 3584 
Q 5097 3584 5394 3201 
Q 5691 2819 5691 2113 
L 5691 0 
L 5113 0 
L 5113 2094 
Q 5113 2597 4934 2840 
Q 4756 3084 4391 3084 
Q 3944 3084 3684 2787 
Q 3425 2491 3425 1978 
L 3425 0 
L 2847 0 
L 2847 2094 
Q 2847 2600 2669 2842 
Q 2491 3084 2119 3084 
Q 1678 3084 1418 2786 
Q 1159 2488 1159 1978 
L 1159 0 
L 581 0 
L 581 3500 
L 1159 3500 
L 1159 2956 
Q 1356 3278 1631 3431 
Q 1906 3584 2284 3584 
Q 2666 3584 2933 3390 
Q 3200 3197 3328 2828 
z
" transform="scale(0.015625)"/>
      </defs>
      <use xlink:href="#DejaVuSans-54"/>
      <use xlink:href="#DejaVuSans-69" x="57.958984"/>
      <use xlink:href="#DejaVuSans-6d" x="85.742188"/>
      <use xlink:href="#DejaVuSans-65" x="183.154297"/>
     </g>
    </g>
   </g>
   <g id="matplotlib.axis_6">
    <g id="ytick_18">
     <g id="line2d_38">
      <defs>
       <path id="md7aed10418" d="M 0 0 
L -3.5 0 
" style="stroke: #008000; stroke-width: 0.8"/>
      </defs>
      <g>
       <use xlink:href="#md7aed10418" x="54.02" y="812.230697" style="fill: #008000; stroke: #008000; stroke-width: 0.8"/>
      </g>
     </g>
     <g id="text_41">
      <!-- 60 -->
      <g style="fill: #008000" transform="translate(25.915313 816.029916) scale(0.1 -0.1)">
       <defs>
        <path id="DejaVuSans-2212" d="M 678 2272 
L 4684 2272 
L 4684 1741 
L 678 1741 
L 678 2272 
z
" transform="scale(0.015625)"/>
       </defs>
       <use xlink:href="#DejaVuSans-2212"/>
       <use xlink:href="#DejaVuSans-36" x="83.789062"/>
       <use xlink:href="#DejaVuSans-30" x="147.412109"/>
      </g>
     </g>
    </g>
    <g id="ytick_19">
     <g id="line2d_39">
      <g>
       <use xlink:href="#md7aed10418" x="54.02" y="769.623197" style="fill: #008000; stroke: #008000; stroke-width: 0.8"/>
      </g>
     </g>
     <g id="text_42">
      <!-- 50 -->
      <g style="fill: #008000" transform="translate(25.915313 773.422416) scale(0.1 -0.1)">
       <use xlink:href="#DejaVuSans-2212"/>
       <use xlink:href="#DejaVuSans-35" x="83.789062"/>
       <use xlink:href="#DejaVuSans-30" x="147.412109"/>
      </g>
     </g>
    </g>
    <g id="ytick_20">
     <g id="line2d_40">
      <g>
       <use xlink:href="#md7aed10418" x="54.02" y="727.015697" style="fill: #008000; stroke: #008000; stroke-width: 0.8"/>
      </g>
     </g>
     <g id="text_43">
      <!-- 40 -->
      <g style="fill: #008000" transform="translate(25.915313 730.814916) scale(0.1 -0.1)">
       <use xlink:href="#DejaVuSans-2212"/>
       <use xlink:href="#DejaVuSans-34" x="83.789062"/>
       <use xlink:href="#DejaVuSans-30" x="147.412109"/>
      </g>
     </g>
    </g>
    <g id="ytick_21">
     <g id="line2d_41">
      <g>
       <use xlink:href="#md7aed10418" x="54.02" y="684.408197" style="fill: #008000; stroke: #008000; stroke-width: 0.8"/>
      </g>
     </g>
     <g id="text_44">
      <!-- 30 -->
      <g style="fill: #008000" transform="translate(25.915313 688.207416) scale(0.1 -0.1)">
       <use xlink:href="#DejaVuSans-2212"/>
       <use xlink:href="#DejaVuSans-33" x="83.789062"/>
       <use xlink:href="#DejaVuSans-30" x="147.412109"/>
      </g>
     </g>
    </g>
    <g id="ytick_22">
     <g id="line2d_42">
      <g>
       <use xlink:href="#md7aed10418" x="54.02" y="641.800697" style="fill: #008000; stroke: #008000; stroke-width: 0.8"/>
      </g>
     </g>
     <g id="text_45">
      <!-- 20 -->
      <g style="fill: #008000" transform="translate(25.915313 645.599915) scale(0.1 -0.1)">
       <use xlink:href="#DejaVuSans-2212"/>
       <use xlink:href="#DejaVuSans-32" x="83.789062"/>
       <use xlink:href="#DejaVuSans-30" x="147.412109"/>
      </g>
     </g>
    </g>
    <g id="text_46">
     <!-- Cost -->
     <g style="fill: #008000" transform="translate(19.835625 725.002292) rotate(-90) scale(0.1 -0.1)">
      <defs>
       <path id="DejaVuSans-73" d="M 2834 3397 
L 2834 2853 
Q 2591 2978 2328 3040 
Q 2066 3103 1784 3103 
Q 1356 3103 1142 2972 
Q 928 2841 928 2578 
Q 928 2378 1081 2264 
Q 1234 2150 1697 2047 
L 1894 2003 
Q 2506 1872 2764 1633 
Q 3022 1394 3022 966 
Q 3022 478 2636 193 
Q 2250 -91 1575 -91 
Q 1294 -91 989 -36 
Q 684 19 347 128 
L 347 722 
Q 666 556 975 473 
Q 1284 391 1588 391 
Q 1994 391 2212 530 
Q 2431 669 2431 922 
Q 2431 1156 2273 1281 
Q 2116 1406 1581 1522 
L 1381 1569 
Q 847 1681 609 1914 
Q 372 2147 372 2553 
Q 372 3047 722 3315 
Q 1072 3584 1716 3584 
Q 2034 3584 2315 3537 
Q 2597 3491 2834 3397 
z
" transform="scale(0.015625)"/>
      </defs>
      <use xlink:href="#DejaVuSans-43"/>
      <use xlink:href="#DejaVuSans-6f" x="69.824219"/>
      <use xlink:href="#DejaVuSans-73" x="131.005859"/>
      <use xlink:href="#DejaVuSans-74" x="183.105469"/>
     </g>
    </g>
   </g>
   <g id="line2d_43">
    <path d="M 83.800909 812.207879 
L 84.396527 796.158732 
L 84.992145 796.02662 
L 85.587764 795.75897 
L 86.779 794.841804 
L 87.970236 793.446164 
L 89.161473 791.608229 
L 90.352709 789.363309 
L 91.543945 786.745687 
L 93.3308 782.192573 
L 95.117655 776.981605 
L 97.500127 769.181599 
L 99.8826 761.072964 
L 101.669455 755.786293 
L 103.456309 751.209423 
L 105.243164 747.267154 
L 107.030018 743.89327 
L 108.816873 741.029329 
L 110.603727 738.623617 
L 112.390582 736.63026 
L 115.368673 733.676605 
L 116.559909 732.066286 
L 117.751145 730.150349 
L 119.538 726.761637 
L 121.324855 722.83142 
L 123.707327 716.887978 
L 126.0898 710.301834 
L 130.259127 698.423644 
L 132.045982 694.311982 
L 133.832836 690.861135 
L 135.619691 687.997182 
L 137.406545 685.655888 
L 139.1934 683.781271 
L 140.980255 682.324391 
L 142.767109 681.242322 
L 144.553964 680.342992 
L 145.7452 679.494073 
L 146.936436 678.391785 
L 148.127673 677.056942 
L 149.914527 674.662728 
L 151.701382 671.856124 
L 154.083855 667.578594 
L 157.061945 661.602392 
L 158.8488 658.294416 
L 160.635655 655.592102 
L 162.422509 653.423459 
L 164.209364 651.728336 
L 165.996218 650.454908 
L 167.783073 649.558361 
L 169.569927 648.999791 
L 171.356782 648.745281 
L 173.143636 648.765124 
L 174.334873 648.783455 
L 175.526109 648.586535 
L 176.717345 648.15621 
L 177.908582 647.509524 
L 179.099818 646.663302 
L 180.886673 645.055811 
L 182.673527 643.090213 
L 184.460382 640.8177 
L 186.842855 637.690086 
L 188.629709 635.850236 
L 190.416564 634.455049 
L 192.203418 633.45518 
L 193.990273 632.808322 
L 195.777127 632.478053 
L 197.563982 632.432863 
L 199.350836 632.645347 
L 201.137691 633.091538 
L 205.307018 634.387128 
L 206.498255 634.371099 
L 207.689491 634.140983 
L 208.880727 633.711721 
L 210.071964 633.098185 
L 211.858818 631.864382 
L 213.645673 630.297101 
L 216.028145 628.045706 
L 217.815 626.783815 
L 219.601855 625.903494 
L 221.388709 625.363782 
L 223.175564 625.129586 
L 224.962418 625.170685 
L 226.749273 625.460908 
L 228.536127 625.97745 
L 230.322982 626.700305 
L 232.705455 627.954784 
L 234.492309 628.811169 
L 235.683545 629.106256 
L 236.874782 629.179577 
L 238.066018 629.045085 
L 239.257255 628.716878 
L 240.448491 628.209051 
L 242.235345 627.141007 
L 244.0222 625.74623 
L 245.809055 624.338471 
L 247.595909 623.304306 
L 249.382764 622.626793 
L 251.169618 622.268321 
L 252.956473 622.196671 
L 254.743327 622.384091 
L 256.530182 622.80653 
L 258.317036 623.443008 
L 260.103891 624.275088 
L 262.486364 625.660844 
L 264.273218 626.611132 
L 265.464455 626.971072 
L 266.655691 627.110714 
L 267.846927 627.043559 
L 269.038164 626.783314 
L 270.2294 626.343729 
L 272.016255 625.377935 
L 273.803109 624.084541 
L 277.376818 621.173158 
L 279.163673 620.200998 
L 280.950527 619.578234 
L 282.737382 619.26805 
L 284.524236 619.238982 
L 286.311091 619.46399 
L 288.097945 619.919692 
L 289.8848 620.585723 
L 291.671655 621.444215 
L 293.458509 622.36539 
L 294.649745 622.765132 
L 295.840982 622.952305 
L 297.032218 622.93965 
L 298.223455 622.740151 
L 299.414691 622.366884 
L 301.201545 621.509643 
L 302.9884 620.333975 
L 305.370873 618.599896 
L 307.157727 617.680922 
L 308.944582 617.104881 
L 310.731436 616.83568 
L 312.518291 616.842539 
L 314.305145 617.099059 
L 316.092 617.582451 
L 317.878855 618.272901 
L 320.261327 619.485876 
L 324.430655 621.824827 
L 325.621891 622.123623 
L 326.813127 622.21821 
L 328.004364 622.121286 
L 329.1956 621.845727 
L 330.386836 621.404442 
L 332.173691 620.459773 
L 333.960545 619.213394 
L 335.7474 617.960872 
L 337.534255 617.06516 
L 339.321109 616.50958 
L 341.107964 616.258375 
L 342.894818 616.281075 
L 344.681673 616.551561 
L 346.468527 617.047297 
L 348.255382 617.748698 
L 350.637855 618.97446 
L 353.615945 620.661348 
L 354.807182 621.04531 
L 355.998418 621.223028 
L 357.189655 621.206871 
L 358.380891 621.009457 
L 359.572127 620.643498 
L 361.358982 619.806231 
L 363.145836 618.6603 
L 364.932691 617.499347 
L 366.719545 616.685157 
L 368.5064 616.20217 
L 370.293255 616.015921 
L 372.080109 616.097018 
L 373.866964 616.420246 
L 375.653818 616.96383 
L 377.440673 617.708819 
L 379.823145 618.986981 
L 383.992473 621.42708 
L 385.183709 621.755483 
L 386.374945 621.88014 
L 387.566182 621.813554 
L 388.757418 621.568433 
L 389.948655 621.15754 
L 391.735509 620.258104 
L 393.522364 619.056232 
L 395.309218 617.845588 
L 397.096073 616.98711 
L 398.882927 616.464529 
L 400.669782 616.242665 
L 402.456636 616.291546 
L 404.243491 616.58548 
L 406.030345 617.1023 
L 407.8172 617.822739 
L 410.199673 619.071171 
L 413.177764 620.78383 
L 414.369 621.178783 
L 415.560236 621.367982 
L 416.751473 621.363698 
L 417.942709 621.178462 
L 419.133945 620.82491 
L 420.9208 620.006533 
L 422.707655 618.879657 
L 425.090127 617.218304 
L 426.876982 616.347616 
L 428.663836 615.81375 
L 430.450691 615.581299 
L 432.237545 615.62013 
L 434.0244 615.904453 
L 435.811255 616.412048 
L 437.598109 617.123622 
L 439.980582 618.360798 
L 442.958673 620.062585 
L 444.149909 620.456913 
L 445.341145 620.647902 
L 446.532382 620.647652 
L 447.723618 620.468529 
L 448.914855 620.123007 
L 450.701709 619.319935 
L 454.871036 617.06716 
L 456.657891 616.579159 
L 458.444745 616.388139 
L 460.2316 616.464645 
L 462.018455 616.783427 
L 463.805309 617.322692 
L 465.592164 618.063491 
L 467.974636 619.336289 
L 470.357109 620.903823 
L 472.143964 622.142083 
L 473.3352 622.744248 
L 474.526436 623.126388 
L 475.717673 623.300584 
L 476.908909 623.279336 
L 478.100145 623.075391 
L 479.291382 622.701582 
L 481.078236 621.850321 
L 483.460709 620.49465 
L 485.247564 619.823741 
L 487.034418 619.469734 
L 488.821273 619.400427 
L 490.608127 619.58823 
L 492.394982 620.009353 
L 494.181836 620.643144 
L 495.968691 621.471532 
L 498.351164 622.851469 
L 501.329255 624.936519 
L 502.520491 625.663025 
L 503.711727 626.154501 
L 504.902964 626.425357 
L 506.0942 626.488377 
L 507.285436 626.356664 
L 508.476673 626.04347 
L 509.667909 625.562054 
L 511.454764 624.553202 
L 513.241618 623.500139 
L 515.028473 622.782644 
L 516.815327 622.387695 
L 518.602182 622.282426 
L 520.389036 622.438627 
L 522.175891 622.831932 
L 523.962745 623.441153 
L 525.7496 624.247733 
L 528.132073 625.602126 
L 530.514545 627.244466 
L 532.3014 628.371346 
L 533.492636 628.844023 
L 534.683873 629.091851 
L 535.875109 629.128026 
L 537.066345 628.966041 
L 538.257582 628.619511 
L 539.448818 628.102032 
L 541.235673 627.034665 
L 543.022527 625.922867 
L 544.809382 625.152871 
L 546.596236 624.711358 
L 548.383091 624.564727 
L 550.169945 624.684102 
L 551.9568 625.044519 
L 553.743655 625.624256 
L 555.530509 626.404276 
L 557.912982 627.727074 
L 560.295455 629.341383 
L 562.082309 630.445671 
L 563.273545 630.89965 
L 564.464782 631.126003 
L 565.656018 631.138234 
L 566.847255 630.950118 
L 568.038491 630.575533 
L 569.229727 630.028318 
L 571.016582 628.913678 
L 573.399055 627.216506 
L 575.185909 626.31949 
L 576.972764 625.76444 
L 578.759618 625.515855 
L 580.546473 625.543272 
L 582.333327 625.820397 
L 584.120182 626.324395 
L 585.907036 627.035294 
L 588.289509 628.274886 
L 591.863218 630.409042 
L 593.054455 630.802568 
L 594.245691 630.973044 
L 595.436927 630.933983 
L 596.628164 630.699127 
L 597.8194 630.282282 
L 599.606255 629.345787 
L 601.393109 628.076186 
L 603.179964 626.783942 
L 604.966818 625.852844 
L 606.753673 625.267191 
L 608.540527 624.990921 
L 610.327382 624.993127 
L 612.114236 625.247173 
L 613.901091 625.729954 
L 615.687945 626.421295 
L 618.070418 627.637123 
L 621.644127 629.742089 
L 622.835364 630.130159 
L 624.0266 630.297729 
L 625.217836 630.25816 
L 626.409073 630.025042 
L 627.600309 629.612032 
L 629.387164 628.684899 
L 631.174018 627.428559 
L 632.960873 626.151144 
L 634.747727 625.233322 
L 636.534582 624.659355 
L 638.321436 624.393347 
L 640.108291 624.404553 
L 641.895145 624.666493 
L 643.682 625.156213 
L 645.468855 625.853682 
L 647.851327 627.076647 
L 651.425036 629.192408 
L 652.616273 629.586538 
L 653.807509 629.761733 
L 654.998745 629.731213 
L 656.189982 629.508429 
L 657.381218 629.10691 
L 659.168073 628.198917 
L 663.3374 625.659543 
L 665.124255 625.067941 
L 666.911109 624.786119 
L 668.697964 624.783079 
L 670.484818 625.03213 
L 672.271673 625.51014 
L 674.058527 626.196928 
L 676.441 627.407044 
L 678.823473 628.920389 
L 679.419091 629.342306 
L 679.419091 629.342306 
" clip-path="url(#p13483ddb6a)" style="fill: none; stroke: #008000; stroke-width: 1.5; stroke-linecap: square"/>
   </g>
   <g id="patch_13">
    <path d="M 54.02 822.04 
L 54.02 605.733333 
" style="fill: none; stroke: #000000; stroke-width: 0.8; stroke-linejoin: miter; stroke-linecap: square"/>
   </g>
   <g id="patch_14">
    <path d="M 709.2 822.04 
L 709.2 605.733333 
" style="fill: none; stroke: #000000; stroke-width: 0.8; stroke-linejoin: miter; stroke-linecap: square"/>
   </g>
   <g id="patch_15">
    <path d="M 54.02 822.04 
L 709.2 822.04 
" style="fill: none; stroke: #000000; stroke-width: 0.8; stroke-linejoin: miter; stroke-linecap: square"/>
   </g>
   <g id="patch_16">
    <path d="M 54.02 605.733333 
L 709.2 605.733333 
" style="fill: none; stroke: #000000; stroke-width: 0.8; stroke-linejoin: miter; stroke-linecap: square"/>
   </g>
   <g id="text_47">
    <!-- Cost Over Time -->
    <g transform="translate(335.344375 599.733333) scale(0.12 -0.12)">
     <defs>
      <path id="DejaVuSans-76" d="M 191 3500 
L 800 3500 
L 1894 563 
L 2988 3500 
L 3597 3500 
L 2284 0 
L 1503 0 
L 191 3500 
z
" transform="scale(0.015625)"/>
      <path id="DejaVuSans-72" d="M 2631 2963 
Q 2534 3019 2420 3045 
Q 2306 3072 2169 3072 
Q 1681 3072 1420 2755 
Q 1159 2438 1159 1844 
L 1159 0 
L 581 0 
L 581 3500 
L 1159 3500 
L 1159 2956 
Q 1341 3275 1631 3429 
Q 1922 3584 2338 3584 
Q 2397 3584 2469 3576 
Q 2541 3569 2628 3553 
L 2631 2963 
z
" transform="scale(0.015625)"/>
     </defs>
     <use xlink:href="#DejaVuSans-43"/>
     <use xlink:href="#DejaVuSans-6f" x="69.824219"/>
     <use xlink:href="#DejaVuSans-73" x="131.005859"/>
     <use xlink:href="#DejaVuSans-74" x="183.105469"/>
     <use xlink:href="#DejaVuSans-20" x="222.314453"/>
     <use xlink:href="#DejaVuSans-4f" x="254.101562"/>
     <use xlink:href="#DejaVuSans-76" x="332.8125"/>
     <use xlink:href="#DejaVuSans-65" x="391.992188"/>
     <use xlink:href="#DejaVuSans-72" x="453.515625"/>
     <use xlink:href="#DejaVuSans-20" x="494.628906"/>
     <use xlink:href="#DejaVuSans-54" x="526.416016"/>
     <use xlink:href="#DejaVuSans-69" x="584.375"/>
     <use xlink:href="#DejaVuSans-6d" x="612.158203"/>
     <use xlink:href="#DejaVuSans-65" x="709.570312"/>
    </g>
   </g>
  </g>
  <g id="text_48">
   <!-- Episode 0 - Total Reward: -18970.35 -->
   <g transform="translate(251.745938 26.398125) scale(0.12 -0.12)">
    <defs>
     <path id="DejaVuSans-45" d="M 628 4666 
L 3578 4666 
L 3578 4134 
L 1259 4134 
L 1259 2753 
L 3481 2753 
L 3481 2222 
L 1259 2222 
L 1259 531 
L 3634 531 
L 3634 0 
L 628 0 
L 628 4666 
z
" transform="scale(0.015625)"/>
     <path id="DejaVuSans-64" d="M 2906 2969 
L 2906 4863 
L 3481 4863 
L 3481 0 
L 2906 0 
L 2906 525 
Q 2725 213 2448 61 
Q 2172 -91 1784 -91 
Q 1150 -91 751 415 
Q 353 922 353 1747 
Q 353 2572 751 3078 
Q 1150 3584 1784 3584 
Q 2172 3584 2448 3432 
Q 2725 3281 2906 2969 
z
M 947 1747 
Q 947 1113 1208 752 
Q 1469 391 1925 391 
Q 2381 391 2643 752 
Q 2906 1113 2906 1747 
Q 2906 2381 2643 2742 
Q 2381 3103 1925 3103 
Q 1469 3103 1208 2742 
Q 947 2381 947 1747 
z
" transform="scale(0.015625)"/>
     <path id="DejaVuSans-2d" d="M 313 2009 
L 1997 2009 
L 1997 1497 
L 313 1497 
L 313 2009 
z
" transform="scale(0.015625)"/>
     <path id="DejaVuSans-52" d="M 2841 2188 
Q 3044 2119 3236 1894 
Q 3428 1669 3622 1275 
L 4263 0 
L 3584 0 
L 2988 1197 
Q 2756 1666 2539 1819 
Q 2322 1972 1947 1972 
L 1259 1972 
L 1259 0 
L 628 0 
L 628 4666 
L 2053 4666 
Q 2853 4666 3247 4331 
Q 3641 3997 3641 3322 
Q 3641 2881 3436 2590 
Q 3231 2300 2841 2188 
z
M 1259 4147 
L 1259 2491 
L 2053 2491 
Q 2509 2491 2742 2702 
Q 2975 2913 2975 3322 
Q 2975 3731 2742 3939 
Q 2509 4147 2053 4147 
L 1259 4147 
z
" transform="scale(0.015625)"/>
     <path id="DejaVuSans-77" d="M 269 3500 
L 844 3500 
L 1563 769 
L 2278 3500 
L 2956 3500 
L 3675 769 
L 4391 3500 
L 4966 3500 
L 4050 0 
L 3372 0 
L 2619 2869 
L 1863 0 
L 1184 0 
L 269 3500 
z
" transform="scale(0.015625)"/>
     <path id="DejaVuSans-3a" d="M 750 794 
L 1409 794 
L 1409 0 
L 750 0 
L 750 794 
z
M 750 3309 
L 1409 3309 
L 1409 2516 
L 750 2516 
L 750 3309 
z
" transform="scale(0.015625)"/>
     <path id="DejaVuSans-39" d="M 703 97 
L 703 672 
Q 941 559 1184 500 
Q 1428 441 1663 441 
Q 2288 441 2617 861 
Q 2947 1281 2994 2138 
Q 2813 1869 2534 1725 
Q 2256 1581 1919 1581 
Q 1219 1581 811 2004 
Q 403 2428 403 3163 
Q 403 3881 828 4315 
Q 1253 4750 1959 4750 
Q 2769 4750 3195 4129 
Q 3622 3509 3622 2328 
Q 3622 1225 3098 567 
Q 2575 -91 1691 -91 
Q 1453 -91 1209 -44 
Q 966 3 703 97 
z
M 1959 2075 
Q 2384 2075 2632 2365 
Q 2881 2656 2881 3163 
Q 2881 3666 2632 3958 
Q 2384 4250 1959 4250 
Q 1534 4250 1286 3958 
Q 1038 3666 1038 3163 
Q 1038 2656 1286 2365 
Q 1534 2075 1959 2075 
z
" transform="scale(0.015625)"/>
     <path id="DejaVuSans-37" d="M 525 4666 
L 3525 4666 
L 3525 4397 
L 1831 0 
L 1172 0 
L 2766 4134 
L 525 4134 
L 525 4666 
z
" transform="scale(0.015625)"/>
    </defs>
    <use xlink:href="#DejaVuSans-45"/>
    <use xlink:href="#DejaVuSans-70" x="63.183594"/>
    <use xlink:href="#DejaVuSans-69" x="126.660156"/>
    <use xlink:href="#DejaVuSans-73" x="154.443359"/>
    <use xlink:href="#DejaVuSans-6f" x="206.542969"/>
    <use xlink:href="#DejaVuSans-64" x="267.724609"/>
    <use xlink:href="#DejaVuSans-65" x="331.201172"/>
    <use xlink:href="#DejaVuSans-20" x="392.724609"/>
    <use xlink:href="#DejaVuSans-30" x="424.511719"/>
    <use xlink:href="#DejaVuSans-20" x="488.134766"/>
    <use xlink:href="#DejaVuSans-2d" x="519.921875"/>
    <use xlink:href="#DejaVuSans-20" x="556.005859"/>
    <use xlink:href="#DejaVuSans-54" x="587.792969"/>
    <use xlink:href="#DejaVuSans-6f" x="631.876953"/>
    <use xlink:href="#DejaVuSans-74" x="693.058594"/>
    <use xlink:href="#DejaVuSans-61" x="732.267578"/>
    <use xlink:href="#DejaVuSans-6c" x="793.546875"/>
    <use xlink:href="#DejaVuSans-20" x="821.330078"/>
    <use xlink:href="#DejaVuSans-52" x="853.117188"/>
    <use xlink:href="#DejaVuSans-65" x="918.099609"/>
    <use xlink:href="#DejaVuSans-77" x="979.623047"/>
    <use xlink:href="#DejaVuSans-61" x="1061.410156"/>
    <use xlink:href="#DejaVuSans-72" x="1122.689453"/>
    <use xlink:href="#DejaVuSans-64" x="1162.052734"/>
    <use xlink:href="#DejaVuSans-3a" x="1225.529297"/>
    <use xlink:href="#DejaVuSans-20" x="1259.220703"/>
    <use xlink:href="#DejaVuSans-2d" x="1291.007812"/>
    <use xlink:href="#DejaVuSans-31" x="1327.091797"/>
    <use xlink:href="#DejaVuSans-38" x="1390.714844"/>
    <use xlink:href="#DejaVuSans-39" x="1454.337891"/>
    <use xlink:href="#DejaVuSans-37" x="1517.960938"/>
    <use xlink:href="#DejaVuSans-30" x="1581.583984"/>
    <use xlink:href="#DejaVuSans-2e" x="1645.207031"/>
    <use xlink:href="#DejaVuSans-33" x="1676.994141"/>
    <use xlink:href="#DejaVuSans-35" x="1740.617188"/>
   </g>
  </g>
 </g>
 <defs>
  <clipPath id="p075efffe99">
   <rect x="54.02" y="85.2" width="655.18" height="216.306667"/>
  </clipPath>
  <clipPath id="pcd6ed084cd">
   <rect x="54.02" y="345.466667" width="655.18" height="216.306667"/>
  </clipPath>
  <clipPath id="p13483ddb6a">
   <rect x="54.02" y="605.733333" width="655.18" height="216.306667"/>
  </clipPath>
 </defs>
</svg>
