<?xml version="1.0" encoding="utf-8" standalone="no"?>
<!DOCTYPE svg PUBLIC "-//W3C//DTD SVG 1.1//EN"
  "http://www.w3.org/Graphics/SVG/1.1/DTD/svg11.dtd">
<svg xmlns:xlink="http://www.w3.org/1999/xlink" width="720pt" height="576pt" viewBox="0 0 720 576" xmlns="http://www.w3.org/2000/svg" version="1.1">
 <metadata>
  <rdf:RDF xmlns:dc="http://purl.org/dc/elements/1.1/" xmlns:cc="http://creativecommons.org/ns#" xmlns:rdf="http://www.w3.org/1999/02/22-rdf-syntax-ns#">
   <cc:Work>
    <dc:type rdf:resource="http://purl.org/dc/dcmitype/StillImage"/>
    <dc:date>2024-06-04T10:26:29.405919</dc:date>
    <dc:format>image/svg+xml</dc:format>
    <dc:creator>
     <cc:Agent>
      <dc:title>Matplotlib v3.8.4, https://matplotlib.org/</dc:title>
     </cc:Agent>
    </dc:creator>
   </cc:Work>
  </rdf:RDF>
 </metadata>
 <defs>
  <style type="text/css">*{stroke-linejoin: round; stroke-linecap: butt}</style>
 </defs>
 <g id="figure_1">
  <g id="patch_1">
   <path d="M 0 576 
L 720 576 
L 720 0 
L 0 0 
z
" style="fill: #ffffff"/>
  </g>
  <g id="axes_1">
   <g id="patch_2">
    <path d="M 52.94 288.67 
L 672.28 288.67 
L 672.28 73.68 
L 52.94 73.68 
z
" style="fill: #ffffff"/>
   </g>
   <g id="matplotlib.axis_1">
    <g id="xtick_1">
     <g id="line2d_1">
      <defs>
       <path id="m0d251b41b5" d="M 0 0 
L 0 3.5 
" style="stroke: #000000; stroke-width: 0.8"/>
      </defs>
      <g>
       <use xlink:href="#m0d251b41b5" x="81.091818" y="288.67" style="stroke: #000000; stroke-width: 0.8"/>
      </g>
     </g>
    </g>
    <g id="xtick_2">
     <g id="line2d_2">
      <g>
       <use xlink:href="#m0d251b41b5" x="188.347055" y="288.67" style="stroke: #000000; stroke-width: 0.8"/>
      </g>
     </g>
    </g>
    <g id="xtick_3">
     <g id="line2d_3">
      <g>
       <use xlink:href="#m0d251b41b5" x="295.602291" y="288.67" style="stroke: #000000; stroke-width: 0.8"/>
      </g>
     </g>
    </g>
    <g id="xtick_4">
     <g id="line2d_4">
      <g>
       <use xlink:href="#m0d251b41b5" x="402.857527" y="288.67" style="stroke: #000000; stroke-width: 0.8"/>
      </g>
     </g>
    </g>
    <g id="xtick_5">
     <g id="line2d_5">
      <g>
       <use xlink:href="#m0d251b41b5" x="510.112764" y="288.67" style="stroke: #000000; stroke-width: 0.8"/>
      </g>
     </g>
    </g>
    <g id="xtick_6">
     <g id="line2d_6">
      <g>
       <use xlink:href="#m0d251b41b5" x="617.368" y="288.67" style="stroke: #000000; stroke-width: 0.8"/>
      </g>
     </g>
    </g>
   </g>
   <g id="matplotlib.axis_2">
    <g id="ytick_1">
     <g id="line2d_7">
      <defs>
       <path id="m7698e8ea30" d="M 0 0 
L -3.5 0 
" style="stroke: #ff4500; stroke-width: 0.8"/>
      </defs>
      <g>
       <use xlink:href="#m7698e8ea30" x="52.94" y="278.904267" style="fill: #ff4500; stroke: #ff4500; stroke-width: 0.8"/>
      </g>
     </g>
     <g id="text_1">
      <!-- 0 -->
      <g style="fill: #ff4500" transform="translate(39.5775 282.703485) scale(0.1 -0.1)">
       <defs>
        <path id="DejaVuSans-30" d="M 2034 4250 
Q 1547 4250 1301 3770 
Q 1056 3291 1056 2328 
Q 1056 1369 1301 889 
Q 1547 409 2034 409 
Q 2525 409 2770 889 
Q 3016 1369 3016 2328 
Q 3016 3291 2770 3770 
Q 2525 4250 2034 4250 
z
M 2034 4750 
Q 2819 4750 3233 4129 
Q 3647 3509 3647 2328 
Q 3647 1150 3233 529 
Q 2819 -91 2034 -91 
Q 1250 -91 836 529 
Q 422 1150 422 2328 
Q 422 3509 836 4129 
Q 1250 4750 2034 4750 
z
" transform="scale(0.015625)"/>
       </defs>
       <use xlink:href="#DejaVuSans-30"/>
      </g>
     </g>
    </g>
    <g id="ytick_2">
     <g id="line2d_8">
      <g>
       <use xlink:href="#m7698e8ea30" x="52.94" y="242.573202" style="fill: #ff4500; stroke: #ff4500; stroke-width: 0.8"/>
      </g>
     </g>
     <g id="text_2">
      <!-- 2 -->
      <g style="fill: #ff4500" transform="translate(39.5775 246.372421) scale(0.1 -0.1)">
       <defs>
        <path id="DejaVuSans-32" d="M 1228 531 
L 3431 531 
L 3431 0 
L 469 0 
L 469 531 
Q 828 903 1448 1529 
Q 2069 2156 2228 2338 
Q 2531 2678 2651 2914 
Q 2772 3150 2772 3378 
Q 2772 3750 2511 3984 
Q 2250 4219 1831 4219 
Q 1534 4219 1204 4116 
Q 875 4013 500 3803 
L 500 4441 
Q 881 4594 1212 4672 
Q 1544 4750 1819 4750 
Q 2544 4750 2975 4387 
Q 3406 4025 3406 3419 
Q 3406 3131 3298 2873 
Q 3191 2616 2906 2266 
Q 2828 2175 2409 1742 
Q 1991 1309 1228 531 
z
" transform="scale(0.015625)"/>
       </defs>
       <use xlink:href="#DejaVuSans-32"/>
      </g>
     </g>
    </g>
    <g id="ytick_3">
     <g id="line2d_9">
      <g>
       <use xlink:href="#m7698e8ea30" x="52.94" y="206.242137" style="fill: #ff4500; stroke: #ff4500; stroke-width: 0.8"/>
      </g>
     </g>
     <g id="text_3">
      <!-- 4 -->
      <g style="fill: #ff4500" transform="translate(39.5775 210.041356) scale(0.1 -0.1)">
       <defs>
        <path id="DejaVuSans-34" d="M 2419 4116 
L 825 1625 
L 2419 1625 
L 2419 4116 
z
M 2253 4666 
L 3047 4666 
L 3047 1625 
L 3713 1625 
L 3713 1100 
L 3047 1100 
L 3047 0 
L 2419 0 
L 2419 1100 
L 313 1100 
L 313 1709 
L 2253 4666 
z
" transform="scale(0.015625)"/>
       </defs>
       <use xlink:href="#DejaVuSans-34"/>
      </g>
     </g>
    </g>
    <g id="ytick_4">
     <g id="line2d_10">
      <g>
       <use xlink:href="#m7698e8ea30" x="52.94" y="169.911072" style="fill: #ff4500; stroke: #ff4500; stroke-width: 0.8"/>
      </g>
     </g>
     <g id="text_4">
      <!-- 6 -->
      <g style="fill: #ff4500" transform="translate(39.5775 173.710291) scale(0.1 -0.1)">
       <defs>
        <path id="DejaVuSans-36" d="M 2113 2584 
Q 1688 2584 1439 2293 
Q 1191 2003 1191 1497 
Q 1191 994 1439 701 
Q 1688 409 2113 409 
Q 2538 409 2786 701 
Q 3034 994 3034 1497 
Q 3034 2003 2786 2293 
Q 2538 2584 2113 2584 
z
M 3366 4563 
L 3366 3988 
Q 3128 4100 2886 4159 
Q 2644 4219 2406 4219 
Q 1781 4219 1451 3797 
Q 1122 3375 1075 2522 
Q 1259 2794 1537 2939 
Q 1816 3084 2150 3084 
Q 2853 3084 3261 2657 
Q 3669 2231 3669 1497 
Q 3669 778 3244 343 
Q 2819 -91 2113 -91 
Q 1303 -91 875 529 
Q 447 1150 447 2328 
Q 447 3434 972 4092 
Q 1497 4750 2381 4750 
Q 2619 4750 2861 4703 
Q 3103 4656 3366 4563 
z
" transform="scale(0.015625)"/>
       </defs>
       <use xlink:href="#DejaVuSans-36"/>
      </g>
     </g>
    </g>
    <g id="ytick_5">
     <g id="line2d_11">
      <g>
       <use xlink:href="#m7698e8ea30" x="52.94" y="133.580008" style="fill: #ff4500; stroke: #ff4500; stroke-width: 0.8"/>
      </g>
     </g>
     <g id="text_5">
      <!-- 8 -->
      <g style="fill: #ff4500" transform="translate(39.5775 137.379226) scale(0.1 -0.1)">
       <defs>
        <path id="DejaVuSans-38" d="M 2034 2216 
Q 1584 2216 1326 1975 
Q 1069 1734 1069 1313 
Q 1069 891 1326 650 
Q 1584 409 2034 409 
Q 2484 409 2743 651 
Q 3003 894 3003 1313 
Q 3003 1734 2745 1975 
Q 2488 2216 2034 2216 
z
M 1403 2484 
Q 997 2584 770 2862 
Q 544 3141 544 3541 
Q 544 4100 942 4425 
Q 1341 4750 2034 4750 
Q 2731 4750 3128 4425 
Q 3525 4100 3525 3541 
Q 3525 3141 3298 2862 
Q 3072 2584 2669 2484 
Q 3125 2378 3379 2068 
Q 3634 1759 3634 1313 
Q 3634 634 3220 271 
Q 2806 -91 2034 -91 
Q 1263 -91 848 271 
Q 434 634 434 1313 
Q 434 1759 690 2068 
Q 947 2378 1403 2484 
z
M 1172 3481 
Q 1172 3119 1398 2916 
Q 1625 2713 2034 2713 
Q 2441 2713 2670 2916 
Q 2900 3119 2900 3481 
Q 2900 3844 2670 4047 
Q 2441 4250 2034 4250 
Q 1625 4250 1398 4047 
Q 1172 3844 1172 3481 
z
" transform="scale(0.015625)"/>
       </defs>
       <use xlink:href="#DejaVuSans-38"/>
      </g>
     </g>
    </g>
    <g id="ytick_6">
     <g id="line2d_12">
      <g>
       <use xlink:href="#m7698e8ea30" x="52.94" y="97.248943" style="fill: #ff4500; stroke: #ff4500; stroke-width: 0.8"/>
      </g>
     </g>
     <g id="text_6">
      <!-- 10 -->
      <g style="fill: #ff4500" transform="translate(33.215 101.048162) scale(0.1 -0.1)">
       <defs>
        <path id="DejaVuSans-31" d="M 794 531 
L 1825 531 
L 1825 4091 
L 703 3866 
L 703 4441 
L 1819 4666 
L 2450 4666 
L 2450 531 
L 3481 531 
L 3481 0 
L 794 0 
L 794 531 
z
" transform="scale(0.015625)"/>
       </defs>
       <use xlink:href="#DejaVuSans-31"/>
       <use xlink:href="#DejaVuSans-30" x="63.623047"/>
      </g>
     </g>
    </g>
    <g id="text_7">
     <!-- Output Voltage -->
     <g style="fill: #ff4500" transform="translate(27.135313 218.888281) rotate(-90) scale(0.1 -0.1)">
      <defs>
       <path id="DejaVuSans-4f" d="M 2522 4238 
Q 1834 4238 1429 3725 
Q 1025 3213 1025 2328 
Q 1025 1447 1429 934 
Q 1834 422 2522 422 
Q 3209 422 3611 934 
Q 4013 1447 4013 2328 
Q 4013 3213 3611 3725 
Q 3209 4238 2522 4238 
z
M 2522 4750 
Q 3503 4750 4090 4092 
Q 4678 3434 4678 2328 
Q 4678 1225 4090 567 
Q 3503 -91 2522 -91 
Q 1538 -91 948 565 
Q 359 1222 359 2328 
Q 359 3434 948 4092 
Q 1538 4750 2522 4750 
z
" transform="scale(0.015625)"/>
       <path id="DejaVuSans-75" d="M 544 1381 
L 544 3500 
L 1119 3500 
L 1119 1403 
Q 1119 906 1312 657 
Q 1506 409 1894 409 
Q 2359 409 2629 706 
Q 2900 1003 2900 1516 
L 2900 3500 
L 3475 3500 
L 3475 0 
L 2900 0 
L 2900 538 
Q 2691 219 2414 64 
Q 2138 -91 1772 -91 
Q 1169 -91 856 284 
Q 544 659 544 1381 
z
M 1991 3584 
L 1991 3584 
z
" transform="scale(0.015625)"/>
       <path id="DejaVuSans-74" d="M 1172 4494 
L 1172 3500 
L 2356 3500 
L 2356 3053 
L 1172 3053 
L 1172 1153 
Q 1172 725 1289 603 
Q 1406 481 1766 481 
L 2356 481 
L 2356 0 
L 1766 0 
Q 1100 0 847 248 
Q 594 497 594 1153 
L 594 3053 
L 172 3053 
L 172 3500 
L 594 3500 
L 594 4494 
L 1172 4494 
z
" transform="scale(0.015625)"/>
       <path id="DejaVuSans-70" d="M 1159 525 
L 1159 -1331 
L 581 -1331 
L 581 3500 
L 1159 3500 
L 1159 2969 
Q 1341 3281 1617 3432 
Q 1894 3584 2278 3584 
Q 2916 3584 3314 3078 
Q 3713 2572 3713 1747 
Q 3713 922 3314 415 
Q 2916 -91 2278 -91 
Q 1894 -91 1617 61 
Q 1341 213 1159 525 
z
M 3116 1747 
Q 3116 2381 2855 2742 
Q 2594 3103 2138 3103 
Q 1681 3103 1420 2742 
Q 1159 2381 1159 1747 
Q 1159 1113 1420 752 
Q 1681 391 2138 391 
Q 2594 391 2855 752 
Q 3116 1113 3116 1747 
z
" transform="scale(0.015625)"/>
       <path id="DejaVuSans-20" transform="scale(0.015625)"/>
       <path id="DejaVuSans-56" d="M 1831 0 
L 50 4666 
L 709 4666 
L 2188 738 
L 3669 4666 
L 4325 4666 
L 2547 0 
L 1831 0 
z
" transform="scale(0.015625)"/>
       <path id="DejaVuSans-6f" d="M 1959 3097 
Q 1497 3097 1228 2736 
Q 959 2375 959 1747 
Q 959 1119 1226 758 
Q 1494 397 1959 397 
Q 2419 397 2687 759 
Q 2956 1122 2956 1747 
Q 2956 2369 2687 2733 
Q 2419 3097 1959 3097 
z
M 1959 3584 
Q 2709 3584 3137 3096 
Q 3566 2609 3566 1747 
Q 3566 888 3137 398 
Q 2709 -91 1959 -91 
Q 1206 -91 779 398 
Q 353 888 353 1747 
Q 353 2609 779 3096 
Q 1206 3584 1959 3584 
z
" transform="scale(0.015625)"/>
       <path id="DejaVuSans-6c" d="M 603 4863 
L 1178 4863 
L 1178 0 
L 603 0 
L 603 4863 
z
" transform="scale(0.015625)"/>
       <path id="DejaVuSans-61" d="M 2194 1759 
Q 1497 1759 1228 1600 
Q 959 1441 959 1056 
Q 959 750 1161 570 
Q 1363 391 1709 391 
Q 2188 391 2477 730 
Q 2766 1069 2766 1631 
L 2766 1759 
L 2194 1759 
z
M 3341 1997 
L 3341 0 
L 2766 0 
L 2766 531 
Q 2569 213 2275 61 
Q 1981 -91 1556 -91 
Q 1019 -91 701 211 
Q 384 513 384 1019 
Q 384 1609 779 1909 
Q 1175 2209 1959 2209 
L 2766 2209 
L 2766 2266 
Q 2766 2663 2505 2880 
Q 2244 3097 1772 3097 
Q 1472 3097 1187 3025 
Q 903 2953 641 2809 
L 641 3341 
Q 956 3463 1253 3523 
Q 1550 3584 1831 3584 
Q 2591 3584 2966 3190 
Q 3341 2797 3341 1997 
z
" transform="scale(0.015625)"/>
       <path id="DejaVuSans-67" d="M 2906 1791 
Q 2906 2416 2648 2759 
Q 2391 3103 1925 3103 
Q 1463 3103 1205 2759 
Q 947 2416 947 1791 
Q 947 1169 1205 825 
Q 1463 481 1925 481 
Q 2391 481 2648 825 
Q 2906 1169 2906 1791 
z
M 3481 434 
Q 3481 -459 3084 -895 
Q 2688 -1331 1869 -1331 
Q 1566 -1331 1297 -1286 
Q 1028 -1241 775 -1147 
L 775 -588 
Q 1028 -725 1275 -790 
Q 1522 -856 1778 -856 
Q 2344 -856 2625 -561 
Q 2906 -266 2906 331 
L 2906 616 
Q 2728 306 2450 153 
Q 2172 0 1784 0 
Q 1141 0 747 490 
Q 353 981 353 1791 
Q 353 2603 747 3093 
Q 1141 3584 1784 3584 
Q 2172 3584 2450 3431 
Q 2728 3278 2906 2969 
L 2906 3500 
L 3481 3500 
L 3481 434 
z
" transform="scale(0.015625)"/>
       <path id="DejaVuSans-65" d="M 3597 1894 
L 3597 1613 
L 953 1613 
Q 991 1019 1311 708 
Q 1631 397 2203 397 
Q 2534 397 2845 478 
Q 3156 559 3463 722 
L 3463 178 
Q 3153 47 2828 -22 
Q 2503 -91 2169 -91 
Q 1331 -91 842 396 
Q 353 884 353 1716 
Q 353 2575 817 3079 
Q 1281 3584 2069 3584 
Q 2775 3584 3186 3129 
Q 3597 2675 3597 1894 
z
M 3022 2063 
Q 3016 2534 2758 2815 
Q 2500 3097 2075 3097 
Q 1594 3097 1305 2825 
Q 1016 2553 972 2059 
L 3022 2063 
z
" transform="scale(0.015625)"/>
      </defs>
      <use xlink:href="#DejaVuSans-4f"/>
      <use xlink:href="#DejaVuSans-75" x="78.710938"/>
      <use xlink:href="#DejaVuSans-74" x="142.089844"/>
      <use xlink:href="#DejaVuSans-70" x="181.298828"/>
      <use xlink:href="#DejaVuSans-75" x="244.775391"/>
      <use xlink:href="#DejaVuSans-74" x="308.154297"/>
      <use xlink:href="#DejaVuSans-20" x="347.363281"/>
      <use xlink:href="#DejaVuSans-56" x="379.150391"/>
      <use xlink:href="#DejaVuSans-6f" x="439.808594"/>
      <use xlink:href="#DejaVuSans-6c" x="500.990234"/>
      <use xlink:href="#DejaVuSans-74" x="528.773438"/>
      <use xlink:href="#DejaVuSans-61" x="567.982422"/>
      <use xlink:href="#DejaVuSans-67" x="629.261719"/>
      <use xlink:href="#DejaVuSans-65" x="692.738281"/>
     </g>
    </g>
   </g>
   <g id="line2d_13">
    <path d="M 81.091818 278.897727 
L 81.252701 278.762731 
L 81.467212 278.100457 
L 81.788977 276.165807 
L 82.271626 271.571341 
L 83.129668 262.936656 
L 83.665944 259.980946 
L 84.148592 257.681789 
L 84.631241 253.594952 
L 86.025559 240.377999 
L 86.45458 238.861402 
L 86.722718 237.996833 
L 87.098111 235.823665 
L 87.634388 231.184668 
L 88.331547 225.083251 
L 88.760568 223.296456 
L 89.082333 222.763714 
L 89.350471 222.486982 
L 89.618609 221.645322 
L 89.994003 219.601532 
L 90.583907 214.905259 
L 91.012928 212.298887 
L 91.334693 211.362374 
L 91.602831 211.12627 
L 91.817342 211.239629 
L 92.031852 211.321732 
L 92.192735 211.125907 
L 92.460873 210.348624 
L 92.836267 208.464168 
L 93.801564 203.152248 
L 94.069702 202.854403 
L 94.284212 202.952985 
L 94.874116 203.607486 
L 95.088627 203.253097 
L 95.410392 202.120873 
L 95.893041 199.359251 
L 96.268434 197.618608 
L 96.536572 197.124701 
L 96.751083 197.107505 
L 96.965593 197.381062 
L 97.609125 198.474703 
L 97.823635 198.189303 
L 98.145401 197.172531 
L 98.628049 194.646065 
L 99.003443 193.325905 
L 99.217953 193.103855 
L 99.378836 193.155116 
L 99.593346 193.480281 
L 100.344133 195.022835 
L 100.558644 194.758016 
L 100.826782 193.991263 
L 101.255803 191.956078 
L 101.631196 190.608882 
L 101.845706 190.384946 
L 102.006589 190.440351 
L 102.2211 190.777592 
L 102.542865 191.770144 
L 102.864631 192.625683 
L 103.079142 192.698403 
L 103.293652 192.421832 
L 103.615418 191.447973 
L 104.419832 188.56945 
L 104.634343 188.577582 
L 104.848853 188.898863 
L 105.170619 189.881471 
L 105.546012 191.028958 
L 105.760523 191.150998 
L 105.921405 191.009792 
L 106.189544 190.387123 
L 106.564937 188.831061 
L 106.94033 187.493423 
L 107.154841 187.277867 
L 107.315723 187.345042 
L 107.530234 187.704407 
L 107.852 188.741949 
L 108.227393 189.950328 
L 108.441903 190.105701 
L 108.602786 189.988818 
L 108.870924 189.405435 
L 109.246318 187.90185 
L 109.782594 184.687034 
L 110.533381 180.200854 
L 111.016029 178.781036 
L 111.498678 176.380068 
L 112.195837 171.674162 
L 113.214761 164.774512 
L 113.804665 163.071554 
L 114.340941 160.529638 
L 115.198983 155.189619 
L 115.788887 151.870231 
L 116.057025 151.50483 
L 116.325163 151.102114 
L 116.700557 150.095655 
L 117.236833 147.97089 
L 118.041247 143.787964 
L 118.41664 142.211088 
L 118.631151 142.042997 
L 118.899289 142.072959 
L 119.167427 141.820719 
L 119.54282 141.057056 
L 120.079097 139.326356 
L 121.205277 135.307439 
L 121.419787 135.527606 
L 121.687925 135.688478 
L 121.956063 135.56427 
L 122.277829 135.100936 
L 122.70685 134.055887 
L 123.350381 131.82418 
L 123.725775 130.694788 
L 123.886658 130.683801 
L 124.154796 131.135717 
L 124.476561 131.42227 
L 124.744699 131.357669 
L 125.066465 130.979185 
L 125.495486 130.06469 
L 126.139017 128.053938 
L 126.407156 127.480992 
L 126.568038 127.544158 
L 127.318825 128.598147 
L 127.586963 128.49822 
L 127.908729 128.101637 
L 128.391377 127.058383 
L 129.142164 125.310689 
L 129.303047 125.519805 
L 129.839323 126.590462 
L 130.107461 126.710905 
L 130.375599 126.593819 
L 130.697365 126.191543 
L 131.180014 125.164255 
L 131.769917 123.834564 
L 131.9308 123.982371 
L 132.735215 125.429858 
L 133.003353 125.406264 
L 133.325118 125.104539 
L 133.754139 124.329461 
L 134.451298 122.840828 
L 134.504926 122.865407 
L 134.665809 123.131376 
L 135.362968 125.389241 
L 135.791989 128.373511 
L 136.381893 134.295328 
L 137.293562 145.988701 
L 138.097976 155.713167 
L 139.492294 173.52152 
L 140.618474 186.973062 
L 142.602696 207.415778 
L 143.1926 212.421988 
L 144.426035 221.365113 
L 145.820353 231.207406 
L 146.624768 234.906626 
L 148.662617 244.821623 
L 149.252521 246.546922 
L 150.16419 249.973199 
L 151.07586 253.399991 
L 151.558509 253.946369 
L 152.094785 255.019148 
L 152.845571 257.077628 
L 153.757241 259.623436 
L 154.186262 259.71113 
L 154.561655 260.076144 
L 155.097931 260.958632 
L 155.848718 262.675885 
L 156.384994 263.84432 
L 157.189408 263.782881 
L 157.618429 264.200731 
L 158.208333 265.138532 
L 159.066375 266.712455 
L 159.120003 266.679691 
L 159.602651 266.323835 
L 159.978045 266.372035 
L 160.407066 266.701323 
L 160.943342 267.419457 
L 161.747756 268.650108 
L 161.801384 268.602199 
L 162.015894 268.065184 
L 162.33766 266.344775 
L 162.766681 262.668554 
L 163.410212 255.012119 
L 165.984338 218.750299 
L 167.217773 201.651017 
L 170.060037 169.46503 
L 172.580535 148.577981 
L 173.706715 141.741513 
L 175.047405 133.818084 
L 175.690937 131.569444 
L 176.709861 127.080401 
L 177.675159 123.021242 
L 178.10418 122.286483 
L 178.694083 120.784226 
L 179.605753 117.770627 
L 180.302912 115.607727 
L 180.731933 115.359157 
L 181.160954 114.771953 
L 181.750858 113.550926 
L 182.662527 111.080547 
L 182.930665 110.542036 
L 183.735079 110.403211 
L 184.217728 109.806183 
L 184.861259 108.599057 
L 185.665674 107.111669 
L 186.094695 107.378997 
L 186.41646 107.332781 
L 186.845481 107.004073 
L 187.381757 106.269113 
L 188.293427 104.755136 
L 188.347055 104.796608 
L 188.829703 105.227816 
L 189.205097 105.23467 
L 189.58049 105.012201 
L 190.116766 104.393157 
L 191.189318 102.968416 
L 191.564712 102.874459 
L 192.04736 102.483829 
L 192.690892 101.625019 
L 193.870699 99.969276 
L 194.29972 99.885586 
L 194.782369 99.539346 
L 195.4259 98.784297 
L 196.498453 97.466064 
L 196.927474 97.524418 
L 197.410122 97.329922 
L 198.000026 96.821615 
L 198.858068 95.744201 
L 199.072578 95.580065 
L 199.662482 95.809962 
L 200.145131 95.695709 
L 200.735034 95.288084 
L 201.539449 94.423022 
L 201.753959 94.297723 
L 202.343863 94.629288 
L 202.826512 94.592761 
L 203.362788 94.312641 
L 204.113574 93.634775 
L 204.43534 93.420888 
L 205.025244 93.823751 
L 205.507892 93.841387 
L 206.044169 93.617313 
L 206.741328 93.062763 
L 207.116721 92.825683 
L 207.760252 93.296125 
L 208.242901 93.323906 
L 208.779177 93.116442 
L 209.476336 92.588942 
L 209.798102 92.422855 
L 210.441633 92.929404 
L 210.924282 92.982141 
L 211.460558 92.800429 
L 212.157717 92.303538 
L 212.479483 92.15056 
L 213.123014 92.681557 
L 213.605663 92.751184 
L 214.141939 92.586895 
L 214.839098 92.110707 
L 215.160864 91.966593 
L 215.375374 92.352872 
L 215.643512 93.549788 
L 216.018906 96.435354 
L 216.555182 102.433129 
L 217.413224 114.999332 
L 222.400592 193.74536 
L 223.687655 209.364425 
L 225.242856 225.132523 
L 226.422664 235.078429 
L 227.977864 245.979271 
L 229.050417 252.192439 
L 230.820128 260.632869 
L 231.731798 264.143193 
L 233.876902 271.012611 
L 234.413179 272.247706 
L 236.504656 276.60775 
L 236.880049 276.954061 
L 238.971526 278.339317 
L 239.454175 278.402544 
L 239.883196 278.358429 
L 242.135556 278.628404 
L 242.350066 277.983473 
L 242.671832 276.071491 
L 243.15448 271.504638 
L 243.851639 262.378217 
L 247.44469 210.821022 
L 248.678125 196.279027 
L 250.072443 180.085914 
L 250.984113 172.646386 
L 252.861079 156.976852 
L 253.558238 153.251894 
L 254.738046 145.515315 
L 255.32795 142.018707 
L 256.185992 139.445605 
L 256.990406 135.85196 
L 258.062958 131.072389 
L 258.438352 130.694892 
L 258.867373 129.825192 
L 259.457276 128.05374 
L 260.744339 123.743025 
L 260.797967 123.76116 
L 261.066105 123.777525 
L 261.387871 123.525608 
L 261.816892 122.818818 
L 262.406795 121.33506 
L 263.372092 118.7471 
L 263.961996 119.05325 
L 264.283762 118.843614 
L 264.712783 118.227981 
L 265.302687 116.917103 
L 265.999846 115.33984 
L 266.160729 115.514447 
L 266.536122 115.91725 
L 266.857888 115.936805 
L 267.179653 115.712809 
L 267.608674 115.113101 
L 268.198578 113.873484 
L 268.627599 113.027716 
L 268.788482 113.166981 
L 269.217503 113.790394 
L 269.539269 113.907766 
L 269.861034 113.777092 
L 270.290055 113.295177 
L 270.987214 112.233446 
L 271.040842 112.2703 
L 271.201725 112.582959 
L 271.469863 113.71274 
L 272.006139 116.077122 
L 272.43516 117.025328 
L 272.756926 117.303099 
L 273.078691 117.281593 
L 273.400457 117.015205 
L 273.614968 116.868279 
L 273.77585 117.07801 
L 274.043989 118.040883 
L 274.794775 121.404164 
L 275.170169 122.106173 
L 275.491934 122.288624 
L 275.760072 122.197833 
L 276.081838 121.848263 
L 276.296348 121.636409 
L 276.457231 121.793408 
L 276.671742 122.432159 
L 277.583411 125.945115 
L 277.905177 126.304488 
L 278.173315 126.316181 
L 278.495081 126.044239 
L 279.084985 125.34056 
L 279.245867 125.61774 
L 279.514006 126.647206 
L 279.996654 128.551695 
L 280.372047 129.207156 
L 280.640186 129.316717 
L 280.908324 129.17842 
L 281.230089 128.739409 
L 281.766366 127.915174 
L 281.927248 128.136758 
L 282.195386 129.075731 
L 282.678035 130.824181 
L 282.999801 131.324978 
L 283.267939 131.409473 
L 283.536077 131.24032 
L 283.91147 130.652019 
L 284.447746 129.688043 
L 284.608629 129.869573 
L 284.876767 130.743657 
L 285.359416 132.381034 
L 285.681182 132.811695 
L 285.94932 132.840051 
L 286.217458 132.616789 
L 286.592851 131.956029 
L 287.129127 130.894914 
L 287.29001 131.048691 
L 287.504521 131.659223 
L 288.040797 133.438666 
L 288.362563 133.821083 
L 288.630701 133.81089 
L 288.898839 133.550526 
L 289.274232 132.840159 
L 289.810508 131.712665 
L 289.971391 131.847504 
L 290.185902 132.433456 
L 290.722178 134.154689 
L 291.043943 134.504279 
L 291.312082 134.467873 
L 291.58022 134.182296 
L 291.955613 133.438237 
L 292.491889 132.265697 
L 292.652772 132.38769 
L 292.867283 132.956975 
L 293.403559 134.638755 
L 293.725324 134.966105 
L 293.993462 134.911947 
L 294.315228 134.522523 
L 294.744249 133.561283 
L 295.17327 132.639409 
L 295.334153 132.75271 
L 295.548663 133.31072 
L 296.08494 134.965815 
L 296.406705 135.278126 
L 296.674843 135.211964 
L 296.996609 134.808743 
L 297.693768 133.637587 
L 297.854651 133.887286 
L 298.122789 134.845857 
L 298.927203 138.340767 
L 299.248969 138.760281 
L 299.46348 138.776137 
L 299.731618 138.5447 
L 300.375149 137.712406 
L 300.58966 138.14043 
L 300.911425 139.537602 
L 301.447701 142.041229 
L 301.769467 142.683484 
L 302.037605 142.808871 
L 302.252116 142.681795 
L 302.573881 142.171199 
L 303.002902 141.430724 
L 303.163785 141.573969 
L 303.378296 142.144257 
L 303.753689 143.973137 
L 304.129082 145.412217 
L 304.450848 145.939447 
L 304.665359 145.989479 
L 304.879869 145.833001 
L 305.201635 145.267741 
L 305.737911 144.248978 
L 305.898794 144.421856 
L 306.166932 145.229112 
L 306.917718 148.061772 
L 307.185857 148.297346 
L 307.400367 148.227732 
L 307.668505 147.86494 
L 308.043898 146.928762 
L 308.365664 146.231059 
L 308.526547 146.275441 
L 308.741058 146.716025 
L 309.062823 148.065868 
L 309.438217 149.432831 
L 309.759982 149.882096 
L 309.974493 149.873537 
L 310.242631 149.569581 
L 310.618024 148.687956 
L 311.100673 147.567267 
L 311.261556 147.666417 
L 311.476066 148.168322 
L 312.387736 150.97082 
L 312.602246 150.985374 
L 312.870384 150.701653 
L 313.245777 149.83466 
L 313.782054 148.485408 
L 313.942936 148.563402 
L 314.157447 149.037838 
L 315.069116 151.732523 
L 315.283627 151.723683 
L 315.551765 151.411712 
L 315.927158 150.506954 
L 316.463435 149.107181 
L 316.624317 149.170763 
L 316.838828 149.626497 
L 317.750497 152.247871 
L 317.965008 152.223142 
L 318.233146 151.891994 
L 318.608539 150.961611 
L 319.144815 149.527582 
L 319.305698 149.581396 
L 319.520209 150.024455 
L 320.431878 152.596179 
L 320.646389 152.560695 
L 320.914527 152.216567 
L 321.28992 151.268845 
L 321.826196 149.811642 
L 321.987079 149.858848 
L 322.20159 150.293336 
L 323.32777 154.207148 
L 323.810418 157.379867 
L 324.507577 163.777434 
L 325.79464 175.986225 
L 326.545427 182.328774 
L 328.529649 200.044286 
L 329.334063 205.569544 
L 330.996519 217.563155 
L 331.532795 219.674716 
L 332.283582 223.675819 
L 333.570645 230.781371 
L 333.999666 231.526559 
L 334.482314 232.968562 
L 335.179473 235.843798 
L 336.198398 240.121663 
L 336.734674 240.399495 
L 337.110068 241.068971 
L 337.646344 242.558203 
L 338.450758 245.569645 
L 338.772524 246.510775 
L 338.933407 246.520785 
L 339.3088 246.322087 
L 339.576938 246.455368 
L 339.952331 246.963824 
L 340.43498 248.048541 
L 341.132139 250.209037 
L 341.453905 250.938162 
L 341.614787 250.845747 
L 341.990181 250.417121 
L 342.258319 250.39356 
L 342.580085 250.628823 
L 343.009106 251.302403 
L 343.599009 252.725542 
L 344.135286 253.933226 
L 344.296168 253.771272 
L 344.725189 253.142467 
L 345.046955 253.064231 
L 345.368721 253.263546 
L 345.797742 253.872993 
L 346.387645 255.186205 
L 346.763039 255.959108 
L 346.923922 255.850887 
L 347.513825 254.909985 
L 347.835591 254.846501 
L 348.157357 255.046266 
L 348.586378 255.638483 
L 349.176282 256.903082 
L 349.44442 257.33733 
L 349.605303 257.197044 
L 349.819813 256.561229 
L 350.141579 254.778574 
L 350.624227 250.615045 
L 351.321386 242.386914 
L 352.501194 225.322863 
L 355.611596 179.424123 
L 357.113169 160.965539 
L 358.507487 146.48402 
L 359.848178 134.799214 
L 361.188868 125.048586 
L 362.475931 117.252365 
L 363.762994 110.755729 
L 365.050057 105.353452 
L 366.337119 100.867342 
L 367.624182 97.145349 
L 368.964873 93.942668 
L 370.305563 91.308767 
L 371.646254 89.143203 
L 373.040572 87.2988 
L 374.488517 85.742673 
L 376.043718 84.400531 
L 377.438036 83.452273 
L 377.545292 83.509406 
L 377.706175 83.889512 
L 377.974313 85.224569 
L 378.403334 88.875919 
L 379.744024 101.874059 
L 380.709321 108.011342 
L 381.299225 114.70739 
L 381.996384 122.462778 
L 382.479033 125.528052 
L 383.390702 130.173383 
L 383.980606 135.838303 
L 384.624137 141.896396 
L 385.053158 143.998231 
L 385.428552 144.826467 
L 385.643062 145.217332 
L 385.964828 146.505542 
L 386.393849 149.325347 
L 387.466401 157.068396 
L 387.788167 157.803879 
L 388.002677 157.92745 
L 388.324443 157.914706 
L 388.538953 158.323984 
L 388.860719 159.586408 
L 389.343368 162.647049 
L 389.933271 166.339711 
L 390.255037 167.133534 
L 390.469548 167.255457 
L 390.684058 167.098179 
L 391.059451 166.678656 
L 391.220334 166.8256 
L 391.488472 167.51157 
L 391.863866 169.251369 
L 392.66828 173.442751 
L 392.936418 173.786989 
L 393.150929 173.70674 
L 393.419067 173.226317 
L 393.740832 172.604071 
L 393.901715 172.614922 
L 394.116226 172.946282 
L 394.437991 174.029376 
L 395.456916 178.265743 
L 395.671427 178.274183 
L 395.885937 177.984574 
L 396.26133 176.932243 
L 396.529469 176.541391 
L 396.690351 176.600306 
L 396.904862 176.978193 
L 397.226628 178.098216 
L 398.031042 181.31349 
L 398.245552 181.388697 
L 398.460063 181.148189 
L 398.781828 180.282096 
L 399.157222 179.26377 
L 399.371732 179.212441 
L 399.586243 179.509742 
L 399.908008 180.513504 
L 400.712423 183.460903 
L 400.926933 183.469813 
L 401.141444 183.165048 
L 401.463209 182.206262 
L 401.838603 181.08518 
L 402.053113 180.977595 
L 402.267624 181.220375 
L 402.535762 181.949258 
L 402.964783 183.880304 
L 403.447431 186.682674 
L 404.198218 192.474699 
L 405.538908 204.900913 
L 408.166662 228.261346 
L 409.185586 235.853201 
L 410.90167 247.375478 
L 412.135105 253.855188 
L 413.690306 261.129488 
L 416.425315 270.31581 
L 419.106696 276.291821 
L 420.876407 277.980202 
L 421.680821 278.321935 
L 422.485236 278.354733 
L 423.665043 278.64238 
L 424.469458 278.661897 
L 424.898479 278.554964 
L 425.702893 278.680026 
L 427.097211 278.766559 
L 427.472604 278.617007 
L 428.00888 278.657227 
L 429.671337 278.816295 
L 429.832219 278.6892 
L 430.04673 278.036513 
L 430.368496 276.114389 
L 430.851144 271.535173 
L 431.548303 262.39564 
L 432.191835 254.453528 
L 433.210759 244.271664 
L 434.176057 231.028761 
L 434.819588 223.084576 
L 436.374789 208.995805 
L 437.554596 196.833974 
L 438.680776 190.419322 
L 439.538818 182.951278 
L 440.075095 178.833421 
L 440.39686 177.847071 
L 440.718626 177.175912 
L 441.094019 175.760148 
L 441.683923 172.476997 
L 442.863731 165.378805 
L 443.078241 165.222603 
L 443.346379 165.167822 
L 443.614517 164.738426 
L 443.989911 163.598142 
L 444.526187 161.131144 
L 445.437856 156.60428 
L 445.652367 156.499414 
L 446.188643 156.856072 
L 446.456781 156.530423 
L 446.832174 155.571228 
L 447.368451 153.417009 
L 448.06561 150.53433 
L 448.226492 150.46868 
L 448.387375 150.654222 
L 448.816396 151.348308 
L 449.030907 151.339296 
L 449.299045 151.028744 
L 449.674438 150.128509 
L 450.210714 148.117642 
L 450.693363 146.409055 
L 450.854246 146.351574 
L 451.015129 146.551561 
L 451.605032 147.689343 
L 451.819543 147.682722 
L 452.087681 147.389981 
L 452.463074 146.537718 
L 452.999351 144.631194 
L 453.321116 143.623701 
L 453.481999 143.541144 
L 453.642882 143.723258 
L 454.447296 145.27347 
L 454.661807 145.185992 
L 454.929945 144.816654 
L 455.305338 143.896048 
L 456.109752 141.631576 
L 456.270635 141.772754 
L 456.538773 142.528388 
L 456.914167 144.303789 
L 457.396815 147.909759 
L 458.093974 154.965506 
L 459.381037 170.778423 
L 462.705949 210.541758 
L 464.368406 226.738784 
L 465.38733 234.894948 
L 466.996159 246.172907 
L 467.907828 251.321059 
L 469.623912 259.765049 
L 470.428326 262.916548 
L 472.519804 269.960939 
L 473.05608 271.273103 
L 475.30844 276.297297 
L 476.43462 277.486936 
L 477.239034 278.045316 
L 477.989821 278.343833 
L 478.794235 278.367732 
L 479.974042 278.648646 
L 480.778457 278.665707 
L 481.207478 278.557852 
L 482.011892 278.681759 
L 483.352582 278.786663 
L 483.513465 278.566712 
L 483.727976 277.780134 
L 484.049741 275.689374 
L 484.53239 270.91808 
L 485.283177 260.85932 
L 485.819453 254.844449 
L 486.78475 245.700803 
L 487.696419 233.542713 
L 488.393579 224.894177 
L 490.16329 209.012 
L 491.074959 199.686284 
L 491.50398 197.817159 
L 491.933001 195.591042 
L 492.576533 190.847587 
L 493.809968 181.272939 
L 494.131734 180.677731 
L 494.399872 180.078447 
L 494.775265 178.627242 
L 495.311541 175.604921 
L 496.437721 168.806278 
L 496.652232 168.614776 
L 496.973997 168.636342 
L 497.188508 168.350822 
L 497.510274 167.497907 
L 497.992922 165.454721 
L 499.119102 160.168761 
L 499.279985 160.183437 
L 499.816261 160.633231 
L 500.030772 160.409345 
L 500.352537 159.678356 
L 500.835186 157.870287 
L 501.693228 154.34477 
L 501.854111 154.332577 
L 502.068621 154.684789 
L 502.390387 155.276417 
L 502.604897 155.337218 
L 502.819408 155.162158 
L 503.141174 154.52202 
L 503.570194 153.097351 
L 504.320981 150.347125 
L 504.481864 150.343814 
L 504.696374 150.71708 
L 505.125395 151.705988 
L 505.339906 151.81616 
L 505.554416 151.694858 
L 505.822554 151.261998 
L 506.251575 150.035432 
L 507.002362 147.603412 
L 507.163245 147.663885 
L 507.377755 148.119901 
L 507.860404 149.336728 
L 508.128542 149.455385 
L 508.343052 149.301395 
L 508.664818 148.720232 
L 509.093839 147.415472 
L 509.630115 145.773616 
L 509.790998 145.790597 
L 510.005509 146.199944 
L 510.64904 147.836661 
L 510.863551 148.299509 
L 511.185316 149.684955 
L 511.667965 153.006648 
L 512.365124 159.656949 
L 513.384049 169.49549 
L 514.02758 174.476608 
L 514.992877 183.979006 
L 515.958174 193.078759 
L 516.601706 196.863642 
L 517.513375 203.87936 
L 518.585928 212.100878 
L 519.336714 214.936499 
L 520.087501 219.130052 
L 521.267308 225.95215 
L 521.857212 226.99208 
L 522.339861 228.588529 
L 523.090648 231.992159 
L 523.841434 235.422783 
L 524.055945 235.527695 
L 524.324083 235.577582 
L 524.592221 235.886176 
L 524.967614 236.675653 
L 525.50389 238.358566 
L 526.63007 242.06602 
L 527.112719 241.766364 
L 527.380857 241.934951 
L 527.75625 242.51811 
L 528.238899 243.732274 
L 529.257824 246.543245 
L 529.472334 246.226345 
L 529.7941 245.896101 
L 530.062238 245.906533 
L 530.384004 246.202739 
L 530.813025 246.984646 
L 531.402928 248.59303 
L 531.831949 249.607041 
L 531.992832 249.493153 
L 532.529108 248.650235 
L 532.797246 248.600657 
L 533.065384 248.765155 
L 533.440778 249.291917 
L 533.977054 250.506817 
L 534.51333 251.6807 
L 534.674213 251.518598 
L 535.264117 250.479483 
L 535.532255 250.404177 
L 535.800393 250.538592 
L 536.175786 251.017436 
L 536.712063 252.155419 
L 537.141083 253.07941 
L 537.301966 252.984246 
L 537.516477 252.41308 
L 537.838243 250.735331 
L 538.320891 246.742303 
L 538.910795 241.87998 
L 539.339816 239.948925 
L 540.14423 237.226823 
L 540.626879 233.564127 
L 541.806686 223.650474 
L 542.18208 222.544404 
L 542.611101 221.690288 
L 542.932866 220.19979 
L 543.415515 216.787246 
L 544.327184 209.889088 
L 544.64895 208.981425 
L 544.917088 208.777329 
L 545.185226 208.731461 
L 545.399737 208.308124 
L 545.721502 207.060548 
L 546.204151 204.087545 
L 546.90131 199.573092 
L 547.223076 198.832338 
L 547.437586 198.764863 
L 547.652097 198.989452 
L 547.920235 199.201695 
L 548.081118 199.051227 
L 548.349256 198.385091 
L 548.724649 196.718644 
L 549.689946 191.80408 
L 549.904457 191.621921 
L 550.065339 191.702748 
L 550.333478 192.199595 
L 550.601616 192.663278 
L 550.762499 192.659631 
L 550.977009 192.356082 
L 551.298775 191.34832 
L 551.727796 189.169626 
L 552.156817 187.11893 
L 552.424955 186.681759 
L 552.585838 186.693445 
L 552.800348 186.988685 
L 553.497507 188.292099 
L 553.712018 188.041126 
L 553.980156 187.317264 
L 554.409177 185.381302 
L 554.838197 183.558997 
L 555.106336 183.257698 
L 555.267218 183.348452 
L 555.481729 183.746331 
L 556.178888 185.362335 
L 556.339771 185.271165 
L 556.607909 184.742869 
L 556.983302 183.337742 
L 557.573206 181.058756 
L 557.787716 180.940218 
L 557.948599 181.084737 
L 558.216737 181.714055 
L 558.806641 183.353871 
L 558.967524 183.370805 
L 559.182035 183.116163 
L 559.5038 182.221303 
L 560.361842 179.361217 
L 560.522725 179.413069 
L 560.737235 179.775162 
L 561.059001 180.859752 
L 561.434395 181.944595 
L 561.648905 182.052452 
L 561.863415 181.838528 
L 562.131554 181.180382 
L 562.560575 179.404281 
L 562.88234 178.41917 
L 563.096851 178.289404 
L 563.257734 178.431699 
L 563.525872 179.067655 
L 564.223031 181.136786 
L 564.383914 181.143826 
L 564.598424 180.883314 
L 564.92019 179.993273 
L 565.778232 177.206011 
L 565.939114 177.278655 
L 566.153625 177.671046 
L 566.529018 178.991738 
L 566.850784 179.687673 
L 567.065294 179.707867 
L 567.279805 179.424249 
L 567.601571 178.512882 
L 568.405985 175.748321 
L 568.566868 175.759715 
L 568.781378 176.08343 
L 569.103144 177.139571 
L 569.478537 178.228192 
L 569.693048 178.352809 
L 569.907558 178.164638 
L 570.175696 177.549513 
L 570.604717 175.844274 
L 570.980111 174.635518 
L 571.194621 174.533087 
L 571.409132 174.799687 
L 571.67727 175.580958 
L 572.159918 177.152772 
L 572.374429 177.304636 
L 572.588939 177.14345 
L 572.857077 176.561618 
L 573.232471 175.157046 
L 573.607864 173.826917 
L 573.822374 173.649024 
L 573.983257 173.768426 
L 574.251395 174.388354 
L 575.002182 176.551857 
L 575.163065 176.53097 
L 575.377575 176.24948 
L 575.699341 175.358266 
L 576.3965 173.071934 
L 576.557383 173.064602 
L 576.771893 173.373201 
L 577.093659 174.425041 
L 577.52268 175.865634 
L 577.73719 176.05514 
L 577.951701 175.930642 
L 578.219839 175.39334 
L 578.595232 174.04867 
L 578.970626 172.775644 
L 579.185136 172.62917 
L 579.346019 172.771567 
L 579.614157 173.428756 
L 580.364944 175.689763 
L 580.579454 175.650556 
L 580.793965 175.327109 
L 581.11573 174.387678 
L 581.759262 172.366469 
L 581.920145 172.375338 
L 582.134655 172.70498 
L 582.456421 173.787217 
L 582.885442 175.266241 
L 583.099952 175.474109 
L 583.260835 175.421344 
L 583.475346 175.104952 
L 583.797111 174.175702 
L 584.440643 172.173485 
L 584.601526 172.186833 
L 584.816036 172.522286 
L 585.137802 173.612908 
L 585.566823 175.102516 
L 585.781333 175.315435 
L 585.942216 175.266356 
L 586.156727 174.954747 
L 586.478492 174.032397 
L 587.122024 172.043044 
L 587.282907 172.059424 
L 587.497417 172.398811 
L 587.819183 173.495108 
L 588.248204 174.991879 
L 588.462714 175.208215 
L 588.623597 175.16163 
L 588.838107 174.853256 
L 589.159873 173.935572 
L 589.803405 171.954919 
L 589.964287 171.973349 
L 590.178798 172.315395 
L 590.500564 173.415529 
L 590.929585 174.91714 
L 591.573116 176.086046 
L 591.948509 177.814947 
L 592.538413 181.784335 
L 593.879104 191.568935 
L 594.308124 193.509196 
L 594.951656 197.611955 
L 596.560484 208.542076 
L 596.935878 209.751218 
L 597.472154 212.281097 
L 598.330196 217.601015 
L 598.973727 221.295779 
L 599.241865 221.66013 
L 599.510003 222.059297 
L 599.885397 223.057299 
L 600.421673 225.164578 
L 601.226087 229.313465 
L 601.601481 230.872524 
L 601.815991 231.030112 
L 602.084129 230.9868 
L 602.352267 231.22554 
L 602.727661 231.97021 
L 603.263937 233.673922 
L 604.390117 237.638284 
L 604.604627 237.408203 
L 604.872765 237.235184 
L 605.140903 237.347536 
L 605.462669 237.797041 
L 605.89169 238.824344 
L 606.535221 241.03094 
L 606.910615 242.146523 
L 607.071498 242.151777 
L 607.339636 241.690555 
L 607.661401 241.393232 
L 607.92954 241.449185 
L 608.251305 241.817675 
L 608.680326 242.71948 
L 609.27023 244.523776 
L 609.591996 245.278498 
L 609.752879 245.211283 
L 610.503665 244.139537 
L 610.771803 244.233555 
L 611.093569 244.623333 
L 611.52259 245.519758 
L 612.327004 247.390871 
L 612.487887 247.178991 
L 613.024163 246.09957 
L 613.292301 245.97499 
L 613.560439 246.088095 
L 613.882205 246.485791 
L 614.364854 247.506595 
L 614.954758 248.828952 
L 615.11564 248.679251 
L 615.920055 247.222929 
L 616.188193 247.243798 
L 616.509958 247.542391 
L 616.938979 248.313515 
L 617.636138 249.796228 
L 617.689766 249.771218 
L 617.850649 249.503975 
L 618.118787 248.479546 
L 618.49418 246.023048 
L 619.298595 240.36693 
L 619.727616 239.035846 
L 620.049381 238.655151 
L 620.263892 238.379352 
L 620.53203 237.439268 
L 620.907423 235.163058 
L 622.194486 226.18818 
L 622.516252 225.572328 
L 622.78439 225.469309 
L 622.945273 225.332214 
L 623.159783 224.784292 
L 623.481549 223.287928 
L 623.964197 219.831955 
L 624.500474 216.170863 
L 624.875867 215.015037 
L 625.144005 214.767979 
L 625.358515 214.861588 
L 625.626654 215.026174 
L 625.787536 214.83846 
L 626.055674 214.05918 
L 626.431068 212.144344 
L 627.28911 207.30488 
L 627.557248 206.871887 
L 627.771758 206.863954 
L 627.986269 207.116386 
L 628.361662 207.662986 
L 628.522545 207.557296 
L 628.737055 207.093391 
L 629.058821 205.800968 
L 630.024118 201.338754 
L 630.238629 201.205205 
L 630.453139 201.364657 
L 630.721277 201.919926 
L 631.043043 202.601338 
L 631.203926 202.609409 
L 631.418436 202.293534 
L 631.740202 201.215498 
L 632.705499 197.343829 
L 632.92001 197.331364 
L 633.13452 197.608392 
L 633.456286 198.486924 
L 633.778052 199.205167 
L 633.938934 199.218669 
L 634.153445 198.918179 
L 634.475211 197.878233 
L 635.279625 194.716247 
L 635.494135 194.628312 
L 635.708646 194.847389 
L 635.976784 195.493975 
L 636.51306 196.930989 
L 636.673943 196.926465 
L 636.888453 196.610627 
L 637.210219 195.563872 
L 637.907378 192.911579 
L 638.121889 192.798183 
L 638.336399 193.000462 
L 638.604537 193.636671 
L 639.248069 195.407536 
L 639.408951 195.369516 
L 639.623462 195.018035 
L 639.945228 193.934769 
L 640.535131 191.713713 
L 640.749642 191.554148 
L 640.910525 191.650187 
L 641.178663 192.169423 
L 641.607684 193.717941 
L 641.875822 194.320526 
L 642.090332 194.349308 
L 642.304843 194.029338 
L 642.626609 192.991525 
L 643.216512 190.848439 
L 643.431023 190.715606 
L 643.645533 190.907113 
L 643.913671 191.540456 
L 644.128182 192.318065 
L 644.128182 192.318065 
" clip-path="url(#pd3896ee52d)" style="fill: none; stroke: #ff4500; stroke-width: 1.5; stroke-linecap: square"/>
   </g>
   <g id="patch_3">
    <path d="M 52.94 288.67 
L 52.94 73.68 
" style="fill: none; stroke: #ff4500; stroke-width: 0.8; stroke-linejoin: miter; stroke-linecap: square"/>
   </g>
   <g id="patch_4">
    <path d="M 672.28 288.67 
L 672.28 73.68 
" style="fill: none; stroke: #000000; stroke-width: 0.8; stroke-linejoin: miter; stroke-linecap: square"/>
   </g>
   <g id="patch_5">
    <path d="M 52.94 288.67 
L 672.28 288.67 
" style="fill: none; stroke: #000000; stroke-width: 0.8; stroke-linejoin: miter; stroke-linecap: square"/>
   </g>
   <g id="patch_6">
    <path d="M 52.94 73.68 
L 672.28 73.68 
" style="fill: none; stroke: #808080; stroke-width: 0.8; stroke-linejoin: miter; stroke-linecap: square"/>
   </g>
   <g id="text_8">
    <!-- Output Voltage and Duty Cycle -->
    <g transform="translate(269.620312 67.68) scale(0.12 -0.12)">
     <defs>
      <path id="DejaVuSans-6e" d="M 3513 2113 
L 3513 0 
L 2938 0 
L 2938 2094 
Q 2938 2591 2744 2837 
Q 2550 3084 2163 3084 
Q 1697 3084 1428 2787 
Q 1159 2491 1159 1978 
L 1159 0 
L 581 0 
L 581 3500 
L 1159 3500 
L 1159 2956 
Q 1366 3272 1645 3428 
Q 1925 3584 2291 3584 
Q 2894 3584 3203 3211 
Q 3513 2838 3513 2113 
z
" transform="scale(0.015625)"/>
      <path id="DejaVuSans-64" d="M 2906 2969 
L 2906 4863 
L 3481 4863 
L 3481 0 
L 2906 0 
L 2906 525 
Q 2725 213 2448 61 
Q 2172 -91 1784 -91 
Q 1150 -91 751 415 
Q 353 922 353 1747 
Q 353 2572 751 3078 
Q 1150 3584 1784 3584 
Q 2172 3584 2448 3432 
Q 2725 3281 2906 2969 
z
M 947 1747 
Q 947 1113 1208 752 
Q 1469 391 1925 391 
Q 2381 391 2643 752 
Q 2906 1113 2906 1747 
Q 2906 2381 2643 2742 
Q 2381 3103 1925 3103 
Q 1469 3103 1208 2742 
Q 947 2381 947 1747 
z
" transform="scale(0.015625)"/>
      <path id="DejaVuSans-44" d="M 1259 4147 
L 1259 519 
L 2022 519 
Q 2988 519 3436 956 
Q 3884 1394 3884 2338 
Q 3884 3275 3436 3711 
Q 2988 4147 2022 4147 
L 1259 4147 
z
M 628 4666 
L 1925 4666 
Q 3281 4666 3915 4102 
Q 4550 3538 4550 2338 
Q 4550 1131 3912 565 
Q 3275 0 1925 0 
L 628 0 
L 628 4666 
z
" transform="scale(0.015625)"/>
      <path id="DejaVuSans-79" d="M 2059 -325 
Q 1816 -950 1584 -1140 
Q 1353 -1331 966 -1331 
L 506 -1331 
L 506 -850 
L 844 -850 
Q 1081 -850 1212 -737 
Q 1344 -625 1503 -206 
L 1606 56 
L 191 3500 
L 800 3500 
L 1894 763 
L 2988 3500 
L 3597 3500 
L 2059 -325 
z
" transform="scale(0.015625)"/>
      <path id="DejaVuSans-43" d="M 4122 4306 
L 4122 3641 
Q 3803 3938 3442 4084 
Q 3081 4231 2675 4231 
Q 1875 4231 1450 3742 
Q 1025 3253 1025 2328 
Q 1025 1406 1450 917 
Q 1875 428 2675 428 
Q 3081 428 3442 575 
Q 3803 722 4122 1019 
L 4122 359 
Q 3791 134 3420 21 
Q 3050 -91 2638 -91 
Q 1578 -91 968 557 
Q 359 1206 359 2328 
Q 359 3453 968 4101 
Q 1578 4750 2638 4750 
Q 3056 4750 3426 4639 
Q 3797 4528 4122 4306 
z
" transform="scale(0.015625)"/>
      <path id="DejaVuSans-63" d="M 3122 3366 
L 3122 2828 
Q 2878 2963 2633 3030 
Q 2388 3097 2138 3097 
Q 1578 3097 1268 2742 
Q 959 2388 959 1747 
Q 959 1106 1268 751 
Q 1578 397 2138 397 
Q 2388 397 2633 464 
Q 2878 531 3122 666 
L 3122 134 
Q 2881 22 2623 -34 
Q 2366 -91 2075 -91 
Q 1284 -91 818 406 
Q 353 903 353 1747 
Q 353 2603 823 3093 
Q 1294 3584 2113 3584 
Q 2378 3584 2631 3529 
Q 2884 3475 3122 3366 
z
" transform="scale(0.015625)"/>
     </defs>
     <use xlink:href="#DejaVuSans-4f"/>
     <use xlink:href="#DejaVuSans-75" x="78.710938"/>
     <use xlink:href="#DejaVuSans-74" x="142.089844"/>
     <use xlink:href="#DejaVuSans-70" x="181.298828"/>
     <use xlink:href="#DejaVuSans-75" x="244.775391"/>
     <use xlink:href="#DejaVuSans-74" x="308.154297"/>
     <use xlink:href="#DejaVuSans-20" x="347.363281"/>
     <use xlink:href="#DejaVuSans-56" x="379.150391"/>
     <use xlink:href="#DejaVuSans-6f" x="439.808594"/>
     <use xlink:href="#DejaVuSans-6c" x="500.990234"/>
     <use xlink:href="#DejaVuSans-74" x="528.773438"/>
     <use xlink:href="#DejaVuSans-61" x="567.982422"/>
     <use xlink:href="#DejaVuSans-67" x="629.261719"/>
     <use xlink:href="#DejaVuSans-65" x="692.738281"/>
     <use xlink:href="#DejaVuSans-20" x="754.261719"/>
     <use xlink:href="#DejaVuSans-61" x="786.048828"/>
     <use xlink:href="#DejaVuSans-6e" x="847.328125"/>
     <use xlink:href="#DejaVuSans-64" x="910.707031"/>
     <use xlink:href="#DejaVuSans-20" x="974.183594"/>
     <use xlink:href="#DejaVuSans-44" x="1005.970703"/>
     <use xlink:href="#DejaVuSans-75" x="1082.972656"/>
     <use xlink:href="#DejaVuSans-74" x="1146.351562"/>
     <use xlink:href="#DejaVuSans-79" x="1185.560547"/>
     <use xlink:href="#DejaVuSans-20" x="1244.740234"/>
     <use xlink:href="#DejaVuSans-43" x="1276.527344"/>
     <use xlink:href="#DejaVuSans-79" x="1346.351562"/>
     <use xlink:href="#DejaVuSans-63" x="1405.53125"/>
     <use xlink:href="#DejaVuSans-6c" x="1460.511719"/>
     <use xlink:href="#DejaVuSans-65" x="1488.294922"/>
    </g>
   </g>
  </g>
  <g id="axes_2">
   <g id="patch_7">
    <path d="M 52.94 534.04 
L 672.28 534.04 
L 672.28 319.05 
L 52.94 319.05 
z
" style="fill: #ffffff"/>
   </g>
   <g id="matplotlib.axis_3">
    <g id="xtick_7">
     <g id="line2d_14">
      <g>
       <use xlink:href="#m0d251b41b5" x="81.091818" y="534.04" style="stroke: #000000; stroke-width: 0.8"/>
      </g>
     </g>
     <g id="text_9">
      <!-- 0.00 -->
      <g transform="translate(69.959006 548.638438) scale(0.1 -0.1)">
       <defs>
        <path id="DejaVuSans-2e" d="M 684 794 
L 1344 794 
L 1344 0 
L 684 0 
L 684 794 
z
" transform="scale(0.015625)"/>
       </defs>
       <use xlink:href="#DejaVuSans-30"/>
       <use xlink:href="#DejaVuSans-2e" x="63.623047"/>
       <use xlink:href="#DejaVuSans-30" x="95.410156"/>
       <use xlink:href="#DejaVuSans-30" x="159.033203"/>
      </g>
     </g>
    </g>
    <g id="xtick_8">
     <g id="line2d_15">
      <g>
       <use xlink:href="#m0d251b41b5" x="188.347055" y="534.04" style="stroke: #000000; stroke-width: 0.8"/>
      </g>
     </g>
     <g id="text_10">
      <!-- 0.02 -->
      <g transform="translate(177.214242 548.638438) scale(0.1 -0.1)">
       <use xlink:href="#DejaVuSans-30"/>
       <use xlink:href="#DejaVuSans-2e" x="63.623047"/>
       <use xlink:href="#DejaVuSans-30" x="95.410156"/>
       <use xlink:href="#DejaVuSans-32" x="159.033203"/>
      </g>
     </g>
    </g>
    <g id="xtick_9">
     <g id="line2d_16">
      <g>
       <use xlink:href="#m0d251b41b5" x="295.602291" y="534.04" style="stroke: #000000; stroke-width: 0.8"/>
      </g>
     </g>
     <g id="text_11">
      <!-- 0.04 -->
      <g transform="translate(284.469479 548.638438) scale(0.1 -0.1)">
       <use xlink:href="#DejaVuSans-30"/>
       <use xlink:href="#DejaVuSans-2e" x="63.623047"/>
       <use xlink:href="#DejaVuSans-30" x="95.410156"/>
       <use xlink:href="#DejaVuSans-34" x="159.033203"/>
      </g>
     </g>
    </g>
    <g id="xtick_10">
     <g id="line2d_17">
      <g>
       <use xlink:href="#m0d251b41b5" x="402.857527" y="534.04" style="stroke: #000000; stroke-width: 0.8"/>
      </g>
     </g>
     <g id="text_12">
      <!-- 0.06 -->
      <g transform="translate(391.724715 548.638438) scale(0.1 -0.1)">
       <use xlink:href="#DejaVuSans-30"/>
       <use xlink:href="#DejaVuSans-2e" x="63.623047"/>
       <use xlink:href="#DejaVuSans-30" x="95.410156"/>
       <use xlink:href="#DejaVuSans-36" x="159.033203"/>
      </g>
     </g>
    </g>
    <g id="xtick_11">
     <g id="line2d_18">
      <g>
       <use xlink:href="#m0d251b41b5" x="510.112764" y="534.04" style="stroke: #000000; stroke-width: 0.8"/>
      </g>
     </g>
     <g id="text_13">
      <!-- 0.08 -->
      <g transform="translate(498.979951 548.638438) scale(0.1 -0.1)">
       <use xlink:href="#DejaVuSans-30"/>
       <use xlink:href="#DejaVuSans-2e" x="63.623047"/>
       <use xlink:href="#DejaVuSans-30" x="95.410156"/>
       <use xlink:href="#DejaVuSans-38" x="159.033203"/>
      </g>
     </g>
    </g>
    <g id="xtick_12">
     <g id="line2d_19">
      <g>
       <use xlink:href="#m0d251b41b5" x="617.368" y="534.04" style="stroke: #000000; stroke-width: 0.8"/>
      </g>
     </g>
     <g id="text_14">
      <!-- 0.10 -->
      <g transform="translate(606.235188 548.638438) scale(0.1 -0.1)">
       <use xlink:href="#DejaVuSans-30"/>
       <use xlink:href="#DejaVuSans-2e" x="63.623047"/>
       <use xlink:href="#DejaVuSans-31" x="95.410156"/>
       <use xlink:href="#DejaVuSans-30" x="159.033203"/>
      </g>
     </g>
    </g>
    <g id="text_15">
     <!-- Time -->
     <g transform="translate(350.376406 562.316563) scale(0.1 -0.1)">
      <defs>
       <path id="DejaVuSans-54" d="M -19 4666 
L 3928 4666 
L 3928 4134 
L 2272 4134 
L 2272 0 
L 1638 0 
L 1638 4134 
L -19 4134 
L -19 4666 
z
" transform="scale(0.015625)"/>
       <path id="DejaVuSans-69" d="M 603 3500 
L 1178 3500 
L 1178 0 
L 603 0 
L 603 3500 
z
M 603 4863 
L 1178 4863 
L 1178 4134 
L 603 4134 
L 603 4863 
z
" transform="scale(0.015625)"/>
       <path id="DejaVuSans-6d" d="M 3328 2828 
Q 3544 3216 3844 3400 
Q 4144 3584 4550 3584 
Q 5097 3584 5394 3201 
Q 5691 2819 5691 2113 
L 5691 0 
L 5113 0 
L 5113 2094 
Q 5113 2597 4934 2840 
Q 4756 3084 4391 3084 
Q 3944 3084 3684 2787 
Q 3425 2491 3425 1978 
L 3425 0 
L 2847 0 
L 2847 2094 
Q 2847 2600 2669 2842 
Q 2491 3084 2119 3084 
Q 1678 3084 1418 2786 
Q 1159 2488 1159 1978 
L 1159 0 
L 581 0 
L 581 3500 
L 1159 3500 
L 1159 2956 
Q 1356 3278 1631 3431 
Q 1906 3584 2284 3584 
Q 2666 3584 2933 3390 
Q 3200 3197 3328 2828 
z
" transform="scale(0.015625)"/>
      </defs>
      <use xlink:href="#DejaVuSans-54"/>
      <use xlink:href="#DejaVuSans-69" x="57.958984"/>
      <use xlink:href="#DejaVuSans-6d" x="85.742188"/>
      <use xlink:href="#DejaVuSans-65" x="183.154297"/>
     </g>
    </g>
   </g>
   <g id="matplotlib.axis_4">
    <g id="ytick_7">
     <g id="line2d_20">
      <defs>
       <path id="m117bdc6ff4" d="M 0 0 
L -3.5 0 
" style="stroke: #008000; stroke-width: 0.8"/>
      </defs>
      <g>
       <use xlink:href="#m117bdc6ff4" x="52.94" y="524.285121" style="fill: #008000; stroke: #008000; stroke-width: 0.8"/>
      </g>
     </g>
     <g id="text_16">
      <!-- 60 -->
      <g style="fill: #008000" transform="translate(24.835313 528.08434) scale(0.1 -0.1)">
       <defs>
        <path id="DejaVuSans-2212" d="M 678 2272 
L 4684 2272 
L 4684 1741 
L 678 1741 
L 678 2272 
z
" transform="scale(0.015625)"/>
       </defs>
       <use xlink:href="#DejaVuSans-2212"/>
       <use xlink:href="#DejaVuSans-36" x="83.789062"/>
       <use xlink:href="#DejaVuSans-30" x="147.412109"/>
      </g>
     </g>
    </g>
    <g id="ytick_8">
     <g id="line2d_21">
      <g>
       <use xlink:href="#m117bdc6ff4" x="52.94" y="491.655564" style="fill: #008000; stroke: #008000; stroke-width: 0.8"/>
      </g>
     </g>
     <g id="text_17">
      <!-- 50 -->
      <g style="fill: #008000" transform="translate(24.835313 495.454783) scale(0.1 -0.1)">
       <defs>
        <path id="DejaVuSans-35" d="M 691 4666 
L 3169 4666 
L 3169 4134 
L 1269 4134 
L 1269 2991 
Q 1406 3038 1543 3061 
Q 1681 3084 1819 3084 
Q 2600 3084 3056 2656 
Q 3513 2228 3513 1497 
Q 3513 744 3044 326 
Q 2575 -91 1722 -91 
Q 1428 -91 1123 -41 
Q 819 9 494 109 
L 494 744 
Q 775 591 1075 516 
Q 1375 441 1709 441 
Q 2250 441 2565 725 
Q 2881 1009 2881 1497 
Q 2881 1984 2565 2268 
Q 2250 2553 1709 2553 
Q 1456 2553 1204 2497 
Q 953 2441 691 2322 
L 691 4666 
z
" transform="scale(0.015625)"/>
       </defs>
       <use xlink:href="#DejaVuSans-2212"/>
       <use xlink:href="#DejaVuSans-35" x="83.789062"/>
       <use xlink:href="#DejaVuSans-30" x="147.412109"/>
      </g>
     </g>
    </g>
    <g id="ytick_9">
     <g id="line2d_22">
      <g>
       <use xlink:href="#m117bdc6ff4" x="52.94" y="459.026008" style="fill: #008000; stroke: #008000; stroke-width: 0.8"/>
      </g>
     </g>
     <g id="text_18">
      <!-- 40 -->
      <g style="fill: #008000" transform="translate(24.835313 462.825226) scale(0.1 -0.1)">
       <use xlink:href="#DejaVuSans-2212"/>
       <use xlink:href="#DejaVuSans-34" x="83.789062"/>
       <use xlink:href="#DejaVuSans-30" x="147.412109"/>
      </g>
     </g>
    </g>
    <g id="ytick_10">
     <g id="line2d_23">
      <g>
       <use xlink:href="#m117bdc6ff4" x="52.94" y="426.396451" style="fill: #008000; stroke: #008000; stroke-width: 0.8"/>
      </g>
     </g>
     <g id="text_19">
      <!-- 30 -->
      <g style="fill: #008000" transform="translate(24.835313 430.19567) scale(0.1 -0.1)">
       <defs>
        <path id="DejaVuSans-33" d="M 2597 2516 
Q 3050 2419 3304 2112 
Q 3559 1806 3559 1356 
Q 3559 666 3084 287 
Q 2609 -91 1734 -91 
Q 1441 -91 1130 -33 
Q 819 25 488 141 
L 488 750 
Q 750 597 1062 519 
Q 1375 441 1716 441 
Q 2309 441 2620 675 
Q 2931 909 2931 1356 
Q 2931 1769 2642 2001 
Q 2353 2234 1838 2234 
L 1294 2234 
L 1294 2753 
L 1863 2753 
Q 2328 2753 2575 2939 
Q 2822 3125 2822 3475 
Q 2822 3834 2567 4026 
Q 2313 4219 1838 4219 
Q 1578 4219 1281 4162 
Q 984 4106 628 3988 
L 628 4550 
Q 988 4650 1302 4700 
Q 1616 4750 1894 4750 
Q 2613 4750 3031 4423 
Q 3450 4097 3450 3541 
Q 3450 3153 3228 2886 
Q 3006 2619 2597 2516 
z
" transform="scale(0.015625)"/>
       </defs>
       <use xlink:href="#DejaVuSans-2212"/>
       <use xlink:href="#DejaVuSans-33" x="83.789062"/>
       <use xlink:href="#DejaVuSans-30" x="147.412109"/>
      </g>
     </g>
    </g>
    <g id="ytick_11">
     <g id="line2d_24">
      <g>
       <use xlink:href="#m117bdc6ff4" x="52.94" y="393.766894" style="fill: #008000; stroke: #008000; stroke-width: 0.8"/>
      </g>
     </g>
     <g id="text_20">
      <!-- 20 -->
      <g style="fill: #008000" transform="translate(24.835313 397.566113) scale(0.1 -0.1)">
       <use xlink:href="#DejaVuSans-2212"/>
       <use xlink:href="#DejaVuSans-32" x="83.789062"/>
       <use xlink:href="#DejaVuSans-30" x="147.412109"/>
      </g>
     </g>
    </g>
    <g id="ytick_12">
     <g id="line2d_25">
      <g>
       <use xlink:href="#m117bdc6ff4" x="52.94" y="361.137337" style="fill: #008000; stroke: #008000; stroke-width: 0.8"/>
      </g>
     </g>
     <g id="text_21">
      <!-- 10 -->
      <g style="fill: #008000" transform="translate(24.835313 364.936556) scale(0.1 -0.1)">
       <use xlink:href="#DejaVuSans-2212"/>
       <use xlink:href="#DejaVuSans-31" x="83.789062"/>
       <use xlink:href="#DejaVuSans-30" x="147.412109"/>
      </g>
     </g>
    </g>
    <g id="ytick_13">
     <g id="line2d_26">
      <g>
       <use xlink:href="#m117bdc6ff4" x="52.94" y="328.50778" style="fill: #008000; stroke: #008000; stroke-width: 0.8"/>
      </g>
     </g>
     <g id="text_22">
      <!-- 0 -->
      <g style="fill: #008000" transform="translate(39.5775 332.306999) scale(0.1 -0.1)">
       <use xlink:href="#DejaVuSans-30"/>
      </g>
     </g>
    </g>
    <g id="text_23">
     <!-- Cost -->
     <g style="fill: #008000" transform="translate(18.755625 437.660625) rotate(-90) scale(0.1 -0.1)">
      <defs>
       <path id="DejaVuSans-73" d="M 2834 3397 
L 2834 2853 
Q 2591 2978 2328 3040 
Q 2066 3103 1784 3103 
Q 1356 3103 1142 2972 
Q 928 2841 928 2578 
Q 928 2378 1081 2264 
Q 1234 2150 1697 2047 
L 1894 2003 
Q 2506 1872 2764 1633 
Q 3022 1394 3022 966 
Q 3022 478 2636 193 
Q 2250 -91 1575 -91 
Q 1294 -91 989 -36 
Q 684 19 347 128 
L 347 722 
Q 666 556 975 473 
Q 1284 391 1588 391 
Q 1994 391 2212 530 
Q 2431 669 2431 922 
Q 2431 1156 2273 1281 
Q 2116 1406 1581 1522 
L 1381 1569 
Q 847 1681 609 1914 
Q 372 2147 372 2553 
Q 372 3047 722 3315 
Q 1072 3584 1716 3584 
Q 2034 3584 2315 3537 
Q 2597 3491 2834 3397 
z
" transform="scale(0.015625)"/>
      </defs>
      <use xlink:href="#DejaVuSans-43"/>
      <use xlink:href="#DejaVuSans-6f" x="69.824219"/>
      <use xlink:href="#DejaVuSans-73" x="131.005859"/>
      <use xlink:href="#DejaVuSans-74" x="183.105469"/>
     </g>
    </g>
   </g>
   <g id="line2d_27">
    <path d="M 81.091818 524.267727 
L 81.252701 511.661979 
L 81.467212 509.873172 
L 81.788977 504.715402 
L 82.271626 492.780151 
L 83.07604 472.4589 
L 83.558689 465.683796 
L 84.255848 457.586209 
L 84.792124 446.486949 
L 85.757421 425.966003 
L 86.186442 421.604763 
L 87.044484 415.035769 
L 87.58076 406.934962 
L 88.331547 395.715753 
L 88.70694 393.0933 
L 89.028706 392.092612 
L 89.350471 391.580323 
L 89.618609 390.250601 
L 89.994003 387.091065 
L 91.227438 375.564139 
L 91.495576 375.001376 
L 91.656459 374.958877 
L 92.08548 375.161695 
L 92.29999 374.611242 
L 92.621756 372.952977 
L 93.104405 369.074823 
L 93.587053 365.535697 
L 93.908819 364.582993 
L 94.123329 364.449275 
L 94.284212 364.574731 
L 94.820488 365.397497 
L 94.874116 365.35734 
L 95.088627 364.925399 
L 95.410392 363.574209 
L 95.946668 360.026485 
L 96.322062 358.34005 
L 96.5902 357.938624 
L 96.751083 357.963138 
L 96.965593 358.266581 
L 97.609125 359.457914 
L 97.823635 359.13782 
L 98.145401 358.024538 
L 99.110698 353.891348 
L 99.325208 353.848445 
L 99.539719 354.111708 
L 99.861485 355.006378 
L 100.18325 355.760568 
L 100.344133 355.791028 
L 100.558644 355.511805 
L 100.880409 354.513231 
L 101.738451 351.272367 
L 101.952962 351.234782 
L 102.167472 351.494287 
L 102.489238 352.369426 
L 102.864631 353.396755 
L 103.079142 353.4621 
L 103.293652 353.18369 
L 103.615418 352.228265 
L 104.366204 349.59873 
L 104.580715 349.538708 
L 104.795225 349.772228 
L 105.116991 350.602481 
L 105.59964 351.931308 
L 105.81415 351.953633 
L 106.028661 351.652834 
L 106.350426 350.698046 
L 106.993958 348.530146 
L 107.208468 348.429812 
L 107.422979 348.623449 
L 107.691117 349.22837 
L 108.334648 350.988164 
L 108.495531 350.995492 
L 108.710042 350.73089 
L 109.031807 349.838284 
L 109.514456 347.678168 
L 110.587008 342.599739 
L 110.962402 341.811331 
L 111.498678 339.998535 
L 113.214761 333.620606 
L 113.804665 332.905926 
L 114.716335 331.215149 
L 115.574377 329.792541 
L 115.896142 329.616162 
L 116.593301 329.414019 
L 118.094875 328.824038 
L 119.435565 328.885742 
L 120.293607 329.058411 
L 121.419787 329.372419 
L 122.063318 329.402153 
L 122.760478 329.661711 
L 123.457637 330.168773 
L 123.779402 330.325133 
L 124.154796 330.205945 
L 124.637444 330.157238 
L 125.227348 330.338074 
L 125.870879 330.785909 
L 126.460783 331.204978 
L 126.728921 331.075569 
L 127.157942 330.896158 
L 127.640591 330.933282 
L 128.176867 331.196977 
L 128.820398 331.772908 
L 129.088536 331.927019 
L 129.356675 331.797913 
L 129.839323 331.501444 
L 130.321972 331.499855 
L 130.858248 331.749403 
L 131.501779 332.329769 
L 131.769917 332.476715 
L 131.984428 332.370986 
L 132.520704 331.961065 
L 132.949725 331.918687 
L 133.432374 332.095755 
L 134.022277 332.568548 
L 134.451298 332.880269 
L 134.665809 332.757587 
L 135.416595 331.82613 
L 136.918169 328.98428 
L 137.079052 329.024975 
L 137.937093 330.31704 
L 138.366114 331.713062 
L 138.848763 334.060257 
L 139.438667 338.091222 
L 140.189453 344.932614 
L 141.85191 361.162026 
L 145.766726 406.271595 
L 146.463885 411.803842 
L 147.48281 421.89267 
L 148.448107 431.362044 
L 148.930755 433.794842 
L 149.627914 438.608215 
L 150.700467 447.837314 
L 151.07586 450.40812 
L 151.504881 451.431108 
L 151.987529 453.444221 
L 152.684688 457.531797 
L 153.810868 464.435689 
L 154.025379 464.469284 
L 154.293517 464.832833 
L 154.66891 465.842321 
L 155.205187 468.074318 
L 155.955973 472.280668 
L 156.384994 474.403995 
L 156.545877 474.198849 
L 156.814015 473.977872 
L 157.028526 474.064869 
L 157.296664 474.455676 
L 157.672057 475.442869 
L 158.208333 477.545284 
L 159.066375 481.381331 
L 159.120003 481.298124 
L 159.549024 480.468139 
L 159.763534 480.409554 
L 159.978045 480.557257 
L 160.29981 481.109705 
L 160.728831 482.350224 
L 161.372363 485.007435 
L 161.694128 486.22539 
L 161.801384 486.072917 
L 161.962266 485.186466 
L 162.230405 482.160693 
L 162.659425 474.104647 
L 163.356585 455.596737 
L 164.911785 412.701203 
L 166.466986 375.958343 
L 167.05689 365.861759 
L 168.343953 349.546499 
L 169.201995 341.268071 
L 169.684643 338.147835 
L 170.757196 333.495258 
L 171.507982 331.188915 
L 172.097886 330.041695 
L 172.526907 329.696976 
L 173.224066 329.363377 
L 173.59946 329.36324 
L 174.72564 329.953525 
L 175.315543 330.314403 
L 176.012702 330.919828 
L 176.763489 331.883087 
L 177.836041 333.303458 
L 178.425945 333.82582 
L 179.176732 334.832241 
L 180.463795 336.682583 
L 180.946443 336.935259 
L 181.536347 337.535193 
L 182.287134 338.645089 
L 182.984293 339.641955 
L 183.466941 339.622357 
L 183.94959 339.886308 
L 184.539494 340.499371 
L 185.343908 341.704013 
L 185.612046 341.976247 
L 186.362833 341.797381 
L 186.845481 342.050652 
L 187.435385 342.646846 
L 188.347055 343.66054 
L 188.829703 343.345524 
L 189.258724 343.362214 
L 189.741373 343.634972 
L 190.331276 344.239898 
L 191.135691 345.094646 
L 191.564712 345.171903 
L 192.100988 345.535263 
L 192.798147 346.326029 
L 193.817072 347.564966 
L 194.246093 347.616259 
L 194.782369 347.937636 
L 195.479528 348.660235 
L 196.498453 349.757193 
L 196.927474 349.711838 
L 197.410122 349.892657 
L 198.053654 350.411177 
L 199.179833 351.436622 
L 199.608854 351.297262 
L 200.091503 351.385458 
L 200.681407 351.751653 
L 201.485821 352.559948 
L 201.753959 352.737451 
L 202.343863 352.426962 
L 202.826512 352.468513 
L 203.416415 352.780289 
L 204.167202 353.460103 
L 204.43534 353.607594 
L 205.025244 353.222489 
L 205.507892 353.212335 
L 206.044169 353.436057 
L 206.741328 353.985032 
L 207.116721 354.214775 
L 207.706625 353.77719 
L 208.189273 353.730715 
L 208.72555 353.919241 
L 209.422709 354.428364 
L 209.798102 354.637592 
L 210.388006 354.163729 
L 210.870654 354.092157 
L 211.40693 354.256382 
L 212.104089 354.738029 
L 212.479483 354.933146 
L 213.069387 354.434435 
L 213.552035 354.345677 
L 214.088311 354.493266 
L 214.731843 354.912163 
L 215.160864 355.144364 
L 215.375374 354.748127 
L 215.643512 353.559188 
L 216.072533 350.359928 
L 217.091458 340.241547 
L 217.842245 333.864118 
L 218.378521 331.037134 
L 218.753914 329.966753 
L 219.022052 329.690452 
L 219.07568 329.704679 
L 219.29019 329.990247 
L 219.558328 330.533428 
L 219.933722 331.957188 
L 220.41637 334.855025 
L 221.113529 340.6655 
L 221.917944 349.487023 
L 222.990496 363.883447 
L 228.567768 443.10205 
L 230.069342 459.626276 
L 231.570915 474.517348 
L 234.091413 494.167498 
L 236.665539 507.87041 
L 238.059857 510.817121 
L 238.757016 511.756317 
L 239.34692 512.232791 
L 239.990451 512.082718 
L 241.277514 512.873414 
L 242.0283 513.058696 
L 242.135556 512.769359 
L 242.350066 511.028675 
L 242.671832 505.935125 
L 243.15448 494.078722 
L 243.958895 467.893067 
L 244.870564 439.496811 
L 247.337435 377.472176 
L 249.107146 353.01738 
L 249.857933 345.196854 
L 250.447837 341.806595 
L 251.734899 335.320032 
L 252.432058 332.794762 
L 252.807452 332.148636 
L 254.255397 330.429142 
L 254.845301 330.103543 
L 255.220695 330.119062 
L 256.132364 330.212506 
L 256.829523 330.493583 
L 257.473054 330.993304 
L 258.062958 331.456166 
L 258.652862 331.645508 
L 259.296394 332.107293 
L 259.993553 332.887568 
L 260.690712 333.688384 
L 261.334243 333.755654 
L 261.870519 334.105692 
L 262.514051 334.810408 
L 263.372092 335.826327 
L 264.015624 335.698304 
L 264.498272 335.923639 
L 265.088176 336.486032 
L 266.053473 337.559147 
L 266.697005 337.250952 
L 267.126026 337.363313 
L 267.662302 337.775461 
L 268.305833 338.574638 
L 268.627599 338.905218 
L 268.84211 338.755974 
L 269.27113 338.441913 
L 269.646524 338.415794 
L 270.075545 338.603611 
L 270.611821 339.092419 
L 270.987214 339.396169 
L 271.201725 339.176832 
L 271.52349 338.339085 
L 271.952511 337.31254 
L 272.381532 336.784797 
L 272.810553 336.607015 
L 273.239574 336.687831 
L 273.668595 336.821985 
L 273.883106 336.57459 
L 274.258499 335.669923 
L 274.68752 334.859851 
L 275.116541 334.476408 
L 275.545562 334.387554 
L 276.02821 334.545932 
L 276.349976 334.651108 
L 276.564487 334.477576 
L 276.93988 333.796478 
L 277.368901 333.211037 
L 277.797922 332.96797 
L 278.226943 332.95909 
L 278.763219 333.192453 
L 279.084985 333.278686 
L 279.353123 333.062795 
L 280.157537 332.184416 
L 280.640186 332.089692 
L 281.176462 332.232789 
L 281.819993 332.473461 
L 282.141759 332.213478 
L 282.678035 331.721137 
L 283.160684 331.602443 
L 283.69696 331.700513 
L 284.608629 331.974903 
L 285.091278 331.55497 
L 285.573926 331.345274 
L 286.110203 331.357324 
L 286.753734 331.613416 
L 287.182755 331.751017 
L 287.504521 331.571048 
L 288.040797 331.227378 
L 288.577073 331.172823 
L 289.220604 331.34755 
L 289.917764 331.581963 
L 290.293157 331.34522 
L 290.775805 331.11328 
L 291.365709 331.100169 
L 292.009241 331.310415 
L 292.599144 331.492489 
L 292.974538 331.272853 
L 293.457186 331.060428 
L 294.04709 331.05513 
L 294.690622 331.262536 
L 295.280525 331.443284 
L 295.655919 331.234866 
L 296.138567 331.03524 
L 296.728471 331.034814 
L 297.42563 331.261083 
L 297.747396 331.27564 
L 298.176417 331.028697 
L 298.712693 330.714658 
L 299.356224 330.646574 
L 300.857798 330.604263 
L 301.394074 330.507475 
L 303.968199 330.609911 
L 304.933497 330.639244 
L 306.113304 330.632654 
L 307.507622 330.862355 
L 308.741058 330.760748 
L 310.135376 331.08569 
L 311.476066 330.924249 
L 312.602246 331.303523 
L 313.19215 331.143241 
L 313.889309 330.972339 
L 314.31833 331.137505 
L 314.961861 331.445832 
L 315.44451 331.425648 
L 316.141669 331.137225 
L 316.517062 331.065058 
L 316.946083 331.209558 
L 317.69687 331.573518 
L 318.179518 331.52291 
L 319.466581 331.208543 
L 320.700016 331.6504 
L 321.28992 331.417091 
L 321.879824 331.20732 
L 322.308845 331.357526 
L 323.488653 332.282941 
L 323.917673 333.163775 
L 324.400322 334.741109 
L 324.936598 337.340397 
L 325.848268 342.020996 
L 326.438172 345.579511 
L 327.135331 351.237534 
L 328.583276 363.721009 
L 329.280435 369.435809 
L 330.192105 379.004488 
L 330.835636 385.51278 
L 331.586423 389.844755 
L 332.283582 395.725113 
L 333.624272 407.722291 
L 333.946038 408.69334 
L 334.375059 410.81927 
L 335.01859 415.367851 
L 336.252026 424.795278 
L 336.520164 424.90055 
L 336.788302 425.444668 
L 337.163695 426.850642 
L 337.699971 429.888286 
L 338.450758 435.589705 
L 338.772524 437.503376 
L 338.879779 437.580455 
L 339.362428 437.135032 
L 339.576938 437.394352 
L 339.898704 438.256034 
L 340.327725 440.129695 
L 340.971256 444.105147 
L 341.453905 446.811212 
L 341.56116 446.745063 
L 342.097436 445.623065 
L 342.311947 445.698153 
L 342.580085 446.161779 
L 342.955478 447.389565 
L 343.491754 450.061379 
L 344.135286 453.335557 
L 344.242541 453.165392 
L 344.778817 451.527178 
L 344.993327 451.420389 
L 345.207838 451.591361 
L 345.475976 452.143254 
L 345.904997 453.673979 
L 346.494901 456.773138 
L 346.763039 457.859906 
L 346.870294 457.769018 
L 347.084805 456.834349 
L 347.460198 455.60802 
L 347.728336 455.360596 
L 347.942846 455.477662 
L 348.210985 455.960965 
L 348.586378 457.164317 
L 349.122654 459.715938 
L 349.44442 460.990204 
L 349.551675 460.849642 
L 349.712558 460.077293 
L 349.980696 457.469056 
L 350.409717 450.557964 
L 351.106876 434.739859 
L 353.734629 371.041486 
L 354.646299 355.806369 
L 355.450713 345.92032 
L 356.2015 339.361357 
L 356.845031 335.487043 
L 357.434935 333.124582 
L 357.971211 331.803334 
L 358.45386 331.178063 
L 358.829253 331.004804 
L 358.990136 331.090593 
L 359.365529 331.238015 
L 359.848178 331.701334 
L 360.438081 332.606768 
L 361.242496 334.288253 
L 362.422303 337.337923 
L 367.999576 352.498358 
L 369.608404 355.918596 
L 371.163605 358.716691 
L 372.665178 360.981575 
L 374.220379 362.927684 
L 375.77558 364.524132 
L 377.384409 365.866367 
L 377.545292 365.808351 
L 377.706175 365.356243 
L 377.974313 363.809517 
L 378.403334 359.778538 
L 379.422258 349.453856 
L 379.958534 346.748191 
L 380.494811 344.401825 
L 381.19197 339.682534 
L 381.835501 335.825674 
L 382.264522 334.535163 
L 382.693543 333.856261 
L 383.122564 333.279505 
L 384.302372 331.337997 
L 384.677765 331.249249 
L 385.69669 331.374198 
L 386.179338 331.581342 
L 386.554732 331.966023 
L 387.788167 333.579974 
L 388.217188 333.592578 
L 388.485326 333.705997 
L 388.807091 334.083362 
L 389.236112 334.998696 
L 390.094154 337.11801 
L 390.41592 337.311245 
L 390.684058 337.231249 
L 391.113079 337.054078 
L 391.381217 337.293113 
L 391.702983 337.917569 
L 392.132004 339.289538 
L 392.561025 340.556685 
L 392.88279 340.919277 
L 393.150929 340.88061 
L 393.419067 340.58323 
L 393.740832 340.221167 
L 393.955343 340.268079 
L 394.223481 340.620754 
L 394.598874 341.603613 
L 395.349661 343.827463 
L 395.617799 343.936331 
L 395.832309 343.777954 
L 396.154075 343.203666 
L 396.475841 342.74845 
L 396.690351 342.780192 
L 396.958489 343.144159 
L 397.333883 344.186731 
L 397.977414 346.123812 
L 398.191925 346.240852 
L 398.406435 346.109313 
L 398.674573 345.64749 
L 399.210849 344.618016 
L 399.42536 344.657322 
L 399.693498 345.046975 
L 400.068891 346.149793 
L 400.605168 347.781939 
L 400.819678 347.92257 
L 401.034188 347.793842 
L 401.302327 347.31002 
L 401.945858 345.953574 
L 402.160368 346.019256 
L 402.428507 346.448882 
L 402.8039 347.618879 
L 403.447431 350.641968 
L 404.090963 355.146436 
L 404.895377 362.620299 
L 406.128812 376.660371 
L 407.52313 394.957032 
L 410.526277 435.114633 
L 411.706084 449.03067 
L 413.797562 471.226657 
L 416.478942 493.024383 
L 419.160323 508.313802 
L 420.715524 512.410599 
L 421.412683 513.37316 
L 421.734449 513.580346 
L 422.002587 513.433097 
L 422.270725 513.508385 
L 424.094064 514.636932 
L 424.362202 514.665799 
L 425.005734 514.261871 
L 427.043583 514.885706 
L 427.687115 514.41517 
L 429.724964 514.946522 
L 429.832219 514.645735 
L 430.04673 512.883529 
L 430.368496 507.761231 
L 430.851144 495.869476 
L 431.709186 467.897732 
L 432.245462 454.162824 
L 433.210759 433.751034 
L 434.873216 394.922347 
L 436.589299 372.020757 
L 437.340086 362.277692 
L 437.715479 359.955109 
L 438.198128 357.536848 
L 438.948915 352.288944 
L 440.021467 344.885748 
L 440.343233 344.081992 
L 440.772254 343.442772 
L 441.254902 342.095262 
L 442.220199 338.480474 
L 442.64922 337.1695 
L 442.970986 336.848724 
L 443.56089 336.67515 
L 443.989911 336.135569 
L 444.740697 334.748304 
L 445.330601 333.802749 
L 445.652367 333.729049 
L 446.295898 333.80251 
L 446.778547 333.521502 
L 448.226492 332.46118 
L 449.352672 332.535524 
L 451.068756 332.053564 
L 451.765915 332.140901 
L 452.677585 331.98342 
L 453.481999 331.913903 
L 455.25171 331.927875 
L 456.592401 331.928561 
L 457.611326 332.506017 
L 457.986719 333.220268 
L 458.41574 334.555084 
L 458.898389 336.81153 
L 459.54192 340.985441 
L 460.239079 346.97829 
L 461.097121 356.382835 
L 462.491439 374.623992 
L 464.422033 402.747811 
L 465.923606 423.542716 
L 467.693318 446.373241 
L 469.999305 471.451192 
L 473.109707 495.971671 
L 475.362067 508.865203 
L 475.791088 510.023728 
L 476.64913 512.338401 
L 477.346289 513.508122 
L 477.936193 514.169416 
L 478.150703 514.052529 
L 478.418842 513.998654 
L 478.740607 514.188398 
L 479.598649 514.818863 
L 480.563946 515.214204 
L 480.671201 515.190658 
L 481.314733 514.783001 
L 483.352582 515.401657 
L 483.459838 515.103118 
L 483.674348 513.345137 
L 483.996114 508.228482 
L 484.478762 496.343667 
L 486.141219 450.961155 
L 486.78475 437.134328 
L 488.500834 397.625267 
L 489.895152 379.771873 
L 490.967704 365.172023 
L 491.343098 362.964528 
L 491.772118 360.923316 
L 492.41565 356.447537 
L 493.649085 347.47892 
L 493.970851 346.715448 
L 494.346244 346.22199 
L 494.721637 345.226379 
L 495.365169 342.760029 
L 496.276838 339.264811 
L 496.544976 338.975195 
L 496.866742 338.996424 
L 497.13488 338.870235 
L 497.510274 338.391045 
L 498.100177 337.177729 
L 498.958219 335.421177 
L 499.226357 335.348531 
L 499.977144 335.466023 
L 500.406165 335.128228 
L 501.103324 334.231096 
L 501.585973 333.719065 
L 501.907738 333.710727 
L 502.712153 333.925405 
L 503.194801 333.703438 
L 504.481864 332.957292 
L 505.768927 333.124268 
L 507.2705 332.671206 
L 508.235797 332.852152 
L 508.986584 332.656744 
L 509.737371 332.514544 
L 510.756295 332.72155 
L 511.185316 332.945608 
L 511.614337 333.445673 
L 512.043358 334.344971 
L 512.526007 335.972646 
L 514.188463 343.447277 
L 514.831994 348.043212 
L 516.440823 360.432256 
L 517.084354 365.492499 
L 517.942396 374.163403 
L 518.585928 380.196209 
L 519.283087 383.815777 
L 519.926618 388.885662 
L 520.838288 398.100679 
L 521.213681 400.949722 
L 522.178978 404.54708 
L 522.768882 408.723813 
L 523.948689 417.835818 
L 524.37771 418.000765 
L 524.645848 418.661693 
L 525.021242 420.231196 
L 525.557518 423.506497 
L 526.576443 430.304054 
L 526.683698 430.188459 
L 527.005464 429.692864 
L 527.166346 429.725897 
L 527.380857 430.032435 
L 527.702623 430.980432 
L 528.185271 433.297259 
L 528.828803 437.631036 
L 529.150568 439.296899 
L 529.257824 439.300759 
L 529.418706 438.842279 
L 529.740472 438.033602 
L 529.954983 437.938603 
L 530.169493 438.146671 
L 530.437631 438.776 
L 530.866652 440.491777 
L 531.456556 443.945552 
L 531.778322 445.655415 
L 531.885577 445.702128 
L 532.04646 445.249632 
L 532.421853 443.882996 
L 532.689991 443.584523 
L 532.904502 443.694368 
L 533.17264 444.204715 
L 533.548033 445.503272 
L 534.084309 448.285527 
L 534.459703 450.140612 
L 534.566958 450.118253 
L 534.727841 449.554321 
L 535.156862 447.796966 
L 535.425 447.442529 
L 535.63951 447.506312 
L 535.907648 447.957638 
L 536.283042 449.171074 
L 536.819318 451.827022 
L 537.141083 453.227542 
L 537.248339 453.156977 
L 537.409222 452.515539 
L 537.67736 450.184668 
L 538.106381 443.834414 
L 539.071678 428.313147 
L 539.500699 425.423972 
L 539.92972 423.196952 
L 540.305113 419.119539 
L 540.895017 409.781723 
L 541.538548 399.837108 
L 541.967569 396.611553 
L 542.289335 395.567994 
L 542.503845 394.972803 
L 542.825611 393.032391 
L 543.30826 388.289151 
L 544.327184 377.402615 
L 544.64895 376.218942 
L 544.863461 375.966773 
L 545.185226 375.901091 
L 545.399737 375.343519 
L 545.721502 373.731906 
L 546.204151 370.025662 
L 546.90131 364.765544 
L 547.223076 363.952793 
L 547.437586 363.886966 
L 547.652097 364.144832 
L 547.866607 364.382859 
L 548.02749 364.286017 
L 548.242 363.819969 
L 548.563766 362.516176 
L 549.100042 359.184611 
L 549.475436 357.185866 
L 549.797201 356.527715 
L 550.011712 356.524737 
L 550.226222 356.818682 
L 550.655243 357.537005 
L 550.816126 357.462728 
L 551.030637 357.080853 
L 551.352402 356.001041 
L 552.371327 351.997482 
L 552.585838 351.982873 
L 552.800348 352.249673 
L 553.497507 353.405215 
L 553.712018 353.174114 
L 554.033783 352.353089 
L 554.570059 350.121851 
L 554.891825 349.271543 
L 555.106336 349.127464 
L 555.320846 349.267212 
L 555.588984 349.79168 
L 556.071633 350.838407 
L 556.286143 350.835765 
L 556.500654 350.566317 
L 556.822419 349.74814 
L 557.626834 347.378736 
L 557.841344 347.369201 
L 558.055855 347.617333 
L 558.37762 348.415098 
L 558.753014 349.206325 
L 558.967524 349.25343 
L 559.182035 349.044192 
L 559.5038 348.330505 
L 560.308215 346.21401 
L 560.522725 346.241228 
L 560.790863 346.618678 
L 561.648905 348.234675 
L 561.863415 348.063577 
L 562.185181 347.416959 
L 562.989595 345.463816 
L 563.204106 345.514134 
L 563.472244 345.910104 
L 564.330286 347.573858 
L 564.544796 347.427353 
L 564.866562 346.824416 
L 565.778232 344.727795 
L 565.992742 344.833996 
L 566.26088 345.284624 
L 566.850784 346.50093 
L 567.065294 346.510266 
L 567.333433 346.215199 
L 567.708826 345.344379 
L 568.29873 343.844174 
L 568.51324 343.770035 
L 568.727751 343.936738 
L 569.049516 344.583777 
L 569.478537 345.479802 
L 569.693048 345.561936 
L 569.907558 345.424756 
L 570.229324 344.875421 
L 571.140993 343.015334 
L 571.355504 343.138493 
L 571.623642 343.589855 
L 572.267173 344.837387 
L 572.481684 344.82544 
L 572.749822 344.534913 
L 573.125215 343.719334 
L 573.661491 342.547666 
L 573.876002 342.510847 
L 574.090512 342.69977 
L 574.412278 343.357995 
L 574.841299 344.270712 
L 575.109437 344.375138 
L 575.377575 344.164382 
L 575.699341 343.575314 
L 576.3965 342.166845 
L 576.61101 342.199891 
L 576.879149 342.540622 
L 577.73719 344.067269 
L 577.951701 343.980463 
L 578.273467 343.525614 
L 579.185136 341.93274 
L 579.399647 342.081883 
L 579.721412 342.6773 
L 580.257689 343.791294 
L 580.525827 343.848716 
L 580.793965 343.608699 
L 581.169358 342.878234 
L 581.705634 341.821535 
L 581.920145 341.810239 
L 582.188283 342.097015 
L 582.510048 342.832809 
L 582.885442 343.607511 
L 583.15358 343.735761 
L 583.421718 343.557898 
L 583.743484 343.016695 
L 584.440643 341.708563 
L 584.655153 341.756988 
L 584.923291 342.108146 
L 585.781333 343.658131 
L 585.995844 343.587742 
L 586.263982 343.257322 
L 586.693003 342.297753 
L 587.014768 341.718009 
L 587.229279 341.655043 
L 587.443789 341.812202 
L 587.765555 342.412681 
L 588.301831 343.533981 
L 588.569969 343.603041 
L 588.838107 343.378571 
L 589.213501 342.674319 
L 589.749777 341.652904 
L 589.964287 341.649327 
L 590.232426 341.941501 
L 590.607819 342.828241 
L 590.929585 343.457288 
L 591.573116 344.228963 
L 591.948509 345.414388 
L 592.431158 347.720307 
L 593.074689 352.058372 
L 593.718221 356.310392 
L 594.308124 358.781116 
L 594.898028 362.671267 
L 595.648815 369.3345 
L 596.345974 375.403443 
L 597.257643 379.653985 
L 597.901175 384.700641 
L 599.13461 394.8112 
L 599.402748 395.273019 
L 599.724514 396.396343 
L 600.207163 399.069568 
L 600.850694 404.052175 
L 601.655108 410.358079 
L 601.815991 410.473531 
L 602.084129 410.402227 
L 602.29864 410.704767 
L 602.620405 411.691911 
L 603.049426 413.832247 
L 603.692958 418.392631 
L 604.282861 422.406056 
L 604.390117 422.47819 
L 604.551 422.178148 
L 604.819138 421.743383 
L 604.980021 421.753662 
L 605.194531 422.043338 
L 605.516297 422.991448 
L 605.945318 425.046458 
L 606.588849 429.413555 
L 606.910615 431.175627 
L 607.01787 431.241364 
L 607.125125 431.054615 
L 607.607774 429.735828 
L 607.822284 429.709473 
L 608.036795 429.991273 
L 608.35856 430.90973 
L 608.787581 432.896151 
L 609.645623 437.475049 
L 609.699251 437.426369 
L 609.860134 436.901223 
L 610.235527 435.469828 
L 610.503665 435.161703 
L 610.664548 435.22377 
L 610.879059 435.558594 
L 611.200824 436.529484 
L 611.683473 438.843721 
L 612.273377 441.823637 
L 612.380632 441.724531 
L 612.541515 441.088865 
L 612.970536 439.267173 
L 613.238674 438.91248 
L 613.399557 438.945686 
L 613.614067 439.241046 
L 613.935833 440.150729 
L 614.418481 442.368742 
L 614.954758 444.83303 
L 615.062013 444.685895 
L 615.276523 443.644528 
L 615.651917 441.953771 
L 615.920055 441.491724 
L 616.134565 441.49456 
L 616.349076 441.783765 
L 616.670841 442.677875 
L 617.15349 444.860435 
L 617.636138 446.896935 
L 617.743394 446.716626 
L 617.957904 445.573061 
L 618.27967 442.182125 
L 619.566733 425.96875 
L 619.888498 424.783347 
L 620.317519 423.750788 
L 620.585657 421.739318 
L 621.014678 416.50296 
L 621.979975 403.69405 
L 622.355369 401.78885 
L 622.623507 401.292096 
L 622.945273 401.023981 
L 623.159783 400.12411 
L 623.481549 397.707653 
L 624.017825 391.610522 
L 624.500474 386.874048 
L 624.875867 385.223914 
L 625.144005 384.881388 
L 625.304888 384.955539 
L 625.626654 385.255016 
L 625.787536 384.981325 
L 626.055674 383.867459 
L 626.431068 381.192147 
L 627.235482 374.986215 
L 627.557248 374.257458 
L 627.718131 374.223476 
L 627.932641 374.473448 
L 628.41529 375.265715 
L 628.576173 375.032149 
L 628.844311 374.084911 
L 629.219704 371.81428 
L 629.809608 368.088313 
L 630.077746 367.482561 
L 630.292256 367.425856 
L 630.506767 367.696955 
L 630.828533 368.613656 
L 631.096671 369.086715 
L 631.257553 369.004472 
L 631.472064 368.523365 
L 631.79383 367.133251 
L 632.598244 363.235839 
L 632.812754 363.058776 
L 632.973637 363.147519 
L 633.241775 363.666675 
L 633.885307 365.202632 
L 634.04619 365.056186 
L 634.314328 364.348213 
L 634.689721 362.570725 
L 635.118742 360.646165 
L 635.38688 360.268501 
L 635.547763 360.300599 
L 635.762273 360.607465 
L 636.084039 361.566541 
L 636.459432 362.65319 
L 636.620315 362.72012 
L 636.781198 362.564364 
L 637.049336 361.872531 
L 637.478357 359.894879 
L 637.800123 358.731525 
L 638.068261 358.440643 
L 638.229144 358.514082 
L 638.443654 358.865853 
L 638.76542 359.87483 
L 639.140813 361.019647 
L 639.355324 361.107405 
L 639.569834 360.821926 
L 639.8916 359.80867 
L 640.588759 357.327381 
L 640.803269 357.26522 
L 641.01778 357.506857 
L 641.339546 358.365138 
L 641.875822 360.018203 
L 642.036705 360.070559 
L 642.197588 359.916408 
L 642.465726 359.259088 
L 643.377395 356.470638 
L 643.538278 356.531561 
L 643.752788 356.862706 
L 644.074554 357.83369 
L 644.128182 358.045946 
L 644.128182 358.045946 
" clip-path="url(#p2391b180b5)" style="fill: none; stroke: #008000; stroke-width: 1.5; stroke-linecap: square"/>
   </g>
   <g id="patch_8">
    <path d="M 52.94 534.04 
L 52.94 319.05 
" style="fill: none; stroke: #000000; stroke-width: 0.8; stroke-linejoin: miter; stroke-linecap: square"/>
   </g>
   <g id="patch_9">
    <path d="M 672.28 534.04 
L 672.28 319.05 
" style="fill: none; stroke: #000000; stroke-width: 0.8; stroke-linejoin: miter; stroke-linecap: square"/>
   </g>
   <g id="patch_10">
    <path d="M 52.94 534.04 
L 672.28 534.04 
" style="fill: none; stroke: #000000; stroke-width: 0.8; stroke-linejoin: miter; stroke-linecap: square"/>
   </g>
   <g id="patch_11">
    <path d="M 52.94 319.05 
L 672.28 319.05 
" style="fill: none; stroke: #000000; stroke-width: 0.8; stroke-linejoin: miter; stroke-linecap: square"/>
   </g>
   <g id="text_24">
    <!-- Cost Over Time -->
    <g transform="translate(316.344375 313.05) scale(0.12 -0.12)">
     <defs>
      <path id="DejaVuSans-76" d="M 191 3500 
L 800 3500 
L 1894 563 
L 2988 3500 
L 3597 3500 
L 2284 0 
L 1503 0 
L 191 3500 
z
" transform="scale(0.015625)"/>
      <path id="DejaVuSans-72" d="M 2631 2963 
Q 2534 3019 2420 3045 
Q 2306 3072 2169 3072 
Q 1681 3072 1420 2755 
Q 1159 2438 1159 1844 
L 1159 0 
L 581 0 
L 581 3500 
L 1159 3500 
L 1159 2956 
Q 1341 3275 1631 3429 
Q 1922 3584 2338 3584 
Q 2397 3584 2469 3576 
Q 2541 3569 2628 3553 
L 2631 2963 
z
" transform="scale(0.015625)"/>
     </defs>
     <use xlink:href="#DejaVuSans-43"/>
     <use xlink:href="#DejaVuSans-6f" x="69.824219"/>
     <use xlink:href="#DejaVuSans-73" x="131.005859"/>
     <use xlink:href="#DejaVuSans-74" x="183.105469"/>
     <use xlink:href="#DejaVuSans-20" x="222.314453"/>
     <use xlink:href="#DejaVuSans-4f" x="254.101562"/>
     <use xlink:href="#DejaVuSans-76" x="332.8125"/>
     <use xlink:href="#DejaVuSans-65" x="391.992188"/>
     <use xlink:href="#DejaVuSans-72" x="453.515625"/>
     <use xlink:href="#DejaVuSans-20" x="494.628906"/>
     <use xlink:href="#DejaVuSans-54" x="526.416016"/>
     <use xlink:href="#DejaVuSans-69" x="584.375"/>
     <use xlink:href="#DejaVuSans-6d" x="612.158203"/>
     <use xlink:href="#DejaVuSans-65" x="709.570312"/>
    </g>
   </g>
  </g>
  <g id="axes_3">
   <g id="matplotlib.axis_5">
    <g id="ytick_14">
     <g id="line2d_28">
      <defs>
       <path id="m873bd7da45" d="M 0 0 
L 3.5 0 
" style="stroke: #4682b4; stroke-width: 0.8"/>
      </defs>
      <g>
       <use xlink:href="#m873bd7da45" x="672.28" y="278.897727" style="fill: #4682b4; stroke: #4682b4; stroke-width: 0.8"/>
      </g>
     </g>
     <g id="text_25">
      <!-- 0.0 -->
      <g style="fill: #4682b4" transform="translate(679.28 282.696946) scale(0.1 -0.1)">
       <use xlink:href="#DejaVuSans-30"/>
       <use xlink:href="#DejaVuSans-2e" x="63.623047"/>
       <use xlink:href="#DejaVuSans-30" x="95.410156"/>
      </g>
     </g>
    </g>
    <g id="ytick_15">
     <g id="line2d_29">
      <g>
       <use xlink:href="#m873bd7da45" x="672.28" y="239.014278" style="fill: #4682b4; stroke: #4682b4; stroke-width: 0.8"/>
      </g>
     </g>
     <g id="text_26">
      <!-- 0.2 -->
      <g style="fill: #4682b4" transform="translate(679.28 242.813496) scale(0.1 -0.1)">
       <use xlink:href="#DejaVuSans-30"/>
       <use xlink:href="#DejaVuSans-2e" x="63.623047"/>
       <use xlink:href="#DejaVuSans-32" x="95.410156"/>
      </g>
     </g>
    </g>
    <g id="ytick_16">
     <g id="line2d_30">
      <g>
       <use xlink:href="#m873bd7da45" x="672.28" y="199.130828" style="fill: #4682b4; stroke: #4682b4; stroke-width: 0.8"/>
      </g>
     </g>
     <g id="text_27">
      <!-- 0.4 -->
      <g style="fill: #4682b4" transform="translate(679.28 202.930047) scale(0.1 -0.1)">
       <use xlink:href="#DejaVuSans-30"/>
       <use xlink:href="#DejaVuSans-2e" x="63.623047"/>
       <use xlink:href="#DejaVuSans-34" x="95.410156"/>
      </g>
     </g>
    </g>
    <g id="ytick_17">
     <g id="line2d_31">
      <g>
       <use xlink:href="#m873bd7da45" x="672.28" y="159.247378" style="fill: #4682b4; stroke: #4682b4; stroke-width: 0.8"/>
      </g>
     </g>
     <g id="text_28">
      <!-- 0.6 -->
      <g style="fill: #4682b4" transform="translate(679.28 163.046597) scale(0.1 -0.1)">
       <use xlink:href="#DejaVuSans-30"/>
       <use xlink:href="#DejaVuSans-2e" x="63.623047"/>
       <use xlink:href="#DejaVuSans-36" x="95.410156"/>
      </g>
     </g>
    </g>
    <g id="ytick_18">
     <g id="line2d_32">
      <g>
       <use xlink:href="#m873bd7da45" x="672.28" y="119.363928" style="fill: #4682b4; stroke: #4682b4; stroke-width: 0.8"/>
      </g>
     </g>
     <g id="text_29">
      <!-- 0.8 -->
      <g style="fill: #4682b4" transform="translate(679.28 123.163147) scale(0.1 -0.1)">
       <use xlink:href="#DejaVuSans-30"/>
       <use xlink:href="#DejaVuSans-2e" x="63.623047"/>
       <use xlink:href="#DejaVuSans-38" x="95.410156"/>
      </g>
     </g>
    </g>
    <g id="ytick_19">
     <g id="line2d_33">
      <g>
       <use xlink:href="#m873bd7da45" x="672.28" y="79.480479" style="fill: #4682b4; stroke: #4682b4; stroke-width: 0.8"/>
      </g>
     </g>
     <g id="text_30">
      <!-- 1.0 -->
      <g style="fill: #4682b4" transform="translate(679.28 83.279697) scale(0.1 -0.1)">
       <use xlink:href="#DejaVuSans-31"/>
       <use xlink:href="#DejaVuSans-2e" x="63.623047"/>
       <use xlink:href="#DejaVuSans-30" x="95.410156"/>
      </g>
     </g>
    </g>
    <g id="text_31">
     <!-- Duty Cycle -->
     <g style="fill: #4682b4" transform="translate(706.781563 208.367969) rotate(-90) scale(0.1 -0.1)">
      <use xlink:href="#DejaVuSans-44"/>
      <use xlink:href="#DejaVuSans-75" x="77.001953"/>
      <use xlink:href="#DejaVuSans-74" x="140.380859"/>
      <use xlink:href="#DejaVuSans-79" x="179.589844"/>
      <use xlink:href="#DejaVuSans-20" x="238.769531"/>
      <use xlink:href="#DejaVuSans-43" x="270.556641"/>
      <use xlink:href="#DejaVuSans-79" x="340.380859"/>
      <use xlink:href="#DejaVuSans-63" x="399.560547"/>
      <use xlink:href="#DejaVuSans-6c" x="454.541016"/>
      <use xlink:href="#DejaVuSans-65" x="482.324219"/>
     </g>
    </g>
   </g>
   <g id="line2d_34">
    <path d="M 81.091818 179.395897 
L 107.852 179.395897 
L 108.012883 120.339006 
L 134.665809 120.339006 
L 134.826692 261.579882 
L 161.479618 261.579882 
L 161.640501 99.774827 
L 188.293427 99.774827 
L 188.45431 95.181703 
L 215.107236 95.181703 
L 215.268119 278.897727 
L 241.921045 278.897727 
L 242.081928 110.793618 
L 268.734854 110.793618 
L 268.895737 134.021307 
L 295.548663 134.021307 
L 295.709546 147.784788 
L 322.362473 147.784788 
L 322.523355 247.649451 
L 349.176282 247.649451 
L 349.337164 83.452273 
L 375.990091 83.452273 
L 376.150974 180.899425 
L 402.8039 180.899425 
L 402.964783 278.897727 
L 429.617709 278.897727 
L 429.778592 138.565564 
L 456.431518 138.565564 
L 456.592401 278.466645 
L 483.245327 278.466645 
L 483.40621 140.678361 
L 510.059136 140.678361 
L 510.220019 243.18431 
L 536.872945 243.18431 
L 537.033828 172.056679 
L 563.686754 172.056679 
L 563.847637 168.761085 
L 590.500564 168.761085 
L 590.661446 241.628928 
L 617.314373 241.628928 
L 617.475256 185.069416 
L 644.128182 185.069416 
L 644.128182 185.069416 
" clip-path="url(#pd3896ee52d)" style="fill: none; stroke: #4682b4; stroke-width: 1.5; stroke-linecap: square"/>
   </g>
   <g id="patch_12">
    <path d="M 52.94 288.67 
L 52.94 73.68 
" style="fill: none; stroke: #000000; stroke-width: 0.8; stroke-linejoin: miter; stroke-linecap: square"/>
   </g>
   <g id="patch_13">
    <path d="M 672.28 288.67 
L 672.28 73.68 
" style="fill: none; stroke: #4682b4; stroke-width: 0.8; stroke-linejoin: miter; stroke-linecap: square"/>
   </g>
   <g id="patch_14">
    <path d="M 52.94 288.67 
L 672.28 288.67 
" style="fill: none; stroke: #000000; stroke-width: 0.8; stroke-linejoin: miter; stroke-linecap: square"/>
   </g>
   <g id="patch_15">
    <path d="M 52.94 73.68 
L 672.28 73.68 
" style="fill: none; stroke: #000000; stroke-width: 0.8; stroke-linejoin: miter; stroke-linecap: square"/>
   </g>
  </g>
  <g id="text_32">
   <!-- Episode 11 - Total Reward: -398.25 -->
   <g transform="translate(255.563438 20.638125) scale(0.12 -0.12)">
    <defs>
     <path id="DejaVuSans-45" d="M 628 4666 
L 3578 4666 
L 3578 4134 
L 1259 4134 
L 1259 2753 
L 3481 2753 
L 3481 2222 
L 1259 2222 
L 1259 531 
L 3634 531 
L 3634 0 
L 628 0 
L 628 4666 
z
" transform="scale(0.015625)"/>
     <path id="DejaVuSans-2d" d="M 313 2009 
L 1997 2009 
L 1997 1497 
L 313 1497 
L 313 2009 
z
" transform="scale(0.015625)"/>
     <path id="DejaVuSans-52" d="M 2841 2188 
Q 3044 2119 3236 1894 
Q 3428 1669 3622 1275 
L 4263 0 
L 3584 0 
L 2988 1197 
Q 2756 1666 2539 1819 
Q 2322 1972 1947 1972 
L 1259 1972 
L 1259 0 
L 628 0 
L 628 4666 
L 2053 4666 
Q 2853 4666 3247 4331 
Q 3641 3997 3641 3322 
Q 3641 2881 3436 2590 
Q 3231 2300 2841 2188 
z
M 1259 4147 
L 1259 2491 
L 2053 2491 
Q 2509 2491 2742 2702 
Q 2975 2913 2975 3322 
Q 2975 3731 2742 3939 
Q 2509 4147 2053 4147 
L 1259 4147 
z
" transform="scale(0.015625)"/>
     <path id="DejaVuSans-77" d="M 269 3500 
L 844 3500 
L 1563 769 
L 2278 3500 
L 2956 3500 
L 3675 769 
L 4391 3500 
L 4966 3500 
L 4050 0 
L 3372 0 
L 2619 2869 
L 1863 0 
L 1184 0 
L 269 3500 
z
" transform="scale(0.015625)"/>
     <path id="DejaVuSans-3a" d="M 750 794 
L 1409 794 
L 1409 0 
L 750 0 
L 750 794 
z
M 750 3309 
L 1409 3309 
L 1409 2516 
L 750 2516 
L 750 3309 
z
" transform="scale(0.015625)"/>
     <path id="DejaVuSans-39" d="M 703 97 
L 703 672 
Q 941 559 1184 500 
Q 1428 441 1663 441 
Q 2288 441 2617 861 
Q 2947 1281 2994 2138 
Q 2813 1869 2534 1725 
Q 2256 1581 1919 1581 
Q 1219 1581 811 2004 
Q 403 2428 403 3163 
Q 403 3881 828 4315 
Q 1253 4750 1959 4750 
Q 2769 4750 3195 4129 
Q 3622 3509 3622 2328 
Q 3622 1225 3098 567 
Q 2575 -91 1691 -91 
Q 1453 -91 1209 -44 
Q 966 3 703 97 
z
M 1959 2075 
Q 2384 2075 2632 2365 
Q 2881 2656 2881 3163 
Q 2881 3666 2632 3958 
Q 2384 4250 1959 4250 
Q 1534 4250 1286 3958 
Q 1038 3666 1038 3163 
Q 1038 2656 1286 2365 
Q 1534 2075 1959 2075 
z
" transform="scale(0.015625)"/>
    </defs>
    <use xlink:href="#DejaVuSans-45"/>
    <use xlink:href="#DejaVuSans-70" x="63.183594"/>
    <use xlink:href="#DejaVuSans-69" x="126.660156"/>
    <use xlink:href="#DejaVuSans-73" x="154.443359"/>
    <use xlink:href="#DejaVuSans-6f" x="206.542969"/>
    <use xlink:href="#DejaVuSans-64" x="267.724609"/>
    <use xlink:href="#DejaVuSans-65" x="331.201172"/>
    <use xlink:href="#DejaVuSans-20" x="392.724609"/>
    <use xlink:href="#DejaVuSans-31" x="424.511719"/>
    <use xlink:href="#DejaVuSans-31" x="488.134766"/>
    <use xlink:href="#DejaVuSans-20" x="551.757812"/>
    <use xlink:href="#DejaVuSans-2d" x="583.544922"/>
    <use xlink:href="#DejaVuSans-20" x="619.628906"/>
    <use xlink:href="#DejaVuSans-54" x="651.416016"/>
    <use xlink:href="#DejaVuSans-6f" x="695.5"/>
    <use xlink:href="#DejaVuSans-74" x="756.681641"/>
    <use xlink:href="#DejaVuSans-61" x="795.890625"/>
    <use xlink:href="#DejaVuSans-6c" x="857.169922"/>
    <use xlink:href="#DejaVuSans-20" x="884.953125"/>
    <use xlink:href="#DejaVuSans-52" x="916.740234"/>
    <use xlink:href="#DejaVuSans-65" x="981.722656"/>
    <use xlink:href="#DejaVuSans-77" x="1043.246094"/>
    <use xlink:href="#DejaVuSans-61" x="1125.033203"/>
    <use xlink:href="#DejaVuSans-72" x="1186.3125"/>
    <use xlink:href="#DejaVuSans-64" x="1225.675781"/>
    <use xlink:href="#DejaVuSans-3a" x="1289.152344"/>
    <use xlink:href="#DejaVuSans-20" x="1322.84375"/>
    <use xlink:href="#DejaVuSans-2d" x="1354.630859"/>
    <use xlink:href="#DejaVuSans-33" x="1390.714844"/>
    <use xlink:href="#DejaVuSans-39" x="1454.337891"/>
    <use xlink:href="#DejaVuSans-38" x="1517.960938"/>
    <use xlink:href="#DejaVuSans-2e" x="1581.583984"/>
    <use xlink:href="#DejaVuSans-32" x="1613.371094"/>
    <use xlink:href="#DejaVuSans-35" x="1676.994141"/>
   </g>
  </g>
 </g>
 <defs>
  <clipPath id="pd3896ee52d">
   <rect x="52.94" y="73.68" width="619.34" height="214.99"/>
  </clipPath>
  <clipPath id="p2391b180b5">
   <rect x="52.94" y="319.05" width="619.34" height="214.99"/>
  </clipPath>
 </defs>
</svg>
