<?xml version="1.0" encoding="utf-8" standalone="no"?>
<!DOCTYPE svg PUBLIC "-//W3C//DTD SVG 1.1//EN"
  "http://www.w3.org/Graphics/SVG/1.1/DTD/svg11.dtd">
<svg xmlns:xlink="http://www.w3.org/1999/xlink" width="720pt" height="576pt" viewBox="0 0 720 576" xmlns="http://www.w3.org/2000/svg" version="1.1">
 <metadata>
  <rdf:RDF xmlns:dc="http://purl.org/dc/elements/1.1/" xmlns:cc="http://creativecommons.org/ns#" xmlns:rdf="http://www.w3.org/1999/02/22-rdf-syntax-ns#">
   <cc:Work>
    <dc:type rdf:resource="http://purl.org/dc/dcmitype/StillImage"/>
    <dc:date>2024-06-03T13:19:11.420361</dc:date>
    <dc:format>image/svg+xml</dc:format>
    <dc:creator>
     <cc:Agent>
      <dc:title>Matplotlib v3.8.4, https://matplotlib.org/</dc:title>
     </cc:Agent>
    </dc:creator>
   </cc:Work>
  </rdf:RDF>
 </metadata>
 <defs>
  <style type="text/css">*{stroke-linejoin: round; stroke-linecap: butt}</style>
 </defs>
 <g id="figure_1">
  <g id="patch_1">
   <path d="M 0 576 
L 720 576 
L 720 0 
L 0 0 
z
" style="fill: #ffffff"/>
  </g>
  <g id="axes_1">
   <g id="patch_2">
    <path d="M 52.94 288.67 
L 672.28 288.67 
L 672.28 73.68 
L 52.94 73.68 
z
" style="fill: #ffffff"/>
   </g>
   <g id="matplotlib.axis_1">
    <g id="xtick_1">
     <g id="line2d_1">
      <defs>
       <path id="mc084f2edfc" d="M 0 0 
L 0 3.5 
" style="stroke: #000000; stroke-width: 0.8"/>
      </defs>
      <g>
       <use xlink:href="#mc084f2edfc" x="81.091818" y="288.67" style="stroke: #000000; stroke-width: 0.8"/>
      </g>
     </g>
    </g>
    <g id="xtick_2">
     <g id="line2d_2">
      <g>
       <use xlink:href="#mc084f2edfc" x="188.347055" y="288.67" style="stroke: #000000; stroke-width: 0.8"/>
      </g>
     </g>
    </g>
    <g id="xtick_3">
     <g id="line2d_3">
      <g>
       <use xlink:href="#mc084f2edfc" x="295.602291" y="288.67" style="stroke: #000000; stroke-width: 0.8"/>
      </g>
     </g>
    </g>
    <g id="xtick_4">
     <g id="line2d_4">
      <g>
       <use xlink:href="#mc084f2edfc" x="402.857527" y="288.67" style="stroke: #000000; stroke-width: 0.8"/>
      </g>
     </g>
    </g>
    <g id="xtick_5">
     <g id="line2d_5">
      <g>
       <use xlink:href="#mc084f2edfc" x="510.112764" y="288.67" style="stroke: #000000; stroke-width: 0.8"/>
      </g>
     </g>
    </g>
    <g id="xtick_6">
     <g id="line2d_6">
      <g>
       <use xlink:href="#mc084f2edfc" x="617.368" y="288.67" style="stroke: #000000; stroke-width: 0.8"/>
      </g>
     </g>
    </g>
   </g>
   <g id="matplotlib.axis_2">
    <g id="ytick_1">
     <g id="line2d_7">
      <defs>
       <path id="mf30bec5130" d="M 0 0 
L -3.5 0 
" style="stroke: #ff4500; stroke-width: 0.8"/>
      </defs>
      <g>
       <use xlink:href="#mf30bec5130" x="52.94" y="278.913896" style="fill: #ff4500; stroke: #ff4500; stroke-width: 0.8"/>
      </g>
     </g>
     <g id="text_1">
      <!-- 0 -->
      <g style="fill: #ff4500" transform="translate(39.5775 282.713115) scale(0.1 -0.1)">
       <defs>
        <path id="DejaVuSans-30" d="M 2034 4250 
Q 1547 4250 1301 3770 
Q 1056 3291 1056 2328 
Q 1056 1369 1301 889 
Q 1547 409 2034 409 
Q 2525 409 2770 889 
Q 3016 1369 3016 2328 
Q 3016 3291 2770 3770 
Q 2525 4250 2034 4250 
z
M 2034 4750 
Q 2819 4750 3233 4129 
Q 3647 3509 3647 2328 
Q 3647 1150 3233 529 
Q 2819 -91 2034 -91 
Q 1250 -91 836 529 
Q 422 1150 422 2328 
Q 422 3509 836 4129 
Q 1250 4750 2034 4750 
z
" transform="scale(0.015625)"/>
       </defs>
       <use xlink:href="#DejaVuSans-30"/>
      </g>
     </g>
    </g>
    <g id="ytick_2">
     <g id="line2d_8">
      <g>
       <use xlink:href="#mf30bec5130" x="52.94" y="234.000025" style="fill: #ff4500; stroke: #ff4500; stroke-width: 0.8"/>
      </g>
     </g>
     <g id="text_2">
      <!-- 1 -->
      <g style="fill: #ff4500" transform="translate(39.5775 237.799243) scale(0.1 -0.1)">
       <defs>
        <path id="DejaVuSans-31" d="M 794 531 
L 1825 531 
L 1825 4091 
L 703 3866 
L 703 4441 
L 1819 4666 
L 2450 4666 
L 2450 531 
L 3481 531 
L 3481 0 
L 794 0 
L 794 531 
z
" transform="scale(0.015625)"/>
       </defs>
       <use xlink:href="#DejaVuSans-31"/>
      </g>
     </g>
    </g>
    <g id="ytick_3">
     <g id="line2d_9">
      <g>
       <use xlink:href="#mf30bec5130" x="52.94" y="189.086154" style="fill: #ff4500; stroke: #ff4500; stroke-width: 0.8"/>
      </g>
     </g>
     <g id="text_3">
      <!-- 2 -->
      <g style="fill: #ff4500" transform="translate(39.5775 192.885372) scale(0.1 -0.1)">
       <defs>
        <path id="DejaVuSans-32" d="M 1228 531 
L 3431 531 
L 3431 0 
L 469 0 
L 469 531 
Q 828 903 1448 1529 
Q 2069 2156 2228 2338 
Q 2531 2678 2651 2914 
Q 2772 3150 2772 3378 
Q 2772 3750 2511 3984 
Q 2250 4219 1831 4219 
Q 1534 4219 1204 4116 
Q 875 4013 500 3803 
L 500 4441 
Q 881 4594 1212 4672 
Q 1544 4750 1819 4750 
Q 2544 4750 2975 4387 
Q 3406 4025 3406 3419 
Q 3406 3131 3298 2873 
Q 3191 2616 2906 2266 
Q 2828 2175 2409 1742 
Q 1991 1309 1228 531 
z
" transform="scale(0.015625)"/>
       </defs>
       <use xlink:href="#DejaVuSans-32"/>
      </g>
     </g>
    </g>
    <g id="ytick_4">
     <g id="line2d_10">
      <g>
       <use xlink:href="#mf30bec5130" x="52.94" y="144.172283" style="fill: #ff4500; stroke: #ff4500; stroke-width: 0.8"/>
      </g>
     </g>
     <g id="text_4">
      <!-- 3 -->
      <g style="fill: #ff4500" transform="translate(39.5775 147.971501) scale(0.1 -0.1)">
       <defs>
        <path id="DejaVuSans-33" d="M 2597 2516 
Q 3050 2419 3304 2112 
Q 3559 1806 3559 1356 
Q 3559 666 3084 287 
Q 2609 -91 1734 -91 
Q 1441 -91 1130 -33 
Q 819 25 488 141 
L 488 750 
Q 750 597 1062 519 
Q 1375 441 1716 441 
Q 2309 441 2620 675 
Q 2931 909 2931 1356 
Q 2931 1769 2642 2001 
Q 2353 2234 1838 2234 
L 1294 2234 
L 1294 2753 
L 1863 2753 
Q 2328 2753 2575 2939 
Q 2822 3125 2822 3475 
Q 2822 3834 2567 4026 
Q 2313 4219 1838 4219 
Q 1578 4219 1281 4162 
Q 984 4106 628 3988 
L 628 4550 
Q 988 4650 1302 4700 
Q 1616 4750 1894 4750 
Q 2613 4750 3031 4423 
Q 3450 4097 3450 3541 
Q 3450 3153 3228 2886 
Q 3006 2619 2597 2516 
z
" transform="scale(0.015625)"/>
       </defs>
       <use xlink:href="#DejaVuSans-33"/>
      </g>
     </g>
    </g>
    <g id="ytick_5">
     <g id="line2d_11">
      <g>
       <use xlink:href="#mf30bec5130" x="52.94" y="99.258412" style="fill: #ff4500; stroke: #ff4500; stroke-width: 0.8"/>
      </g>
     </g>
     <g id="text_5">
      <!-- 4 -->
      <g style="fill: #ff4500" transform="translate(39.5775 103.05763) scale(0.1 -0.1)">
       <defs>
        <path id="DejaVuSans-34" d="M 2419 4116 
L 825 1625 
L 2419 1625 
L 2419 4116 
z
M 2253 4666 
L 3047 4666 
L 3047 1625 
L 3713 1625 
L 3713 1100 
L 3047 1100 
L 3047 0 
L 2419 0 
L 2419 1100 
L 313 1100 
L 313 1709 
L 2253 4666 
z
" transform="scale(0.015625)"/>
       </defs>
       <use xlink:href="#DejaVuSans-34"/>
      </g>
     </g>
    </g>
    <g id="text_6">
     <!-- Output Voltage -->
     <g style="fill: #ff4500" transform="translate(33.497812 218.888281) rotate(-90) scale(0.1 -0.1)">
      <defs>
       <path id="DejaVuSans-4f" d="M 2522 4238 
Q 1834 4238 1429 3725 
Q 1025 3213 1025 2328 
Q 1025 1447 1429 934 
Q 1834 422 2522 422 
Q 3209 422 3611 934 
Q 4013 1447 4013 2328 
Q 4013 3213 3611 3725 
Q 3209 4238 2522 4238 
z
M 2522 4750 
Q 3503 4750 4090 4092 
Q 4678 3434 4678 2328 
Q 4678 1225 4090 567 
Q 3503 -91 2522 -91 
Q 1538 -91 948 565 
Q 359 1222 359 2328 
Q 359 3434 948 4092 
Q 1538 4750 2522 4750 
z
" transform="scale(0.015625)"/>
       <path id="DejaVuSans-75" d="M 544 1381 
L 544 3500 
L 1119 3500 
L 1119 1403 
Q 1119 906 1312 657 
Q 1506 409 1894 409 
Q 2359 409 2629 706 
Q 2900 1003 2900 1516 
L 2900 3500 
L 3475 3500 
L 3475 0 
L 2900 0 
L 2900 538 
Q 2691 219 2414 64 
Q 2138 -91 1772 -91 
Q 1169 -91 856 284 
Q 544 659 544 1381 
z
M 1991 3584 
L 1991 3584 
z
" transform="scale(0.015625)"/>
       <path id="DejaVuSans-74" d="M 1172 4494 
L 1172 3500 
L 2356 3500 
L 2356 3053 
L 1172 3053 
L 1172 1153 
Q 1172 725 1289 603 
Q 1406 481 1766 481 
L 2356 481 
L 2356 0 
L 1766 0 
Q 1100 0 847 248 
Q 594 497 594 1153 
L 594 3053 
L 172 3053 
L 172 3500 
L 594 3500 
L 594 4494 
L 1172 4494 
z
" transform="scale(0.015625)"/>
       <path id="DejaVuSans-70" d="M 1159 525 
L 1159 -1331 
L 581 -1331 
L 581 3500 
L 1159 3500 
L 1159 2969 
Q 1341 3281 1617 3432 
Q 1894 3584 2278 3584 
Q 2916 3584 3314 3078 
Q 3713 2572 3713 1747 
Q 3713 922 3314 415 
Q 2916 -91 2278 -91 
Q 1894 -91 1617 61 
Q 1341 213 1159 525 
z
M 3116 1747 
Q 3116 2381 2855 2742 
Q 2594 3103 2138 3103 
Q 1681 3103 1420 2742 
Q 1159 2381 1159 1747 
Q 1159 1113 1420 752 
Q 1681 391 2138 391 
Q 2594 391 2855 752 
Q 3116 1113 3116 1747 
z
" transform="scale(0.015625)"/>
       <path id="DejaVuSans-20" transform="scale(0.015625)"/>
       <path id="DejaVuSans-56" d="M 1831 0 
L 50 4666 
L 709 4666 
L 2188 738 
L 3669 4666 
L 4325 4666 
L 2547 0 
L 1831 0 
z
" transform="scale(0.015625)"/>
       <path id="DejaVuSans-6f" d="M 1959 3097 
Q 1497 3097 1228 2736 
Q 959 2375 959 1747 
Q 959 1119 1226 758 
Q 1494 397 1959 397 
Q 2419 397 2687 759 
Q 2956 1122 2956 1747 
Q 2956 2369 2687 2733 
Q 2419 3097 1959 3097 
z
M 1959 3584 
Q 2709 3584 3137 3096 
Q 3566 2609 3566 1747 
Q 3566 888 3137 398 
Q 2709 -91 1959 -91 
Q 1206 -91 779 398 
Q 353 888 353 1747 
Q 353 2609 779 3096 
Q 1206 3584 1959 3584 
z
" transform="scale(0.015625)"/>
       <path id="DejaVuSans-6c" d="M 603 4863 
L 1178 4863 
L 1178 0 
L 603 0 
L 603 4863 
z
" transform="scale(0.015625)"/>
       <path id="DejaVuSans-61" d="M 2194 1759 
Q 1497 1759 1228 1600 
Q 959 1441 959 1056 
Q 959 750 1161 570 
Q 1363 391 1709 391 
Q 2188 391 2477 730 
Q 2766 1069 2766 1631 
L 2766 1759 
L 2194 1759 
z
M 3341 1997 
L 3341 0 
L 2766 0 
L 2766 531 
Q 2569 213 2275 61 
Q 1981 -91 1556 -91 
Q 1019 -91 701 211 
Q 384 513 384 1019 
Q 384 1609 779 1909 
Q 1175 2209 1959 2209 
L 2766 2209 
L 2766 2266 
Q 2766 2663 2505 2880 
Q 2244 3097 1772 3097 
Q 1472 3097 1187 3025 
Q 903 2953 641 2809 
L 641 3341 
Q 956 3463 1253 3523 
Q 1550 3584 1831 3584 
Q 2591 3584 2966 3190 
Q 3341 2797 3341 1997 
z
" transform="scale(0.015625)"/>
       <path id="DejaVuSans-67" d="M 2906 1791 
Q 2906 2416 2648 2759 
Q 2391 3103 1925 3103 
Q 1463 3103 1205 2759 
Q 947 2416 947 1791 
Q 947 1169 1205 825 
Q 1463 481 1925 481 
Q 2391 481 2648 825 
Q 2906 1169 2906 1791 
z
M 3481 434 
Q 3481 -459 3084 -895 
Q 2688 -1331 1869 -1331 
Q 1566 -1331 1297 -1286 
Q 1028 -1241 775 -1147 
L 775 -588 
Q 1028 -725 1275 -790 
Q 1522 -856 1778 -856 
Q 2344 -856 2625 -561 
Q 2906 -266 2906 331 
L 2906 616 
Q 2728 306 2450 153 
Q 2172 0 1784 0 
Q 1141 0 747 490 
Q 353 981 353 1791 
Q 353 2603 747 3093 
Q 1141 3584 1784 3584 
Q 2172 3584 2450 3431 
Q 2728 3278 2906 2969 
L 2906 3500 
L 3481 3500 
L 3481 434 
z
" transform="scale(0.015625)"/>
       <path id="DejaVuSans-65" d="M 3597 1894 
L 3597 1613 
L 953 1613 
Q 991 1019 1311 708 
Q 1631 397 2203 397 
Q 2534 397 2845 478 
Q 3156 559 3463 722 
L 3463 178 
Q 3153 47 2828 -22 
Q 2503 -91 2169 -91 
Q 1331 -91 842 396 
Q 353 884 353 1716 
Q 353 2575 817 3079 
Q 1281 3584 2069 3584 
Q 2775 3584 3186 3129 
Q 3597 2675 3597 1894 
z
M 3022 2063 
Q 3016 2534 2758 2815 
Q 2500 3097 2075 3097 
Q 1594 3097 1305 2825 
Q 1016 2553 972 2059 
L 3022 2063 
z
" transform="scale(0.015625)"/>
      </defs>
      <use xlink:href="#DejaVuSans-4f"/>
      <use xlink:href="#DejaVuSans-75" x="78.710938"/>
      <use xlink:href="#DejaVuSans-74" x="142.089844"/>
      <use xlink:href="#DejaVuSans-70" x="181.298828"/>
      <use xlink:href="#DejaVuSans-75" x="244.775391"/>
      <use xlink:href="#DejaVuSans-74" x="308.154297"/>
      <use xlink:href="#DejaVuSans-20" x="347.363281"/>
      <use xlink:href="#DejaVuSans-56" x="379.150391"/>
      <use xlink:href="#DejaVuSans-6f" x="439.808594"/>
      <use xlink:href="#DejaVuSans-6c" x="500.990234"/>
      <use xlink:href="#DejaVuSans-74" x="528.773438"/>
      <use xlink:href="#DejaVuSans-61" x="567.982422"/>
      <use xlink:href="#DejaVuSans-67" x="629.261719"/>
      <use xlink:href="#DejaVuSans-65" x="692.738281"/>
     </g>
    </g>
   </g>
   <g id="line2d_12">
    <path d="M 81.091818 278.897727 
L 81.199073 278.753551 
L 81.359956 277.915086 
L 81.628094 274.88998 
L 82.164371 268.896291 
L 82.647019 265.641408 
L 83.07604 264.046228 
L 83.451433 263.432263 
L 83.719571 263.354305 
L 83.826827 263.345573 
L 83.934082 263.117311 
L 84.148592 261.618366 
L 85.060262 252.786132 
L 85.489283 250.978036 
L 85.811049 250.385363 
L 86.079187 250.298973 
L 86.347325 250.523052 
L 86.561835 250.740511 
L 86.66909 250.476785 
L 86.883601 248.941972 
L 87.527132 242.982831 
L 87.956153 241.056959 
L 88.277919 240.46906 
L 88.492429 240.41286 
L 88.70694 240.586653 
L 89.028706 241.215475 
L 89.243216 241.690465 
L 89.296844 241.666599 
L 89.457727 241.072251 
L 89.725865 238.644193 
L 90.208513 235.027955 
L 90.583907 233.662868 
L 90.852045 233.308523 
L 91.066555 233.337858 
L 91.334693 233.709061 
L 91.710087 234.748827 
L 91.978225 235.438425 
L 92.08548 235.219605 
L 92.29999 233.800731 
L 92.782639 230.074053 
L 93.158032 228.670886 
L 93.42617 228.321567 
L 93.640681 228.37108 
L 93.908819 228.784694 
L 94.284212 229.910367 
L 94.659606 231.187616 
L 94.713233 231.154124 
L 94.874116 230.544898 
L 95.732158 225.313561 
L 96.000296 224.900236 
L 96.214807 224.917152 
L 96.429317 225.201361 
L 96.751083 226.054982 
L 97.394614 228.293198 
L 97.448242 228.19524 
L 97.609125 227.408487 
L 98.199028 223.499502 
L 98.520794 222.657382 
L 98.735305 222.52374 
L 98.949815 222.683358 
L 99.217953 223.239149 
L 99.593346 224.569819 
L 100.075995 226.357615 
L 100.18325 226.107776 
L 100.397761 224.687651 
L 100.826782 221.989408 
L 101.148547 221.086391 
L 101.363058 220.924213 
L 101.577568 221.063649 
L 101.845706 221.604476 
L 102.2211 222.930364 
L 102.757376 225.049426 
L 102.864631 224.819944 
L 103.079142 223.439569 
L 103.508163 220.817228 
L 103.829928 219.968099 
L 104.044439 219.840464 
L 104.258949 220.01338 
L 104.527087 220.594606 
L 104.956108 222.21757 
L 105.438757 224.165646 
L 105.546012 223.949925 
L 105.760523 222.59642 
L 106.189544 220.025384 
L 106.511309 219.212675 
L 106.72582 219.108386 
L 106.94033 219.303926 
L 107.208468 219.912454 
L 107.637489 221.576932 
L 108.870924 228.052066 
L 109.889849 235.420636 
L 111.337795 245.875846 
L 113.911921 262.551683 
L 116.057025 273.226857 
L 116.486046 274.156064 
L 117.397716 276.20232 
L 118.094875 277.154596 
L 118.684779 277.64153 
L 119.32831 277.535675 
L 120.561745 278.273438 
L 121.366159 278.472671 
L 122.009691 278.08379 
L 124.04754 278.627045 
L 124.691072 278.185686 
L 126.782549 278.606781 
L 127.104315 278.255708 
L 127.42608 278.21654 
L 128.981281 278.650604 
L 129.410302 278.661081 
L 130.053834 278.208153 
L 132.145311 278.612903 
L 132.467076 278.260696 
L 132.788842 278.220568 
L 134.344043 278.652138 
L 134.773064 278.662258 
L 134.880319 278.389248 
L 135.09483 276.774587 
L 135.845616 269.397907 
L 136.328265 266.897957 
L 136.703658 265.882794 
L 137.025424 265.526389 
L 137.293562 265.527597 
L 137.508073 265.541021 
L 137.668955 264.849892 
L 137.990721 261.614167 
L 138.47337 257.644286 
L 138.902391 255.665369 
L 139.277784 254.867989 
L 139.545922 254.72962 
L 139.81406 254.889295 
L 140.189453 255.373476 
L 140.243081 255.294743 
L 140.403964 254.530656 
L 141.369261 247.679552 
L 141.744654 246.823445 
L 142.012792 246.694717 
L 142.227303 246.83451 
L 142.549069 247.385808 
L 142.870834 248.124428 
L 142.924462 248.097695 
L 143.085345 247.487871 
L 144.050642 241.50716 
L 144.372408 240.991163 
L 144.586918 240.973593 
L 144.801429 241.179514 
L 145.123194 241.84588 
L 145.605843 243.132798 
L 145.659471 243.053366 
L 145.820353 242.301452 
L 146.463885 238.070054 
L 146.78565 237.178861 
L 147.053789 236.951947 
L 147.268299 237.056801 
L 147.536437 237.493763 
L 147.91183 238.580272 
L 148.287224 239.750494 
L 148.394479 239.556092 
L 148.60899 238.204982 
L 149.03801 235.504925 
L 149.413404 234.403777 
L 149.681542 234.199685 
L 149.896052 234.329478 
L 150.16419 234.80464 
L 150.539584 235.955307 
L 150.968605 237.458025 
L 151.022232 237.422511 
L 151.183115 236.800367 
L 151.826647 233.05933 
L 152.148412 232.397002 
L 152.362923 232.328714 
L 152.577433 232.516149 
L 152.899199 233.206657 
L 153.32822 234.746643 
L 153.649986 235.907474 
L 153.757241 235.772687 
L 153.918124 234.939544 
L 154.400772 232.060394 
L 154.722538 231.21253 
L 154.990676 231.045731 
L 155.205187 231.211771 
L 155.473325 231.73893 
L 155.902346 233.188871 
L 156.331367 234.859635 
L 156.384994 234.844404 
L 156.492249 234.552803 
L 157.403919 230.316818 
L 157.618429 230.175916 
L 157.83294 230.306253 
L 158.101078 230.798769 
L 158.476471 231.999659 
L 159.066375 234.142077 
L 159.17363 233.861413 
L 160.0853 229.711771 
L 160.29981 229.589569 
L 160.514321 229.738027 
L 160.782459 230.25241 
L 161.21148 231.699668 
L 161.747756 233.667696 
L 161.855011 233.39442 
L 162.069522 231.915099 
L 162.498543 229.058093 
L 162.873936 227.910036 
L 163.142074 227.714018 
L 163.356585 227.871111 
L 163.624723 228.402564 
L 164.053744 229.888977 
L 164.375509 231.054789 
L 164.429137 231.035322 
L 164.536392 230.737887 
L 164.750903 229.221074 
L 165.179924 226.325453 
L 165.501689 225.272609 
L 165.769827 224.993556 
L 165.984338 225.102601 
L 166.252476 225.593893 
L 166.627869 226.832785 
L 167.110518 228.501738 
L 167.217773 228.225544 
L 167.432284 226.752912 
L 167.861304 223.950862 
L 168.18307 222.971448 
L 168.451208 222.754922 
L 168.665719 222.91452 
L 168.933857 223.469326 
L 169.30925 224.797125 
L 169.791899 226.579232 
L 169.899154 226.327888 
L 170.113664 224.904536 
L 170.542685 222.199148 
L 170.864451 221.29031 
L 171.078962 221.124093 
L 171.293472 221.259395 
L 171.56161 221.794958 
L 171.937003 223.113368 
L 172.47328 225.221694 
L 172.580535 224.990072 
L 172.795045 223.60544 
L 173.224066 220.974697 
L 173.545832 220.119394 
L 173.760342 219.987716 
L 173.974853 220.156651 
L 174.242991 220.732998 
L 174.672012 222.348389 
L 175.154661 224.28831 
L 175.261916 224.07083 
L 175.476426 222.71387 
L 175.905447 220.136158 
L 176.227213 219.318652 
L 176.441723 219.211264 
L 176.656234 219.403784 
L 176.924372 220.008645 
L 177.353393 221.667506 
L 177.836041 223.653302 
L 177.943297 223.445603 
L 178.157807 222.107757 
L 178.586828 219.566593 
L 178.908594 218.775074 
L 179.123104 218.684361 
L 179.337615 218.893052 
L 179.605753 219.517442 
L 180.034774 221.206029 
L 180.517422 223.223141 
L 180.624678 223.022112 
L 180.839188 221.697294 
L 181.268209 219.181019 
L 181.589975 218.407179 
L 181.804485 218.327802 
L 182.018996 218.547483 
L 182.340761 219.355724 
L 182.769782 221.157619 
L 183.198803 222.93226 
L 183.306058 222.735754 
L 183.520569 221.419768 
L 183.94959 218.920359 
L 184.271356 218.158495 
L 184.485866 218.086796 
L 184.700377 218.313918 
L 185.022142 219.132893 
L 185.451163 220.94834 
L 185.880184 222.735706 
L 185.987439 222.542259 
L 186.20195 221.232247 
L 186.630971 218.744245 
L 186.952737 217.99048 
L 187.167247 217.923972 
L 187.381757 218.156125 
L 187.703523 218.982357 
L 188.132544 220.806963 
L 189.473235 228.271298 
L 190.599415 236.811344 
L 191.671967 244.542952 
L 194.406975 262.419819 
L 196.498453 273.002602 
L 196.927474 273.988616 
L 197.839143 276.109479 
L 198.536302 277.09448 
L 199.126206 277.599853 
L 199.769737 277.508213 
L 201.003173 278.260688 
L 201.807587 278.464918 
L 202.451118 278.078673 
L 204.488968 278.625604 
L 205.132499 278.184735 
L 207.223976 278.606522 
L 207.545742 278.255497 
L 207.867508 278.216369 
L 209.422709 278.650539 
L 209.85173 278.661031 
L 210.495261 278.20812 
L 212.586738 278.612894 
L 212.908504 278.260689 
L 213.230269 278.220562 
L 214.78547 278.652136 
L 215.214491 278.662256 
L 215.858023 278.208929 
L 217.9495 278.613114 
L 218.271266 278.260869 
L 218.593031 278.220707 
L 220.148232 278.652191 
L 220.577253 278.662298 
L 221.220785 278.208957 
L 223.312262 278.613122 
L 223.634027 278.260875 
L 223.955793 278.220712 
L 225.510994 278.652193 
L 225.940015 278.6623 
L 226.583546 278.208958 
L 228.675024 278.613122 
L 228.996789 278.260875 
L 229.318555 278.220712 
L 230.873756 278.652193 
L 231.302777 278.6623 
L 231.946308 278.208958 
L 234.037785 278.613122 
L 234.359551 278.260875 
L 234.681317 278.220712 
L 236.236518 278.652193 
L 236.665539 278.6623 
L 237.30907 278.208958 
L 239.400547 278.613122 
L 239.722313 278.260875 
L 240.044079 278.220712 
L 241.599279 278.652193 
L 242.0283 278.6623 
L 242.671832 278.208958 
L 244.763309 278.613122 
L 245.085075 278.260875 
L 245.40684 278.220712 
L 246.962041 278.652193 
L 247.391062 278.6623 
L 248.034594 278.208958 
L 250.126071 278.613122 
L 250.447837 278.260875 
L 250.769602 278.220712 
L 252.324803 278.652193 
L 252.753824 278.6623 
L 253.397356 278.208958 
L 255.488833 278.613122 
L 255.810598 278.260875 
L 256.132364 278.220712 
L 257.687565 278.652193 
L 258.116586 278.6623 
L 258.760117 278.208958 
L 260.851594 278.613122 
L 261.17336 278.260875 
L 261.495126 278.220712 
L 263.050327 278.652193 
L 263.479348 278.6623 
L 264.122879 278.208958 
L 266.214356 278.613122 
L 266.536122 278.260875 
L 266.857888 278.220712 
L 268.413089 278.652193 
L 268.84211 278.6623 
L 268.949365 278.389287 
L 269.539269 276.207661 
L 269.914662 275.59006 
L 270.236428 275.439751 
L 270.558193 275.573702 
L 270.933587 276.019794 
L 271.577118 276.852571 
L 271.845256 275.97914 
L 272.274277 275.033752 
L 272.596043 274.772139 
L 272.864181 274.792515 
L 273.185947 275.053648 
L 273.614968 275.724525 
L 274.204871 276.686029 
L 274.312127 276.547378 
L 274.848403 275.068958 
L 275.170169 274.714484 
L 275.438307 274.670739 
L 275.760072 274.868541 
L 276.189093 275.474364 
L 276.93988 276.632405 
L 277.208018 275.791518 
L 277.637039 274.889876 
L 277.958805 274.655318 
L 278.226943 274.695049 
L 278.548708 274.976106 
L 278.977729 275.668796 
L 279.567633 276.647704 
L 279.674888 276.511487 
L 280.211165 275.043416 
L 280.53293 274.693916 
L 280.801068 274.653724 
L 281.122834 274.855177 
L 281.551855 275.464991 
L 282.302642 276.626776 
L 282.57078 275.786743 
L 282.999801 274.88625 
L 283.321566 274.652401 
L 283.589705 274.692638 
L 283.91147 274.974215 
L 284.340491 275.667474 
L 284.930395 276.6468 
L 285.03765 276.51064 
L 285.573926 275.042812 
L 285.895692 274.693428 
L 286.16383 274.653319 
L 286.485596 274.854859 
L 286.914617 275.464766 
L 287.665404 276.62664 
L 287.933542 275.786628 
L 288.362563 274.886162 
L 288.684328 274.652331 
L 288.952466 274.69258 
L 289.274232 274.97417 
L 289.703253 275.667442 
L 290.293157 276.646778 
L 290.400412 276.510619 
L 290.936688 275.042797 
L 291.258454 274.693416 
L 291.526592 274.653309 
L 291.848358 274.854851 
L 292.277379 275.464761 
L 293.028165 276.626637 
L 293.296303 275.786626 
L 293.725324 274.88616 
L 294.04709 274.652329 
L 294.315228 274.692578 
L 294.636994 274.974169 
L 295.066015 275.667441 
L 295.655919 276.646777 
L 296.406705 277.03446 
L 297.157492 277.747346 
L 298.015534 278.227949 
L 298.390927 278.264156 
L 298.712693 277.976679 
L 299.034459 277.991432 
L 300.267894 278.489433 
L 301.01868 278.595385 
L 301.662212 278.164791 
L 303.753689 278.601089 
L 304.075455 278.251069 
L 304.39722 278.212794 
L 305.952421 278.649178 
L 306.381442 278.659987 
L 307.024974 278.207431 
L 309.116451 278.612706 
L 309.438217 278.260536 
L 309.759982 278.220439 
L 311.315183 278.652089 
L 311.744204 278.66222 
L 312.387736 278.208905 
L 314.479213 278.613107 
L 314.800978 278.260863 
L 315.122744 278.220703 
L 316.677945 278.65219 
L 317.106966 278.662297 
L 317.750497 278.208956 
L 319.841974 278.613121 
L 320.16374 278.260875 
L 320.485506 278.220712 
L 322.040707 278.652193 
L 322.469728 278.6623 
L 323.113259 278.208958 
L 325.204736 278.613122 
L 325.526502 278.260875 
L 325.848268 278.220712 
L 327.403469 278.652193 
L 327.83249 278.6623 
L 328.476021 278.208958 
L 330.567498 278.613122 
L 330.889264 278.260875 
L 331.21103 278.220712 
L 332.76623 278.652193 
L 333.195251 278.6623 
L 333.838783 278.208958 
L 335.93026 278.613122 
L 336.252026 278.260875 
L 336.573791 278.220712 
L 338.128992 278.652193 
L 338.558013 278.6623 
L 339.201545 278.208958 
L 341.293022 278.613122 
L 341.614787 278.260875 
L 341.936553 278.220712 
L 343.491754 278.652193 
L 343.920775 278.6623 
L 344.564306 278.208958 
L 346.655784 278.613122 
L 346.977549 278.260875 
L 347.299315 278.220712 
L 348.854516 278.652193 
L 349.283537 278.6623 
L 349.390792 278.389287 
L 349.605303 276.774622 
L 349.980696 271.332682 
L 350.516972 264.866119 
L 350.999621 261.360556 
L 351.428642 259.648363 
L 351.750407 259.047346 
L 352.018545 258.75964 
L 352.179428 257.914947 
L 352.447566 254.921168 
L 353.091098 246.536615 
L 353.573746 243.12785 
L 353.94914 241.806302 
L 354.217278 241.432896 
L 354.431788 241.421873 
L 354.699926 241.564204 
L 354.807182 241.261785 
L 355.021692 239.677874 
L 356.094244 229.19872 
L 356.469638 228.059492 
L 356.737776 227.867818 
L 356.952286 228.027386 
L 357.220424 228.560853 
L 357.381307 228.884001 
L 357.434935 228.862001 
L 357.595818 228.287675 
L 357.863956 225.798693 
L 358.400232 220.473954 
L 358.775625 218.633352 
L 359.043763 218.083171 
L 359.258274 218.028717 
L 359.472784 218.271106 
L 359.79455 219.109705 
L 360.116316 220.06536 
L 360.223571 219.894393 
L 360.384454 219.034112 
L 361.403379 211.470046 
L 361.671517 211.07675 
L 361.8324 211.104706 
L 362.04691 211.411316 
L 362.368676 212.369185 
L 362.851324 214.045676 
L 362.95858 213.800333 
L 363.17309 212.382119 
L 363.762994 207.545423 
L 364.08476 206.465342 
L 364.29927 206.257433 
L 364.460153 206.334525 
L 364.674663 206.712015 
L 364.996429 207.785733 
L 365.532705 209.987267 
L 365.586333 209.93692 
L 365.747216 209.304889 
L 366.068981 206.449229 
L 366.444375 203.990442 
L 366.76614 203.072954 
L 366.980651 202.969339 
L 367.195161 203.213825 
L 367.463299 203.942075 
L 367.89232 205.908949 
L 368.214086 207.240121 
L 368.321341 207.100112 
L 368.482224 206.300924 
L 369.233011 201.206375 
L 369.501149 200.735132 
L 369.662032 200.745531 
L 369.876542 201.058618 
L 370.198308 202.081616 
L 370.627329 204.281896 
L 370.895467 205.383038 
L 371.002722 205.271917 
L 371.163605 204.515223 
L 371.914392 199.606297 
L 372.18253 199.196582 
L 372.343413 199.24276 
L 372.557923 199.602262 
L 372.879689 200.692214 
L 373.362337 203.317911 
L 373.576848 204.128329 
L 373.684103 204.036742 
L 373.844986 203.308782 
L 374.595773 198.525348 
L 374.863911 198.157224 
L 375.024794 198.227584 
L 375.239304 198.618458 
L 375.56107 199.75366 
L 376.043718 202.443363 
L 376.90176 207.950902 
L 377.867057 216.359172 
L 380.012162 235.595853 
L 381.781874 250.084203 
L 384.463254 266.975692 
L 386.179338 274.290208 
L 386.769242 275.715356 
L 387.091008 275.900178 
L 387.466401 276.309795 
L 388.270815 277.337286 
L 389.021602 277.923041 
L 389.504251 278.12769 
L 390.147782 277.856176 
L 391.971121 278.570104 
L 392.239259 278.517026 
L 392.561025 278.182562 
L 392.88279 278.157478 
L 394.330736 278.609034 
L 394.867012 278.643829 
L 395.510544 278.196765 
L 397.602021 278.6098 
L 397.923787 278.258168 
L 398.245552 278.218526 
L 399.800753 278.651361 
L 400.229774 278.661661 
L 400.873306 278.208536 
L 402.964783 278.572671 
L 403.125666 277.752028 
L 403.715569 273.963571 
L 404.14459 272.476569 
L 404.519984 271.857817 
L 404.841749 271.73295 
L 405.109887 271.863489 
L 405.485281 272.338466 
L 405.646164 272.475962 
L 405.753419 272.19061 
L 406.557833 268.477035 
L 406.933226 267.842653 
L 407.201365 267.72865 
L 407.469503 267.849084 
L 407.791268 268.25194 
L 408.327545 269.259835 
L 408.381172 269.199733 
L 408.542055 268.50272 
L 409.024704 266.347926 
L 409.400097 265.54359 
L 409.721863 265.335048 
L 409.990001 265.439782 
L 410.311766 265.841439 
L 410.794415 266.891097 
L 411.008925 267.339892 
L 411.062553 267.297895 
L 411.223436 266.653843 
L 411.652457 264.803504 
L 412.02785 264.008497 
L 412.295988 263.821549 
L 412.564126 263.898232 
L 412.885892 264.281132 
L 413.314913 265.187607 
L 413.690306 266.113741 
L 413.743934 266.082197 
L 413.904817 265.468863 
L 414.333838 263.696222 
L 414.709231 262.964459 
L 414.977369 262.820191 
L 415.245507 262.937613 
L 415.567273 263.366993 
L 416.049922 264.478358 
L 416.371687 265.30536 
L 416.425315 265.280379 
L 416.586198 264.686379 
L 417.015219 262.962925 
L 417.390612 262.271501 
L 417.65875 262.154604 
L 417.926888 262.29826 
L 418.248654 262.757695 
L 418.731302 263.911405 
L 419.053068 264.764919 
L 419.106696 264.744232 
L 419.267579 264.162894 
L 419.6966 262.471741 
L 420.071993 261.806897 
L 420.340131 261.708078 
L 420.608269 261.869093 
L 420.930035 262.348453 
L 421.412683 263.530299 
L 421.788077 264.383637 
L 421.94896 263.810741 
L 422.377981 262.141146 
L 422.753374 261.494067 
L 423.021512 261.407345 
L 423.28965 261.579983 
L 423.665043 262.181083 
L 424.147692 263.43476 
L 424.469458 264.140522 
L 424.63034 263.573296 
L 425.059361 261.918189 
L 425.434755 261.283056 
L 425.702893 261.204471 
L 425.971031 261.384932 
L 426.346424 261.996477 
L 426.829073 263.262764 
L 427.150839 263.976447 
L 427.311721 263.413041 
L 427.740742 261.767699 
L 428.062508 261.190282 
L 428.330646 261.060036 
L 428.598784 261.197432 
L 428.92055 261.657233 
L 429.403198 262.824404 
L 430.100358 264.545931 
L 430.690261 266.23619 
L 431.548303 269.470738 
L 432.620856 273.485175 
L 434.229684 276.834064 
L 434.926843 277.561856 
L 435.141354 277.624797 
L 435.409492 277.461678 
L 435.731257 277.535284 
L 436.964693 278.27333 
L 437.769107 278.472613 
L 438.412638 278.083755 
L 440.450488 278.627036 
L 441.094019 278.18568 
L 443.185496 278.60678 
L 443.507262 278.255706 
L 443.829028 278.216539 
L 445.384229 278.650604 
L 445.81325 278.661081 
L 446.456781 278.208153 
L 448.548258 278.612903 
L 448.870024 278.260696 
L 449.19179 278.220568 
L 450.746991 278.652138 
L 451.176011 278.662258 
L 451.819543 278.20893 
L 453.91102 278.613114 
L 454.232786 278.260869 
L 454.554551 278.220707 
L 456.109752 278.652191 
L 456.538773 278.662298 
L 456.646029 278.389286 
L 457.235932 276.20766 
L 457.611326 275.59006 
L 457.933091 275.43975 
L 458.254857 275.573702 
L 458.63025 276.019793 
L 459.273782 276.852571 
L 459.54192 275.97914 
L 459.970941 275.033752 
L 460.292707 274.772139 
L 460.560845 274.792515 
L 460.88261 275.053648 
L 461.311631 275.724525 
L 461.901535 276.686029 
L 462.00879 276.547378 
L 462.545067 275.068958 
L 462.866832 274.714484 
L 463.13497 274.670739 
L 463.456736 274.868541 
L 463.885757 275.474364 
L 464.636544 276.632405 
L 464.904682 275.791518 
L 465.333703 274.889876 
L 465.655468 274.655318 
L 465.923606 274.695049 
L 466.245372 274.976106 
L 466.674393 275.668796 
L 467.264297 276.647705 
L 467.371552 276.511487 
L 467.907828 275.043417 
L 468.229594 274.693916 
L 468.497732 274.653724 
L 468.819498 274.855177 
L 469.248519 275.464991 
L 469.999305 276.626776 
L 470.267444 275.786743 
L 470.696465 274.88625 
L 471.01823 274.652401 
L 471.286368 274.692638 
L 471.608134 274.974215 
L 472.037155 275.667474 
L 472.627059 276.6468 
L 472.734314 276.51064 
L 473.27059 275.042812 
L 473.592356 274.693428 
L 473.860494 274.653319 
L 474.18226 274.854859 
L 474.611281 275.464766 
L 475.362067 276.62664 
L 475.630205 275.786628 
L 476.059226 274.886162 
L 476.380992 274.652331 
L 476.64913 274.69258 
L 476.970896 274.97417 
L 477.399917 275.667442 
L 477.989821 276.646778 
L 478.097076 276.510619 
L 478.633352 275.042797 
L 478.955118 274.693416 
L 479.223256 274.653309 
L 479.545022 274.854851 
L 479.974042 275.464761 
L 480.724829 276.626637 
L 480.992967 275.786626 
L 481.421988 274.88616 
L 481.743754 274.652329 
L 482.011892 274.692578 
L 482.333658 274.974169 
L 482.762679 275.667441 
L 483.352582 276.646777 
L 484.103369 277.03446 
L 484.854156 277.747346 
L 485.712198 278.227949 
L 486.087591 278.264156 
L 486.409357 277.976679 
L 486.731122 277.991432 
L 487.964558 278.489433 
L 488.715344 278.595385 
L 489.358876 278.164791 
L 491.450353 278.601089 
L 491.772118 278.251069 
L 492.093884 278.212794 
L 493.649085 278.649178 
L 494.078106 278.659987 
L 494.721637 278.207431 
L 496.813115 278.612706 
L 497.13488 278.260536 
L 497.456646 278.220439 
L 499.011847 278.652089 
L 499.440868 278.66222 
L 500.084399 278.208905 
L 502.175876 278.613107 
L 502.497642 278.260863 
L 502.819408 278.220703 
L 504.374609 278.65219 
L 504.80363 278.662297 
L 505.447161 278.208956 
L 507.538638 278.613121 
L 507.860404 278.260875 
L 508.18217 278.220712 
L 509.737371 278.652193 
L 510.166392 278.6623 
L 510.380902 278.088927 
L 510.809923 277.238032 
L 511.131689 277.015922 
L 511.453454 277.080806 
L 511.936103 277.524042 
L 512.68689 278.058782 
L 512.847772 278.092664 
L 513.008655 277.734489 
L 513.384049 276.988999 
L 513.705814 276.740607 
L 514.02758 276.78577 
L 514.402973 277.132293 
L 515.100132 277.782722 
L 515.529153 278.002888 
L 515.690036 277.653242 
L 516.06543 276.925164 
L 516.387195 276.689236 
L 516.708961 276.744938 
L 517.084354 277.101445 
L 517.781513 277.762632 
L 518.210534 277.987447 
L 518.371417 277.639268 
L 518.74681 276.914186 
L 519.068576 276.680401 
L 519.390342 276.737917 
L 519.765735 277.096141 
L 520.462894 277.759178 
L 520.891915 277.984792 
L 521.052798 277.636866 
L 521.428191 276.912298 
L 521.749957 276.678882 
L 522.071723 276.736709 
L 522.447116 277.095229 
L 523.144275 277.758584 
L 523.573296 277.984336 
L 523.734179 277.636452 
L 524.109572 276.911973 
L 524.431338 276.678621 
L 524.753104 276.736502 
L 525.128497 277.095072 
L 525.825656 277.758482 
L 526.254677 277.984257 
L 526.41556 277.636381 
L 526.790953 276.911918 
L 527.112719 276.678576 
L 527.434485 276.736466 
L 527.809878 277.095045 
L 528.507037 277.758464 
L 528.936058 277.984244 
L 529.096941 277.636369 
L 529.472334 276.911908 
L 529.7941 276.678568 
L 530.115865 276.73646 
L 530.491259 277.095041 
L 531.188418 277.758461 
L 531.617439 277.984241 
L 531.778322 277.636367 
L 532.153715 276.911906 
L 532.475481 276.678567 
L 532.797246 276.736459 
L 533.17264 277.09504 
L 533.869799 277.758461 
L 534.29882 277.984241 
L 534.459703 277.636367 
L 534.835096 276.911906 
L 535.156862 276.678567 
L 535.478627 276.736459 
L 535.854021 277.09504 
L 536.55118 277.75846 
L 536.980201 277.984241 
L 537.087456 277.756637 
L 537.301966 276.225596 
L 537.623732 271.58122 
L 538.106381 260.390634 
L 538.696284 246.976361 
L 539.232561 239.562065 
L 540.197858 228.901432 
L 540.734134 216.228858 
L 541.324038 202.363632 
L 541.806686 195.877731 
L 542.18208 193.190565 
L 542.557473 191.077883 
L 542.879239 187.025385 
L 543.361887 177.527965 
L 544.005419 164.660294 
L 544.43444 160.40352 
L 544.756205 159.039041 
L 544.970716 158.846369 
L 545.077971 158.790869 
L 545.238854 158.241476 
L 545.506992 156.049783 
L 545.882385 150.727998 
L 546.794055 136.281932 
L 547.11582 134.503297 
L 547.330331 134.167861 
L 547.491214 134.303158 
L 547.866607 135.069411 
L 547.920235 134.987663 
L 548.081118 134.354051 
L 548.349256 132.128468 
L 548.724649 126.948924 
L 549.314553 118.641503 
L 549.636319 116.84282 
L 549.850829 116.561496 
L 550.011712 116.767903 
L 550.226222 117.534946 
L 550.601616 118.981421 
L 550.708871 118.863654 
L 550.869754 118.221842 
L 551.137892 116.044386 
L 551.566913 110.211581 
L 551.942306 105.905397 
L 552.264072 104.40247 
L 552.424955 104.287869 
L 552.585838 104.544908 
L 552.853976 105.703202 
L 553.336624 108.144672 
L 553.443879 108.06579 
L 553.604762 107.493146 
L 553.8729 105.456563 
L 554.355549 99.3404 
L 554.730942 96.36909 
L 554.945453 95.841574 
L 555.052708 95.854467 
L 555.213591 96.18664 
L 555.481729 97.485679 
L 556.071633 100.869934 
L 556.178888 100.779157 
L 556.339771 100.200558 
L 556.607909 98.182449 
L 557.465951 90.234067 
L 557.626834 90.04908 
L 557.734089 90.151952 
L 557.948599 90.84861 
L 558.270365 92.96453 
L 558.699386 95.8679 
L 558.806641 95.979559 
L 558.860269 95.941388 
L 559.021152 95.475181 
L 559.28929 93.638644 
L 560.147332 86.2258 
L 560.308215 86.133995 
L 560.469097 86.442765 
L 560.737235 87.743956 
L 561.488022 92.684854 
L 561.54165 92.672425 
L 561.702533 92.282248 
L 561.970671 90.568524 
L 562.828713 83.517822 
L 562.989595 83.489016 
L 563.150478 83.859321 
L 563.418616 85.259909 
L 564.223031 90.464191 
L 564.330286 90.295318 
L 564.759307 89.039721 
L 564.812934 89.057265 
L 564.973817 89.36725 
L 565.241955 90.65932 
L 565.617349 93.837888 
L 566.153625 100.503311 
L 566.797156 108.641628 
L 567.011667 109.305901 
L 567.118922 109.233946 
L 567.333433 109.012665 
L 567.494315 109.24845 
L 567.708826 110.070175 
L 568.030592 112.239281 
L 568.51324 117.173848 
L 569.585792 129.258326 
L 569.693048 129.31801 
L 569.853931 128.94274 
L 570.068441 128.551659 
L 570.229324 128.660836 
L 570.443834 129.281156 
L 570.7656 131.088877 
L 571.248249 135.377812 
L 572.213546 144.934299 
L 572.320801 144.941984 
L 572.481684 144.435872 
L 572.80345 143.304268 
L 572.964332 143.234658 
L 573.125215 143.465678 
L 573.393353 144.441036 
L 573.768747 146.849314 
L 574.305023 151.907432 
L 574.787671 156.076666 
L 574.894927 156.219749 
L 574.948554 156.178839 
L 575.109437 155.635381 
L 575.538458 153.59107 
L 575.752969 153.403418 
L 575.913851 153.599097 
L 576.18199 154.485151 
L 576.557383 156.714998 
L 577.093659 161.436219 
L 577.415425 163.857937 
L 577.52268 164.037118 
L 577.576308 164.011082 
L 577.73719 163.500326 
L 578.380722 160.350783 
L 578.541605 160.296926 
L 578.702488 160.512967 
L 578.970626 161.402972 
L 579.346019 163.584977 
L 580.204061 169.387814 
L 580.311316 169.179839 
L 580.525827 167.930635 
L 580.954848 165.351096 
L 581.222986 164.914691 
L 581.383869 165.024314 
L 581.598379 165.549303 
L 581.920145 167.036603 
L 582.402793 170.525306 
L 582.778187 172.976417 
L 582.885442 173.015128 
L 583.046325 172.511533 
L 583.36809 170.061187 
L 583.689856 168.423407 
L 583.904367 168.041784 
L 584.065249 168.078918 
L 584.27976 168.509841 
L 584.601526 169.8614 
L 585.084174 173.15799 
L 585.459567 175.46874 
L 585.566823 175.468721 
L 585.727706 174.908152 
L 586.585747 170.156082 
L 586.74663 170.144087 
L 586.907513 170.381134 
L 587.175651 171.265029 
L 587.551045 173.365365 
L 588.194576 177.178999 
L 588.301831 176.999304 
L 588.516342 175.783521 
L 588.99899 172.287328 
L 589.267128 171.584677 
L 589.428011 171.539453 
L 589.588894 171.744043 
L 589.857032 172.575509 
L 590.232426 174.605812 
L 591.090467 181.120139 
L 591.894882 189.158326 
L 596.345974 237.192581 
L 598.759217 256.5644 
L 601.601481 272.195674 
L 602.727661 275.505675 
L 603.371192 276.629087 
L 603.961096 277.326104 
L 604.175606 277.245164 
L 604.497372 277.237845 
L 604.872765 277.51726 
L 605.623552 278.044788 
L 606.588849 278.432888 
L 606.749732 278.373463 
L 607.071498 278.065571 
L 607.393263 278.063018 
L 608.733954 278.547468 
L 609.377485 278.61624 
L 610.021017 278.178553 
L 612.112494 278.604838 
L 612.434259 278.254124 
L 612.756025 278.215261 
L 614.311226 278.650117 
L 614.740247 278.660707 
L 615.383778 278.207907 
L 617.475256 278.612835 
L 617.797021 278.260642 
L 618.118787 278.220524 
L 619.673988 278.652121 
L 620.103009 278.662245 
L 620.74654 278.208921 
L 622.838017 278.613112 
L 623.159783 278.260867 
L 623.481549 278.220706 
L 625.03675 278.652191 
L 625.465771 278.662298 
L 626.109302 278.208956 
L 628.200779 278.613121 
L 628.522545 278.260875 
L 628.844311 278.220712 
L 630.399512 278.652193 
L 630.828533 278.6623 
L 631.472064 278.208958 
L 633.563541 278.613122 
L 633.885307 278.260875 
L 634.207072 278.220712 
L 635.762273 278.652193 
L 636.191294 278.6623 
L 636.834826 278.208958 
L 638.926303 278.613122 
L 639.248069 278.260875 
L 639.569834 278.220712 
L 641.125035 278.652193 
L 641.554056 278.6623 
L 642.197588 278.208958 
L 644.128182 278.697601 
L 644.128182 278.697601 
" clip-path="url(#pd453423366)" style="fill: none; stroke: #ff4500; stroke-width: 1.5; stroke-linecap: square"/>
   </g>
   <g id="patch_3">
    <path d="M 52.94 288.67 
L 52.94 73.68 
" style="fill: none; stroke: #ff4500; stroke-width: 0.8; stroke-linejoin: miter; stroke-linecap: square"/>
   </g>
   <g id="patch_4">
    <path d="M 672.28 288.67 
L 672.28 73.68 
" style="fill: none; stroke: #000000; stroke-width: 0.8; stroke-linejoin: miter; stroke-linecap: square"/>
   </g>
   <g id="patch_5">
    <path d="M 52.94 288.67 
L 672.28 288.67 
" style="fill: none; stroke: #000000; stroke-width: 0.8; stroke-linejoin: miter; stroke-linecap: square"/>
   </g>
   <g id="patch_6">
    <path d="M 52.94 73.68 
L 672.28 73.68 
" style="fill: none; stroke: #808080; stroke-width: 0.8; stroke-linejoin: miter; stroke-linecap: square"/>
   </g>
   <g id="text_7">
    <!-- Output Voltage and Duty Cycle -->
    <g transform="translate(269.620312 67.68) scale(0.12 -0.12)">
     <defs>
      <path id="DejaVuSans-6e" d="M 3513 2113 
L 3513 0 
L 2938 0 
L 2938 2094 
Q 2938 2591 2744 2837 
Q 2550 3084 2163 3084 
Q 1697 3084 1428 2787 
Q 1159 2491 1159 1978 
L 1159 0 
L 581 0 
L 581 3500 
L 1159 3500 
L 1159 2956 
Q 1366 3272 1645 3428 
Q 1925 3584 2291 3584 
Q 2894 3584 3203 3211 
Q 3513 2838 3513 2113 
z
" transform="scale(0.015625)"/>
      <path id="DejaVuSans-64" d="M 2906 2969 
L 2906 4863 
L 3481 4863 
L 3481 0 
L 2906 0 
L 2906 525 
Q 2725 213 2448 61 
Q 2172 -91 1784 -91 
Q 1150 -91 751 415 
Q 353 922 353 1747 
Q 353 2572 751 3078 
Q 1150 3584 1784 3584 
Q 2172 3584 2448 3432 
Q 2725 3281 2906 2969 
z
M 947 1747 
Q 947 1113 1208 752 
Q 1469 391 1925 391 
Q 2381 391 2643 752 
Q 2906 1113 2906 1747 
Q 2906 2381 2643 2742 
Q 2381 3103 1925 3103 
Q 1469 3103 1208 2742 
Q 947 2381 947 1747 
z
" transform="scale(0.015625)"/>
      <path id="DejaVuSans-44" d="M 1259 4147 
L 1259 519 
L 2022 519 
Q 2988 519 3436 956 
Q 3884 1394 3884 2338 
Q 3884 3275 3436 3711 
Q 2988 4147 2022 4147 
L 1259 4147 
z
M 628 4666 
L 1925 4666 
Q 3281 4666 3915 4102 
Q 4550 3538 4550 2338 
Q 4550 1131 3912 565 
Q 3275 0 1925 0 
L 628 0 
L 628 4666 
z
" transform="scale(0.015625)"/>
      <path id="DejaVuSans-79" d="M 2059 -325 
Q 1816 -950 1584 -1140 
Q 1353 -1331 966 -1331 
L 506 -1331 
L 506 -850 
L 844 -850 
Q 1081 -850 1212 -737 
Q 1344 -625 1503 -206 
L 1606 56 
L 191 3500 
L 800 3500 
L 1894 763 
L 2988 3500 
L 3597 3500 
L 2059 -325 
z
" transform="scale(0.015625)"/>
      <path id="DejaVuSans-43" d="M 4122 4306 
L 4122 3641 
Q 3803 3938 3442 4084 
Q 3081 4231 2675 4231 
Q 1875 4231 1450 3742 
Q 1025 3253 1025 2328 
Q 1025 1406 1450 917 
Q 1875 428 2675 428 
Q 3081 428 3442 575 
Q 3803 722 4122 1019 
L 4122 359 
Q 3791 134 3420 21 
Q 3050 -91 2638 -91 
Q 1578 -91 968 557 
Q 359 1206 359 2328 
Q 359 3453 968 4101 
Q 1578 4750 2638 4750 
Q 3056 4750 3426 4639 
Q 3797 4528 4122 4306 
z
" transform="scale(0.015625)"/>
      <path id="DejaVuSans-63" d="M 3122 3366 
L 3122 2828 
Q 2878 2963 2633 3030 
Q 2388 3097 2138 3097 
Q 1578 3097 1268 2742 
Q 959 2388 959 1747 
Q 959 1106 1268 751 
Q 1578 397 2138 397 
Q 2388 397 2633 464 
Q 2878 531 3122 666 
L 3122 134 
Q 2881 22 2623 -34 
Q 2366 -91 2075 -91 
Q 1284 -91 818 406 
Q 353 903 353 1747 
Q 353 2603 823 3093 
Q 1294 3584 2113 3584 
Q 2378 3584 2631 3529 
Q 2884 3475 3122 3366 
z
" transform="scale(0.015625)"/>
     </defs>
     <use xlink:href="#DejaVuSans-4f"/>
     <use xlink:href="#DejaVuSans-75" x="78.710938"/>
     <use xlink:href="#DejaVuSans-74" x="142.089844"/>
     <use xlink:href="#DejaVuSans-70" x="181.298828"/>
     <use xlink:href="#DejaVuSans-75" x="244.775391"/>
     <use xlink:href="#DejaVuSans-74" x="308.154297"/>
     <use xlink:href="#DejaVuSans-20" x="347.363281"/>
     <use xlink:href="#DejaVuSans-56" x="379.150391"/>
     <use xlink:href="#DejaVuSans-6f" x="439.808594"/>
     <use xlink:href="#DejaVuSans-6c" x="500.990234"/>
     <use xlink:href="#DejaVuSans-74" x="528.773438"/>
     <use xlink:href="#DejaVuSans-61" x="567.982422"/>
     <use xlink:href="#DejaVuSans-67" x="629.261719"/>
     <use xlink:href="#DejaVuSans-65" x="692.738281"/>
     <use xlink:href="#DejaVuSans-20" x="754.261719"/>
     <use xlink:href="#DejaVuSans-61" x="786.048828"/>
     <use xlink:href="#DejaVuSans-6e" x="847.328125"/>
     <use xlink:href="#DejaVuSans-64" x="910.707031"/>
     <use xlink:href="#DejaVuSans-20" x="974.183594"/>
     <use xlink:href="#DejaVuSans-44" x="1005.970703"/>
     <use xlink:href="#DejaVuSans-75" x="1082.972656"/>
     <use xlink:href="#DejaVuSans-74" x="1146.351562"/>
     <use xlink:href="#DejaVuSans-79" x="1185.560547"/>
     <use xlink:href="#DejaVuSans-20" x="1244.740234"/>
     <use xlink:href="#DejaVuSans-43" x="1276.527344"/>
     <use xlink:href="#DejaVuSans-79" x="1346.351562"/>
     <use xlink:href="#DejaVuSans-63" x="1405.53125"/>
     <use xlink:href="#DejaVuSans-6c" x="1460.511719"/>
     <use xlink:href="#DejaVuSans-65" x="1488.294922"/>
    </g>
   </g>
  </g>
  <g id="axes_2">
   <g id="patch_7">
    <path d="M 52.94 534.04 
L 672.28 534.04 
L 672.28 319.05 
L 52.94 319.05 
z
" style="fill: #ffffff"/>
   </g>
   <g id="matplotlib.axis_3">
    <g id="xtick_7">
     <g id="line2d_13">
      <g>
       <use xlink:href="#mc084f2edfc" x="81.091818" y="534.04" style="stroke: #000000; stroke-width: 0.8"/>
      </g>
     </g>
     <g id="text_8">
      <!-- 0.00 -->
      <g transform="translate(69.959006 548.638438) scale(0.1 -0.1)">
       <defs>
        <path id="DejaVuSans-2e" d="M 684 794 
L 1344 794 
L 1344 0 
L 684 0 
L 684 794 
z
" transform="scale(0.015625)"/>
       </defs>
       <use xlink:href="#DejaVuSans-30"/>
       <use xlink:href="#DejaVuSans-2e" x="63.623047"/>
       <use xlink:href="#DejaVuSans-30" x="95.410156"/>
       <use xlink:href="#DejaVuSans-30" x="159.033203"/>
      </g>
     </g>
    </g>
    <g id="xtick_8">
     <g id="line2d_14">
      <g>
       <use xlink:href="#mc084f2edfc" x="188.347055" y="534.04" style="stroke: #000000; stroke-width: 0.8"/>
      </g>
     </g>
     <g id="text_9">
      <!-- 0.02 -->
      <g transform="translate(177.214242 548.638438) scale(0.1 -0.1)">
       <use xlink:href="#DejaVuSans-30"/>
       <use xlink:href="#DejaVuSans-2e" x="63.623047"/>
       <use xlink:href="#DejaVuSans-30" x="95.410156"/>
       <use xlink:href="#DejaVuSans-32" x="159.033203"/>
      </g>
     </g>
    </g>
    <g id="xtick_9">
     <g id="line2d_15">
      <g>
       <use xlink:href="#mc084f2edfc" x="295.602291" y="534.04" style="stroke: #000000; stroke-width: 0.8"/>
      </g>
     </g>
     <g id="text_10">
      <!-- 0.04 -->
      <g transform="translate(284.469479 548.638438) scale(0.1 -0.1)">
       <use xlink:href="#DejaVuSans-30"/>
       <use xlink:href="#DejaVuSans-2e" x="63.623047"/>
       <use xlink:href="#DejaVuSans-30" x="95.410156"/>
       <use xlink:href="#DejaVuSans-34" x="159.033203"/>
      </g>
     </g>
    </g>
    <g id="xtick_10">
     <g id="line2d_16">
      <g>
       <use xlink:href="#mc084f2edfc" x="402.857527" y="534.04" style="stroke: #000000; stroke-width: 0.8"/>
      </g>
     </g>
     <g id="text_11">
      <!-- 0.06 -->
      <g transform="translate(391.724715 548.638438) scale(0.1 -0.1)">
       <defs>
        <path id="DejaVuSans-36" d="M 2113 2584 
Q 1688 2584 1439 2293 
Q 1191 2003 1191 1497 
Q 1191 994 1439 701 
Q 1688 409 2113 409 
Q 2538 409 2786 701 
Q 3034 994 3034 1497 
Q 3034 2003 2786 2293 
Q 2538 2584 2113 2584 
z
M 3366 4563 
L 3366 3988 
Q 3128 4100 2886 4159 
Q 2644 4219 2406 4219 
Q 1781 4219 1451 3797 
Q 1122 3375 1075 2522 
Q 1259 2794 1537 2939 
Q 1816 3084 2150 3084 
Q 2853 3084 3261 2657 
Q 3669 2231 3669 1497 
Q 3669 778 3244 343 
Q 2819 -91 2113 -91 
Q 1303 -91 875 529 
Q 447 1150 447 2328 
Q 447 3434 972 4092 
Q 1497 4750 2381 4750 
Q 2619 4750 2861 4703 
Q 3103 4656 3366 4563 
z
" transform="scale(0.015625)"/>
       </defs>
       <use xlink:href="#DejaVuSans-30"/>
       <use xlink:href="#DejaVuSans-2e" x="63.623047"/>
       <use xlink:href="#DejaVuSans-30" x="95.410156"/>
       <use xlink:href="#DejaVuSans-36" x="159.033203"/>
      </g>
     </g>
    </g>
    <g id="xtick_11">
     <g id="line2d_17">
      <g>
       <use xlink:href="#mc084f2edfc" x="510.112764" y="534.04" style="stroke: #000000; stroke-width: 0.8"/>
      </g>
     </g>
     <g id="text_12">
      <!-- 0.08 -->
      <g transform="translate(498.979951 548.638438) scale(0.1 -0.1)">
       <defs>
        <path id="DejaVuSans-38" d="M 2034 2216 
Q 1584 2216 1326 1975 
Q 1069 1734 1069 1313 
Q 1069 891 1326 650 
Q 1584 409 2034 409 
Q 2484 409 2743 651 
Q 3003 894 3003 1313 
Q 3003 1734 2745 1975 
Q 2488 2216 2034 2216 
z
M 1403 2484 
Q 997 2584 770 2862 
Q 544 3141 544 3541 
Q 544 4100 942 4425 
Q 1341 4750 2034 4750 
Q 2731 4750 3128 4425 
Q 3525 4100 3525 3541 
Q 3525 3141 3298 2862 
Q 3072 2584 2669 2484 
Q 3125 2378 3379 2068 
Q 3634 1759 3634 1313 
Q 3634 634 3220 271 
Q 2806 -91 2034 -91 
Q 1263 -91 848 271 
Q 434 634 434 1313 
Q 434 1759 690 2068 
Q 947 2378 1403 2484 
z
M 1172 3481 
Q 1172 3119 1398 2916 
Q 1625 2713 2034 2713 
Q 2441 2713 2670 2916 
Q 2900 3119 2900 3481 
Q 2900 3844 2670 4047 
Q 2441 4250 2034 4250 
Q 1625 4250 1398 4047 
Q 1172 3844 1172 3481 
z
" transform="scale(0.015625)"/>
       </defs>
       <use xlink:href="#DejaVuSans-30"/>
       <use xlink:href="#DejaVuSans-2e" x="63.623047"/>
       <use xlink:href="#DejaVuSans-30" x="95.410156"/>
       <use xlink:href="#DejaVuSans-38" x="159.033203"/>
      </g>
     </g>
    </g>
    <g id="xtick_12">
     <g id="line2d_18">
      <g>
       <use xlink:href="#mc084f2edfc" x="617.368" y="534.04" style="stroke: #000000; stroke-width: 0.8"/>
      </g>
     </g>
     <g id="text_13">
      <!-- 0.10 -->
      <g transform="translate(606.235188 548.638438) scale(0.1 -0.1)">
       <use xlink:href="#DejaVuSans-30"/>
       <use xlink:href="#DejaVuSans-2e" x="63.623047"/>
       <use xlink:href="#DejaVuSans-31" x="95.410156"/>
       <use xlink:href="#DejaVuSans-30" x="159.033203"/>
      </g>
     </g>
    </g>
    <g id="text_14">
     <!-- Time -->
     <g transform="translate(350.376406 562.316563) scale(0.1 -0.1)">
      <defs>
       <path id="DejaVuSans-54" d="M -19 4666 
L 3928 4666 
L 3928 4134 
L 2272 4134 
L 2272 0 
L 1638 0 
L 1638 4134 
L -19 4134 
L -19 4666 
z
" transform="scale(0.015625)"/>
       <path id="DejaVuSans-69" d="M 603 3500 
L 1178 3500 
L 1178 0 
L 603 0 
L 603 3500 
z
M 603 4863 
L 1178 4863 
L 1178 4134 
L 603 4134 
L 603 4863 
z
" transform="scale(0.015625)"/>
       <path id="DejaVuSans-6d" d="M 3328 2828 
Q 3544 3216 3844 3400 
Q 4144 3584 4550 3584 
Q 5097 3584 5394 3201 
Q 5691 2819 5691 2113 
L 5691 0 
L 5113 0 
L 5113 2094 
Q 5113 2597 4934 2840 
Q 4756 3084 4391 3084 
Q 3944 3084 3684 2787 
Q 3425 2491 3425 1978 
L 3425 0 
L 2847 0 
L 2847 2094 
Q 2847 2600 2669 2842 
Q 2491 3084 2119 3084 
Q 1678 3084 1418 2786 
Q 1159 2488 1159 1978 
L 1159 0 
L 581 0 
L 581 3500 
L 1159 3500 
L 1159 2956 
Q 1356 3278 1631 3431 
Q 1906 3584 2284 3584 
Q 2666 3584 2933 3390 
Q 3200 3197 3328 2828 
z
" transform="scale(0.015625)"/>
      </defs>
      <use xlink:href="#DejaVuSans-54"/>
      <use xlink:href="#DejaVuSans-69" x="57.958984"/>
      <use xlink:href="#DejaVuSans-6d" x="85.742188"/>
      <use xlink:href="#DejaVuSans-65" x="183.154297"/>
     </g>
    </g>
   </g>
   <g id="matplotlib.axis_4">
    <g id="ytick_6">
     <g id="line2d_19">
      <defs>
       <path id="me3caf37d82" d="M 0 0 
L -3.5 0 
" style="stroke: #008000; stroke-width: 0.8"/>
      </defs>
      <g>
       <use xlink:href="#me3caf37d82" x="52.94" y="524.289993" style="fill: #008000; stroke: #008000; stroke-width: 0.8"/>
      </g>
     </g>
     <g id="text_15">
      <!-- 60 -->
      <g style="fill: #008000" transform="translate(24.835313 528.089211) scale(0.1 -0.1)">
       <defs>
        <path id="DejaVuSans-2212" d="M 678 2272 
L 4684 2272 
L 4684 1741 
L 678 1741 
L 678 2272 
z
" transform="scale(0.015625)"/>
       </defs>
       <use xlink:href="#DejaVuSans-2212"/>
       <use xlink:href="#DejaVuSans-36" x="83.789062"/>
       <use xlink:href="#DejaVuSans-30" x="147.412109"/>
      </g>
     </g>
    </g>
    <g id="ytick_7">
     <g id="line2d_20">
      <g>
       <use xlink:href="#me3caf37d82" x="52.94" y="484.187552" style="fill: #008000; stroke: #008000; stroke-width: 0.8"/>
      </g>
     </g>
     <g id="text_16">
      <!-- 50 -->
      <g style="fill: #008000" transform="translate(24.835313 487.986771) scale(0.1 -0.1)">
       <defs>
        <path id="DejaVuSans-35" d="M 691 4666 
L 3169 4666 
L 3169 4134 
L 1269 4134 
L 1269 2991 
Q 1406 3038 1543 3061 
Q 1681 3084 1819 3084 
Q 2600 3084 3056 2656 
Q 3513 2228 3513 1497 
Q 3513 744 3044 326 
Q 2575 -91 1722 -91 
Q 1428 -91 1123 -41 
Q 819 9 494 109 
L 494 744 
Q 775 591 1075 516 
Q 1375 441 1709 441 
Q 2250 441 2565 725 
Q 2881 1009 2881 1497 
Q 2881 1984 2565 2268 
Q 2250 2553 1709 2553 
Q 1456 2553 1204 2497 
Q 953 2441 691 2322 
L 691 4666 
z
" transform="scale(0.015625)"/>
       </defs>
       <use xlink:href="#DejaVuSans-2212"/>
       <use xlink:href="#DejaVuSans-35" x="83.789062"/>
       <use xlink:href="#DejaVuSans-30" x="147.412109"/>
      </g>
     </g>
    </g>
    <g id="ytick_8">
     <g id="line2d_21">
      <g>
       <use xlink:href="#me3caf37d82" x="52.94" y="444.085111" style="fill: #008000; stroke: #008000; stroke-width: 0.8"/>
      </g>
     </g>
     <g id="text_17">
      <!-- 40 -->
      <g style="fill: #008000" transform="translate(24.835313 447.88433) scale(0.1 -0.1)">
       <use xlink:href="#DejaVuSans-2212"/>
       <use xlink:href="#DejaVuSans-34" x="83.789062"/>
       <use xlink:href="#DejaVuSans-30" x="147.412109"/>
      </g>
     </g>
    </g>
    <g id="ytick_9">
     <g id="line2d_22">
      <g>
       <use xlink:href="#me3caf37d82" x="52.94" y="403.98267" style="fill: #008000; stroke: #008000; stroke-width: 0.8"/>
      </g>
     </g>
     <g id="text_18">
      <!-- 30 -->
      <g style="fill: #008000" transform="translate(24.835313 407.781889) scale(0.1 -0.1)">
       <use xlink:href="#DejaVuSans-2212"/>
       <use xlink:href="#DejaVuSans-33" x="83.789062"/>
       <use xlink:href="#DejaVuSans-30" x="147.412109"/>
      </g>
     </g>
    </g>
    <g id="ytick_10">
     <g id="line2d_23">
      <g>
       <use xlink:href="#me3caf37d82" x="52.94" y="363.880229" style="fill: #008000; stroke: #008000; stroke-width: 0.8"/>
      </g>
     </g>
     <g id="text_19">
      <!-- 20 -->
      <g style="fill: #008000" transform="translate(24.835313 367.679448) scale(0.1 -0.1)">
       <use xlink:href="#DejaVuSans-2212"/>
       <use xlink:href="#DejaVuSans-32" x="83.789062"/>
       <use xlink:href="#DejaVuSans-30" x="147.412109"/>
      </g>
     </g>
    </g>
    <g id="ytick_11">
     <g id="line2d_24">
      <g>
       <use xlink:href="#me3caf37d82" x="52.94" y="323.777788" style="fill: #008000; stroke: #008000; stroke-width: 0.8"/>
      </g>
     </g>
     <g id="text_20">
      <!-- 10 -->
      <g style="fill: #008000" transform="translate(24.835313 327.577007) scale(0.1 -0.1)">
       <use xlink:href="#DejaVuSans-2212"/>
       <use xlink:href="#DejaVuSans-31" x="83.789062"/>
       <use xlink:href="#DejaVuSans-30" x="147.412109"/>
      </g>
     </g>
    </g>
    <g id="text_21">
     <!-- Cost -->
     <g style="fill: #008000" transform="translate(18.755625 437.660625) rotate(-90) scale(0.1 -0.1)">
      <defs>
       <path id="DejaVuSans-73" d="M 2834 3397 
L 2834 2853 
Q 2591 2978 2328 3040 
Q 2066 3103 1784 3103 
Q 1356 3103 1142 2972 
Q 928 2841 928 2578 
Q 928 2378 1081 2264 
Q 1234 2150 1697 2047 
L 1894 2003 
Q 2506 1872 2764 1633 
Q 3022 1394 3022 966 
Q 3022 478 2636 193 
Q 2250 -91 1575 -91 
Q 1294 -91 989 -36 
Q 684 19 347 128 
L 347 722 
Q 666 556 975 473 
Q 1284 391 1588 391 
Q 1994 391 2212 530 
Q 2431 669 2431 922 
Q 2431 1156 2273 1281 
Q 2116 1406 1581 1522 
L 1381 1569 
Q 847 1681 609 1914 
Q 372 2147 372 2553 
Q 372 3047 722 3315 
Q 1072 3584 1716 3584 
Q 2034 3584 2315 3537 
Q 2597 3491 2834 3397 
z
" transform="scale(0.015625)"/>
      </defs>
      <use xlink:href="#DejaVuSans-43"/>
      <use xlink:href="#DejaVuSans-6f" x="69.824219"/>
      <use xlink:href="#DejaVuSans-73" x="131.005859"/>
      <use xlink:href="#DejaVuSans-74" x="183.105469"/>
     </g>
    </g>
   </g>
   <g id="line2d_25">
    <path d="M 81.091818 524.267727 
L 81.252701 508.775875 
L 81.467212 506.577391 
L 82.432509 493.412152 
L 82.915157 490.397995 
L 83.290551 489.249545 
L 83.558689 488.937719 
L 83.880454 488.822961 
L 84.041337 487.86453 
L 84.309475 484.263335 
L 84.792124 477.927713 
L 85.221145 474.625048 
L 85.596538 473.110044 
L 85.918304 472.62093 
L 86.132814 472.638484 
L 86.400952 472.987467 
L 86.561835 473.157509 
L 86.66909 472.82713 
L 86.883601 470.937589 
L 87.527132 463.751295 
L 87.956153 461.467473 
L 88.277919 460.777805 
L 88.492429 460.716326 
L 88.70694 460.927391 
L 89.028706 461.681232 
L 89.243216 462.246178 
L 89.296844 462.214247 
L 89.457727 461.497217 
L 89.779492 458.000191 
L 90.208513 454.392137 
L 90.583907 452.817149 
L 90.852045 452.413811 
L 91.066555 452.453106 
L 91.281066 452.770718 
L 91.602831 453.693575 
L 91.978225 454.904424 
L 92.08548 454.642628 
L 92.29999 452.981024 
L 92.782639 448.698912 
L 93.158032 447.107789 
L 93.42617 446.717423 
L 93.587053 446.735315 
L 93.801564 447.016461 
L 94.123329 447.915521 
L 94.659606 450.013512 
L 94.713233 449.971614 
L 94.874116 449.262669 
L 95.732158 443.332511 
L 96.000296 442.875073 
L 96.214807 442.899745 
L 96.429317 443.224773 
L 96.751083 444.194373 
L 97.340987 446.74659 
L 97.448242 446.615814 
L 97.609125 445.712914 
L 98.199028 441.32028 
L 98.520794 440.389252 
L 98.735305 440.24615 
L 98.949815 440.429709 
L 99.217953 441.056785 
L 99.593346 442.555918 
L 100.075995 444.565972 
L 100.18325 444.277255 
L 100.397761 442.66756 
L 100.826782 439.663954 
L 101.148547 438.670592 
L 101.363058 438.496786 
L 101.523941 438.588028 
L 101.792079 439.109579 
L 102.167472 440.497064 
L 102.757376 443.121199 
L 102.811004 443.036186 
L 102.971886 442.227203 
L 103.56179 438.170703 
L 103.883556 437.395621 
L 104.098066 437.347759 
L 104.312577 437.620596 
L 104.634343 438.544779 
L 105.063364 440.563814 
L 105.438757 442.158754 
L 105.546012 441.910438 
L 105.760523 440.387203 
L 106.189544 437.546541 
L 106.511309 436.659697 
L 106.72582 436.550839 
L 106.94033 436.771894 
L 107.208468 437.449829 
L 107.637489 439.303269 
L 108.817297 446.209581 
L 109.728966 453.654735 
L 112.463975 477.098201 
L 113.69741 486.845747 
L 116.217908 502.503246 
L 117.880364 506.984185 
L 118.577523 507.926319 
L 118.738406 507.950676 
L 119.006544 507.7358 
L 119.274682 507.79888 
L 121.205277 509.122489 
L 121.366159 509.110589 
L 121.956063 508.586619 
L 122.331457 508.790785 
L 123.189498 509.188869 
L 123.993913 509.403133 
L 124.691072 508.766028 
L 125.388231 509.112256 
L 126.407156 509.420286 
L 126.728921 509.415407 
L 127.318825 508.813969 
L 127.640591 508.952827 
L 128.55226 509.326319 
L 129.356675 509.510315 
L 130.053834 508.856171 
L 130.697365 509.169499 
L 131.71629 509.479497 
L 132.091683 509.484021 
L 132.681587 508.879903 
L 133.003353 509.017668 
L 133.915022 509.389145 
L 134.719436 509.572197 
L 134.826692 509.393044 
L 134.987574 508.286003 
L 135.30934 503.600157 
L 135.845616 497.283498 
L 136.328265 494.055309 
L 136.703658 492.755063 
L 137.025424 492.30327 
L 137.239934 492.283806 
L 137.508073 492.326689 
L 137.668955 491.42852 
L 137.990721 487.288675 
L 138.47337 482.292088 
L 138.902391 479.82887 
L 139.277784 478.845104 
L 139.545922 478.678996 
L 139.760433 478.815493 
L 140.028571 479.274013 
L 140.189453 479.48818 
L 140.296709 479.173128 
L 140.511219 477.278485 
L 141.047495 471.835888 
L 141.476516 469.622552 
L 141.798282 468.930689 
L 142.012792 468.846592 
L 142.227303 469.020618 
L 142.549069 469.695736 
L 142.870834 470.594801 
L 142.924462 470.558716 
L 143.085345 469.807542 
L 143.997014 462.810378 
L 144.31878 462.077218 
L 144.533291 461.989389 
L 144.747801 462.175933 
L 145.069567 462.895979 
L 145.605843 464.598258 
L 145.659471 464.499747 
L 145.820353 463.591499 
L 146.463885 458.588037 
L 146.78565 457.549919 
L 147.053789 457.290649 
L 147.268299 457.418685 
L 147.536437 457.937445 
L 147.91183 459.223493 
L 148.287224 460.60347 
L 148.394479 460.366689 
L 148.60899 458.761683 
L 149.03801 455.610001 
L 149.413404 454.338636 
L 149.681542 454.108469 
L 149.896052 454.264398 
L 150.16419 454.822945 
L 150.539584 456.172408 
L 150.968605 457.93143 
L 151.022232 457.886267 
L 151.183115 457.14685 
L 151.826647 452.802638 
L 152.148412 452.046285 
L 152.362923 451.97297 
L 152.577433 452.194475 
L 152.899199 452.999884 
L 153.32822 454.795626 
L 153.649986 456.145731 
L 153.757241 455.98151 
L 153.918124 455.000747 
L 154.400772 451.676146 
L 154.722538 450.709393 
L 154.937048 450.52135 
L 155.151559 450.645606 
L 155.419697 451.18103 
L 155.79509 452.524144 
L 156.331367 454.954148 
L 156.384994 454.932955 
L 156.492249 454.587147 
L 157.403919 449.711621 
L 157.618429 449.555866 
L 157.83294 449.710489 
L 158.101078 450.281513 
L 158.476471 451.670718 
L 159.012747 454.161411 
L 159.066375 454.146685 
L 159.17363 453.814376 
L 160.0853 449.049199 
L 160.29981 448.915153 
L 160.514321 449.090192 
L 160.782459 449.68515 
L 161.157852 451.105345 
L 161.747756 453.626477 
L 161.855011 453.303253 
L 162.069522 451.584003 
L 162.498543 448.321378 
L 162.820308 447.134768 
L 163.088446 446.811264 
L 163.249329 446.865304 
L 163.46384 447.190583 
L 163.785605 448.148245 
L 164.375509 450.643499 
L 164.482765 450.491976 
L 164.643647 449.549119 
L 165.233551 444.983258 
L 165.555317 443.963707 
L 165.769827 443.763752 
L 165.93071 443.831469 
L 166.145221 444.178571 
L 166.466986 445.17567 
L 167.05689 447.763808 
L 167.164145 447.637405 
L 167.325028 446.739645 
L 167.914932 442.357024 
L 168.236698 441.428428 
L 168.451208 441.286053 
L 168.665719 441.469728 
L 168.933857 442.096204 
L 169.30925 443.593316 
L 169.791899 445.598539 
L 169.899154 445.307901 
L 170.113664 443.693331 
L 170.542685 440.679435 
L 170.864451 439.678855 
L 171.078962 439.500434 
L 171.239844 439.588305 
L 171.507982 440.104386 
L 171.883376 441.484479 
L 172.47328 444.097034 
L 172.526907 444.010767 
L 172.68779 443.197706 
L 173.277694 439.125954 
L 173.59946 438.34363 
L 173.81397 438.291288 
L 174.028481 438.559883 
L 174.350246 439.478083 
L 174.779267 441.48973 
L 175.154661 443.078326 
L 175.261916 442.827935 
L 175.476426 441.300193 
L 175.905447 438.450951 
L 176.227213 437.558463 
L 176.441723 437.446147 
L 176.656234 437.663952 
L 176.924372 438.338078 
L 177.353393 440.185912 
L 177.836041 442.396868 
L 177.943297 442.157965 
L 178.157807 440.654871 
L 178.586828 437.852152 
L 178.908594 436.990096 
L 179.123104 436.896344 
L 179.337615 437.13154 
L 179.605753 437.825973 
L 180.034774 439.703547 
L 180.517422 441.945856 
L 180.624678 441.714756 
L 180.839188 440.228395 
L 181.268209 437.457236 
L 181.589975 436.615811 
L 181.804485 436.534641 
L 182.018996 436.781617 
L 182.340761 437.679031 
L 182.769782 439.681066 
L 183.198803 441.65103 
L 183.306058 441.425208 
L 183.520569 439.950162 
L 183.94959 437.20034 
L 184.271356 436.372859 
L 184.485866 436.30019 
L 184.700377 436.555127 
L 185.022142 437.463611 
L 185.451163 439.479071 
L 185.880184 441.461755 
L 185.987439 441.239497 
L 186.20195 439.772092 
L 186.630971 437.036679 
L 186.952737 436.218612 
L 187.167247 436.151683 
L 187.381757 436.411994 
L 187.703523 437.327951 
L 188.132544 439.352473 
L 189.419607 447.337333 
L 190.438532 456.127685 
L 191.886477 468.593345 
L 194.514231 489.708638 
L 196.55208 502.831042 
L 197.195612 504.969379 
L 197.839143 506.824431 
L 198.482674 508.058739 
L 199.072578 508.82821 
L 199.233461 508.720458 
L 199.501599 508.587551 
L 199.769737 508.704818 
L 200.895917 509.662038 
L 201.753959 510.05141 
L 202.451118 509.49544 
L 204.488968 510.247345 
L 205.078871 509.658665 
L 205.400637 509.802729 
L 206.312307 510.18582 
L 207.116721 510.3748 
L 207.81388 509.723461 
L 208.457411 510.038433 
L 209.476336 510.349969 
L 209.85173 510.354856 
L 210.441633 509.75118 
L 210.763399 509.889124 
L 211.675069 510.260934 
L 212.479483 510.444055 
L 213.176642 509.789419 
L 213.820173 510.102459 
L 214.839098 510.412187 
L 215.214491 510.416647 
L 215.804395 509.812452 
L 216.126161 509.950185 
L 217.03783 510.321604 
L 217.842245 510.504523 
L 218.539404 509.849773 
L 219.182935 510.162746 
L 220.20186 510.472412 
L 220.577253 510.476857 
L 221.167157 509.872644 
L 221.488923 510.01037 
L 222.400592 510.381776 
L 223.205006 510.564688 
L 223.902165 509.909934 
L 224.545697 510.222904 
L 225.564622 510.532568 
L 225.940015 510.537012 
L 226.529919 509.932799 
L 226.851684 510.070525 
L 227.763354 510.44193 
L 228.567768 510.624842 
L 229.264927 509.970088 
L 229.908459 510.283058 
L 230.927383 510.592722 
L 231.302777 510.597166 
L 231.892681 509.992953 
L 232.214446 510.130678 
L 233.126116 510.502084 
L 233.93053 510.684996 
L 234.627689 510.030241 
L 235.271221 510.343212 
L 236.290145 510.652876 
L 236.665539 510.65732 
L 237.255442 510.053107 
L 237.577208 510.190832 
L 238.488878 510.562238 
L 239.293292 510.745149 
L 239.990451 510.090395 
L 240.633982 510.403365 
L 241.652907 510.713029 
L 242.0283 510.717473 
L 242.618204 510.11326 
L 242.93997 510.250986 
L 243.851639 510.622391 
L 244.656054 510.805303 
L 245.353213 510.150549 
L 245.996744 510.463519 
L 247.015669 510.773183 
L 247.391062 510.777627 
L 247.980966 510.173414 
L 248.302732 510.311139 
L 249.214401 510.682545 
L 250.018816 510.865456 
L 250.715975 510.210702 
L 251.359506 510.523673 
L 252.378431 510.833337 
L 252.753824 510.837781 
L 253.343728 510.233568 
L 253.665494 510.371293 
L 254.577163 510.742699 
L 255.381577 510.92561 
L 256.078736 510.270856 
L 256.722268 510.583826 
L 257.741193 510.89349 
L 258.116586 510.897934 
L 258.70649 510.293721 
L 259.028255 510.431447 
L 259.939925 510.802852 
L 260.744339 510.985764 
L 261.441498 510.33101 
L 262.08503 510.64398 
L 263.103954 510.953644 
L 263.479348 510.958088 
L 264.069252 510.353875 
L 264.391017 510.4916 
L 265.302687 510.863006 
L 266.107101 511.045917 
L 266.80426 510.391163 
L 267.447791 510.704134 
L 268.466716 511.013798 
L 268.84211 511.018242 
L 268.949365 510.647899 
L 269.485641 507.924813 
L 269.861034 507.011141 
L 270.1828 506.747488 
L 270.450938 506.828236 
L 270.772704 507.223247 
L 271.52349 508.672154 
L 271.577118 508.634102 
L 271.845256 507.469436 
L 272.220649 506.327525 
L 272.542415 505.911271 
L 272.810553 505.890077 
L 273.078691 506.116708 
L 273.454085 506.777564 
L 274.204871 508.444406 
L 274.258499 508.414339 
L 274.526637 507.286921 
L 274.90203 506.189083 
L 275.223796 505.804177 
L 275.491934 505.805314 
L 275.760072 506.051323 
L 276.135466 506.735079 
L 276.886252 508.43024 
L 276.93988 508.401602 
L 277.208018 507.280839 
L 277.583411 506.190864 
L 277.905177 505.81154 
L 278.173315 505.816646 
L 278.441453 506.066092 
L 278.816847 506.7539 
L 279.567633 508.45363 
L 279.621261 508.425206 
L 279.889399 507.30544 
L 280.264792 506.216643 
L 280.586558 505.838156 
L 280.854696 505.843857 
L 281.122834 506.093819 
L 281.498227 506.782235 
L 282.249014 508.482666 
L 282.302642 508.454275 
L 282.57078 507.334665 
L 282.946173 506.246051 
L 283.267939 505.867695 
L 283.536077 505.873489 
L 283.804215 506.123531 
L 284.179608 506.812042 
L 284.930395 508.512582 
L 284.984023 508.484196 
L 285.252161 507.36461 
L 285.627554 506.276024 
L 285.94932 505.897688 
L 286.217458 505.903497 
L 286.485596 506.153552 
L 286.860989 506.842077 
L 287.611776 508.542634 
L 287.665404 508.514248 
L 287.933542 507.394666 
L 288.308935 506.306085 
L 288.630701 505.927752 
L 288.898839 505.933563 
L 289.166977 506.18362 
L 289.54237 506.872148 
L 290.293157 508.572706 
L 290.346784 508.544321 
L 290.614923 507.42474 
L 290.990316 506.336159 
L 291.312082 505.957827 
L 291.58022 505.963638 
L 291.848358 506.213695 
L 292.223751 506.902223 
L 292.974538 508.602783 
L 293.028165 508.574398 
L 293.296303 507.454816 
L 293.671697 506.366236 
L 293.993462 505.987903 
L 294.261601 505.993715 
L 294.529739 506.243772 
L 294.905132 506.9323 
L 295.709546 508.659613 
L 295.924057 508.640044 
L 296.192195 508.850269 
L 297.693768 510.563843 
L 298.283672 510.908506 
L 298.55181 510.565259 
L 298.819948 510.406547 
L 299.088086 510.499258 
L 300.053383 511.059193 
L 300.965053 511.344461 
L 301.662212 510.723209 
L 302.412999 511.101971 
L 303.485551 511.41846 
L 303.700061 511.392611 
L 304.289965 510.793664 
L 304.611731 510.933538 
L 305.5234 511.308905 
L 306.327815 511.493874 
L 307.024974 510.840278 
L 307.668505 511.153927 
L 308.68743 511.464225 
L 309.062823 511.468819 
L 309.652727 510.864788 
L 309.974493 511.002588 
L 310.886162 511.37413 
L 311.690577 511.557113 
L 312.387736 510.902399 
L 313.031267 511.215393 
L 314.050192 511.525079 
L 314.425585 511.529528 
L 315.015489 510.925321 
L 315.337255 511.063049 
L 316.248924 511.434459 
L 317.053338 511.617373 
L 317.750497 510.962621 
L 318.394029 511.275592 
L 319.412954 511.585257 
L 319.788347 511.589701 
L 320.378251 510.985488 
L 320.700016 511.123213 
L 321.611686 511.494619 
L 322.4161 511.677531 
L 323.113259 511.022777 
L 323.756791 511.335747 
L 324.775715 511.645411 
L 325.151109 511.649855 
L 325.741012 511.045642 
L 326.062778 511.183368 
L 326.974448 511.554773 
L 327.778862 511.737685 
L 328.476021 511.08293 
L 329.119552 511.395901 
L 330.138477 511.705565 
L 330.51387 511.710009 
L 331.103774 511.105796 
L 331.42554 511.243521 
L 332.33721 511.614927 
L 333.141624 511.797838 
L 333.838783 511.143084 
L 334.482314 511.456055 
L 335.501239 511.765718 
L 335.876632 511.770163 
L 336.466536 511.16595 
L 336.788302 511.303675 
L 337.699971 511.67508 
L 338.504386 511.857992 
L 339.201545 511.203238 
L 339.845076 511.516208 
L 340.864001 511.825872 
L 341.239394 511.830316 
L 341.829298 511.226103 
L 342.151064 511.363829 
L 343.062733 511.735234 
L 343.867147 511.918146 
L 344.564306 511.263391 
L 345.207838 511.576362 
L 346.226763 511.886026 
L 346.602156 511.89047 
L 347.19206 511.286257 
L 347.513825 511.423982 
L 348.425495 511.795388 
L 349.229909 511.978492 
L 349.337164 511.799244 
L 349.498047 510.692199 
L 349.766185 506.648163 
L 350.463344 494.485049 
L 350.945993 489.746981 
L 351.375014 487.403613 
L 351.750407 486.461152 
L 352.018545 486.099872 
L 352.179428 485.027861 
L 352.447566 481.272139 
L 353.091098 470.999474 
L 353.573746 466.91228 
L 353.94914 465.344633 
L 354.217278 464.906793 
L 354.431788 464.898762 
L 354.699926 465.069512 
L 354.807182 464.702947 
L 355.021692 462.811946 
L 356.040617 450.946306 
L 356.41601 449.475129 
L 356.684148 449.156718 
L 356.845031 449.213157 
L 357.059542 449.540962 
L 357.381307 450.323358 
L 357.434935 450.294883 
L 357.595818 449.631214 
L 357.863956 446.79769 
L 358.346604 441.283189 
L 358.721998 439.045 
L 359.043763 438.250799 
L 359.258274 438.19705 
L 359.472784 438.468678 
L 359.79455 439.39861 
L 360.116316 440.45084 
L 360.223571 440.255483 
L 360.384454 439.297905 
L 361.403379 431.102753 
L 361.671517 430.690085 
L 361.8324 430.724577 
L 362.04691 431.058455 
L 362.368676 432.09386 
L 362.851324 433.897972 
L 362.95858 433.62656 
L 363.17309 432.087277 
L 363.762994 426.950173 
L 364.08476 425.823527 
L 364.29927 425.611708 
L 364.460153 425.697345 
L 364.674663 426.100046 
L 364.996429 427.240002 
L 365.532705 429.573446 
L 365.586333 429.516637 
L 365.747216 428.835465 
L 366.122609 425.336443 
L 366.498002 423.024137 
L 366.819768 422.249651 
L 366.980651 422.210504 
L 367.195161 422.470341 
L 367.463299 423.234524 
L 367.89232 425.300014 
L 368.214086 426.693056 
L 368.321341 426.539223 
L 368.482224 425.68984 
L 369.233011 420.404921 
L 369.501149 419.928708 
L 369.662032 419.944302 
L 369.876542 420.272587 
L 370.198308 421.336353 
L 370.627329 423.630305 
L 370.895467 424.772642 
L 371.002722 424.650063 
L 371.163605 423.850815 
L 371.914392 418.792007 
L 372.18253 418.381668 
L 372.343413 418.433768 
L 372.557923 418.807689 
L 372.879689 419.93435 
L 373.362337 422.65876 
L 373.576848 423.492663 
L 373.684103 423.390978 
L 373.844986 422.62528 
L 374.595773 417.717908 
L 374.863911 417.351659 
L 375.024794 417.42819 
L 375.239304 417.832648 
L 375.56107 419.001387 
L 376.043718 421.78241 
L 376.848133 427.121324 
L 377.706175 434.965867 
L 382.157267 478.734724 
L 384.516882 497.272346 
L 386.232966 506.732651 
L 386.82287 508.493565 
L 387.680912 509.644533 
L 388.324443 510.661957 
L 389.021602 511.381369 
L 389.504251 511.657595 
L 390.094154 511.279529 
L 390.523175 511.592096 
L 391.32759 512.051029 
L 392.132004 512.322273 
L 392.829163 511.717247 
L 393.687205 512.150688 
L 394.759757 512.453697 
L 394.867012 512.407162 
L 395.456916 511.810767 
L 395.778682 511.951683 
L 396.690351 512.328971 
L 397.494766 512.514937 
L 398.191925 511.861902 
L 398.835456 512.17588 
L 399.854381 512.486486 
L 400.229774 512.491153 
L 400.819678 511.88721 
L 401.141444 512.025046 
L 402.053113 512.396655 
L 402.857527 512.579703 
L 402.964783 512.400628 
L 403.125666 511.293597 
L 403.715569 506.27714 
L 404.14459 504.32933 
L 404.519984 503.525086 
L 404.788122 503.363987 
L 405.05626 503.488316 
L 405.378026 503.952493 
L 405.646164 504.351444 
L 405.753419 503.969527 
L 406.557833 499.133679 
L 406.933226 498.319306 
L 407.201365 498.176982 
L 407.415875 498.283825 
L 407.737641 498.755103 
L 408.166662 499.856429 
L 408.327545 500.178653 
L 408.4348 499.893726 
L 409.239214 495.714074 
L 409.56098 495.184027 
L 409.829118 495.137367 
L 410.097256 495.391337 
L 410.472649 496.163997 
L 411.008925 497.719169 
L 411.062553 497.661152 
L 411.223436 496.8202 
L 411.652457 494.44878 
L 412.02785 493.438496 
L 412.295988 493.204866 
L 412.510499 493.263173 
L 412.778637 493.598247 
L 413.15403 494.475841 
L 413.690306 496.166933 
L 413.743934 496.122582 
L 413.904817 495.324226 
L 414.333838 493.060838 
L 414.709231 492.134712 
L 414.977369 491.956268 
L 415.19188 492.056157 
L 415.460018 492.440353 
L 415.889039 493.549528 
L 416.371687 495.157071 
L 416.425315 495.121253 
L 416.586198 494.349643 
L 417.015219 492.154506 
L 417.390612 491.281851 
L 417.65875 491.138627 
L 417.873261 491.265138 
L 418.195026 491.794657 
L 418.624047 493.01752 
L 419.053068 494.493345 
L 419.106696 494.463088 
L 419.267579 493.708955 
L 419.6966 491.55854 
L 420.018365 490.789687 
L 420.286503 490.596816 
L 420.501014 490.690751 
L 420.769152 491.073504 
L 421.144545 492.022589 
L 421.734449 494.057479 
L 421.841704 493.88438 
L 422.646119 490.500638 
L 422.914257 490.248356 
L 423.128767 490.30246 
L 423.396905 490.643764 
L 423.772299 491.548086 
L 424.41583 493.77372 
L 424.523085 493.605646 
L 425.273872 490.354365 
L 425.54201 490.035276 
L 425.75652 490.044092 
L 426.024659 490.337625 
L 426.400052 491.189139 
L 426.936328 493.097199 
L 427.097211 493.592131 
L 427.150839 493.569714 
L 427.311721 492.840259 
L 427.740742 490.753098 
L 428.062508 490.027173 
L 428.330646 489.867589 
L 428.545157 489.986725 
L 428.866922 490.51328 
L 429.295943 491.744672 
L 431.17291 498.772224 
L 432.888994 506.837273 
L 433.800663 509.586882 
L 434.444195 510.785094 
L 435.034098 511.530884 
L 435.194981 511.417914 
L 435.463119 511.277178 
L 435.731257 511.387643 
L 436.911065 512.357246 
L 437.715479 512.708797 
L 438.412638 512.148982 
L 440.450488 512.89602 
L 441.040392 512.306734 
L 441.362157 512.450551 
L 442.273827 512.833185 
L 443.078241 513.021929 
L 443.7754 512.370457 
L 444.418932 512.685351 
L 445.437856 512.996813 
L 445.81325 513.001683 
L 446.403153 512.397986 
L 446.724919 512.535922 
L 447.636589 512.907716 
L 448.441003 513.090829 
L 449.138162 512.436188 
L 449.781693 512.749225 
L 450.800618 513.058951 
L 451.176011 513.06341 
L 451.765915 512.459215 
L 452.087681 512.596947 
L 452.999351 512.968366 
L 453.803765 513.151285 
L 454.500924 512.496535 
L 455.144455 512.809507 
L 456.16338 513.119173 
L 456.538773 513.123618 
L 456.646029 512.753276 
L 457.182305 510.03019 
L 457.557698 509.116518 
L 457.879464 508.852865 
L 458.147602 508.933614 
L 458.469368 509.328625 
L 459.220154 510.777532 
L 459.273782 510.73948 
L 459.54192 509.574814 
L 459.917313 508.432903 
L 460.239079 508.016649 
L 460.507217 507.995455 
L 460.775355 508.222086 
L 461.150748 508.882942 
L 461.901535 510.549784 
L 461.955163 510.519717 
L 462.223301 509.3923 
L 462.598694 508.294461 
L 462.92046 507.909555 
L 463.188598 507.910693 
L 463.456736 508.156701 
L 463.832129 508.840457 
L 464.582916 510.535618 
L 464.636544 510.50698 
L 464.904682 509.386218 
L 465.280075 508.296242 
L 465.601841 507.916918 
L 465.869979 507.922024 
L 466.138117 508.171471 
L 466.51351 508.859278 
L 467.264297 510.559009 
L 467.317925 510.530584 
L 467.586063 509.410819 
L 467.961456 508.322021 
L 468.283222 507.943534 
L 468.55136 507.949236 
L 468.819498 508.199197 
L 469.194891 508.887613 
L 469.945678 510.588044 
L 469.999305 510.559653 
L 470.267444 509.440043 
L 470.642837 508.351429 
L 470.964603 507.973073 
L 471.232741 507.978867 
L 471.500879 508.228909 
L 471.876272 508.91742 
L 472.627059 510.61796 
L 472.680686 510.589574 
L 472.948824 509.469988 
L 473.324218 508.381402 
L 473.645984 508.003066 
L 473.914122 508.008875 
L 474.18226 508.25893 
L 474.557653 508.947455 
L 475.30844 510.648012 
L 475.362067 510.619626 
L 475.630205 509.500044 
L 476.005599 508.411463 
L 476.327364 508.03313 
L 476.595503 508.038941 
L 476.863641 508.288998 
L 477.239034 508.977526 
L 477.989821 510.678085 
L 478.043448 510.6497 
L 478.311586 509.530118 
L 478.68698 508.441538 
L 479.008745 508.063205 
L 479.276883 508.069017 
L 479.545022 508.319073 
L 479.920415 509.007602 
L 480.671201 510.708161 
L 480.724829 510.679776 
L 480.992967 509.560194 
L 481.368361 508.471614 
L 481.690126 508.093282 
L 481.958264 508.099093 
L 482.226402 508.34915 
L 482.601796 509.037678 
L 483.40621 510.764991 
L 483.620721 510.745422 
L 483.888859 510.955648 
L 485.390432 512.669221 
L 485.980336 513.013884 
L 486.248474 512.670637 
L 486.516612 512.511926 
L 486.78475 512.604636 
L 487.750047 513.164571 
L 488.661717 513.449839 
L 489.358876 512.828587 
L 490.109662 513.207349 
L 491.182215 513.523838 
L 491.396725 513.497989 
L 491.986629 512.899042 
L 492.308395 513.038917 
L 493.220064 513.414283 
L 494.024478 513.599252 
L 494.721637 512.945656 
L 495.365169 513.259305 
L 496.384094 513.569603 
L 496.759487 513.574198 
L 497.349391 512.970167 
L 497.671156 513.107966 
L 498.582826 513.479509 
L 499.38724 513.662491 
L 500.084399 513.007777 
L 500.727931 513.320771 
L 501.746855 513.630457 
L 502.122249 513.634906 
L 502.712153 513.030699 
L 503.033918 513.168427 
L 503.945588 513.539838 
L 504.750002 513.722752 
L 505.447161 513.067999 
L 506.090693 513.38097 
L 507.109617 513.690635 
L 507.485011 513.695079 
L 508.074914 513.090866 
L 508.39668 513.228592 
L 509.30835 513.599997 
L 510.112764 513.782915 
L 510.220019 513.603854 
L 510.756295 511.920142 
L 511.078061 511.558919 
L 511.346199 511.562631 
L 511.614337 511.798155 
L 512.472379 512.780505 
L 512.847772 512.994418 
L 513.008655 512.512111 
L 513.384049 511.525979 
L 513.705814 511.201383 
L 513.973952 511.23221 
L 514.295718 511.568399 
L 515.100132 512.608524 
L 515.529153 512.9047 
L 515.690036 512.433891 
L 516.06543 511.47116 
L 516.387195 511.163193 
L 516.655333 511.205853 
L 516.977099 511.554175 
L 517.727886 512.557688 
L 518.210534 512.914176 
L 518.371417 512.445344 
L 518.74681 511.486638 
L 519.068576 511.181531 
L 519.336714 511.226226 
L 519.65848 511.576634 
L 520.409267 512.583006 
L 520.891915 512.940711 
L 521.052798 512.472219 
L 521.428191 511.514204 
L 521.749957 511.20959 
L 522.018095 511.254635 
L 522.339861 511.605401 
L 523.090648 512.612264 
L 523.573296 512.970179 
L 523.734179 512.501745 
L 524.109572 511.54385 
L 524.431338 511.239319 
L 524.699476 511.284425 
L 525.021242 511.635253 
L 525.772028 512.642201 
L 526.254677 513.000151 
L 526.41556 512.531727 
L 526.790953 511.573852 
L 527.112719 511.269337 
L 527.380857 511.314452 
L 527.702623 511.665291 
L 528.453409 512.672253 
L 528.936058 513.030209 
L 529.096941 512.561788 
L 529.472334 511.603916 
L 529.7941 511.299403 
L 530.062238 511.34452 
L 530.384004 511.695361 
L 531.13479 512.702326 
L 531.617439 513.060283 
L 531.778322 512.591862 
L 532.153715 511.633991 
L 532.475481 511.329478 
L 532.743619 511.374596 
L 533.065384 511.725437 
L 533.816171 512.732402 
L 534.29882 513.09036 
L 534.459703 512.621938 
L 534.835096 511.664067 
L 535.156862 511.359555 
L 535.425 511.404672 
L 535.746765 511.755514 
L 536.497552 512.762479 
L 536.980201 513.120436 
L 537.087456 512.811382 
L 537.301966 510.759385 
L 537.623732 504.615605 
L 538.106381 490.186083 
L 538.696284 473.594049 
L 539.232561 464.738491 
L 540.197858 452.346313 
L 540.734134 438.198305 
L 541.324038 423.4948 
L 541.806686 416.890515 
L 542.18208 414.209 
L 542.557473 412.104342 
L 542.879239 408.112387 
L 543.361887 399.028765 
L 543.951791 388.01033 
L 544.380812 383.947586 
L 544.702578 382.575743 
L 544.917088 382.303035 
L 545.077971 382.25694 
L 545.238854 381.776588 
L 545.506992 379.891733 
L 545.882385 375.409009 
L 546.740427 364.224006 
L 547.062193 362.655934 
L 547.330331 362.270333 
L 547.491214 362.380232 
L 547.866607 362.967149 
L 547.920235 362.901975 
L 548.081118 362.409981 
L 548.349256 360.708805 
L 548.778277 356.171454 
L 549.260925 351.226977 
L 549.582691 349.774715 
L 549.797201 349.470901 
L 549.958084 349.542107 
L 550.172595 349.990326 
L 550.601616 351.168933 
L 550.708871 351.081435 
L 550.923381 350.392062 
L 551.245147 348.259131 
L 552.103189 341.678518 
L 552.371327 341.275422 
L 552.53221 341.37134 
L 552.74672 341.844538 
L 553.390252 343.803486 
L 553.443879 343.75432 
L 553.604762 343.370883 
L 553.8729 342.031038 
L 554.838197 336.097363 
L 555.052708 336.013405 
L 555.213591 336.224007 
L 555.481729 337.034363 
L 556.071633 339.142626 
L 556.178888 339.080927 
L 556.393398 338.51836 
L 556.715164 336.736513 
L 557.358696 332.86923 
L 557.573206 332.563593 
L 557.734089 332.623166 
L 557.948599 333.043833 
L 558.270365 334.31703 
L 558.699386 336.068142 
L 558.860269 336.106315 
L 559.021152 335.815552 
L 559.28929 334.693742 
L 560.147332 330.360219 
L 560.308215 330.315788 
L 560.469097 330.500417 
L 560.737235 331.262132 
L 561.54165 334.158756 
L 561.702533 333.919424 
L 561.970671 332.893372 
L 562.828713 328.853626 
L 562.989595 328.845579 
L 563.204106 329.179876 
L 563.525872 330.329892 
L 564.115775 332.838789 
L 564.276658 332.842243 
L 564.491169 332.397766 
L 564.705679 332.058589 
L 564.866562 332.096365 
L 565.081073 332.490207 
L 565.402838 333.727023 
L 565.831859 336.40053 
L 566.421763 341.636057 
L 566.797156 344.303535 
L 567.011667 344.734004 
L 567.17255 344.619723 
L 567.333433 344.54001 
L 567.494315 344.703688 
L 567.762453 345.454479 
L 568.137847 347.370428 
L 568.674123 351.536329 
L 569.532165 358.726014 
L 569.693048 358.864507 
L 569.853931 358.580074 
L 570.068441 358.297858 
L 570.229324 358.38555 
L 570.443834 358.854763 
L 570.7656 360.21784 
L 571.248249 363.491634 
L 572.267173 371.039141 
L 572.374429 370.92576 
L 572.964332 369.64829 
L 573.125215 369.839308 
L 573.393353 370.631543 
L 573.768747 372.592246 
L 574.305023 376.775005 
L 574.787671 380.276306 
L 574.894927 380.392343 
L 574.948554 380.354805 
L 575.109437 379.88525 
L 575.538458 378.167531 
L 575.752969 378.018331 
L 575.913851 378.18874 
L 576.18199 378.944507 
L 576.557383 380.848674 
L 577.093659 384.93539 
L 577.415425 387.048326 
L 577.576308 387.174672 
L 577.73719 386.716721 
L 578.380722 383.977713 
L 578.541605 383.937072 
L 578.702488 384.13031 
L 578.970626 384.913559 
L 579.346019 386.836549 
L 580.204061 392.007942 
L 580.311316 391.814588 
L 580.525827 390.679994 
L 580.90122 388.557609 
L 581.169358 388.032808 
L 581.330241 388.058026 
L 581.544751 388.4387 
L 581.866517 389.656184 
L 582.295538 392.27747 
L 582.778187 395.311787 
L 582.885442 395.341427 
L 583.046325 394.871496 
L 583.904367 390.83396 
L 584.065249 390.873076 
L 584.27976 391.26777 
L 584.601526 392.49779 
L 585.030547 395.122044 
L 585.459567 397.641565 
L 585.566823 397.635657 
L 585.727706 397.108081 
L 586.585747 392.771857 
L 586.74663 392.766745 
L 586.961141 393.107095 
L 587.282907 394.263903 
L 587.711927 396.802646 
L 588.140948 399.239815 
L 588.248204 399.209417 
L 588.409086 398.642211 
L 589.267128 394.101077 
L 589.428011 394.065589 
L 589.588894 394.257737 
L 589.857032 395.02665 
L 590.232426 396.905782 
L 591.03684 402.58801 
L 591.787626 409.664865 
L 592.913806 422.792264 
L 594.790773 444.859216 
L 596.506857 464.220981 
L 598.973727 487.681789 
L 601.601481 506.18901 
L 602.781288 510.714886 
L 603.42482 512.16278 
L 604.014723 512.998939 
L 604.229234 512.861249 
L 604.497372 512.883575 
L 604.819138 513.196833 
L 605.569924 513.933413 
L 606.374339 514.410822 
L 606.696104 514.476831 
L 607.286008 513.977451 
L 607.661401 514.193056 
L 608.519443 514.608238 
L 609.323858 514.83211 
L 610.021017 514.200414 
L 610.718176 514.550018 
L 611.7371 514.860916 
L 612.058866 514.856628 
L 612.64877 514.25604 
L 612.970536 514.395245 
L 613.882205 514.769377 
L 614.686619 514.953705 
L 615.383778 514.299748 
L 616.02731 514.613186 
L 617.046235 514.923287 
L 617.421628 514.927834 
L 618.011532 514.323746 
L 618.333297 514.461523 
L 619.244967 514.833022 
L 620.049381 515.015983 
L 620.74654 514.361256 
L 621.390072 514.674243 
L 622.408996 514.983922 
L 622.78439 514.98837 
L 623.374294 514.384161 
L 623.696059 514.521888 
L 624.607729 514.893297 
L 625.412143 515.07621 
L 626.109302 514.421457 
L 626.752834 514.734428 
L 627.771758 515.044092 
L 628.147152 515.048537 
L 628.737055 514.444324 
L 629.058821 514.582049 
L 629.970491 514.953455 
L 630.774905 515.136366 
L 631.472064 514.481612 
L 632.115595 514.794583 
L 633.13452 515.104247 
L 633.509913 515.108691 
L 634.099817 514.504478 
L 634.421583 514.642203 
L 635.333252 515.013608 
L 636.137667 515.19652 
L 636.834826 514.541766 
L 637.478357 514.854736 
L 638.497282 515.1644 
L 638.872675 515.168844 
L 639.462579 514.564631 
L 639.784345 514.702357 
L 640.696014 515.073762 
L 641.500429 515.256674 
L 642.197588 514.60192 
L 642.841119 514.91489 
L 643.860044 515.224554 
L 644.128182 515.277225 
L 644.128182 515.277225 
" clip-path="url(#p904f1ba89a)" style="fill: none; stroke: #008000; stroke-width: 1.5; stroke-linecap: square"/>
   </g>
   <g id="patch_8">
    <path d="M 52.94 534.04 
L 52.94 319.05 
" style="fill: none; stroke: #000000; stroke-width: 0.8; stroke-linejoin: miter; stroke-linecap: square"/>
   </g>
   <g id="patch_9">
    <path d="M 672.28 534.04 
L 672.28 319.05 
" style="fill: none; stroke: #000000; stroke-width: 0.8; stroke-linejoin: miter; stroke-linecap: square"/>
   </g>
   <g id="patch_10">
    <path d="M 52.94 534.04 
L 672.28 534.04 
" style="fill: none; stroke: #000000; stroke-width: 0.8; stroke-linejoin: miter; stroke-linecap: square"/>
   </g>
   <g id="patch_11">
    <path d="M 52.94 319.05 
L 672.28 319.05 
" style="fill: none; stroke: #000000; stroke-width: 0.8; stroke-linejoin: miter; stroke-linecap: square"/>
   </g>
   <g id="text_22">
    <!-- Cost Over Time -->
    <g transform="translate(316.344375 313.05) scale(0.12 -0.12)">
     <defs>
      <path id="DejaVuSans-76" d="M 191 3500 
L 800 3500 
L 1894 563 
L 2988 3500 
L 3597 3500 
L 2284 0 
L 1503 0 
L 191 3500 
z
" transform="scale(0.015625)"/>
      <path id="DejaVuSans-72" d="M 2631 2963 
Q 2534 3019 2420 3045 
Q 2306 3072 2169 3072 
Q 1681 3072 1420 2755 
Q 1159 2438 1159 1844 
L 1159 0 
L 581 0 
L 581 3500 
L 1159 3500 
L 1159 2956 
Q 1341 3275 1631 3429 
Q 1922 3584 2338 3584 
Q 2397 3584 2469 3576 
Q 2541 3569 2628 3553 
L 2631 2963 
z
" transform="scale(0.015625)"/>
     </defs>
     <use xlink:href="#DejaVuSans-43"/>
     <use xlink:href="#DejaVuSans-6f" x="69.824219"/>
     <use xlink:href="#DejaVuSans-73" x="131.005859"/>
     <use xlink:href="#DejaVuSans-74" x="183.105469"/>
     <use xlink:href="#DejaVuSans-20" x="222.314453"/>
     <use xlink:href="#DejaVuSans-4f" x="254.101562"/>
     <use xlink:href="#DejaVuSans-76" x="332.8125"/>
     <use xlink:href="#DejaVuSans-65" x="391.992188"/>
     <use xlink:href="#DejaVuSans-72" x="453.515625"/>
     <use xlink:href="#DejaVuSans-20" x="494.628906"/>
     <use xlink:href="#DejaVuSans-54" x="526.416016"/>
     <use xlink:href="#DejaVuSans-69" x="584.375"/>
     <use xlink:href="#DejaVuSans-6d" x="612.158203"/>
     <use xlink:href="#DejaVuSans-65" x="709.570312"/>
    </g>
   </g>
  </g>
  <g id="axes_3">
   <g id="matplotlib.axis_5">
    <g id="ytick_12">
     <g id="line2d_26">
      <defs>
       <path id="m340459c717" d="M 0 0 
L 3.5 0 
" style="stroke: #4682b4; stroke-width: 0.8"/>
      </defs>
      <g>
       <use xlink:href="#m340459c717" x="672.28" y="278.897727" style="fill: #4682b4; stroke: #4682b4; stroke-width: 0.8"/>
      </g>
     </g>
     <g id="text_23">
      <!-- 0.0 -->
      <g style="fill: #4682b4" transform="translate(679.28 282.696946) scale(0.1 -0.1)">
       <use xlink:href="#DejaVuSans-30"/>
       <use xlink:href="#DejaVuSans-2e" x="63.623047"/>
       <use xlink:href="#DejaVuSans-30" x="95.410156"/>
      </g>
     </g>
    </g>
    <g id="ytick_13">
     <g id="line2d_27">
      <g>
       <use xlink:href="#m340459c717" x="672.28" y="233.117526" style="fill: #4682b4; stroke: #4682b4; stroke-width: 0.8"/>
      </g>
     </g>
     <g id="text_24">
      <!-- 0.1 -->
      <g style="fill: #4682b4" transform="translate(679.28 236.916745) scale(0.1 -0.1)">
       <use xlink:href="#DejaVuSans-30"/>
       <use xlink:href="#DejaVuSans-2e" x="63.623047"/>
       <use xlink:href="#DejaVuSans-31" x="95.410156"/>
      </g>
     </g>
    </g>
    <g id="ytick_14">
     <g id="line2d_28">
      <g>
       <use xlink:href="#m340459c717" x="672.28" y="187.337325" style="fill: #4682b4; stroke: #4682b4; stroke-width: 0.8"/>
      </g>
     </g>
     <g id="text_25">
      <!-- 0.2 -->
      <g style="fill: #4682b4" transform="translate(679.28 191.136544) scale(0.1 -0.1)">
       <use xlink:href="#DejaVuSans-30"/>
       <use xlink:href="#DejaVuSans-2e" x="63.623047"/>
       <use xlink:href="#DejaVuSans-32" x="95.410156"/>
      </g>
     </g>
    </g>
    <g id="ytick_15">
     <g id="line2d_29">
      <g>
       <use xlink:href="#m340459c717" x="672.28" y="141.557124" style="fill: #4682b4; stroke: #4682b4; stroke-width: 0.8"/>
      </g>
     </g>
     <g id="text_26">
      <!-- 0.3 -->
      <g style="fill: #4682b4" transform="translate(679.28 145.356343) scale(0.1 -0.1)">
       <use xlink:href="#DejaVuSans-30"/>
       <use xlink:href="#DejaVuSans-2e" x="63.623047"/>
       <use xlink:href="#DejaVuSans-33" x="95.410156"/>
      </g>
     </g>
    </g>
    <g id="ytick_16">
     <g id="line2d_30">
      <g>
       <use xlink:href="#m340459c717" x="672.28" y="95.776923" style="fill: #4682b4; stroke: #4682b4; stroke-width: 0.8"/>
      </g>
     </g>
     <g id="text_27">
      <!-- 0.4 -->
      <g style="fill: #4682b4" transform="translate(679.28 99.576142) scale(0.1 -0.1)">
       <use xlink:href="#DejaVuSans-30"/>
       <use xlink:href="#DejaVuSans-2e" x="63.623047"/>
       <use xlink:href="#DejaVuSans-34" x="95.410156"/>
      </g>
     </g>
    </g>
    <g id="text_28">
     <!-- Duty Cycle -->
     <g style="fill: #4682b4" transform="translate(706.781563 208.367969) rotate(-90) scale(0.1 -0.1)">
      <use xlink:href="#DejaVuSans-44"/>
      <use xlink:href="#DejaVuSans-75" x="77.001953"/>
      <use xlink:href="#DejaVuSans-74" x="140.380859"/>
      <use xlink:href="#DejaVuSans-79" x="179.589844"/>
      <use xlink:href="#DejaVuSans-20" x="238.769531"/>
      <use xlink:href="#DejaVuSans-43" x="270.556641"/>
      <use xlink:href="#DejaVuSans-79" x="340.380859"/>
      <use xlink:href="#DejaVuSans-63" x="399.560547"/>
      <use xlink:href="#DejaVuSans-6c" x="454.541016"/>
      <use xlink:href="#DejaVuSans-65" x="482.324219"/>
     </g>
    </g>
   </g>
   <g id="line2d_31">
    <path d="M 81.091818 202.887773 
L 107.852 202.887773 
L 108.012883 278.897727 
L 134.665809 278.897727 
L 134.826692 205.677536 
L 161.479618 205.677536 
L 161.640501 204.276035 
L 188.293427 204.276035 
L 188.45431 278.897727 
L 268.734854 278.897727 
L 268.895737 258.863457 
L 295.548663 258.863457 
L 295.709546 278.897727 
L 349.176282 278.897727 
L 349.337164 178.637426 
L 375.990091 178.637426 
L 376.150974 275.325948 
L 402.8039 275.325948 
L 402.964783 234.649623 
L 429.617709 234.649623 
L 429.778592 278.897727 
L 456.431518 278.897727 
L 456.592401 258.76499 
L 483.245327 258.76499 
L 483.40621 278.897727 
L 510.059136 278.897727 
L 510.220019 261.328733 
L 536.872945 261.328733 
L 537.033828 83.452273 
L 563.686754 83.452273 
L 563.847637 161.662964 
L 590.500564 161.662964 
L 590.661446 278.897727 
L 644.128182 278.897727 
L 644.128182 278.897727 
" clip-path="url(#pd453423366)" style="fill: none; stroke: #4682b4; stroke-width: 1.5; stroke-linecap: square"/>
   </g>
   <g id="patch_12">
    <path d="M 52.94 288.67 
L 52.94 73.68 
" style="fill: none; stroke: #000000; stroke-width: 0.8; stroke-linejoin: miter; stroke-linecap: square"/>
   </g>
   <g id="patch_13">
    <path d="M 672.28 288.67 
L 672.28 73.68 
" style="fill: none; stroke: #4682b4; stroke-width: 0.8; stroke-linejoin: miter; stroke-linecap: square"/>
   </g>
   <g id="patch_14">
    <path d="M 52.94 288.67 
L 672.28 288.67 
" style="fill: none; stroke: #000000; stroke-width: 0.8; stroke-linejoin: miter; stroke-linecap: square"/>
   </g>
   <g id="patch_15">
    <path d="M 52.94 73.68 
L 672.28 73.68 
" style="fill: none; stroke: #000000; stroke-width: 0.8; stroke-linejoin: miter; stroke-linecap: square"/>
   </g>
  </g>
  <g id="text_29">
   <!-- Episode 57 - Total Reward: -1048.09 -->
   <g transform="translate(251.745938 20.638125) scale(0.12 -0.12)">
    <defs>
     <path id="DejaVuSans-45" d="M 628 4666 
L 3578 4666 
L 3578 4134 
L 1259 4134 
L 1259 2753 
L 3481 2753 
L 3481 2222 
L 1259 2222 
L 1259 531 
L 3634 531 
L 3634 0 
L 628 0 
L 628 4666 
z
" transform="scale(0.015625)"/>
     <path id="DejaVuSans-37" d="M 525 4666 
L 3525 4666 
L 3525 4397 
L 1831 0 
L 1172 0 
L 2766 4134 
L 525 4134 
L 525 4666 
z
" transform="scale(0.015625)"/>
     <path id="DejaVuSans-2d" d="M 313 2009 
L 1997 2009 
L 1997 1497 
L 313 1497 
L 313 2009 
z
" transform="scale(0.015625)"/>
     <path id="DejaVuSans-52" d="M 2841 2188 
Q 3044 2119 3236 1894 
Q 3428 1669 3622 1275 
L 4263 0 
L 3584 0 
L 2988 1197 
Q 2756 1666 2539 1819 
Q 2322 1972 1947 1972 
L 1259 1972 
L 1259 0 
L 628 0 
L 628 4666 
L 2053 4666 
Q 2853 4666 3247 4331 
Q 3641 3997 3641 3322 
Q 3641 2881 3436 2590 
Q 3231 2300 2841 2188 
z
M 1259 4147 
L 1259 2491 
L 2053 2491 
Q 2509 2491 2742 2702 
Q 2975 2913 2975 3322 
Q 2975 3731 2742 3939 
Q 2509 4147 2053 4147 
L 1259 4147 
z
" transform="scale(0.015625)"/>
     <path id="DejaVuSans-77" d="M 269 3500 
L 844 3500 
L 1563 769 
L 2278 3500 
L 2956 3500 
L 3675 769 
L 4391 3500 
L 4966 3500 
L 4050 0 
L 3372 0 
L 2619 2869 
L 1863 0 
L 1184 0 
L 269 3500 
z
" transform="scale(0.015625)"/>
     <path id="DejaVuSans-3a" d="M 750 794 
L 1409 794 
L 1409 0 
L 750 0 
L 750 794 
z
M 750 3309 
L 1409 3309 
L 1409 2516 
L 750 2516 
L 750 3309 
z
" transform="scale(0.015625)"/>
     <path id="DejaVuSans-39" d="M 703 97 
L 703 672 
Q 941 559 1184 500 
Q 1428 441 1663 441 
Q 2288 441 2617 861 
Q 2947 1281 2994 2138 
Q 2813 1869 2534 1725 
Q 2256 1581 1919 1581 
Q 1219 1581 811 2004 
Q 403 2428 403 3163 
Q 403 3881 828 4315 
Q 1253 4750 1959 4750 
Q 2769 4750 3195 4129 
Q 3622 3509 3622 2328 
Q 3622 1225 3098 567 
Q 2575 -91 1691 -91 
Q 1453 -91 1209 -44 
Q 966 3 703 97 
z
M 1959 2075 
Q 2384 2075 2632 2365 
Q 2881 2656 2881 3163 
Q 2881 3666 2632 3958 
Q 2384 4250 1959 4250 
Q 1534 4250 1286 3958 
Q 1038 3666 1038 3163 
Q 1038 2656 1286 2365 
Q 1534 2075 1959 2075 
z
" transform="scale(0.015625)"/>
    </defs>
    <use xlink:href="#DejaVuSans-45"/>
    <use xlink:href="#DejaVuSans-70" x="63.183594"/>
    <use xlink:href="#DejaVuSans-69" x="126.660156"/>
    <use xlink:href="#DejaVuSans-73" x="154.443359"/>
    <use xlink:href="#DejaVuSans-6f" x="206.542969"/>
    <use xlink:href="#DejaVuSans-64" x="267.724609"/>
    <use xlink:href="#DejaVuSans-65" x="331.201172"/>
    <use xlink:href="#DejaVuSans-20" x="392.724609"/>
    <use xlink:href="#DejaVuSans-35" x="424.511719"/>
    <use xlink:href="#DejaVuSans-37" x="488.134766"/>
    <use xlink:href="#DejaVuSans-20" x="551.757812"/>
    <use xlink:href="#DejaVuSans-2d" x="583.544922"/>
    <use xlink:href="#DejaVuSans-20" x="619.628906"/>
    <use xlink:href="#DejaVuSans-54" x="651.416016"/>
    <use xlink:href="#DejaVuSans-6f" x="695.5"/>
    <use xlink:href="#DejaVuSans-74" x="756.681641"/>
    <use xlink:href="#DejaVuSans-61" x="795.890625"/>
    <use xlink:href="#DejaVuSans-6c" x="857.169922"/>
    <use xlink:href="#DejaVuSans-20" x="884.953125"/>
    <use xlink:href="#DejaVuSans-52" x="916.740234"/>
    <use xlink:href="#DejaVuSans-65" x="981.722656"/>
    <use xlink:href="#DejaVuSans-77" x="1043.246094"/>
    <use xlink:href="#DejaVuSans-61" x="1125.033203"/>
    <use xlink:href="#DejaVuSans-72" x="1186.3125"/>
    <use xlink:href="#DejaVuSans-64" x="1225.675781"/>
    <use xlink:href="#DejaVuSans-3a" x="1289.152344"/>
    <use xlink:href="#DejaVuSans-20" x="1322.84375"/>
    <use xlink:href="#DejaVuSans-2d" x="1354.630859"/>
    <use xlink:href="#DejaVuSans-31" x="1390.714844"/>
    <use xlink:href="#DejaVuSans-30" x="1454.337891"/>
    <use xlink:href="#DejaVuSans-34" x="1517.960938"/>
    <use xlink:href="#DejaVuSans-38" x="1581.583984"/>
    <use xlink:href="#DejaVuSans-2e" x="1645.207031"/>
    <use xlink:href="#DejaVuSans-30" x="1676.994141"/>
    <use xlink:href="#DejaVuSans-39" x="1740.617188"/>
   </g>
  </g>
 </g>
 <defs>
  <clipPath id="pd453423366">
   <rect x="52.94" y="73.68" width="619.34" height="214.99"/>
  </clipPath>
  <clipPath id="p904f1ba89a">
   <rect x="52.94" y="319.05" width="619.34" height="214.99"/>
  </clipPath>
 </defs>
</svg>
