<?xml version="1.0" encoding="utf-8" standalone="no"?>
<!DOCTYPE svg PUBLIC "-//W3C//DTD SVG 1.1//EN"
  "http://www.w3.org/Graphics/SVG/1.1/DTD/svg11.dtd">
<svg xmlns:xlink="http://www.w3.org/1999/xlink" width="720pt" height="576pt" viewBox="0 0 720 576" xmlns="http://www.w3.org/2000/svg" version="1.1">
 <metadata>
  <rdf:RDF xmlns:dc="http://purl.org/dc/elements/1.1/" xmlns:cc="http://creativecommons.org/ns#" xmlns:rdf="http://www.w3.org/1999/02/22-rdf-syntax-ns#">
   <cc:Work>
    <dc:type rdf:resource="http://purl.org/dc/dcmitype/StillImage"/>
    <dc:date>2024-06-03T13:09:39.617862</dc:date>
    <dc:format>image/svg+xml</dc:format>
    <dc:creator>
     <cc:Agent>
      <dc:title>Matplotlib v3.8.4, https://matplotlib.org/</dc:title>
     </cc:Agent>
    </dc:creator>
   </cc:Work>
  </rdf:RDF>
 </metadata>
 <defs>
  <style type="text/css">*{stroke-linejoin: round; stroke-linecap: butt}</style>
 </defs>
 <g id="figure_1">
  <g id="patch_1">
   <path d="M 0 576 
L 720 576 
L 720 0 
L 0 0 
z
" style="fill: #ffffff"/>
  </g>
  <g id="axes_1">
   <g id="patch_2">
    <path d="M 52.94 288.67 
L 672.28 288.67 
L 672.28 73.68 
L 52.94 73.68 
z
" style="fill: #ffffff"/>
   </g>
   <g id="matplotlib.axis_1">
    <g id="xtick_1">
     <g id="line2d_1">
      <defs>
       <path id="mc29439df86" d="M 0 0 
L 0 3.5 
" style="stroke: #000000; stroke-width: 0.8"/>
      </defs>
      <g>
       <use xlink:href="#mc29439df86" x="81.091818" y="288.67" style="stroke: #000000; stroke-width: 0.8"/>
      </g>
     </g>
    </g>
    <g id="xtick_2">
     <g id="line2d_2">
      <g>
       <use xlink:href="#mc29439df86" x="188.347055" y="288.67" style="stroke: #000000; stroke-width: 0.8"/>
      </g>
     </g>
    </g>
    <g id="xtick_3">
     <g id="line2d_3">
      <g>
       <use xlink:href="#mc29439df86" x="295.602291" y="288.67" style="stroke: #000000; stroke-width: 0.8"/>
      </g>
     </g>
    </g>
    <g id="xtick_4">
     <g id="line2d_4">
      <g>
       <use xlink:href="#mc29439df86" x="402.857527" y="288.67" style="stroke: #000000; stroke-width: 0.8"/>
      </g>
     </g>
    </g>
    <g id="xtick_5">
     <g id="line2d_5">
      <g>
       <use xlink:href="#mc29439df86" x="510.112764" y="288.67" style="stroke: #000000; stroke-width: 0.8"/>
      </g>
     </g>
    </g>
    <g id="xtick_6">
     <g id="line2d_6">
      <g>
       <use xlink:href="#mc29439df86" x="617.368" y="288.67" style="stroke: #000000; stroke-width: 0.8"/>
      </g>
     </g>
    </g>
   </g>
   <g id="matplotlib.axis_2">
    <g id="ytick_1">
     <g id="line2d_7">
      <defs>
       <path id="m51eacd073f" d="M 0 0 
L -3.5 0 
" style="stroke: #ff4500; stroke-width: 0.8"/>
      </defs>
      <g>
       <use xlink:href="#m51eacd073f" x="52.94" y="278.904442" style="fill: #ff4500; stroke: #ff4500; stroke-width: 0.8"/>
      </g>
     </g>
     <g id="text_1">
      <!-- 0 -->
      <g style="fill: #ff4500" transform="translate(39.5775 282.703661) scale(0.1 -0.1)">
       <defs>
        <path id="DejaVuSans-30" d="M 2034 4250 
Q 1547 4250 1301 3770 
Q 1056 3291 1056 2328 
Q 1056 1369 1301 889 
Q 1547 409 2034 409 
Q 2525 409 2770 889 
Q 3016 1369 3016 2328 
Q 3016 3291 2770 3770 
Q 2525 4250 2034 4250 
z
M 2034 4750 
Q 2819 4750 3233 4129 
Q 3647 3509 3647 2328 
Q 3647 1150 3233 529 
Q 2819 -91 2034 -91 
Q 1250 -91 836 529 
Q 422 1150 422 2328 
Q 422 3509 836 4129 
Q 1250 4750 2034 4750 
z
" transform="scale(0.015625)"/>
       </defs>
       <use xlink:href="#DejaVuSans-30"/>
      </g>
     </g>
    </g>
    <g id="ytick_2">
     <g id="line2d_8">
      <g>
       <use xlink:href="#m51eacd073f" x="52.94" y="241.599718" style="fill: #ff4500; stroke: #ff4500; stroke-width: 0.8"/>
      </g>
     </g>
     <g id="text_2">
      <!-- 2 -->
      <g style="fill: #ff4500" transform="translate(39.5775 245.398937) scale(0.1 -0.1)">
       <defs>
        <path id="DejaVuSans-32" d="M 1228 531 
L 3431 531 
L 3431 0 
L 469 0 
L 469 531 
Q 828 903 1448 1529 
Q 2069 2156 2228 2338 
Q 2531 2678 2651 2914 
Q 2772 3150 2772 3378 
Q 2772 3750 2511 3984 
Q 2250 4219 1831 4219 
Q 1534 4219 1204 4116 
Q 875 4013 500 3803 
L 500 4441 
Q 881 4594 1212 4672 
Q 1544 4750 1819 4750 
Q 2544 4750 2975 4387 
Q 3406 4025 3406 3419 
Q 3406 3131 3298 2873 
Q 3191 2616 2906 2266 
Q 2828 2175 2409 1742 
Q 1991 1309 1228 531 
z
" transform="scale(0.015625)"/>
       </defs>
       <use xlink:href="#DejaVuSans-32"/>
      </g>
     </g>
    </g>
    <g id="ytick_3">
     <g id="line2d_9">
      <g>
       <use xlink:href="#m51eacd073f" x="52.94" y="204.294995" style="fill: #ff4500; stroke: #ff4500; stroke-width: 0.8"/>
      </g>
     </g>
     <g id="text_3">
      <!-- 4 -->
      <g style="fill: #ff4500" transform="translate(39.5775 208.094213) scale(0.1 -0.1)">
       <defs>
        <path id="DejaVuSans-34" d="M 2419 4116 
L 825 1625 
L 2419 1625 
L 2419 4116 
z
M 2253 4666 
L 3047 4666 
L 3047 1625 
L 3713 1625 
L 3713 1100 
L 3047 1100 
L 3047 0 
L 2419 0 
L 2419 1100 
L 313 1100 
L 313 1709 
L 2253 4666 
z
" transform="scale(0.015625)"/>
       </defs>
       <use xlink:href="#DejaVuSans-34"/>
      </g>
     </g>
    </g>
    <g id="ytick_4">
     <g id="line2d_10">
      <g>
       <use xlink:href="#m51eacd073f" x="52.94" y="166.990271" style="fill: #ff4500; stroke: #ff4500; stroke-width: 0.8"/>
      </g>
     </g>
     <g id="text_4">
      <!-- 6 -->
      <g style="fill: #ff4500" transform="translate(39.5775 170.78949) scale(0.1 -0.1)">
       <defs>
        <path id="DejaVuSans-36" d="M 2113 2584 
Q 1688 2584 1439 2293 
Q 1191 2003 1191 1497 
Q 1191 994 1439 701 
Q 1688 409 2113 409 
Q 2538 409 2786 701 
Q 3034 994 3034 1497 
Q 3034 2003 2786 2293 
Q 2538 2584 2113 2584 
z
M 3366 4563 
L 3366 3988 
Q 3128 4100 2886 4159 
Q 2644 4219 2406 4219 
Q 1781 4219 1451 3797 
Q 1122 3375 1075 2522 
Q 1259 2794 1537 2939 
Q 1816 3084 2150 3084 
Q 2853 3084 3261 2657 
Q 3669 2231 3669 1497 
Q 3669 778 3244 343 
Q 2819 -91 2113 -91 
Q 1303 -91 875 529 
Q 447 1150 447 2328 
Q 447 3434 972 4092 
Q 1497 4750 2381 4750 
Q 2619 4750 2861 4703 
Q 3103 4656 3366 4563 
z
" transform="scale(0.015625)"/>
       </defs>
       <use xlink:href="#DejaVuSans-36"/>
      </g>
     </g>
    </g>
    <g id="ytick_5">
     <g id="line2d_11">
      <g>
       <use xlink:href="#m51eacd073f" x="52.94" y="129.685547" style="fill: #ff4500; stroke: #ff4500; stroke-width: 0.8"/>
      </g>
     </g>
     <g id="text_5">
      <!-- 8 -->
      <g style="fill: #ff4500" transform="translate(39.5775 133.484766) scale(0.1 -0.1)">
       <defs>
        <path id="DejaVuSans-38" d="M 2034 2216 
Q 1584 2216 1326 1975 
Q 1069 1734 1069 1313 
Q 1069 891 1326 650 
Q 1584 409 2034 409 
Q 2484 409 2743 651 
Q 3003 894 3003 1313 
Q 3003 1734 2745 1975 
Q 2488 2216 2034 2216 
z
M 1403 2484 
Q 997 2584 770 2862 
Q 544 3141 544 3541 
Q 544 4100 942 4425 
Q 1341 4750 2034 4750 
Q 2731 4750 3128 4425 
Q 3525 4100 3525 3541 
Q 3525 3141 3298 2862 
Q 3072 2584 2669 2484 
Q 3125 2378 3379 2068 
Q 3634 1759 3634 1313 
Q 3634 634 3220 271 
Q 2806 -91 2034 -91 
Q 1263 -91 848 271 
Q 434 634 434 1313 
Q 434 1759 690 2068 
Q 947 2378 1403 2484 
z
M 1172 3481 
Q 1172 3119 1398 2916 
Q 1625 2713 2034 2713 
Q 2441 2713 2670 2916 
Q 2900 3119 2900 3481 
Q 2900 3844 2670 4047 
Q 2441 4250 2034 4250 
Q 1625 4250 1398 4047 
Q 1172 3844 1172 3481 
z
" transform="scale(0.015625)"/>
       </defs>
       <use xlink:href="#DejaVuSans-38"/>
      </g>
     </g>
    </g>
    <g id="ytick_6">
     <g id="line2d_12">
      <g>
       <use xlink:href="#m51eacd073f" x="52.94" y="92.380824" style="fill: #ff4500; stroke: #ff4500; stroke-width: 0.8"/>
      </g>
     </g>
     <g id="text_6">
      <!-- 10 -->
      <g style="fill: #ff4500" transform="translate(33.215 96.180042) scale(0.1 -0.1)">
       <defs>
        <path id="DejaVuSans-31" d="M 794 531 
L 1825 531 
L 1825 4091 
L 703 3866 
L 703 4441 
L 1819 4666 
L 2450 4666 
L 2450 531 
L 3481 531 
L 3481 0 
L 794 0 
L 794 531 
z
" transform="scale(0.015625)"/>
       </defs>
       <use xlink:href="#DejaVuSans-31"/>
       <use xlink:href="#DejaVuSans-30" x="63.623047"/>
      </g>
     </g>
    </g>
    <g id="text_7">
     <!-- Output Voltage -->
     <g style="fill: #ff4500" transform="translate(27.135313 218.888281) rotate(-90) scale(0.1 -0.1)">
      <defs>
       <path id="DejaVuSans-4f" d="M 2522 4238 
Q 1834 4238 1429 3725 
Q 1025 3213 1025 2328 
Q 1025 1447 1429 934 
Q 1834 422 2522 422 
Q 3209 422 3611 934 
Q 4013 1447 4013 2328 
Q 4013 3213 3611 3725 
Q 3209 4238 2522 4238 
z
M 2522 4750 
Q 3503 4750 4090 4092 
Q 4678 3434 4678 2328 
Q 4678 1225 4090 567 
Q 3503 -91 2522 -91 
Q 1538 -91 948 565 
Q 359 1222 359 2328 
Q 359 3434 948 4092 
Q 1538 4750 2522 4750 
z
" transform="scale(0.015625)"/>
       <path id="DejaVuSans-75" d="M 544 1381 
L 544 3500 
L 1119 3500 
L 1119 1403 
Q 1119 906 1312 657 
Q 1506 409 1894 409 
Q 2359 409 2629 706 
Q 2900 1003 2900 1516 
L 2900 3500 
L 3475 3500 
L 3475 0 
L 2900 0 
L 2900 538 
Q 2691 219 2414 64 
Q 2138 -91 1772 -91 
Q 1169 -91 856 284 
Q 544 659 544 1381 
z
M 1991 3584 
L 1991 3584 
z
" transform="scale(0.015625)"/>
       <path id="DejaVuSans-74" d="M 1172 4494 
L 1172 3500 
L 2356 3500 
L 2356 3053 
L 1172 3053 
L 1172 1153 
Q 1172 725 1289 603 
Q 1406 481 1766 481 
L 2356 481 
L 2356 0 
L 1766 0 
Q 1100 0 847 248 
Q 594 497 594 1153 
L 594 3053 
L 172 3053 
L 172 3500 
L 594 3500 
L 594 4494 
L 1172 4494 
z
" transform="scale(0.015625)"/>
       <path id="DejaVuSans-70" d="M 1159 525 
L 1159 -1331 
L 581 -1331 
L 581 3500 
L 1159 3500 
L 1159 2969 
Q 1341 3281 1617 3432 
Q 1894 3584 2278 3584 
Q 2916 3584 3314 3078 
Q 3713 2572 3713 1747 
Q 3713 922 3314 415 
Q 2916 -91 2278 -91 
Q 1894 -91 1617 61 
Q 1341 213 1159 525 
z
M 3116 1747 
Q 3116 2381 2855 2742 
Q 2594 3103 2138 3103 
Q 1681 3103 1420 2742 
Q 1159 2381 1159 1747 
Q 1159 1113 1420 752 
Q 1681 391 2138 391 
Q 2594 391 2855 752 
Q 3116 1113 3116 1747 
z
" transform="scale(0.015625)"/>
       <path id="DejaVuSans-20" transform="scale(0.015625)"/>
       <path id="DejaVuSans-56" d="M 1831 0 
L 50 4666 
L 709 4666 
L 2188 738 
L 3669 4666 
L 4325 4666 
L 2547 0 
L 1831 0 
z
" transform="scale(0.015625)"/>
       <path id="DejaVuSans-6f" d="M 1959 3097 
Q 1497 3097 1228 2736 
Q 959 2375 959 1747 
Q 959 1119 1226 758 
Q 1494 397 1959 397 
Q 2419 397 2687 759 
Q 2956 1122 2956 1747 
Q 2956 2369 2687 2733 
Q 2419 3097 1959 3097 
z
M 1959 3584 
Q 2709 3584 3137 3096 
Q 3566 2609 3566 1747 
Q 3566 888 3137 398 
Q 2709 -91 1959 -91 
Q 1206 -91 779 398 
Q 353 888 353 1747 
Q 353 2609 779 3096 
Q 1206 3584 1959 3584 
z
" transform="scale(0.015625)"/>
       <path id="DejaVuSans-6c" d="M 603 4863 
L 1178 4863 
L 1178 0 
L 603 0 
L 603 4863 
z
" transform="scale(0.015625)"/>
       <path id="DejaVuSans-61" d="M 2194 1759 
Q 1497 1759 1228 1600 
Q 959 1441 959 1056 
Q 959 750 1161 570 
Q 1363 391 1709 391 
Q 2188 391 2477 730 
Q 2766 1069 2766 1631 
L 2766 1759 
L 2194 1759 
z
M 3341 1997 
L 3341 0 
L 2766 0 
L 2766 531 
Q 2569 213 2275 61 
Q 1981 -91 1556 -91 
Q 1019 -91 701 211 
Q 384 513 384 1019 
Q 384 1609 779 1909 
Q 1175 2209 1959 2209 
L 2766 2209 
L 2766 2266 
Q 2766 2663 2505 2880 
Q 2244 3097 1772 3097 
Q 1472 3097 1187 3025 
Q 903 2953 641 2809 
L 641 3341 
Q 956 3463 1253 3523 
Q 1550 3584 1831 3584 
Q 2591 3584 2966 3190 
Q 3341 2797 3341 1997 
z
" transform="scale(0.015625)"/>
       <path id="DejaVuSans-67" d="M 2906 1791 
Q 2906 2416 2648 2759 
Q 2391 3103 1925 3103 
Q 1463 3103 1205 2759 
Q 947 2416 947 1791 
Q 947 1169 1205 825 
Q 1463 481 1925 481 
Q 2391 481 2648 825 
Q 2906 1169 2906 1791 
z
M 3481 434 
Q 3481 -459 3084 -895 
Q 2688 -1331 1869 -1331 
Q 1566 -1331 1297 -1286 
Q 1028 -1241 775 -1147 
L 775 -588 
Q 1028 -725 1275 -790 
Q 1522 -856 1778 -856 
Q 2344 -856 2625 -561 
Q 2906 -266 2906 331 
L 2906 616 
Q 2728 306 2450 153 
Q 2172 0 1784 0 
Q 1141 0 747 490 
Q 353 981 353 1791 
Q 353 2603 747 3093 
Q 1141 3584 1784 3584 
Q 2172 3584 2450 3431 
Q 2728 3278 2906 2969 
L 2906 3500 
L 3481 3500 
L 3481 434 
z
" transform="scale(0.015625)"/>
       <path id="DejaVuSans-65" d="M 3597 1894 
L 3597 1613 
L 953 1613 
Q 991 1019 1311 708 
Q 1631 397 2203 397 
Q 2534 397 2845 478 
Q 3156 559 3463 722 
L 3463 178 
Q 3153 47 2828 -22 
Q 2503 -91 2169 -91 
Q 1331 -91 842 396 
Q 353 884 353 1716 
Q 353 2575 817 3079 
Q 1281 3584 2069 3584 
Q 2775 3584 3186 3129 
Q 3597 2675 3597 1894 
z
M 3022 2063 
Q 3016 2534 2758 2815 
Q 2500 3097 2075 3097 
Q 1594 3097 1305 2825 
Q 1016 2553 972 2059 
L 3022 2063 
z
" transform="scale(0.015625)"/>
      </defs>
      <use xlink:href="#DejaVuSans-4f"/>
      <use xlink:href="#DejaVuSans-75" x="78.710938"/>
      <use xlink:href="#DejaVuSans-74" x="142.089844"/>
      <use xlink:href="#DejaVuSans-70" x="181.298828"/>
      <use xlink:href="#DejaVuSans-75" x="244.775391"/>
      <use xlink:href="#DejaVuSans-74" x="308.154297"/>
      <use xlink:href="#DejaVuSans-20" x="347.363281"/>
      <use xlink:href="#DejaVuSans-56" x="379.150391"/>
      <use xlink:href="#DejaVuSans-6f" x="439.808594"/>
      <use xlink:href="#DejaVuSans-6c" x="500.990234"/>
      <use xlink:href="#DejaVuSans-74" x="528.773438"/>
      <use xlink:href="#DejaVuSans-61" x="567.982422"/>
      <use xlink:href="#DejaVuSans-67" x="629.261719"/>
      <use xlink:href="#DejaVuSans-65" x="692.738281"/>
     </g>
    </g>
   </g>
   <g id="line2d_13">
    <path d="M 81.091818 278.897727 
L 81.252701 278.759113 
L 81.467212 278.079091 
L 81.788977 276.092593 
L 82.271626 271.374996 
L 82.915157 264.947684 
L 83.451433 261.735199 
L 84.309475 257.661401 
L 84.792124 253.09247 
L 85.650166 244.554473 
L 86.132814 242.137789 
L 86.561835 241.072254 
L 86.829973 240.062856 
L 87.205367 237.646784 
L 87.79527 232.12237 
L 88.277919 228.527284 
L 88.70694 226.895426 
L 89.028706 226.430504 
L 89.350471 226.218845 
L 89.564982 225.622863 
L 89.886748 224.031427 
L 90.369396 220.392132 
L 90.852045 217.104002 
L 91.227438 215.892481 
L 91.495576 215.610196 
L 91.710087 215.678035 
L 92.031852 215.922906 
L 92.192735 215.736157 
L 92.460873 214.935002 
L 92.836267 212.947927 
L 93.587053 208.556959 
L 93.908819 207.950608 
L 94.123329 207.926623 
L 94.33784 208.162989 
L 94.820488 208.843141 
L 94.981371 208.661497 
L 95.249509 207.894142 
L 95.624903 205.999123 
L 96.161179 203.168112 
L 96.482945 202.568247 
L 96.697455 202.56786 
L 96.911966 202.840934 
L 97.609125 204.069052 
L 97.823635 203.731256 
L 98.145401 202.588051 
L 99.003443 198.949834 
L 99.217953 198.836305 
L 99.432464 199.021543 
L 99.700602 199.615946 
L 100.236878 200.89977 
L 100.397761 200.826894 
L 100.612271 200.405555 
L 100.934037 199.17453 
L 101.577568 196.505024 
L 101.792079 196.307525 
L 101.952962 196.369575 
L 102.167472 196.700096 
L 102.489238 197.653702 
L 102.864631 198.69679 
L 103.025514 198.749579 
L 103.186397 198.583259 
L 103.454535 197.8758 
L 103.883556 195.874227 
L 104.205322 194.819638 
L 104.419832 194.591415 
L 104.580715 194.636373 
L 104.795225 194.951181 
L 105.116991 195.894443 
L 105.546012 197.225957 
L 105.760523 197.292004 
L 105.975033 196.979791 
L 106.296799 195.906188 
L 106.886703 193.610729 
L 107.101213 193.419859 
L 107.262096 193.492072 
L 107.476606 193.842239 
L 107.798372 194.836503 
L 108.924552 199.703536 
L 109.675339 204.840144 
L 113.429272 232.523908 
L 115.145356 242.08284 
L 116.271536 248.03799 
L 117.29046 251.955296 
L 119.006544 258.596763 
L 119.757331 260.443876 
L 121.044394 264.318981 
L 121.527042 265.587715 
L 122.009691 266.158806 
L 122.70685 267.385332 
L 123.779402 269.789848 
L 124.208423 270.571106 
L 124.637444 270.765895 
L 125.17372 271.302548 
L 125.924507 272.422626 
L 126.889804 273.94894 
L 127.318825 273.939177 
L 127.801474 274.194801 
L 128.391377 274.783553 
L 129.249419 275.982489 
L 129.517557 276.25964 
L 130.107461 276.086888 
L 130.59011 276.250956 
L 131.180014 276.721274 
L 132.198938 277.590827 
L 132.788842 277.047757 
L 133.217863 276.973552 
L 133.700512 277.134345 
L 134.344043 277.625556 
L 134.826692 277.907996 
L 134.987574 277.653333 
L 135.255713 276.522463 
L 135.631106 273.691095 
L 136.167382 267.709157 
L 136.971796 255.928023 
L 139.170529 218.682561 
L 140.886612 191.183651 
L 142.549069 168.198707 
L 143.675249 155.279861 
L 145.176822 140.301412 
L 146.195747 132.005699 
L 147.750948 121.046464 
L 148.662617 115.827579 
L 150.378701 107.426671 
L 151.236743 104.041489 
L 153.381848 96.942538 
L 153.918124 95.664958 
L 156.384994 90.302292 
L 157.940195 87.934593 
L 159.066375 86.349852 
L 160.0853 85.373657 
L 161.855011 83.631799 
L 162.33766 83.513739 
L 162.498543 83.900375 
L 162.766681 85.24637 
L 163.195702 88.915227 
L 163.785605 96.230712 
L 165.072668 113.090535 
L 165.769827 121.740134 
L 166.949635 139.684609 
L 167.485911 146.226429 
L 168.397581 155.183077 
L 169.631016 170.47197 
L 170.113664 175.029755 
L 171.186217 182.367627 
L 172.205142 191.98167 
L 172.68779 195.774077 
L 173.063183 197.009693 
L 173.492204 198.706792 
L 174.082108 202.096588 
L 175.530054 211.031331 
L 175.959075 211.515199 
L 176.334468 212.569893 
L 176.870744 214.89782 
L 178.157807 221.009156 
L 178.31869 220.929293 
L 178.5332 220.846217 
L 178.747711 220.99208 
L 179.069477 221.577641 
L 179.498498 222.913596 
L 180.142029 225.781016 
L 180.624678 227.748304 
L 180.78556 227.855574 
L 180.946443 227.688682 
L 181.268209 227.269968 
L 181.482719 227.271527 
L 181.750858 227.550558 
L 182.126251 228.372194 
L 182.662527 230.217294 
L 183.306058 232.5097 
L 183.466941 232.506485 
L 183.681452 232.099275 
L 184.003218 231.550946 
L 184.271356 231.484281 
L 184.539494 231.714938 
L 184.914887 232.449584 
L 185.451163 234.141183 
L 185.933812 235.689278 
L 186.094695 235.707432 
L 186.255578 235.446451 
L 186.738226 234.395206 
L 187.006364 234.281162 
L 187.274502 234.458833 
L 187.596268 234.993312 
L 188.078917 236.314705 
L 188.66882 237.902479 
L 188.829703 237.773863 
L 189.044214 237.188988 
L 189.365979 235.548083 
L 189.848628 231.732418 
L 190.331276 228.464834 
L 190.70667 227.164592 
L 191.028436 226.73594 
L 191.242946 226.472077 
L 191.511084 225.572117 
L 191.886477 223.391227 
L 192.422754 218.847794 
L 192.95903 214.586561 
L 193.334423 213.133979 
L 193.602561 212.725845 
L 193.977955 212.437505 
L 194.246093 211.601904 
L 194.621486 209.600569 
L 195.21139 204.99146 
L 195.640411 202.259345 
L 195.962176 201.326648 
L 196.176687 201.143087 
L 196.391197 201.260124 
L 196.605708 201.369786 
L 196.766591 201.201566 
L 197.034729 200.481582 
L 197.410122 198.696997 
L 198.482674 192.769724 
L 198.697185 192.575366 
L 198.858068 192.646931 
L 199.126206 193.110532 
L 199.340716 193.36269 
L 199.501599 193.293341 
L 199.71611 192.896046 
L 200.037875 191.736834 
L 200.520524 188.98519 
L 200.949545 186.926546 
L 201.217683 186.510774 
L 201.378566 186.53496 
L 201.593076 186.846478 
L 202.129352 187.902533 
L 202.290235 187.820895 
L 202.504746 187.423445 
L 202.826512 186.294116 
L 203.791809 182.312662 
L 203.952692 182.303157 
L 204.167202 182.585852 
L 204.488968 183.538501 
L 204.757106 184.148388 
L 204.971616 184.198415 
L 205.186127 183.911413 
L 205.507892 182.94166 
L 206.47319 179.39768 
L 206.634072 179.455451 
L 206.848583 179.825482 
L 207.223976 181.099566 
L 207.492114 181.681125 
L 207.706625 181.719857 
L 207.921135 181.430395 
L 208.242901 180.471156 
L 209.100943 177.435472 
L 209.261826 177.471491 
L 209.476336 177.820941 
L 209.798102 178.902356 
L 210.173495 179.980526 
L 210.388006 180.071701 
L 210.602516 179.833073 
L 210.870654 179.134394 
L 211.299675 177.27588 
L 211.621441 176.239645 
L 211.835951 176.090552 
L 211.996834 176.225094 
L 212.264972 176.85941 
L 212.962131 178.93871 
L 213.123014 178.936126 
L 213.337525 178.655902 
L 213.65929 177.723645 
L 214.410077 175.200037 
L 214.57096 175.219028 
L 214.78547 175.55421 
L 215.107236 176.629963 
L 215.536257 178.054776 
L 215.750768 178.205436 
L 215.91165 178.098423 
L 216.179788 177.55379 
L 216.555182 176.143831 
L 217.091458 173.123812 
L 218.110383 167.088248 
L 218.700287 163.805118 
L 219.611956 157.255664 
L 220.630881 150.081537 
L 221.274412 146.979185 
L 222.293337 140.747068 
L 223.258634 135.108815 
L 223.741283 133.649296 
L 224.438442 130.771046 
L 226.04727 123.825001 
L 226.422664 123.16324 
L 226.95894 121.726285 
L 227.763354 118.85554 
L 228.514141 116.191492 
L 229.2113 115.742588 
L 229.693948 114.854038 
L 230.391107 112.992457 
L 231.195522 110.777206 
L 231.892681 110.8438 
L 232.268074 110.444495 
L 232.80435 109.476777 
L 233.555137 107.591746 
L 233.823275 107.094144 
L 233.984158 107.206376 
L 234.359551 107.511737 
L 234.681317 107.485512 
L 235.05671 107.186074 
L 235.539359 106.47159 
L 236.236518 104.982717 
L 236.504656 104.585114 
L 236.665539 104.755496 
L 237.040932 105.191477 
L 237.362698 105.271695 
L 237.684463 105.13202 
L 238.113484 104.673292 
L 238.703388 103.665304 
L 239.186037 102.888913 
L 239.34692 103.098692 
L 239.722313 103.623142 
L 240.044079 103.775432 
L 240.365844 103.704526 
L 240.794865 103.332609 
L 241.331141 102.531631 
L 241.867418 101.742878 
L 242.0283 101.979298 
L 242.457321 102.614679 
L 242.832715 102.77933 
L 243.15448 102.689212 
L 243.529874 102.516639 
L 243.690757 102.811786 
L 243.958895 103.953865 
L 244.334288 106.70074 
L 245.567723 116.910924 
L 245.996744 118.361091 
L 246.31851 119.321587 
L 246.693903 121.586675 
L 247.230179 126.552986 
L 247.873711 132.558115 
L 248.302732 134.691115 
L 248.678125 135.577396 
L 248.946263 136.028354 
L 249.214401 137.082414 
L 249.643422 139.894349 
L 250.769602 148.164339 
L 251.091368 148.904059 
L 251.359506 149.038739 
L 251.574016 149.024732 
L 251.734899 149.260359 
L 252.003037 150.142589 
L 252.378431 152.241855 
L 253.343728 158.289693 
L 253.665494 158.829541 
L 253.880004 158.819112 
L 254.148142 158.471778 
L 254.362653 158.352964 
L 254.523535 158.542912 
L 254.791674 159.323924 
L 255.167067 161.237629 
L 255.917854 165.365184 
L 256.185992 165.799757 
L 256.400502 165.790532 
L 256.615013 165.506827 
L 257.097661 164.677921 
L 257.258544 164.799488 
L 257.473054 165.283855 
L 257.79482 166.60553 
L 258.652862 170.529183 
L 258.867373 170.680682 
L 259.081883 170.522985 
L 259.350021 169.950188 
L 259.779042 168.957408 
L 259.939925 168.98056 
L 260.154435 169.337126 
L 260.476201 170.47421 
L 261.280615 173.880486 
L 261.495126 174.010255 
L 261.709636 173.823565 
L 261.977774 173.205815 
L 262.514051 171.817347 
L 262.674933 171.846811 
L 262.889444 172.20331 
L 263.21121 173.324555 
L 263.908369 176.141337 
L 264.122879 176.284652 
L 264.33739 176.103002 
L 264.605528 175.481176 
L 265.249059 173.733436 
L 265.409942 173.789109 
L 265.624452 174.171587 
L 265.946218 175.315009 
L 266.536122 177.648968 
L 266.750632 177.83111 
L 266.911515 177.74585 
L 267.179653 177.234267 
L 267.555047 175.883096 
L 267.876812 175.077777 
L 268.037695 175.031467 
L 268.198578 175.193091 
L 268.466716 175.870761 
L 268.895737 177.776936 
L 269.217503 178.729605 
L 269.432013 178.878358 
L 269.592896 178.768734 
L 269.861034 178.217796 
L 270.236428 176.795581 
L 271.148097 172.905352 
L 271.30898 172.882682 
L 271.52349 173.158103 
L 271.738001 173.35817 
L 271.898884 173.293825 
L 272.113394 172.95519 
L 272.43516 171.980082 
L 272.917809 169.677598 
L 273.77585 165.359197 
L 273.990361 165.24511 
L 274.204871 165.51439 
L 274.473009 165.737108 
L 274.68752 165.582299 
L 274.955658 165.033199 
L 275.331051 163.712909 
L 275.920955 160.654188 
L 276.296348 158.897399 
L 276.510859 158.577341 
L 276.671742 158.632607 
L 276.93988 159.157855 
L 277.208018 159.457424 
L 277.422528 159.376513 
L 277.690667 158.932791 
L 278.06606 157.779505 
L 278.602336 155.305338 
L 278.977729 153.789367 
L 279.19224 153.604528 
L 279.353123 153.759917 
L 280.050282 154.967969 
L 280.264792 154.823245 
L 280.53293 154.329838 
L 280.961951 152.947146 
L 281.766366 150.104546 
L 281.927248 150.174255 
L 282.141759 150.63564 
L 282.57078 151.749938 
L 282.78529 151.888465 
L 282.999801 151.77572 
L 283.267939 151.329423 
L 283.643332 150.230747 
L 284.447746 147.682132 
L 284.608629 147.806939 
L 284.82314 148.339945 
L 285.305788 149.667947 
L 285.573926 149.800462 
L 285.788437 149.63691 
L 286.110203 149.012336 
L 286.539224 147.605658 
L 287.021872 146.071786 
L 287.182755 146.062343 
L 287.343638 146.306958 
L 287.665404 147.402851 
L 287.987169 148.214539 
L 288.255307 148.402612 
L 288.469818 148.281997 
L 288.737956 147.841792 
L 289.166977 146.587834 
L 289.703253 144.939631 
L 289.864136 144.956434 
L 290.078646 145.368796 
L 290.829433 147.414953 
L 291.043943 147.43909 
L 291.258454 147.239567 
L 291.58022 146.582485 
L 292.062868 144.952493 
L 292.384634 144.174172 
L 292.545517 144.208762 
L 292.760027 144.644201 
L 293.510814 146.765669 
L 293.725324 146.809855 
L 293.939835 146.629764 
L 294.261601 146.000712 
L 294.690622 144.619215 
L 295.012387 143.702145 
L 295.17327 143.658692 
L 295.334153 143.876652 
L 295.602291 144.753162 
L 296.031312 146.117234 
L 296.29945 146.38589 
L 296.513961 146.327515 
L 296.782099 145.962424 
L 297.157492 144.997488 
L 298.069161 142.245211 
L 298.230044 142.41892 
L 298.659065 143.132542 
L 298.873576 143.144652 
L 299.141714 142.868669 
L 299.517107 142.029322 
L 300.053383 140.124309 
L 300.643287 137.998637 
L 300.80417 137.979573 
L 301.01868 138.352721 
L 301.340446 138.842312 
L 301.554957 138.877621 
L 301.823095 138.644383 
L 302.14486 138.021405 
L 302.627509 136.53266 
L 303.324668 134.19569 
L 303.485551 134.232641 
L 303.700061 134.682156 
L 304.021827 135.288873 
L 304.289965 135.399959 
L 304.558103 135.210284 
L 304.879869 134.651479 
L 305.362518 133.277652 
L 306.006049 131.371782 
L 306.166932 131.46537 
L 306.381442 131.989368 
L 306.756836 132.772216 
L 307.024974 132.907554 
L 307.293112 132.749885 
L 307.614878 132.237854 
L 308.097526 130.947281 
L 308.68743 129.393124 
L 308.848313 129.530225 
L 309.116451 130.284245 
L 309.491844 131.055821 
L 309.759982 131.193897 
L 310.02812 131.046439 
L 310.349886 130.554852 
L 310.832535 129.308107 
L 311.315183 128.045174 
L 311.476066 128.117664 
L 311.690577 128.640492 
L 312.119597 129.771633 
L 312.387736 130.018795 
L 312.655874 129.969086 
L 312.977639 129.581641 
L 313.40666 128.618395 
L 314.050192 127.115187 
L 314.211075 127.304399 
L 314.53284 128.315798 
L 314.908234 129.095625 
L 315.176372 129.24924 
L 315.44451 129.12389 
L 315.766275 128.665953 
L 316.248924 127.480909 
L 316.677945 126.487471 
L 316.838828 126.595957 
L 317.053338 127.16551 
L 317.482359 128.385879 
L 317.804125 128.708712 
L 318.072263 128.655977 
L 318.394029 128.273404 
L 318.82305 127.328298 
L 319.359326 126.062284 
L 319.520209 126.18065 
L 319.734719 126.763022 
L 320.16374 128.007853 
L 320.485506 128.348058 
L 320.753644 128.30919 
L 321.07541 127.942558 
L 321.504431 127.017574 
L 322.040707 125.774998 
L 322.20159 125.900047 
L 322.4161 126.491088 
L 323.220514 129.918075 
L 323.703163 133.967739 
L 324.45395 142.479564 
L 328.154255 188.05353 
L 329.602201 202.302713 
L 330.835636 213.880786 
L 331.908189 221.25352 
L 333.517017 232.400619 
L 334.267804 235.668842 
L 335.554867 242.466085 
L 336.14477 245.108428 
L 336.627419 246.225128 
L 337.324578 248.469926 
L 338.504386 253.171704 
L 338.772524 253.872067 
L 339.255172 254.354593 
L 339.737821 255.254249 
L 340.43498 257.068063 
L 341.507532 259.880685 
L 341.829298 259.904454 
L 342.204691 260.20336 
L 342.68734 260.920194 
L 343.384499 262.416776 
L 344.081658 263.97291 
L 344.886072 263.850769 
L 345.315093 264.251043 
L 345.904997 265.177244 
L 346.763039 266.745275 
L 346.816666 266.708822 
L 347.299315 266.319118 
L 347.621081 266.330713 
L 347.996474 266.565848 
L 348.53275 267.218974 
L 349.44442 268.618211 
L 349.498047 268.56712 
L 349.712558 268.008269 
L 350.034324 266.231016 
L 350.677855 262.232651 
L 351.160504 260.595819 
L 351.535897 259.949322 
L 351.857663 259.741318 
L 352.072173 259.603091 
L 352.286683 258.983256 
L 352.608449 257.17816 
L 353.466491 251.584174 
L 353.895512 250.297178 
L 354.270905 249.825563 
L 354.539043 249.790347 
L 354.753554 249.766818 
L 354.968064 249.276593 
L 355.28983 247.689457 
L 356.147872 242.771375 
L 356.523265 241.919366 
L 356.791403 241.704984 
L 357.059542 241.763533 
L 357.488562 242.049763 
L 357.649445 241.776545 
L 357.917583 240.752241 
L 358.882881 236.158481 
L 359.204646 235.733444 
L 359.472784 235.731289 
L 359.740922 235.996993 
L 360.223571 236.582439 
L 360.384454 236.334912 
L 360.652592 235.36836 
L 361.457006 231.849342 
L 361.778772 231.451126 
L 361.993282 231.457509 
L 362.26142 231.724284 
L 362.636814 232.500272 
L 362.904952 232.852926 
L 363.065835 232.689441 
L 363.280345 232.076592 
L 364.245642 228.576307 
L 364.51378 228.469056 
L 364.728291 228.614295 
L 365.050057 229.157168 
L 365.63996 230.307628 
L 365.800843 230.113584 
L 366.068981 229.248232 
L 366.712513 226.770196 
L 366.980651 226.450695 
L 367.195161 226.45657 
L 367.463299 226.743642 
L 367.838693 227.580607 
L 368.267714 228.590455 
L 368.428597 228.525194 
L 368.643107 228.039874 
L 369.608404 225.067599 
L 369.822915 225.062471 
L 370.091053 225.343513 
L 370.466446 226.184164 
L 371.002722 227.443563 
L 371.163605 227.315913 
L 371.378116 226.759752 
L 372.128902 224.24442 
L 372.39704 224.094872 
L 372.611551 224.225653 
L 372.933317 224.774287 
L 373.362337 226.039494 
L 373.630476 226.638786 
L 373.791358 226.618874 
L 374.005869 226.192392 
L 374.43489 224.451109 
L 374.756656 223.653373 
L 375.024794 223.453565 
L 375.239304 223.551895 
L 375.507442 223.950552 
L 375.882836 224.936602 
L 376.311856 226.10711 
L 376.472739 226.099569 
L 376.68725 225.689135 
L 377.009015 224.332986 
L 377.438036 222.553792 
L 377.759802 222.023823 
L 377.974313 221.990799 
L 378.188823 222.177115 
L 378.510589 222.807539 
L 379.046865 223.960935 
L 379.207748 223.820077 
L 379.422258 223.257458 
L 379.797652 221.454234 
L 380.173045 220.086265 
L 380.441183 219.689593 
L 380.655694 219.665004 
L 380.870204 219.865672 
L 381.19197 220.527027 
L 381.728246 221.751649 
L 381.889129 221.635852 
L 382.103639 221.108728 
L 382.479033 219.372251 
L 382.854426 218.075303 
L 383.122564 217.731144 
L 383.337074 217.749273 
L 383.605213 218.085819 
L 383.980606 219.045054 
L 384.355999 220.021937 
L 384.516882 220.024746 
L 384.731393 219.642607 
L 385.053158 218.355628 
L 385.482179 216.708991 
L 385.750317 216.326133 
L 385.964828 216.32233 
L 386.179338 216.551204 
L 386.501104 217.266601 
L 387.144635 218.856009 
L 387.305518 218.714665 
L 387.520029 218.164927 
L 388.378071 215.356917 
L 388.592581 215.319669 
L 388.807091 215.522278 
L 389.128857 216.209972 
L 389.826016 218.031831 
L 389.986899 217.909109 
L 390.20141 217.383591 
L 391.059451 214.665772 
L 391.273962 214.649479 
L 391.488472 214.872435 
L 391.810238 215.589543 
L 392.507397 217.470783 
L 392.66828 217.360962 
L 392.88279 216.852199 
L 393.740832 214.196531 
L 393.955343 214.194629 
L 394.169853 214.431542 
L 394.491619 215.1688 
L 395.242406 217.08465 
L 395.403289 216.902383 
L 395.671427 216.103424 
L 396.26133 214.049881 
L 396.529469 213.851017 
L 396.743979 213.982186 
L 397.012117 214.456061 
L 397.441138 215.802748 
L 397.762904 216.753615 
L 397.923787 216.829565 
L 398.084669 216.653224 
L 398.352808 215.863837 
L 398.942711 213.830081 
L 399.210849 213.639665 
L 399.42536 213.777359 
L 399.693498 214.259109 
L 400.122519 215.617773 
L 400.444285 216.577139 
L 400.605168 216.657193 
L 400.76605 216.484861 
L 401.034188 215.70195 
L 401.624092 213.681575 
L 401.89223 213.496873 
L 402.106741 213.638979 
L 402.374879 214.126052 
L 402.8039 215.492812 
L 403.125666 216.457924 
L 403.286548 216.540752 
L 403.447431 216.371129 
L 403.715569 215.592594 
L 404.090963 213.626475 
L 404.680866 210.4285 
L 405.002632 209.802232 
L 405.217143 209.760151 
L 405.431653 209.975188 
L 405.807046 210.438599 
L 405.967929 210.281567 
L 406.236067 209.544083 
L 406.611461 207.670824 
L 407.469503 202.926763 
L 407.737641 202.553983 
L 407.952151 202.603285 
L 408.220289 203.036496 
L 408.488427 203.386452 
L 408.64931 203.287285 
L 408.863821 202.828263 
L 409.185586 201.536063 
L 410.258139 196.553545 
L 410.472649 196.50796 
L 410.68716 196.759635 
L 411.330691 197.789573 
L 411.545202 197.46439 
L 411.866967 196.371651 
L 412.403244 193.419468 
L 412.725009 192.291844 
L 412.993147 192.021225 
L 413.15403 192.109164 
L 413.422168 192.616325 
L 413.958444 193.85607 
L 414.119327 193.79761 
L 414.333838 193.411907 
L 414.655603 192.264582 
L 415.460018 188.966809 
L 415.674528 188.889984 
L 415.889039 189.137144 
L 416.210804 190.026449 
L 416.586198 191.071677 
L 416.800708 191.124008 
L 417.015219 190.818271 
L 417.336984 189.786761 
L 418.141399 186.757697 
L 418.355909 186.747744 
L 418.57042 187.059847 
L 418.892185 188.043048 
L 419.267579 189.192647 
L 419.482089 189.302234 
L 419.6966 189.052064 
L 419.964738 188.302545 
L 420.876407 185.233734 
L 421.03729 185.293246 
L 421.251801 185.649954 
L 421.573566 186.697555 
L 421.94896 187.918616 
L 422.16347 188.067355 
L 422.324353 187.939456 
L 422.592491 187.327695 
L 422.967884 185.766776 
L 423.343278 184.428141 
L 423.557788 184.225879 
L 423.718671 184.308767 
L 423.933181 184.695809 
L 424.254947 185.787178 
L 424.63034 187.056775 
L 424.844851 187.232092 
L 425.005734 187.12359 
L 425.273872 186.543166 
L 425.649265 185.024117 
L 426.024659 183.725114 
L 426.239169 183.544552 
L 426.400052 183.643275 
L 426.66819 184.197703 
L 427.043583 185.645 
L 427.365349 186.559309 
L 427.579859 186.657468 
L 427.79437 186.405221 
L 428.062508 185.664497 
L 428.866922 183.090795 
L 429.027805 183.136363 
L 429.242316 183.482211 
L 429.564081 184.527934 
L 430.04673 186.168902 
L 430.26124 186.279125 
L 430.475751 186.038569 
L 430.743889 185.311954 
L 431.17291 183.341399 
L 432.245462 177.673067 
L 432.781738 176.944039 
L 433.157132 175.564072 
L 433.693408 172.584854 
L 434.926843 165.227661 
L 435.516747 164.480865 
L 435.89214 163.204279 
L 436.428416 160.517745 
L 437.500969 154.728988 
L 437.661852 154.632907 
L 438.037245 154.696475 
L 438.305383 154.32709 
L 438.680776 153.293904 
L 439.217053 151.014879 
L 440.128722 146.894761 
L 440.289605 146.871489 
L 440.879509 147.323363 
L 441.147647 147.009245 
L 441.52304 146.094827 
L 442.059316 144.049325 
L 442.756475 141.384774 
L 442.917358 141.394133 
L 443.131869 141.791796 
L 443.453634 142.293922 
L 443.668145 142.323518 
L 443.936283 142.069771 
L 444.258049 141.405703 
L 444.740697 139.828853 
L 445.384229 137.594018 
L 445.545112 137.598327 
L 445.759622 138.015261 
L 446.135015 138.836929 
L 446.403153 138.971057 
L 446.617664 138.84492 
L 446.93943 138.327181 
L 447.368451 137.139463 
L 448.119237 134.968854 
L 448.28012 135.125138 
L 448.601886 136.040705 
L 448.923652 136.62345 
L 449.19179 136.711121 
L 449.459928 136.495587 
L 449.781693 135.903217 
L 450.264342 134.475335 
L 450.693363 133.23628 
L 450.854246 133.247553 
L 451.068756 133.684219 
L 451.551405 134.990244 
L 451.819543 135.205302 
L 452.034053 135.147507 
L 452.302191 134.829634 
L 452.677585 134.003118 
L 453.481999 132.024259 
L 453.642882 132.248893 
L 454.500924 134.181952 
L 454.715434 134.155759 
L 454.983572 133.876024 
L 455.358966 133.100453 
L 456.16338 131.221787 
L 456.324263 131.465088 
L 457.182305 133.49061 
L 457.396815 133.485779 
L 457.664953 133.231822 
L 458.040347 132.490685 
L 458.576623 130.83139 
L 460.507217 123.365753 
L 462.652322 114.154642 
L 465.011937 105.5207 
L 466.406255 101.457785 
L 467.371552 98.839729 
L 468.175966 97.40164 
L 469.623912 94.253091 
L 469.999305 93.623697 
L 470.589209 93.040886 
L 471.447251 91.840406 
L 472.734314 89.979427 
L 473.27059 89.704798 
L 473.967749 89.069981 
L 475.040302 87.746491 
L 475.30844 87.518563 
L 475.791088 87.492869 
L 476.380992 87.215883 
L 477.185406 86.551422 
L 478.043448 85.856551 
L 478.526097 85.921007 
L 479.116001 85.752142 
L 479.866787 85.271557 
L 480.724829 84.727457 
L 481.207478 84.868822 
L 481.743754 84.803653 
L 482.440913 84.475137 
L 483.40621 83.985739 
L 483.567093 84.327298 
L 483.835231 85.606397 
L 484.210624 88.649276 
L 484.800528 95.663928 
L 485.65857 108.966854 
L 490.3778 187.122698 
L 491.718491 204.501976 
L 493.273692 221.211615 
L 494.453499 231.846685 
L 496.062328 243.767305 
L 497.13488 250.362141 
L 498.904592 259.255837 
L 499.816261 262.997059 
L 501.961366 270.225279 
L 502.497642 271.566724 
L 504.750002 276.504724 
L 505.768927 277.470531 
L 506.573341 278.036504 
L 507.431383 278.393062 
L 508.39668 278.423454 
L 509.630115 278.682273 
L 510.220019 278.689014 
L 510.380902 278.355314 
L 510.64904 277.106523 
L 511.024433 274.135529 
L 511.614337 267.286361 
L 512.526007 256.417297 
L 513.705814 246.031615 
L 514.617484 233.752893 
L 515.15376 228.117163 
L 515.690036 224.926471 
L 516.172685 221.281593 
L 516.869844 214.140434 
L 517.727886 205.406283 
L 518.103279 203.714268 
L 518.5323 202.287902 
L 518.961321 199.800347 
L 519.604852 194.582755 
L 520.355639 188.551988 
L 520.677405 187.577154 
L 520.945543 187.377144 
L 521.160053 187.060648 
L 521.481819 186.036127 
L 521.964468 183.509428 
L 523.197903 176.261915 
L 523.412413 176.167653 
L 523.841434 176.390288 
L 524.055945 176.093299 
L 524.37771 175.153836 
L 524.860359 172.85543 
L 525.718401 168.439901 
L 525.932911 168.286886 
L 526.093794 168.434324 
L 526.576443 169.130019 
L 526.790953 168.982272 
L 527.059091 168.426603 
L 527.434485 167.073089 
L 528.453409 162.866021 
L 528.614292 162.918284 
L 528.828803 163.325373 
L 529.257824 164.241141 
L 529.472334 164.243727 
L 529.686845 163.974994 
L 530.00861 163.138025 
L 530.491259 161.101715 
L 530.92028 159.340922 
L 531.13479 159.147389 
L 531.295673 159.285956 
L 531.563811 159.989241 
L 531.939205 160.934524 
L 532.153715 161.039106 
L 532.368225 160.869237 
L 532.636364 160.323577 
L 533.065384 158.817959 
L 533.655288 156.676007 
L 533.816171 156.633958 
L 533.977054 156.830958 
L 534.245192 157.628635 
L 534.620585 158.699981 
L 534.888724 158.872337 
L 535.103234 158.705803 
L 535.371372 158.172746 
L 535.800393 156.703318 
L 536.283042 154.995225 
L 536.443924 154.908788 
L 536.604807 155.06858 
L 536.872945 155.818539 
L 537.301966 157.190457 
L 537.570104 157.420894 
L 537.784615 157.299215 
L 538.052753 156.820283 
L 538.428146 155.642621 
L 538.964422 153.173562 
L 539.447071 151.028445 
L 539.661582 150.816925 
L 539.876092 150.655804 
L 540.197858 150.028832 
L 540.626879 148.609528 
L 541.27041 145.573679 
L 542.235707 140.963942 
L 542.718356 140.531613 
L 543.093749 139.650659 
L 543.630025 137.735749 
L 544.43444 133.908114 
L 544.809833 132.522093 
L 544.970716 132.44574 
L 545.292481 132.483647 
L 545.56062 132.224321 
L 545.936013 131.484656 
L 546.472289 129.84171 
L 547.544841 126.1489 
L 547.598469 126.166734 
L 548.081118 126.516658 
L 548.349256 126.364214 
L 548.671021 125.895802 
L 549.15367 124.73132 
L 549.850829 122.359586 
L 550.118967 121.736939 
L 550.27985 121.787495 
L 550.816126 122.441701 
L 551.084264 122.392493 
L 551.40603 122.051108 
L 551.835051 121.211302 
L 552.478582 119.3515 
L 552.74672 118.698451 
L 552.907603 118.716058 
L 553.175741 119.252268 
L 553.497507 119.665961 
L 553.765645 119.72181 
L 554.033783 119.557581 
L 554.409177 119.022846 
L 554.945453 117.783423 
L 555.481729 116.585345 
L 555.642612 116.753836 
L 556.232516 117.827811 
L 556.500654 117.908091 
L 556.768792 117.772896 
L 557.144185 117.28496 
L 557.680461 116.121431 
L 558.109482 115.176335 
L 558.270365 115.275356 
L 559.128407 116.684936 
L 559.396545 116.637039 
L 559.718311 116.331574 
L 560.147332 115.586508 
L 560.844491 114.220731 
L 561.005374 114.444107 
L 561.595277 115.708676 
L 561.917043 115.875306 
L 562.185181 115.778881 
L 562.560575 115.350495 
L 563.043223 114.406401 
L 563.472244 113.565544 
L 563.633127 113.702014 
L 563.901265 114.491253 
L 564.223031 116.214179 
L 564.705679 120.331324 
L 565.402838 128.560867 
L 566.636273 146.434665 
L 570.122069 196.192361 
L 571.730897 214.875377 
L 572.749822 224.607657 
L 574.251395 237.263916 
L 575.216692 243.877071 
L 576.825521 253.456747 
L 577.73719 257.825965 
L 579.614157 265.507878 
L 580.311316 267.728902 
L 582.617304 274.080574 
L 584.708781 277.416651 
L 585.298685 277.829806 
L 585.674078 277.876414 
L 587.980066 278.603481 
L 588.355459 278.483932 
L 588.891735 278.562293 
L 590.339681 278.765767 
L 590.661446 278.730065 
L 590.822329 278.392407 
L 591.090467 277.137704 
L 591.465861 274.159697 
L 592.055765 267.301948 
L 594.951656 226.631825 
L 595.970581 212.259398 
L 596.828623 202.94633 
L 598.759217 181.227788 
L 599.510003 175.426523 
L 601.440598 159.648381 
L 601.976874 157.128706 
L 602.781288 152.116398 
L 603.907468 145.043805 
L 604.497372 143.795513 
L 605.033648 141.792422 
L 605.838062 137.754932 
L 606.481594 134.659663 
L 606.696104 134.509582 
L 606.910615 134.450443 
L 607.178753 134.134128 
L 607.554146 133.314664 
L 608.090422 131.558939 
L 609.27023 127.389567 
L 609.752879 127.63804 
L 610.021017 127.433907 
L 610.39641 126.79379 
L 610.932686 125.326867 
L 611.897983 122.517324 
L 612.112494 122.824772 
L 612.434259 123.138 
L 612.702398 123.10667 
L 613.024163 122.778853 
L 613.453184 121.946149 
L 614.043088 120.256626 
L 614.472109 119.189807 
L 614.632992 119.297546 
L 615.169268 120.133926 
L 615.437406 120.171111 
L 615.705544 119.989015 
L 616.080937 119.430528 
L 616.617214 118.159548 
L 617.15349 116.932477 
L 617.314373 117.09273 
L 617.904277 118.138206 
L 618.172415 118.206361 
L 618.386925 118.251238 
L 618.601436 118.759008 
L 618.923201 120.366132 
L 619.40585 124.298753 
L 620.103009 132.230331 
L 620.585657 136.962796 
L 621.121934 140.038845 
L 621.604582 143.647341 
L 622.301741 150.815649 
L 623.320666 161.413684 
L 623.749687 163.300389 
L 624.178708 165.658242 
L 624.768612 170.297115 
L 626.055674 180.97058 
L 626.37744 181.650834 
L 626.645578 182.353785 
L 627.074599 184.293396 
L 627.664503 188.182175 
L 628.576173 194.444405 
L 628.844311 194.931198 
L 629.326959 195.152957 
L 629.648725 195.980051 
L 630.077746 197.825338 
L 630.721277 201.746725 
L 631.150298 204.005293 
L 631.418436 204.407829 
L 631.579319 204.324048 
L 631.954712 203.961009 
L 632.169223 204.123107 
L 632.437361 204.67135 
L 632.866382 206.204618 
L 633.456286 209.297076 
L 633.831679 210.80553 
L 634.04619 210.977469 
L 634.207072 210.819508 
L 634.743349 209.971644 
L 634.957859 210.080204 
L 635.225997 210.546014 
L 635.601391 211.710538 
L 636.191294 214.435786 
L 636.51306 215.419298 
L 636.673943 215.48443 
L 636.834826 215.300606 
L 637.585612 213.976755 
L 637.800123 214.144904 
L 638.121889 214.796405 
L 638.55091 216.269356 
L 639.194441 218.541205 
L 639.355324 218.533881 
L 639.569834 218.143648 
L 640.159738 216.695612 
L 640.374249 216.659601 
L 640.588759 216.859277 
L 640.910525 217.535898 
L 641.393173 219.230174 
L 641.822194 220.610967 
L 641.983077 220.642307 
L 642.14396 220.41907 
L 642.412098 219.563433 
L 642.787491 218.592051 
L 643.055629 218.435344 
L 643.27014 218.580169 
L 643.591906 219.177668 
L 644.020927 220.55007 
L 644.128182 220.977463 
L 644.128182 220.977463 
" clip-path="url(#paa8f7111c2)" style="fill: none; stroke: #ff4500; stroke-width: 1.5; stroke-linecap: square"/>
   </g>
   <g id="patch_3">
    <path d="M 52.94 288.67 
L 52.94 73.68 
" style="fill: none; stroke: #ff4500; stroke-width: 0.8; stroke-linejoin: miter; stroke-linecap: square"/>
   </g>
   <g id="patch_4">
    <path d="M 672.28 288.67 
L 672.28 73.68 
" style="fill: none; stroke: #000000; stroke-width: 0.8; stroke-linejoin: miter; stroke-linecap: square"/>
   </g>
   <g id="patch_5">
    <path d="M 52.94 288.67 
L 672.28 288.67 
" style="fill: none; stroke: #000000; stroke-width: 0.8; stroke-linejoin: miter; stroke-linecap: square"/>
   </g>
   <g id="patch_6">
    <path d="M 52.94 73.68 
L 672.28 73.68 
" style="fill: none; stroke: #808080; stroke-width: 0.8; stroke-linejoin: miter; stroke-linecap: square"/>
   </g>
   <g id="text_8">
    <!-- Output Voltage and Duty Cycle -->
    <g transform="translate(269.620312 67.68) scale(0.12 -0.12)">
     <defs>
      <path id="DejaVuSans-6e" d="M 3513 2113 
L 3513 0 
L 2938 0 
L 2938 2094 
Q 2938 2591 2744 2837 
Q 2550 3084 2163 3084 
Q 1697 3084 1428 2787 
Q 1159 2491 1159 1978 
L 1159 0 
L 581 0 
L 581 3500 
L 1159 3500 
L 1159 2956 
Q 1366 3272 1645 3428 
Q 1925 3584 2291 3584 
Q 2894 3584 3203 3211 
Q 3513 2838 3513 2113 
z
" transform="scale(0.015625)"/>
      <path id="DejaVuSans-64" d="M 2906 2969 
L 2906 4863 
L 3481 4863 
L 3481 0 
L 2906 0 
L 2906 525 
Q 2725 213 2448 61 
Q 2172 -91 1784 -91 
Q 1150 -91 751 415 
Q 353 922 353 1747 
Q 353 2572 751 3078 
Q 1150 3584 1784 3584 
Q 2172 3584 2448 3432 
Q 2725 3281 2906 2969 
z
M 947 1747 
Q 947 1113 1208 752 
Q 1469 391 1925 391 
Q 2381 391 2643 752 
Q 2906 1113 2906 1747 
Q 2906 2381 2643 2742 
Q 2381 3103 1925 3103 
Q 1469 3103 1208 2742 
Q 947 2381 947 1747 
z
" transform="scale(0.015625)"/>
      <path id="DejaVuSans-44" d="M 1259 4147 
L 1259 519 
L 2022 519 
Q 2988 519 3436 956 
Q 3884 1394 3884 2338 
Q 3884 3275 3436 3711 
Q 2988 4147 2022 4147 
L 1259 4147 
z
M 628 4666 
L 1925 4666 
Q 3281 4666 3915 4102 
Q 4550 3538 4550 2338 
Q 4550 1131 3912 565 
Q 3275 0 1925 0 
L 628 0 
L 628 4666 
z
" transform="scale(0.015625)"/>
      <path id="DejaVuSans-79" d="M 2059 -325 
Q 1816 -950 1584 -1140 
Q 1353 -1331 966 -1331 
L 506 -1331 
L 506 -850 
L 844 -850 
Q 1081 -850 1212 -737 
Q 1344 -625 1503 -206 
L 1606 56 
L 191 3500 
L 800 3500 
L 1894 763 
L 2988 3500 
L 3597 3500 
L 2059 -325 
z
" transform="scale(0.015625)"/>
      <path id="DejaVuSans-43" d="M 4122 4306 
L 4122 3641 
Q 3803 3938 3442 4084 
Q 3081 4231 2675 4231 
Q 1875 4231 1450 3742 
Q 1025 3253 1025 2328 
Q 1025 1406 1450 917 
Q 1875 428 2675 428 
Q 3081 428 3442 575 
Q 3803 722 4122 1019 
L 4122 359 
Q 3791 134 3420 21 
Q 3050 -91 2638 -91 
Q 1578 -91 968 557 
Q 359 1206 359 2328 
Q 359 3453 968 4101 
Q 1578 4750 2638 4750 
Q 3056 4750 3426 4639 
Q 3797 4528 4122 4306 
z
" transform="scale(0.015625)"/>
      <path id="DejaVuSans-63" d="M 3122 3366 
L 3122 2828 
Q 2878 2963 2633 3030 
Q 2388 3097 2138 3097 
Q 1578 3097 1268 2742 
Q 959 2388 959 1747 
Q 959 1106 1268 751 
Q 1578 397 2138 397 
Q 2388 397 2633 464 
Q 2878 531 3122 666 
L 3122 134 
Q 2881 22 2623 -34 
Q 2366 -91 2075 -91 
Q 1284 -91 818 406 
Q 353 903 353 1747 
Q 353 2603 823 3093 
Q 1294 3584 2113 3584 
Q 2378 3584 2631 3529 
Q 2884 3475 3122 3366 
z
" transform="scale(0.015625)"/>
     </defs>
     <use xlink:href="#DejaVuSans-4f"/>
     <use xlink:href="#DejaVuSans-75" x="78.710938"/>
     <use xlink:href="#DejaVuSans-74" x="142.089844"/>
     <use xlink:href="#DejaVuSans-70" x="181.298828"/>
     <use xlink:href="#DejaVuSans-75" x="244.775391"/>
     <use xlink:href="#DejaVuSans-74" x="308.154297"/>
     <use xlink:href="#DejaVuSans-20" x="347.363281"/>
     <use xlink:href="#DejaVuSans-56" x="379.150391"/>
     <use xlink:href="#DejaVuSans-6f" x="439.808594"/>
     <use xlink:href="#DejaVuSans-6c" x="500.990234"/>
     <use xlink:href="#DejaVuSans-74" x="528.773438"/>
     <use xlink:href="#DejaVuSans-61" x="567.982422"/>
     <use xlink:href="#DejaVuSans-67" x="629.261719"/>
     <use xlink:href="#DejaVuSans-65" x="692.738281"/>
     <use xlink:href="#DejaVuSans-20" x="754.261719"/>
     <use xlink:href="#DejaVuSans-61" x="786.048828"/>
     <use xlink:href="#DejaVuSans-6e" x="847.328125"/>
     <use xlink:href="#DejaVuSans-64" x="910.707031"/>
     <use xlink:href="#DejaVuSans-20" x="974.183594"/>
     <use xlink:href="#DejaVuSans-44" x="1005.970703"/>
     <use xlink:href="#DejaVuSans-75" x="1082.972656"/>
     <use xlink:href="#DejaVuSans-74" x="1146.351562"/>
     <use xlink:href="#DejaVuSans-79" x="1185.560547"/>
     <use xlink:href="#DejaVuSans-20" x="1244.740234"/>
     <use xlink:href="#DejaVuSans-43" x="1276.527344"/>
     <use xlink:href="#DejaVuSans-79" x="1346.351562"/>
     <use xlink:href="#DejaVuSans-63" x="1405.53125"/>
     <use xlink:href="#DejaVuSans-6c" x="1460.511719"/>
     <use xlink:href="#DejaVuSans-65" x="1488.294922"/>
    </g>
   </g>
  </g>
  <g id="axes_2">
   <g id="patch_7">
    <path d="M 52.94 534.04 
L 672.28 534.04 
L 672.28 319.05 
L 52.94 319.05 
z
" style="fill: #ffffff"/>
   </g>
   <g id="matplotlib.axis_3">
    <g id="xtick_7">
     <g id="line2d_14">
      <g>
       <use xlink:href="#mc29439df86" x="81.091818" y="534.04" style="stroke: #000000; stroke-width: 0.8"/>
      </g>
     </g>
     <g id="text_9">
      <!-- 0.00 -->
      <g transform="translate(69.959006 548.638438) scale(0.1 -0.1)">
       <defs>
        <path id="DejaVuSans-2e" d="M 684 794 
L 1344 794 
L 1344 0 
L 684 0 
L 684 794 
z
" transform="scale(0.015625)"/>
       </defs>
       <use xlink:href="#DejaVuSans-30"/>
       <use xlink:href="#DejaVuSans-2e" x="63.623047"/>
       <use xlink:href="#DejaVuSans-30" x="95.410156"/>
       <use xlink:href="#DejaVuSans-30" x="159.033203"/>
      </g>
     </g>
    </g>
    <g id="xtick_8">
     <g id="line2d_15">
      <g>
       <use xlink:href="#mc29439df86" x="188.347055" y="534.04" style="stroke: #000000; stroke-width: 0.8"/>
      </g>
     </g>
     <g id="text_10">
      <!-- 0.02 -->
      <g transform="translate(177.214242 548.638438) scale(0.1 -0.1)">
       <use xlink:href="#DejaVuSans-30"/>
       <use xlink:href="#DejaVuSans-2e" x="63.623047"/>
       <use xlink:href="#DejaVuSans-30" x="95.410156"/>
       <use xlink:href="#DejaVuSans-32" x="159.033203"/>
      </g>
     </g>
    </g>
    <g id="xtick_9">
     <g id="line2d_16">
      <g>
       <use xlink:href="#mc29439df86" x="295.602291" y="534.04" style="stroke: #000000; stroke-width: 0.8"/>
      </g>
     </g>
     <g id="text_11">
      <!-- 0.04 -->
      <g transform="translate(284.469479 548.638438) scale(0.1 -0.1)">
       <use xlink:href="#DejaVuSans-30"/>
       <use xlink:href="#DejaVuSans-2e" x="63.623047"/>
       <use xlink:href="#DejaVuSans-30" x="95.410156"/>
       <use xlink:href="#DejaVuSans-34" x="159.033203"/>
      </g>
     </g>
    </g>
    <g id="xtick_10">
     <g id="line2d_17">
      <g>
       <use xlink:href="#mc29439df86" x="402.857527" y="534.04" style="stroke: #000000; stroke-width: 0.8"/>
      </g>
     </g>
     <g id="text_12">
      <!-- 0.06 -->
      <g transform="translate(391.724715 548.638438) scale(0.1 -0.1)">
       <use xlink:href="#DejaVuSans-30"/>
       <use xlink:href="#DejaVuSans-2e" x="63.623047"/>
       <use xlink:href="#DejaVuSans-30" x="95.410156"/>
       <use xlink:href="#DejaVuSans-36" x="159.033203"/>
      </g>
     </g>
    </g>
    <g id="xtick_11">
     <g id="line2d_18">
      <g>
       <use xlink:href="#mc29439df86" x="510.112764" y="534.04" style="stroke: #000000; stroke-width: 0.8"/>
      </g>
     </g>
     <g id="text_13">
      <!-- 0.08 -->
      <g transform="translate(498.979951 548.638438) scale(0.1 -0.1)">
       <use xlink:href="#DejaVuSans-30"/>
       <use xlink:href="#DejaVuSans-2e" x="63.623047"/>
       <use xlink:href="#DejaVuSans-30" x="95.410156"/>
       <use xlink:href="#DejaVuSans-38" x="159.033203"/>
      </g>
     </g>
    </g>
    <g id="xtick_12">
     <g id="line2d_19">
      <g>
       <use xlink:href="#mc29439df86" x="617.368" y="534.04" style="stroke: #000000; stroke-width: 0.8"/>
      </g>
     </g>
     <g id="text_14">
      <!-- 0.10 -->
      <g transform="translate(606.235188 548.638438) scale(0.1 -0.1)">
       <use xlink:href="#DejaVuSans-30"/>
       <use xlink:href="#DejaVuSans-2e" x="63.623047"/>
       <use xlink:href="#DejaVuSans-31" x="95.410156"/>
       <use xlink:href="#DejaVuSans-30" x="159.033203"/>
      </g>
     </g>
    </g>
    <g id="text_15">
     <!-- Time -->
     <g transform="translate(350.376406 562.316563) scale(0.1 -0.1)">
      <defs>
       <path id="DejaVuSans-54" d="M -19 4666 
L 3928 4666 
L 3928 4134 
L 2272 4134 
L 2272 0 
L 1638 0 
L 1638 4134 
L -19 4134 
L -19 4666 
z
" transform="scale(0.015625)"/>
       <path id="DejaVuSans-69" d="M 603 3500 
L 1178 3500 
L 1178 0 
L 603 0 
L 603 3500 
z
M 603 4863 
L 1178 4863 
L 1178 4134 
L 603 4134 
L 603 4863 
z
" transform="scale(0.015625)"/>
       <path id="DejaVuSans-6d" d="M 3328 2828 
Q 3544 3216 3844 3400 
Q 4144 3584 4550 3584 
Q 5097 3584 5394 3201 
Q 5691 2819 5691 2113 
L 5691 0 
L 5113 0 
L 5113 2094 
Q 5113 2597 4934 2840 
Q 4756 3084 4391 3084 
Q 3944 3084 3684 2787 
Q 3425 2491 3425 1978 
L 3425 0 
L 2847 0 
L 2847 2094 
Q 2847 2600 2669 2842 
Q 2491 3084 2119 3084 
Q 1678 3084 1418 2786 
Q 1159 2488 1159 1978 
L 1159 0 
L 581 0 
L 581 3500 
L 1159 3500 
L 1159 2956 
Q 1356 3278 1631 3431 
Q 1906 3584 2284 3584 
Q 2666 3584 2933 3390 
Q 3200 3197 3328 2828 
z
" transform="scale(0.015625)"/>
      </defs>
      <use xlink:href="#DejaVuSans-54"/>
      <use xlink:href="#DejaVuSans-69" x="57.958984"/>
      <use xlink:href="#DejaVuSans-6d" x="85.742188"/>
      <use xlink:href="#DejaVuSans-65" x="183.154297"/>
     </g>
    </g>
   </g>
   <g id="matplotlib.axis_4">
    <g id="ytick_7">
     <g id="line2d_20">
      <defs>
       <path id="m39ab8e2681" d="M 0 0 
L -3.5 0 
" style="stroke: #008000; stroke-width: 0.8"/>
      </defs>
      <g>
       <use xlink:href="#m39ab8e2681" x="52.94" y="524.2853" style="fill: #008000; stroke: #008000; stroke-width: 0.8"/>
      </g>
     </g>
     <g id="text_16">
      <!-- 60 -->
      <g style="fill: #008000" transform="translate(24.835313 528.084519) scale(0.1 -0.1)">
       <defs>
        <path id="DejaVuSans-2212" d="M 678 2272 
L 4684 2272 
L 4684 1741 
L 678 1741 
L 678 2272 
z
" transform="scale(0.015625)"/>
       </defs>
       <use xlink:href="#DejaVuSans-2212"/>
       <use xlink:href="#DejaVuSans-36" x="83.789062"/>
       <use xlink:href="#DejaVuSans-30" x="147.412109"/>
      </g>
     </g>
    </g>
    <g id="ytick_8">
     <g id="line2d_21">
      <g>
       <use xlink:href="#m39ab8e2681" x="52.94" y="491.617408" style="fill: #008000; stroke: #008000; stroke-width: 0.8"/>
      </g>
     </g>
     <g id="text_17">
      <!-- 50 -->
      <g style="fill: #008000" transform="translate(24.835313 495.416627) scale(0.1 -0.1)">
       <defs>
        <path id="DejaVuSans-35" d="M 691 4666 
L 3169 4666 
L 3169 4134 
L 1269 4134 
L 1269 2991 
Q 1406 3038 1543 3061 
Q 1681 3084 1819 3084 
Q 2600 3084 3056 2656 
Q 3513 2228 3513 1497 
Q 3513 744 3044 326 
Q 2575 -91 1722 -91 
Q 1428 -91 1123 -41 
Q 819 9 494 109 
L 494 744 
Q 775 591 1075 516 
Q 1375 441 1709 441 
Q 2250 441 2565 725 
Q 2881 1009 2881 1497 
Q 2881 1984 2565 2268 
Q 2250 2553 1709 2553 
Q 1456 2553 1204 2497 
Q 953 2441 691 2322 
L 691 4666 
z
" transform="scale(0.015625)"/>
       </defs>
       <use xlink:href="#DejaVuSans-2212"/>
       <use xlink:href="#DejaVuSans-35" x="83.789062"/>
       <use xlink:href="#DejaVuSans-30" x="147.412109"/>
      </g>
     </g>
    </g>
    <g id="ytick_9">
     <g id="line2d_22">
      <g>
       <use xlink:href="#m39ab8e2681" x="52.94" y="458.949516" style="fill: #008000; stroke: #008000; stroke-width: 0.8"/>
      </g>
     </g>
     <g id="text_18">
      <!-- 40 -->
      <g style="fill: #008000" transform="translate(24.835313 462.748734) scale(0.1 -0.1)">
       <use xlink:href="#DejaVuSans-2212"/>
       <use xlink:href="#DejaVuSans-34" x="83.789062"/>
       <use xlink:href="#DejaVuSans-30" x="147.412109"/>
      </g>
     </g>
    </g>
    <g id="ytick_10">
     <g id="line2d_23">
      <g>
       <use xlink:href="#m39ab8e2681" x="52.94" y="426.281623" style="fill: #008000; stroke: #008000; stroke-width: 0.8"/>
      </g>
     </g>
     <g id="text_19">
      <!-- 30 -->
      <g style="fill: #008000" transform="translate(24.835313 430.080842) scale(0.1 -0.1)">
       <defs>
        <path id="DejaVuSans-33" d="M 2597 2516 
Q 3050 2419 3304 2112 
Q 3559 1806 3559 1356 
Q 3559 666 3084 287 
Q 2609 -91 1734 -91 
Q 1441 -91 1130 -33 
Q 819 25 488 141 
L 488 750 
Q 750 597 1062 519 
Q 1375 441 1716 441 
Q 2309 441 2620 675 
Q 2931 909 2931 1356 
Q 2931 1769 2642 2001 
Q 2353 2234 1838 2234 
L 1294 2234 
L 1294 2753 
L 1863 2753 
Q 2328 2753 2575 2939 
Q 2822 3125 2822 3475 
Q 2822 3834 2567 4026 
Q 2313 4219 1838 4219 
Q 1578 4219 1281 4162 
Q 984 4106 628 3988 
L 628 4550 
Q 988 4650 1302 4700 
Q 1616 4750 1894 4750 
Q 2613 4750 3031 4423 
Q 3450 4097 3450 3541 
Q 3450 3153 3228 2886 
Q 3006 2619 2597 2516 
z
" transform="scale(0.015625)"/>
       </defs>
       <use xlink:href="#DejaVuSans-2212"/>
       <use xlink:href="#DejaVuSans-33" x="83.789062"/>
       <use xlink:href="#DejaVuSans-30" x="147.412109"/>
      </g>
     </g>
    </g>
    <g id="ytick_11">
     <g id="line2d_24">
      <g>
       <use xlink:href="#m39ab8e2681" x="52.94" y="393.613731" style="fill: #008000; stroke: #008000; stroke-width: 0.8"/>
      </g>
     </g>
     <g id="text_20">
      <!-- 20 -->
      <g style="fill: #008000" transform="translate(24.835313 397.41295) scale(0.1 -0.1)">
       <use xlink:href="#DejaVuSans-2212"/>
       <use xlink:href="#DejaVuSans-32" x="83.789062"/>
       <use xlink:href="#DejaVuSans-30" x="147.412109"/>
      </g>
     </g>
    </g>
    <g id="ytick_12">
     <g id="line2d_25">
      <g>
       <use xlink:href="#m39ab8e2681" x="52.94" y="360.945839" style="fill: #008000; stroke: #008000; stroke-width: 0.8"/>
      </g>
     </g>
     <g id="text_21">
      <!-- 10 -->
      <g style="fill: #008000" transform="translate(24.835313 364.745058) scale(0.1 -0.1)">
       <use xlink:href="#DejaVuSans-2212"/>
       <use xlink:href="#DejaVuSans-31" x="83.789062"/>
       <use xlink:href="#DejaVuSans-30" x="147.412109"/>
      </g>
     </g>
    </g>
    <g id="ytick_13">
     <g id="line2d_26">
      <g>
       <use xlink:href="#m39ab8e2681" x="52.94" y="328.277947" style="fill: #008000; stroke: #008000; stroke-width: 0.8"/>
      </g>
     </g>
     <g id="text_22">
      <!-- 0 -->
      <g style="fill: #008000" transform="translate(39.5775 332.077166) scale(0.1 -0.1)">
       <use xlink:href="#DejaVuSans-30"/>
      </g>
     </g>
    </g>
    <g id="text_23">
     <!-- Cost -->
     <g style="fill: #008000" transform="translate(18.755625 437.660625) rotate(-90) scale(0.1 -0.1)">
      <defs>
       <path id="DejaVuSans-73" d="M 2834 3397 
L 2834 2853 
Q 2591 2978 2328 3040 
Q 2066 3103 1784 3103 
Q 1356 3103 1142 2972 
Q 928 2841 928 2578 
Q 928 2378 1081 2264 
Q 1234 2150 1697 2047 
L 1894 2003 
Q 2506 1872 2764 1633 
Q 3022 1394 3022 966 
Q 3022 478 2636 193 
Q 2250 -91 1575 -91 
Q 1294 -91 989 -36 
Q 684 19 347 128 
L 347 722 
Q 666 556 975 473 
Q 1284 391 1588 391 
Q 1994 391 2212 530 
Q 2431 669 2431 922 
Q 2431 1156 2273 1281 
Q 2116 1406 1581 1522 
L 1381 1569 
Q 847 1681 609 1914 
Q 372 2147 372 2553 
Q 372 3047 722 3315 
Q 1072 3584 1716 3584 
Q 2034 3584 2315 3537 
Q 2597 3491 2834 3397 
z
" transform="scale(0.015625)"/>
      </defs>
      <use xlink:href="#DejaVuSans-43"/>
      <use xlink:href="#DejaVuSans-6f" x="69.824219"/>
      <use xlink:href="#DejaVuSans-73" x="131.005859"/>
      <use xlink:href="#DejaVuSans-74" x="183.105469"/>
     </g>
    </g>
   </g>
   <g id="line2d_27">
    <path d="M 81.091818 524.267727 
L 81.252701 511.647328 
L 81.467212 509.856419 
L 81.788977 504.69259 
L 82.271626 492.743315 
L 82.915157 477.177361 
L 83.451433 469.696563 
L 84.363103 459.507738 
L 84.953007 446.549099 
L 85.54291 434.39053 
L 86.025559 428.95196 
L 86.400952 426.754421 
L 86.66909 425.500993 
L 86.990856 422.473799 
L 87.473505 415.418611 
L 88.224291 404.058108 
L 88.653312 401.079793 
L 88.975078 400.164471 
L 89.404099 399.572855 
L 89.672237 398.05217 
L 90.101258 393.89573 
L 90.9593 384.947214 
L 91.281066 383.729151 
L 91.495576 383.463236 
L 91.656459 383.509831 
L 92.031852 383.920104 
L 92.08548 383.866532 
L 92.29999 383.280546 
L 92.621756 381.435932 
L 93.104405 377.072377 
L 93.479798 374.27623 
L 93.801564 373.167935 
L 94.016074 372.959153 
L 94.176957 373.041167 
L 94.391467 373.432623 
L 94.766861 374.204352 
L 94.927744 374.060777 
L 95.142254 373.427059 
L 95.46402 371.681339 
L 96.268434 366.708098 
L 96.536572 366.31218 
L 96.697455 366.351151 
L 96.911966 366.685426 
L 97.555497 368.19946 
L 97.609125 368.167892 
L 97.770007 367.89604 
L 98.038146 366.916634 
L 98.467166 364.291248 
L 98.84256 362.505845 
L 99.110698 362.063432 
L 99.271581 362.073299 
L 99.486091 362.367166 
L 99.807857 363.335776 
L 100.129623 364.330159 
L 100.290506 364.41737 
L 100.451388 364.243574 
L 100.719526 363.446718 
L 101.09492 361.471208 
L 101.470313 359.738201 
L 101.738451 359.306842 
L 101.899334 359.318506 
L 102.113845 359.609838 
L 102.43561 360.566032 
L 102.864631 361.931676 
L 103.025514 361.985507 
L 103.186397 361.794468 
L 103.454535 361.001173 
L 104.366204 357.517867 
L 104.527087 357.50998 
L 104.741598 357.774448 
L 105.063364 358.688751 
L 105.59964 360.386993 
L 105.760523 360.394125 
L 105.975033 360.047423 
L 106.296799 358.882513 
L 106.886703 356.495362 
L 107.101213 356.309671 
L 107.262096 356.390126 
L 107.476606 356.7576 
L 107.798372 357.8013 
L 108.870924 362.786561 
L 109.514456 367.796612 
L 110.372498 376.430141 
L 111.44505 387.187685 
L 112.57123 400.103012 
L 113.858293 414.69947 
L 115.091728 427.766539 
L 116.378791 441.000165 
L 117.344088 448.876512 
L 119.060172 463.170319 
L 119.810959 467.441599 
L 120.990766 475.69542 
L 121.527042 479.089417 
L 121.956063 480.272135 
L 122.545967 482.646543 
L 123.457637 487.402434 
L 124.208423 491.189394 
L 124.476561 491.423534 
L 124.851955 492.127837 
L 125.388231 493.723642 
L 126.139017 496.756374 
L 126.836177 499.686465 
L 126.889804 499.664045 
L 127.157942 499.576425 
L 127.42608 499.735665 
L 127.801474 500.300172 
L 128.284122 501.485743 
L 128.981281 503.840239 
L 129.517557 505.594504 
L 130.000206 505.148779 
L 130.268344 505.229183 
L 130.59011 505.584327 
L 131.019131 506.41109 
L 131.823545 508.598281 
L 132.145311 509.16352 
L 132.359821 508.541393 
L 132.735215 507.727484 
L 133.05698 507.472413 
L 133.325118 507.515885 
L 133.646884 507.8222 
L 134.075905 508.577959 
L 134.773064 509.935423 
L 134.880319 509.791529 
L 135.041202 508.828215 
L 135.30934 505.467519 
L 135.738361 496.439924 
L 136.381893 477.365701 
L 139.170529 388.328449 
L 140.082198 367.690075 
L 140.886612 354.312109 
L 141.691027 344.255845 
L 142.441813 337.547652 
L 143.085345 333.669975 
L 143.728876 331.11146 
L 144.265152 329.763999 
L 144.747801 329.079721 
L 145.176822 328.835454 
L 145.391332 328.911101 
L 145.820353 329.064158 
L 146.303002 329.482568 
L 146.892906 330.29505 
L 147.69732 331.830892 
L 149.520659 336.047681 
L 153.220965 345.180856 
L 153.918124 346.596343 
L 156.92127 351.975455 
L 159.441768 355.364554 
L 160.675204 356.680872 
L 161.747756 357.764408 
L 162.33766 357.935992 
L 162.498543 357.525818 
L 162.766681 356.137563 
L 163.195702 352.544856 
L 164.965413 335.857911 
L 166.145221 330.30581 
L 166.574242 329.246771 
L 166.84238 328.995873 
L 166.896007 328.986496 
L 167.110518 329.213916 
L 167.593166 329.729454 
L 167.96856 330.37807 
L 168.397581 331.583591 
L 168.880229 333.640074 
L 169.470133 337.254645 
L 170.167292 341.528065 
L 170.757196 344.12891 
L 171.3471 347.950218 
L 172.097886 354.4408 
L 172.68779 359.392417 
L 173.063183 360.716194 
L 173.438577 362.319745 
L 173.974853 365.712474 
L 174.672012 371.683413 
L 175.369171 377.431494 
L 175.637309 377.949535 
L 175.85182 378.247989 
L 176.173585 379.250282 
L 176.602606 381.452193 
L 177.19251 385.76397 
L 178.050552 392.173781 
L 178.211435 392.29262 
L 178.586828 392.076579 
L 178.801339 392.388572 
L 179.123104 393.405922 
L 179.552125 395.616123 
L 180.142029 399.900593 
L 180.624678 403.132307 
L 180.78556 403.304093 
L 180.946443 403.019638 
L 181.268209 402.331353 
L 181.429092 402.305672 
L 181.643602 402.566433 
L 181.91174 403.30888 
L 182.340761 405.302524 
L 182.930665 409.311014 
L 183.252431 411.190836 
L 183.413314 411.347788 
L 183.574197 411.012645 
L 184.003218 409.62219 
L 184.217728 409.492067 
L 184.378611 409.620692 
L 184.646749 410.212874 
L 185.022142 411.71831 
L 185.558418 414.956376 
L 185.933812 417.00348 
L 186.041067 417.079399 
L 186.094695 417.029204 
L 186.255578 416.549526 
L 186.738226 414.665244 
L 186.952737 414.463872 
L 187.113619 414.541514 
L 187.32813 414.915009 
L 187.649896 415.978121 
L 188.132544 418.498026 
L 188.615193 421.050354 
L 188.722448 421.064758 
L 188.883331 420.647761 
L 189.151469 418.917657 
L 189.526862 414.730114 
L 190.438532 403.604775 
L 190.813925 401.897057 
L 191.403829 400.329586 
L 191.725595 397.793138 
L 192.261871 391.384246 
L 192.95903 382.903051 
L 193.334423 380.87899 
L 193.602561 380.323308 
L 193.924327 380.060735 
L 194.138837 379.3203 
L 194.514231 376.952371 
L 195.050507 371.896908 
L 195.586783 367.149113 
L 195.908549 365.892276 
L 196.176687 365.57488 
L 196.33757 365.653192 
L 196.605708 365.844555 
L 196.766591 365.64298 
L 197.034729 364.800244 
L 197.410122 362.763089 
L 198.429047 356.580089 
L 198.697185 356.290403 
L 198.858068 356.369106 
L 199.126206 356.846555 
L 199.340716 357.09763 
L 199.501599 357.022178 
L 199.71611 356.613298 
L 200.037875 355.446583 
L 200.574152 352.462681 
L 200.949545 350.915999 
L 201.217683 350.55673 
L 201.432193 350.63172 
L 201.700332 351.114657 
L 202.075725 351.81458 
L 202.236608 351.796443 
L 202.451118 351.500187 
L 202.772884 350.565636 
L 203.791809 346.999788 
L 204.006319 347.03477 
L 204.22083 347.338651 
L 204.917989 348.599013 
L 205.132499 348.418424 
L 205.400637 347.841106 
L 205.829658 346.291937 
L 206.205051 345.013341 
L 206.47319 344.735697 
L 206.6877 344.836826 
L 206.955838 345.311918 
L 207.545742 346.566768 
L 207.760252 346.523102 
L 208.02839 346.118622 
L 208.403784 345.032644 
L 208.94006 343.429303 
L 209.15457 343.301577 
L 209.369081 343.44223 
L 209.637219 343.949583 
L 210.227123 345.265728 
L 210.441633 345.2636 
L 210.656144 345.017642 
L 210.977909 344.270798 
L 211.675069 342.425218 
L 211.889579 342.399771 
L 212.104089 342.624376 
L 212.425855 343.374572 
L 212.854876 344.377487 
L 213.069387 344.466452 
L 213.283897 344.308714 
L 213.605663 343.685376 
L 214.410077 341.788702 
L 214.624588 341.847254 
L 214.892726 342.250113 
L 215.750768 343.932331 
L 215.965278 343.794493 
L 216.287044 343.206638 
L 216.769692 341.692809 
L 218.217638 336.638635 
L 219.397446 333.221725 
L 220.255487 331.122211 
L 220.630881 330.68443 
L 221.971571 329.671754 
L 222.507847 329.539259 
L 223.473145 329.780932 
L 224.223931 330.103238 
L 224.92109 330.664851 
L 226.208153 331.84653 
L 226.798057 332.273484 
L 227.495216 333.068503 
L 228.675024 334.529874 
L 229.104044 334.659227 
L 229.640321 335.071179 
L 230.33748 335.933405 
L 231.249149 337.126466 
L 231.67817 337.053148 
L 232.107191 337.216298 
L 232.643467 337.679337 
L 233.340626 338.60838 
L 233.823275 339.241477 
L 234.037785 339.126443 
L 234.413179 338.986897 
L 234.8422 339.075316 
L 235.324848 339.41926 
L 235.96838 340.181589 
L 236.504656 340.827265 
L 236.719166 340.654134 
L 237.148187 340.407177 
L 237.577208 340.444063 
L 238.059857 340.743088 
L 238.64976 341.387266 
L 239.186037 341.97423 
L 239.400547 341.757689 
L 239.829568 341.432025 
L 240.204961 341.397215 
L 240.633982 341.577689 
L 241.170259 342.057401 
L 241.921045 342.751804 
L 242.618204 342.114603 
L 243.047225 342.112263 
L 243.583501 342.219498 
L 243.798012 341.804665 
L 244.119778 340.608033 
L 244.763309 337.055838 
L 245.245958 335.099774 
L 245.674978 334.162362 
L 246.157627 333.63304 
L 246.479393 333.103524 
L 247.176552 331.340464 
L 247.6592 330.369161 
L 248.088221 330.035134 
L 248.678125 329.912645 
L 249.91156 329.959639 
L 251.359506 330.776931 
L 251.734899 330.832112 
L 252.110293 331.134537 
L 252.539314 331.822626 
L 253.343728 333.355265 
L 253.719121 333.553213 
L 254.040887 333.470051 
L 254.362653 333.374296 
L 254.630791 333.547891 
L 254.952556 334.039757 
L 255.381577 335.165741 
L 255.864226 336.335553 
L 256.185992 336.619376 
L 256.45413 336.585724 
L 256.775895 336.278561 
L 257.044034 336.072276 
L 257.258544 336.137103 
L 257.526682 336.471769 
L 257.902075 337.371256 
L 258.545607 339.117241 
L 258.813745 339.316621 
L 259.081883 339.221658 
L 259.403649 338.788352 
L 259.725414 338.348038 
L 259.939925 338.34771 
L 260.208063 338.642843 
L 260.529829 339.382856 
L 261.280615 341.347866 
L 261.548753 341.413945 
L 261.816892 341.168508 
L 262.192285 340.424193 
L 262.460423 340.058722 
L 262.674933 340.063092 
L 262.943072 340.383903 
L 263.264837 341.178567 
L 263.908369 342.90074 
L 264.122879 342.995098 
L 264.33739 342.863458 
L 264.659155 342.311361 
L 265.195432 341.294406 
L 265.409942 341.321883 
L 265.67808 341.681114 
L 266.053473 342.717794 
L 266.482494 343.925206 
L 266.750632 344.124801 
L 266.965143 344.00899 
L 267.233281 343.573944 
L 267.984068 342.160403 
L 268.198578 342.285782 
L 268.466716 342.761533 
L 268.895737 344.126125 
L 269.217503 344.817135 
L 269.432013 344.922329 
L 269.646524 344.779421 
L 269.96829 344.175329 
L 270.450938 342.622475 
L 270.987214 340.949347 
L 271.255352 340.776066 
L 271.469863 340.915774 
L 271.738001 341.097919 
L 271.952511 341.013872 
L 272.274277 340.561151 
L 272.703298 339.499442 
L 273.77585 336.547814 
L 273.990361 336.502946 
L 274.68752 336.669924 
L 275.009286 336.319932 
L 275.491934 335.427172 
L 276.403604 333.685429 
L 276.671742 333.68332 
L 277.422528 333.961659 
L 277.797922 333.687901 
L 278.334198 332.978296 
L 278.977729 332.125403 
L 279.245867 332.096786 
L 279.567633 332.298686 
L 279.943027 332.481711 
L 280.31842 332.417526 
L 280.801068 332.068874 
L 281.766366 331.263515 
L 282.088131 331.360964 
L 282.731663 331.676757 
L 283.160684 331.591068 
L 283.750587 331.21054 
L 284.340491 330.843812 
L 284.715885 330.911326 
L 285.573926 331.238383 
L 286.056575 331.103792 
L 287.236383 330.639893 
L 287.719031 330.872217 
L 288.20168 330.998807 
L 288.737956 330.897164 
L 289.917764 330.530041 
L 290.507667 330.786906 
L 291.043943 330.86133 
L 291.687475 330.684254 
L 292.491889 330.459779 
L 292.974538 330.623138 
L 293.510814 330.78732 
L 294.100718 330.722746 
L 295.334153 330.466077 
L 296.674843 330.718599 
L 298.498182 330.418599 
L 299.302597 330.380381 
L 300.536032 330.301472 
L 302.627509 330.376323 
L 303.646434 330.487397 
L 304.289965 330.439705 
L 305.201635 330.594627 
L 306.220559 330.848176 
L 306.971346 330.690281 
L 307.668505 330.803472 
L 308.419292 331.160345 
L 308.741058 331.222504 
L 309.223706 331.017076 
L 309.759982 330.940498 
L 310.403514 331.071757 
L 311.583321 331.446375 
L 312.28048 331.155254 
L 312.870384 331.20745 
L 313.513916 331.489828 
L 314.050192 331.735108 
L 314.371957 331.581819 
L 314.854606 331.342341 
L 315.390882 331.331106 
L 316.034414 331.559597 
L 316.7852 331.891286 
L 317.160594 331.649615 
L 317.643242 331.450682 
L 318.179518 331.473179 
L 318.82305 331.743805 
L 319.466581 332.015276 
L 319.841974 331.760556 
L 320.324623 331.548372 
L 320.860899 331.56552 
L 321.450803 331.805051 
L 322.147962 332.108859 
L 322.469728 331.890298 
L 323.54228 330.854254 
L 324.024929 330.470999 
L 324.185812 330.477566 
L 324.400322 330.632218 
L 324.66846 330.929091 
L 324.990226 331.616848 
L 325.687385 333.901927 
L 326.223661 336.528855 
L 326.867192 340.991647 
L 327.617979 347.948699 
L 328.797787 359.176356 
L 329.763084 370.18363 
L 331.157402 386.189214 
L 332.122699 396.580981 
L 333.6779 413.600513 
L 334.428687 419.78371 
L 335.554867 431.125054 
L 336.14477 436.31306 
L 336.627419 438.557441 
L 337.27095 442.739323 
L 338.236248 450.62189 
L 338.772524 454.515468 
L 339.147917 455.244796 
L 339.576938 456.785925 
L 340.166842 459.85858 
L 341.024884 465.624907 
L 341.400277 467.81624 
L 341.56116 467.804417 
L 341.77567 467.846253 
L 342.043808 468.212902 
L 342.419202 469.217184 
L 342.955478 471.426267 
L 343.706265 475.577974 
L 344.081658 477.306094 
L 344.242541 477.070858 
L 344.510679 476.801857 
L 344.725189 476.85313 
L 344.993327 477.202214 
L 345.368721 478.135693 
L 345.904997 480.169162 
L 346.763039 483.906778 
L 346.816666 483.81651 
L 347.245687 482.931344 
L 347.513825 482.860449 
L 347.781964 483.103844 
L 348.103729 483.742662 
L 348.586378 485.265615 
L 349.390792 488.490708 
L 349.498047 488.328508 
L 349.65893 487.425781 
L 349.927068 484.369176 
L 350.892365 471.325535 
L 351.321386 468.77694 
L 351.69678 467.762811 
L 352.125801 467.051796 
L 352.340311 465.3612 
L 352.715704 460.056635 
L 353.305608 451.281023 
L 353.734629 447.835768 
L 354.110023 446.353688 
L 354.378161 445.990359 
L 354.592671 446.047801 
L 354.699926 446.045567 
L 354.860809 445.570332 
L 355.128947 443.52746 
L 355.557968 437.772369 
L 356.040617 432.604047 
L 356.41601 430.555195 
L 356.737776 429.854508 
L 356.952286 429.832483 
L 357.166797 430.11477 
L 357.434935 430.54669 
L 357.54219 430.370885 
L 357.756701 429.316796 
L 358.078466 426.233776 
L 358.614742 420.825678 
L 358.990136 419.063341 
L 359.258274 418.615154 
L 359.419157 418.618793 
L 359.633667 418.901725 
L 359.955433 419.843654 
L 360.169943 420.258069 
L 360.277199 420.118345 
L 360.491709 419.191031 
L 360.813475 416.414279 
L 361.296123 412.468111 
L 361.617889 411.301411 
L 361.8324 411.046954 
L 361.993282 411.092711 
L 362.207793 411.43298 
L 362.529559 412.463724 
L 362.851324 413.530441 
L 362.95858 413.495608 
L 363.119462 413.046001 
L 363.3876 411.360705 
L 364.031132 406.768068 
L 364.352898 406.043391 
L 364.51378 406.010139 
L 364.728291 406.260517 
L 364.996429 406.989459 
L 365.63996 409.139991 
L 365.800843 408.801342 
L 366.068981 407.31901 
L 366.658885 403.37639 
L 366.927023 402.729572 
L 367.141534 402.656399 
L 367.356044 402.924337 
L 367.67781 403.876187 
L 368.321341 406.263836 
L 368.374969 406.224472 
L 368.535852 405.81398 
L 368.80399 404.258696 
L 369.286638 401.181902 
L 369.608404 400.447281 
L 369.769287 400.413208 
L 369.983798 400.666138 
L 370.251936 401.403643 
L 370.680957 403.399614 
L 370.949095 404.330417 
L 371.05635 404.333654 
L 371.217233 403.972431 
L 371.485371 402.50714 
L 371.968019 399.58603 
L 372.236157 398.978917 
L 372.450668 398.935622 
L 372.665178 399.232085 
L 372.986944 400.224996 
L 373.684103 403.091517 
L 373.737731 403.077823 
L 373.898614 402.74929 
L 374.166752 401.343863 
L 374.6494 398.526409 
L 374.917538 397.965553 
L 375.078421 397.924049 
L 375.292932 398.16939 
L 375.56107 398.900744 
L 375.990091 400.893956 
L 376.311856 402.207105 
L 376.419112 402.243794 
L 376.579995 401.937061 
L 376.848133 400.57163 
L 377.545292 396.123823 
L 377.81343 395.643331 
L 377.974313 395.644661 
L 378.188823 395.941846 
L 378.510589 396.938878 
L 379.046865 398.760813 
L 379.15412 398.652026 
L 379.368631 397.913776 
L 379.690396 395.693776 
L 380.119417 392.919572 
L 380.441183 392.125828 
L 380.655694 392.095897 
L 380.870204 392.406856 
L 381.19197 393.424018 
L 381.728246 395.30737 
L 381.835501 395.227028 
L 382.050012 394.561716 
L 382.371777 392.484175 
L 382.800798 389.900744 
L 383.068936 389.269007 
L 383.283447 389.212663 
L 383.497957 389.500978 
L 383.819723 390.490299 
L 384.463254 392.718309 
L 384.624137 392.45827 
L 384.892275 391.258985 
L 385.589434 387.433747 
L 385.857572 387.140942 
L 386.018455 387.241888 
L 386.286593 387.810013 
L 386.661987 389.325211 
L 387.03738 390.867068 
L 387.198263 390.904104 
L 387.359146 390.56571 
L 387.627284 389.273661 
L 388.217188 386.098784 
L 388.485326 385.741067 
L 388.646209 385.807971 
L 388.860719 386.184764 
L 389.182485 387.288277 
L 389.826016 389.731041 
L 389.933271 389.646215 
L 390.147782 389.008868 
L 390.469548 387.079154 
L 390.844941 385.252079 
L 391.113079 384.810057 
L 391.273962 384.832782 
L 391.488472 385.156878 
L 391.810238 386.192539 
L 392.507397 388.926309 
L 392.614652 388.854765 
L 392.829163 388.246554 
L 393.150929 386.365155 
L 393.526322 384.588726 
L 393.79446 384.175659 
L 393.955343 384.21345 
L 394.169853 384.5554 
L 394.491619 385.613924 
L 395.188778 388.392303 
L 395.296033 388.329717 
L 395.456916 387.942713 
L 395.725054 386.609236 
L 396.154075 384.307563 
L 396.422213 383.785729 
L 396.583096 383.766623 
L 396.797607 384.040791 
L 397.119372 385.012055 
L 397.923787 388.032779 
L 398.084669 387.769721 
L 398.352808 386.616685 
L 398.889084 383.862635 
L 399.157222 383.482189 
L 399.318105 383.53694 
L 399.532615 383.898967 
L 399.854381 384.983172 
L 400.605168 387.805777 
L 400.76605 387.54912 
L 401.034188 386.407901 
L 401.570465 383.676891 
L 401.838603 383.305277 
L 401.999486 383.364616 
L 402.213996 383.732072 
L 402.535762 384.823216 
L 403.286548 387.660698 
L 403.447431 387.408352 
L 403.715569 386.275096 
L 404.090963 383.475501 
L 404.627239 379.346542 
L 404.949005 378.357956 
L 405.163515 378.217463 
L 405.324398 378.346041 
L 405.807046 379.149085 
L 405.860674 379.111516 
L 406.021557 378.795142 
L 406.289695 377.662451 
L 406.718716 374.604305 
L 407.362247 369.963334 
L 407.684013 369.209511 
L 407.898524 369.190229 
L 408.113034 369.500526 
L 408.488427 370.182653 
L 408.64931 370.057699 
L 408.863821 369.499715 
L 409.185586 367.959803 
L 410.204511 362.435064 
L 410.419022 362.30783 
L 410.633532 362.511946 
L 410.90167 363.17401 
L 411.169808 363.736468 
L 411.330691 363.732863 
L 411.545202 363.369009 
L 411.866967 362.173719 
L 412.832264 357.782519 
L 413.046775 357.706536 
L 413.261285 357.944502 
L 413.529423 358.62888 
L 413.904817 359.537225 
L 414.0657 359.545453 
L 414.28021 359.23046 
L 414.601976 358.1682 
L 415.460018 354.758329 
L 415.674528 354.695977 
L 415.889039 354.936762 
L 416.210804 355.792772 
L 416.586198 356.797994 
L 416.800708 356.842626 
L 417.015219 356.538809 
L 417.336984 355.538778 
L 418.087771 352.807248 
L 418.302282 352.729739 
L 418.516792 352.950245 
L 418.78493 353.593954 
L 419.321206 355.078295 
L 419.535717 355.086218 
L 419.750227 354.767888 
L 420.071993 353.782492 
L 420.715524 351.554973 
L 420.930035 351.442352 
L 421.144545 351.626989 
L 421.412683 352.224381 
L 422.056215 353.96912 
L 422.217098 353.969175 
L 422.431608 353.692945 
L 422.753374 352.779772 
L 423.396905 350.691857 
L 423.611416 350.608928 
L 423.825926 350.816043 
L 424.094064 351.43346 
L 424.791223 353.246523 
L 424.952106 353.203179 
L 425.166617 352.882765 
L 425.488382 351.930515 
L 426.024659 350.192752 
L 426.239169 350.05179 
L 426.453679 350.205543 
L 426.721818 350.760734 
L 427.526232 352.768955 
L 427.687115 352.679404 
L 427.955253 352.176948 
L 428.330646 350.875943 
L 428.706039 349.820839 
L 428.92055 349.693621 
L 429.13506 349.857693 
L 429.403198 350.421949 
L 430.207613 352.453818 
L 430.368496 352.372805 
L 430.636634 351.886801 
L 431.012027 350.612045 
L 431.601931 347.689283 
L 432.030952 345.873373 
L 432.29909 345.472004 
L 432.620856 345.253932 
L 432.942621 344.627875 
L 433.42527 343.09828 
L 434.873216 337.996366 
L 435.784885 337.191001 
L 436.428416 335.840391 
L 437.340086 333.946052 
L 437.661852 333.826597 
L 438.1445 333.813437 
L 438.627149 333.493416 
L 439.592446 332.464964 
L 440.021467 332.154286 
L 440.39686 332.166319 
L 440.933136 332.205098 
L 441.630295 331.982297 
L 442.702848 331.629116 
L 450.157087 331.828318 
L 450.907873 331.955718 
L 452.034053 331.809921 
L 452.892095 331.988843 
L 453.535627 332.12929 
L 454.876317 331.931943 
L 455.680731 332.157819 
L 456.16338 332.272712 
L 456.699656 332.06763 
L 457.28956 331.998549 
L 458.040347 332.13247 
L 458.737506 332.470769 
L 459.970941 333.428902 
L 460.721728 334.36404 
L 461.579769 335.811603 
L 462.384184 337.120554 
L 463.349481 338.93922 
L 465.601841 343.404348 
L 466.996159 346.35231 
L 467.371552 346.967189 
L 468.175966 348.081118 
L 469.355774 350.141353 
L 469.999305 351.178043 
L 470.642837 351.74212 
L 471.500879 352.820154 
L 472.734314 354.431771 
L 473.27059 354.692308 
L 473.967749 355.292013 
L 474.986674 356.491076 
L 475.30844 356.776961 
L 475.791088 356.807307 
L 476.380992 357.083242 
L 477.185406 357.742594 
L 478.043448 358.433166 
L 478.526097 358.375398 
L 479.116001 358.55128 
L 479.866787 359.042489 
L 480.724829 359.595951 
L 481.207478 359.458614 
L 481.743754 359.531593 
L 482.440913 359.874949 
L 483.40621 360.379368 
L 483.567093 360.020691 
L 483.835231 358.710115 
L 484.264252 355.225723 
L 485.229549 344.775844 
L 486.033963 337.118841 
L 486.57024 333.832046 
L 486.99926 332.332699 
L 487.321026 331.916267 
L 487.374654 331.906575 
L 487.589164 332.203479 
L 487.857302 332.742014 
L 488.232696 334.172901 
L 488.715344 337.084322 
L 489.358876 342.387603 
L 490.16329 351.151083 
L 491.235842 365.529643 
L 496.813115 444.918999 
L 499.709006 475.575071 
L 502.229504 495.597166 
L 504.857257 509.953893 
L 505.232651 510.766944 
L 506.305203 513.239192 
L 507.002362 514.183209 
L 507.485011 514.579635 
L 508.128542 514.459844 
L 509.361977 515.261022 
L 510.112764 515.520685 
L 510.220019 515.386925 
L 510.380902 514.504175 
L 510.64904 511.238955 
L 511.078061 502.276058 
L 511.721592 483.142268 
L 512.365124 464.779853 
L 512.9014 455.837482 
L 513.384049 447.018478 
L 514.242091 426.193901 
L 514.992877 409.055974 
L 515.421898 403.87142 
L 515.958174 398.552067 
L 516.655333 388.615415 
L 517.674258 374.06367 
L 518.049651 371.764799 
L 518.639555 369.220886 
L 519.175831 365.170947 
L 520.462894 354.918617 
L 520.731032 354.36801 
L 521.213681 353.850969 
L 521.589074 352.632897 
L 522.178978 349.697275 
L 522.983392 345.686084 
L 523.25153 345.299095 
L 523.466041 345.310434 
L 523.787807 345.460218 
L 524.002317 345.298903 
L 524.324083 344.708841 
L 524.806731 343.252697 
L 525.664773 340.518436 
L 525.932911 340.389569 
L 526.147422 340.533464 
L 526.522815 340.862432 
L 526.790953 340.778626 
L 527.112719 340.378193 
L 527.595367 339.337753 
L 528.292526 337.781639 
L 528.560665 337.714936 
L 528.828803 337.931262 
L 529.257824 338.353485 
L 529.525962 338.328785 
L 529.847727 338.05069 
L 530.330376 337.267648 
L 530.973907 336.225832 
L 531.242045 336.227188 
L 531.510184 336.467172 
L 531.939205 336.916268 
L 532.26097 336.931039 
L 532.582736 336.711562 
L 533.065384 336.071105 
L 533.601661 335.35691 
L 533.869799 335.347474 
L 534.191564 335.61742 
L 534.674213 336.094442 
L 534.995979 336.106329 
L 535.371372 335.864155 
L 535.907648 335.198665 
L 536.283042 334.827851 
L 536.55118 334.84096 
L 536.872945 335.111471 
L 537.355594 335.585269 
L 537.67736 335.619465 
L 538.052753 335.420103 
L 538.589029 334.834226 
L 539.500699 333.79232 
L 540.358741 333.505627 
L 542.074824 332.522521 
L 543.790908 332.562235 
L 544.488067 332.808836 
L 544.917088 332.923559 
L 545.667875 332.984856 
L 546.365034 333.271042 
L 547.062193 333.804245 
L 547.491214 334.093323 
L 548.778277 334.229448 
L 549.421808 334.716981 
L 550.226222 335.364689 
L 551.084264 335.167895 
L 551.62054 335.406505 
L 552.264072 335.978078 
L 552.800348 336.475827 
L 553.014858 336.380089 
L 553.443879 336.118103 
L 553.8729 336.108556 
L 554.355549 336.325671 
L 554.945453 336.851306 
L 555.481729 337.335788 
L 555.696239 337.204661 
L 556.12526 336.866181 
L 556.554281 336.809104 
L 557.03693 336.99603 
L 557.626834 337.504772 
L 558.16311 337.972188 
L 558.37762 337.814209 
L 558.860269 337.39233 
L 559.28929 337.330185 
L 559.771938 337.519278 
L 560.361842 338.03769 
L 560.844491 338.431535 
L 561.059001 338.254091 
L 561.54165 337.78723 
L 561.970671 337.699543 
L 562.399692 337.839793 
L 562.935968 338.26387 
L 563.525872 338.759511 
L 563.740382 338.570465 
L 564.115775 337.839177 
L 564.652052 336.117195 
L 565.510094 333.40372 
L 565.939114 332.721925 
L 566.153625 332.676116 
L 566.368135 332.894266 
L 566.689901 333.417194 
L 567.065294 334.580426 
L 567.547943 336.975146 
L 568.137847 341.23458 
L 568.888633 348.557611 
L 570.068441 362.790166 
L 571.462759 382.78096 
L 574.465906 426.525431 
L 576.235617 448.740783 
L 577.576308 463.82126 
L 579.935923 485.833232 
L 582.188283 501.454319 
L 582.885442 505.397235 
L 584.333388 511.729049 
L 584.976919 513.349208 
L 585.298685 513.830201 
L 585.513195 513.849764 
L 585.834961 514.122625 
L 586.961141 515.395487 
L 587.765555 515.894072 
L 587.980066 515.874931 
L 588.248204 515.603656 
L 588.516342 515.571477 
L 588.99899 515.83891 
L 589.91066 516.211965 
L 590.607819 516.325404 
L 590.715074 516.02953 
L 590.929585 514.275152 
L 591.25135 509.160058 
L 591.733999 497.27059 
L 592.538413 471.032063 
L 593.2892 448.064774 
L 594.254497 423.451841 
L 595.702443 387.384151 
L 596.345974 378.170364 
L 598.169313 353.917018 
L 598.598334 350.548651 
L 599.885397 343.258101 
L 600.850694 338.371131 
L 601.226087 337.322793 
L 602.29864 335.491116 
L 603.317564 333.824681 
L 603.746585 333.432835 
L 604.497372 333.261085 
L 605.623552 333.061802 
L 605.89169 333.12166 
L 608.14405 333.662045 
L 608.841209 334.193203 
L 609.216602 334.375183 
L 610.128272 334.408348 
L 610.771803 334.764058 
L 611.468962 335.430355 
L 611.790728 335.682293 
L 612.058866 335.610037 
L 612.487887 335.493872 
L 612.970536 335.594988 
L 613.560439 335.975332 
L 614.632992 336.795879 
L 615.222896 336.492433 
L 615.651917 336.545034 
L 616.188193 336.856083 
L 616.831724 337.519032 
L 617.15349 337.754489 
L 617.368 337.63058 
L 617.797021 337.304792 
L 618.226042 337.256322 
L 618.49418 337.150491 
L 618.815946 336.657894 
L 619.40585 335.183993 
L 620.103009 333.57639 
L 620.424775 333.268545 
L 620.853796 333.18544 
L 621.336444 333.304483 
L 621.711837 333.556127 
L 622.087231 334.10235 
L 622.516252 335.208736 
L 623.642432 338.602995 
L 624.017825 339.439601 
L 624.500474 341.182863 
L 625.03675 344.006751 
L 626.055674 349.805145 
L 626.37744 350.338863 
L 626.645578 350.916709 
L 627.020972 352.297504 
L 627.557248 355.281998 
L 628.737055 362.533154 
L 628.951566 362.656922 
L 629.166076 362.677347 
L 629.380587 362.995813 
L 629.702353 363.981812 
L 630.131373 366.108433 
L 630.721277 370.286828 
L 631.150298 372.982267 
L 631.418436 373.464738 
L 631.579319 373.356651 
L 631.901085 372.921341 
L 632.061968 372.982862 
L 632.276478 373.345872 
L 632.598244 374.418584 
L 633.027265 376.683524 
L 633.938934 381.925963 
L 634.099817 381.922006 
L 634.2607 381.601616 
L 634.636093 380.671677 
L 634.850604 380.649395 
L 635.065114 380.965444 
L 635.38688 381.987715 
L 635.815901 384.210284 
L 636.566688 388.249025 
L 636.727571 388.213345 
L 636.942081 387.636705 
L 637.371102 386.237302 
L 637.585612 386.130788 
L 637.800123 386.374922 
L 638.068261 387.109208 
L 638.497282 389.120525 
L 639.194441 392.771569 
L 639.355324 392.754386 
L 639.516207 392.369258 
L 640.213366 390.000626 
L 640.374249 390.001646 
L 640.588759 390.300047 
L 640.910525 391.302655 
L 641.339546 393.504426 
L 641.822194 395.928321 
L 641.983077 395.969884 
L 642.14396 395.622421 
L 642.412098 394.314631 
L 642.733864 392.988143 
L 643.002002 392.641531 
L 643.162885 392.714103 
L 643.377395 393.097442 
L 643.699161 394.208411 
L 644.128182 396.525042 
L 644.128182 396.525042 
" clip-path="url(#p5bb25f0129)" style="fill: none; stroke: #008000; stroke-width: 1.5; stroke-linecap: square"/>
   </g>
   <g id="patch_8">
    <path d="M 52.94 534.04 
L 52.94 319.05 
" style="fill: none; stroke: #000000; stroke-width: 0.8; stroke-linejoin: miter; stroke-linecap: square"/>
   </g>
   <g id="patch_9">
    <path d="M 672.28 534.04 
L 672.28 319.05 
" style="fill: none; stroke: #000000; stroke-width: 0.8; stroke-linejoin: miter; stroke-linecap: square"/>
   </g>
   <g id="patch_10">
    <path d="M 52.94 534.04 
L 672.28 534.04 
" style="fill: none; stroke: #000000; stroke-width: 0.8; stroke-linejoin: miter; stroke-linecap: square"/>
   </g>
   <g id="patch_11">
    <path d="M 52.94 319.05 
L 672.28 319.05 
" style="fill: none; stroke: #000000; stroke-width: 0.8; stroke-linejoin: miter; stroke-linecap: square"/>
   </g>
   <g id="text_24">
    <!-- Cost Over Time -->
    <g transform="translate(316.344375 313.05) scale(0.12 -0.12)">
     <defs>
      <path id="DejaVuSans-76" d="M 191 3500 
L 800 3500 
L 1894 563 
L 2988 3500 
L 3597 3500 
L 2284 0 
L 1503 0 
L 191 3500 
z
" transform="scale(0.015625)"/>
      <path id="DejaVuSans-72" d="M 2631 2963 
Q 2534 3019 2420 3045 
Q 2306 3072 2169 3072 
Q 1681 3072 1420 2755 
Q 1159 2438 1159 1844 
L 1159 0 
L 581 0 
L 581 3500 
L 1159 3500 
L 1159 2956 
Q 1341 3275 1631 3429 
Q 1922 3584 2338 3584 
Q 2397 3584 2469 3576 
Q 2541 3569 2628 3553 
L 2631 2963 
z
" transform="scale(0.015625)"/>
     </defs>
     <use xlink:href="#DejaVuSans-43"/>
     <use xlink:href="#DejaVuSans-6f" x="69.824219"/>
     <use xlink:href="#DejaVuSans-73" x="131.005859"/>
     <use xlink:href="#DejaVuSans-74" x="183.105469"/>
     <use xlink:href="#DejaVuSans-20" x="222.314453"/>
     <use xlink:href="#DejaVuSans-4f" x="254.101562"/>
     <use xlink:href="#DejaVuSans-76" x="332.8125"/>
     <use xlink:href="#DejaVuSans-65" x="391.992188"/>
     <use xlink:href="#DejaVuSans-72" x="453.515625"/>
     <use xlink:href="#DejaVuSans-20" x="494.628906"/>
     <use xlink:href="#DejaVuSans-54" x="526.416016"/>
     <use xlink:href="#DejaVuSans-69" x="584.375"/>
     <use xlink:href="#DejaVuSans-6d" x="612.158203"/>
     <use xlink:href="#DejaVuSans-65" x="709.570312"/>
    </g>
   </g>
  </g>
  <g id="axes_3">
   <g id="matplotlib.axis_5">
    <g id="ytick_14">
     <g id="line2d_28">
      <defs>
       <path id="m3595cd01ba" d="M 0 0 
L 3.5 0 
" style="stroke: #4682b4; stroke-width: 0.8"/>
      </defs>
      <g>
       <use xlink:href="#m3595cd01ba" x="672.28" y="278.897727" style="fill: #4682b4; stroke: #4682b4; stroke-width: 0.8"/>
      </g>
     </g>
     <g id="text_25">
      <!-- 0.0 -->
      <g style="fill: #4682b4" transform="translate(679.28 282.696946) scale(0.1 -0.1)">
       <use xlink:href="#DejaVuSans-30"/>
       <use xlink:href="#DejaVuSans-2e" x="63.623047"/>
       <use xlink:href="#DejaVuSans-30" x="95.410156"/>
      </g>
     </g>
    </g>
    <g id="ytick_15">
     <g id="line2d_29">
      <g>
       <use xlink:href="#m3595cd01ba" x="672.28" y="238.207902" style="fill: #4682b4; stroke: #4682b4; stroke-width: 0.8"/>
      </g>
     </g>
     <g id="text_26">
      <!-- 0.2 -->
      <g style="fill: #4682b4" transform="translate(679.28 242.007121) scale(0.1 -0.1)">
       <use xlink:href="#DejaVuSans-30"/>
       <use xlink:href="#DejaVuSans-2e" x="63.623047"/>
       <use xlink:href="#DejaVuSans-32" x="95.410156"/>
      </g>
     </g>
    </g>
    <g id="ytick_16">
     <g id="line2d_30">
      <g>
       <use xlink:href="#m3595cd01ba" x="672.28" y="197.518076" style="fill: #4682b4; stroke: #4682b4; stroke-width: 0.8"/>
      </g>
     </g>
     <g id="text_27">
      <!-- 0.4 -->
      <g style="fill: #4682b4" transform="translate(679.28 201.317295) scale(0.1 -0.1)">
       <use xlink:href="#DejaVuSans-30"/>
       <use xlink:href="#DejaVuSans-2e" x="63.623047"/>
       <use xlink:href="#DejaVuSans-34" x="95.410156"/>
      </g>
     </g>
    </g>
    <g id="ytick_17">
     <g id="line2d_31">
      <g>
       <use xlink:href="#m3595cd01ba" x="672.28" y="156.828251" style="fill: #4682b4; stroke: #4682b4; stroke-width: 0.8"/>
      </g>
     </g>
     <g id="text_28">
      <!-- 0.6 -->
      <g style="fill: #4682b4" transform="translate(679.28 160.62747) scale(0.1 -0.1)">
       <use xlink:href="#DejaVuSans-30"/>
       <use xlink:href="#DejaVuSans-2e" x="63.623047"/>
       <use xlink:href="#DejaVuSans-36" x="95.410156"/>
      </g>
     </g>
    </g>
    <g id="ytick_18">
     <g id="line2d_32">
      <g>
       <use xlink:href="#m3595cd01ba" x="672.28" y="116.138425" style="fill: #4682b4; stroke: #4682b4; stroke-width: 0.8"/>
      </g>
     </g>
     <g id="text_29">
      <!-- 0.8 -->
      <g style="fill: #4682b4" transform="translate(679.28 119.937644) scale(0.1 -0.1)">
       <use xlink:href="#DejaVuSans-30"/>
       <use xlink:href="#DejaVuSans-2e" x="63.623047"/>
       <use xlink:href="#DejaVuSans-38" x="95.410156"/>
      </g>
     </g>
    </g>
    <g id="ytick_19">
     <g id="line2d_33">
      <g>
       <use xlink:href="#m3595cd01ba" x="672.28" y="75.4486" style="fill: #4682b4; stroke: #4682b4; stroke-width: 0.8"/>
      </g>
     </g>
     <g id="text_30">
      <!-- 1.0 -->
      <g style="fill: #4682b4" transform="translate(679.28 79.247819) scale(0.1 -0.1)">
       <use xlink:href="#DejaVuSans-31"/>
       <use xlink:href="#DejaVuSans-2e" x="63.623047"/>
       <use xlink:href="#DejaVuSans-30" x="95.410156"/>
      </g>
     </g>
    </g>
    <g id="text_31">
     <!-- Duty Cycle -->
     <g style="fill: #4682b4" transform="translate(706.781563 208.367969) rotate(-90) scale(0.1 -0.1)">
      <use xlink:href="#DejaVuSans-44"/>
      <use xlink:href="#DejaVuSans-75" x="77.001953"/>
      <use xlink:href="#DejaVuSans-74" x="140.380859"/>
      <use xlink:href="#DejaVuSans-79" x="179.589844"/>
      <use xlink:href="#DejaVuSans-20" x="238.769531"/>
      <use xlink:href="#DejaVuSans-43" x="270.556641"/>
      <use xlink:href="#DejaVuSans-79" x="340.380859"/>
      <use xlink:href="#DejaVuSans-63" x="399.560547"/>
      <use xlink:href="#DejaVuSans-6c" x="454.541016"/>
      <use xlink:href="#DejaVuSans-65" x="482.324219"/>
     </g>
    </g>
   </g>
   <g id="line2d_34">
    <path d="M 81.091818 187.806194 
L 107.852 187.806194 
L 108.012883 268.323971 
L 134.665809 268.323971 
L 134.826692 83.452273 
L 161.479618 83.452273 
L 161.640501 233.503061 
L 188.293427 233.503061 
L 188.45431 170.283522 
L 215.107236 170.283522 
L 215.268119 102.92405 
L 241.921045 102.92405 
L 242.081928 173.211949 
L 268.734854 173.211949 
L 268.895737 142.417934 
L 295.548663 142.417934 
L 295.709546 127.600334 
L 322.362473 127.600334 
L 322.523355 260.657967 
L 349.176282 260.657967 
L 349.337164 217.618711 
L 375.990091 217.618711 
L 376.150974 209.168638 
L 402.8039 209.168638 
L 402.964783 179.363056 
L 429.617709 179.363056 
L 429.778592 130.073448 
L 456.431518 130.073448 
L 456.592401 87.440714 
L 483.245327 87.440714 
L 483.40621 276.68001 
L 510.059136 276.68001 
L 510.220019 151.183175 
L 536.872945 151.183175 
L 537.033828 114.009987 
L 563.686754 114.009987 
L 563.847637 278.897727 
L 590.500564 278.897727 
L 590.661446 112.390395 
L 617.314373 112.390395 
L 617.475256 216.748178 
L 644.128182 216.748178 
L 644.128182 216.748178 
" clip-path="url(#paa8f7111c2)" style="fill: none; stroke: #4682b4; stroke-width: 1.5; stroke-linecap: square"/>
   </g>
   <g id="patch_12">
    <path d="M 52.94 288.67 
L 52.94 73.68 
" style="fill: none; stroke: #000000; stroke-width: 0.8; stroke-linejoin: miter; stroke-linecap: square"/>
   </g>
   <g id="patch_13">
    <path d="M 672.28 288.67 
L 672.28 73.68 
" style="fill: none; stroke: #4682b4; stroke-width: 0.8; stroke-linejoin: miter; stroke-linecap: square"/>
   </g>
   <g id="patch_14">
    <path d="M 52.94 288.67 
L 672.28 288.67 
" style="fill: none; stroke: #000000; stroke-width: 0.8; stroke-linejoin: miter; stroke-linecap: square"/>
   </g>
   <g id="patch_15">
    <path d="M 52.94 73.68 
L 672.28 73.68 
" style="fill: none; stroke: #000000; stroke-width: 0.8; stroke-linejoin: miter; stroke-linecap: square"/>
   </g>
  </g>
  <g id="text_32">
   <!-- Episode 9 - Total Reward: -369.88 -->
   <g transform="translate(259.380938 20.638125) scale(0.12 -0.12)">
    <defs>
     <path id="DejaVuSans-45" d="M 628 4666 
L 3578 4666 
L 3578 4134 
L 1259 4134 
L 1259 2753 
L 3481 2753 
L 3481 2222 
L 1259 2222 
L 1259 531 
L 3634 531 
L 3634 0 
L 628 0 
L 628 4666 
z
" transform="scale(0.015625)"/>
     <path id="DejaVuSans-39" d="M 703 97 
L 703 672 
Q 941 559 1184 500 
Q 1428 441 1663 441 
Q 2288 441 2617 861 
Q 2947 1281 2994 2138 
Q 2813 1869 2534 1725 
Q 2256 1581 1919 1581 
Q 1219 1581 811 2004 
Q 403 2428 403 3163 
Q 403 3881 828 4315 
Q 1253 4750 1959 4750 
Q 2769 4750 3195 4129 
Q 3622 3509 3622 2328 
Q 3622 1225 3098 567 
Q 2575 -91 1691 -91 
Q 1453 -91 1209 -44 
Q 966 3 703 97 
z
M 1959 2075 
Q 2384 2075 2632 2365 
Q 2881 2656 2881 3163 
Q 2881 3666 2632 3958 
Q 2384 4250 1959 4250 
Q 1534 4250 1286 3958 
Q 1038 3666 1038 3163 
Q 1038 2656 1286 2365 
Q 1534 2075 1959 2075 
z
" transform="scale(0.015625)"/>
     <path id="DejaVuSans-2d" d="M 313 2009 
L 1997 2009 
L 1997 1497 
L 313 1497 
L 313 2009 
z
" transform="scale(0.015625)"/>
     <path id="DejaVuSans-52" d="M 2841 2188 
Q 3044 2119 3236 1894 
Q 3428 1669 3622 1275 
L 4263 0 
L 3584 0 
L 2988 1197 
Q 2756 1666 2539 1819 
Q 2322 1972 1947 1972 
L 1259 1972 
L 1259 0 
L 628 0 
L 628 4666 
L 2053 4666 
Q 2853 4666 3247 4331 
Q 3641 3997 3641 3322 
Q 3641 2881 3436 2590 
Q 3231 2300 2841 2188 
z
M 1259 4147 
L 1259 2491 
L 2053 2491 
Q 2509 2491 2742 2702 
Q 2975 2913 2975 3322 
Q 2975 3731 2742 3939 
Q 2509 4147 2053 4147 
L 1259 4147 
z
" transform="scale(0.015625)"/>
     <path id="DejaVuSans-77" d="M 269 3500 
L 844 3500 
L 1563 769 
L 2278 3500 
L 2956 3500 
L 3675 769 
L 4391 3500 
L 4966 3500 
L 4050 0 
L 3372 0 
L 2619 2869 
L 1863 0 
L 1184 0 
L 269 3500 
z
" transform="scale(0.015625)"/>
     <path id="DejaVuSans-3a" d="M 750 794 
L 1409 794 
L 1409 0 
L 750 0 
L 750 794 
z
M 750 3309 
L 1409 3309 
L 1409 2516 
L 750 2516 
L 750 3309 
z
" transform="scale(0.015625)"/>
    </defs>
    <use xlink:href="#DejaVuSans-45"/>
    <use xlink:href="#DejaVuSans-70" x="63.183594"/>
    <use xlink:href="#DejaVuSans-69" x="126.660156"/>
    <use xlink:href="#DejaVuSans-73" x="154.443359"/>
    <use xlink:href="#DejaVuSans-6f" x="206.542969"/>
    <use xlink:href="#DejaVuSans-64" x="267.724609"/>
    <use xlink:href="#DejaVuSans-65" x="331.201172"/>
    <use xlink:href="#DejaVuSans-20" x="392.724609"/>
    <use xlink:href="#DejaVuSans-39" x="424.511719"/>
    <use xlink:href="#DejaVuSans-20" x="488.134766"/>
    <use xlink:href="#DejaVuSans-2d" x="519.921875"/>
    <use xlink:href="#DejaVuSans-20" x="556.005859"/>
    <use xlink:href="#DejaVuSans-54" x="587.792969"/>
    <use xlink:href="#DejaVuSans-6f" x="631.876953"/>
    <use xlink:href="#DejaVuSans-74" x="693.058594"/>
    <use xlink:href="#DejaVuSans-61" x="732.267578"/>
    <use xlink:href="#DejaVuSans-6c" x="793.546875"/>
    <use xlink:href="#DejaVuSans-20" x="821.330078"/>
    <use xlink:href="#DejaVuSans-52" x="853.117188"/>
    <use xlink:href="#DejaVuSans-65" x="918.099609"/>
    <use xlink:href="#DejaVuSans-77" x="979.623047"/>
    <use xlink:href="#DejaVuSans-61" x="1061.410156"/>
    <use xlink:href="#DejaVuSans-72" x="1122.689453"/>
    <use xlink:href="#DejaVuSans-64" x="1162.052734"/>
    <use xlink:href="#DejaVuSans-3a" x="1225.529297"/>
    <use xlink:href="#DejaVuSans-20" x="1259.220703"/>
    <use xlink:href="#DejaVuSans-2d" x="1291.007812"/>
    <use xlink:href="#DejaVuSans-33" x="1327.091797"/>
    <use xlink:href="#DejaVuSans-36" x="1390.714844"/>
    <use xlink:href="#DejaVuSans-39" x="1454.337891"/>
    <use xlink:href="#DejaVuSans-2e" x="1517.960938"/>
    <use xlink:href="#DejaVuSans-38" x="1549.748047"/>
    <use xlink:href="#DejaVuSans-38" x="1613.371094"/>
   </g>
  </g>
 </g>
 <defs>
  <clipPath id="paa8f7111c2">
   <rect x="52.94" y="73.68" width="619.34" height="214.99"/>
  </clipPath>
  <clipPath id="p5bb25f0129">
   <rect x="52.94" y="319.05" width="619.34" height="214.99"/>
  </clipPath>
 </defs>
</svg>
