<?xml version="1.0" encoding="utf-8" standalone="no"?>
<!DOCTYPE svg PUBLIC "-//W3C//DTD SVG 1.1//EN"
  "http://www.w3.org/Graphics/SVG/1.1/DTD/svg11.dtd">
<svg xmlns:xlink="http://www.w3.org/1999/xlink" width="720pt" height="576pt" viewBox="0 0 720 576" xmlns="http://www.w3.org/2000/svg" version="1.1">
 <metadata>
  <rdf:RDF xmlns:dc="http://purl.org/dc/elements/1.1/" xmlns:cc="http://creativecommons.org/ns#" xmlns:rdf="http://www.w3.org/1999/02/22-rdf-syntax-ns#">
   <cc:Work>
    <dc:type rdf:resource="http://purl.org/dc/dcmitype/StillImage"/>
    <dc:date>2024-06-03T13:21:06.892717</dc:date>
    <dc:format>image/svg+xml</dc:format>
    <dc:creator>
     <cc:Agent>
      <dc:title>Matplotlib v3.8.4, https://matplotlib.org/</dc:title>
     </cc:Agent>
    </dc:creator>
   </cc:Work>
  </rdf:RDF>
 </metadata>
 <defs>
  <style type="text/css">*{stroke-linejoin: round; stroke-linecap: butt}</style>
 </defs>
 <g id="figure_1">
  <g id="patch_1">
   <path d="M 0 576 
L 720 576 
L 720 0 
L 0 0 
z
" style="fill: #ffffff"/>
  </g>
  <g id="axes_1">
   <g id="patch_2">
    <path d="M 52.94 288.67 
L 672.28 288.67 
L 672.28 73.68 
L 52.94 73.68 
z
" style="fill: #ffffff"/>
   </g>
   <g id="matplotlib.axis_1">
    <g id="xtick_1">
     <g id="line2d_1">
      <defs>
       <path id="m059875e419" d="M 0 0 
L 0 3.5 
" style="stroke: #000000; stroke-width: 0.8"/>
      </defs>
      <g>
       <use xlink:href="#m059875e419" x="81.091818" y="288.67" style="stroke: #000000; stroke-width: 0.8"/>
      </g>
     </g>
    </g>
    <g id="xtick_2">
     <g id="line2d_2">
      <g>
       <use xlink:href="#m059875e419" x="188.347055" y="288.67" style="stroke: #000000; stroke-width: 0.8"/>
      </g>
     </g>
    </g>
    <g id="xtick_3">
     <g id="line2d_3">
      <g>
       <use xlink:href="#m059875e419" x="295.602291" y="288.67" style="stroke: #000000; stroke-width: 0.8"/>
      </g>
     </g>
    </g>
    <g id="xtick_4">
     <g id="line2d_4">
      <g>
       <use xlink:href="#m059875e419" x="402.857527" y="288.67" style="stroke: #000000; stroke-width: 0.8"/>
      </g>
     </g>
    </g>
    <g id="xtick_5">
     <g id="line2d_5">
      <g>
       <use xlink:href="#m059875e419" x="510.112764" y="288.67" style="stroke: #000000; stroke-width: 0.8"/>
      </g>
     </g>
    </g>
    <g id="xtick_6">
     <g id="line2d_6">
      <g>
       <use xlink:href="#m059875e419" x="617.368" y="288.67" style="stroke: #000000; stroke-width: 0.8"/>
      </g>
     </g>
    </g>
   </g>
   <g id="matplotlib.axis_2">
    <g id="ytick_1">
     <g id="line2d_7">
      <defs>
       <path id="mcd29bba041" d="M 0 0 
L -3.5 0 
" style="stroke: #ff4500; stroke-width: 0.8"/>
      </defs>
      <g>
       <use xlink:href="#mcd29bba041" x="52.94" y="278.906768" style="fill: #ff4500; stroke: #ff4500; stroke-width: 0.8"/>
      </g>
     </g>
     <g id="text_1">
      <!-- 0 -->
      <g style="fill: #ff4500" transform="translate(39.5775 282.705987) scale(0.1 -0.1)">
       <defs>
        <path id="DejaVuSans-30" d="M 2034 4250 
Q 1547 4250 1301 3770 
Q 1056 3291 1056 2328 
Q 1056 1369 1301 889 
Q 1547 409 2034 409 
Q 2525 409 2770 889 
Q 3016 1369 3016 2328 
Q 3016 3291 2770 3770 
Q 2525 4250 2034 4250 
z
M 2034 4750 
Q 2819 4750 3233 4129 
Q 3647 3509 3647 2328 
Q 3647 1150 3233 529 
Q 2819 -91 2034 -91 
Q 1250 -91 836 529 
Q 422 1150 422 2328 
Q 422 3509 836 4129 
Q 1250 4750 2034 4750 
z
" transform="scale(0.015625)"/>
       </defs>
       <use xlink:href="#DejaVuSans-30"/>
      </g>
     </g>
    </g>
    <g id="ytick_2">
     <g id="line2d_8">
      <g>
       <use xlink:href="#mcd29bba041" x="52.94" y="253.793113" style="fill: #ff4500; stroke: #ff4500; stroke-width: 0.8"/>
      </g>
     </g>
     <g id="text_2">
      <!-- 1 -->
      <g style="fill: #ff4500" transform="translate(39.5775 257.592332) scale(0.1 -0.1)">
       <defs>
        <path id="DejaVuSans-31" d="M 794 531 
L 1825 531 
L 1825 4091 
L 703 3866 
L 703 4441 
L 1819 4666 
L 2450 4666 
L 2450 531 
L 3481 531 
L 3481 0 
L 794 0 
L 794 531 
z
" transform="scale(0.015625)"/>
       </defs>
       <use xlink:href="#DejaVuSans-31"/>
      </g>
     </g>
    </g>
    <g id="ytick_3">
     <g id="line2d_9">
      <g>
       <use xlink:href="#mcd29bba041" x="52.94" y="228.679458" style="fill: #ff4500; stroke: #ff4500; stroke-width: 0.8"/>
      </g>
     </g>
     <g id="text_3">
      <!-- 2 -->
      <g style="fill: #ff4500" transform="translate(39.5775 232.478677) scale(0.1 -0.1)">
       <defs>
        <path id="DejaVuSans-32" d="M 1228 531 
L 3431 531 
L 3431 0 
L 469 0 
L 469 531 
Q 828 903 1448 1529 
Q 2069 2156 2228 2338 
Q 2531 2678 2651 2914 
Q 2772 3150 2772 3378 
Q 2772 3750 2511 3984 
Q 2250 4219 1831 4219 
Q 1534 4219 1204 4116 
Q 875 4013 500 3803 
L 500 4441 
Q 881 4594 1212 4672 
Q 1544 4750 1819 4750 
Q 2544 4750 2975 4387 
Q 3406 4025 3406 3419 
Q 3406 3131 3298 2873 
Q 3191 2616 2906 2266 
Q 2828 2175 2409 1742 
Q 1991 1309 1228 531 
z
" transform="scale(0.015625)"/>
       </defs>
       <use xlink:href="#DejaVuSans-32"/>
      </g>
     </g>
    </g>
    <g id="ytick_4">
     <g id="line2d_10">
      <g>
       <use xlink:href="#mcd29bba041" x="52.94" y="203.565803" style="fill: #ff4500; stroke: #ff4500; stroke-width: 0.8"/>
      </g>
     </g>
     <g id="text_4">
      <!-- 3 -->
      <g style="fill: #ff4500" transform="translate(39.5775 207.365022) scale(0.1 -0.1)">
       <defs>
        <path id="DejaVuSans-33" d="M 2597 2516 
Q 3050 2419 3304 2112 
Q 3559 1806 3559 1356 
Q 3559 666 3084 287 
Q 2609 -91 1734 -91 
Q 1441 -91 1130 -33 
Q 819 25 488 141 
L 488 750 
Q 750 597 1062 519 
Q 1375 441 1716 441 
Q 2309 441 2620 675 
Q 2931 909 2931 1356 
Q 2931 1769 2642 2001 
Q 2353 2234 1838 2234 
L 1294 2234 
L 1294 2753 
L 1863 2753 
Q 2328 2753 2575 2939 
Q 2822 3125 2822 3475 
Q 2822 3834 2567 4026 
Q 2313 4219 1838 4219 
Q 1578 4219 1281 4162 
Q 984 4106 628 3988 
L 628 4550 
Q 988 4650 1302 4700 
Q 1616 4750 1894 4750 
Q 2613 4750 3031 4423 
Q 3450 4097 3450 3541 
Q 3450 3153 3228 2886 
Q 3006 2619 2597 2516 
z
" transform="scale(0.015625)"/>
       </defs>
       <use xlink:href="#DejaVuSans-33"/>
      </g>
     </g>
    </g>
    <g id="ytick_5">
     <g id="line2d_11">
      <g>
       <use xlink:href="#mcd29bba041" x="52.94" y="178.452148" style="fill: #ff4500; stroke: #ff4500; stroke-width: 0.8"/>
      </g>
     </g>
     <g id="text_5">
      <!-- 4 -->
      <g style="fill: #ff4500" transform="translate(39.5775 182.251367) scale(0.1 -0.1)">
       <defs>
        <path id="DejaVuSans-34" d="M 2419 4116 
L 825 1625 
L 2419 1625 
L 2419 4116 
z
M 2253 4666 
L 3047 4666 
L 3047 1625 
L 3713 1625 
L 3713 1100 
L 3047 1100 
L 3047 0 
L 2419 0 
L 2419 1100 
L 313 1100 
L 313 1709 
L 2253 4666 
z
" transform="scale(0.015625)"/>
       </defs>
       <use xlink:href="#DejaVuSans-34"/>
      </g>
     </g>
    </g>
    <g id="ytick_6">
     <g id="line2d_12">
      <g>
       <use xlink:href="#mcd29bba041" x="52.94" y="153.338493" style="fill: #ff4500; stroke: #ff4500; stroke-width: 0.8"/>
      </g>
     </g>
     <g id="text_6">
      <!-- 5 -->
      <g style="fill: #ff4500" transform="translate(39.5775 157.137712) scale(0.1 -0.1)">
       <defs>
        <path id="DejaVuSans-35" d="M 691 4666 
L 3169 4666 
L 3169 4134 
L 1269 4134 
L 1269 2991 
Q 1406 3038 1543 3061 
Q 1681 3084 1819 3084 
Q 2600 3084 3056 2656 
Q 3513 2228 3513 1497 
Q 3513 744 3044 326 
Q 2575 -91 1722 -91 
Q 1428 -91 1123 -41 
Q 819 9 494 109 
L 494 744 
Q 775 591 1075 516 
Q 1375 441 1709 441 
Q 2250 441 2565 725 
Q 2881 1009 2881 1497 
Q 2881 1984 2565 2268 
Q 2250 2553 1709 2553 
Q 1456 2553 1204 2497 
Q 953 2441 691 2322 
L 691 4666 
z
" transform="scale(0.015625)"/>
       </defs>
       <use xlink:href="#DejaVuSans-35"/>
      </g>
     </g>
    </g>
    <g id="ytick_7">
     <g id="line2d_13">
      <g>
       <use xlink:href="#mcd29bba041" x="52.94" y="128.224838" style="fill: #ff4500; stroke: #ff4500; stroke-width: 0.8"/>
      </g>
     </g>
     <g id="text_7">
      <!-- 6 -->
      <g style="fill: #ff4500" transform="translate(39.5775 132.024057) scale(0.1 -0.1)">
       <defs>
        <path id="DejaVuSans-36" d="M 2113 2584 
Q 1688 2584 1439 2293 
Q 1191 2003 1191 1497 
Q 1191 994 1439 701 
Q 1688 409 2113 409 
Q 2538 409 2786 701 
Q 3034 994 3034 1497 
Q 3034 2003 2786 2293 
Q 2538 2584 2113 2584 
z
M 3366 4563 
L 3366 3988 
Q 3128 4100 2886 4159 
Q 2644 4219 2406 4219 
Q 1781 4219 1451 3797 
Q 1122 3375 1075 2522 
Q 1259 2794 1537 2939 
Q 1816 3084 2150 3084 
Q 2853 3084 3261 2657 
Q 3669 2231 3669 1497 
Q 3669 778 3244 343 
Q 2819 -91 2113 -91 
Q 1303 -91 875 529 
Q 447 1150 447 2328 
Q 447 3434 972 4092 
Q 1497 4750 2381 4750 
Q 2619 4750 2861 4703 
Q 3103 4656 3366 4563 
z
" transform="scale(0.015625)"/>
       </defs>
       <use xlink:href="#DejaVuSans-36"/>
      </g>
     </g>
    </g>
    <g id="ytick_8">
     <g id="line2d_14">
      <g>
       <use xlink:href="#mcd29bba041" x="52.94" y="103.111183" style="fill: #ff4500; stroke: #ff4500; stroke-width: 0.8"/>
      </g>
     </g>
     <g id="text_8">
      <!-- 7 -->
      <g style="fill: #ff4500" transform="translate(39.5775 106.910402) scale(0.1 -0.1)">
       <defs>
        <path id="DejaVuSans-37" d="M 525 4666 
L 3525 4666 
L 3525 4397 
L 1831 0 
L 1172 0 
L 2766 4134 
L 525 4134 
L 525 4666 
z
" transform="scale(0.015625)"/>
       </defs>
       <use xlink:href="#DejaVuSans-37"/>
      </g>
     </g>
    </g>
    <g id="ytick_9">
     <g id="line2d_15">
      <g>
       <use xlink:href="#mcd29bba041" x="52.94" y="77.997529" style="fill: #ff4500; stroke: #ff4500; stroke-width: 0.8"/>
      </g>
     </g>
     <g id="text_9">
      <!-- 8 -->
      <g style="fill: #ff4500" transform="translate(39.5775 81.796747) scale(0.1 -0.1)">
       <defs>
        <path id="DejaVuSans-38" d="M 2034 2216 
Q 1584 2216 1326 1975 
Q 1069 1734 1069 1313 
Q 1069 891 1326 650 
Q 1584 409 2034 409 
Q 2484 409 2743 651 
Q 3003 894 3003 1313 
Q 3003 1734 2745 1975 
Q 2488 2216 2034 2216 
z
M 1403 2484 
Q 997 2584 770 2862 
Q 544 3141 544 3541 
Q 544 4100 942 4425 
Q 1341 4750 2034 4750 
Q 2731 4750 3128 4425 
Q 3525 4100 3525 3541 
Q 3525 3141 3298 2862 
Q 3072 2584 2669 2484 
Q 3125 2378 3379 2068 
Q 3634 1759 3634 1313 
Q 3634 634 3220 271 
Q 2806 -91 2034 -91 
Q 1263 -91 848 271 
Q 434 634 434 1313 
Q 434 1759 690 2068 
Q 947 2378 1403 2484 
z
M 1172 3481 
Q 1172 3119 1398 2916 
Q 1625 2713 2034 2713 
Q 2441 2713 2670 2916 
Q 2900 3119 2900 3481 
Q 2900 3844 2670 4047 
Q 2441 4250 2034 4250 
Q 1625 4250 1398 4047 
Q 1172 3844 1172 3481 
z
" transform="scale(0.015625)"/>
       </defs>
       <use xlink:href="#DejaVuSans-38"/>
      </g>
     </g>
    </g>
    <g id="text_10">
     <!-- Output Voltage -->
     <g style="fill: #ff4500" transform="translate(33.497812 218.888281) rotate(-90) scale(0.1 -0.1)">
      <defs>
       <path id="DejaVuSans-4f" d="M 2522 4238 
Q 1834 4238 1429 3725 
Q 1025 3213 1025 2328 
Q 1025 1447 1429 934 
Q 1834 422 2522 422 
Q 3209 422 3611 934 
Q 4013 1447 4013 2328 
Q 4013 3213 3611 3725 
Q 3209 4238 2522 4238 
z
M 2522 4750 
Q 3503 4750 4090 4092 
Q 4678 3434 4678 2328 
Q 4678 1225 4090 567 
Q 3503 -91 2522 -91 
Q 1538 -91 948 565 
Q 359 1222 359 2328 
Q 359 3434 948 4092 
Q 1538 4750 2522 4750 
z
" transform="scale(0.015625)"/>
       <path id="DejaVuSans-75" d="M 544 1381 
L 544 3500 
L 1119 3500 
L 1119 1403 
Q 1119 906 1312 657 
Q 1506 409 1894 409 
Q 2359 409 2629 706 
Q 2900 1003 2900 1516 
L 2900 3500 
L 3475 3500 
L 3475 0 
L 2900 0 
L 2900 538 
Q 2691 219 2414 64 
Q 2138 -91 1772 -91 
Q 1169 -91 856 284 
Q 544 659 544 1381 
z
M 1991 3584 
L 1991 3584 
z
" transform="scale(0.015625)"/>
       <path id="DejaVuSans-74" d="M 1172 4494 
L 1172 3500 
L 2356 3500 
L 2356 3053 
L 1172 3053 
L 1172 1153 
Q 1172 725 1289 603 
Q 1406 481 1766 481 
L 2356 481 
L 2356 0 
L 1766 0 
Q 1100 0 847 248 
Q 594 497 594 1153 
L 594 3053 
L 172 3053 
L 172 3500 
L 594 3500 
L 594 4494 
L 1172 4494 
z
" transform="scale(0.015625)"/>
       <path id="DejaVuSans-70" d="M 1159 525 
L 1159 -1331 
L 581 -1331 
L 581 3500 
L 1159 3500 
L 1159 2969 
Q 1341 3281 1617 3432 
Q 1894 3584 2278 3584 
Q 2916 3584 3314 3078 
Q 3713 2572 3713 1747 
Q 3713 922 3314 415 
Q 2916 -91 2278 -91 
Q 1894 -91 1617 61 
Q 1341 213 1159 525 
z
M 3116 1747 
Q 3116 2381 2855 2742 
Q 2594 3103 2138 3103 
Q 1681 3103 1420 2742 
Q 1159 2381 1159 1747 
Q 1159 1113 1420 752 
Q 1681 391 2138 391 
Q 2594 391 2855 752 
Q 3116 1113 3116 1747 
z
" transform="scale(0.015625)"/>
       <path id="DejaVuSans-20" transform="scale(0.015625)"/>
       <path id="DejaVuSans-56" d="M 1831 0 
L 50 4666 
L 709 4666 
L 2188 738 
L 3669 4666 
L 4325 4666 
L 2547 0 
L 1831 0 
z
" transform="scale(0.015625)"/>
       <path id="DejaVuSans-6f" d="M 1959 3097 
Q 1497 3097 1228 2736 
Q 959 2375 959 1747 
Q 959 1119 1226 758 
Q 1494 397 1959 397 
Q 2419 397 2687 759 
Q 2956 1122 2956 1747 
Q 2956 2369 2687 2733 
Q 2419 3097 1959 3097 
z
M 1959 3584 
Q 2709 3584 3137 3096 
Q 3566 2609 3566 1747 
Q 3566 888 3137 398 
Q 2709 -91 1959 -91 
Q 1206 -91 779 398 
Q 353 888 353 1747 
Q 353 2609 779 3096 
Q 1206 3584 1959 3584 
z
" transform="scale(0.015625)"/>
       <path id="DejaVuSans-6c" d="M 603 4863 
L 1178 4863 
L 1178 0 
L 603 0 
L 603 4863 
z
" transform="scale(0.015625)"/>
       <path id="DejaVuSans-61" d="M 2194 1759 
Q 1497 1759 1228 1600 
Q 959 1441 959 1056 
Q 959 750 1161 570 
Q 1363 391 1709 391 
Q 2188 391 2477 730 
Q 2766 1069 2766 1631 
L 2766 1759 
L 2194 1759 
z
M 3341 1997 
L 3341 0 
L 2766 0 
L 2766 531 
Q 2569 213 2275 61 
Q 1981 -91 1556 -91 
Q 1019 -91 701 211 
Q 384 513 384 1019 
Q 384 1609 779 1909 
Q 1175 2209 1959 2209 
L 2766 2209 
L 2766 2266 
Q 2766 2663 2505 2880 
Q 2244 3097 1772 3097 
Q 1472 3097 1187 3025 
Q 903 2953 641 2809 
L 641 3341 
Q 956 3463 1253 3523 
Q 1550 3584 1831 3584 
Q 2591 3584 2966 3190 
Q 3341 2797 3341 1997 
z
" transform="scale(0.015625)"/>
       <path id="DejaVuSans-67" d="M 2906 1791 
Q 2906 2416 2648 2759 
Q 2391 3103 1925 3103 
Q 1463 3103 1205 2759 
Q 947 2416 947 1791 
Q 947 1169 1205 825 
Q 1463 481 1925 481 
Q 2391 481 2648 825 
Q 2906 1169 2906 1791 
z
M 3481 434 
Q 3481 -459 3084 -895 
Q 2688 -1331 1869 -1331 
Q 1566 -1331 1297 -1286 
Q 1028 -1241 775 -1147 
L 775 -588 
Q 1028 -725 1275 -790 
Q 1522 -856 1778 -856 
Q 2344 -856 2625 -561 
Q 2906 -266 2906 331 
L 2906 616 
Q 2728 306 2450 153 
Q 2172 0 1784 0 
Q 1141 0 747 490 
Q 353 981 353 1791 
Q 353 2603 747 3093 
Q 1141 3584 1784 3584 
Q 2172 3584 2450 3431 
Q 2728 3278 2906 2969 
L 2906 3500 
L 3481 3500 
L 3481 434 
z
" transform="scale(0.015625)"/>
       <path id="DejaVuSans-65" d="M 3597 1894 
L 3597 1613 
L 953 1613 
Q 991 1019 1311 708 
Q 1631 397 2203 397 
Q 2534 397 2845 478 
Q 3156 559 3463 722 
L 3463 178 
Q 3153 47 2828 -22 
Q 2503 -91 2169 -91 
Q 1331 -91 842 396 
Q 353 884 353 1716 
Q 353 2575 817 3079 
Q 1281 3584 2069 3584 
Q 2775 3584 3186 3129 
Q 3597 2675 3597 1894 
z
M 3022 2063 
Q 3016 2534 2758 2815 
Q 2500 3097 2075 3097 
Q 1594 3097 1305 2825 
Q 1016 2553 972 2059 
L 3022 2063 
z
" transform="scale(0.015625)"/>
      </defs>
      <use xlink:href="#DejaVuSans-4f"/>
      <use xlink:href="#DejaVuSans-75" x="78.710938"/>
      <use xlink:href="#DejaVuSans-74" x="142.089844"/>
      <use xlink:href="#DejaVuSans-70" x="181.298828"/>
      <use xlink:href="#DejaVuSans-75" x="244.775391"/>
      <use xlink:href="#DejaVuSans-74" x="308.154297"/>
      <use xlink:href="#DejaVuSans-20" x="347.363281"/>
      <use xlink:href="#DejaVuSans-56" x="379.150391"/>
      <use xlink:href="#DejaVuSans-6f" x="439.808594"/>
      <use xlink:href="#DejaVuSans-6c" x="500.990234"/>
      <use xlink:href="#DejaVuSans-74" x="528.773438"/>
      <use xlink:href="#DejaVuSans-61" x="567.982422"/>
      <use xlink:href="#DejaVuSans-67" x="629.261719"/>
      <use xlink:href="#DejaVuSans-65" x="692.738281"/>
     </g>
    </g>
   </g>
   <g id="line2d_16">
    <path d="M 81.091818 278.897727 
L 81.896232 278.593057 
L 83.773199 278.809291 
L 84.577613 278.541346 
L 86.24007 278.777991 
L 86.561835 278.74202 
L 86.937229 278.529805 
L 87.36625 278.555394 
L 88.760568 278.761296 
L 89.243216 278.739227 
L 89.618609 278.527608 
L 90.04763 278.553739 
L 91.441948 278.760596 
L 91.924597 278.738708 
L 92.29999 278.527199 
L 92.729011 278.553431 
L 94.123329 278.760466 
L 94.605978 278.738612 
L 94.981371 278.527123 
L 95.410392 278.553374 
L 96.80471 278.760442 
L 97.287359 278.738594 
L 97.662752 278.527109 
L 98.091773 278.553363 
L 99.486091 278.760438 
L 99.96874 278.73859 
L 100.344133 278.527106 
L 100.773154 278.553361 
L 102.167472 278.760437 
L 102.650121 278.73859 
L 103.025514 278.527106 
L 103.454535 278.553361 
L 104.848853 278.760437 
L 105.331502 278.73859 
L 105.706895 278.527106 
L 106.135916 278.553361 
L 107.530234 278.760436 
L 108.012883 278.716036 
L 108.173765 278.257166 
L 108.97818 275.000025 
L 109.407201 274.162499 
L 109.782594 273.823048 
L 110.157987 273.774135 
L 110.533381 273.955718 
L 110.694263 274.005834 
L 110.855146 273.668318 
L 111.605933 271.075357 
L 112.034954 270.436073 
L 112.410347 270.266379 
L 112.732113 270.351203 
L 113.161134 270.725229 
L 113.429272 270.88036 
L 113.590155 270.468399 
L 114.126431 268.707994 
L 114.555452 268.032633 
L 114.877218 267.864767 
L 115.198983 267.93041 
L 115.574377 268.245445 
L 116.110653 268.836312 
L 116.271536 268.472822 
L 116.807812 266.865515 
L 117.183205 266.344167 
L 117.504971 266.213908 
L 117.826737 266.32111 
L 118.255758 266.758795 
L 118.792034 267.462843 
L 118.845661 267.401945 
L 119.060172 266.749521 
L 119.489193 265.6262 
L 119.864586 265.171511 
L 120.186352 265.095492 
L 120.508118 265.254398 
L 120.937139 265.757287 
L 121.473415 266.537204 
L 121.527042 266.483569 
L 121.741553 265.859611 
L 122.170574 264.790612 
L 122.545967 264.380711 
L 122.867733 264.341158 
L 123.189498 264.534839 
L 123.618519 265.081606 
L 124.154796 265.912603 
L 124.208423 265.863859 
L 124.422934 265.259074 
L 124.851955 264.226673 
L 125.227348 263.846957 
L 125.549114 263.831984 
L 125.870879 264.049112 
L 126.2999 264.625467 
L 126.836177 265.490918 
L 126.889804 265.445474 
L 127.104315 264.853623 
L 127.533336 263.845914 
L 127.908729 263.486566 
L 128.230495 263.488181 
L 128.55226 263.721133 
L 128.981281 264.317459 
L 129.517557 265.206167 
L 129.571185 265.162949 
L 129.785696 264.57983 
L 130.214716 263.588791 
L 130.59011 263.243194 
L 130.911876 263.256008 
L 131.287269 263.559539 
L 131.769917 264.303713 
L 132.198938 265.013865 
L 132.306194 264.880206 
L 133.05698 263.218214 
L 133.378746 263.057032 
L 133.700512 263.159513 
L 134.075905 263.548075 
L 134.612181 264.486548 
L 135.148457 265.365989 
L 135.791989 266.691412 
L 136.810914 269.4005 
L 137.829838 272.032145 
L 139.009646 274.811926 
L 139.706805 276.274124 
L 140.189453 276.903919 
L 140.511219 277.051817 
L 142.549069 278.361485 
L 142.870834 278.400717 
L 143.1926 278.266342 
L 143.621621 278.333982 
L 144.747801 278.625732 
L 145.552215 278.67582 
L 145.927609 278.477709 
L 146.35663 278.516144 
L 147.69732 278.739393 
L 148.233596 278.72692 
L 148.60899 278.517922 
L 149.03801 278.546441 
L 150.432329 278.757512 
L 150.914977 278.73642 
L 151.29037 278.525398 
L 151.719391 278.552074 
L 153.113709 278.759893 
L 153.596358 278.738186 
L 153.971751 278.526788 
L 154.400772 278.553122 
L 155.79509 278.760335 
L 156.277739 278.738515 
L 156.653132 278.527047 
L 157.082153 278.553316 
L 158.476471 278.760418 
L 158.95912 278.738576 
L 159.334513 278.527095 
L 159.763534 278.553352 
L 161.157852 278.760433 
L 161.640501 278.716033 
L 161.801384 278.257164 
L 162.069522 276.580521 
L 162.605798 273.253326 
L 163.088446 271.449972 
L 163.517467 270.56957 
L 163.892861 270.234359 
L 164.429137 269.928077 
L 164.643647 268.910238 
L 165.340806 264.879419 
L 165.769827 263.588074 
L 166.145221 263.037886 
L 166.466986 262.910967 
L 166.788752 263.042453 
L 167.003263 263.164585 
L 167.164145 262.870934 
L 167.432284 261.492879 
L 167.914932 259.022683 
L 168.343953 257.843261 
L 168.665719 257.452857 
L 168.933857 257.391343 
L 169.255623 257.580035 
L 169.738271 258.091963 
L 169.791899 258.028774 
L 169.952782 257.5566 
L 170.864451 253.867365 
L 171.186217 253.465373 
L 171.454355 253.41591 
L 171.722493 253.583933 
L 172.097886 254.120341 
L 172.419652 254.606827 
L 172.526907 254.484357 
L 172.741418 253.69076 
L 173.224066 251.606469 
L 173.59946 250.821495 
L 173.921225 250.618442 
L 174.189363 250.721313 
L 174.511129 251.114353 
L 175.154661 252.208501 
L 175.208288 252.141254 
L 175.369171 251.664487 
L 176.012702 249.228221 
L 176.334468 248.768535 
L 176.602606 248.702719 
L 176.870744 248.878604 
L 177.246138 249.45965 
L 177.836041 250.60674 
L 177.889669 250.551932 
L 178.050552 250.111914 
L 178.640456 247.92584 
L 178.962221 247.454783 
L 179.23036 247.387698 
L 179.498498 247.568566 
L 179.873891 248.165242 
L 180.517422 249.522988 
L 180.57105 249.47663 
L 180.731933 249.061573 
L 181.321837 246.962177 
L 181.643602 246.535368 
L 181.91174 246.503606 
L 182.179879 246.718447 
L 182.555272 247.360509 
L 183.198803 248.790501 
L 183.252431 248.749864 
L 183.413314 248.351704 
L 184.003218 246.31097 
L 184.324983 245.914097 
L 184.593121 245.906231 
L 184.861259 246.144049 
L 185.236653 246.816806 
L 185.880184 248.295645 
L 185.933812 248.258876 
L 186.094695 247.872139 
L 186.684598 245.871057 
L 187.006364 245.494418 
L 187.274502 245.502701 
L 187.54264 245.756047 
L 187.918034 246.449545 
L 188.829703 248.875525 
L 189.526862 251.267499 
L 190.70667 256.243421 
L 191.618339 259.831591 
L 194.514231 270.227364 
L 196.498453 275.727075 
L 196.981101 276.322553 
L 197.839143 277.390679 
L 198.58993 277.955145 
L 199.179833 278.186562 
L 199.501599 278.091914 
L 199.93062 278.202683 
L 200.949545 278.536615 
L 201.861214 278.636034 
L 202.236608 278.446401 
L 202.665629 278.492557 
L 203.952692 278.723233 
L 204.542595 278.719523 
L 204.917989 278.512101 
L 205.34701 278.542056 
L 206.6877 278.750713 
L 207.223976 278.735045 
L 207.59937 278.524316 
L 208.02839 278.551259 
L 209.422709 278.759548 
L 209.905357 278.737931 
L 210.28075 278.526587 
L 210.709771 278.55297 
L 212.104089 278.760271 
L 212.586738 278.738467 
L 212.962131 278.527009 
L 213.391152 278.553288 
L 214.78547 278.760406 
L 215.268119 278.716013 
L 216.233416 277.080029 
L 216.608809 276.964186 
L 216.984203 277.064897 
L 217.466851 277.437234 
L 217.9495 277.754172 
L 218.324893 277.093188 
L 218.753914 276.66707 
L 219.129307 276.584593 
L 219.558328 276.748304 
L 220.094605 277.239957 
L 220.630881 277.649085 
L 220.952646 277.089065 
L 221.381667 276.632701 
L 221.757061 276.529938 
L 222.132454 276.644802 
L 222.615103 277.038711 
L 223.312262 277.631069 
L 223.634027 277.07432 
L 224.063048 276.621561 
L 224.438442 276.521359 
L 224.813835 276.638324 
L 225.296484 277.034386 
L 225.993643 277.628346 
L 226.315408 277.072086 
L 226.744429 276.619868 
L 227.119823 276.520049 
L 227.495216 276.63733 
L 227.977864 277.033715 
L 228.675024 277.627921 
L 228.996789 277.071739 
L 229.42581 276.619604 
L 229.801203 276.519845 
L 230.176597 276.637175 
L 230.659245 277.033611 
L 231.356404 277.627856 
L 231.67817 277.071685 
L 232.107191 276.619564 
L 232.482584 276.519814 
L 232.857978 276.637152 
L 233.340626 277.033595 
L 234.037785 277.627846 
L 234.359551 277.071677 
L 234.788572 276.619557 
L 235.163965 276.519809 
L 235.539359 276.637148 
L 236.022007 277.033592 
L 236.719166 277.627844 
L 237.040932 277.071675 
L 237.469953 276.619556 
L 237.845346 276.519808 
L 238.22074 276.637147 
L 238.703388 277.033592 
L 239.400547 277.627844 
L 239.722313 277.071675 
L 240.151334 276.619556 
L 240.526727 276.519808 
L 240.90212 276.637147 
L 241.384769 277.033592 
L 242.081928 277.650267 
L 242.403694 277.664668 
L 242.886342 277.925107 
L 243.744384 278.336318 
L 244.709681 278.564345 
L 245.40684 278.390971 
L 246.962041 278.711658 
L 247.44469 278.702398 
L 247.820083 278.498626 
L 248.249104 278.531904 
L 249.589795 278.746278 
L 250.126071 278.731862 
L 250.501464 278.521811 
L 250.930485 278.549371 
L 252.324803 278.758751 
L 252.807452 278.737339 
L 253.182845 278.526121 
L 253.611866 278.552619 
L 255.006184 278.760123 
L 255.488833 278.738357 
L 255.864226 278.526923 
L 256.293247 278.553223 
L 257.687565 278.760378 
L 258.170214 278.738546 
L 258.545607 278.527072 
L 258.974628 278.553335 
L 260.368946 278.760426 
L 260.851594 278.738582 
L 261.226988 278.5271 
L 261.656009 278.553356 
L 263.050327 278.760434 
L 263.532975 278.738588 
L 263.908369 278.527105 
L 264.33739 278.55336 
L 265.731708 278.760436 
L 266.214356 278.738589 
L 266.58975 278.527106 
L 267.018771 278.553361 
L 268.413089 278.760436 
L 268.895737 278.716036 
L 269.05662 278.257166 
L 269.324758 276.561484 
L 269.700151 272.54435 
L 270.290055 263.301828 
L 271.630746 240.600021 
L 272.274277 230.882077 
L 273.293202 211.410108 
L 273.990361 199.232127 
L 275.384679 181.396498 
L 276.725369 161.936151 
L 277.637039 154.719601 
L 278.441453 145.432488 
L 279.245867 136.314665 
L 279.567633 134.981743 
L 279.889399 133.821685 
L 280.31842 131.294813 
L 280.961951 125.98364 
L 281.980876 117.371642 
L 282.195386 117.052983 
L 282.409897 116.958738 
L 282.624407 116.552449 
L 282.946173 115.410921 
L 283.428822 112.742449 
L 284.125981 107.466564 
L 284.501374 105.029411 
L 284.715885 104.613813 
L 284.82314 104.649061 
L 285.198533 105.022919 
L 285.413044 104.825287 
L 285.681182 104.18722 
L 286.110203 102.424232 
L 286.700106 98.887413 
L 287.182755 96.197709 
L 287.343638 96.027299 
L 287.504521 96.220851 
L 287.933542 97.08357 
L 288.148052 97.055405 
L 288.362563 96.748195 
L 288.684328 95.841355 
L 289.166977 93.678948 
L 289.917764 90.168273 
L 290.025019 90.189485 
L 290.185902 90.51853 
L 290.66855 91.790401 
L 290.883061 91.852816 
L 291.097571 91.640465 
L 291.419337 90.882174 
L 291.848358 89.20597 
L 292.599144 86.16015 
L 292.7064 86.243725 
L 292.92091 86.878342 
L 293.296303 88.107664 
L 293.564442 88.372284 
L 293.778952 88.267435 
L 294.04709 87.798209 
L 294.422483 86.616336 
L 295.280525 83.452273 
L 295.441408 83.70104 
L 295.709546 84.813525 
L 296.031312 86.950178 
L 296.513961 91.962129 
L 297.21112 101.881695 
L 298.444555 123.334894 
L 301.93035 182.473839 
L 303.592806 205.34397 
L 304.558103 216.19998 
L 306.113304 231.711219 
L 307.024974 239.06626 
L 308.68743 250.766805 
L 309.545472 255.617831 
L 311.583321 265.43036 
L 312.173225 267.547651 
L 314.479213 274.932529 
L 315.122744 276.045925 
L 315.819903 277.059995 
L 316.57069 277.747999 
L 317.160594 278.042942 
L 317.482359 277.97496 
L 317.91138 278.114501 
L 318.876677 278.475583 
L 319.788347 278.632436 
L 320.485506 278.434108 
L 322.147962 278.739196 
L 322.523355 278.692005 
L 323.488653 277.067416 
L 323.864046 276.954671 
L 324.239439 277.057918 
L 324.722088 277.432756 
L 325.204736 277.750837 
L 325.58013 277.090537 
L 326.009151 276.665056 
L 326.384544 276.583033 
L 326.813565 276.747164 
L 327.349841 277.239215 
L 327.886117 277.64855 
L 328.207883 277.088627 
L 328.636904 276.632369 
L 329.012297 276.529682 
L 329.387691 276.644608 
L 329.870339 277.038581 
L 330.567498 277.630987 
L 330.889264 277.074253 
L 331.318285 276.62151 
L 331.693678 276.521319 
L 332.069071 276.638294 
L 332.55172 277.034366 
L 333.248879 277.628333 
L 333.570645 277.072076 
L 333.999666 276.61986 
L 334.375059 276.520043 
L 334.750452 276.637325 
L 335.233101 277.033711 
L 335.93026 277.627919 
L 336.252026 277.071737 
L 336.681047 276.619603 
L 337.05644 276.519844 
L 337.431833 276.637175 
L 337.914482 277.03361 
L 338.611641 277.627856 
L 338.933407 277.071685 
L 339.362428 276.619563 
L 339.737821 276.519814 
L 340.113214 276.637151 
L 340.595863 277.033595 
L 341.293022 277.627846 
L 341.614787 277.071677 
L 342.043808 276.619557 
L 342.419202 276.519809 
L 342.794595 276.637148 
L 343.277244 277.033592 
L 343.974403 277.627844 
L 344.296168 277.071675 
L 344.725189 276.619556 
L 345.100583 276.519808 
L 345.475976 276.637147 
L 345.958625 277.033592 
L 346.655784 277.627844 
L 346.977549 277.071675 
L 347.40657 276.619556 
L 347.781964 276.519808 
L 348.157357 276.637147 
L 348.640005 277.033592 
L 349.337164 277.650267 
L 349.65893 277.664668 
L 350.141579 277.925107 
L 350.999621 278.336318 
L 351.964918 278.564345 
L 352.662077 278.390971 
L 354.217278 278.711658 
L 354.699926 278.702398 
L 355.07532 278.498626 
L 355.504341 278.531904 
L 356.845031 278.746278 
L 357.381307 278.731862 
L 357.756701 278.521811 
L 358.185721 278.549371 
L 359.58004 278.758751 
L 360.062688 278.737339 
L 360.438081 278.526121 
L 360.867102 278.552619 
L 362.26142 278.760123 
L 362.744069 278.738357 
L 363.119462 278.526923 
L 363.548483 278.553223 
L 364.942801 278.760378 
L 365.42545 278.738546 
L 365.800843 278.527072 
L 366.229864 278.553335 
L 367.624182 278.760426 
L 368.106831 278.738582 
L 368.482224 278.5271 
L 368.911245 278.553356 
L 370.305563 278.760434 
L 370.788212 278.738588 
L 371.163605 278.527105 
L 371.592626 278.55336 
L 372.986944 278.760436 
L 373.469593 278.738589 
L 373.844986 278.527106 
L 374.274007 278.553361 
L 375.668325 278.760436 
L 376.150974 278.73859 
L 376.526367 278.527106 
L 376.955388 278.553361 
L 378.349706 278.760436 
L 378.832355 278.73859 
L 379.207748 278.527106 
L 379.636769 278.553361 
L 381.031087 278.760436 
L 381.513735 278.73859 
L 381.889129 278.527106 
L 382.31815 278.553361 
L 383.712468 278.760436 
L 384.195116 278.73859 
L 384.57051 278.527106 
L 384.999531 278.553361 
L 386.393849 278.760436 
L 386.876497 278.73859 
L 387.251891 278.527106 
L 387.680912 278.553361 
L 389.07523 278.760436 
L 389.557878 278.73859 
L 389.933271 278.527106 
L 390.362292 278.553361 
L 391.75661 278.760436 
L 392.239259 278.73859 
L 392.614652 278.527106 
L 393.043673 278.553361 
L 394.437991 278.760436 
L 394.92064 278.73859 
L 395.296033 278.527106 
L 395.725054 278.553361 
L 397.119372 278.760436 
L 397.602021 278.73859 
L 397.977414 278.527106 
L 398.406435 278.553361 
L 399.800753 278.760436 
L 400.283402 278.73859 
L 400.658795 278.527106 
L 401.087816 278.553361 
L 402.482134 278.760436 
L 402.964783 278.73859 
L 403.340176 278.527106 
L 403.769197 278.553361 
L 405.163515 278.760436 
L 405.646164 278.73859 
L 406.021557 278.527106 
L 406.450578 278.553361 
L 407.844896 278.760436 
L 408.327545 278.73859 
L 408.702938 278.527106 
L 409.131959 278.553361 
L 410.526277 278.760436 
L 411.008925 278.73859 
L 411.384319 278.527106 
L 411.81334 278.553361 
L 413.207658 278.760436 
L 413.690306 278.73859 
L 414.0657 278.527106 
L 414.494721 278.553361 
L 415.889039 278.760436 
L 416.371687 278.73859 
L 416.747081 278.527106 
L 417.176102 278.553361 
L 418.57042 278.760436 
L 419.053068 278.73859 
L 419.428461 278.527106 
L 419.857482 278.553361 
L 421.251801 278.760436 
L 421.734449 278.73859 
L 422.109842 278.527106 
L 422.538863 278.553361 
L 423.933181 278.760436 
L 424.41583 278.73859 
L 424.791223 278.527106 
L 425.220244 278.553361 
L 426.614562 278.760436 
L 427.097211 278.73859 
L 427.472604 278.527106 
L 427.901625 278.553361 
L 429.295943 278.760436 
L 429.778592 278.73859 
L 430.153985 278.527106 
L 430.583006 278.553361 
L 431.977324 278.760436 
L 432.459973 278.73859 
L 432.835366 278.527106 
L 433.264387 278.553361 
L 434.658705 278.760436 
L 435.141354 278.73859 
L 435.516747 278.527106 
L 435.945768 278.553361 
L 437.340086 278.760436 
L 437.822735 278.73859 
L 438.198128 278.527106 
L 438.627149 278.553361 
L 440.021467 278.760436 
L 440.504115 278.73859 
L 440.879509 278.527106 
L 441.30853 278.553361 
L 442.702848 278.760436 
L 443.185496 278.73859 
L 443.56089 278.527106 
L 443.989911 278.553361 
L 445.384229 278.760436 
L 445.866877 278.73859 
L 446.242271 278.527106 
L 446.671292 278.553361 
L 448.06561 278.760436 
L 448.548258 278.73859 
L 448.923652 278.527106 
L 449.352672 278.553361 
L 450.746991 278.760436 
L 451.229639 278.73859 
L 451.605032 278.527106 
L 452.034053 278.553361 
L 453.428371 278.760436 
L 453.91102 278.73859 
L 454.286413 278.527106 
L 454.715434 278.553361 
L 456.109752 278.760436 
L 456.592401 278.73859 
L 456.967794 278.527106 
L 457.396815 278.553361 
L 458.791133 278.760436 
L 459.273782 278.73859 
L 459.649175 278.527106 
L 460.078196 278.553361 
L 461.472514 278.760436 
L 461.955163 278.73859 
L 462.330556 278.527106 
L 462.759577 278.553361 
L 464.153895 278.760436 
L 464.636544 278.73859 
L 465.011937 278.527106 
L 465.440958 278.553361 
L 466.835276 278.760436 
L 467.317925 278.73859 
L 467.693318 278.527106 
L 468.122339 278.553361 
L 469.516657 278.760436 
L 469.999305 278.73859 
L 470.374699 278.527106 
L 470.80372 278.553361 
L 472.198038 278.760436 
L 472.680686 278.73859 
L 473.05608 278.527106 
L 473.485101 278.553361 
L 474.879419 278.760436 
L 475.362067 278.73859 
L 475.737461 278.527106 
L 476.166482 278.553361 
L 477.5608 278.760436 
L 478.043448 278.73859 
L 478.418842 278.527106 
L 478.847862 278.553361 
L 480.242181 278.760436 
L 480.724829 278.73859 
L 481.100222 278.527106 
L 481.529243 278.553361 
L 482.923561 278.760436 
L 483.40621 278.73859 
L 483.781603 278.527106 
L 484.210624 278.553361 
L 485.604942 278.760436 
L 486.087591 278.73859 
L 486.462984 278.527106 
L 486.892005 278.553361 
L 488.286323 278.760436 
L 488.768972 278.73859 
L 489.144365 278.527106 
L 489.573386 278.553361 
L 490.967704 278.760436 
L 491.450353 278.73859 
L 491.825746 278.527106 
L 492.254767 278.553361 
L 493.649085 278.760436 
L 494.131734 278.73859 
L 494.507127 278.527106 
L 494.936148 278.553361 
L 496.330466 278.760436 
L 496.813115 278.73859 
L 497.188508 278.527106 
L 497.617529 278.553361 
L 499.011847 278.760436 
L 499.494495 278.73859 
L 499.869889 278.527106 
L 500.29891 278.553361 
L 501.693228 278.760436 
L 502.175876 278.73859 
L 502.55127 278.527106 
L 502.980291 278.553361 
L 504.374609 278.760436 
L 504.857257 278.73859 
L 505.232651 278.527106 
L 505.661672 278.553361 
L 507.05599 278.760436 
L 507.538638 278.73859 
L 507.914032 278.527106 
L 508.343052 278.553361 
L 509.737371 278.760436 
L 510.220019 278.716036 
L 510.380902 278.257166 
L 511.507082 273.498919 
L 511.936103 272.822615 
L 512.311496 272.605479 
L 512.68689 272.664062 
L 512.9014 272.713089 
L 513.062283 272.351906 
L 514.134835 268.377551 
L 514.510229 267.930274 
L 514.831994 267.839977 
L 515.15376 267.969288 
L 515.636409 268.288489 
L 515.797291 267.869794 
L 516.49445 265.229519 
L 516.869844 264.589546 
L 517.19161 264.389765 
L 517.513375 264.451949 
L 517.888769 264.792109 
L 518.317789 265.257503 
L 518.478672 264.906152 
L 519.175831 262.542458 
L 519.551225 262.041505 
L 519.87299 261.955564 
L 520.194756 262.126833 
L 520.623777 262.673841 
L 520.99917 263.185254 
L 521.160053 262.88124 
L 521.857212 260.710924 
L 522.232606 260.3066 
L 522.554371 260.299534 
L 522.876137 260.546182 
L 523.305158 261.188505 
L 523.680551 261.778663 
L 523.787807 261.646154 
L 524.109572 260.505883 
L 524.538593 259.469265 
L 524.860359 259.151401 
L 525.128497 259.131644 
L 525.450263 259.351591 
L 525.879284 259.977577 
L 526.361932 260.826718 
L 526.41556 260.792685 
L 526.576443 260.399153 
L 527.059091 258.908157 
L 527.434485 258.40496 
L 527.702623 258.332641 
L 528.024388 258.504878 
L 528.399782 258.996946 
L 529.096941 260.154241 
L 529.150568 260.075532 
L 529.418706 259.18262 
L 529.847727 258.139136 
L 530.169493 257.827209 
L 530.437631 257.818243 
L 530.759397 258.056869 
L 531.188418 258.715441 
L 531.778322 259.722902 
L 531.939205 259.354246 
L 532.421853 257.934453 
L 532.797246 257.483281 
L 533.065384 257.446415 
L 533.38715 257.659401 
L 533.816171 258.294841 
L 534.459703 259.431546 
L 534.620585 259.06967 
L 535.103234 257.669282 
L 535.478627 257.232286 
L 535.746765 257.205079 
L 536.068531 257.429169 
L 536.497552 258.078621 
L 537.141083 259.23476 
L 537.301966 258.895253 
L 537.67736 258.080086 
L 537.999125 257.805087 
L 538.267263 257.821846 
L 538.589029 258.086153 
L 539.01805 258.771559 
L 539.822464 260.410897 
L 539.876092 260.347783 
L 540.573251 259.11079 
L 540.841389 259.052924 
L 541.163155 259.235268 
L 541.538548 259.730875 
L 542.074824 260.840624 
L 542.503845 261.606804 
L 542.664728 261.277319 
L 543.093749 260.39515 
L 543.415515 260.161936 
L 543.683653 260.195804 
L 544.005419 260.462928 
L 544.43444 261.127706 
L 545.185226 262.526813 
L 545.238854 262.453454 
L 545.936013 261.077683 
L 546.257779 260.966272 
L 546.579544 261.123141 
L 546.954938 261.579415 
L 547.491214 262.619685 
L 547.81298 263.207321 
L 547.920235 263.101503 
L 548.617394 261.66687 
L 548.939159 261.52984 
L 549.260925 261.662057 
L 549.636319 262.090773 
L 550.172595 263.093867 
L 550.49436 263.660403 
L 550.601616 263.547744 
L 551.298775 262.070943 
L 551.62054 261.915738 
L 551.942306 262.030558 
L 552.317699 262.439922 
L 552.853976 263.417055 
L 553.175741 263.968924 
L 553.282997 263.85152 
L 553.980156 262.345563 
L 554.301921 262.177839 
L 554.623687 262.2807 
L 554.99908 262.676788 
L 555.535357 263.636149 
L 555.857122 264.177996 
L 555.964377 264.057352 
L 556.661537 262.531516 
L 556.983302 262.355269 
L 557.305068 262.449994 
L 557.680461 262.837057 
L 558.216737 263.784349 
L 558.538503 264.319395 
L 558.645758 264.196553 
L 559.342917 262.657238 
L 559.664683 262.475215 
L 559.986449 262.564429 
L 560.361842 262.945381 
L 560.898118 263.884503 
L 561.219884 264.414947 
L 561.327139 264.290618 
L 562.077926 262.68998 
L 562.399692 262.553102 
L 562.721457 262.678768 
L 563.096851 263.093036 
L 563.633127 264.065864 
L 564.169403 264.977055 
L 564.812934 266.337445 
L 565.831859 269.095581 
L 566.850784 271.769468 
L 568.030592 274.590915 
L 568.781378 276.218926 
L 569.264027 276.809182 
L 569.746675 277.144765 
L 570.711972 277.939786 
L 571.623642 278.355848 
L 571.89178 278.381023 
L 572.213546 278.2503 
L 572.642567 278.321917 
L 573.768747 278.619721 
L 574.573161 278.672165 
L 574.948554 278.474833 
L 575.377575 278.513977 
L 576.718266 278.738447 
L 577.254542 278.72624 
L 577.629935 278.517387 
L 578.058956 278.546038 
L 579.453274 278.757342 
L 579.935923 278.736294 
L 580.311316 278.525299 
L 580.740337 278.551999 
L 582.134655 278.759861 
L 582.617304 278.738163 
L 582.992697 278.52677 
L 583.421718 278.553108 
L 584.816036 278.76033 
L 585.298685 278.73851 
L 585.674078 278.527043 
L 586.103099 278.553314 
L 587.497417 278.760417 
L 587.980066 278.738575 
L 588.355459 278.527094 
L 588.78448 278.553352 
L 590.178798 278.760433 
L 590.661446 278.738587 
L 591.03684 278.527104 
L 591.465861 278.553359 
L 592.860179 278.760436 
L 593.342827 278.738589 
L 593.718221 278.527105 
L 594.147242 278.55336 
L 595.54156 278.760436 
L 596.024208 278.73859 
L 596.399602 278.527106 
L 596.828623 278.553361 
L 598.222941 278.760436 
L 598.705589 278.73859 
L 599.080983 278.527106 
L 599.510003 278.553361 
L 600.904322 278.760436 
L 601.38697 278.73859 
L 601.762363 278.527106 
L 602.191384 278.553361 
L 603.585702 278.760436 
L 604.068351 278.73859 
L 604.443744 278.527106 
L 604.872765 278.553361 
L 606.267083 278.760437 
L 606.749732 278.73859 
L 607.125125 278.527106 
L 607.554146 278.553361 
L 608.948464 278.760437 
L 609.431113 278.73859 
L 609.806506 278.527106 
L 610.235527 278.553361 
L 611.629845 278.760437 
L 612.112494 278.73859 
L 612.487887 278.527106 
L 612.916908 278.553361 
L 614.311226 278.760437 
L 614.793875 278.73859 
L 615.169268 278.527106 
L 615.598289 278.553361 
L 616.992607 278.760437 
L 617.475256 278.716036 
L 617.689766 278.08185 
L 618.172415 276.782862 
L 618.601436 276.176811 
L 618.976829 275.976311 
L 619.352222 276.018616 
L 619.781243 276.299398 
L 620.210264 276.569557 
L 621.121934 275.068942 
L 621.497327 274.973882 
L 621.87272 275.10844 
L 622.355369 275.541054 
L 622.891645 276.072026 
L 623.856942 274.75454 
L 624.232335 274.754243 
L 624.661356 275.010482 
L 625.197633 275.618445 
L 625.573026 275.98295 
L 626.538323 274.718413 
L 626.913716 274.732179 
L 627.342737 275.001171 
L 627.879013 275.621093 
L 628.254407 275.991865 
L 629.219704 274.73768 
L 629.595097 274.75381 
L 630.024118 275.024676 
L 630.560394 275.645971 
L 630.935788 276.017206 
L 631.901085 274.762906 
L 632.276478 274.778637 
L 632.705499 275.048884 
L 633.241775 275.669232 
L 633.617169 276.039725 
L 634.582466 274.78336 
L 634.957859 274.798262 
L 635.38688 275.067565 
L 635.923156 275.686749 
L 636.29855 276.056446 
L 637.263847 274.798129 
L 637.63924 274.812316 
L 638.068261 275.080833 
L 638.604537 275.699084 
L 638.97993 276.068161 
L 639.945228 274.808372 
L 640.320621 274.822031 
L 640.749642 275.089977 
L 641.285918 275.707557 
L 641.661311 276.076191 
L 642.626609 274.815364 
L 643.002002 274.828656 
L 643.431023 275.096203 
L 643.967299 275.713318 
L 644.128182 275.94536 
L 644.128182 275.94536 
" clip-path="url(#p089b63ae7f)" style="fill: none; stroke: #ff4500; stroke-width: 1.5; stroke-linecap: square"/>
   </g>
   <g id="patch_3">
    <path d="M 52.94 288.67 
L 52.94 73.68 
" style="fill: none; stroke: #ff4500; stroke-width: 0.8; stroke-linejoin: miter; stroke-linecap: square"/>
   </g>
   <g id="patch_4">
    <path d="M 672.28 288.67 
L 672.28 73.68 
" style="fill: none; stroke: #000000; stroke-width: 0.8; stroke-linejoin: miter; stroke-linecap: square"/>
   </g>
   <g id="patch_5">
    <path d="M 52.94 288.67 
L 672.28 288.67 
" style="fill: none; stroke: #000000; stroke-width: 0.8; stroke-linejoin: miter; stroke-linecap: square"/>
   </g>
   <g id="patch_6">
    <path d="M 52.94 73.68 
L 672.28 73.68 
" style="fill: none; stroke: #808080; stroke-width: 0.8; stroke-linejoin: miter; stroke-linecap: square"/>
   </g>
   <g id="text_11">
    <!-- Output Voltage and Duty Cycle -->
    <g transform="translate(269.620312 67.68) scale(0.12 -0.12)">
     <defs>
      <path id="DejaVuSans-6e" d="M 3513 2113 
L 3513 0 
L 2938 0 
L 2938 2094 
Q 2938 2591 2744 2837 
Q 2550 3084 2163 3084 
Q 1697 3084 1428 2787 
Q 1159 2491 1159 1978 
L 1159 0 
L 581 0 
L 581 3500 
L 1159 3500 
L 1159 2956 
Q 1366 3272 1645 3428 
Q 1925 3584 2291 3584 
Q 2894 3584 3203 3211 
Q 3513 2838 3513 2113 
z
" transform="scale(0.015625)"/>
      <path id="DejaVuSans-64" d="M 2906 2969 
L 2906 4863 
L 3481 4863 
L 3481 0 
L 2906 0 
L 2906 525 
Q 2725 213 2448 61 
Q 2172 -91 1784 -91 
Q 1150 -91 751 415 
Q 353 922 353 1747 
Q 353 2572 751 3078 
Q 1150 3584 1784 3584 
Q 2172 3584 2448 3432 
Q 2725 3281 2906 2969 
z
M 947 1747 
Q 947 1113 1208 752 
Q 1469 391 1925 391 
Q 2381 391 2643 752 
Q 2906 1113 2906 1747 
Q 2906 2381 2643 2742 
Q 2381 3103 1925 3103 
Q 1469 3103 1208 2742 
Q 947 2381 947 1747 
z
" transform="scale(0.015625)"/>
      <path id="DejaVuSans-44" d="M 1259 4147 
L 1259 519 
L 2022 519 
Q 2988 519 3436 956 
Q 3884 1394 3884 2338 
Q 3884 3275 3436 3711 
Q 2988 4147 2022 4147 
L 1259 4147 
z
M 628 4666 
L 1925 4666 
Q 3281 4666 3915 4102 
Q 4550 3538 4550 2338 
Q 4550 1131 3912 565 
Q 3275 0 1925 0 
L 628 0 
L 628 4666 
z
" transform="scale(0.015625)"/>
      <path id="DejaVuSans-79" d="M 2059 -325 
Q 1816 -950 1584 -1140 
Q 1353 -1331 966 -1331 
L 506 -1331 
L 506 -850 
L 844 -850 
Q 1081 -850 1212 -737 
Q 1344 -625 1503 -206 
L 1606 56 
L 191 3500 
L 800 3500 
L 1894 763 
L 2988 3500 
L 3597 3500 
L 2059 -325 
z
" transform="scale(0.015625)"/>
      <path id="DejaVuSans-43" d="M 4122 4306 
L 4122 3641 
Q 3803 3938 3442 4084 
Q 3081 4231 2675 4231 
Q 1875 4231 1450 3742 
Q 1025 3253 1025 2328 
Q 1025 1406 1450 917 
Q 1875 428 2675 428 
Q 3081 428 3442 575 
Q 3803 722 4122 1019 
L 4122 359 
Q 3791 134 3420 21 
Q 3050 -91 2638 -91 
Q 1578 -91 968 557 
Q 359 1206 359 2328 
Q 359 3453 968 4101 
Q 1578 4750 2638 4750 
Q 3056 4750 3426 4639 
Q 3797 4528 4122 4306 
z
" transform="scale(0.015625)"/>
      <path id="DejaVuSans-63" d="M 3122 3366 
L 3122 2828 
Q 2878 2963 2633 3030 
Q 2388 3097 2138 3097 
Q 1578 3097 1268 2742 
Q 959 2388 959 1747 
Q 959 1106 1268 751 
Q 1578 397 2138 397 
Q 2388 397 2633 464 
Q 2878 531 3122 666 
L 3122 134 
Q 2881 22 2623 -34 
Q 2366 -91 2075 -91 
Q 1284 -91 818 406 
Q 353 903 353 1747 
Q 353 2603 823 3093 
Q 1294 3584 2113 3584 
Q 2378 3584 2631 3529 
Q 2884 3475 3122 3366 
z
" transform="scale(0.015625)"/>
     </defs>
     <use xlink:href="#DejaVuSans-4f"/>
     <use xlink:href="#DejaVuSans-75" x="78.710938"/>
     <use xlink:href="#DejaVuSans-74" x="142.089844"/>
     <use xlink:href="#DejaVuSans-70" x="181.298828"/>
     <use xlink:href="#DejaVuSans-75" x="244.775391"/>
     <use xlink:href="#DejaVuSans-74" x="308.154297"/>
     <use xlink:href="#DejaVuSans-20" x="347.363281"/>
     <use xlink:href="#DejaVuSans-56" x="379.150391"/>
     <use xlink:href="#DejaVuSans-6f" x="439.808594"/>
     <use xlink:href="#DejaVuSans-6c" x="500.990234"/>
     <use xlink:href="#DejaVuSans-74" x="528.773438"/>
     <use xlink:href="#DejaVuSans-61" x="567.982422"/>
     <use xlink:href="#DejaVuSans-67" x="629.261719"/>
     <use xlink:href="#DejaVuSans-65" x="692.738281"/>
     <use xlink:href="#DejaVuSans-20" x="754.261719"/>
     <use xlink:href="#DejaVuSans-61" x="786.048828"/>
     <use xlink:href="#DejaVuSans-6e" x="847.328125"/>
     <use xlink:href="#DejaVuSans-64" x="910.707031"/>
     <use xlink:href="#DejaVuSans-20" x="974.183594"/>
     <use xlink:href="#DejaVuSans-44" x="1005.970703"/>
     <use xlink:href="#DejaVuSans-75" x="1082.972656"/>
     <use xlink:href="#DejaVuSans-74" x="1146.351562"/>
     <use xlink:href="#DejaVuSans-79" x="1185.560547"/>
     <use xlink:href="#DejaVuSans-20" x="1244.740234"/>
     <use xlink:href="#DejaVuSans-43" x="1276.527344"/>
     <use xlink:href="#DejaVuSans-79" x="1346.351562"/>
     <use xlink:href="#DejaVuSans-63" x="1405.53125"/>
     <use xlink:href="#DejaVuSans-6c" x="1460.511719"/>
     <use xlink:href="#DejaVuSans-65" x="1488.294922"/>
    </g>
   </g>
  </g>
  <g id="axes_2">
   <g id="patch_7">
    <path d="M 52.94 534.04 
L 672.28 534.04 
L 672.28 319.05 
L 52.94 319.05 
z
" style="fill: #ffffff"/>
   </g>
   <g id="matplotlib.axis_3">
    <g id="xtick_7">
     <g id="line2d_17">
      <g>
       <use xlink:href="#m059875e419" x="81.091818" y="534.04" style="stroke: #000000; stroke-width: 0.8"/>
      </g>
     </g>
     <g id="text_12">
      <!-- 0.00 -->
      <g transform="translate(69.959006 548.638438) scale(0.1 -0.1)">
       <defs>
        <path id="DejaVuSans-2e" d="M 684 794 
L 1344 794 
L 1344 0 
L 684 0 
L 684 794 
z
" transform="scale(0.015625)"/>
       </defs>
       <use xlink:href="#DejaVuSans-30"/>
       <use xlink:href="#DejaVuSans-2e" x="63.623047"/>
       <use xlink:href="#DejaVuSans-30" x="95.410156"/>
       <use xlink:href="#DejaVuSans-30" x="159.033203"/>
      </g>
     </g>
    </g>
    <g id="xtick_8">
     <g id="line2d_18">
      <g>
       <use xlink:href="#m059875e419" x="188.347055" y="534.04" style="stroke: #000000; stroke-width: 0.8"/>
      </g>
     </g>
     <g id="text_13">
      <!-- 0.02 -->
      <g transform="translate(177.214242 548.638438) scale(0.1 -0.1)">
       <use xlink:href="#DejaVuSans-30"/>
       <use xlink:href="#DejaVuSans-2e" x="63.623047"/>
       <use xlink:href="#DejaVuSans-30" x="95.410156"/>
       <use xlink:href="#DejaVuSans-32" x="159.033203"/>
      </g>
     </g>
    </g>
    <g id="xtick_9">
     <g id="line2d_19">
      <g>
       <use xlink:href="#m059875e419" x="295.602291" y="534.04" style="stroke: #000000; stroke-width: 0.8"/>
      </g>
     </g>
     <g id="text_14">
      <!-- 0.04 -->
      <g transform="translate(284.469479 548.638438) scale(0.1 -0.1)">
       <use xlink:href="#DejaVuSans-30"/>
       <use xlink:href="#DejaVuSans-2e" x="63.623047"/>
       <use xlink:href="#DejaVuSans-30" x="95.410156"/>
       <use xlink:href="#DejaVuSans-34" x="159.033203"/>
      </g>
     </g>
    </g>
    <g id="xtick_10">
     <g id="line2d_20">
      <g>
       <use xlink:href="#m059875e419" x="402.857527" y="534.04" style="stroke: #000000; stroke-width: 0.8"/>
      </g>
     </g>
     <g id="text_15">
      <!-- 0.06 -->
      <g transform="translate(391.724715 548.638438) scale(0.1 -0.1)">
       <use xlink:href="#DejaVuSans-30"/>
       <use xlink:href="#DejaVuSans-2e" x="63.623047"/>
       <use xlink:href="#DejaVuSans-30" x="95.410156"/>
       <use xlink:href="#DejaVuSans-36" x="159.033203"/>
      </g>
     </g>
    </g>
    <g id="xtick_11">
     <g id="line2d_21">
      <g>
       <use xlink:href="#m059875e419" x="510.112764" y="534.04" style="stroke: #000000; stroke-width: 0.8"/>
      </g>
     </g>
     <g id="text_16">
      <!-- 0.08 -->
      <g transform="translate(498.979951 548.638438) scale(0.1 -0.1)">
       <use xlink:href="#DejaVuSans-30"/>
       <use xlink:href="#DejaVuSans-2e" x="63.623047"/>
       <use xlink:href="#DejaVuSans-30" x="95.410156"/>
       <use xlink:href="#DejaVuSans-38" x="159.033203"/>
      </g>
     </g>
    </g>
    <g id="xtick_12">
     <g id="line2d_22">
      <g>
       <use xlink:href="#m059875e419" x="617.368" y="534.04" style="stroke: #000000; stroke-width: 0.8"/>
      </g>
     </g>
     <g id="text_17">
      <!-- 0.10 -->
      <g transform="translate(606.235188 548.638438) scale(0.1 -0.1)">
       <use xlink:href="#DejaVuSans-30"/>
       <use xlink:href="#DejaVuSans-2e" x="63.623047"/>
       <use xlink:href="#DejaVuSans-31" x="95.410156"/>
       <use xlink:href="#DejaVuSans-30" x="159.033203"/>
      </g>
     </g>
    </g>
    <g id="text_18">
     <!-- Time -->
     <g transform="translate(350.376406 562.316563) scale(0.1 -0.1)">
      <defs>
       <path id="DejaVuSans-54" d="M -19 4666 
L 3928 4666 
L 3928 4134 
L 2272 4134 
L 2272 0 
L 1638 0 
L 1638 4134 
L -19 4134 
L -19 4666 
z
" transform="scale(0.015625)"/>
       <path id="DejaVuSans-69" d="M 603 3500 
L 1178 3500 
L 1178 0 
L 603 0 
L 603 3500 
z
M 603 4863 
L 1178 4863 
L 1178 4134 
L 603 4134 
L 603 4863 
z
" transform="scale(0.015625)"/>
       <path id="DejaVuSans-6d" d="M 3328 2828 
Q 3544 3216 3844 3400 
Q 4144 3584 4550 3584 
Q 5097 3584 5394 3201 
Q 5691 2819 5691 2113 
L 5691 0 
L 5113 0 
L 5113 2094 
Q 5113 2597 4934 2840 
Q 4756 3084 4391 3084 
Q 3944 3084 3684 2787 
Q 3425 2491 3425 1978 
L 3425 0 
L 2847 0 
L 2847 2094 
Q 2847 2600 2669 2842 
Q 2491 3084 2119 3084 
Q 1678 3084 1418 2786 
Q 1159 2488 1159 1978 
L 1159 0 
L 581 0 
L 581 3500 
L 1159 3500 
L 1159 2956 
Q 1356 3278 1631 3431 
Q 1906 3584 2284 3584 
Q 2666 3584 2933 3390 
Q 3200 3197 3328 2828 
z
" transform="scale(0.015625)"/>
      </defs>
      <use xlink:href="#DejaVuSans-54"/>
      <use xlink:href="#DejaVuSans-69" x="57.958984"/>
      <use xlink:href="#DejaVuSans-6d" x="85.742188"/>
      <use xlink:href="#DejaVuSans-65" x="183.154297"/>
     </g>
    </g>
   </g>
   <g id="matplotlib.axis_4">
    <g id="ytick_10">
     <g id="line2d_23">
      <defs>
       <path id="m98e422e296" d="M 0 0 
L -3.5 0 
" style="stroke: #008000; stroke-width: 0.8"/>
      </defs>
      <g>
       <use xlink:href="#m98e422e296" x="52.94" y="524.286081" style="fill: #008000; stroke: #008000; stroke-width: 0.8"/>
      </g>
     </g>
     <g id="text_19">
      <!-- 60 -->
      <g style="fill: #008000" transform="translate(24.835313 528.0853) scale(0.1 -0.1)">
       <defs>
        <path id="DejaVuSans-2212" d="M 678 2272 
L 4684 2272 
L 4684 1741 
L 678 1741 
L 678 2272 
z
" transform="scale(0.015625)"/>
       </defs>
       <use xlink:href="#DejaVuSans-2212"/>
       <use xlink:href="#DejaVuSans-36" x="83.789062"/>
       <use xlink:href="#DejaVuSans-30" x="147.412109"/>
      </g>
     </g>
    </g>
    <g id="ytick_11">
     <g id="line2d_24">
      <g>
       <use xlink:href="#m98e422e296" x="52.94" y="491.392212" style="fill: #008000; stroke: #008000; stroke-width: 0.8"/>
      </g>
     </g>
     <g id="text_20">
      <!-- 50 -->
      <g style="fill: #008000" transform="translate(24.835313 495.191431) scale(0.1 -0.1)">
       <use xlink:href="#DejaVuSans-2212"/>
       <use xlink:href="#DejaVuSans-35" x="83.789062"/>
       <use xlink:href="#DejaVuSans-30" x="147.412109"/>
      </g>
     </g>
    </g>
    <g id="ytick_12">
     <g id="line2d_25">
      <g>
       <use xlink:href="#m98e422e296" x="52.94" y="458.498343" style="fill: #008000; stroke: #008000; stroke-width: 0.8"/>
      </g>
     </g>
     <g id="text_21">
      <!-- 40 -->
      <g style="fill: #008000" transform="translate(24.835313 462.297561) scale(0.1 -0.1)">
       <use xlink:href="#DejaVuSans-2212"/>
       <use xlink:href="#DejaVuSans-34" x="83.789062"/>
       <use xlink:href="#DejaVuSans-30" x="147.412109"/>
      </g>
     </g>
    </g>
    <g id="ytick_13">
     <g id="line2d_26">
      <g>
       <use xlink:href="#m98e422e296" x="52.94" y="425.604473" style="fill: #008000; stroke: #008000; stroke-width: 0.8"/>
      </g>
     </g>
     <g id="text_22">
      <!-- 30 -->
      <g style="fill: #008000" transform="translate(24.835313 429.403692) scale(0.1 -0.1)">
       <use xlink:href="#DejaVuSans-2212"/>
       <use xlink:href="#DejaVuSans-33" x="83.789062"/>
       <use xlink:href="#DejaVuSans-30" x="147.412109"/>
      </g>
     </g>
    </g>
    <g id="ytick_14">
     <g id="line2d_27">
      <g>
       <use xlink:href="#m98e422e296" x="52.94" y="392.710604" style="fill: #008000; stroke: #008000; stroke-width: 0.8"/>
      </g>
     </g>
     <g id="text_23">
      <!-- 20 -->
      <g style="fill: #008000" transform="translate(24.835313 396.509823) scale(0.1 -0.1)">
       <use xlink:href="#DejaVuSans-2212"/>
       <use xlink:href="#DejaVuSans-32" x="83.789062"/>
       <use xlink:href="#DejaVuSans-30" x="147.412109"/>
      </g>
     </g>
    </g>
    <g id="ytick_15">
     <g id="line2d_28">
      <g>
       <use xlink:href="#m98e422e296" x="52.94" y="359.816735" style="fill: #008000; stroke: #008000; stroke-width: 0.8"/>
      </g>
     </g>
     <g id="text_24">
      <!-- 10 -->
      <g style="fill: #008000" transform="translate(24.835313 363.615954) scale(0.1 -0.1)">
       <use xlink:href="#DejaVuSans-2212"/>
       <use xlink:href="#DejaVuSans-31" x="83.789062"/>
       <use xlink:href="#DejaVuSans-30" x="147.412109"/>
      </g>
     </g>
    </g>
    <g id="ytick_16">
     <g id="line2d_29">
      <g>
       <use xlink:href="#m98e422e296" x="52.94" y="326.922866" style="fill: #008000; stroke: #008000; stroke-width: 0.8"/>
      </g>
     </g>
     <g id="text_25">
      <!-- 0 -->
      <g style="fill: #008000" transform="translate(39.5775 330.722084) scale(0.1 -0.1)">
       <use xlink:href="#DejaVuSans-30"/>
      </g>
     </g>
    </g>
    <g id="text_26">
     <!-- Cost -->
     <g style="fill: #008000" transform="translate(18.755625 437.660625) rotate(-90) scale(0.1 -0.1)">
      <defs>
       <path id="DejaVuSans-73" d="M 2834 3397 
L 2834 2853 
Q 2591 2978 2328 3040 
Q 2066 3103 1784 3103 
Q 1356 3103 1142 2972 
Q 928 2841 928 2578 
Q 928 2378 1081 2264 
Q 1234 2150 1697 2047 
L 1894 2003 
Q 2506 1872 2764 1633 
Q 3022 1394 3022 966 
Q 3022 478 2636 193 
Q 2250 -91 1575 -91 
Q 1294 -91 989 -36 
Q 684 19 347 128 
L 347 722 
Q 666 556 975 473 
Q 1284 391 1588 391 
Q 1994 391 2212 530 
Q 2431 669 2431 922 
Q 2431 1156 2273 1281 
Q 2116 1406 1581 1522 
L 1381 1569 
Q 847 1681 609 1914 
Q 372 2147 372 2553 
Q 372 3047 722 3315 
Q 1072 3584 1716 3584 
Q 2034 3584 2315 3537 
Q 2597 3491 2834 3397 
z
" transform="scale(0.015625)"/>
      </defs>
      <use xlink:href="#DejaVuSans-43"/>
      <use xlink:href="#DejaVuSans-6f" x="69.824219"/>
      <use xlink:href="#DejaVuSans-73" x="131.005859"/>
      <use xlink:href="#DejaVuSans-74" x="183.105469"/>
     </g>
    </g>
   </g>
   <g id="line2d_30">
    <path d="M 81.091818 524.267727 
L 81.252701 511.708865 
L 81.574467 511.3636 
L 81.842605 511.325816 
L 83.612316 511.763612 
L 83.826827 511.735162 
L 84.470358 511.232696 
L 85.382028 511.563354 
L 86.45458 511.776951 
L 87.205367 511.250762 
L 88.70694 511.725738 
L 89.189589 511.748356 
L 89.83312 511.258227 
L 91.924597 511.718214 
L 92.246363 511.335258 
L 92.514501 511.282203 
L 94.605978 511.742696 
L 94.927744 511.359775 
L 95.195882 511.306745 
L 97.287359 511.767331 
L 97.609125 511.384417 
L 97.877263 511.331391 
L 99.96874 511.791995 
L 100.290506 511.409082 
L 100.558644 511.356057 
L 102.650121 511.816664 
L 102.971886 511.433751 
L 103.240025 511.380727 
L 105.331502 511.841334 
L 105.653267 511.458421 
L 105.921405 511.405397 
L 107.959255 511.919756 
L 108.06651 511.615984 
L 108.281021 509.874649 
L 108.817297 505.489325 
L 109.299945 503.307107 
L 109.675339 502.480626 
L 109.997104 502.249143 
L 110.265242 502.33196 
L 110.694263 502.718579 
L 110.747891 502.597493 
L 110.908774 501.65987 
L 111.44505 497.883699 
L 111.874071 496.294753 
L 112.195837 495.756021 
L 112.463975 495.653922 
L 112.732113 495.815908 
L 113.053879 496.301605 
L 113.375644 496.883595 
L 113.429272 496.812039 
L 113.590155 496.029716 
L 114.126431 492.750975 
L 114.501824 491.606161 
L 114.82359 491.220721 
L 115.091728 491.243916 
L 115.359866 491.529026 
L 115.73526 492.291373 
L 116.057025 493.054999 
L 116.110653 493.014767 
L 116.271536 492.331146 
L 116.807812 489.370407 
L 117.183205 488.420646 
L 117.451343 488.194012 
L 117.665854 488.239628 
L 117.933992 488.539317 
L 118.309385 489.337207 
L 118.792034 490.495812 
L 118.899289 490.173115 
L 119.596448 486.807253 
L 119.918214 486.247287 
L 120.186352 486.170249 
L 120.45449 486.389702 
L 120.776256 486.980099 
L 121.258904 488.398008 
L 121.473415 488.817323 
L 121.58067 488.52281 
L 122.277829 485.335286 
L 122.599595 484.846734 
L 122.814105 484.804241 
L 123.082243 485.020779 
L 123.404009 485.615008 
L 123.886658 487.05078 
L 124.154796 487.697787 
L 124.262051 487.422101 
L 124.95921 484.353839 
L 125.280976 483.913061 
L 125.495486 483.900315 
L 125.763624 484.151973 
L 126.139017 484.921932 
L 126.675294 486.678926 
L 126.836177 486.952274 
L 126.943432 486.689218 
L 127.640591 483.701013 
L 127.962357 483.29231 
L 128.176867 483.299537 
L 128.445005 483.57478 
L 128.820398 484.375513 
L 129.517557 486.457912 
L 129.571185 486.376281 
L 129.732068 485.629553 
L 130.161089 483.679649 
L 130.482855 483.007779 
L 130.750993 482.866753 
L 130.965503 482.985964 
L 131.287269 483.491877 
L 131.71629 484.66462 
L 132.198938 486.132541 
L 132.306194 485.8837 
L 133.003353 482.985637 
L 133.325118 482.613052 
L 133.539629 482.642772 
L 133.807767 482.944578 
L 134.18316 483.779976 
L 135.255713 487.154735 
L 135.899244 489.715198 
L 136.918169 494.846527 
L 137.829838 499.219744 
L 138.902391 504.019553 
L 139.706805 507.35941 
L 140.189453 508.582373 
L 140.403964 508.743882 
L 140.832985 509.40118 
L 141.530144 510.502907 
L 142.227303 511.211191 
L 142.817207 511.5561 
L 143.460738 511.29977 
L 145.123194 512.101049 
L 145.498588 512.137908 
L 146.142119 511.691585 
L 148.179969 512.266153 
L 148.8235 511.784529 
L 150.914977 512.256476 
L 151.236743 511.874355 
L 151.504881 511.821894 
L 153.596358 512.28461 
L 153.918124 511.901845 
L 154.186262 511.848925 
L 156.277739 512.309925 
L 156.599505 511.927039 
L 156.867643 511.874034 
L 158.95912 512.334715 
L 159.280886 511.951807 
L 159.549024 511.898786 
L 161.586873 512.413158 
L 161.694128 512.109387 
L 161.908639 510.331877 
L 162.873936 499.618712 
L 163.356585 497.173972 
L 163.731978 496.248676 
L 164.053744 495.989537 
L 164.321882 495.918686 
L 164.482765 495.136915 
L 164.750903 492.189459 
L 165.233551 487.001697 
L 165.662572 484.298542 
L 166.037965 483.059724 
L 166.359731 482.661102 
L 166.574242 482.676901 
L 166.84238 482.964604 
L 167.003263 483.104797 
L 167.110518 482.834205 
L 167.325028 481.28492 
L 167.96856 475.391238 
L 168.397581 473.518102 
L 168.719346 472.952374 
L 168.933857 472.901869 
L 169.148367 473.074876 
L 169.470133 473.692974 
L 169.684643 474.156162 
L 169.738271 474.129904 
L 169.899154 473.541513 
L 170.22092 470.672429 
L 170.649941 467.712051 
L 171.025334 466.419447 
L 171.293472 466.088115 
L 171.507982 466.119962 
L 171.776121 466.477374 
L 172.151514 467.47384 
L 172.419652 468.129086 
L 172.526907 467.914138 
L 172.741418 466.550744 
L 173.224066 463.037298 
L 173.59946 461.731462 
L 173.867598 461.410794 
L 174.082108 461.461156 
L 174.350246 461.852388 
L 174.72564 462.91302 
L 175.101033 464.112541 
L 175.154661 464.078091 
L 175.315543 463.496318 
L 176.173585 458.630738 
L 176.441723 458.255163 
L 176.656234 458.27513 
L 176.924372 458.642858 
L 177.299765 459.693459 
L 177.836041 461.416056 
L 177.943297 461.149501 
L 178.157807 459.765593 
L 178.586828 457.182126 
L 178.908594 456.288992 
L 179.176732 456.095787 
L 179.391242 456.246165 
L 179.65938 456.760305 
L 180.088401 458.207112 
L 180.517422 459.638082 
L 180.624678 459.401179 
L 180.839188 458.080652 
L 181.268209 455.616614 
L 181.589975 454.80159 
L 181.804485 454.658889 
L 182.018996 454.790201 
L 182.287134 455.287909 
L 182.662527 456.505991 
L 183.198803 458.45132 
L 183.306058 458.234275 
L 183.520569 456.956233 
L 183.94959 454.57226 
L 184.271356 453.80958 
L 184.485866 453.698797 
L 184.700377 453.859994 
L 184.968515 454.392582 
L 185.397536 455.878494 
L 185.880184 457.660735 
L 185.987439 457.457016 
L 186.20195 456.207506 
L 186.630971 453.877308 
L 186.952737 453.149777 
L 187.167247 453.060424 
L 187.381757 453.241685 
L 187.703523 453.948138 
L 188.132544 455.554359 
L 189.419607 461.962374 
L 190.438532 469.080398 
L 191.886477 479.191022 
L 194.567858 496.640474 
L 196.498453 506.822822 
L 196.873846 507.687662 
L 197.946398 510.25313 
L 198.643557 511.229577 
L 199.126206 511.641041 
L 199.769737 511.532464 
L 201.003173 512.351545 
L 201.753959 512.615738 
L 202.504746 512.175046 
L 203.791809 512.682279 
L 204.488968 512.769238 
L 205.132499 512.292724 
L 207.223976 512.771859 
L 207.545742 512.390238 
L 207.81388 512.338135 
L 209.905357 512.802187 
L 210.227123 512.419515 
L 210.495261 512.366662 
L 212.586738 512.82791 
L 212.908504 512.445042 
L 213.176642 512.392049 
L 215.214491 512.906525 
L 215.321747 512.602757 
L 215.858023 510.369168 
L 216.233416 509.61974 
L 216.555182 509.403484 
L 216.82332 509.469721 
L 217.145086 509.793731 
L 217.9495 510.950984 
L 218.271266 509.821565 
L 218.646659 508.975074 
L 218.968425 508.696168 
L 219.236563 508.722213 
L 219.558328 509.010109 
L 219.987349 509.744868 
L 220.577253 510.795392 
L 220.684508 510.639792 
L 221.220785 509.036358 
L 221.54255 508.656781 
L 221.810688 508.613344 
L 222.132454 508.832476 
L 222.507847 509.393324 
L 223.312262 510.760283 
L 223.5804 509.840982 
L 223.955793 508.946933 
L 224.277559 508.635795 
L 224.545697 508.639983 
L 224.867463 508.906719 
L 225.296484 509.620403 
L 225.940015 510.802959 
L 226.04727 510.650029 
L 226.583546 509.057995 
L 226.905312 508.683837 
L 227.17345 508.644252 
L 227.495216 508.867333 
L 227.870609 509.432004 
L 228.675024 510.803488 
L 228.943162 509.885132 
L 229.318555 508.992201 
L 229.640321 508.681856 
L 229.908459 508.686608 
L 230.230224 508.953923 
L 230.659245 509.668238 
L 231.302777 510.851314 
L 231.410032 510.698446 
L 231.946308 509.10668 
L 232.268074 508.732649 
L 232.536212 508.693155 
L 232.857978 508.916329 
L 233.233371 509.481089 
L 234.037785 510.852681 
L 234.305923 509.934348 
L 234.681317 509.041444 
L 235.003082 508.731117 
L 235.271221 508.735884 
L 235.592986 509.003213 
L 236.022007 509.717543 
L 236.665539 510.900631 
L 236.772794 510.747765 
L 237.30907 509.156005 
L 237.630836 508.781977 
L 237.898974 508.742485 
L 238.22074 508.965661 
L 238.596133 509.530424 
L 239.400547 510.902018 
L 239.668685 509.983686 
L 240.044079 509.090782 
L 240.365844 508.780456 
L 240.633982 508.785223 
L 240.955748 509.052552 
L 241.384769 509.766883 
L 242.0283 510.949971 
L 242.725459 511.312803 
L 243.529874 512.167071 
L 244.334288 512.675315 
L 244.709681 512.782535 
L 245.353213 512.427969 
L 247.337435 513.174152 
L 248.088221 512.679936 
L 249.482539 513.163785 
L 250.072443 513.213647 
L 250.715975 512.728608 
L 252.807452 513.195753 
L 253.129217 512.813297 
L 253.397356 512.760597 
L 255.488833 513.222421 
L 255.810598 512.839593 
L 256.078736 512.786629 
L 258.170214 513.247462 
L 258.491979 512.864565 
L 258.760117 512.811552 
L 260.851594 513.272202 
L 261.17336 512.889292 
L 261.441498 512.836269 
L 263.532975 513.296885 
L 263.854741 512.913973 
L 264.122879 512.860949 
L 266.214356 513.321558 
L 266.536122 512.938645 
L 266.80426 512.885621 
L 268.84211 513.39998 
L 268.949365 513.096208 
L 269.163875 511.318697 
L 269.485641 506.15353 
L 269.96829 494.163754 
L 270.826331 465.864054 
L 271.362608 451.243889 
L 272.43516 427.238603 
L 273.936733 391.019694 
L 276.296348 358.816386 
L 276.725369 355.269355 
L 277.797922 349.053352 
L 279.19224 339.814292 
L 279.514006 339.097339 
L 279.889399 338.499313 
L 280.425675 337.060951 
L 281.980876 332.509665 
L 282.249014 332.433481 
L 282.57078 332.329395 
L 282.999801 331.923279 
L 283.750587 330.830496 
L 284.447746 329.901575 
L 284.769512 329.82695 
L 285.466671 329.844653 
L 286.110203 329.526249 
L 287.182755 328.975199 
L 287.933542 329.050481 
L 288.737956 328.955094 
L 289.756881 328.841991 
L 290.400412 328.86199 
L 294.422483 328.979236 
L 295.548663 329.102435 
L 296.460333 328.947912 
L 296.835726 329.124263 
L 297.157492 329.537926 
L 297.532885 330.413155 
L 297.961906 332.011963 
L 298.55181 335.250008 
L 299.195341 340.09356 
L 299.999756 348.108039 
L 301.01868 360.775425 
L 302.627509 383.203407 
L 305.791539 428.559903 
L 307.078601 444.685255 
L 309.170078 467.846757 
L 311.851459 490.470174 
L 314.640096 506.865163 
L 315.980786 510.847605 
L 316.677945 511.995735 
L 317.106966 512.436338 
L 317.750497 512.426776 
L 318.876677 513.292932 
L 319.734719 513.645269 
L 320.485506 513.226127 
L 321.772569 513.752287 
L 322.469728 513.844666 
L 322.576983 513.544086 
L 323.113259 511.324078 
L 323.488653 510.582049 
L 323.810418 510.371038 
L 324.078556 510.440996 
L 324.400322 510.768811 
L 325.204736 511.931296 
L 325.472874 510.976976 
L 325.901895 509.9577 
L 326.223661 509.679605 
L 326.491799 509.706226 
L 326.813565 509.994713 
L 327.242586 510.730118 
L 327.83249 511.781131 
L 327.939745 511.6256 
L 328.476021 510.022458 
L 328.797787 509.643021 
L 329.065925 509.599682 
L 329.387691 509.818916 
L 329.763084 510.379862 
L 330.567498 511.746939 
L 330.835636 510.827663 
L 331.21103 509.933643 
L 331.532795 509.622525 
L 331.800933 509.626729 
L 332.122699 509.89348 
L 332.55172 510.607179 
L 333.195251 511.78975 
L 333.302507 511.636821 
L 333.838783 510.044794 
L 334.160549 509.670639 
L 334.428687 509.631057 
L 334.750452 509.85414 
L 335.125846 510.418813 
L 335.93026 511.7903 
L 336.198398 510.871945 
L 336.573791 509.979014 
L 336.895557 509.66867 
L 337.163695 509.673423 
L 337.485461 509.940738 
L 337.914482 510.655053 
L 338.558013 511.838129 
L 338.665268 511.685261 
L 339.201545 510.093495 
L 339.52331 509.719465 
L 339.791448 509.679971 
L 340.113214 509.903145 
L 340.488607 510.467905 
L 341.293022 511.839497 
L 341.56116 510.921164 
L 341.936553 510.02826 
L 342.258319 509.717934 
L 342.526457 509.7227 
L 342.848223 509.990029 
L 343.277244 510.704359 
L 343.920775 511.887447 
L 344.02803 511.734581 
L 344.564306 510.142821 
L 344.886072 509.768793 
L 345.15421 509.729301 
L 345.475976 509.952477 
L 345.851369 510.51724 
L 346.655784 511.888834 
L 346.923922 510.970502 
L 347.299315 510.077598 
L 347.621081 509.767272 
L 347.889219 509.772039 
L 348.210985 510.039368 
L 348.640005 510.753699 
L 349.283537 511.936787 
L 349.980696 512.299619 
L 350.78511 513.153887 
L 351.589524 513.662131 
L 351.964918 513.769351 
L 352.608449 513.414785 
L 354.592671 514.160968 
L 355.343458 513.666752 
L 356.737776 514.150601 
L 357.32768 514.200463 
L 357.971211 513.715424 
L 360.062688 514.182569 
L 360.384454 513.800113 
L 360.652592 513.747413 
L 362.744069 514.209237 
L 363.065835 513.826409 
L 363.333973 513.773445 
L 365.42545 514.234278 
L 365.747216 513.851381 
L 366.015354 513.798368 
L 368.106831 514.259018 
L 368.428597 513.876108 
L 368.696735 513.823086 
L 370.788212 514.283701 
L 371.109977 513.900789 
L 371.378116 513.847765 
L 373.469593 514.308374 
L 373.791358 513.925461 
L 374.059496 513.872437 
L 376.150974 514.333045 
L 376.472739 513.950132 
L 376.740877 513.897107 
L 378.832355 514.357715 
L 379.15412 513.974802 
L 379.422258 513.921778 
L 381.513735 514.382385 
L 381.835501 513.999473 
L 382.103639 513.946448 
L 384.195116 514.407056 
L 384.516882 514.024143 
L 384.78502 513.971119 
L 386.876497 514.431726 
L 387.198263 514.048813 
L 387.466401 513.995789 
L 389.557878 514.456397 
L 389.879644 514.073484 
L 390.147782 514.020459 
L 392.239259 514.481067 
L 392.561025 514.098154 
L 392.829163 514.04513 
L 394.92064 514.505737 
L 395.242406 514.122825 
L 395.510544 514.0698 
L 397.602021 514.530408 
L 397.923787 514.147495 
L 398.191925 514.094471 
L 400.283402 514.555078 
L 400.605168 514.172165 
L 400.873306 514.119141 
L 402.964783 514.579749 
L 403.286548 514.196836 
L 403.554687 514.143812 
L 405.646164 514.604419 
L 405.967929 514.221506 
L 406.236067 514.168482 
L 408.327545 514.629089 
L 408.64931 514.246177 
L 408.917448 514.193152 
L 411.008925 514.65376 
L 411.330691 514.270847 
L 411.598829 514.217823 
L 413.690306 514.67843 
L 414.012072 514.295517 
L 414.28021 514.242493 
L 416.371687 514.703101 
L 416.693453 514.320188 
L 416.961591 514.267164 
L 419.053068 514.727771 
L 419.374834 514.344858 
L 419.642972 514.291834 
L 421.734449 514.752441 
L 422.056215 514.369529 
L 422.324353 514.316504 
L 424.41583 514.777112 
L 424.737596 514.394199 
L 425.005734 514.341175 
L 427.097211 514.801782 
L 427.418977 514.41887 
L 427.687115 514.365845 
L 429.778592 514.826453 
L 430.100358 514.44354 
L 430.368496 514.390516 
L 432.459973 514.851123 
L 432.781738 514.46821 
L 433.049877 514.415186 
L 435.141354 514.875793 
L 435.463119 514.492881 
L 435.731257 514.439856 
L 437.822735 514.900464 
L 438.1445 514.517551 
L 438.412638 514.464527 
L 440.504115 514.925134 
L 440.825881 514.542222 
L 441.094019 514.489197 
L 443.185496 514.949805 
L 443.507262 514.566892 
L 443.7754 514.513868 
L 445.866877 514.974475 
L 446.188643 514.591562 
L 446.456781 514.538538 
L 448.548258 514.999145 
L 448.870024 514.616233 
L 449.138162 514.563208 
L 451.229639 515.023816 
L 451.551405 514.640903 
L 451.819543 514.587879 
L 453.91102 515.048486 
L 454.232786 514.665574 
L 454.500924 514.612549 
L 456.592401 515.073157 
L 456.914167 514.690244 
L 457.182305 514.63722 
L 459.273782 515.097827 
L 459.595548 514.714914 
L 459.863686 514.66189 
L 461.955163 515.122498 
L 462.276928 514.739585 
L 462.545067 514.68656 
L 464.636544 515.147168 
L 464.958309 514.764255 
L 465.226447 514.711231 
L 467.317925 515.171838 
L 467.63969 514.788926 
L 467.907828 514.735901 
L 469.999305 515.196509 
L 470.321071 514.813596 
L 470.589209 514.760572 
L 472.680686 515.221179 
L 473.002452 514.838266 
L 473.27059 514.785242 
L 475.362067 515.24585 
L 475.683833 514.862937 
L 475.951971 514.809912 
L 478.043448 515.27052 
L 478.365214 514.887607 
L 478.633352 514.834583 
L 480.724829 515.29519 
L 481.046595 514.912278 
L 481.314733 514.859253 
L 483.40621 515.319861 
L 483.727976 514.936948 
L 483.996114 514.883924 
L 486.087591 515.344531 
L 486.409357 514.961618 
L 486.677495 514.908594 
L 488.768972 515.369202 
L 489.090738 514.986289 
L 489.358876 514.933264 
L 491.450353 515.393872 
L 491.772118 515.010959 
L 492.040257 514.957935 
L 494.131734 515.418542 
L 494.453499 515.03563 
L 494.721637 514.982605 
L 496.813115 515.443213 
L 497.13488 515.0603 
L 497.403018 515.007276 
L 499.494495 515.467883 
L 499.816261 515.08497 
L 500.084399 515.031946 
L 502.175876 515.492554 
L 502.497642 515.109641 
L 502.76578 515.056616 
L 504.857257 515.517224 
L 505.179023 515.134311 
L 505.447161 515.081287 
L 507.538638 515.541894 
L 507.860404 515.158982 
L 508.128542 515.105957 
L 510.166392 515.620316 
L 510.273647 515.316544 
L 510.488157 513.539033 
L 511.078061 507.827201 
L 511.56071 505.214978 
L 511.936103 504.150189 
L 512.257869 503.76714 
L 512.526007 503.754359 
L 512.9014 503.9535 
L 513.062283 503.259401 
L 514.134835 495.819648 
L 514.510229 494.998373 
L 514.778367 494.833505 
L 515.046505 494.959699 
L 515.36827 495.432436 
L 515.582781 495.749113 
L 515.690036 495.500914 
L 515.904547 493.973125 
L 516.387195 490.554167 
L 516.816216 489.00831 
L 517.137982 488.563301 
L 517.352492 488.545079 
L 517.62063 488.787375 
L 517.996024 489.540307 
L 518.264162 490.161209 
L 518.317789 490.126963 
L 518.478672 489.479101 
L 519.175831 485.219372 
L 519.551225 484.329957 
L 519.819363 484.17256 
L 520.033873 484.286515 
L 520.355639 484.795643 
L 520.78466 485.989779 
L 520.99917 486.398767 
L 521.106426 486.115519 
L 521.428191 483.954533 
L 521.857212 481.976689 
L 522.178978 481.319276 
L 522.447116 481.209138 
L 522.661627 481.363424 
L 522.983392 481.936528 
L 523.412413 483.221126 
L 523.680551 483.901615 
L 523.787807 483.659419 
L 524.109572 481.627883 
L 524.538593 479.806218 
L 524.860359 479.253523 
L 525.074869 479.201865 
L 525.28938 479.367 
L 525.611146 479.962475 
L 526.040167 481.286254 
L 526.361932 482.231292 
L 526.469187 482.016639 
L 526.737326 480.388245 
L 527.166346 478.497457 
L 527.488112 477.911743 
L 527.702623 477.845349 
L 527.917133 478.000732 
L 528.238899 478.589625 
L 528.66792 479.917085 
L 529.043313 481.115583 
L 529.150568 480.919417 
L 529.418706 479.339887 
L 529.847727 477.520683 
L 530.169493 476.982851 
L 530.384004 476.946085 
L 530.598514 477.129501 
L 530.92028 477.757826 
L 531.349301 479.133715 
L 531.724694 480.372243 
L 531.831949 480.1885 
L 532.100087 478.641826 
L 532.529108 476.870752 
L 532.850874 476.365112 
L 533.065384 476.348265 
L 533.333523 476.632025 
L 533.708916 477.505357 
L 534.191564 479.270998 
L 534.406075 479.87926 
L 534.51333 479.703877 
L 534.781468 478.179319 
L 535.156862 476.584339 
L 535.478627 475.995221 
L 535.693138 475.932471 
L 535.907648 476.095532 
L 536.229414 476.702428 
L 536.658435 478.063875 
L 537.087456 479.554809 
L 537.141083 479.513637 
L 537.301966 478.910064 
L 537.67736 477.489964 
L 537.999125 477.016663 
L 538.213636 477.016343 
L 538.481774 477.315954 
L 538.857167 478.203884 
L 539.393443 480.210625 
L 539.768837 481.641171 
L 539.876092 481.50092 
L 540.519623 479.39127 
L 540.787762 479.220043 
L 541.002272 479.337828 
L 541.27041 479.757425 
L 541.699431 480.948897 
L 542.450218 483.799789 
L 542.557473 483.642947 
L 543.254632 481.338699 
L 543.52277 481.193316 
L 543.737281 481.323879 
L 544.059046 481.867777 
L 544.488067 483.123376 
L 545.131599 485.480631 
L 545.185226 485.436463 
L 545.346109 484.807874 
L 545.721502 483.296818 
L 546.043268 482.730164 
L 546.257779 482.661276 
L 546.472289 482.80379 
L 546.794055 483.356691 
L 547.223076 484.610489 
L 547.81298 486.686877 
L 547.866607 486.634007 
L 548.02749 485.97778 
L 548.456511 484.258596 
L 548.778277 483.742108 
L 548.992787 483.698616 
L 549.260925 483.930658 
L 549.582691 484.564343 
L 550.065339 486.093646 
L 550.49436 487.528365 
L 550.601616 487.319292 
L 551.298775 484.67387 
L 551.566913 484.411686 
L 551.781423 484.45367 
L 552.049561 484.775384 
L 552.424955 485.645793 
L 552.961231 487.549509 
L 553.175741 488.110461 
L 553.282997 487.892449 
L 553.980156 485.190114 
L 554.248294 484.908758 
L 554.462804 484.936311 
L 554.730942 485.24098 
L 555.106336 486.089138 
L 555.642612 487.963784 
L 555.857122 488.513439 
L 555.964377 488.289309 
L 556.661537 485.548087 
L 556.929675 485.253646 
L 557.144185 485.271354 
L 557.412323 485.564401 
L 557.787716 486.397397 
L 558.323993 488.252253 
L 558.538503 488.794224 
L 558.645758 488.565936 
L 559.342917 485.798306 
L 559.611056 485.494984 
L 559.825566 485.506011 
L 560.093704 485.791173 
L 560.469097 486.613884 
L 561.005374 488.455322 
L 561.219884 488.992084 
L 561.327139 488.76098 
L 562.024298 485.975467 
L 562.292436 485.666131 
L 562.506947 485.672635 
L 562.775085 485.952459 
L 563.150478 486.768209 
L 563.686754 488.600565 
L 564.062148 489.713617 
L 564.652052 491.844962 
L 565.510094 495.929408 
L 567.118922 503.8073 
L 569.103144 512.156736 
L 570.7656 514.62482 
L 571.516387 515.309756 
L 571.838152 515.463511 
L 572.481684 515.220776 
L 574.090512 516.023707 
L 574.519533 516.077764 
L 575.163065 515.633966 
L 577.200914 516.21204 
L 577.844446 515.730885 
L 579.935923 516.203493 
L 580.257689 515.821417 
L 580.525827 515.76899 
L 582.617304 516.231829 
L 582.939069 515.849071 
L 583.207208 515.796158 
L 585.298685 516.25718 
L 585.62045 515.874297 
L 585.888588 515.821293 
L 587.980066 516.281977 
L 588.301831 515.89907 
L 588.569969 515.84605 
L 590.661446 516.306671 
L 590.983212 515.92376 
L 591.25135 515.870736 
L 593.342827 516.331346 
L 593.664593 515.948434 
L 593.932731 515.895409 
L 596.024208 516.356017 
L 596.345974 515.973105 
L 596.614112 515.92008 
L 598.705589 516.380688 
L 599.027355 515.997775 
L 599.295493 515.944751 
L 601.38697 516.405358 
L 601.708736 516.022446 
L 601.976874 515.969421 
L 604.068351 516.430029 
L 604.390117 516.047116 
L 604.658255 515.994092 
L 606.749732 516.454699 
L 607.071498 516.071786 
L 607.339636 516.018762 
L 609.431113 516.47937 
L 609.752879 516.096457 
L 610.021017 516.043432 
L 612.112494 516.50404 
L 612.434259 516.121127 
L 612.702398 516.068103 
L 614.793875 516.52871 
L 615.11564 516.145798 
L 615.383778 516.092773 
L 617.421628 516.607132 
L 617.528883 516.30336 
L 618.386925 512.042172 
L 618.762318 511.339397 
L 619.084084 511.167515 
L 619.352222 511.273111 
L 619.727616 511.731555 
L 620.156636 512.437389 
L 620.210264 512.344144 
L 621.068306 509.52102 
L 621.390072 509.277262 
L 621.65821 509.34143 
L 621.979975 509.68369 
L 622.408996 510.502461 
L 622.838017 511.469503 
L 622.891645 511.405725 
L 623.803315 508.913287 
L 624.071453 508.822273 
L 624.339591 508.960333 
L 624.714984 509.471664 
L 625.197633 510.557071 
L 625.519398 511.314658 
L 625.573026 511.258316 
L 626.484695 508.864346 
L 626.752834 508.793816 
L 627.020972 508.94943 
L 627.396365 509.48116 
L 627.932641 510.733539 
L 628.200779 511.35507 
L 628.308034 511.143333 
L 628.844311 509.361018 
L 629.166076 508.92529 
L 629.434214 508.858288 
L 629.702353 509.016731 
L 630.077746 509.551429 
L 630.614022 510.806436 
L 630.88216 511.428684 
L 630.989415 511.21708 
L 631.525692 509.434657 
L 631.847457 508.998516 
L 632.115595 508.931015 
L 632.383733 509.088844 
L 632.759127 509.622524 
L 633.295403 510.875832 
L 633.563541 511.497131 
L 633.670796 511.28508 
L 634.207072 509.500254 
L 634.528838 509.062712 
L 634.796976 508.994069 
L 635.065114 509.150776 
L 635.440508 509.682922 
L 635.976784 510.934112 
L 636.244922 511.554369 
L 636.352177 511.341864 
L 636.888453 509.554764 
L 637.210219 509.115962 
L 637.478357 509.046321 
L 637.746495 509.202073 
L 638.121889 509.732946 
L 638.658165 510.982434 
L 638.926303 511.601875 
L 639.033558 511.389021 
L 639.569834 509.600204 
L 639.8916 509.160463 
L 640.159738 509.090085 
L 640.427876 509.245136 
L 640.803269 509.775083 
L 641.339546 511.023345 
L 641.607684 511.642203 
L 641.714939 511.429102 
L 642.251215 509.639073 
L 642.572981 509.198674 
L 642.841119 509.12778 
L 643.109257 509.282343 
L 643.48465 509.811646 
L 644.020927 511.059058 
L 644.128182 511.363338 
L 644.128182 511.363338 
" clip-path="url(#pce08935736)" style="fill: none; stroke: #008000; stroke-width: 1.5; stroke-linecap: square"/>
   </g>
   <g id="patch_8">
    <path d="M 52.94 534.04 
L 52.94 319.05 
" style="fill: none; stroke: #000000; stroke-width: 0.8; stroke-linejoin: miter; stroke-linecap: square"/>
   </g>
   <g id="patch_9">
    <path d="M 672.28 534.04 
L 672.28 319.05 
" style="fill: none; stroke: #000000; stroke-width: 0.8; stroke-linejoin: miter; stroke-linecap: square"/>
   </g>
   <g id="patch_10">
    <path d="M 52.94 534.04 
L 672.28 534.04 
" style="fill: none; stroke: #000000; stroke-width: 0.8; stroke-linejoin: miter; stroke-linecap: square"/>
   </g>
   <g id="patch_11">
    <path d="M 52.94 319.05 
L 672.28 319.05 
" style="fill: none; stroke: #000000; stroke-width: 0.8; stroke-linejoin: miter; stroke-linecap: square"/>
   </g>
   <g id="text_27">
    <!-- Cost Over Time -->
    <g transform="translate(316.344375 313.05) scale(0.12 -0.12)">
     <defs>
      <path id="DejaVuSans-76" d="M 191 3500 
L 800 3500 
L 1894 563 
L 2988 3500 
L 3597 3500 
L 2284 0 
L 1503 0 
L 191 3500 
z
" transform="scale(0.015625)"/>
      <path id="DejaVuSans-72" d="M 2631 2963 
Q 2534 3019 2420 3045 
Q 2306 3072 2169 3072 
Q 1681 3072 1420 2755 
Q 1159 2438 1159 1844 
L 1159 0 
L 581 0 
L 581 3500 
L 1159 3500 
L 1159 2956 
Q 1341 3275 1631 3429 
Q 1922 3584 2338 3584 
Q 2397 3584 2469 3576 
Q 2541 3569 2628 3553 
L 2631 2963 
z
" transform="scale(0.015625)"/>
     </defs>
     <use xlink:href="#DejaVuSans-43"/>
     <use xlink:href="#DejaVuSans-6f" x="69.824219"/>
     <use xlink:href="#DejaVuSans-73" x="131.005859"/>
     <use xlink:href="#DejaVuSans-74" x="183.105469"/>
     <use xlink:href="#DejaVuSans-20" x="222.314453"/>
     <use xlink:href="#DejaVuSans-4f" x="254.101562"/>
     <use xlink:href="#DejaVuSans-76" x="332.8125"/>
     <use xlink:href="#DejaVuSans-65" x="391.992188"/>
     <use xlink:href="#DejaVuSans-72" x="453.515625"/>
     <use xlink:href="#DejaVuSans-20" x="494.628906"/>
     <use xlink:href="#DejaVuSans-54" x="526.416016"/>
     <use xlink:href="#DejaVuSans-69" x="584.375"/>
     <use xlink:href="#DejaVuSans-6d" x="612.158203"/>
     <use xlink:href="#DejaVuSans-65" x="709.570312"/>
    </g>
   </g>
  </g>
  <g id="axes_3">
   <g id="matplotlib.axis_5">
    <g id="ytick_17">
     <g id="line2d_31">
      <defs>
       <path id="m40a5a4d6eb" d="M 0 0 
L 3.5 0 
" style="stroke: #4682b4; stroke-width: 0.8"/>
      </defs>
      <g>
       <use xlink:href="#m40a5a4d6eb" x="672.28" y="278.897727" style="fill: #4682b4; stroke: #4682b4; stroke-width: 0.8"/>
      </g>
     </g>
     <g id="text_28">
      <!-- 0.0 -->
      <g style="fill: #4682b4" transform="translate(679.28 282.696946) scale(0.1 -0.1)">
       <use xlink:href="#DejaVuSans-30"/>
       <use xlink:href="#DejaVuSans-2e" x="63.623047"/>
       <use xlink:href="#DejaVuSans-30" x="95.410156"/>
      </g>
     </g>
    </g>
    <g id="ytick_18">
     <g id="line2d_32">
      <g>
       <use xlink:href="#m40a5a4d6eb" x="672.28" y="252.464498" style="fill: #4682b4; stroke: #4682b4; stroke-width: 0.8"/>
      </g>
     </g>
     <g id="text_29">
      <!-- 0.1 -->
      <g style="fill: #4682b4" transform="translate(679.28 256.263717) scale(0.1 -0.1)">
       <use xlink:href="#DejaVuSans-30"/>
       <use xlink:href="#DejaVuSans-2e" x="63.623047"/>
       <use xlink:href="#DejaVuSans-31" x="95.410156"/>
      </g>
     </g>
    </g>
    <g id="ytick_19">
     <g id="line2d_33">
      <g>
       <use xlink:href="#m40a5a4d6eb" x="672.28" y="226.03127" style="fill: #4682b4; stroke: #4682b4; stroke-width: 0.8"/>
      </g>
     </g>
     <g id="text_30">
      <!-- 0.2 -->
      <g style="fill: #4682b4" transform="translate(679.28 229.830488) scale(0.1 -0.1)">
       <use xlink:href="#DejaVuSans-30"/>
       <use xlink:href="#DejaVuSans-2e" x="63.623047"/>
       <use xlink:href="#DejaVuSans-32" x="95.410156"/>
      </g>
     </g>
    </g>
    <g id="ytick_20">
     <g id="line2d_34">
      <g>
       <use xlink:href="#m40a5a4d6eb" x="672.28" y="199.598041" style="fill: #4682b4; stroke: #4682b4; stroke-width: 0.8"/>
      </g>
     </g>
     <g id="text_31">
      <!-- 0.3 -->
      <g style="fill: #4682b4" transform="translate(679.28 203.39726) scale(0.1 -0.1)">
       <use xlink:href="#DejaVuSans-30"/>
       <use xlink:href="#DejaVuSans-2e" x="63.623047"/>
       <use xlink:href="#DejaVuSans-33" x="95.410156"/>
      </g>
     </g>
    </g>
    <g id="ytick_21">
     <g id="line2d_35">
      <g>
       <use xlink:href="#m40a5a4d6eb" x="672.28" y="173.164812" style="fill: #4682b4; stroke: #4682b4; stroke-width: 0.8"/>
      </g>
     </g>
     <g id="text_32">
      <!-- 0.4 -->
      <g style="fill: #4682b4" transform="translate(679.28 176.964031) scale(0.1 -0.1)">
       <use xlink:href="#DejaVuSans-30"/>
       <use xlink:href="#DejaVuSans-2e" x="63.623047"/>
       <use xlink:href="#DejaVuSans-34" x="95.410156"/>
      </g>
     </g>
    </g>
    <g id="ytick_22">
     <g id="line2d_36">
      <g>
       <use xlink:href="#m40a5a4d6eb" x="672.28" y="146.731583" style="fill: #4682b4; stroke: #4682b4; stroke-width: 0.8"/>
      </g>
     </g>
     <g id="text_33">
      <!-- 0.5 -->
      <g style="fill: #4682b4" transform="translate(679.28 150.530802) scale(0.1 -0.1)">
       <use xlink:href="#DejaVuSans-30"/>
       <use xlink:href="#DejaVuSans-2e" x="63.623047"/>
       <use xlink:href="#DejaVuSans-35" x="95.410156"/>
      </g>
     </g>
    </g>
    <g id="ytick_23">
     <g id="line2d_37">
      <g>
       <use xlink:href="#m40a5a4d6eb" x="672.28" y="120.298354" style="fill: #4682b4; stroke: #4682b4; stroke-width: 0.8"/>
      </g>
     </g>
     <g id="text_34">
      <!-- 0.6 -->
      <g style="fill: #4682b4" transform="translate(679.28 124.097573) scale(0.1 -0.1)">
       <use xlink:href="#DejaVuSans-30"/>
       <use xlink:href="#DejaVuSans-2e" x="63.623047"/>
       <use xlink:href="#DejaVuSans-36" x="95.410156"/>
      </g>
     </g>
    </g>
    <g id="ytick_24">
     <g id="line2d_38">
      <g>
       <use xlink:href="#m40a5a4d6eb" x="672.28" y="93.865126" style="fill: #4682b4; stroke: #4682b4; stroke-width: 0.8"/>
      </g>
     </g>
     <g id="text_35">
      <!-- 0.7 -->
      <g style="fill: #4682b4" transform="translate(679.28 97.664344) scale(0.1 -0.1)">
       <use xlink:href="#DejaVuSans-30"/>
       <use xlink:href="#DejaVuSans-2e" x="63.623047"/>
       <use xlink:href="#DejaVuSans-37" x="95.410156"/>
      </g>
     </g>
    </g>
    <g id="text_36">
     <!-- Duty Cycle -->
     <g style="fill: #4682b4" transform="translate(706.781563 208.367969) rotate(-90) scale(0.1 -0.1)">
      <use xlink:href="#DejaVuSans-44"/>
      <use xlink:href="#DejaVuSans-75" x="77.001953"/>
      <use xlink:href="#DejaVuSans-74" x="140.380859"/>
      <use xlink:href="#DejaVuSans-79" x="179.589844"/>
      <use xlink:href="#DejaVuSans-20" x="238.769531"/>
      <use xlink:href="#DejaVuSans-43" x="270.556641"/>
      <use xlink:href="#DejaVuSans-79" x="340.380859"/>
      <use xlink:href="#DejaVuSans-63" x="399.560547"/>
      <use xlink:href="#DejaVuSans-6c" x="454.541016"/>
      <use xlink:href="#DejaVuSans-65" x="482.324219"/>
     </g>
    </g>
   </g>
   <g id="line2d_39">
    <path d="M 81.091818 278.897727 
L 107.852 278.897727 
L 108.012883 251.280476 
L 134.665809 251.280476 
L 134.826692 278.897727 
L 161.479618 278.897727 
L 161.640501 235.584341 
L 188.293427 235.584341 
L 188.45431 278.897727 
L 215.107236 278.897727 
L 215.268119 265.772367 
L 241.921045 265.772367 
L 242.081928 278.897727 
L 268.734854 278.897727 
L 268.895737 83.452273 
L 295.548663 83.452273 
L 295.709546 278.026322 
L 322.362473 278.026322 
L 322.523355 265.512955 
L 349.176282 265.512955 
L 349.337164 278.897727 
L 402.8039 278.897727 
L 402.964783 276.563917 
L 429.617709 276.563917 
L 429.778592 274.286151 
L 456.431518 274.286151 
L 456.592401 278.897727 
L 510.059136 278.897727 
L 510.220019 245.828541 
L 536.872945 245.828541 
L 537.033828 248.722869 
L 563.686754 248.722869 
L 563.847637 276.431473 
L 590.500564 276.431473 
L 590.661446 278.897727 
L 617.314373 278.897727 
L 617.475256 260.979268 
L 644.128182 260.979268 
L 644.128182 260.979268 
" clip-path="url(#p089b63ae7f)" style="fill: none; stroke: #4682b4; stroke-width: 1.5; stroke-linecap: square"/>
   </g>
   <g id="patch_12">
    <path d="M 52.94 288.67 
L 52.94 73.68 
" style="fill: none; stroke: #000000; stroke-width: 0.8; stroke-linejoin: miter; stroke-linecap: square"/>
   </g>
   <g id="patch_13">
    <path d="M 672.28 288.67 
L 672.28 73.68 
" style="fill: none; stroke: #4682b4; stroke-width: 0.8; stroke-linejoin: miter; stroke-linecap: square"/>
   </g>
   <g id="patch_14">
    <path d="M 52.94 288.67 
L 672.28 288.67 
" style="fill: none; stroke: #000000; stroke-width: 0.8; stroke-linejoin: miter; stroke-linecap: square"/>
   </g>
   <g id="patch_15">
    <path d="M 52.94 73.68 
L 672.28 73.68 
" style="fill: none; stroke: #000000; stroke-width: 0.8; stroke-linejoin: miter; stroke-linecap: square"/>
   </g>
  </g>
  <g id="text_37">
   <!-- Episode 62 - Total Reward: -1096.59 -->
   <g transform="translate(251.745938 20.638125) scale(0.12 -0.12)">
    <defs>
     <path id="DejaVuSans-45" d="M 628 4666 
L 3578 4666 
L 3578 4134 
L 1259 4134 
L 1259 2753 
L 3481 2753 
L 3481 2222 
L 1259 2222 
L 1259 531 
L 3634 531 
L 3634 0 
L 628 0 
L 628 4666 
z
" transform="scale(0.015625)"/>
     <path id="DejaVuSans-2d" d="M 313 2009 
L 1997 2009 
L 1997 1497 
L 313 1497 
L 313 2009 
z
" transform="scale(0.015625)"/>
     <path id="DejaVuSans-52" d="M 2841 2188 
Q 3044 2119 3236 1894 
Q 3428 1669 3622 1275 
L 4263 0 
L 3584 0 
L 2988 1197 
Q 2756 1666 2539 1819 
Q 2322 1972 1947 1972 
L 1259 1972 
L 1259 0 
L 628 0 
L 628 4666 
L 2053 4666 
Q 2853 4666 3247 4331 
Q 3641 3997 3641 3322 
Q 3641 2881 3436 2590 
Q 3231 2300 2841 2188 
z
M 1259 4147 
L 1259 2491 
L 2053 2491 
Q 2509 2491 2742 2702 
Q 2975 2913 2975 3322 
Q 2975 3731 2742 3939 
Q 2509 4147 2053 4147 
L 1259 4147 
z
" transform="scale(0.015625)"/>
     <path id="DejaVuSans-77" d="M 269 3500 
L 844 3500 
L 1563 769 
L 2278 3500 
L 2956 3500 
L 3675 769 
L 4391 3500 
L 4966 3500 
L 4050 0 
L 3372 0 
L 2619 2869 
L 1863 0 
L 1184 0 
L 269 3500 
z
" transform="scale(0.015625)"/>
     <path id="DejaVuSans-3a" d="M 750 794 
L 1409 794 
L 1409 0 
L 750 0 
L 750 794 
z
M 750 3309 
L 1409 3309 
L 1409 2516 
L 750 2516 
L 750 3309 
z
" transform="scale(0.015625)"/>
     <path id="DejaVuSans-39" d="M 703 97 
L 703 672 
Q 941 559 1184 500 
Q 1428 441 1663 441 
Q 2288 441 2617 861 
Q 2947 1281 2994 2138 
Q 2813 1869 2534 1725 
Q 2256 1581 1919 1581 
Q 1219 1581 811 2004 
Q 403 2428 403 3163 
Q 403 3881 828 4315 
Q 1253 4750 1959 4750 
Q 2769 4750 3195 4129 
Q 3622 3509 3622 2328 
Q 3622 1225 3098 567 
Q 2575 -91 1691 -91 
Q 1453 -91 1209 -44 
Q 966 3 703 97 
z
M 1959 2075 
Q 2384 2075 2632 2365 
Q 2881 2656 2881 3163 
Q 2881 3666 2632 3958 
Q 2384 4250 1959 4250 
Q 1534 4250 1286 3958 
Q 1038 3666 1038 3163 
Q 1038 2656 1286 2365 
Q 1534 2075 1959 2075 
z
" transform="scale(0.015625)"/>
    </defs>
    <use xlink:href="#DejaVuSans-45"/>
    <use xlink:href="#DejaVuSans-70" x="63.183594"/>
    <use xlink:href="#DejaVuSans-69" x="126.660156"/>
    <use xlink:href="#DejaVuSans-73" x="154.443359"/>
    <use xlink:href="#DejaVuSans-6f" x="206.542969"/>
    <use xlink:href="#DejaVuSans-64" x="267.724609"/>
    <use xlink:href="#DejaVuSans-65" x="331.201172"/>
    <use xlink:href="#DejaVuSans-20" x="392.724609"/>
    <use xlink:href="#DejaVuSans-36" x="424.511719"/>
    <use xlink:href="#DejaVuSans-32" x="488.134766"/>
    <use xlink:href="#DejaVuSans-20" x="551.757812"/>
    <use xlink:href="#DejaVuSans-2d" x="583.544922"/>
    <use xlink:href="#DejaVuSans-20" x="619.628906"/>
    <use xlink:href="#DejaVuSans-54" x="651.416016"/>
    <use xlink:href="#DejaVuSans-6f" x="695.5"/>
    <use xlink:href="#DejaVuSans-74" x="756.681641"/>
    <use xlink:href="#DejaVuSans-61" x="795.890625"/>
    <use xlink:href="#DejaVuSans-6c" x="857.169922"/>
    <use xlink:href="#DejaVuSans-20" x="884.953125"/>
    <use xlink:href="#DejaVuSans-52" x="916.740234"/>
    <use xlink:href="#DejaVuSans-65" x="981.722656"/>
    <use xlink:href="#DejaVuSans-77" x="1043.246094"/>
    <use xlink:href="#DejaVuSans-61" x="1125.033203"/>
    <use xlink:href="#DejaVuSans-72" x="1186.3125"/>
    <use xlink:href="#DejaVuSans-64" x="1225.675781"/>
    <use xlink:href="#DejaVuSans-3a" x="1289.152344"/>
    <use xlink:href="#DejaVuSans-20" x="1322.84375"/>
    <use xlink:href="#DejaVuSans-2d" x="1354.630859"/>
    <use xlink:href="#DejaVuSans-31" x="1390.714844"/>
    <use xlink:href="#DejaVuSans-30" x="1454.337891"/>
    <use xlink:href="#DejaVuSans-39" x="1517.960938"/>
    <use xlink:href="#DejaVuSans-36" x="1581.583984"/>
    <use xlink:href="#DejaVuSans-2e" x="1645.207031"/>
    <use xlink:href="#DejaVuSans-35" x="1676.994141"/>
    <use xlink:href="#DejaVuSans-39" x="1740.617188"/>
   </g>
  </g>
 </g>
 <defs>
  <clipPath id="p089b63ae7f">
   <rect x="52.94" y="73.68" width="619.34" height="214.99"/>
  </clipPath>
  <clipPath id="pce08935736">
   <rect x="52.94" y="319.05" width="619.34" height="214.99"/>
  </clipPath>
 </defs>
</svg>
