<?xml version="1.0" encoding="utf-8" standalone="no"?>
<!DOCTYPE svg PUBLIC "-//W3C//DTD SVG 1.1//EN"
  "http://www.w3.org/Graphics/SVG/1.1/DTD/svg11.dtd">
<svg xmlns:xlink="http://www.w3.org/1999/xlink" width="720pt" height="576pt" viewBox="0 0 720 576" xmlns="http://www.w3.org/2000/svg" version="1.1">
 <metadata>
  <rdf:RDF xmlns:dc="http://purl.org/dc/elements/1.1/" xmlns:cc="http://creativecommons.org/ns#" xmlns:rdf="http://www.w3.org/1999/02/22-rdf-syntax-ns#">
   <cc:Work>
    <dc:type rdf:resource="http://purl.org/dc/dcmitype/StillImage"/>
    <dc:date>2024-06-03T12:54:40.535663</dc:date>
    <dc:format>image/svg+xml</dc:format>
    <dc:creator>
     <cc:Agent>
      <dc:title>Matplotlib v3.8.4, https://matplotlib.org/</dc:title>
     </cc:Agent>
    </dc:creator>
   </cc:Work>
  </rdf:RDF>
 </metadata>
 <defs>
  <style type="text/css">*{stroke-linejoin: round; stroke-linecap: butt}</style>
 </defs>
 <g id="figure_1">
  <g id="patch_1">
   <path d="M 0 576 
L 720 576 
L 720 0 
L 0 0 
z
" style="fill: #ffffff"/>
  </g>
  <g id="axes_1">
   <g id="patch_2">
    <path d="M 52.94 288.67 
L 672.28 288.67 
L 672.28 73.68 
L 52.94 73.68 
z
" style="fill: #ffffff"/>
   </g>
   <g id="matplotlib.axis_1">
    <g id="xtick_1">
     <g id="line2d_1">
      <defs>
       <path id="m3960dbe816" d="M 0 0 
L 0 3.5 
" style="stroke: #000000; stroke-width: 0.8"/>
      </defs>
      <g>
       <use xlink:href="#m3960dbe816" x="81.091818" y="288.67" style="stroke: #000000; stroke-width: 0.8"/>
      </g>
     </g>
    </g>
    <g id="xtick_2">
     <g id="line2d_2">
      <g>
       <use xlink:href="#m3960dbe816" x="192.595207" y="288.67" style="stroke: #000000; stroke-width: 0.8"/>
      </g>
     </g>
    </g>
    <g id="xtick_3">
     <g id="line2d_3">
      <g>
       <use xlink:href="#m3960dbe816" x="304.098597" y="288.67" style="stroke: #000000; stroke-width: 0.8"/>
      </g>
     </g>
    </g>
    <g id="xtick_4">
     <g id="line2d_4">
      <g>
       <use xlink:href="#m3960dbe816" x="415.601986" y="288.67" style="stroke: #000000; stroke-width: 0.8"/>
      </g>
     </g>
    </g>
    <g id="xtick_5">
     <g id="line2d_5">
      <g>
       <use xlink:href="#m3960dbe816" x="527.105375" y="288.67" style="stroke: #000000; stroke-width: 0.8"/>
      </g>
     </g>
    </g>
    <g id="xtick_6">
     <g id="line2d_6">
      <g>
       <use xlink:href="#m3960dbe816" x="638.608764" y="288.67" style="stroke: #000000; stroke-width: 0.8"/>
      </g>
     </g>
    </g>
   </g>
   <g id="matplotlib.axis_2">
    <g id="ytick_1">
     <g id="line2d_7">
      <defs>
       <path id="m5f21bf3818" d="M 0 0 
L -3.5 0 
" style="stroke: #ff4500; stroke-width: 0.8"/>
      </defs>
      <g>
       <use xlink:href="#m5f21bf3818" x="52.94" y="278.904132" style="fill: #ff4500; stroke: #ff4500; stroke-width: 0.8"/>
      </g>
     </g>
     <g id="text_1">
      <!-- 0 -->
      <g style="fill: #ff4500" transform="translate(39.5775 282.703351) scale(0.1 -0.1)">
       <defs>
        <path id="DejaVuSans-30" d="M 2034 4250 
Q 1547 4250 1301 3770 
Q 1056 3291 1056 2328 
Q 1056 1369 1301 889 
Q 1547 409 2034 409 
Q 2525 409 2770 889 
Q 3016 1369 3016 2328 
Q 3016 3291 2770 3770 
Q 2525 4250 2034 4250 
z
M 2034 4750 
Q 2819 4750 3233 4129 
Q 3647 3509 3647 2328 
Q 3647 1150 3233 529 
Q 2819 -91 2034 -91 
Q 1250 -91 836 529 
Q 422 1150 422 2328 
Q 422 3509 836 4129 
Q 1250 4750 2034 4750 
z
" transform="scale(0.015625)"/>
       </defs>
       <use xlink:href="#DejaVuSans-30"/>
      </g>
     </g>
    </g>
    <g id="ytick_2">
     <g id="line2d_8">
      <g>
       <use xlink:href="#m5f21bf3818" x="52.94" y="243.32144" style="fill: #ff4500; stroke: #ff4500; stroke-width: 0.8"/>
      </g>
     </g>
     <g id="text_2">
      <!-- 2 -->
      <g style="fill: #ff4500" transform="translate(39.5775 247.120659) scale(0.1 -0.1)">
       <defs>
        <path id="DejaVuSans-32" d="M 1228 531 
L 3431 531 
L 3431 0 
L 469 0 
L 469 531 
Q 828 903 1448 1529 
Q 2069 2156 2228 2338 
Q 2531 2678 2651 2914 
Q 2772 3150 2772 3378 
Q 2772 3750 2511 3984 
Q 2250 4219 1831 4219 
Q 1534 4219 1204 4116 
Q 875 4013 500 3803 
L 500 4441 
Q 881 4594 1212 4672 
Q 1544 4750 1819 4750 
Q 2544 4750 2975 4387 
Q 3406 4025 3406 3419 
Q 3406 3131 3298 2873 
Q 3191 2616 2906 2266 
Q 2828 2175 2409 1742 
Q 1991 1309 1228 531 
z
" transform="scale(0.015625)"/>
       </defs>
       <use xlink:href="#DejaVuSans-32"/>
      </g>
     </g>
    </g>
    <g id="ytick_3">
     <g id="line2d_9">
      <g>
       <use xlink:href="#m5f21bf3818" x="52.94" y="207.738749" style="fill: #ff4500; stroke: #ff4500; stroke-width: 0.8"/>
      </g>
     </g>
     <g id="text_3">
      <!-- 4 -->
      <g style="fill: #ff4500" transform="translate(39.5775 211.537968) scale(0.1 -0.1)">
       <defs>
        <path id="DejaVuSans-34" d="M 2419 4116 
L 825 1625 
L 2419 1625 
L 2419 4116 
z
M 2253 4666 
L 3047 4666 
L 3047 1625 
L 3713 1625 
L 3713 1100 
L 3047 1100 
L 3047 0 
L 2419 0 
L 2419 1100 
L 313 1100 
L 313 1709 
L 2253 4666 
z
" transform="scale(0.015625)"/>
       </defs>
       <use xlink:href="#DejaVuSans-34"/>
      </g>
     </g>
    </g>
    <g id="ytick_4">
     <g id="line2d_10">
      <g>
       <use xlink:href="#m5f21bf3818" x="52.94" y="172.156057" style="fill: #ff4500; stroke: #ff4500; stroke-width: 0.8"/>
      </g>
     </g>
     <g id="text_4">
      <!-- 6 -->
      <g style="fill: #ff4500" transform="translate(39.5775 175.955276) scale(0.1 -0.1)">
       <defs>
        <path id="DejaVuSans-36" d="M 2113 2584 
Q 1688 2584 1439 2293 
Q 1191 2003 1191 1497 
Q 1191 994 1439 701 
Q 1688 409 2113 409 
Q 2538 409 2786 701 
Q 3034 994 3034 1497 
Q 3034 2003 2786 2293 
Q 2538 2584 2113 2584 
z
M 3366 4563 
L 3366 3988 
Q 3128 4100 2886 4159 
Q 2644 4219 2406 4219 
Q 1781 4219 1451 3797 
Q 1122 3375 1075 2522 
Q 1259 2794 1537 2939 
Q 1816 3084 2150 3084 
Q 2853 3084 3261 2657 
Q 3669 2231 3669 1497 
Q 3669 778 3244 343 
Q 2819 -91 2113 -91 
Q 1303 -91 875 529 
Q 447 1150 447 2328 
Q 447 3434 972 4092 
Q 1497 4750 2381 4750 
Q 2619 4750 2861 4703 
Q 3103 4656 3366 4563 
z
" transform="scale(0.015625)"/>
       </defs>
       <use xlink:href="#DejaVuSans-36"/>
      </g>
     </g>
    </g>
    <g id="ytick_5">
     <g id="line2d_11">
      <g>
       <use xlink:href="#m5f21bf3818" x="52.94" y="136.573366" style="fill: #ff4500; stroke: #ff4500; stroke-width: 0.8"/>
      </g>
     </g>
     <g id="text_5">
      <!-- 8 -->
      <g style="fill: #ff4500" transform="translate(39.5775 140.372585) scale(0.1 -0.1)">
       <defs>
        <path id="DejaVuSans-38" d="M 2034 2216 
Q 1584 2216 1326 1975 
Q 1069 1734 1069 1313 
Q 1069 891 1326 650 
Q 1584 409 2034 409 
Q 2484 409 2743 651 
Q 3003 894 3003 1313 
Q 3003 1734 2745 1975 
Q 2488 2216 2034 2216 
z
M 1403 2484 
Q 997 2584 770 2862 
Q 544 3141 544 3541 
Q 544 4100 942 4425 
Q 1341 4750 2034 4750 
Q 2731 4750 3128 4425 
Q 3525 4100 3525 3541 
Q 3525 3141 3298 2862 
Q 3072 2584 2669 2484 
Q 3125 2378 3379 2068 
Q 3634 1759 3634 1313 
Q 3634 634 3220 271 
Q 2806 -91 2034 -91 
Q 1263 -91 848 271 
Q 434 634 434 1313 
Q 434 1759 690 2068 
Q 947 2378 1403 2484 
z
M 1172 3481 
Q 1172 3119 1398 2916 
Q 1625 2713 2034 2713 
Q 2441 2713 2670 2916 
Q 2900 3119 2900 3481 
Q 2900 3844 2670 4047 
Q 2441 4250 2034 4250 
Q 1625 4250 1398 4047 
Q 1172 3844 1172 3481 
z
" transform="scale(0.015625)"/>
       </defs>
       <use xlink:href="#DejaVuSans-38"/>
      </g>
     </g>
    </g>
    <g id="ytick_6">
     <g id="line2d_12">
      <g>
       <use xlink:href="#m5f21bf3818" x="52.94" y="100.990675" style="fill: #ff4500; stroke: #ff4500; stroke-width: 0.8"/>
      </g>
     </g>
     <g id="text_6">
      <!-- 10 -->
      <g style="fill: #ff4500" transform="translate(33.215 104.789893) scale(0.1 -0.1)">
       <defs>
        <path id="DejaVuSans-31" d="M 794 531 
L 1825 531 
L 1825 4091 
L 703 3866 
L 703 4441 
L 1819 4666 
L 2450 4666 
L 2450 531 
L 3481 531 
L 3481 0 
L 794 0 
L 794 531 
z
" transform="scale(0.015625)"/>
       </defs>
       <use xlink:href="#DejaVuSans-31"/>
       <use xlink:href="#DejaVuSans-30" x="63.623047"/>
      </g>
     </g>
    </g>
    <g id="text_7">
     <!-- Output Voltage -->
     <g style="fill: #ff4500" transform="translate(27.135313 218.888281) rotate(-90) scale(0.1 -0.1)">
      <defs>
       <path id="DejaVuSans-4f" d="M 2522 4238 
Q 1834 4238 1429 3725 
Q 1025 3213 1025 2328 
Q 1025 1447 1429 934 
Q 1834 422 2522 422 
Q 3209 422 3611 934 
Q 4013 1447 4013 2328 
Q 4013 3213 3611 3725 
Q 3209 4238 2522 4238 
z
M 2522 4750 
Q 3503 4750 4090 4092 
Q 4678 3434 4678 2328 
Q 4678 1225 4090 567 
Q 3503 -91 2522 -91 
Q 1538 -91 948 565 
Q 359 1222 359 2328 
Q 359 3434 948 4092 
Q 1538 4750 2522 4750 
z
" transform="scale(0.015625)"/>
       <path id="DejaVuSans-75" d="M 544 1381 
L 544 3500 
L 1119 3500 
L 1119 1403 
Q 1119 906 1312 657 
Q 1506 409 1894 409 
Q 2359 409 2629 706 
Q 2900 1003 2900 1516 
L 2900 3500 
L 3475 3500 
L 3475 0 
L 2900 0 
L 2900 538 
Q 2691 219 2414 64 
Q 2138 -91 1772 -91 
Q 1169 -91 856 284 
Q 544 659 544 1381 
z
M 1991 3584 
L 1991 3584 
z
" transform="scale(0.015625)"/>
       <path id="DejaVuSans-74" d="M 1172 4494 
L 1172 3500 
L 2356 3500 
L 2356 3053 
L 1172 3053 
L 1172 1153 
Q 1172 725 1289 603 
Q 1406 481 1766 481 
L 2356 481 
L 2356 0 
L 1766 0 
Q 1100 0 847 248 
Q 594 497 594 1153 
L 594 3053 
L 172 3053 
L 172 3500 
L 594 3500 
L 594 4494 
L 1172 4494 
z
" transform="scale(0.015625)"/>
       <path id="DejaVuSans-70" d="M 1159 525 
L 1159 -1331 
L 581 -1331 
L 581 3500 
L 1159 3500 
L 1159 2969 
Q 1341 3281 1617 3432 
Q 1894 3584 2278 3584 
Q 2916 3584 3314 3078 
Q 3713 2572 3713 1747 
Q 3713 922 3314 415 
Q 2916 -91 2278 -91 
Q 1894 -91 1617 61 
Q 1341 213 1159 525 
z
M 3116 1747 
Q 3116 2381 2855 2742 
Q 2594 3103 2138 3103 
Q 1681 3103 1420 2742 
Q 1159 2381 1159 1747 
Q 1159 1113 1420 752 
Q 1681 391 2138 391 
Q 2594 391 2855 752 
Q 3116 1113 3116 1747 
z
" transform="scale(0.015625)"/>
       <path id="DejaVuSans-20" transform="scale(0.015625)"/>
       <path id="DejaVuSans-56" d="M 1831 0 
L 50 4666 
L 709 4666 
L 2188 738 
L 3669 4666 
L 4325 4666 
L 2547 0 
L 1831 0 
z
" transform="scale(0.015625)"/>
       <path id="DejaVuSans-6f" d="M 1959 3097 
Q 1497 3097 1228 2736 
Q 959 2375 959 1747 
Q 959 1119 1226 758 
Q 1494 397 1959 397 
Q 2419 397 2687 759 
Q 2956 1122 2956 1747 
Q 2956 2369 2687 2733 
Q 2419 3097 1959 3097 
z
M 1959 3584 
Q 2709 3584 3137 3096 
Q 3566 2609 3566 1747 
Q 3566 888 3137 398 
Q 2709 -91 1959 -91 
Q 1206 -91 779 398 
Q 353 888 353 1747 
Q 353 2609 779 3096 
Q 1206 3584 1959 3584 
z
" transform="scale(0.015625)"/>
       <path id="DejaVuSans-6c" d="M 603 4863 
L 1178 4863 
L 1178 0 
L 603 0 
L 603 4863 
z
" transform="scale(0.015625)"/>
       <path id="DejaVuSans-61" d="M 2194 1759 
Q 1497 1759 1228 1600 
Q 959 1441 959 1056 
Q 959 750 1161 570 
Q 1363 391 1709 391 
Q 2188 391 2477 730 
Q 2766 1069 2766 1631 
L 2766 1759 
L 2194 1759 
z
M 3341 1997 
L 3341 0 
L 2766 0 
L 2766 531 
Q 2569 213 2275 61 
Q 1981 -91 1556 -91 
Q 1019 -91 701 211 
Q 384 513 384 1019 
Q 384 1609 779 1909 
Q 1175 2209 1959 2209 
L 2766 2209 
L 2766 2266 
Q 2766 2663 2505 2880 
Q 2244 3097 1772 3097 
Q 1472 3097 1187 3025 
Q 903 2953 641 2809 
L 641 3341 
Q 956 3463 1253 3523 
Q 1550 3584 1831 3584 
Q 2591 3584 2966 3190 
Q 3341 2797 3341 1997 
z
" transform="scale(0.015625)"/>
       <path id="DejaVuSans-67" d="M 2906 1791 
Q 2906 2416 2648 2759 
Q 2391 3103 1925 3103 
Q 1463 3103 1205 2759 
Q 947 2416 947 1791 
Q 947 1169 1205 825 
Q 1463 481 1925 481 
Q 2391 481 2648 825 
Q 2906 1169 2906 1791 
z
M 3481 434 
Q 3481 -459 3084 -895 
Q 2688 -1331 1869 -1331 
Q 1566 -1331 1297 -1286 
Q 1028 -1241 775 -1147 
L 775 -588 
Q 1028 -725 1275 -790 
Q 1522 -856 1778 -856 
Q 2344 -856 2625 -561 
Q 2906 -266 2906 331 
L 2906 616 
Q 2728 306 2450 153 
Q 2172 0 1784 0 
Q 1141 0 747 490 
Q 353 981 353 1791 
Q 353 2603 747 3093 
Q 1141 3584 1784 3584 
Q 2172 3584 2450 3431 
Q 2728 3278 2906 2969 
L 2906 3500 
L 3481 3500 
L 3481 434 
z
" transform="scale(0.015625)"/>
       <path id="DejaVuSans-65" d="M 3597 1894 
L 3597 1613 
L 953 1613 
Q 991 1019 1311 708 
Q 1631 397 2203 397 
Q 2534 397 2845 478 
Q 3156 559 3463 722 
L 3463 178 
Q 3153 47 2828 -22 
Q 2503 -91 2169 -91 
Q 1331 -91 842 396 
Q 353 884 353 1716 
Q 353 2575 817 3079 
Q 1281 3584 2069 3584 
Q 2775 3584 3186 3129 
Q 3597 2675 3597 1894 
z
M 3022 2063 
Q 3016 2534 2758 2815 
Q 2500 3097 2075 3097 
Q 1594 3097 1305 2825 
Q 1016 2553 972 2059 
L 3022 2063 
z
" transform="scale(0.015625)"/>
      </defs>
      <use xlink:href="#DejaVuSans-4f"/>
      <use xlink:href="#DejaVuSans-75" x="78.710938"/>
      <use xlink:href="#DejaVuSans-74" x="142.089844"/>
      <use xlink:href="#DejaVuSans-70" x="181.298828"/>
      <use xlink:href="#DejaVuSans-75" x="244.775391"/>
      <use xlink:href="#DejaVuSans-74" x="308.154297"/>
      <use xlink:href="#DejaVuSans-20" x="347.363281"/>
      <use xlink:href="#DejaVuSans-56" x="379.150391"/>
      <use xlink:href="#DejaVuSans-6f" x="439.808594"/>
      <use xlink:href="#DejaVuSans-6c" x="500.990234"/>
      <use xlink:href="#DejaVuSans-74" x="528.773438"/>
      <use xlink:href="#DejaVuSans-61" x="567.982422"/>
      <use xlink:href="#DejaVuSans-67" x="629.261719"/>
      <use xlink:href="#DejaVuSans-65" x="692.738281"/>
     </g>
    </g>
   </g>
   <g id="line2d_13">
    <path d="M 81.091818 278.897727 
L 81.259073 278.765511 
L 81.48208 278.11688 
L 81.81659 276.222081 
L 82.318355 271.722255 
L 83.043127 262.755179 
L 84.158161 248.758133 
L 85.050188 237.635551 
L 86.945746 213.283043 
L 88.005028 202.114507 
L 90.012089 180.550031 
L 92.632419 157.220102 
L 93.803205 149.93619 
L 94.026211 149.595591 
L 94.193466 149.653634 
L 94.416473 150.100732 
L 94.750983 151.454743 
L 95.754514 156.197851 
L 96.033272 156.502855 
L 96.535038 156.731383 
L 96.813796 157.568436 
L 97.204058 159.55447 
L 97.761575 163.653067 
L 98.26334 167.143417 
L 99.043864 171.158783 
L 99.768636 176.896335 
L 101.273932 189.443918 
L 101.831449 192.471876 
L 102.667724 198.510957 
L 103.894261 207.532049 
L 104.17302 208.068649 
L 104.340275 208.06837 
L 104.563282 207.739043 
L 104.897792 206.636606 
L 105.455309 204.611062 
L 105.734067 204.3605 
L 105.957074 204.485581 
L 106.570343 205.188201 
L 106.793349 204.858387 
L 107.12786 203.771166 
L 107.573873 201.426033 
L 108.298645 197.445672 
L 108.577404 196.941369 
L 108.80041 196.916628 
L 109.357927 197.214818 
L 109.580934 196.819922 
L 109.915444 195.694229 
L 110.41721 193.047019 
L 111.030478 189.784356 
L 111.309237 189.288499 
L 111.532243 189.295227 
L 111.75525 189.612232 
L 112.034009 189.970729 
L 112.201264 189.926832 
L 112.424271 189.593572 
L 112.758781 188.585877 
L 113.260546 186.16077 
L 113.762311 183.761509 
L 114.04107 183.330817 
L 114.208325 183.352799 
L 114.431332 183.668273 
L 114.933097 184.541595 
L 115.100352 184.484232 
L 115.323359 184.14934 
L 115.657869 183.169497 
L 116.159634 180.841088 
L 116.549896 179.326776 
L 116.772903 179.058882 
L 116.940158 179.106873 
L 117.163165 179.464404 
L 117.776433 180.763129 
L 117.943688 180.730768 
L 118.166695 180.435438 
L 118.501205 179.526255 
L 119.002971 177.341864 
L 119.337481 176.261887 
L 119.560487 176.085484 
L 119.727743 176.200442 
L 120.006501 176.803713 
L 120.508266 178.12249 
L 120.731273 178.197558 
L 120.95428 177.978817 
L 121.233038 177.348721 
L 121.679052 175.664198 
L 122.403824 172.732686 
L 122.626831 172.624134 
L 122.794086 172.791252 
L 123.295851 173.527067 
L 123.518858 173.415154 
L 123.797616 172.919025 
L 124.187878 171.671443 
L 124.745395 169.030821 
L 125.135657 167.580604 
L 125.358664 167.390516 
L 125.525919 167.513626 
L 126.194939 168.460877 
L 126.417946 168.285009 
L 126.696704 167.741446 
L 127.142718 166.275831 
L 127.421476 165.63068 
L 127.588731 165.58002 
L 127.755987 165.75272 
L 128.034745 166.479148 
L 128.425007 168.270884 
L 128.926772 170.508479 
L 129.205531 170.96867 
L 129.428537 170.991493 
L 129.651544 170.74862 
L 130.264813 169.810245 
L 130.432068 169.980003 
L 130.710826 170.68639 
L 131.101088 172.423298 
L 131.770109 175.530185 
L 132.048867 175.896898 
L 132.271874 175.838843 
L 132.550632 175.390562 
L 133.108149 174.321127 
L 133.275404 174.419475 
L 133.498411 174.849114 
L 133.832921 176.044921 
L 134.557693 178.976062 
L 134.7807 179.180871 
L 135.003707 179.072728 
L 135.282465 178.557077 
L 135.951486 177.059828 
L 136.118741 177.152172 
L 136.341748 177.567484 
L 136.676258 178.730153 
L 137.289526 181.077863 
L 137.512533 181.292694 
L 137.679788 181.241189 
L 137.902795 180.921796 
L 138.571815 179.673085 
L 138.73907 179.803149 
L 139.017829 180.415039 
L 139.408091 181.969947 
L 140.132863 185.067645 
L 140.35587 185.274176 
L 140.523125 185.209217 
L 140.746131 184.863399 
L 141.303648 183.765082 
L 141.470903 183.822855 
L 141.69391 184.179559 
L 142.02842 185.23145 
L 143.031951 188.998617 
L 143.199206 189.007573 
L 143.422213 188.739451 
L 143.756723 187.819178 
L 144.202736 185.808802 
L 145.540777 179.117731 
L 146.042542 176.758789 
L 146.767314 172.183364 
L 148.049603 163.729794 
L 148.551369 161.894436 
L 149.276141 158.195396 
L 150.391175 152.280379 
L 150.614181 152.144259 
L 150.781436 152.333693 
L 151.115947 152.75507 
L 151.338953 152.743928 
L 151.617712 152.442377 
L 152.007974 151.572911 
L 152.565491 149.634355 
L 153.067256 147.998513 
L 153.234511 147.956224 
L 153.401766 148.166695 
L 154.126538 149.98566 
L 154.461048 151.399823 
L 154.962814 154.731229 
L 155.687586 161.343392 
L 157.583143 179.647912 
L 162.322037 224.563193 
L 164.830863 241.991727 
L 165.109622 242.986029 
L 165.332629 243.135153 
L 165.499884 242.91686 
L 165.778642 242.003706 
L 166.168904 239.754967 
L 166.837924 235.643205 
L 167.228186 234.498581 
L 167.562696 234.103492 
L 167.729952 233.84943 
L 168.00871 232.917995 
L 168.398972 230.717081 
L 168.956489 226.183515 
L 169.569757 221.285092 
L 169.960019 219.697356 
L 170.29453 219.11797 
L 170.517536 218.807812 
L 170.796295 217.927785 
L 171.186557 215.899298 
L 171.799825 211.293091 
L 172.859107 202.918602 
L 173.974141 198.252139 
L 174.698913 192.83183 
L 175.535189 186.651408 
L 175.869699 185.797739 
L 176.148457 185.33384 
L 176.482968 184.271994 
L 176.984733 181.834681 
L 177.709505 177.060656 
L 178.936042 167.211893 
L 181.779379 143.993814 
L 182.058137 143.032473 
L 182.281144 142.87379 
L 182.448399 143.066595 
L 182.727157 143.906857 
L 183.117419 145.999997 
L 183.674936 150.412819 
L 184.78997 161.706541 
L 186.183762 177.894174 
L 187.466051 192.198519 
L 188.41383 199.218466 
L 190.36514 214.510374 
L 190.978408 217.270912 
L 191.926187 222.78459 
L 192.985469 228.913821 
L 193.208476 229.176669 
L 193.375731 229.062018 
L 193.598738 228.541635 
L 193.933248 227.08221 
L 194.435013 223.673205 
L 195.159785 216.935796 
L 200.5677 161.545462 
L 200.957962 159.518115 
L 201.515478 157.583967 
L 202.240251 154.052544 
L 203.689795 146.65718 
L 204.19156 146.272048 
L 204.581822 145.454362 
L 205.139339 143.661342 
L 205.975614 140.061407 
L 207.48091 132.359857 
L 209.933984 119.991813 
L 211.495032 113.270279 
L 212.275556 110.594074 
L 213.892355 106.598472 
L 215.007389 104.014207 
L 215.787912 103.004702 
L 217.01445 100.984773 
L 220.526806 95.029811 
L 222.199357 92.71384 
L 223.760405 90.91774 
L 225.377204 89.393718 
L 227.049755 88.124244 
L 228.833809 87.052696 
L 230.785118 86.146288 
L 232.959434 85.387851 
L 233.628455 85.258532 
L 233.79571 85.569906 
L 234.074468 86.797315 
L 234.46473 89.752022 
L 235.077999 94.211435 
L 235.691267 97.080523 
L 236.248784 98.672877 
L 236.527543 99.448259 
L 236.862053 101.324693 
L 237.531073 107.021663 
L 238.08859 110.429472 
L 238.590355 112.264639 
L 239.036369 113.149023 
L 239.426631 113.473326 
L 239.761141 113.484755 
L 240.151403 113.248985 
L 240.653168 112.64 
L 241.37794 111.334892 
L 242.492974 108.779269 
L 246.395593 99.466054 
L 247.95664 96.458207 
L 249.461936 94.028974 
L 250.744225 92.312856 
L 250.91148 92.347366 
L 251.078735 92.722523 
L 251.970762 95.45236 
L 252.472527 96.255196 
L 252.974293 96.668295 
L 253.476058 96.786904 
L 253.643313 96.915636 
L 253.86632 97.561102 
L 254.646843 100.514921 
L 255.427367 102.700307 
L 255.817629 105.413012 
L 256.375146 111.088526 
L 257.49018 123.038246 
L 258.772469 132.320891 
L 260.44502 148.544992 
L 260.835282 149.792457 
L 261.11404 150.158077 
L 261.337047 150.185553 
L 261.615805 149.936215 
L 261.950315 149.286182 
L 262.619336 147.897848 
L 263.065349 146.672834 
L 263.73437 144.076027 
L 264.793652 138.879513 
L 265.295417 136.780169 
L 266.187444 133.224059 
L 268.083002 124.444897 
L 270.145815 115.340117 
L 271.706862 109.444348 
L 273.156406 104.814508 
L 273.769675 103.324718 
L 276.278501 98.283703 
L 277.170528 97.173778 
L 278.954582 94.903366 
L 279.289092 95.300977 
L 279.790858 95.68755 
L 280.292623 95.80022 
L 280.85014 95.688069 
L 281.797919 95.37732 
L 282.411187 96.299356 
L 282.912953 96.646449 
L 283.414718 96.716466 
L 283.972235 96.554913 
L 284.585503 96.313222 
L 285.198772 96.888642 
L 285.700537 97.023433 
L 286.202303 96.930906 
L 286.871323 96.556039 
L 287.373088 96.286359 
L 288.042108 96.811809 
L 288.543874 96.878134 
L 289.101391 96.71097 
L 289.826163 96.231998 
L 290.104921 96.134499 
L 291.164203 97.300059 
L 291.665969 97.37212 
L 292.223486 97.201585 
L 292.892506 96.895326 
L 293.951788 98.101528 
L 294.397802 98.174028 
L 294.899567 98.037526 
L 295.568587 97.597998 
L 296.516366 96.661883 
L 298.30042 94.505825 
L 300.753495 91.635742 
L 302.537549 89.894339 
L 304.265852 88.513684 
L 306.049906 87.371351 
L 307.945463 86.420091 
L 310.064028 85.610938 
L 310.45429 85.547325 
L 310.621545 85.852128 
L 310.900303 87.0689 
L 311.290565 90.02403 
L 311.848082 96.186395 
L 316.196714 150.680922 
L 316.642728 152.597 
L 316.977238 153.21254 
L 317.200245 153.300692 
L 317.423252 153.167998 
L 317.757762 152.633368 
L 317.980768 152.461957 
L 318.37103 152.588809 
L 318.649789 152.31784 
L 318.984299 151.631874 
L 319.486064 150.020445 
L 320.210836 146.82658 
L 320.824105 144.238418 
L 321.32587 143.21718 
L 321.883387 141.428233 
L 322.719663 137.899776 
L 324.336462 129.863628 
L 326.622281 118.764727 
L 328.183329 112.268271 
L 329.131107 108.967464 
L 329.521369 108.630924 
L 330.078886 107.955327 
L 330.915162 106.540497 
L 331.974444 104.651756 
L 332.531961 104.798957 
L 332.977974 104.62424 
L 333.535491 104.132302 
L 334.316015 103.09939 
L 334.650525 102.717996 
L 334.81778 102.900529 
L 335.263794 103.46746 
L 335.654056 103.665678 
L 336.044318 103.6444 
L 336.546083 103.367391 
L 337.159351 102.751048 
L 337.43811 102.539281 
L 337.605365 102.766839 
L 338.051379 103.435124 
L 338.497392 103.720567 
L 338.887654 103.724591 
L 339.166412 103.75617 
L 339.389419 104.308498 
L 339.723929 106.047854 
L 340.169943 109.742992 
L 341.06197 117.512953 
L 341.563735 119.851055 
L 342.232756 122.375431 
L 342.678769 125.704493 
L 344.01681 136.861765 
L 344.407072 138.135253 
L 344.741582 138.628293 
L 345.02034 138.691342 
L 345.299099 138.489448 
L 345.689361 137.839877 
L 346.023871 137.370564 
L 346.358381 136.955553 
L 346.804395 135.983987 
L 347.473415 133.875434 
L 348.476945 129.842305 
L 348.867207 128.604132 
L 349.591979 126.48934 
L 350.762765 122.246301 
L 352.268061 116.864161 
L 354.665384 109.125434 
L 357.118458 103.123683 
L 357.620223 102.84762 
L 358.289244 102.175625 
L 359.237022 100.859936 
L 359.850291 100.030405 
L 360.46356 100.123237 
L 360.965325 99.925427 
L 361.634345 99.388484 
L 362.582124 98.298225 
L 364.533433 95.61143 
L 366.763501 92.68457 
L 368.04579 91.298569 
L 368.213045 91.480245 
L 368.882066 92.728891 
L 369.439583 93.281708 
L 369.9971 93.507652 
L 370.554616 93.495551 
L 370.833375 93.482984 
L 371.00063 93.777795 
L 371.66965 95.343506 
L 372.171416 95.98311 
L 372.673181 96.279092 
L 373.174946 96.316382 
L 373.732463 96.134822 
L 374.457235 95.657254 
L 375.572269 94.616774 
L 377.356323 92.839813 
L 377.523578 93.128619 
L 377.802337 94.29495 
L 378.192599 97.13754 
L 378.750116 103.074344 
L 382.039466 145.002408 
L 383.321755 162.366059 
L 385.440319 189.83271 
L 387.893393 215.391113 
L 388.283655 217.545554 
L 388.562414 218.071043 
L 388.729669 218.042332 
L 388.952676 217.652974 
L 389.287186 216.419804 
L 389.733199 213.794899 
L 391.573005 200.122708 
L 392.743791 188.625567 
L 393.412811 182.624585 
L 394.193335 177.896405 
L 394.472093 177.376389 
L 394.639349 177.364931 
L 394.862355 177.656509 
L 395.196865 178.661544 
L 395.642879 180.859929 
L 396.813665 187.204581 
L 397.31543 189.808782 
L 398.040202 194.862489 
L 399.433994 205.004692 
L 399.712753 205.443779 
L 399.880008 205.398239 
L 400.103015 205.022243 
L 400.437525 203.875469 
L 400.93929 201.106732 
L 401.664062 195.563675 
L 402.834848 185.088487 
L 406.235701 153.1588 
L 407.406487 144.10595 
L 410.305575 127.947004 
L 411.643615 122.697948 
L 414.4312 111.716442 
L 415.992248 106.504391 
L 417.441792 102.402629 
L 418.835584 99.08736 
L 420.229376 96.318031 
L 421.623169 94.018486 
L 423.072713 92.047408 
L 424.578009 90.377432 
L 426.139056 88.977736 
L 427.811607 87.780889 
L 429.484158 86.834125 
L 429.930171 86.886386 
L 430.87795 86.882969 
L 432.215991 86.628756 
L 432.438997 86.660891 
L 433.219521 86.871636 
L 434.1673 86.877685 
L 435.449589 86.644434 
L 438.12567 85.86808 
L 441.526524 84.964694 
L 444.592867 84.386765 
L 448.160975 83.948108 
L 452.676863 83.627344 
L 457.471508 83.494967 
L 458.140529 83.879305 
L 459.088307 84.187694 
L 460.593603 84.618204 
L 461.429879 84.991381 
L 462.377657 85.167535 
L 463.659946 85.165197 
L 465.778511 84.901011 
L 468.39884 84.549612 
L 468.566096 84.881026 
L 469.290868 86.81788 
L 469.904136 87.845142 
L 470.517405 88.464402 
L 471.297929 89.097759 
L 472.245707 91.690199 
L 472.803224 92.494948 
L 473.360741 92.914767 
L 473.918258 93.051649 
L 474.531527 92.967804 
L 475.312051 92.622435 
L 476.482836 91.822991 
L 479.716434 89.398953 
L 480.496958 90.174984 
L 481.110227 90.426273 
L 481.779247 90.449709 
L 482.504019 90.418044 
L 483.228791 91.375764 
L 483.786308 91.727742 
L 484.399577 91.836369 
L 485.068597 91.721517 
L 485.458859 91.70328 
L 486.072128 91.736414 
L 486.7969 91.546404 
L 487.80043 91.034183 
L 488.246444 90.881178 
L 488.971216 90.781801 
L 489.918995 90.40528 
L 490.922525 89.975183 
L 491.535794 90.323868 
L 492.149062 90.42279 
L 492.929586 90.303026 
L 493.71011 90.138764 
L 494.267627 90.536575 
L 494.880895 90.703926 
L 495.605667 90.646661 
L 496.497695 90.334475 
L 497.891487 89.577176 
L 501.515347 87.486965 
L 501.682602 87.755122 
L 501.961361 88.911342 
L 502.797636 93.164455 
L 503.355153 94.851021 
L 503.91267 95.862648 
L 504.414435 96.60096 
L 504.693194 97.860297 
L 505.640972 102.978693 
L 506.142738 104.399117 
L 506.588751 105.099194 
L 506.979013 105.372874 
L 507.369275 105.396436 
L 507.815289 105.183185 
L 508.372805 104.646909 
L 509.153329 103.558265 
L 510.49137 101.233642 
L 513.613465 95.731944 
L 515.286016 93.287401 
L 516.847063 91.386535 
L 518.408111 89.821514 
L 520.02491 88.505292 
L 521.753212 87.382528 
L 523.64877 86.42226 
L 525.711583 85.628175 
L 528.108905 84.951796 
L 529.614201 84.691026 
L 529.781456 85.015568 
L 531.231 89.45177 
L 531.788517 90.23755 
L 532.569041 91.202166 
L 533.795578 95.452307 
L 534.297343 96.245265 
L 534.799109 96.651185 
L 535.356626 97.023058 
L 536.583163 100.112218 
L 537.029177 100.49247 
L 537.47519 100.590278 
L 538.14421 100.606551 
L 538.478721 101.557162 
L 538.980486 102.61946 
L 539.426499 103.100923 
L 539.816761 103.244264 
L 540.262775 103.160418 
L 540.76454 102.825194 
L 541.43356 102.097958 
L 542.492843 100.561514 
L 545.336179 96.187572 
L 545.503434 96.506478 
L 545.782193 97.704141 
L 546.172454 100.556845 
L 546.841475 107.576071 
L 547.398992 112.150761 
L 547.956509 114.955156 
L 548.291019 116.782971 
L 548.792784 121.007719 
L 550.409583 136.263427 
L 550.855597 137.752049 
L 551.190107 138.225583 
L 551.468865 138.277131 
L 551.747624 138.067409 
L 552.137886 137.412059 
L 552.695403 135.911849 
L 553.475926 133.062472 
L 554.869719 126.940252 
L 557.5458 115.173588 
L 559.106848 109.334072 
L 560.556392 104.735577 
L 561.950184 101.017519 
L 563.232473 98.15987 
L 563.399728 98.048559 
L 563.901493 97.980634 
L 564.514762 97.647683 
L 565.351037 96.903557 
L 566.131561 96.178277 
L 566.800581 96.556069 
L 567.302347 96.548457 
L 567.915615 96.294892 
L 568.696139 95.712712 
L 569.922676 94.486042 
L 573.99255 90.235048 
L 575.776604 88.768942 
L 577.560658 87.582603 
L 579.456216 86.587638 
L 581.519029 85.757176 
L 583.8606 85.060021 
L 584.975634 84.861107 
L 585.142889 85.181754 
L 585.421647 86.424137 
L 586.926943 95.085963 
L 587.48446 96.555078 
L 587.874722 97.450213 
L 588.209232 99.247505 
L 589.435769 107.212042 
L 589.937535 108.71919 
L 590.383548 109.426063 
L 590.77381 109.66409 
L 591.164072 109.762637 
L 591.888844 110.808102 
L 592.223354 110.904027 
L 592.613616 110.768697 
L 593.05963 110.357142 
L 593.672898 109.463615 
L 593.951657 109.107521 
L 594.843684 109.247698 
L 595.289697 108.894055 
L 595.902966 108.084557 
L 596.850745 106.777171 
L 597.241007 106.937937 
L 597.631269 106.858483 
L 598.133034 106.48378 
L 598.802054 105.64236 
L 599.582578 104.610352 
L 600.140095 104.909807 
L 600.530357 104.848122 
L 601.032122 104.516183 
L 601.701142 103.756419 
L 602.035652 103.422831 
L 602.202907 103.636226 
L 602.481666 104.599237 
L 602.983431 106.13104 
L 603.429445 106.885127 
L 603.819707 107.178976 
L 604.209968 107.202731 
L 604.655982 106.970534 
L 604.823237 106.966754 
L 604.990492 107.263723 
L 605.325002 108.564304 
L 605.826768 110.109228 
L 606.272781 110.824897 
L 606.663043 111.055892 
L 606.997553 111.019928 
L 607.387815 110.759737 
L 608.335594 109.704364 
L 609.004614 108.719765 
L 610.008145 106.760491 
L 611.290434 104.281173 
L 613.074488 101.186141 
L 613.13024 101.234604 
L 613.297495 101.592248 
L 613.576253 102.81377 
L 614.13377 105.175791 
L 614.635535 106.402588 
L 615.081549 106.94928 
L 615.471811 107.101233 
L 615.806321 107.179367 
L 616.029328 107.75188 
L 616.363838 109.483484 
L 616.921355 112.209722 
L 617.367368 113.463018 
L 617.75763 114.035737 
L 618.09214 114.214629 
L 618.426651 114.159163 
L 618.816912 113.995843 
L 618.984168 114.268579 
L 619.931946 116.584585 
L 620.266457 116.782067 
L 620.600967 116.72507 
L 620.991229 116.398582 
L 621.660249 115.612373 
L 621.716001 115.660224 
L 621.939007 116.160925 
L 622.385021 117.152167 
L 622.775283 117.512063 
L 623.109793 117.519662 
L 623.444303 117.302393 
L 623.890317 116.734868 
L 624.503585 115.571765 
L 625.451364 113.235819 
L 630.636272 99.595764 
L 632.141567 96.615747 
L 633.591112 94.219238 
L 635.040656 92.232003 
L 636.545951 90.537783 
L 638.106999 89.112094 
L 639.333536 88.249952 
L 639.500791 88.492067 
L 639.723798 89.318814 
L 640.058308 91.489083 
L 640.560073 96.413753 
L 641.284845 106.001987 
L 642.009617 115.266778 
L 642.734389 123.360909 
L 643.793672 138.151329 
L 644.128182 143.180219 
L 644.128182 143.180219 
" clip-path="url(#pedd5cfde79)" style="fill: none; stroke: #ff4500; stroke-width: 1.5; stroke-linecap: square"/>
   </g>
   <g id="patch_3">
    <path d="M 52.94 288.67 
L 52.94 73.68 
" style="fill: none; stroke: #ff4500; stroke-width: 0.8; stroke-linejoin: miter; stroke-linecap: square"/>
   </g>
   <g id="patch_4">
    <path d="M 672.28 288.67 
L 672.28 73.68 
" style="fill: none; stroke: #000000; stroke-width: 0.8; stroke-linejoin: miter; stroke-linecap: square"/>
   </g>
   <g id="patch_5">
    <path d="M 52.94 288.67 
L 672.28 288.67 
" style="fill: none; stroke: #000000; stroke-width: 0.8; stroke-linejoin: miter; stroke-linecap: square"/>
   </g>
   <g id="patch_6">
    <path d="M 52.94 73.68 
L 672.28 73.68 
" style="fill: none; stroke: #808080; stroke-width: 0.8; stroke-linejoin: miter; stroke-linecap: square"/>
   </g>
   <g id="text_8">
    <!-- Output Voltage and Duty Cycle -->
    <g transform="translate(269.620312 67.68) scale(0.12 -0.12)">
     <defs>
      <path id="DejaVuSans-6e" d="M 3513 2113 
L 3513 0 
L 2938 0 
L 2938 2094 
Q 2938 2591 2744 2837 
Q 2550 3084 2163 3084 
Q 1697 3084 1428 2787 
Q 1159 2491 1159 1978 
L 1159 0 
L 581 0 
L 581 3500 
L 1159 3500 
L 1159 2956 
Q 1366 3272 1645 3428 
Q 1925 3584 2291 3584 
Q 2894 3584 3203 3211 
Q 3513 2838 3513 2113 
z
" transform="scale(0.015625)"/>
      <path id="DejaVuSans-64" d="M 2906 2969 
L 2906 4863 
L 3481 4863 
L 3481 0 
L 2906 0 
L 2906 525 
Q 2725 213 2448 61 
Q 2172 -91 1784 -91 
Q 1150 -91 751 415 
Q 353 922 353 1747 
Q 353 2572 751 3078 
Q 1150 3584 1784 3584 
Q 2172 3584 2448 3432 
Q 2725 3281 2906 2969 
z
M 947 1747 
Q 947 1113 1208 752 
Q 1469 391 1925 391 
Q 2381 391 2643 752 
Q 2906 1113 2906 1747 
Q 2906 2381 2643 2742 
Q 2381 3103 1925 3103 
Q 1469 3103 1208 2742 
Q 947 2381 947 1747 
z
" transform="scale(0.015625)"/>
      <path id="DejaVuSans-44" d="M 1259 4147 
L 1259 519 
L 2022 519 
Q 2988 519 3436 956 
Q 3884 1394 3884 2338 
Q 3884 3275 3436 3711 
Q 2988 4147 2022 4147 
L 1259 4147 
z
M 628 4666 
L 1925 4666 
Q 3281 4666 3915 4102 
Q 4550 3538 4550 2338 
Q 4550 1131 3912 565 
Q 3275 0 1925 0 
L 628 0 
L 628 4666 
z
" transform="scale(0.015625)"/>
      <path id="DejaVuSans-79" d="M 2059 -325 
Q 1816 -950 1584 -1140 
Q 1353 -1331 966 -1331 
L 506 -1331 
L 506 -850 
L 844 -850 
Q 1081 -850 1212 -737 
Q 1344 -625 1503 -206 
L 1606 56 
L 191 3500 
L 800 3500 
L 1894 763 
L 2988 3500 
L 3597 3500 
L 2059 -325 
z
" transform="scale(0.015625)"/>
      <path id="DejaVuSans-43" d="M 4122 4306 
L 4122 3641 
Q 3803 3938 3442 4084 
Q 3081 4231 2675 4231 
Q 1875 4231 1450 3742 
Q 1025 3253 1025 2328 
Q 1025 1406 1450 917 
Q 1875 428 2675 428 
Q 3081 428 3442 575 
Q 3803 722 4122 1019 
L 4122 359 
Q 3791 134 3420 21 
Q 3050 -91 2638 -91 
Q 1578 -91 968 557 
Q 359 1206 359 2328 
Q 359 3453 968 4101 
Q 1578 4750 2638 4750 
Q 3056 4750 3426 4639 
Q 3797 4528 4122 4306 
z
" transform="scale(0.015625)"/>
      <path id="DejaVuSans-63" d="M 3122 3366 
L 3122 2828 
Q 2878 2963 2633 3030 
Q 2388 3097 2138 3097 
Q 1578 3097 1268 2742 
Q 959 2388 959 1747 
Q 959 1106 1268 751 
Q 1578 397 2138 397 
Q 2388 397 2633 464 
Q 2878 531 3122 666 
L 3122 134 
Q 2881 22 2623 -34 
Q 2366 -91 2075 -91 
Q 1284 -91 818 406 
Q 353 903 353 1747 
Q 353 2603 823 3093 
Q 1294 3584 2113 3584 
Q 2378 3584 2631 3529 
Q 2884 3475 3122 3366 
z
" transform="scale(0.015625)"/>
     </defs>
     <use xlink:href="#DejaVuSans-4f"/>
     <use xlink:href="#DejaVuSans-75" x="78.710938"/>
     <use xlink:href="#DejaVuSans-74" x="142.089844"/>
     <use xlink:href="#DejaVuSans-70" x="181.298828"/>
     <use xlink:href="#DejaVuSans-75" x="244.775391"/>
     <use xlink:href="#DejaVuSans-74" x="308.154297"/>
     <use xlink:href="#DejaVuSans-20" x="347.363281"/>
     <use xlink:href="#DejaVuSans-56" x="379.150391"/>
     <use xlink:href="#DejaVuSans-6f" x="439.808594"/>
     <use xlink:href="#DejaVuSans-6c" x="500.990234"/>
     <use xlink:href="#DejaVuSans-74" x="528.773438"/>
     <use xlink:href="#DejaVuSans-61" x="567.982422"/>
     <use xlink:href="#DejaVuSans-67" x="629.261719"/>
     <use xlink:href="#DejaVuSans-65" x="692.738281"/>
     <use xlink:href="#DejaVuSans-20" x="754.261719"/>
     <use xlink:href="#DejaVuSans-61" x="786.048828"/>
     <use xlink:href="#DejaVuSans-6e" x="847.328125"/>
     <use xlink:href="#DejaVuSans-64" x="910.707031"/>
     <use xlink:href="#DejaVuSans-20" x="974.183594"/>
     <use xlink:href="#DejaVuSans-44" x="1005.970703"/>
     <use xlink:href="#DejaVuSans-75" x="1082.972656"/>
     <use xlink:href="#DejaVuSans-74" x="1146.351562"/>
     <use xlink:href="#DejaVuSans-79" x="1185.560547"/>
     <use xlink:href="#DejaVuSans-20" x="1244.740234"/>
     <use xlink:href="#DejaVuSans-43" x="1276.527344"/>
     <use xlink:href="#DejaVuSans-79" x="1346.351562"/>
     <use xlink:href="#DejaVuSans-63" x="1405.53125"/>
     <use xlink:href="#DejaVuSans-6c" x="1460.511719"/>
     <use xlink:href="#DejaVuSans-65" x="1488.294922"/>
    </g>
   </g>
  </g>
  <g id="axes_2">
   <g id="patch_7">
    <path d="M 52.94 534.04 
L 672.28 534.04 
L 672.28 319.05 
L 52.94 319.05 
z
" style="fill: #ffffff"/>
   </g>
   <g id="matplotlib.axis_3">
    <g id="xtick_7">
     <g id="line2d_14">
      <g>
       <use xlink:href="#m3960dbe816" x="81.091818" y="534.04" style="stroke: #000000; stroke-width: 0.8"/>
      </g>
     </g>
     <g id="text_9">
      <!-- 0.00 -->
      <g transform="translate(69.959006 548.638438) scale(0.1 -0.1)">
       <defs>
        <path id="DejaVuSans-2e" d="M 684 794 
L 1344 794 
L 1344 0 
L 684 0 
L 684 794 
z
" transform="scale(0.015625)"/>
       </defs>
       <use xlink:href="#DejaVuSans-30"/>
       <use xlink:href="#DejaVuSans-2e" x="63.623047"/>
       <use xlink:href="#DejaVuSans-30" x="95.410156"/>
       <use xlink:href="#DejaVuSans-30" x="159.033203"/>
      </g>
     </g>
    </g>
    <g id="xtick_8">
     <g id="line2d_15">
      <g>
       <use xlink:href="#m3960dbe816" x="192.595207" y="534.04" style="stroke: #000000; stroke-width: 0.8"/>
      </g>
     </g>
     <g id="text_10">
      <!-- 0.02 -->
      <g transform="translate(181.462395 548.638438) scale(0.1 -0.1)">
       <use xlink:href="#DejaVuSans-30"/>
       <use xlink:href="#DejaVuSans-2e" x="63.623047"/>
       <use xlink:href="#DejaVuSans-30" x="95.410156"/>
       <use xlink:href="#DejaVuSans-32" x="159.033203"/>
      </g>
     </g>
    </g>
    <g id="xtick_9">
     <g id="line2d_16">
      <g>
       <use xlink:href="#m3960dbe816" x="304.098597" y="534.04" style="stroke: #000000; stroke-width: 0.8"/>
      </g>
     </g>
     <g id="text_11">
      <!-- 0.04 -->
      <g transform="translate(292.965784 548.638438) scale(0.1 -0.1)">
       <use xlink:href="#DejaVuSans-30"/>
       <use xlink:href="#DejaVuSans-2e" x="63.623047"/>
       <use xlink:href="#DejaVuSans-30" x="95.410156"/>
       <use xlink:href="#DejaVuSans-34" x="159.033203"/>
      </g>
     </g>
    </g>
    <g id="xtick_10">
     <g id="line2d_17">
      <g>
       <use xlink:href="#m3960dbe816" x="415.601986" y="534.04" style="stroke: #000000; stroke-width: 0.8"/>
      </g>
     </g>
     <g id="text_12">
      <!-- 0.06 -->
      <g transform="translate(404.469173 548.638438) scale(0.1 -0.1)">
       <use xlink:href="#DejaVuSans-30"/>
       <use xlink:href="#DejaVuSans-2e" x="63.623047"/>
       <use xlink:href="#DejaVuSans-30" x="95.410156"/>
       <use xlink:href="#DejaVuSans-36" x="159.033203"/>
      </g>
     </g>
    </g>
    <g id="xtick_11">
     <g id="line2d_18">
      <g>
       <use xlink:href="#m3960dbe816" x="527.105375" y="534.04" style="stroke: #000000; stroke-width: 0.8"/>
      </g>
     </g>
     <g id="text_13">
      <!-- 0.08 -->
      <g transform="translate(515.972562 548.638438) scale(0.1 -0.1)">
       <use xlink:href="#DejaVuSans-30"/>
       <use xlink:href="#DejaVuSans-2e" x="63.623047"/>
       <use xlink:href="#DejaVuSans-30" x="95.410156"/>
       <use xlink:href="#DejaVuSans-38" x="159.033203"/>
      </g>
     </g>
    </g>
    <g id="xtick_12">
     <g id="line2d_19">
      <g>
       <use xlink:href="#m3960dbe816" x="638.608764" y="534.04" style="stroke: #000000; stroke-width: 0.8"/>
      </g>
     </g>
     <g id="text_14">
      <!-- 0.10 -->
      <g transform="translate(627.475952 548.638438) scale(0.1 -0.1)">
       <use xlink:href="#DejaVuSans-30"/>
       <use xlink:href="#DejaVuSans-2e" x="63.623047"/>
       <use xlink:href="#DejaVuSans-31" x="95.410156"/>
       <use xlink:href="#DejaVuSans-30" x="159.033203"/>
      </g>
     </g>
    </g>
    <g id="text_15">
     <!-- Time -->
     <g transform="translate(350.376406 562.316563) scale(0.1 -0.1)">
      <defs>
       <path id="DejaVuSans-54" d="M -19 4666 
L 3928 4666 
L 3928 4134 
L 2272 4134 
L 2272 0 
L 1638 0 
L 1638 4134 
L -19 4134 
L -19 4666 
z
" transform="scale(0.015625)"/>
       <path id="DejaVuSans-69" d="M 603 3500 
L 1178 3500 
L 1178 0 
L 603 0 
L 603 3500 
z
M 603 4863 
L 1178 4863 
L 1178 4134 
L 603 4134 
L 603 4863 
z
" transform="scale(0.015625)"/>
       <path id="DejaVuSans-6d" d="M 3328 2828 
Q 3544 3216 3844 3400 
Q 4144 3584 4550 3584 
Q 5097 3584 5394 3201 
Q 5691 2819 5691 2113 
L 5691 0 
L 5113 0 
L 5113 2094 
Q 5113 2597 4934 2840 
Q 4756 3084 4391 3084 
Q 3944 3084 3684 2787 
Q 3425 2491 3425 1978 
L 3425 0 
L 2847 0 
L 2847 2094 
Q 2847 2600 2669 2842 
Q 2491 3084 2119 3084 
Q 1678 3084 1418 2786 
Q 1159 2488 1159 1978 
L 1159 0 
L 581 0 
L 581 3500 
L 1159 3500 
L 1159 2956 
Q 1356 3278 1631 3431 
Q 1906 3584 2284 3584 
Q 2666 3584 2933 3390 
Q 3200 3197 3328 2828 
z
" transform="scale(0.015625)"/>
      </defs>
      <use xlink:href="#DejaVuSans-54"/>
      <use xlink:href="#DejaVuSans-69" x="57.958984"/>
      <use xlink:href="#DejaVuSans-6d" x="85.742188"/>
      <use xlink:href="#DejaVuSans-65" x="183.154297"/>
     </g>
    </g>
   </g>
   <g id="matplotlib.axis_4">
    <g id="ytick_7">
     <g id="line2d_20">
      <defs>
       <path id="me55c1498df" d="M 0 0 
L -3.5 0 
" style="stroke: #008000; stroke-width: 0.8"/>
      </defs>
      <g>
       <use xlink:href="#me55c1498df" x="52.94" y="524.28374" style="fill: #008000; stroke: #008000; stroke-width: 0.8"/>
      </g>
     </g>
     <g id="text_16">
      <!-- −60 -->
      <g style="fill: #008000" transform="translate(24.835313 528.082959) scale(0.1 -0.1)">
       <defs>
        <path id="DejaVuSans-2212" d="M 678 2272 
L 4684 2272 
L 4684 1741 
L 678 1741 
L 678 2272 
z
" transform="scale(0.015625)"/>
       </defs>
       <use xlink:href="#DejaVuSans-2212"/>
       <use xlink:href="#DejaVuSans-36" x="83.789062"/>
       <use xlink:href="#DejaVuSans-30" x="147.412109"/>
      </g>
     </g>
    </g>
    <g id="ytick_8">
     <g id="line2d_21">
      <g>
       <use xlink:href="#me55c1498df" x="52.94" y="491.659324" style="fill: #008000; stroke: #008000; stroke-width: 0.8"/>
      </g>
     </g>
     <g id="text_17">
      <!-- −50 -->
      <g style="fill: #008000" transform="translate(24.835313 495.458543) scale(0.1 -0.1)">
       <defs>
        <path id="DejaVuSans-35" d="M 691 4666 
L 3169 4666 
L 3169 4134 
L 1269 4134 
L 1269 2991 
Q 1406 3038 1543 3061 
Q 1681 3084 1819 3084 
Q 2600 3084 3056 2656 
Q 3513 2228 3513 1497 
Q 3513 744 3044 326 
Q 2575 -91 1722 -91 
Q 1428 -91 1123 -41 
Q 819 9 494 109 
L 494 744 
Q 775 591 1075 516 
Q 1375 441 1709 441 
Q 2250 441 2565 725 
Q 2881 1009 2881 1497 
Q 2881 1984 2565 2268 
Q 2250 2553 1709 2553 
Q 1456 2553 1204 2497 
Q 953 2441 691 2322 
L 691 4666 
z
" transform="scale(0.015625)"/>
       </defs>
       <use xlink:href="#DejaVuSans-2212"/>
       <use xlink:href="#DejaVuSans-35" x="83.789062"/>
       <use xlink:href="#DejaVuSans-30" x="147.412109"/>
      </g>
     </g>
    </g>
    <g id="ytick_9">
     <g id="line2d_22">
      <g>
       <use xlink:href="#me55c1498df" x="52.94" y="459.034908" style="fill: #008000; stroke: #008000; stroke-width: 0.8"/>
      </g>
     </g>
     <g id="text_18">
      <!-- −40 -->
      <g style="fill: #008000" transform="translate(24.835313 462.834127) scale(0.1 -0.1)">
       <use xlink:href="#DejaVuSans-2212"/>
       <use xlink:href="#DejaVuSans-34" x="83.789062"/>
       <use xlink:href="#DejaVuSans-30" x="147.412109"/>
      </g>
     </g>
    </g>
    <g id="ytick_10">
     <g id="line2d_23">
      <g>
       <use xlink:href="#me55c1498df" x="52.94" y="426.410492" style="fill: #008000; stroke: #008000; stroke-width: 0.8"/>
      </g>
     </g>
     <g id="text_19">
      <!-- −30 -->
      <g style="fill: #008000" transform="translate(24.835313 430.209711) scale(0.1 -0.1)">
       <defs>
        <path id="DejaVuSans-33" d="M 2597 2516 
Q 3050 2419 3304 2112 
Q 3559 1806 3559 1356 
Q 3559 666 3084 287 
Q 2609 -91 1734 -91 
Q 1441 -91 1130 -33 
Q 819 25 488 141 
L 488 750 
Q 750 597 1062 519 
Q 1375 441 1716 441 
Q 2309 441 2620 675 
Q 2931 909 2931 1356 
Q 2931 1769 2642 2001 
Q 2353 2234 1838 2234 
L 1294 2234 
L 1294 2753 
L 1863 2753 
Q 2328 2753 2575 2939 
Q 2822 3125 2822 3475 
Q 2822 3834 2567 4026 
Q 2313 4219 1838 4219 
Q 1578 4219 1281 4162 
Q 984 4106 628 3988 
L 628 4550 
Q 988 4650 1302 4700 
Q 1616 4750 1894 4750 
Q 2613 4750 3031 4423 
Q 3450 4097 3450 3541 
Q 3450 3153 3228 2886 
Q 3006 2619 2597 2516 
z
" transform="scale(0.015625)"/>
       </defs>
       <use xlink:href="#DejaVuSans-2212"/>
       <use xlink:href="#DejaVuSans-33" x="83.789062"/>
       <use xlink:href="#DejaVuSans-30" x="147.412109"/>
      </g>
     </g>
    </g>
    <g id="ytick_11">
     <g id="line2d_24">
      <g>
       <use xlink:href="#me55c1498df" x="52.94" y="393.786076" style="fill: #008000; stroke: #008000; stroke-width: 0.8"/>
      </g>
     </g>
     <g id="text_20">
      <!-- −20 -->
      <g style="fill: #008000" transform="translate(24.835313 397.585295) scale(0.1 -0.1)">
       <use xlink:href="#DejaVuSans-2212"/>
       <use xlink:href="#DejaVuSans-32" x="83.789062"/>
       <use xlink:href="#DejaVuSans-30" x="147.412109"/>
      </g>
     </g>
    </g>
    <g id="ytick_12">
     <g id="line2d_25">
      <g>
       <use xlink:href="#me55c1498df" x="52.94" y="361.16166" style="fill: #008000; stroke: #008000; stroke-width: 0.8"/>
      </g>
     </g>
     <g id="text_21">
      <!-- −10 -->
      <g style="fill: #008000" transform="translate(24.835313 364.960879) scale(0.1 -0.1)">
       <use xlink:href="#DejaVuSans-2212"/>
       <use xlink:href="#DejaVuSans-31" x="83.789062"/>
       <use xlink:href="#DejaVuSans-30" x="147.412109"/>
      </g>
     </g>
    </g>
    <g id="ytick_13">
     <g id="line2d_26">
      <g>
       <use xlink:href="#me55c1498df" x="52.94" y="328.537244" style="fill: #008000; stroke: #008000; stroke-width: 0.8"/>
      </g>
     </g>
     <g id="text_22">
      <!-- 0 -->
      <g style="fill: #008000" transform="translate(39.5775 332.336463) scale(0.1 -0.1)">
       <use xlink:href="#DejaVuSans-30"/>
      </g>
     </g>
    </g>
    <g id="text_23">
     <!-- Cost -->
     <g style="fill: #008000" transform="translate(18.755625 437.660625) rotate(-90) scale(0.1 -0.1)">
      <defs>
       <path id="DejaVuSans-73" d="M 2834 3397 
L 2834 2853 
Q 2591 2978 2328 3040 
Q 2066 3103 1784 3103 
Q 1356 3103 1142 2972 
Q 928 2841 928 2578 
Q 928 2378 1081 2264 
Q 1234 2150 1697 2047 
L 1894 2003 
Q 2506 1872 2764 1633 
Q 3022 1394 3022 966 
Q 3022 478 2636 193 
Q 2250 -91 1575 -91 
Q 1294 -91 989 -36 
Q 684 19 347 128 
L 347 722 
Q 666 556 975 473 
Q 1284 391 1588 391 
Q 1994 391 2212 530 
Q 2431 669 2431 922 
Q 2431 1156 2273 1281 
Q 2116 1406 1581 1522 
L 1381 1569 
Q 847 1681 609 1914 
Q 372 2147 372 2553 
Q 372 3047 722 3315 
Q 1072 3584 1716 3584 
Q 2034 3584 2315 3537 
Q 2597 3491 2834 3397 
z
" transform="scale(0.015625)"/>
      </defs>
      <use xlink:href="#DejaVuSans-43"/>
      <use xlink:href="#DejaVuSans-6f" x="69.824219"/>
      <use xlink:href="#DejaVuSans-73" x="131.005859"/>
      <use xlink:href="#DejaVuSans-74" x="183.105469"/>
     </g>
    </g>
   </g>
   <g id="line2d_27">
    <path d="M 81.091818 524.267727 
L 81.259073 511.662587 
L 81.48208 509.874062 
L 81.81659 504.717105 
L 82.318355 492.783733 
L 83.154631 466.511395 
L 83.935155 443.537322 
L 84.938685 418.932241 
L 86.443981 382.901096 
L 87.05725 374.450015 
L 89.064311 348.862056 
L 89.621827 343.952377 
L 90.736861 336.784989 
L 91.517385 333.031193 
L 92.186405 330.816393 
L 92.911177 329.609409 
L 93.524446 328.943698 
L 93.914708 328.824856 
L 94.472225 328.907812 
L 94.918238 329.182951 
L 95.810266 329.88211 
L 96.367782 329.928549 
L 96.702293 330.100117 
L 97.092555 330.56452 
L 97.538568 331.489847 
L 99.266871 336.407657 
L 99.824388 339.252246 
L 100.493408 343.898864 
L 101.106677 348.003514 
L 101.775697 351.184916 
L 102.444717 355.891959 
L 103.280993 363.594556 
L 103.83851 368.206832 
L 104.117268 369.069432 
L 104.284523 369.161595 
L 104.451778 368.969306 
L 104.730537 368.095984 
L 105.622564 364.545132 
L 105.789819 364.507478 
L 106.012826 364.747496 
L 106.514591 365.550406 
L 106.681846 365.363185 
L 106.960604 364.537957 
L 107.350866 362.513152 
L 108.410149 356.321615 
L 108.688907 356.030107 
L 108.856162 356.10824 
L 109.246424 356.461518 
L 109.413679 356.303095 
L 109.692438 355.624896 
L 110.082699 353.97663 
L 111.197733 348.697154 
L 111.42074 348.55844 
L 111.643747 348.718723 
L 112.08976 349.226894 
L 112.312767 349.056813 
L 112.591526 348.473024 
L 113.037539 346.876067 
L 113.818063 343.816944 
L 114.096821 343.58879 
L 114.319828 343.720122 
L 115.0446 344.552997 
L 115.267607 344.336446 
L 115.602117 343.627124 
L 116.103882 341.933684 
L 116.494144 340.740156 
L 116.772903 340.476179 
L 116.995909 340.560753 
L 117.274668 340.985715 
L 117.66493 341.646551 
L 117.887937 341.695822 
L 118.110943 341.527256 
L 118.445454 340.934834 
L 118.947219 339.490999 
L 119.281729 338.701361 
L 119.560487 338.535038 
L 119.783494 338.669409 
L 120.062253 339.129071 
L 120.508266 339.878741 
L 120.731273 339.923971 
L 121.010032 339.707144 
L 121.400293 338.993741 
L 122.013562 337.25205 
L 122.348072 336.600734 
L 122.626831 336.502494 
L 122.849837 336.662275 
L 123.240099 337.014612 
L 123.518858 336.953754 
L 123.853368 336.585465 
L 124.355133 335.597877 
L 125.135657 333.951895 
L 125.414415 333.888072 
L 125.693174 334.098536 
L 126.083436 334.378353 
L 126.362194 334.326344 
L 126.696704 334.037494 
L 127.588731 333.11433 
L 127.86749 333.295399 
L 128.202 333.815685 
L 129.149779 335.639859 
L 129.428537 335.672971 
L 129.763048 335.431191 
L 130.209061 335.068362 
L 130.432068 335.169322 
L 130.710826 335.543089 
L 131.101088 336.490993 
L 131.770109 338.308298 
L 132.048867 338.529609 
L 132.271874 338.488456 
L 132.550632 338.205109 
L 133.052398 337.577402 
L 133.275404 337.638315 
L 133.554163 338.003044 
L 133.944425 338.995554 
L 134.501942 340.5165 
L 134.7807 340.723455 
L 135.003707 340.643563 
L 135.282465 340.284244 
L 135.895734 339.309897 
L 136.118741 339.370817 
L 136.397499 339.755749 
L 136.787761 340.806192 
L 137.233775 342.030787 
L 137.512533 342.261119 
L 137.73554 342.178152 
L 138.014298 341.791696 
L 138.460312 341.110884 
L 138.683319 341.150689 
L 138.962077 341.530464 
L 139.296587 342.414546 
L 140.244366 345.343921 
L 140.467373 345.367102 
L 140.69038 345.13785 
L 141.3594 344.179777 
L 141.582407 344.347951 
L 141.861165 344.895324 
L 142.251427 346.217954 
L 142.864696 348.431371 
L 143.087703 348.634659 
L 143.310709 348.52894 
L 143.589468 348.024641 
L 143.97973 346.76894 
L 144.64875 343.670136 
L 145.150515 341.619252 
L 145.763784 340.104183 
L 146.600059 337.079235 
L 147.770845 332.962365 
L 148.161107 332.418614 
L 148.94163 331.289828 
L 150.000913 329.82021 
L 150.335423 329.625235 
L 150.725685 329.62696 
L 151.338953 329.696702 
L 152.063725 329.509046 
L 153.123008 329.228686 
L 154.015035 329.37068 
L 154.5168 329.609906 
L 154.962814 330.108808 
L 155.408827 331.014945 
L 155.854841 332.443167 
L 156.412358 335.066861 
L 157.861902 343.311218 
L 158.642425 350.132114 
L 160.147721 366.079382 
L 161.485762 382.993047 
L 163.158313 404.014929 
L 165.109622 427.29898 
L 165.276877 427.615146 
L 165.38838 427.499515 
L 165.555635 426.879301 
L 165.834394 424.795355 
L 166.280408 419.289598 
L 166.782173 413.511901 
L 167.172435 411.183765 
L 167.506945 410.347438 
L 167.6742 410.000444 
L 167.897207 408.902909 
L 168.231717 406.045445 
L 168.789234 398.933203 
L 169.625509 388.071334 
L 170.015771 385.875472 
L 170.350281 385.141002 
L 170.517536 384.747694 
L 170.796295 383.417837 
L 171.242308 379.908497 
L 171.96708 371.95599 
L 172.691852 364.292363 
L 173.082114 362.499075 
L 173.416624 361.311448 
L 173.91839 358.418288 
L 174.810417 351.520565 
L 175.423685 347.249224 
L 175.758196 346.269954 
L 176.371464 345.205235 
L 176.873229 343.446468 
L 177.87676 338.837778 
L 179.047546 333.811058 
L 179.772318 331.559176 
L 180.385586 330.281186 
L 180.887351 329.659202 
L 181.333365 329.406626 
L 181.556372 329.383696 
L 181.723627 329.4659 
L 182.671406 329.443288 
L 183.117419 329.467867 
L 183.507681 329.60268 
L 183.897943 330.003526 
L 184.288205 330.770105 
L 184.78997 332.218823 
L 185.291735 334.420419 
L 185.905004 338.224011 
L 186.629776 344.272738 
L 187.74481 353.874543 
L 188.469582 359.805485 
L 189.417361 369.589768 
L 190.253636 378.059459 
L 190.866905 381.832623 
L 191.591677 387.899351 
L 192.650959 398.889501 
L 192.985469 401.299155 
L 193.208476 401.742256 
L 193.319979 401.653965 
L 193.487234 401.171924 
L 193.765993 399.547286 
L 194.212006 395.254603 
L 194.936779 385.49363 
L 196.274819 367.160317 
L 197.61286 350.651322 
L 198.337632 343.952517 
L 199.341162 337.443484 
L 200.121686 333.719456 
L 200.679203 331.970201 
L 201.013713 331.561336 
L 201.794237 330.789615 
L 202.797767 329.871961 
L 203.355284 329.629098 
L 204.581822 329.610381 
L 204.916332 329.651095 
L 205.696856 329.828095 
L 206.365876 330.213545 
L 207.034896 330.862184 
L 207.81542 331.956195 
L 208.763199 333.717234 
L 209.989736 336.518081 
L 212.777321 343.112046 
L 214.282617 346.094417 
L 215.06314 347.482289 
L 215.843664 348.385495 
L 217.01445 350.134452 
L 222.701122 359.143184 
L 224.429425 361.22874 
L 226.101976 362.902713 
L 227.830278 364.3161 
L 229.614333 365.488483 
L 231.50989 366.472344 
L 233.516951 367.279687 
L 233.684206 367.154331 
L 233.907213 366.357664 
L 234.241723 363.993949 
L 235.189502 356.283793 
L 235.747019 353.812166 
L 236.248784 352.458059 
L 236.527543 351.710866 
L 236.862053 349.954233 
L 238.08859 342.544528 
L 238.590355 341.26853 
L 239.036369 340.682318 
L 239.426631 340.475698 
L 239.872644 340.504488 
L 240.37441 340.796353 
L 240.987678 341.433916 
L 241.823954 342.658662 
L 242.994739 344.805066 
L 245.670821 350.343174 
L 247.845137 354.567642 
L 249.629191 357.554529 
L 250.799977 359.182953 
L 250.91148 359.107655 
L 251.078735 358.6897 
L 251.859259 356.058998 
L 252.361024 355.139257 
L 252.862789 354.650682 
L 253.364554 354.479983 
L 253.587561 354.419162 
L 253.754816 354.08203 
L 254.145078 352.466442 
L 254.646843 350.875034 
L 255.427367 348.89401 
L 255.873381 346.168407 
L 257.434428 335.418282 
L 257.936193 334.135655 
L 258.549462 332.466792 
L 259.329986 330.52615 
L 259.664496 330.127446 
L 259.943254 330.062487 
L 260.166261 330.168007 
L 261.560054 330.327615 
L 263.622866 330.169 
L 264.291887 330.336305 
L 264.960907 330.748882 
L 266.187444 331.72903 
L 266.967968 332.760193 
L 267.915747 334.423241 
L 269.086532 336.969636 
L 270.98209 341.724555 
L 273.60242 348.24053 
L 276.780266 353.800378 
L 278.508569 356.153522 
L 278.954582 356.626372 
L 280.125368 355.721837 
L 280.627133 355.759349 
L 281.240402 356.032364 
L 281.742167 356.234792 
L 282.745698 354.952957 
L 283.247463 354.805457 
L 283.749228 354.886625 
L 284.362497 355.210591 
L 284.529752 355.266156 
L 285.644786 354.524137 
L 286.146551 354.601104 
L 286.75982 354.925515 
L 287.373088 355.27616 
L 287.986357 354.775223 
L 288.488122 354.688494 
L 289.045639 354.841162 
L 289.714659 355.268963 
L 290.104921 355.454324 
L 291.108452 354.316269 
L 291.610217 354.22381 
L 292.167734 354.377552 
L 292.948258 354.634655 
L 293.505775 353.826864 
L 293.951788 353.528137 
L 294.453553 353.469299 
L 295.01107 353.65915 
L 295.680091 354.137736 
L 296.627869 355.112944 
L 298.30042 357.219079 
L 301.311012 360.990763 
L 303.150818 362.925541 
L 304.934872 364.481213 
L 306.718926 365.745995 
L 308.614484 366.816908 
L 310.398538 367.585818 
L 310.510041 367.474414 
L 310.733048 366.692082 
L 311.067558 364.354317 
L 311.625075 358.348812 
L 313.074619 341.734147 
L 314.524163 332.955517 
L 315.025929 331.171074 
L 315.360439 330.608717 
L 315.583446 330.533974 
L 315.750701 330.67907 
L 316.363969 331.009561 
L 316.977238 331.230792 
L 317.534755 331.194054 
L 318.148024 331.141254 
L 318.761292 331.071011 
L 320.601098 330.665767 
L 321.66038 330.77439 
L 322.385152 331.056164 
L 323.054173 331.549199 
L 323.778945 332.372218 
L 324.61522 333.687268 
L 325.618751 335.703734 
L 327.012543 339.044488 
L 329.298362 344.56649 
L 329.855879 344.997988 
L 330.580651 345.869547 
L 331.584182 347.451949 
L 331.974444 347.9105 
L 332.476209 347.787368 
L 332.922223 347.916378 
L 333.47974 348.317677 
L 334.260263 349.19643 
L 334.650525 349.600517 
L 334.81778 349.432524 
L 335.263794 348.945869 
L 335.709807 348.774292 
L 336.155821 348.841626 
L 336.713338 349.178025 
L 337.493862 349.739269 
L 338.330137 348.814452 
L 338.776151 348.743214 
L 339.166412 348.730763 
L 339.389419 348.248541 
L 339.723929 346.791213 
L 340.281446 343.099306 
L 340.838963 339.712174 
L 341.340729 338.035664 
L 341.786742 337.230351 
L 342.121252 336.597537 
L 342.623017 335.015269 
L 343.515045 332.19413 
L 343.961058 331.628258 
L 344.462823 331.374513 
L 345.076092 331.332141 
L 346.023871 331.541699 
L 346.692891 331.753215 
L 347.417663 332.230625 
L 348.142435 332.981974 
L 350.651262 336.277962 
L 352.546819 339.938077 
L 354.163618 343.578357 
L 354.832639 344.891014 
L 357.285713 349.501891 
L 357.84323 349.862487 
L 358.568002 350.613744 
L 359.627284 352.066375 
L 359.850291 352.264702 
L 360.407808 352.174777 
L 360.909573 352.344181 
L 361.578594 352.838044 
L 362.470621 353.809181 
L 363.920165 355.770035 
L 367.544025 360.765582 
L 368.04579 361.301969 
L 368.157294 361.203088 
L 369.160824 359.377849 
L 369.662589 359.004786 
L 370.164355 358.882877 
L 370.889127 358.863789 
L 371.167885 358.105334 
L 371.725402 356.881968 
L 372.227167 356.278706 
L 372.728933 356.018362 
L 373.230698 356.011873 
L 373.843966 356.253915 
L 374.62449 356.832737 
L 375.795276 358.025946 
L 377.356323 359.683594 
L 377.523578 359.362294 
L 377.802337 358.105385 
L 378.24835 354.674997 
L 379.140377 345.408966 
L 379.809398 339.430548 
L 380.645673 335.074773 
L 381.314694 332.325198 
L 381.760707 331.315526 
L 382.039466 331.105167 
L 382.708486 332.018773 
L 383.098748 333.237971 
L 383.600513 335.680614 
L 384.213782 339.970109 
L 384.994305 347.280677 
L 386.499601 363.373009 
L 388.339407 385.041519 
L 388.562414 385.567588 
L 388.729669 385.518641 
L 388.952676 384.930844 
L 389.287186 383.103371 
L 389.788951 378.77451 
L 391.015488 367.364515 
L 392.242026 355.252015 
L 393.245556 346.354221 
L 394.081832 342.370693 
L 394.416342 341.80714 
L 394.639349 341.776357 
L 394.862355 341.978626 
L 395.196865 342.668574 
L 395.642879 344.236595 
L 397.594188 353.288098 
L 398.263209 358.336293 
L 399.489746 368.05334 
L 399.712753 368.409961 
L 399.880008 368.348453 
L 400.103015 367.879442 
L 400.437525 366.478126 
L 400.93929 363.216612 
L 402.110076 353.457977 
L 403.55962 342.179968 
L 404.395895 337.327569 
L 405.120667 334.496092 
L 405.789687 332.716608 
L 406.347204 331.817009 
L 406.793218 331.448697 
L 407.18348 331.369261 
L 407.350735 331.440964 
L 407.908252 331.626173 
L 408.52152 332.092374 
L 409.190541 332.906229 
L 411.309105 336.17935 
L 412.424139 338.41926 
L 414.040938 342.247239 
L 418.278067 352.496139 
L 420.062121 356.111967 
L 421.67892 358.906126 
L 423.29572 361.258905 
L 424.912519 363.213072 
L 426.529318 364.820535 
L 428.201869 366.17437 
L 429.539909 367.040183 
L 430.041675 366.958035 
L 430.933702 366.991764 
L 432.160239 367.28665 
L 432.438997 367.263132 
L 433.16377 367.025716 
L 434.000045 367.001321 
L 435.115079 367.215941 
L 436.954885 367.841506 
L 441.359269 369.38383 
L 444.146853 370.090311 
L 447.268948 370.646102 
L 451.060063 371.084054 
L 456.021964 371.419079 
L 457.471508 371.42463 
L 458.029025 371.006036 
L 458.865301 370.625434 
L 459.868831 370.416007 
L 460.314845 370.262583 
L 461.039617 369.745044 
L 461.820141 369.45358 
L 462.767919 369.338556 
L 464.050208 369.421153 
L 466.280276 369.828074 
L 468.39884 370.183885 
L 468.566096 369.759676 
L 469.235116 367.53088 
L 469.848385 366.254555 
L 470.461653 365.492806 
L 471.297929 364.701796 
L 472.189956 361.886588 
L 472.747473 360.959063 
L 473.249238 360.506195 
L 473.751003 360.319044 
L 474.30852 360.340457 
L 474.97754 360.592111 
L 475.925319 361.217338 
L 477.430615 362.521815 
L 479.660683 364.483624 
L 479.939441 364.113114 
L 480.496958 363.551642 
L 481.054475 363.286994 
L 481.667744 363.241385 
L 482.504019 363.290539 
L 483.17304 362.277398 
L 483.730556 361.861508 
L 484.288073 361.725081 
L 484.901342 361.80499 
L 485.458859 361.879335 
L 486.016376 361.843107 
L 486.685396 362.021083 
L 487.577423 362.501585 
L 488.246444 362.823067 
L 488.915464 362.925694 
L 489.807491 363.315593 
L 490.922525 363.871372 
L 491.480042 363.502742 
L 492.093311 363.37567 
L 492.762331 363.468568 
L 493.765862 363.64805 
L 494.323378 363.234259 
L 494.880895 363.08073 
L 495.549916 363.139319 
L 496.386191 363.459097 
L 497.612728 364.202624 
L 501.571099 366.812657 
L 501.738354 366.350715 
L 502.017112 364.790455 
L 502.630381 361.138635 
L 503.187898 359.081686 
L 503.745415 357.85118 
L 504.525939 356.434718 
L 504.9162 354.16661 
L 505.473717 351.426069 
L 505.975483 349.96985 
L 506.477248 349.171443 
L 506.923261 348.86087 
L 507.369275 348.830203 
L 507.87104 349.0487 
L 508.484309 349.584284 
L 509.320584 350.640252 
L 510.602873 352.671509 
L 515.341767 360.499705 
L 517.07007 362.787397 
L 518.742621 364.639822 
L 520.415172 366.167021 
L 522.143474 367.449079 
L 523.98328 368.537872 
L 525.990341 369.463669 
L 528.220409 370.242522 
L 529.614201 370.544052 
L 529.781456 370.129358 
L 531.119497 365.05927 
L 531.677014 364.070957 
L 532.234531 363.505205 
L 532.401786 363.32726 
L 532.624793 362.595695 
L 533.405316 359.275727 
L 533.962833 357.964253 
L 534.464599 357.309251 
L 534.966364 357.015369 
L 535.300874 356.823601 
L 535.523881 356.158153 
L 536.025646 354.663644 
L 536.527411 353.7976 
L 536.973425 353.413059 
L 537.419438 353.300198 
L 538.14421 353.284799 
L 539.314996 351.130311 
L 539.76101 350.944089 
L 540.207023 350.998028 
L 540.76454 351.318892 
L 541.489312 352.03602 
L 542.492843 353.380455 
L 544.332649 356.295983 
L 545.280427 357.676736 
L 545.447682 357.455257 
L 545.670689 356.674256 
L 546.060951 354.24655 
L 547.566247 343.367076 
L 548.848536 338.479817 
L 549.684811 334.733835 
L 550.130825 333.80899 
L 550.576838 333.386371 
L 551.078604 333.211983 
L 551.747624 333.238209 
L 552.472396 333.502981 
L 553.197168 334.01916 
L 553.92194 334.810051 
L 554.758215 336.064121 
L 555.761746 337.994123 
L 557.099787 341.08638 
L 563.065218 355.528016 
L 563.343976 355.945327 
L 564.012997 356.062939 
L 564.682017 356.481224 
L 565.574044 357.340997 
L 566.131561 357.834113 
L 566.74483 357.470254 
L 567.246595 357.460312 
L 567.859864 357.702797 
L 568.640387 358.287404 
L 569.755421 359.433206 
L 575.553597 365.820919 
L 577.337652 367.272412 
L 579.177458 368.486251 
L 581.128767 369.505064 
L 583.247331 370.357478 
L 584.919882 370.854468 
L 585.031386 370.728502 
L 585.254392 369.911584 
L 585.588903 367.511506 
L 586.257923 362.230308 
L 586.81544 359.525844 
L 587.372957 357.867593 
L 587.930474 356.507943 
L 588.264984 354.596007 
L 589.101259 349.285508 
L 589.603025 347.599744 
L 590.10479 346.669129 
L 590.550803 346.290239 
L 590.941065 346.216151 
L 591.164072 346.14915 
L 591.833092 345.425393 
L 592.223354 345.33714 
L 592.669368 345.468336 
L 593.226885 345.898842 
L 594.06316 346.623828 
L 594.453422 346.498669 
L 594.899435 346.595018 
L 595.456952 346.988032 
L 596.181724 347.827043 
L 596.794993 348.51951 
L 597.296758 348.367954 
L 597.742772 348.487175 
L 598.300289 348.891459 
L 599.025061 349.722016 
L 599.582578 350.292676 
L 600.084343 350.053171 
L 600.530357 350.104944 
L 601.032122 350.391002 
L 601.701142 351.046531 
L 602.035652 351.330856 
L 602.202907 351.137888 
L 602.537418 350.13211 
L 603.039183 348.957479 
L 603.485196 348.412064 
L 603.93121 348.210957 
L 604.377224 348.270491 
L 604.878989 348.356065 
L 605.101996 347.879685 
L 605.771016 346.110711 
L 606.217029 345.553753 
L 606.607291 345.363389 
L 607.053305 345.404167 
L 607.55507 345.703158 
L 608.893111 346.955788 
L 609.785138 348.260118 
L 613.018736 353.429861 
L 613.185991 353.289631 
L 613.408998 352.668265 
L 614.301025 349.530686 
L 614.747039 348.799172 
L 615.193052 348.458351 
L 615.639066 348.411229 
L 615.806321 348.335658 
L 616.029328 347.877033 
L 616.41959 346.299613 
L 616.921355 344.622085 
L 617.367368 343.79124 
L 617.813382 343.395999 
L 618.203644 343.316052 
L 618.649657 343.457389 
L 618.872664 343.423867 
L 619.095671 343.058472 
L 619.597436 342.156115 
L 620.04345 341.804652 
L 620.433712 341.753283 
L 620.879725 341.918994 
L 621.771752 342.383648 
L 622.663779 341.377416 
L 623.054041 341.337105 
L 623.500055 341.511841 
L 624.057572 341.987669 
L 624.782344 342.929191 
L 625.730123 344.550246 
L 627.179667 347.532209 
L 631.807057 357.36149 
L 633.53536 360.376081 
L 635.152159 362.769024 
L 636.768958 364.77242 
L 638.385757 366.428673 
L 639.333536 367.181402 
L 639.500791 366.887199 
L 639.723798 365.912504 
L 640.11406 362.927997 
L 640.78308 355.539906 
L 641.842362 343.918756 
L 642.678638 338.764472 
L 643.40341 335.148536 
L 643.849423 333.833839 
L 644.128182 333.455464 
L 644.128182 333.455464 
" clip-path="url(#p59af47d55b)" style="fill: none; stroke: #008000; stroke-width: 1.5; stroke-linecap: square"/>
   </g>
   <g id="patch_8">
    <path d="M 52.94 534.04 
L 52.94 319.05 
" style="fill: none; stroke: #000000; stroke-width: 0.8; stroke-linejoin: miter; stroke-linecap: square"/>
   </g>
   <g id="patch_9">
    <path d="M 672.28 534.04 
L 672.28 319.05 
" style="fill: none; stroke: #000000; stroke-width: 0.8; stroke-linejoin: miter; stroke-linecap: square"/>
   </g>
   <g id="patch_10">
    <path d="M 52.94 534.04 
L 672.28 534.04 
" style="fill: none; stroke: #000000; stroke-width: 0.8; stroke-linejoin: miter; stroke-linecap: square"/>
   </g>
   <g id="patch_11">
    <path d="M 52.94 319.05 
L 672.28 319.05 
" style="fill: none; stroke: #000000; stroke-width: 0.8; stroke-linejoin: miter; stroke-linecap: square"/>
   </g>
   <g id="text_24">
    <!-- Cost Over Time -->
    <g transform="translate(316.344375 313.05) scale(0.12 -0.12)">
     <defs>
      <path id="DejaVuSans-76" d="M 191 3500 
L 800 3500 
L 1894 563 
L 2988 3500 
L 3597 3500 
L 2284 0 
L 1503 0 
L 191 3500 
z
" transform="scale(0.015625)"/>
      <path id="DejaVuSans-72" d="M 2631 2963 
Q 2534 3019 2420 3045 
Q 2306 3072 2169 3072 
Q 1681 3072 1420 2755 
Q 1159 2438 1159 1844 
L 1159 0 
L 581 0 
L 581 3500 
L 1159 3500 
L 1159 2956 
Q 1341 3275 1631 3429 
Q 1922 3584 2338 3584 
Q 2397 3584 2469 3576 
Q 2541 3569 2628 3553 
L 2631 2963 
z
" transform="scale(0.015625)"/>
     </defs>
     <use xlink:href="#DejaVuSans-43"/>
     <use xlink:href="#DejaVuSans-6f" x="69.824219"/>
     <use xlink:href="#DejaVuSans-73" x="131.005859"/>
     <use xlink:href="#DejaVuSans-74" x="183.105469"/>
     <use xlink:href="#DejaVuSans-20" x="222.314453"/>
     <use xlink:href="#DejaVuSans-4f" x="254.101562"/>
     <use xlink:href="#DejaVuSans-76" x="332.8125"/>
     <use xlink:href="#DejaVuSans-65" x="391.992188"/>
     <use xlink:href="#DejaVuSans-72" x="453.515625"/>
     <use xlink:href="#DejaVuSans-20" x="494.628906"/>
     <use xlink:href="#DejaVuSans-54" x="526.416016"/>
     <use xlink:href="#DejaVuSans-69" x="584.375"/>
     <use xlink:href="#DejaVuSans-6d" x="612.158203"/>
     <use xlink:href="#DejaVuSans-65" x="709.570312"/>
    </g>
   </g>
  </g>
  <g id="axes_3">
   <g id="matplotlib.axis_5">
    <g id="ytick_14">
     <g id="line2d_28">
      <defs>
       <path id="m061dee71e5" d="M 0 0 
L 3.5 0 
" style="stroke: #4682b4; stroke-width: 0.8"/>
      </defs>
      <g>
       <use xlink:href="#m061dee71e5" x="672.28" y="283.67374" style="fill: #4682b4; stroke: #4682b4; stroke-width: 0.8"/>
      </g>
     </g>
     <g id="text_25">
      <!-- 0.0 -->
      <g style="fill: #4682b4" transform="translate(679.28 287.472959) scale(0.1 -0.1)">
       <use xlink:href="#DejaVuSans-30"/>
       <use xlink:href="#DejaVuSans-2e" x="63.623047"/>
       <use xlink:href="#DejaVuSans-30" x="95.410156"/>
      </g>
     </g>
    </g>
    <g id="ytick_15">
     <g id="line2d_29">
      <g>
       <use xlink:href="#m061dee71e5" x="672.28" y="243.629447" style="fill: #4682b4; stroke: #4682b4; stroke-width: 0.8"/>
      </g>
     </g>
     <g id="text_26">
      <!-- 0.2 -->
      <g style="fill: #4682b4" transform="translate(679.28 247.428665) scale(0.1 -0.1)">
       <use xlink:href="#DejaVuSans-30"/>
       <use xlink:href="#DejaVuSans-2e" x="63.623047"/>
       <use xlink:href="#DejaVuSans-32" x="95.410156"/>
      </g>
     </g>
    </g>
    <g id="ytick_16">
     <g id="line2d_30">
      <g>
       <use xlink:href="#m061dee71e5" x="672.28" y="203.585153" style="fill: #4682b4; stroke: #4682b4; stroke-width: 0.8"/>
      </g>
     </g>
     <g id="text_27">
      <!-- 0.4 -->
      <g style="fill: #4682b4" transform="translate(679.28 207.384372) scale(0.1 -0.1)">
       <use xlink:href="#DejaVuSans-30"/>
       <use xlink:href="#DejaVuSans-2e" x="63.623047"/>
       <use xlink:href="#DejaVuSans-34" x="95.410156"/>
      </g>
     </g>
    </g>
    <g id="ytick_17">
     <g id="line2d_31">
      <g>
       <use xlink:href="#m061dee71e5" x="672.28" y="163.54086" style="fill: #4682b4; stroke: #4682b4; stroke-width: 0.8"/>
      </g>
     </g>
     <g id="text_28">
      <!-- 0.6 -->
      <g style="fill: #4682b4" transform="translate(679.28 167.340078) scale(0.1 -0.1)">
       <use xlink:href="#DejaVuSans-30"/>
       <use xlink:href="#DejaVuSans-2e" x="63.623047"/>
       <use xlink:href="#DejaVuSans-36" x="95.410156"/>
      </g>
     </g>
    </g>
    <g id="ytick_18">
     <g id="line2d_32">
      <g>
       <use xlink:href="#m061dee71e5" x="672.28" y="123.496566" style="fill: #4682b4; stroke: #4682b4; stroke-width: 0.8"/>
      </g>
     </g>
     <g id="text_29">
      <!-- 0.8 -->
      <g style="fill: #4682b4" transform="translate(679.28 127.295785) scale(0.1 -0.1)">
       <use xlink:href="#DejaVuSans-30"/>
       <use xlink:href="#DejaVuSans-2e" x="63.623047"/>
       <use xlink:href="#DejaVuSans-38" x="95.410156"/>
      </g>
     </g>
    </g>
    <g id="ytick_19">
     <g id="line2d_33">
      <g>
       <use xlink:href="#m061dee71e5" x="672.28" y="83.452273" style="fill: #4682b4; stroke: #4682b4; stroke-width: 0.8"/>
      </g>
     </g>
     <g id="text_30">
      <!-- 1.0 -->
      <g style="fill: #4682b4" transform="translate(679.28 87.251491) scale(0.1 -0.1)">
       <use xlink:href="#DejaVuSans-31"/>
       <use xlink:href="#DejaVuSans-2e" x="63.623047"/>
       <use xlink:href="#DejaVuSans-30" x="95.410156"/>
      </g>
     </g>
    </g>
    <g id="text_31">
     <!-- Duty Cycle -->
     <g style="fill: #4682b4" transform="translate(706.781563 208.367969) rotate(-90) scale(0.1 -0.1)">
      <use xlink:href="#DejaVuSans-44"/>
      <use xlink:href="#DejaVuSans-75" x="77.001953"/>
      <use xlink:href="#DejaVuSans-74" x="140.380859"/>
      <use xlink:href="#DejaVuSans-79" x="179.589844"/>
      <use xlink:href="#DejaVuSans-20" x="238.769531"/>
      <use xlink:href="#DejaVuSans-43" x="270.556641"/>
      <use xlink:href="#DejaVuSans-79" x="340.380859"/>
      <use xlink:href="#DejaVuSans-63" x="399.560547"/>
      <use xlink:href="#DejaVuSans-6c" x="454.541016"/>
      <use xlink:href="#DejaVuSans-65" x="482.324219"/>
     </g>
    </g>
   </g>
   <g id="line2d_34">
    <path d="M 81.091818 119.608633 
L 86.611236 119.608633 
L 86.722739 100.716585 
L 92.186405 100.716585 
L 92.297909 201.746759 
L 97.761575 201.746759 
L 97.873078 244.304335 
L 103.336744 244.304335 
L 103.448248 168.585751 
L 108.911914 168.585751 
L 109.023417 169.831152 
L 114.487083 169.831152 
L 114.598587 167.994033 
L 120.062253 167.994033 
L 120.173756 153.110002 
L 125.637422 153.110002 
L 125.748926 184.414165 
L 131.212592 184.414165 
L 131.324095 182.420347 
L 136.787761 182.420347 
L 136.899264 194.662476 
L 142.362931 194.662476 
L 142.474434 116.097875 
L 147.9381 116.097875 
L 148.049603 145.836354 
L 153.513269 145.836354 
L 153.624773 260.342879 
L 159.088439 260.342879 
L 159.199942 278.897727 
L 164.663608 278.897727 
L 164.775112 173.053435 
L 170.238778 173.053435 
L 170.350281 144.834901 
L 175.813947 144.834901 
L 175.925451 83.452273 
L 181.389117 83.452273 
L 181.50062 276.78559 
L 186.964286 276.78559 
L 187.07579 253.580359 
L 192.539456 253.580359 
L 192.650959 96.700452 
L 198.114625 96.700452 
L 198.226129 124.944493 
L 203.689795 124.944493 
L 203.801298 83.452273 
L 209.264964 83.452273 
L 209.376467 91.712905 
L 214.840133 91.712905 
L 214.951637 83.452273 
L 220.415303 83.452273 
L 220.526806 87.169052 
L 225.990472 87.169052 
L 226.101976 83.452273 
L 231.565642 83.452273 
L 231.677145 147.882392 
L 237.140811 147.882392 
L 237.252315 83.452273 
L 248.29115 83.452273 
L 248.402654 118.0368 
L 253.86632 118.0368 
L 253.977823 207.07854 
L 259.441489 207.07854 
L 259.552993 98.082212 
L 265.016659 98.082212 
L 265.128162 84.781042 
L 270.591828 84.781042 
L 270.703331 90.529079 
L 276.166998 90.529079 
L 276.278501 101.669878 
L 281.742167 101.669878 
L 281.85367 98.830153 
L 287.317336 98.830153 
L 287.42884 103.087846 
L 292.892506 103.087846 
L 293.004009 85.125622 
L 298.467675 85.125622 
L 298.579179 83.452273 
L 309.618014 83.452273 
L 309.729518 238.48526 
L 315.193184 238.48526 
L 315.304687 108.732015 
L 320.768353 108.732015 
L 320.879857 83.452273 
L 326.343523 83.452273 
L 326.455026 101.127409 
L 331.918692 101.127409 
L 332.030196 105.317654 
L 337.493862 105.317654 
L 337.605365 183.538366 
L 343.069031 183.538366 
L 343.180534 98.018498 
L 348.644201 98.018498 
L 348.755704 89.178757 
L 354.21937 89.178757 
L 354.330873 95.764478 
L 359.794539 95.764478 
L 359.906043 83.452273 
L 365.369709 83.452273 
L 365.481212 103.6511 
L 370.944878 103.6511 
L 371.056382 83.452273 
L 376.520048 83.452273 
L 376.631551 240.226235 
L 382.095217 240.226235 
L 382.206721 273.797389 
L 387.670387 273.797389 
L 387.78189 107.578317 
L 393.245556 107.578317 
L 393.35706 253.358349 
L 398.820726 253.358349 
L 398.932229 88.575956 
L 404.395895 88.575956 
L 404.507398 96.002613 
L 409.971065 96.002613 
L 410.082568 83.452273 
L 426.696573 83.452273 
L 426.808076 91.389474 
L 432.271742 91.389474 
L 432.383246 83.452273 
L 454.57242 83.452273 
L 454.683924 88.384518 
L 460.14759 88.384518 
L 460.259093 83.452273 
L 465.722759 83.452273 
L 465.834263 105.984513 
L 471.297929 105.984513 
L 471.409432 83.452273 
L 476.873098 83.452273 
L 476.984601 96.894117 
L 482.448268 96.894117 
L 482.559771 89.563241 
L 488.023437 89.563241 
L 488.13494 92.294678 
L 493.598606 92.294678 
L 493.71011 83.452273 
L 499.173776 83.452273 
L 499.285279 127.778325 
L 504.748945 127.778325 
L 504.860449 83.452273 
L 527.049623 83.452273 
L 527.161127 114.120224 
L 532.624793 114.120224 
L 532.736296 110.133599 
L 538.199962 110.133599 
L 538.311465 83.452273 
L 543.775132 83.452273 
L 543.886635 195.039066 
L 549.350301 195.039066 
L 549.461804 83.452273 
L 560.50064 83.452273 
L 560.612143 95.768138 
L 566.075809 95.768138 
L 566.187313 83.452273 
L 571.650979 83.452273 
L 571.762482 84.286829 
L 577.226148 84.286829 
L 577.337652 83.452273 
L 582.801318 83.452273 
L 582.912821 142.626524 
L 588.376487 142.626524 
L 588.487991 103.416926 
L 593.951657 103.416926 
L 594.06316 101.025481 
L 599.526826 101.025481 
L 599.63833 122.25186 
L 605.101996 122.25186 
L 605.213499 88.764578 
L 610.677165 88.764578 
L 610.788668 134.536989 
L 616.252335 134.536989 
L 616.363838 118.500382 
L 621.827504 118.500382 
L 621.939007 83.452273 
L 638.553012 83.452273 
L 638.664516 243.16399 
L 644.128182 243.16399 
L 644.128182 243.16399 
" clip-path="url(#pedd5cfde79)" style="fill: none; stroke: #4682b4; stroke-width: 1.5; stroke-linecap: square"/>
   </g>
   <g id="patch_12">
    <path d="M 52.94 288.67 
L 52.94 73.68 
" style="fill: none; stroke: #000000; stroke-width: 0.8; stroke-linejoin: miter; stroke-linecap: square"/>
   </g>
   <g id="patch_13">
    <path d="M 672.28 288.67 
L 672.28 73.68 
" style="fill: none; stroke: #4682b4; stroke-width: 0.8; stroke-linejoin: miter; stroke-linecap: square"/>
   </g>
   <g id="patch_14">
    <path d="M 52.94 288.67 
L 672.28 288.67 
" style="fill: none; stroke: #000000; stroke-width: 0.8; stroke-linejoin: miter; stroke-linecap: square"/>
   </g>
   <g id="patch_15">
    <path d="M 52.94 73.68 
L 672.28 73.68 
" style="fill: none; stroke: #000000; stroke-width: 0.8; stroke-linejoin: miter; stroke-linecap: square"/>
   </g>
  </g>
  <g id="text_32">
   <!-- Episode 2 - Total Reward: -762.84 -->
   <g transform="translate(259.380938 20.638125) scale(0.12 -0.12)">
    <defs>
     <path id="DejaVuSans-45" d="M 628 4666 
L 3578 4666 
L 3578 4134 
L 1259 4134 
L 1259 2753 
L 3481 2753 
L 3481 2222 
L 1259 2222 
L 1259 531 
L 3634 531 
L 3634 0 
L 628 0 
L 628 4666 
z
" transform="scale(0.015625)"/>
     <path id="DejaVuSans-2d" d="M 313 2009 
L 1997 2009 
L 1997 1497 
L 313 1497 
L 313 2009 
z
" transform="scale(0.015625)"/>
     <path id="DejaVuSans-52" d="M 2841 2188 
Q 3044 2119 3236 1894 
Q 3428 1669 3622 1275 
L 4263 0 
L 3584 0 
L 2988 1197 
Q 2756 1666 2539 1819 
Q 2322 1972 1947 1972 
L 1259 1972 
L 1259 0 
L 628 0 
L 628 4666 
L 2053 4666 
Q 2853 4666 3247 4331 
Q 3641 3997 3641 3322 
Q 3641 2881 3436 2590 
Q 3231 2300 2841 2188 
z
M 1259 4147 
L 1259 2491 
L 2053 2491 
Q 2509 2491 2742 2702 
Q 2975 2913 2975 3322 
Q 2975 3731 2742 3939 
Q 2509 4147 2053 4147 
L 1259 4147 
z
" transform="scale(0.015625)"/>
     <path id="DejaVuSans-77" d="M 269 3500 
L 844 3500 
L 1563 769 
L 2278 3500 
L 2956 3500 
L 3675 769 
L 4391 3500 
L 4966 3500 
L 4050 0 
L 3372 0 
L 2619 2869 
L 1863 0 
L 1184 0 
L 269 3500 
z
" transform="scale(0.015625)"/>
     <path id="DejaVuSans-3a" d="M 750 794 
L 1409 794 
L 1409 0 
L 750 0 
L 750 794 
z
M 750 3309 
L 1409 3309 
L 1409 2516 
L 750 2516 
L 750 3309 
z
" transform="scale(0.015625)"/>
     <path id="DejaVuSans-37" d="M 525 4666 
L 3525 4666 
L 3525 4397 
L 1831 0 
L 1172 0 
L 2766 4134 
L 525 4134 
L 525 4666 
z
" transform="scale(0.015625)"/>
    </defs>
    <use xlink:href="#DejaVuSans-45"/>
    <use xlink:href="#DejaVuSans-70" x="63.183594"/>
    <use xlink:href="#DejaVuSans-69" x="126.660156"/>
    <use xlink:href="#DejaVuSans-73" x="154.443359"/>
    <use xlink:href="#DejaVuSans-6f" x="206.542969"/>
    <use xlink:href="#DejaVuSans-64" x="267.724609"/>
    <use xlink:href="#DejaVuSans-65" x="331.201172"/>
    <use xlink:href="#DejaVuSans-20" x="392.724609"/>
    <use xlink:href="#DejaVuSans-32" x="424.511719"/>
    <use xlink:href="#DejaVuSans-20" x="488.134766"/>
    <use xlink:href="#DejaVuSans-2d" x="519.921875"/>
    <use xlink:href="#DejaVuSans-20" x="556.005859"/>
    <use xlink:href="#DejaVuSans-54" x="587.792969"/>
    <use xlink:href="#DejaVuSans-6f" x="631.876953"/>
    <use xlink:href="#DejaVuSans-74" x="693.058594"/>
    <use xlink:href="#DejaVuSans-61" x="732.267578"/>
    <use xlink:href="#DejaVuSans-6c" x="793.546875"/>
    <use xlink:href="#DejaVuSans-20" x="821.330078"/>
    <use xlink:href="#DejaVuSans-52" x="853.117188"/>
    <use xlink:href="#DejaVuSans-65" x="918.099609"/>
    <use xlink:href="#DejaVuSans-77" x="979.623047"/>
    <use xlink:href="#DejaVuSans-61" x="1061.410156"/>
    <use xlink:href="#DejaVuSans-72" x="1122.689453"/>
    <use xlink:href="#DejaVuSans-64" x="1162.052734"/>
    <use xlink:href="#DejaVuSans-3a" x="1225.529297"/>
    <use xlink:href="#DejaVuSans-20" x="1259.220703"/>
    <use xlink:href="#DejaVuSans-2d" x="1291.007812"/>
    <use xlink:href="#DejaVuSans-37" x="1327.091797"/>
    <use xlink:href="#DejaVuSans-36" x="1390.714844"/>
    <use xlink:href="#DejaVuSans-32" x="1454.337891"/>
    <use xlink:href="#DejaVuSans-2e" x="1517.960938"/>
    <use xlink:href="#DejaVuSans-38" x="1549.748047"/>
    <use xlink:href="#DejaVuSans-34" x="1613.371094"/>
   </g>
  </g>
 </g>
 <defs>
  <clipPath id="pedd5cfde79">
   <rect x="52.94" y="73.68" width="619.34" height="214.99"/>
  </clipPath>
  <clipPath id="p59af47d55b">
   <rect x="52.94" y="319.05" width="619.34" height="214.99"/>
  </clipPath>
 </defs>
</svg>
