<?xml version="1.0" encoding="utf-8" standalone="no"?>
<!DOCTYPE svg PUBLIC "-//W3C//DTD SVG 1.1//EN"
  "http://www.w3.org/Graphics/SVG/1.1/DTD/svg11.dtd">
<svg xmlns:xlink="http://www.w3.org/1999/xlink" width="720pt" height="576pt" viewBox="0 0 720 576" xmlns="http://www.w3.org/2000/svg" version="1.1">
 <metadata>
  <rdf:RDF xmlns:dc="http://purl.org/dc/elements/1.1/" xmlns:cc="http://creativecommons.org/ns#" xmlns:rdf="http://www.w3.org/1999/02/22-rdf-syntax-ns#">
   <cc:Work>
    <dc:type rdf:resource="http://purl.org/dc/dcmitype/StillImage"/>
    <dc:date>2024-06-03T13:00:24.432312</dc:date>
    <dc:format>image/svg+xml</dc:format>
    <dc:creator>
     <cc:Agent>
      <dc:title>Matplotlib v3.8.4, https://matplotlib.org/</dc:title>
     </cc:Agent>
    </dc:creator>
   </cc:Work>
  </rdf:RDF>
 </metadata>
 <defs>
  <style type="text/css">*{stroke-linejoin: round; stroke-linecap: butt}</style>
 </defs>
 <g id="figure_1">
  <g id="patch_1">
   <path d="M 0 576 
L 720 576 
L 720 0 
L 0 0 
z
" style="fill: #ffffff"/>
  </g>
  <g id="axes_1">
   <g id="patch_2">
    <path d="M 52.94 288.67 
L 672.28 288.67 
L 672.28 73.68 
L 52.94 73.68 
z
" style="fill: #ffffff"/>
   </g>
   <g id="matplotlib.axis_1">
    <g id="xtick_1">
     <g id="line2d_1">
      <defs>
       <path id="m394b94bf51" d="M 0 0 
L 0 3.5 
" style="stroke: #000000; stroke-width: 0.8"/>
      </defs>
      <g>
       <use xlink:href="#m394b94bf51" x="81.091818" y="288.67" style="stroke: #000000; stroke-width: 0.8"/>
      </g>
     </g>
    </g>
    <g id="xtick_2">
     <g id="line2d_2">
      <g>
       <use xlink:href="#m394b94bf51" x="192.595207" y="288.67" style="stroke: #000000; stroke-width: 0.8"/>
      </g>
     </g>
    </g>
    <g id="xtick_3">
     <g id="line2d_3">
      <g>
       <use xlink:href="#m394b94bf51" x="304.098597" y="288.67" style="stroke: #000000; stroke-width: 0.8"/>
      </g>
     </g>
    </g>
    <g id="xtick_4">
     <g id="line2d_4">
      <g>
       <use xlink:href="#m394b94bf51" x="415.601986" y="288.67" style="stroke: #000000; stroke-width: 0.8"/>
      </g>
     </g>
    </g>
    <g id="xtick_5">
     <g id="line2d_5">
      <g>
       <use xlink:href="#m394b94bf51" x="527.105375" y="288.67" style="stroke: #000000; stroke-width: 0.8"/>
      </g>
     </g>
    </g>
    <g id="xtick_6">
     <g id="line2d_6">
      <g>
       <use xlink:href="#m394b94bf51" x="638.608764" y="288.67" style="stroke: #000000; stroke-width: 0.8"/>
      </g>
     </g>
    </g>
   </g>
   <g id="matplotlib.axis_2">
    <g id="ytick_1">
     <g id="line2d_7">
      <defs>
       <path id="m8250a3ba0b" d="M 0 0 
L -3.5 0 
" style="stroke: #ff4500; stroke-width: 0.8"/>
      </defs>
      <g>
       <use xlink:href="#m8250a3ba0b" x="52.94" y="278.91423" style="fill: #ff4500; stroke: #ff4500; stroke-width: 0.8"/>
      </g>
     </g>
     <g id="text_1">
      <!-- 0 -->
      <g style="fill: #ff4500" transform="translate(39.5775 282.713449) scale(0.1 -0.1)">
       <defs>
        <path id="DejaVuSans-30" d="M 2034 4250 
Q 1547 4250 1301 3770 
Q 1056 3291 1056 2328 
Q 1056 1369 1301 889 
Q 1547 409 2034 409 
Q 2525 409 2770 889 
Q 3016 1369 3016 2328 
Q 3016 3291 2770 3770 
Q 2525 4250 2034 4250 
z
M 2034 4750 
Q 2819 4750 3233 4129 
Q 3647 3509 3647 2328 
Q 3647 1150 3233 529 
Q 2819 -91 2034 -91 
Q 1250 -91 836 529 
Q 422 1150 422 2328 
Q 422 3509 836 4129 
Q 1250 4750 2034 4750 
z
" transform="scale(0.015625)"/>
       </defs>
       <use xlink:href="#DejaVuSans-30"/>
      </g>
     </g>
    </g>
    <g id="ytick_2">
     <g id="line2d_8">
      <g>
       <use xlink:href="#m8250a3ba0b" x="52.94" y="233.071819" style="fill: #ff4500; stroke: #ff4500; stroke-width: 0.8"/>
      </g>
     </g>
     <g id="text_2">
      <!-- 1 -->
      <g style="fill: #ff4500" transform="translate(39.5775 236.871038) scale(0.1 -0.1)">
       <defs>
        <path id="DejaVuSans-31" d="M 794 531 
L 1825 531 
L 1825 4091 
L 703 3866 
L 703 4441 
L 1819 4666 
L 2450 4666 
L 2450 531 
L 3481 531 
L 3481 0 
L 794 0 
L 794 531 
z
" transform="scale(0.015625)"/>
       </defs>
       <use xlink:href="#DejaVuSans-31"/>
      </g>
     </g>
    </g>
    <g id="ytick_3">
     <g id="line2d_9">
      <g>
       <use xlink:href="#m8250a3ba0b" x="52.94" y="187.229408" style="fill: #ff4500; stroke: #ff4500; stroke-width: 0.8"/>
      </g>
     </g>
     <g id="text_3">
      <!-- 2 -->
      <g style="fill: #ff4500" transform="translate(39.5775 191.028626) scale(0.1 -0.1)">
       <defs>
        <path id="DejaVuSans-32" d="M 1228 531 
L 3431 531 
L 3431 0 
L 469 0 
L 469 531 
Q 828 903 1448 1529 
Q 2069 2156 2228 2338 
Q 2531 2678 2651 2914 
Q 2772 3150 2772 3378 
Q 2772 3750 2511 3984 
Q 2250 4219 1831 4219 
Q 1534 4219 1204 4116 
Q 875 4013 500 3803 
L 500 4441 
Q 881 4594 1212 4672 
Q 1544 4750 1819 4750 
Q 2544 4750 2975 4387 
Q 3406 4025 3406 3419 
Q 3406 3131 3298 2873 
Q 3191 2616 2906 2266 
Q 2828 2175 2409 1742 
Q 1991 1309 1228 531 
z
" transform="scale(0.015625)"/>
       </defs>
       <use xlink:href="#DejaVuSans-32"/>
      </g>
     </g>
    </g>
    <g id="ytick_4">
     <g id="line2d_10">
      <g>
       <use xlink:href="#m8250a3ba0b" x="52.94" y="141.386997" style="fill: #ff4500; stroke: #ff4500; stroke-width: 0.8"/>
      </g>
     </g>
     <g id="text_4">
      <!-- 3 -->
      <g style="fill: #ff4500" transform="translate(39.5775 145.186215) scale(0.1 -0.1)">
       <defs>
        <path id="DejaVuSans-33" d="M 2597 2516 
Q 3050 2419 3304 2112 
Q 3559 1806 3559 1356 
Q 3559 666 3084 287 
Q 2609 -91 1734 -91 
Q 1441 -91 1130 -33 
Q 819 25 488 141 
L 488 750 
Q 750 597 1062 519 
Q 1375 441 1716 441 
Q 2309 441 2620 675 
Q 2931 909 2931 1356 
Q 2931 1769 2642 2001 
Q 2353 2234 1838 2234 
L 1294 2234 
L 1294 2753 
L 1863 2753 
Q 2328 2753 2575 2939 
Q 2822 3125 2822 3475 
Q 2822 3834 2567 4026 
Q 2313 4219 1838 4219 
Q 1578 4219 1281 4162 
Q 984 4106 628 3988 
L 628 4550 
Q 988 4650 1302 4700 
Q 1616 4750 1894 4750 
Q 2613 4750 3031 4423 
Q 3450 4097 3450 3541 
Q 3450 3153 3228 2886 
Q 3006 2619 2597 2516 
z
" transform="scale(0.015625)"/>
       </defs>
       <use xlink:href="#DejaVuSans-33"/>
      </g>
     </g>
    </g>
    <g id="ytick_5">
     <g id="line2d_11">
      <g>
       <use xlink:href="#m8250a3ba0b" x="52.94" y="95.544585" style="fill: #ff4500; stroke: #ff4500; stroke-width: 0.8"/>
      </g>
     </g>
     <g id="text_5">
      <!-- 4 -->
      <g style="fill: #ff4500" transform="translate(39.5775 99.343804) scale(0.1 -0.1)">
       <defs>
        <path id="DejaVuSans-34" d="M 2419 4116 
L 825 1625 
L 2419 1625 
L 2419 4116 
z
M 2253 4666 
L 3047 4666 
L 3047 1625 
L 3713 1625 
L 3713 1100 
L 3047 1100 
L 3047 0 
L 2419 0 
L 2419 1100 
L 313 1100 
L 313 1709 
L 2253 4666 
z
" transform="scale(0.015625)"/>
       </defs>
       <use xlink:href="#DejaVuSans-34"/>
      </g>
     </g>
    </g>
    <g id="text_6">
     <!-- Output Voltage -->
     <g style="fill: #ff4500" transform="translate(33.497812 218.888281) rotate(-90) scale(0.1 -0.1)">
      <defs>
       <path id="DejaVuSans-4f" d="M 2522 4238 
Q 1834 4238 1429 3725 
Q 1025 3213 1025 2328 
Q 1025 1447 1429 934 
Q 1834 422 2522 422 
Q 3209 422 3611 934 
Q 4013 1447 4013 2328 
Q 4013 3213 3611 3725 
Q 3209 4238 2522 4238 
z
M 2522 4750 
Q 3503 4750 4090 4092 
Q 4678 3434 4678 2328 
Q 4678 1225 4090 567 
Q 3503 -91 2522 -91 
Q 1538 -91 948 565 
Q 359 1222 359 2328 
Q 359 3434 948 4092 
Q 1538 4750 2522 4750 
z
" transform="scale(0.015625)"/>
       <path id="DejaVuSans-75" d="M 544 1381 
L 544 3500 
L 1119 3500 
L 1119 1403 
Q 1119 906 1312 657 
Q 1506 409 1894 409 
Q 2359 409 2629 706 
Q 2900 1003 2900 1516 
L 2900 3500 
L 3475 3500 
L 3475 0 
L 2900 0 
L 2900 538 
Q 2691 219 2414 64 
Q 2138 -91 1772 -91 
Q 1169 -91 856 284 
Q 544 659 544 1381 
z
M 1991 3584 
L 1991 3584 
z
" transform="scale(0.015625)"/>
       <path id="DejaVuSans-74" d="M 1172 4494 
L 1172 3500 
L 2356 3500 
L 2356 3053 
L 1172 3053 
L 1172 1153 
Q 1172 725 1289 603 
Q 1406 481 1766 481 
L 2356 481 
L 2356 0 
L 1766 0 
Q 1100 0 847 248 
Q 594 497 594 1153 
L 594 3053 
L 172 3053 
L 172 3500 
L 594 3500 
L 594 4494 
L 1172 4494 
z
" transform="scale(0.015625)"/>
       <path id="DejaVuSans-70" d="M 1159 525 
L 1159 -1331 
L 581 -1331 
L 581 3500 
L 1159 3500 
L 1159 2969 
Q 1341 3281 1617 3432 
Q 1894 3584 2278 3584 
Q 2916 3584 3314 3078 
Q 3713 2572 3713 1747 
Q 3713 922 3314 415 
Q 2916 -91 2278 -91 
Q 1894 -91 1617 61 
Q 1341 213 1159 525 
z
M 3116 1747 
Q 3116 2381 2855 2742 
Q 2594 3103 2138 3103 
Q 1681 3103 1420 2742 
Q 1159 2381 1159 1747 
Q 1159 1113 1420 752 
Q 1681 391 2138 391 
Q 2594 391 2855 752 
Q 3116 1113 3116 1747 
z
" transform="scale(0.015625)"/>
       <path id="DejaVuSans-20" transform="scale(0.015625)"/>
       <path id="DejaVuSans-56" d="M 1831 0 
L 50 4666 
L 709 4666 
L 2188 738 
L 3669 4666 
L 4325 4666 
L 2547 0 
L 1831 0 
z
" transform="scale(0.015625)"/>
       <path id="DejaVuSans-6f" d="M 1959 3097 
Q 1497 3097 1228 2736 
Q 959 2375 959 1747 
Q 959 1119 1226 758 
Q 1494 397 1959 397 
Q 2419 397 2687 759 
Q 2956 1122 2956 1747 
Q 2956 2369 2687 2733 
Q 2419 3097 1959 3097 
z
M 1959 3584 
Q 2709 3584 3137 3096 
Q 3566 2609 3566 1747 
Q 3566 888 3137 398 
Q 2709 -91 1959 -91 
Q 1206 -91 779 398 
Q 353 888 353 1747 
Q 353 2609 779 3096 
Q 1206 3584 1959 3584 
z
" transform="scale(0.015625)"/>
       <path id="DejaVuSans-6c" d="M 603 4863 
L 1178 4863 
L 1178 0 
L 603 0 
L 603 4863 
z
" transform="scale(0.015625)"/>
       <path id="DejaVuSans-61" d="M 2194 1759 
Q 1497 1759 1228 1600 
Q 959 1441 959 1056 
Q 959 750 1161 570 
Q 1363 391 1709 391 
Q 2188 391 2477 730 
Q 2766 1069 2766 1631 
L 2766 1759 
L 2194 1759 
z
M 3341 1997 
L 3341 0 
L 2766 0 
L 2766 531 
Q 2569 213 2275 61 
Q 1981 -91 1556 -91 
Q 1019 -91 701 211 
Q 384 513 384 1019 
Q 384 1609 779 1909 
Q 1175 2209 1959 2209 
L 2766 2209 
L 2766 2266 
Q 2766 2663 2505 2880 
Q 2244 3097 1772 3097 
Q 1472 3097 1187 3025 
Q 903 2953 641 2809 
L 641 3341 
Q 956 3463 1253 3523 
Q 1550 3584 1831 3584 
Q 2591 3584 2966 3190 
Q 3341 2797 3341 1997 
z
" transform="scale(0.015625)"/>
       <path id="DejaVuSans-67" d="M 2906 1791 
Q 2906 2416 2648 2759 
Q 2391 3103 1925 3103 
Q 1463 3103 1205 2759 
Q 947 2416 947 1791 
Q 947 1169 1205 825 
Q 1463 481 1925 481 
Q 2391 481 2648 825 
Q 2906 1169 2906 1791 
z
M 3481 434 
Q 3481 -459 3084 -895 
Q 2688 -1331 1869 -1331 
Q 1566 -1331 1297 -1286 
Q 1028 -1241 775 -1147 
L 775 -588 
Q 1028 -725 1275 -790 
Q 1522 -856 1778 -856 
Q 2344 -856 2625 -561 
Q 2906 -266 2906 331 
L 2906 616 
Q 2728 306 2450 153 
Q 2172 0 1784 0 
Q 1141 0 747 490 
Q 353 981 353 1791 
Q 353 2603 747 3093 
Q 1141 3584 1784 3584 
Q 2172 3584 2450 3431 
Q 2728 3278 2906 2969 
L 2906 3500 
L 3481 3500 
L 3481 434 
z
" transform="scale(0.015625)"/>
       <path id="DejaVuSans-65" d="M 3597 1894 
L 3597 1613 
L 953 1613 
Q 991 1019 1311 708 
Q 1631 397 2203 397 
Q 2534 397 2845 478 
Q 3156 559 3463 722 
L 3463 178 
Q 3153 47 2828 -22 
Q 2503 -91 2169 -91 
Q 1331 -91 842 396 
Q 353 884 353 1716 
Q 353 2575 817 3079 
Q 1281 3584 2069 3584 
Q 2775 3584 3186 3129 
Q 3597 2675 3597 1894 
z
M 3022 2063 
Q 3016 2534 2758 2815 
Q 2500 3097 2075 3097 
Q 1594 3097 1305 2825 
Q 1016 2553 972 2059 
L 3022 2063 
z
" transform="scale(0.015625)"/>
      </defs>
      <use xlink:href="#DejaVuSans-4f"/>
      <use xlink:href="#DejaVuSans-75" x="78.710938"/>
      <use xlink:href="#DejaVuSans-74" x="142.089844"/>
      <use xlink:href="#DejaVuSans-70" x="181.298828"/>
      <use xlink:href="#DejaVuSans-75" x="244.775391"/>
      <use xlink:href="#DejaVuSans-74" x="308.154297"/>
      <use xlink:href="#DejaVuSans-20" x="347.363281"/>
      <use xlink:href="#DejaVuSans-56" x="379.150391"/>
      <use xlink:href="#DejaVuSans-6f" x="439.808594"/>
      <use xlink:href="#DejaVuSans-6c" x="500.990234"/>
      <use xlink:href="#DejaVuSans-74" x="528.773438"/>
      <use xlink:href="#DejaVuSans-61" x="567.982422"/>
      <use xlink:href="#DejaVuSans-67" x="629.261719"/>
      <use xlink:href="#DejaVuSans-65" x="692.738281"/>
     </g>
    </g>
   </g>
   <g id="line2d_12">
    <path d="M 81.091818 278.897727 
L 81.203322 278.75057 
L 81.370577 277.894771 
L 81.705087 274.266687 
L 82.262604 269.292833 
L 82.764369 266.711716 
L 83.154631 265.657399 
L 83.489141 265.280782 
L 83.7679 265.272952 
L 83.990906 265.280352 
L 84.158161 264.570689 
L 84.43692 261.85095 
L 84.938685 257.549613 
L 85.384699 255.358755 
L 85.774961 254.426752 
L 86.053719 254.216152 
L 86.276726 254.276855 
L 86.555484 254.59764 
L 86.889994 254.957362 
L 87.168753 255.291399 
L 87.559015 256.130784 
L 88.116532 257.906894 
L 88.952807 261.407698 
L 89.900586 265.306799 
L 90.848365 269.020073 
L 92.186405 274.269445 
L 92.35366 274.569717 
L 92.855426 274.446786 
L 93.189936 274.697393 
L 93.635949 275.368068 
L 94.527977 276.850551 
L 95.085494 277.389477 
L 95.196997 277.223743 
L 95.587259 276.519856 
L 95.921769 276.308536 
L 96.200527 276.359799 
L 96.535038 276.646834 
L 97.427065 277.605398 
L 97.873078 277.865834 
L 98.542099 277.679831 
L 99.935891 278.378867 
L 100.660663 278.513793 
L 101.329683 278.099983 
L 103.448248 278.630764 
L 104.117268 278.177115 
L 106.291584 278.602442 
L 106.626094 278.2438 
L 106.960604 278.20356 
L 108.577404 278.645915 
L 109.023417 278.656511 
L 109.692438 278.19411 
L 111.866754 278.607072 
L 112.201264 278.247574 
L 112.535774 278.206607 
L 114.152573 278.647075 
L 114.598587 278.657401 
L 114.71009 278.378746 
L 115.602117 274.38145 
L 115.992379 273.713112 
L 116.326889 273.546208 
L 116.605648 273.642196 
L 116.995909 274.069718 
L 117.441923 274.732734 
L 117.497675 274.647887 
L 118.445454 271.908671 
L 118.779964 271.731972 
L 119.058722 271.830307 
L 119.393232 272.19161 
L 119.894998 273.127695 
L 120.341011 273.928329 
L 120.787025 274.579454 
L 122.236569 277.070819 
L 122.905589 277.677951 
L 123.128596 277.547994 
L 123.463106 277.478346 
L 123.797616 277.662845 
L 124.633892 278.16328 
L 125.693174 278.511477 
L 126.473698 278.090473 
L 127.923242 278.571053 
L 128.53651 278.623483 
L 129.205531 278.172308 
L 131.379847 278.559963 
L 131.547102 277.722932 
L 131.881612 274.127985 
L 132.439129 269.198446 
L 132.940894 266.647764 
L 133.331156 265.612201 
L 133.665666 265.248843 
L 133.944425 265.25037 
L 134.167431 265.264277 
L 134.334687 264.558997 
L 134.613445 261.845686 
L 135.11521 257.553593 
L 135.561224 255.368875 
L 135.951486 254.44096 
L 136.230244 254.232674 
L 136.453251 254.294913 
L 136.732009 254.617277 
L 136.955016 254.887703 
L 137.06652 254.63518 
L 137.289526 253.121635 
L 137.791292 249.732084 
L 138.181553 248.36395 
L 138.516064 247.892353 
L 138.73907 247.877019 
L 139.017829 248.142662 
L 139.352339 248.813566 
L 139.798353 249.821365 
L 139.909856 249.523253 
L 140.244366 247.284813 
L 140.69038 245.207165 
L 141.02489 244.503504 
L 141.303648 244.373508 
L 141.526655 244.522698 
L 141.861165 245.102723 
L 142.307179 246.415249 
L 142.585937 247.118786 
L 142.697441 246.87881 
L 142.920447 245.37196 
L 143.812475 237.170299 
L 144.202736 235.691967 
L 144.481495 235.264387 
L 144.704502 235.239235 
L 144.927508 235.457928 
L 145.31777 236.180422 
L 145.373522 236.142736 
L 145.540777 235.504185 
L 145.819536 232.856592 
L 146.377053 227.147829 
L 146.767314 225.042674 
L 147.101825 224.22644 
L 147.324831 224.104343 
L 147.547838 224.271554 
L 147.826597 224.831993 
L 148.161107 225.574802 
L 148.27261 225.322296 
L 148.495617 223.841742 
L 149.108886 218.650091 
L 149.499147 217.200253 
L 149.777906 216.890413 
L 149.945161 216.950725 
L 150.168168 217.282277 
L 150.502678 218.243636 
L 151.004443 219.849641 
L 151.115947 219.565216 
L 151.338953 218.03997 
L 151.840719 214.251034 
L 152.175229 213.078615 
L 152.453987 212.781801 
L 152.621242 212.858234 
L 152.844249 213.219704 
L 153.178759 214.241389 
L 154.015035 217.98157 
L 154.684055 221.955617 
L 155.687586 229.483268 
L 157.192881 240.764137 
L 159.757459 258.345794 
L 162.266286 271.651462 
L 163.381319 275.117848 
L 164.05034 276.370705 
L 164.71936 277.204827 
L 164.830863 277.16686 
L 164.998119 276.46444 
L 165.276877 273.71047 
L 165.834394 268.851952 
L 166.336159 266.352913 
L 166.726421 265.351013 
L 167.060931 265.012721 
L 167.33969 265.032823 
L 167.618448 265.126675 
L 167.785703 264.453181 
L 168.064462 261.786566 
L 168.566227 257.561851 
L 169.012241 255.422139 
L 169.402502 254.52439 
L 169.681261 254.333284 
L 169.904268 254.407013 
L 170.183026 254.741274 
L 170.406033 255.019453 
L 170.573288 254.647309 
L 170.907798 254.063077 
L 171.186557 253.967756 
L 171.465315 254.170799 
L 171.799825 254.74291 
L 172.301591 256.132034 
L 173.026363 258.930166 
L 173.249369 259.555923 
L 173.639631 259.466938 
L 173.91839 259.703619 
L 174.308652 260.397976 
L 174.866168 261.955307 
L 175.646692 264.884971 
L 176.204209 266.779059 
L 176.984733 269.366957 
L 178.601532 275.020677 
L 178.824539 275.305803 
L 179.159049 275.622714 
L 180.8316 277.67131 
L 181.50062 278.027065 
L 182.16964 277.778859 
L 183.953695 278.520832 
L 184.288205 278.540346 
L 184.957225 278.117432 
L 187.131541 278.586181 
L 187.466051 278.230549 
L 187.800562 278.19286 
L 189.361609 278.632928 
L 189.863374 278.653385 
L 190.532395 278.192047 
L 192.706711 278.60651 
L 193.041221 278.247116 
L 193.375731 278.206237 
L 194.99253 278.646935 
L 195.438544 278.657293 
L 196.107564 278.194626 
L 198.28188 278.607213 
L 198.61639 278.247688 
L 198.950901 278.206699 
L 200.5677 278.647111 
L 201.013713 278.657428 
L 201.682734 278.194715 
L 203.85705 278.607237 
L 204.19156 278.247708 
L 204.52607 278.206715 
L 206.142869 278.647117 
L 206.588883 278.657432 
L 207.257903 278.194718 
L 209.432219 278.607238 
L 209.766729 278.247709 
L 210.101239 278.206716 
L 211.718039 278.647117 
L 212.164052 278.657432 
L 212.833072 278.194718 
L 215.007389 278.566068 
L 215.564906 277.274256 
L 215.899416 276.992882 
L 216.178174 276.992105 
L 216.512684 277.223552 
L 217.34896 277.913858 
L 217.739222 278.07602 
L 217.906477 277.71044 
L 218.296739 276.949538 
L 218.631249 276.696011 
L 218.910007 276.716045 
L 219.244517 276.969738 
L 220.080793 277.75967 
L 220.526806 277.984388 
L 221.195827 277.758306 
L 222.701122 278.444921 
L 223.314391 278.536009 
L 223.983411 278.114648 
L 226.157727 278.585438 
L 226.492238 278.229943 
L 226.826748 278.192371 
L 228.387795 278.632736 
L 228.889561 278.653243 
L 229.558581 278.191952 
L 231.732897 278.606484 
L 232.067407 278.247095 
L 232.401917 278.20622 
L 234.018716 278.646928 
L 234.46473 278.657288 
L 235.13375 278.194623 
L 237.308066 278.566042 
L 238.311597 275.579713 
L 238.646107 275.372096 
L 238.924866 275.430644 
L 239.259376 275.730547 
L 240.095651 276.810286 
L 240.37441 275.918799 
L 240.764671 275.033599 
L 241.099182 274.70777 
L 241.37794 274.68767 
L 241.71245 274.913462 
L 242.158464 275.555781 
L 242.827484 276.640304 
L 242.938988 276.498787 
L 243.106243 275.583515 
L 243.385001 272.382922 
L 243.99827 264.753359 
L 244.500035 261.042352 
L 244.946049 259.205223 
L 245.280559 258.538963 
L 245.726572 258.038865 
L 245.949579 256.440844 
L 246.339841 251.101549 
L 246.841606 245.488059 
L 247.28762 242.561949 
L 247.677882 241.248157 
L 247.95664 240.886398 
L 248.179647 240.887716 
L 248.904419 241.440367 
L 249.294681 242.378896 
L 249.852198 244.463552 
L 250.632721 248.367049 
L 251.859259 254.567081 
L 253.197299 261.721478 
L 254.312333 267.336798 
L 256.375146 275.051469 
L 256.82116 275.851949 
L 257.044166 275.924083 
L 257.434428 276.323843 
L 258.270704 277.346127 
L 259.051227 277.928767 
L 259.552993 278.130981 
L 260.222013 277.847331 
L 262.117571 278.567413 
L 262.396329 278.512614 
L 262.730839 278.170595 
L 263.065349 278.14445 
L 264.570645 278.603992 
L 265.128162 278.639245 
L 265.239665 278.361766 
L 265.462672 276.715889 
L 265.797182 271.866852 
L 266.298948 260.312751 
L 267.02372 237.250388 
L 270.759083 107.086034 
L 271.539607 88.897523 
L 271.929869 84.733113 
L 272.208627 83.56041 
L 272.375882 83.46898 
L 272.543137 83.783927 
L 272.821896 85.106803 
L 273.212158 88.368355 
L 273.825426 93.85628 
L 274.104185 94.965691 
L 274.438695 97.363145 
L 274.94046 102.749585 
L 275.665232 113.181572 
L 279.233341 168.892917 
L 280.348375 182.556649 
L 282.801449 213.091499 
L 284.752759 234.032912 
L 287.484592 256.080714 
L 289.101391 265.38873 
L 290.272176 271.618193 
L 290.885445 273.487983 
L 291.554465 275.292481 
L 292.223486 276.4875 
L 292.948258 277.336009 
L 293.171264 277.248069 
L 293.505775 277.23361 
L 293.896036 277.512244 
L 294.67656 278.041942 
L 295.624339 278.415521 
L 295.847346 278.369993 
L 296.181856 278.054371 
L 296.516366 278.050609 
L 297.910158 278.542334 
L 298.579179 278.611836 
L 298.690682 278.336131 
L 299.248199 276.257958 
L 299.638461 275.556559 
L 299.972971 275.353883 
L 300.25173 275.415952 
L 300.58624 275.719459 
L 301.422515 276.804164 
L 301.701274 275.913597 
L 302.091536 275.029494 
L 302.426046 274.70445 
L 302.704804 274.684912 
L 303.039314 274.911281 
L 303.485328 275.554232 
L 304.154348 276.639289 
L 304.265852 276.497837 
L 304.433107 275.582654 
L 305.548141 266.844623 
L 305.994154 265.467157 
L 306.328664 265.026646 
L 306.607423 264.975777 
L 306.997685 265.144552 
L 307.16494 264.484481 
L 307.443698 261.8373 
L 307.945463 257.639794 
L 308.391477 255.517371 
L 308.781739 254.630515 
L 309.060497 254.445196 
L 309.283504 254.522535 
L 309.562263 254.860198 
L 309.785269 255.140312 
L 309.952524 254.769217 
L 310.287035 254.186202 
L 310.565793 254.091104 
L 310.844552 254.293769 
L 311.179062 254.864761 
L 311.680827 256.251135 
L 312.405599 259.043694 
L 312.628606 259.667473 
L 313.018868 259.574828 
L 313.297626 259.80878 
L 313.687888 260.499212 
L 314.245405 262.050831 
L 315.025929 264.972516 
L 315.583446 266.861043 
L 316.363969 269.441473 
L 317.980768 275.060102 
L 318.203775 275.340147 
L 318.538285 275.650413 
L 320.210836 277.68124 
L 320.879857 278.033728 
L 321.548877 277.783252 
L 323.332931 278.52234 
L 323.667441 278.541582 
L 324.336462 278.118248 
L 326.510778 278.586404 
L 326.845288 278.23073 
L 327.179798 278.193006 
L 328.740846 278.632986 
L 329.242611 278.653428 
L 329.911631 278.192075 
L 332.085947 278.606518 
L 332.420457 278.247122 
L 332.754968 278.206242 
L 334.371767 278.646937 
L 334.81778 278.657294 
L 335.486801 278.194627 
L 337.661117 278.607213 
L 337.995627 278.247689 
L 338.330137 278.206699 
L 339.946936 278.647111 
L 340.39295 278.657428 
L 341.06197 278.194715 
L 343.236286 278.566067 
L 344.239817 275.579727 
L 344.574327 275.372106 
L 344.853085 275.430653 
L 345.187595 275.730553 
L 346.023871 276.81029 
L 346.302629 275.918802 
L 346.692891 275.033601 
L 347.027401 274.707772 
L 347.30616 274.687672 
L 347.64067 274.913463 
L 348.086684 275.555782 
L 348.755704 276.640305 
L 348.867207 276.528074 
L 349.257469 275.990048 
L 349.591979 275.896903 
L 349.926489 276.07952 
L 350.372503 276.647179 
L 351.041523 277.41741 
L 351.543289 277.759882 
L 351.710544 277.424362 
L 352.100806 276.724826 
L 352.435316 276.515223 
L 352.714074 276.566636 
L 353.048584 276.853876 
L 353.88486 277.688841 
L 354.330873 277.929952 
L 354.999894 277.722267 
L 356.449438 278.414079 
L 357.118458 278.525805 
L 357.787478 278.107913 
L 359.961795 278.583602 
L 360.296305 278.228447 
L 360.630815 278.191163 
L 362.191862 278.632261 
L 362.693628 278.65289 
L 363.362648 278.19172 
L 365.536964 278.565251 
L 365.704219 277.72771 
L 365.982978 274.632533 
L 366.70775 265.099081 
L 367.209515 261.303291 
L 367.655528 259.406313 
L 368.04579 258.636847 
L 368.324549 258.343227 
L 368.491804 257.48109 
L 368.770562 254.425445 
L 369.439583 245.867602 
L 369.885596 242.670021 
L 370.275858 241.17027 
L 370.610368 240.65842 
L 370.833375 240.647175 
L 371.112133 240.792455 
L 371.223637 240.483785 
L 371.446644 238.867132 
L 372.282919 230.826288 
L 372.673181 229.225206 
L 372.951939 228.761215 
L 373.174946 228.732795 
L 373.397953 228.968121 
L 373.732463 229.743039 
L 373.95547 230.135219 
L 374.066973 229.863862 
L 374.28998 228.33887 
L 374.903249 222.987441 
L 375.293511 221.414735 
L 375.572269 221.010027 
L 375.795276 221.048406 
L 376.018283 221.365217 
L 376.352793 222.285412 
L 376.743055 223.547824 
L 376.798806 223.5135 
L 376.966061 222.89897 
L 377.858088 217.755184 
L 378.136847 217.434969 
L 378.304102 217.488603 
L 378.527109 217.810814 
L 378.861619 218.757404 
L 379.363384 221.010394 
L 379.586391 221.593264 
L 379.697894 221.367662 
L 379.920901 219.979731 
L 380.366915 217.357332 
L 380.701425 216.539809 
L 380.924432 216.445457 
L 381.147438 216.659898 
L 381.426197 217.302879 
L 381.87221 219.04285 
L 382.373976 221.128531 
L 382.485479 220.930239 
L 382.764238 219.374952 
L 383.154499 217.893801 
L 383.433258 217.561863 
L 383.600513 217.609057 
L 383.82352 217.923307 
L 384.15803 218.859168 
L 384.659795 221.098413 
L 385.16156 223.407197 
L 385.273064 223.245536 
L 385.496071 222.073635 
L 385.886332 220.476642 
L 386.165091 220.062863 
L 386.388098 220.098172 
L 386.611105 220.415142 
L 386.945615 221.340762 
L 387.44738 223.538648 
L 388.060649 226.25564 
L 388.562414 228.314678 
L 389.287186 232.442125 
L 390.457971 240.65799 
L 390.792482 242.427133 
L 391.517254 245.887509 
L 392.688039 252.775037 
L 393.524315 257.371335 
L 393.914577 257.298459 
L 394.193335 257.556352 
L 394.583597 258.291286 
L 395.141114 259.923222 
L 395.921638 262.978557 
L 396.256148 264.097375 
L 396.423403 263.793845 
L 396.757913 263.28344 
L 397.036671 263.192872 
L 397.31543 263.357453 
L 397.64994 263.835894 
L 398.151705 265.007848 
L 399.043732 267.640112 
L 399.099484 267.54683 
L 399.266739 266.747749 
L 399.712753 264.54072 
L 400.103015 263.512059 
L 400.437525 263.168227 
L 400.716283 263.19378 
L 400.995042 263.45665 
L 401.385304 264.152622 
L 401.775565 264.996334 
L 401.831317 264.952074 
L 401.998572 264.261801 
L 402.556089 261.205447 
L 402.946351 260.144786 
L 403.280861 259.802544 
L 403.55962 259.846157 
L 403.838378 260.139731 
L 404.22864 260.896018 
L 404.786157 261.996153 
L 405.232171 262.984329 
L 405.901191 265.108172 
L 406.904721 269.149276 
L 407.573742 271.592232 
L 409.190541 275.983833 
L 409.859561 276.949807 
L 410.13832 277.143493 
L 410.417078 277.048964 
L 410.751588 277.198347 
L 411.866622 278.033989 
L 412.814401 278.410307 
L 413.594925 278.02817 
L 414.932965 278.519869 
L 415.657737 278.605285 
L 416.326758 278.160296 
L 418.501074 278.597859 
L 418.835584 278.240066 
L 419.170094 278.200544 
L 420.786893 278.644767 
L 421.232907 278.65563 
L 421.901927 278.193528 
L 424.076243 278.606914 
L 424.410753 278.247445 
L 424.745264 278.206503 
L 426.362063 278.647036 
L 426.808076 278.65737 
L 427.477097 278.194677 
L 429.651413 278.607227 
L 429.985923 278.2477 
L 430.320433 278.206709 
L 431.937232 278.647114 
L 432.383246 278.65743 
L 433.052266 278.194717 
L 435.226582 278.607238 
L 435.561092 278.247709 
L 435.895603 278.206716 
L 437.512402 278.647117 
L 437.958415 278.657432 
L 438.627436 278.194718 
L 440.801752 278.607238 
L 441.136262 278.247709 
L 441.470772 278.206716 
L 443.087571 278.647117 
L 443.533585 278.657433 
L 443.70084 278.233938 
L 444.146853 277.274256 
L 444.481364 276.992882 
L 444.760122 276.992105 
L 445.094632 277.223552 
L 445.930908 277.913858 
L 446.321169 278.07602 
L 446.488425 277.710441 
L 446.878686 276.949538 
L 447.213197 276.696011 
L 447.491955 276.716045 
L 447.826465 276.969738 
L 448.662741 277.75967 
L 449.108754 277.984388 
L 449.777774 277.758306 
L 451.28307 278.444921 
L 451.896339 278.536009 
L 452.565359 278.114648 
L 454.739675 278.585438 
L 455.074185 278.229943 
L 455.408696 278.192371 
L 456.969743 278.632736 
L 457.471508 278.653243 
L 458.140529 278.191952 
L 460.314845 278.565314 
L 461.318375 275.579331 
L 461.652885 275.371795 
L 461.931644 275.430402 
L 462.266154 275.730364 
L 463.102429 276.810185 
L 463.381188 275.918713 
L 463.77145 275.033531 
L 464.10596 274.707715 
L 464.384718 274.687625 
L 464.719229 274.913426 
L 465.165242 275.555756 
L 465.834263 276.640287 
L 465.945766 276.498771 
L 466.113021 275.583501 
L 466.893545 269.671183 
L 467.339558 267.962382 
L 467.72982 267.241464 
L 468.008579 267.084218 
L 468.287337 267.174438 
L 468.677599 267.488077 
L 468.789102 267.169931 
L 469.012109 265.50884 
L 469.513874 261.723861 
L 469.959888 259.828977 
L 470.35015 259.057002 
L 470.628908 258.914647 
L 470.907667 259.055096 
L 471.242177 259.535298 
L 471.465184 259.857607 
L 471.632439 259.505249 
L 471.966949 258.931463 
L 472.245707 258.818859 
L 472.524466 258.984932 
L 472.858976 259.491156 
L 473.360741 260.747037 
L 474.085513 263.302481 
L 474.30852 263.845564 
L 474.754534 263.612019 
L 475.033292 263.785123 
L 475.423554 264.375685 
L 475.925319 265.600743 
L 476.650091 268.010494 
L 477.26336 269.896653 
L 477.988132 272.011858 
L 479.103166 275.339599 
L 479.716434 276.443184 
L 479.995193 276.474339 
L 480.329703 276.651704 
L 481.946502 278.039771 
L 482.559771 278.254673 
L 482.671274 278.002114 
L 482.894281 276.402156 
L 483.897812 266.379948 
L 484.343825 264.245329 
L 484.734087 263.268906 
L 485.068597 262.96283 
L 485.403107 262.899895 
L 485.570362 262.154239 
L 485.849121 259.286289 
L 486.350886 254.139398 
L 486.7969 251.422831 
L 487.187162 250.169306 
L 487.521672 249.764103 
L 487.744679 249.779293 
L 488.023437 250.069851 
L 488.246444 250.261457 
L 488.525202 250.52212 
L 488.915464 251.313483 
L 489.417229 252.90047 
L 490.197753 256.236932 
L 491.647297 262.629505 
L 492.929586 268.523951 
L 493.821613 272.307729 
L 493.933117 272.069732 
L 494.769392 268.580573 
L 495.103902 268.07 
L 495.382661 267.9552 
L 495.661419 268.077338 
L 495.995929 268.484991 
L 496.553446 269.502908 
L 496.609198 269.44021 
L 496.776453 268.693 
L 497.33397 265.432811 
L 497.779984 264.108301 
L 498.114494 263.709461 
L 498.393252 263.694132 
L 498.672011 263.920093 
L 499.062273 264.570237 
L 499.452534 265.201925 
L 499.842796 265.795797 
L 500.400313 267.165723 
L 501.180837 269.77681 
L 502.351622 273.727738 
L 503.91267 276.810101 
L 504.637442 277.546857 
L 504.860449 277.666073 
L 504.971952 277.451771 
L 505.139207 276.434679 
L 505.417966 273.082369 
L 505.808228 265.466561 
L 507.257772 233.463204 
L 508.261302 220.101533 
L 508.874571 204.583969 
L 509.543591 187.655064 
L 510.045356 180.56563 
L 510.49137 177.272849 
L 510.770128 174.50339 
L 511.216142 170.048529 
L 511.550652 168.47515 
L 511.773659 168.13242 
L 511.940914 168.196806 
L 512.163921 168.661714 
L 512.498431 170.059685 
L 513.000196 173.416973 
L 513.44621 176.277588 
L 513.557713 176.28562 
L 513.836472 176.047335 
L 514.003727 176.218825 
L 514.282485 176.988099 
L 514.672747 178.919314 
L 515.230264 183.004058 
L 516.512553 193.037329 
L 517.07007 196.572737 
L 517.850594 203.149057 
L 519.132883 214.132869 
L 519.634648 216.483727 
L 520.35942 221.183458 
L 523.147005 242.352564 
L 524.763804 253.913331 
L 527.328382 268.415329 
L 527.439885 268.143976 
L 527.662892 266.532021 
L 528.666422 256.787341 
L 529.112436 254.898092 
L 529.446946 254.233317 
L 529.725705 254.081272 
L 530.004463 254.080496 
L 530.171718 253.381878 
L 530.450477 250.580062 
L 531.286752 240.122618 
L 531.732766 237.365816 
L 532.123027 236.215751 
L 532.401786 235.977217 
L 532.624793 236.07983 
L 532.847799 236.181461 
L 533.070806 236.329547 
L 533.349565 236.819154 
L 533.795578 238.180477 
L 534.408847 240.919113 
L 535.356626 246.366538 
L 535.969894 249.520782 
L 537.14068 256.053467 
L 538.701727 264.657611 
L 541.09905 274.625752 
L 542.994608 277.305678 
L 543.775132 277.900849 
L 543.942387 277.889709 
L 544.221145 277.677433 
L 544.555655 277.705307 
L 546.228206 278.467475 
L 546.67422 278.519632 
L 547.34324 278.103758 
L 549.461804 278.631813 
L 549.573308 278.354815 
L 549.796315 276.709825 
L 550.799845 266.53685 
L 551.245859 264.356201 
L 551.63612 263.347386 
L 551.970631 263.018407 
L 552.305141 262.936381 
L 552.472396 262.182408 
L 552.751154 259.302238 
L 553.25292 254.137709 
L 553.698933 251.409356 
L 554.089195 250.147926 
L 554.423705 249.737418 
L 554.646712 249.749715 
L 554.92547 250.037283 
L 555.148477 250.22695 
L 555.427236 250.485658 
L 555.817498 251.275055 
L 556.319263 252.860588 
L 557.099787 256.196558 
L 558.549331 262.591614 
L 559.83162 268.489939 
L 560.723647 272.282074 
L 560.83515 272.045877 
L 561.392667 270.195805 
L 561.727177 269.717916 
L 562.005936 269.617484 
L 562.284694 269.744129 
L 562.674956 270.23631 
L 563.176721 271.290816 
L 563.45548 271.87674 
L 563.566983 271.684331 
L 564.45901 268.35886 
L 564.79352 267.994746 
L 565.072279 267.981914 
L 565.351037 268.190241 
L 565.741299 268.78784 
L 567.581105 272.641907 
L 568.696139 275.681407 
L 569.030649 276.167169 
L 569.253656 276.201858 
L 569.588166 276.477936 
L 570.7032 277.66111 
L 571.539475 278.150613 
L 571.818234 278.159576 
L 572.096992 277.905096 
L 572.431503 277.889403 
L 574.438564 278.601623 
L 574.605819 278.524089 
L 574.940329 278.179947 
L 575.274839 278.152002 
L 576.780135 278.607065 
L 577.337652 278.641451 
L 578.006672 278.184169 
L 580.180988 278.604364 
L 580.515498 278.245366 
L 580.850008 278.204824 
L 582.466808 278.646397 
L 582.912821 278.65688 
L 583.581841 278.194354 
L 585.756158 278.607139 
L 586.090668 278.247628 
L 586.425178 278.20665 
L 588.041977 278.647092 
L 588.487991 278.657413 
L 588.599494 278.378758 
L 588.822501 276.730713 
L 589.435769 271.336734 
L 589.937535 268.835785 
L 590.327797 267.808225 
L 590.662307 267.434953 
L 590.941065 267.418588 
L 591.331327 267.6083 
L 591.498582 266.948998 
L 592.613616 259.694221 
L 593.003878 258.877762 
L 593.282636 258.710381 
L 593.561395 258.830587 
L 593.895905 259.291914 
L 594.118912 259.604507 
L 594.286167 259.246173 
L 594.620677 258.663332 
L 594.899435 258.545798 
L 595.178194 258.708956 
L 595.512704 259.213927 
L 596.014469 260.471626 
L 596.739241 263.035407 
L 596.962248 263.582041 
L 597.408262 263.356578 
L 597.68702 263.535248 
L 598.077282 264.134085 
L 598.579047 265.370329 
L 599.303819 267.796741 
L 599.917088 269.697008 
L 600.64186 271.828494 
L 601.812646 275.352581 
L 602.425914 276.401944 
L 603.206438 276.848372 
L 603.986962 277.626745 
L 604.823237 278.130785 
L 605.213499 278.241411 
L 605.882519 277.920212 
L 607.945332 278.620386 
L 608.725856 278.157514 
L 610.231152 278.609308 
L 610.788668 278.643061 
L 610.900172 278.365335 
L 611.17893 276.443463 
L 611.680696 273.610222 
L 612.126709 272.211557 
L 612.516971 271.662373 
L 612.795729 271.581359 
L 613.074488 271.715396 
L 613.46475 272.20113 
L 613.632005 272.341812 
L 613.743508 272.050774 
L 614.579784 268.261655 
L 614.970046 267.614553 
L 615.248804 267.498422 
L 615.527562 267.621537 
L 615.862073 268.032907 
L 617.367368 270.724307 
L 618.09214 272.867105 
L 618.928416 275.276942 
L 619.262926 275.739751 
L 619.597436 275.97698 
L 620.266457 276.882445 
L 620.991229 277.600664 
L 621.827504 278.113299 
L 621.939007 278.114465 
L 622.106262 277.742956 
L 622.496524 276.970099 
L 622.831034 276.708178 
L 623.109793 276.722329 
L 623.444303 276.970105 
L 624.280579 277.759014 
L 624.726592 277.983888 
L 624.893847 277.627063 
L 625.284109 276.884032 
L 625.618619 276.643298 
L 625.897378 276.672471 
L 626.231888 276.935556 
L 627.068163 277.739059 
L 627.514177 277.968546 
L 628.183197 277.747817 
L 629.632741 278.424844 
L 630.301762 278.533039 
L 630.970782 278.112688 
L 633.089346 278.634343 
L 633.20085 278.357181 
L 633.423856 276.744612 
L 633.981373 272.614258 
L 634.427387 270.704275 
L 634.817649 269.820763 
L 635.152159 269.532742 
L 635.430917 269.564942 
L 635.765428 269.873791 
L 635.932683 269.965829 
L 636.044186 269.647082 
L 636.378696 267.264257 
L 636.880462 264.61888 
L 637.270723 263.546969 
L 637.605234 263.173048 
L 637.883992 263.177706 
L 638.16275 263.422964 
L 638.553012 264.098997 
L 638.831771 264.44702 
L 639.166281 264.902024 
L 639.668046 266.033958 
L 640.392818 268.340138 
L 642.121121 274.163723 
L 642.790141 275.751215 
L 643.459161 276.797499 
L 644.128182 277.491916 
L 644.128182 277.491916 
" clip-path="url(#p8db377f0f6)" style="fill: none; stroke: #ff4500; stroke-width: 1.5; stroke-linecap: square"/>
   </g>
   <g id="patch_3">
    <path d="M 52.94 288.67 
L 52.94 73.68 
" style="fill: none; stroke: #ff4500; stroke-width: 0.8; stroke-linejoin: miter; stroke-linecap: square"/>
   </g>
   <g id="patch_4">
    <path d="M 672.28 288.67 
L 672.28 73.68 
" style="fill: none; stroke: #000000; stroke-width: 0.8; stroke-linejoin: miter; stroke-linecap: square"/>
   </g>
   <g id="patch_5">
    <path d="M 52.94 288.67 
L 672.28 288.67 
" style="fill: none; stroke: #000000; stroke-width: 0.8; stroke-linejoin: miter; stroke-linecap: square"/>
   </g>
   <g id="patch_6">
    <path d="M 52.94 73.68 
L 672.28 73.68 
" style="fill: none; stroke: #808080; stroke-width: 0.8; stroke-linejoin: miter; stroke-linecap: square"/>
   </g>
   <g id="text_7">
    <!-- Output Voltage and Duty Cycle -->
    <g transform="translate(269.620312 67.68) scale(0.12 -0.12)">
     <defs>
      <path id="DejaVuSans-6e" d="M 3513 2113 
L 3513 0 
L 2938 0 
L 2938 2094 
Q 2938 2591 2744 2837 
Q 2550 3084 2163 3084 
Q 1697 3084 1428 2787 
Q 1159 2491 1159 1978 
L 1159 0 
L 581 0 
L 581 3500 
L 1159 3500 
L 1159 2956 
Q 1366 3272 1645 3428 
Q 1925 3584 2291 3584 
Q 2894 3584 3203 3211 
Q 3513 2838 3513 2113 
z
" transform="scale(0.015625)"/>
      <path id="DejaVuSans-64" d="M 2906 2969 
L 2906 4863 
L 3481 4863 
L 3481 0 
L 2906 0 
L 2906 525 
Q 2725 213 2448 61 
Q 2172 -91 1784 -91 
Q 1150 -91 751 415 
Q 353 922 353 1747 
Q 353 2572 751 3078 
Q 1150 3584 1784 3584 
Q 2172 3584 2448 3432 
Q 2725 3281 2906 2969 
z
M 947 1747 
Q 947 1113 1208 752 
Q 1469 391 1925 391 
Q 2381 391 2643 752 
Q 2906 1113 2906 1747 
Q 2906 2381 2643 2742 
Q 2381 3103 1925 3103 
Q 1469 3103 1208 2742 
Q 947 2381 947 1747 
z
" transform="scale(0.015625)"/>
      <path id="DejaVuSans-44" d="M 1259 4147 
L 1259 519 
L 2022 519 
Q 2988 519 3436 956 
Q 3884 1394 3884 2338 
Q 3884 3275 3436 3711 
Q 2988 4147 2022 4147 
L 1259 4147 
z
M 628 4666 
L 1925 4666 
Q 3281 4666 3915 4102 
Q 4550 3538 4550 2338 
Q 4550 1131 3912 565 
Q 3275 0 1925 0 
L 628 0 
L 628 4666 
z
" transform="scale(0.015625)"/>
      <path id="DejaVuSans-79" d="M 2059 -325 
Q 1816 -950 1584 -1140 
Q 1353 -1331 966 -1331 
L 506 -1331 
L 506 -850 
L 844 -850 
Q 1081 -850 1212 -737 
Q 1344 -625 1503 -206 
L 1606 56 
L 191 3500 
L 800 3500 
L 1894 763 
L 2988 3500 
L 3597 3500 
L 2059 -325 
z
" transform="scale(0.015625)"/>
      <path id="DejaVuSans-43" d="M 4122 4306 
L 4122 3641 
Q 3803 3938 3442 4084 
Q 3081 4231 2675 4231 
Q 1875 4231 1450 3742 
Q 1025 3253 1025 2328 
Q 1025 1406 1450 917 
Q 1875 428 2675 428 
Q 3081 428 3442 575 
Q 3803 722 4122 1019 
L 4122 359 
Q 3791 134 3420 21 
Q 3050 -91 2638 -91 
Q 1578 -91 968 557 
Q 359 1206 359 2328 
Q 359 3453 968 4101 
Q 1578 4750 2638 4750 
Q 3056 4750 3426 4639 
Q 3797 4528 4122 4306 
z
" transform="scale(0.015625)"/>
      <path id="DejaVuSans-63" d="M 3122 3366 
L 3122 2828 
Q 2878 2963 2633 3030 
Q 2388 3097 2138 3097 
Q 1578 3097 1268 2742 
Q 959 2388 959 1747 
Q 959 1106 1268 751 
Q 1578 397 2138 397 
Q 2388 397 2633 464 
Q 2878 531 3122 666 
L 3122 134 
Q 2881 22 2623 -34 
Q 2366 -91 2075 -91 
Q 1284 -91 818 406 
Q 353 903 353 1747 
Q 353 2603 823 3093 
Q 1294 3584 2113 3584 
Q 2378 3584 2631 3529 
Q 2884 3475 3122 3366 
z
" transform="scale(0.015625)"/>
     </defs>
     <use xlink:href="#DejaVuSans-4f"/>
     <use xlink:href="#DejaVuSans-75" x="78.710938"/>
     <use xlink:href="#DejaVuSans-74" x="142.089844"/>
     <use xlink:href="#DejaVuSans-70" x="181.298828"/>
     <use xlink:href="#DejaVuSans-75" x="244.775391"/>
     <use xlink:href="#DejaVuSans-74" x="308.154297"/>
     <use xlink:href="#DejaVuSans-20" x="347.363281"/>
     <use xlink:href="#DejaVuSans-56" x="379.150391"/>
     <use xlink:href="#DejaVuSans-6f" x="439.808594"/>
     <use xlink:href="#DejaVuSans-6c" x="500.990234"/>
     <use xlink:href="#DejaVuSans-74" x="528.773438"/>
     <use xlink:href="#DejaVuSans-61" x="567.982422"/>
     <use xlink:href="#DejaVuSans-67" x="629.261719"/>
     <use xlink:href="#DejaVuSans-65" x="692.738281"/>
     <use xlink:href="#DejaVuSans-20" x="754.261719"/>
     <use xlink:href="#DejaVuSans-61" x="786.048828"/>
     <use xlink:href="#DejaVuSans-6e" x="847.328125"/>
     <use xlink:href="#DejaVuSans-64" x="910.707031"/>
     <use xlink:href="#DejaVuSans-20" x="974.183594"/>
     <use xlink:href="#DejaVuSans-44" x="1005.970703"/>
     <use xlink:href="#DejaVuSans-75" x="1082.972656"/>
     <use xlink:href="#DejaVuSans-74" x="1146.351562"/>
     <use xlink:href="#DejaVuSans-79" x="1185.560547"/>
     <use xlink:href="#DejaVuSans-20" x="1244.740234"/>
     <use xlink:href="#DejaVuSans-43" x="1276.527344"/>
     <use xlink:href="#DejaVuSans-79" x="1346.351562"/>
     <use xlink:href="#DejaVuSans-63" x="1405.53125"/>
     <use xlink:href="#DejaVuSans-6c" x="1460.511719"/>
     <use xlink:href="#DejaVuSans-65" x="1488.294922"/>
    </g>
   </g>
  </g>
  <g id="axes_2">
   <g id="patch_7">
    <path d="M 52.94 534.04 
L 672.28 534.04 
L 672.28 319.05 
L 52.94 319.05 
z
" style="fill: #ffffff"/>
   </g>
   <g id="matplotlib.axis_3">
    <g id="xtick_7">
     <g id="line2d_13">
      <g>
       <use xlink:href="#m394b94bf51" x="81.091818" y="534.04" style="stroke: #000000; stroke-width: 0.8"/>
      </g>
     </g>
     <g id="text_8">
      <!-- 0.00 -->
      <g transform="translate(69.959006 548.638438) scale(0.1 -0.1)">
       <defs>
        <path id="DejaVuSans-2e" d="M 684 794 
L 1344 794 
L 1344 0 
L 684 0 
L 684 794 
z
" transform="scale(0.015625)"/>
       </defs>
       <use xlink:href="#DejaVuSans-30"/>
       <use xlink:href="#DejaVuSans-2e" x="63.623047"/>
       <use xlink:href="#DejaVuSans-30" x="95.410156"/>
       <use xlink:href="#DejaVuSans-30" x="159.033203"/>
      </g>
     </g>
    </g>
    <g id="xtick_8">
     <g id="line2d_14">
      <g>
       <use xlink:href="#m394b94bf51" x="192.595207" y="534.04" style="stroke: #000000; stroke-width: 0.8"/>
      </g>
     </g>
     <g id="text_9">
      <!-- 0.02 -->
      <g transform="translate(181.462395 548.638438) scale(0.1 -0.1)">
       <use xlink:href="#DejaVuSans-30"/>
       <use xlink:href="#DejaVuSans-2e" x="63.623047"/>
       <use xlink:href="#DejaVuSans-30" x="95.410156"/>
       <use xlink:href="#DejaVuSans-32" x="159.033203"/>
      </g>
     </g>
    </g>
    <g id="xtick_9">
     <g id="line2d_15">
      <g>
       <use xlink:href="#m394b94bf51" x="304.098597" y="534.04" style="stroke: #000000; stroke-width: 0.8"/>
      </g>
     </g>
     <g id="text_10">
      <!-- 0.04 -->
      <g transform="translate(292.965784 548.638438) scale(0.1 -0.1)">
       <use xlink:href="#DejaVuSans-30"/>
       <use xlink:href="#DejaVuSans-2e" x="63.623047"/>
       <use xlink:href="#DejaVuSans-30" x="95.410156"/>
       <use xlink:href="#DejaVuSans-34" x="159.033203"/>
      </g>
     </g>
    </g>
    <g id="xtick_10">
     <g id="line2d_16">
      <g>
       <use xlink:href="#m394b94bf51" x="415.601986" y="534.04" style="stroke: #000000; stroke-width: 0.8"/>
      </g>
     </g>
     <g id="text_11">
      <!-- 0.06 -->
      <g transform="translate(404.469173 548.638438) scale(0.1 -0.1)">
       <defs>
        <path id="DejaVuSans-36" d="M 2113 2584 
Q 1688 2584 1439 2293 
Q 1191 2003 1191 1497 
Q 1191 994 1439 701 
Q 1688 409 2113 409 
Q 2538 409 2786 701 
Q 3034 994 3034 1497 
Q 3034 2003 2786 2293 
Q 2538 2584 2113 2584 
z
M 3366 4563 
L 3366 3988 
Q 3128 4100 2886 4159 
Q 2644 4219 2406 4219 
Q 1781 4219 1451 3797 
Q 1122 3375 1075 2522 
Q 1259 2794 1537 2939 
Q 1816 3084 2150 3084 
Q 2853 3084 3261 2657 
Q 3669 2231 3669 1497 
Q 3669 778 3244 343 
Q 2819 -91 2113 -91 
Q 1303 -91 875 529 
Q 447 1150 447 2328 
Q 447 3434 972 4092 
Q 1497 4750 2381 4750 
Q 2619 4750 2861 4703 
Q 3103 4656 3366 4563 
z
" transform="scale(0.015625)"/>
       </defs>
       <use xlink:href="#DejaVuSans-30"/>
       <use xlink:href="#DejaVuSans-2e" x="63.623047"/>
       <use xlink:href="#DejaVuSans-30" x="95.410156"/>
       <use xlink:href="#DejaVuSans-36" x="159.033203"/>
      </g>
     </g>
    </g>
    <g id="xtick_11">
     <g id="line2d_17">
      <g>
       <use xlink:href="#m394b94bf51" x="527.105375" y="534.04" style="stroke: #000000; stroke-width: 0.8"/>
      </g>
     </g>
     <g id="text_12">
      <!-- 0.08 -->
      <g transform="translate(515.972562 548.638438) scale(0.1 -0.1)">
       <defs>
        <path id="DejaVuSans-38" d="M 2034 2216 
Q 1584 2216 1326 1975 
Q 1069 1734 1069 1313 
Q 1069 891 1326 650 
Q 1584 409 2034 409 
Q 2484 409 2743 651 
Q 3003 894 3003 1313 
Q 3003 1734 2745 1975 
Q 2488 2216 2034 2216 
z
M 1403 2484 
Q 997 2584 770 2862 
Q 544 3141 544 3541 
Q 544 4100 942 4425 
Q 1341 4750 2034 4750 
Q 2731 4750 3128 4425 
Q 3525 4100 3525 3541 
Q 3525 3141 3298 2862 
Q 3072 2584 2669 2484 
Q 3125 2378 3379 2068 
Q 3634 1759 3634 1313 
Q 3634 634 3220 271 
Q 2806 -91 2034 -91 
Q 1263 -91 848 271 
Q 434 634 434 1313 
Q 434 1759 690 2068 
Q 947 2378 1403 2484 
z
M 1172 3481 
Q 1172 3119 1398 2916 
Q 1625 2713 2034 2713 
Q 2441 2713 2670 2916 
Q 2900 3119 2900 3481 
Q 2900 3844 2670 4047 
Q 2441 4250 2034 4250 
Q 1625 4250 1398 4047 
Q 1172 3844 1172 3481 
z
" transform="scale(0.015625)"/>
       </defs>
       <use xlink:href="#DejaVuSans-30"/>
       <use xlink:href="#DejaVuSans-2e" x="63.623047"/>
       <use xlink:href="#DejaVuSans-30" x="95.410156"/>
       <use xlink:href="#DejaVuSans-38" x="159.033203"/>
      </g>
     </g>
    </g>
    <g id="xtick_12">
     <g id="line2d_18">
      <g>
       <use xlink:href="#m394b94bf51" x="638.608764" y="534.04" style="stroke: #000000; stroke-width: 0.8"/>
      </g>
     </g>
     <g id="text_13">
      <!-- 0.10 -->
      <g transform="translate(627.475952 548.638438) scale(0.1 -0.1)">
       <use xlink:href="#DejaVuSans-30"/>
       <use xlink:href="#DejaVuSans-2e" x="63.623047"/>
       <use xlink:href="#DejaVuSans-31" x="95.410156"/>
       <use xlink:href="#DejaVuSans-30" x="159.033203"/>
      </g>
     </g>
    </g>
    <g id="text_14">
     <!-- Time -->
     <g transform="translate(350.376406 562.316563) scale(0.1 -0.1)">
      <defs>
       <path id="DejaVuSans-54" d="M -19 4666 
L 3928 4666 
L 3928 4134 
L 2272 4134 
L 2272 0 
L 1638 0 
L 1638 4134 
L -19 4134 
L -19 4666 
z
" transform="scale(0.015625)"/>
       <path id="DejaVuSans-69" d="M 603 3500 
L 1178 3500 
L 1178 0 
L 603 0 
L 603 3500 
z
M 603 4863 
L 1178 4863 
L 1178 4134 
L 603 4134 
L 603 4863 
z
" transform="scale(0.015625)"/>
       <path id="DejaVuSans-6d" d="M 3328 2828 
Q 3544 3216 3844 3400 
Q 4144 3584 4550 3584 
Q 5097 3584 5394 3201 
Q 5691 2819 5691 2113 
L 5691 0 
L 5113 0 
L 5113 2094 
Q 5113 2597 4934 2840 
Q 4756 3084 4391 3084 
Q 3944 3084 3684 2787 
Q 3425 2491 3425 1978 
L 3425 0 
L 2847 0 
L 2847 2094 
Q 2847 2600 2669 2842 
Q 2491 3084 2119 3084 
Q 1678 3084 1418 2786 
Q 1159 2488 1159 1978 
L 1159 0 
L 581 0 
L 581 3500 
L 1159 3500 
L 1159 2956 
Q 1356 3278 1631 3431 
Q 1906 3584 2284 3584 
Q 2666 3584 2933 3390 
Q 3200 3197 3328 2828 
z
" transform="scale(0.015625)"/>
      </defs>
      <use xlink:href="#DejaVuSans-54"/>
      <use xlink:href="#DejaVuSans-69" x="57.958984"/>
      <use xlink:href="#DejaVuSans-6d" x="85.742188"/>
      <use xlink:href="#DejaVuSans-65" x="183.154297"/>
     </g>
    </g>
   </g>
   <g id="matplotlib.axis_4">
    <g id="ytick_6">
     <g id="line2d_19">
      <defs>
       <path id="me6f8ceca53" d="M 0 0 
L -3.5 0 
" style="stroke: #008000; stroke-width: 0.8"/>
      </defs>
      <g>
       <use xlink:href="#me6f8ceca53" x="52.94" y="524.289898" style="fill: #008000; stroke: #008000; stroke-width: 0.8"/>
      </g>
     </g>
     <g id="text_15">
      <!-- −60 -->
      <g style="fill: #008000" transform="translate(24.835313 528.089117) scale(0.1 -0.1)">
       <defs>
        <path id="DejaVuSans-2212" d="M 678 2272 
L 4684 2272 
L 4684 1741 
L 678 1741 
L 678 2272 
z
" transform="scale(0.015625)"/>
       </defs>
       <use xlink:href="#DejaVuSans-2212"/>
       <use xlink:href="#DejaVuSans-36" x="83.789062"/>
       <use xlink:href="#DejaVuSans-30" x="147.412109"/>
      </g>
     </g>
    </g>
    <g id="ytick_7">
     <g id="line2d_20">
      <g>
       <use xlink:href="#me6f8ceca53" x="52.94" y="484.40901" style="fill: #008000; stroke: #008000; stroke-width: 0.8"/>
      </g>
     </g>
     <g id="text_16">
      <!-- −50 -->
      <g style="fill: #008000" transform="translate(24.835313 488.208229) scale(0.1 -0.1)">
       <defs>
        <path id="DejaVuSans-35" d="M 691 4666 
L 3169 4666 
L 3169 4134 
L 1269 4134 
L 1269 2991 
Q 1406 3038 1543 3061 
Q 1681 3084 1819 3084 
Q 2600 3084 3056 2656 
Q 3513 2228 3513 1497 
Q 3513 744 3044 326 
Q 2575 -91 1722 -91 
Q 1428 -91 1123 -41 
Q 819 9 494 109 
L 494 744 
Q 775 591 1075 516 
Q 1375 441 1709 441 
Q 2250 441 2565 725 
Q 2881 1009 2881 1497 
Q 2881 1984 2565 2268 
Q 2250 2553 1709 2553 
Q 1456 2553 1204 2497 
Q 953 2441 691 2322 
L 691 4666 
z
" transform="scale(0.015625)"/>
       </defs>
       <use xlink:href="#DejaVuSans-2212"/>
       <use xlink:href="#DejaVuSans-35" x="83.789062"/>
       <use xlink:href="#DejaVuSans-30" x="147.412109"/>
      </g>
     </g>
    </g>
    <g id="ytick_8">
     <g id="line2d_21">
      <g>
       <use xlink:href="#me6f8ceca53" x="52.94" y="444.528122" style="fill: #008000; stroke: #008000; stroke-width: 0.8"/>
      </g>
     </g>
     <g id="text_17">
      <!-- −40 -->
      <g style="fill: #008000" transform="translate(24.835313 448.327341) scale(0.1 -0.1)">
       <use xlink:href="#DejaVuSans-2212"/>
       <use xlink:href="#DejaVuSans-34" x="83.789062"/>
       <use xlink:href="#DejaVuSans-30" x="147.412109"/>
      </g>
     </g>
    </g>
    <g id="ytick_9">
     <g id="line2d_22">
      <g>
       <use xlink:href="#me6f8ceca53" x="52.94" y="404.647234" style="fill: #008000; stroke: #008000; stroke-width: 0.8"/>
      </g>
     </g>
     <g id="text_18">
      <!-- −30 -->
      <g style="fill: #008000" transform="translate(24.835313 408.446453) scale(0.1 -0.1)">
       <use xlink:href="#DejaVuSans-2212"/>
       <use xlink:href="#DejaVuSans-33" x="83.789062"/>
       <use xlink:href="#DejaVuSans-30" x="147.412109"/>
      </g>
     </g>
    </g>
    <g id="ytick_10">
     <g id="line2d_23">
      <g>
       <use xlink:href="#me6f8ceca53" x="52.94" y="364.766347" style="fill: #008000; stroke: #008000; stroke-width: 0.8"/>
      </g>
     </g>
     <g id="text_19">
      <!-- −20 -->
      <g style="fill: #008000" transform="translate(24.835313 368.565565) scale(0.1 -0.1)">
       <use xlink:href="#DejaVuSans-2212"/>
       <use xlink:href="#DejaVuSans-32" x="83.789062"/>
       <use xlink:href="#DejaVuSans-30" x="147.412109"/>
      </g>
     </g>
    </g>
    <g id="ytick_11">
     <g id="line2d_24">
      <g>
       <use xlink:href="#me6f8ceca53" x="52.94" y="324.885459" style="fill: #008000; stroke: #008000; stroke-width: 0.8"/>
      </g>
     </g>
     <g id="text_20">
      <!-- −10 -->
      <g style="fill: #008000" transform="translate(24.835313 328.684678) scale(0.1 -0.1)">
       <use xlink:href="#DejaVuSans-2212"/>
       <use xlink:href="#DejaVuSans-31" x="83.789062"/>
       <use xlink:href="#DejaVuSans-30" x="147.412109"/>
      </g>
     </g>
    </g>
    <g id="text_21">
     <!-- Cost -->
     <g style="fill: #008000" transform="translate(18.755625 437.660625) rotate(-90) scale(0.1 -0.1)">
      <defs>
       <path id="DejaVuSans-73" d="M 2834 3397 
L 2834 2853 
Q 2591 2978 2328 3040 
Q 2066 3103 1784 3103 
Q 1356 3103 1142 2972 
Q 928 2841 928 2578 
Q 928 2378 1081 2264 
Q 1234 2150 1697 2047 
L 1894 2003 
Q 2506 1872 2764 1633 
Q 3022 1394 3022 966 
Q 3022 478 2636 193 
Q 2250 -91 1575 -91 
Q 1294 -91 989 -36 
Q 684 19 347 128 
L 347 722 
Q 666 556 975 473 
Q 1284 391 1588 391 
Q 1994 391 2212 530 
Q 2431 669 2431 922 
Q 2431 1156 2273 1281 
Q 2116 1406 1581 1522 
L 1381 1569 
Q 847 1681 609 1914 
Q 372 2147 372 2553 
Q 372 3047 722 3315 
Q 1072 3584 1716 3584 
Q 2034 3584 2315 3537 
Q 2597 3491 2834 3397 
z
" transform="scale(0.015625)"/>
      </defs>
      <use xlink:href="#DejaVuSans-43"/>
      <use xlink:href="#DejaVuSans-6f" x="69.824219"/>
      <use xlink:href="#DejaVuSans-73" x="131.005859"/>
      <use xlink:href="#DejaVuSans-74" x="183.105469"/>
     </g>
    </g>
   </g>
   <g id="line2d_25">
    <path d="M 81.091818 524.267727 
L 81.259073 508.86149 
L 81.48208 506.675153 
L 82.206852 497.44051 
L 82.708617 493.968709 
L 83.098879 492.518801 
L 83.433389 491.960642 
L 83.712148 491.891654 
L 83.990906 491.924281 
L 84.158161 491.025731 
L 84.492672 486.899521 
L 84.994437 481.91991 
L 85.44045 479.463375 
L 85.774961 478.56392 
L 86.053719 478.314772 
L 86.276726 478.392776 
L 86.555484 478.786805 
L 86.889994 479.224765 
L 87.168753 479.635676 
L 87.559015 480.663761 
L 88.116532 482.842426 
L 88.952807 487.166136 
L 89.956338 492.278768 
L 90.904116 497.024184 
L 92.186405 503.439763 
L 92.35366 503.823373 
L 92.799674 503.646499 
L 93.078433 503.85325 
L 93.468694 504.491395 
L 94.918238 507.361923 
L 95.085494 507.498846 
L 95.196997 507.279689 
L 95.587259 506.372917 
L 95.921769 506.105144 
L 96.200527 506.176189 
L 96.535038 506.553368 
L 97.427065 507.806532 
L 97.873078 508.147353 
L 98.486347 507.881592 
L 99.043864 508.33277 
L 99.880139 508.814911 
L 100.604911 509.071174 
L 101.329683 508.490198 
L 103.448248 509.202274 
L 104.061516 508.612398 
L 104.396027 508.753852 
L 105.343805 509.131479 
L 106.180081 509.317677 
L 106.904853 508.668959 
L 107.573873 508.981617 
L 108.633155 509.290895 
L 109.023417 509.295629 
L 109.636686 508.695134 
L 109.971196 508.832253 
L 110.918975 509.201893 
L 111.75525 509.383943 
L 112.480022 508.732889 
L 113.149043 509.04418 
L 114.208325 509.352179 
L 114.598587 509.356609 
L 114.71009 508.988315 
L 115.602117 503.822022 
L 115.992379 502.969975 
L 116.271137 502.767059 
L 116.549896 502.844425 
L 116.884406 503.246744 
L 117.441923 504.301205 
L 117.497675 504.188154 
L 118.389702 500.76537 
L 118.724212 500.469837 
L 119.002971 500.547636 
L 119.337481 500.962596 
L 119.783494 501.955283 
L 120.396763 503.378031 
L 120.842776 504.279324 
L 122.069314 507.123956 
L 122.794086 508.062959 
L 123.017093 508.137629 
L 123.295851 507.91479 
L 123.574609 507.96954 
L 125.637422 509.27009 
L 125.748926 509.238429 
L 126.362194 508.712898 
L 126.752456 508.913856 
L 127.644483 509.306612 
L 128.480759 509.517932 
L 129.205531 508.883355 
L 129.930303 509.227051 
L 130.989585 509.532853 
L 131.324095 509.527893 
L 131.435598 509.160135 
L 131.658605 507.006075 
L 132.383377 497.854292 
L 132.885142 494.422915 
L 133.275404 492.997509 
L 133.609914 492.456531 
L 133.888673 492.399625 
L 134.167431 492.442597 
L 134.334687 491.549564 
L 134.669197 487.432893 
L 135.170962 482.464261 
L 135.616975 480.01488 
L 135.951486 479.119556 
L 136.230244 478.873193 
L 136.453251 478.953061 
L 136.732009 479.349022 
L 136.955016 479.676462 
L 137.06652 479.363169 
L 137.289526 477.521081 
L 137.73554 473.796787 
L 138.125802 472.007747 
L 138.460312 471.33844 
L 138.683319 471.259099 
L 138.906325 471.430849 
L 139.240836 472.091248 
L 139.798353 473.605347 
L 139.854104 473.477642 
L 140.021359 472.465804 
L 140.523125 468.852452 
L 140.913386 467.506083 
L 141.192145 467.176603 
L 141.415152 467.230374 
L 141.69391 467.637012 
L 142.084172 468.735942 
L 142.585937 470.422141 
L 142.641689 470.330155 
L 142.808944 469.427505 
L 143.087703 466.097381 
L 143.589468 460.417138 
L 144.035481 457.710787 
L 144.369992 456.795505 
L 144.592998 456.618847 
L 144.816005 456.738859 
L 145.094764 457.249918 
L 145.31777 457.726235 
L 145.373522 457.679753 
L 145.540777 456.941412 
L 145.819536 453.922547 
L 146.321301 448.011448 
L 146.767314 445.237723 
L 147.101825 444.35037 
L 147.324831 444.222221 
L 147.547838 444.411072 
L 147.826597 445.03297 
L 148.161107 445.848581 
L 148.27261 445.563908 
L 148.495617 443.925839 
L 149.108886 438.301254 
L 149.499147 436.757292 
L 149.777906 436.433536 
L 149.945161 436.502373 
L 150.168168 436.862654 
L 150.502678 437.901409 
L 150.948691 439.645855 
L 151.004443 439.628561 
L 151.115947 439.315059 
L 151.338953 437.661612 
L 151.840719 433.634058 
L 152.175229 432.405205 
L 152.453987 432.100186 
L 152.621242 432.185164 
L 152.844249 432.571974 
L 153.178759 433.659939 
L 153.959283 437.366646 
L 154.572552 441.164189 
L 155.464579 448.305963 
L 159.311446 481.201795 
L 160.983997 492.721632 
L 162.154782 500.356364 
L 163.492823 505.614381 
L 164.161843 507.133729 
L 164.71936 508.008763 
L 164.830863 507.956171 
L 164.998119 507.034661 
L 165.276877 503.470606 
L 165.778642 497.765134 
L 166.280408 494.403777 
L 166.670669 493.022774 
L 167.00518 492.514282 
L 167.228186 492.462399 
L 167.618448 492.629618 
L 167.785703 491.776642 
L 168.064462 488.446835 
L 168.566227 483.258417 
L 169.012241 480.660448 
L 169.402502 479.579786 
L 169.681261 479.354143 
L 169.904268 479.447939 
L 170.183026 479.858447 
L 170.406033 480.195413 
L 170.62904 479.573477 
L 170.96355 478.984221 
L 171.186557 478.928446 
L 171.409563 479.103374 
L 171.744074 479.735705 
L 172.190087 481.141682 
L 172.859107 484.13818 
L 173.249369 485.774583 
L 173.639631 485.668025 
L 173.91839 485.964636 
L 174.308652 486.827622 
L 174.866168 488.763505 
L 175.646692 492.424777 
L 176.204209 494.805196 
L 176.928981 497.825899 
L 178.657284 505.500784 
L 179.047546 505.944317 
L 179.493559 506.783323 
L 180.162579 507.988216 
L 180.887351 508.840078 
L 181.50062 509.254208 
L 182.113889 508.913224 
L 182.559902 509.242223 
L 183.396178 509.720903 
L 184.232453 510.004239 
L 184.957225 509.410206 
L 187.07579 510.105975 
L 187.689058 509.514078 
L 188.023568 509.654707 
L 188.971347 510.030814 
L 189.807623 510.216223 
L 190.532395 509.56706 
L 191.201415 509.879459 
L 192.260697 510.188494 
L 192.650959 510.193169 
L 193.264228 509.592605 
L 193.598738 509.729696 
L 194.546517 510.099283 
L 195.382792 510.281305 
L 196.107564 509.630236 
L 196.776584 509.941518 
L 197.835867 510.249508 
L 198.226129 510.253937 
L 198.839397 509.653073 
L 199.173907 509.790041 
L 200.121686 510.159403 
L 200.957962 510.341308 
L 201.682734 509.690174 
L 202.351754 510.001416 
L 203.411036 510.309371 
L 203.801298 510.313791 
L 204.414567 509.712916 
L 204.749077 509.849881 
L 205.696856 510.219235 
L 206.533131 510.401136 
L 207.257903 509.749999 
L 207.926923 510.06124 
L 208.986206 510.369194 
L 209.376467 510.373613 
L 209.989736 509.772738 
L 210.324246 509.909703 
L 211.272025 510.279056 
L 212.1083 510.460957 
L 212.833072 509.809821 
L 213.502093 510.121062 
L 214.561375 510.429015 
L 214.951637 510.433435 
L 215.118892 509.877619 
L 215.509154 508.742181 
L 215.843664 508.30966 
L 216.122422 508.262424 
L 216.401181 508.453602 
L 217.627718 509.700593 
L 217.739222 509.706733 
L 217.906477 509.227091 
L 218.296739 508.246407 
L 218.631249 507.923604 
L 218.910007 507.954261 
L 219.244517 508.288593 
L 220.025041 509.270028 
L 220.526806 509.617511 
L 221.140075 509.303293 
L 221.64184 509.684365 
L 222.478116 510.1537 
L 223.258639 510.41714 
L 223.983411 509.825336 
L 226.101976 510.523723 
L 226.715244 509.932144 
L 227.049755 510.072902 
L 227.997533 510.449248 
L 228.833809 510.63478 
L 229.558581 509.985687 
L 230.227601 510.298126 
L 231.286883 510.607199 
L 231.677145 510.611884 
L 232.290414 510.01133 
L 232.624924 510.148426 
L 233.572703 510.518021 
L 234.408978 510.700048 
L 235.13375 510.048981 
L 235.802771 510.360264 
L 236.862053 510.668256 
L 237.252315 510.672685 
L 237.363818 510.304391 
L 237.921335 507.596358 
L 238.311597 506.68774 
L 238.646107 506.425546 
L 238.924866 506.505851 
L 239.259376 506.898683 
L 240.039899 508.339588 
L 240.095651 508.301747 
L 240.37441 507.143516 
L 240.764671 506.007915 
L 241.099182 505.593961 
L 241.37794 505.572884 
L 241.656699 505.798264 
L 242.04696 506.455469 
L 242.827484 508.113103 
L 242.883236 508.083202 
L 242.994739 507.643116 
L 243.217746 505.377613 
L 244.444283 488.750657 
L 244.890297 486.306012 
L 245.280559 485.291931 
L 245.726572 484.678485 
L 245.949579 482.712293 
L 246.339841 476.246315 
L 246.841606 469.592457 
L 247.28762 466.175711 
L 247.677882 464.656529 
L 247.95664 464.243244 
L 248.179647 464.249808 
L 248.904419 464.902545 
L 249.294681 466.002822 
L 249.796446 468.168561 
L 250.521218 472.351419 
L 254.479588 497.194864 
L 256.263643 505.861222 
L 256.765408 507.186088 
L 257.601683 508.174495 
L 258.270704 509.195806 
L 258.995476 509.917287 
L 259.552993 510.226829 
L 260.166261 509.842957 
L 260.612275 510.149686 
L 261.44855 510.601014 
L 262.284826 510.867664 
L 263.009598 510.264237 
L 263.901625 510.694009 
L 265.016659 510.994475 
L 265.128162 510.948138 
L 265.239665 510.581393 
L 265.462672 508.429237 
L 265.797182 502.170828 
L 266.298948 487.639085 
L 267.135223 455.587385 
L 268.083002 420.851091 
L 270.64758 345.023014 
L 271.483855 332.405172 
L 271.874117 329.752239 
L 272.152876 328.947061 
L 272.375882 328.834308 
L 272.543137 329.019346 
L 272.821896 329.780485 
L 273.212158 331.671224 
L 273.825426 334.912491 
L 274.104185 335.589678 
L 274.494447 337.3782 
L 274.996212 340.905962 
L 275.665232 347.314975 
L 277.951052 373.349801 
L 280.013864 399.375788 
L 281.51916 418.379559 
L 282.801449 433.853499 
L 285.14302 460.54026 
L 287.707598 484.281113 
L 290.439431 502.762691 
L 291.777472 507.48444 
L 292.446492 508.840377 
L 293.004009 509.555065 
L 293.227016 509.411386 
L 293.505775 509.426141 
L 293.840285 509.730224 
L 294.620808 510.451038 
L 295.512836 510.941546 
L 295.791594 510.981496 
L 296.404863 510.481736 
L 296.795125 510.694689 
L 297.687152 511.105395 
L 298.523427 511.326815 
L 298.63493 511.152701 
L 299.582709 507.401744 
L 299.917219 507.07383 
L 300.195978 507.108616 
L 300.530488 507.456215 
L 301.032253 508.436392 
L 301.366763 508.989432 
L 301.478267 508.78556 
L 302.035784 506.776398 
L 302.370294 506.285164 
L 302.649052 506.210396 
L 302.927811 506.390394 
L 303.318073 506.995905 
L 304.154348 508.769824 
L 304.2101 508.739965 
L 304.321603 508.299961 
L 304.54461 506.034612 
L 305.157879 498.934152 
L 305.659644 495.707002 
L 306.049906 494.406651 
L 306.384416 493.95423 
L 306.607423 493.934115 
L 306.997685 494.147753 
L 307.16494 493.311491 
L 307.443698 490.005437 
L 307.945463 484.849467 
L 308.391477 482.27186 
L 308.781739 481.20406 
L 309.060497 480.985342 
L 309.283504 481.083536 
L 309.562263 481.49831 
L 309.785269 481.837744 
L 309.952524 481.381635 
L 310.287035 480.682594 
L 310.510041 480.564398 
L 310.733048 480.684349 
L 311.011807 481.123965 
L 311.402069 482.190713 
L 311.959585 484.42189 
L 312.628606 487.407488 
L 312.684357 487.376353 
L 312.907364 487.266321 
L 313.130371 487.377982 
L 313.40913 487.78591 
L 313.799391 488.774888 
L 314.356908 490.841887 
L 315.193184 494.911459 
L 315.583446 496.403926 
L 316.308218 499.416559 
L 318.03652 507.045422 
L 318.37103 507.406172 
L 318.761292 508.066763 
L 319.541816 509.502955 
L 320.266588 510.348088 
L 320.879857 510.758404 
L 321.493125 510.414674 
L 321.939139 510.742246 
L 322.775414 511.219171 
L 323.61169 511.501436 
L 324.336462 510.9068 
L 326.455026 511.601808 
L 327.068295 511.009816 
L 327.402805 511.150406 
L 328.350584 511.526442 
L 329.186859 511.711814 
L 329.911631 511.06263 
L 330.580651 511.375016 
L 331.639934 511.68404 
L 332.030196 511.688713 
L 332.643464 511.088145 
L 332.977974 511.225235 
L 333.925753 511.594819 
L 334.762029 511.77684 
L 335.486801 511.125771 
L 336.155821 511.437052 
L 337.215103 511.745042 
L 337.605365 511.74947 
L 338.218634 511.148606 
L 338.553144 511.285575 
L 339.500923 511.654936 
L 340.337198 511.836842 
L 341.06197 511.185707 
L 341.73099 511.49695 
L 342.790273 511.804904 
L 343.180534 511.809324 
L 343.292038 511.441028 
L 343.849555 508.732986 
L 344.239817 507.824362 
L 344.574327 507.562165 
L 344.853085 507.642468 
L 345.187595 508.035296 
L 345.968119 509.476198 
L 346.023871 509.438357 
L 346.302629 508.280125 
L 346.692891 507.144523 
L 347.027401 506.730569 
L 347.30616 506.709492 
L 347.584918 506.934871 
L 347.97518 507.592076 
L 348.755704 509.249709 
L 348.811456 509.219808 
L 349.313221 508.362705 
L 349.591979 508.295049 
L 349.870738 508.474645 
L 350.261 509.068181 
L 350.985772 510.215798 
L 351.543289 510.731561 
L 351.654792 510.481276 
L 352.045054 509.477737 
L 352.379564 509.141186 
L 352.658323 509.163286 
L 352.992833 509.490266 
L 353.940611 510.720682 
L 354.330873 510.982464 
L 354.944142 510.690492 
L 355.445907 511.084263 
L 356.282183 511.567584 
L 357.062706 511.83912 
L 357.787478 511.25229 
L 359.906043 511.956964 
L 360.519311 511.366168 
L 360.853822 511.507245 
L 361.8016 511.884179 
L 362.637876 512.070017 
L 363.362648 511.421096 
L 364.031668 511.733636 
L 365.09095 512.042804 
L 365.481212 512.04751 
L 365.592716 511.679286 
L 365.815722 509.524348 
L 366.205984 502.371945 
L 366.763501 494.05572 
L 367.265266 489.62064 
L 367.71128 487.47617 
L 368.04579 486.729727 
L 368.324549 486.370486 
L 368.491804 485.304421 
L 368.770562 481.569482 
L 369.439583 471.353631 
L 369.885596 467.616006 
L 370.275858 465.880467 
L 370.610368 465.294667 
L 370.833375 465.286688 
L 371.112133 465.456501 
L 371.223637 465.091963 
L 371.446644 463.211413 
L 372.282919 454.080731 
L 372.673181 452.300355 
L 372.951939 451.790296 
L 373.174946 451.76413 
L 373.397953 452.031618 
L 373.732463 452.904106 
L 373.95547 453.33825 
L 374.066973 453.028063 
L 374.28998 451.314916 
L 374.903249 445.426889 
L 375.293511 443.725427 
L 375.572269 443.293705 
L 375.739524 443.29931 
L 375.962531 443.576855 
L 376.297041 444.494402 
L 376.743055 446.076516 
L 376.798806 446.035618 
L 376.966061 445.354422 
L 377.802337 439.942022 
L 378.081095 439.488003 
L 378.24835 439.487647 
L 378.471357 439.764808 
L 378.805867 440.695917 
L 379.251881 442.724975 
L 379.586391 443.97281 
L 379.697894 443.721214 
L 379.920901 442.207072 
L 380.311163 439.63789 
L 380.645673 438.614595 
L 380.86868 438.430419 
L 381.035935 438.518202 
L 381.258942 438.901791 
L 381.593452 439.971874 
L 382.095217 442.477985 
L 382.373976 443.498408 
L 382.485479 443.276805 
L 382.764238 441.589268 
L 383.154499 440.007708 
L 383.433258 439.659447 
L 383.600513 439.714373 
L 383.82352 440.056911 
L 384.15803 441.070547 
L 384.659795 443.501441 
L 385.16156 446.01279 
L 385.273064 445.829435 
L 385.551822 444.208198 
L 385.942084 442.685181 
L 386.220843 442.361342 
L 386.388098 442.425096 
L 386.611105 442.773457 
L 386.945615 443.7847 
L 387.44738 446.191268 
L 388.060649 449.181557 
L 388.562414 451.474383 
L 389.231434 455.712364 
L 390.290716 464.093371 
L 390.792482 467.579962 
L 391.461502 471.3 
L 392.520784 478.629023 
L 393.524315 485.456978 
L 393.914577 485.370968 
L 394.193335 485.691655 
L 394.583597 486.598826 
L 395.141114 488.614297 
L 395.921638 492.409395 
L 396.256148 493.799216 
L 396.423403 493.414424 
L 396.757913 492.785259 
L 397.036671 492.677903 
L 397.259678 492.82303 
L 397.594188 493.366164 
L 398.040202 494.585105 
L 398.709222 497.191951 
L 399.043732 498.27497 
L 399.155236 497.914023 
L 399.93576 493.536738 
L 400.27027 492.823842 
L 400.549028 492.658515 
L 400.772035 492.763894 
L 401.050793 493.149582 
L 401.441055 494.084912 
L 401.775565 494.982889 
L 401.831317 494.923811 
L 401.998572 494.050337 
L 402.556089 490.260075 
L 402.946351 488.958559 
L 403.22511 488.573498 
L 403.448116 488.539198 
L 403.671123 488.715478 
L 404.005633 489.317445 
L 405.287922 492.701235 
L 405.956943 495.428633 
L 406.960473 500.586191 
L 407.573742 503.390994 
L 409.190541 509.051118 
L 409.859561 510.308394 
L 410.13832 510.559858 
L 410.361326 510.439533 
L 410.640085 510.537841 
L 411.14185 511.101016 
L 411.866622 511.737276 
L 412.758649 512.214754 
L 412.870153 512.191815 
L 413.483421 511.706617 
L 413.873683 511.926338 
L 414.76571 512.347147 
L 415.601986 512.574232 
L 416.326758 511.948531 
L 417.05153 512.297767 
L 418.110812 512.608276 
L 418.445322 512.604285 
L 419.058591 512.007409 
L 419.393101 512.146005 
L 420.34088 512.518367 
L 421.177155 512.70183 
L 421.901927 512.051573 
L 422.570948 512.363329 
L 423.63023 512.671764 
L 424.020492 512.676298 
L 424.63376 512.075561 
L 424.96827 512.212582 
L 425.916049 512.58204 
L 426.752325 512.763995 
L 427.477097 512.112888 
L 428.146117 512.424148 
L 429.205399 512.732117 
L 429.595661 512.736541 
L 430.20893 512.135671 
L 430.54344 512.272637 
L 431.491219 512.641994 
L 432.327494 512.823898 
L 433.052266 512.172761 
L 433.721286 512.484003 
L 434.780569 512.791957 
L 435.170831 512.796377 
L 435.784099 512.195502 
L 436.118609 512.332466 
L 437.066388 512.70182 
L 437.902664 512.883722 
L 438.627436 512.232584 
L 439.296456 512.543826 
L 440.355738 512.851779 
L 440.746 512.856199 
L 441.359269 512.255324 
L 441.693779 512.392288 
L 442.641558 512.761642 
L 443.477833 512.943548 
L 443.589336 512.765477 
L 444.146853 511.091067 
L 444.481364 510.731839 
L 444.760122 510.735531 
L 445.03888 510.969754 
L 445.930908 511.946676 
L 446.321169 512.159408 
L 446.488425 511.679765 
L 446.878686 510.699081 
L 447.213197 510.376278 
L 447.491955 510.406936 
L 447.826465 510.741267 
L 448.606989 511.722703 
L 449.108754 512.070186 
L 449.722023 511.755967 
L 450.223788 512.137039 
L 451.060063 512.606374 
L 451.840587 512.869815 
L 452.565359 512.278011 
L 454.683924 512.976398 
L 455.297192 512.384819 
L 455.631702 512.525577 
L 456.579481 512.901923 
L 457.415757 513.087455 
L 458.140529 512.438362 
L 458.809549 512.750801 
L 459.868831 513.059874 
L 460.259093 513.064559 
L 460.370596 512.696329 
L 460.928113 509.988569 
L 461.318375 509.0801 
L 461.652885 508.818012 
L 461.931644 508.898392 
L 462.266154 509.2913 
L 463.046678 510.732306 
L 463.102429 510.694469 
L 463.381188 509.536258 
L 463.77145 508.400681 
L 464.10596 507.986744 
L 464.384718 507.965679 
L 464.663477 508.191069 
L 465.053739 508.848287 
L 465.834263 510.505935 
L 465.890014 510.476035 
L 466.001518 510.035949 
L 466.224524 507.814423 
L 466.72629 502.743651 
L 467.172303 500.059446 
L 467.562565 498.794263 
L 467.897075 498.350113 
L 468.120082 498.326268 
L 468.39884 498.555695 
L 468.677599 498.82942 
L 468.789102 498.421206 
L 469.012109 496.321802 
L 469.513874 491.616017 
L 469.959888 489.285221 
L 470.35015 488.343698 
L 470.628908 488.174407 
L 470.851915 488.291678 
L 471.130674 488.708336 
L 471.465184 489.345281 
L 471.632439 488.905443 
L 471.966949 488.207 
L 472.245707 488.07429 
L 472.468714 488.217068 
L 472.803224 488.78204 
L 473.249238 490.06903 
L 473.862507 492.579574 
L 474.30852 494.321471 
L 474.698782 494.025884 
L 474.921789 494.132452 
L 475.256299 494.624332 
L 475.702312 495.785345 
L 476.315581 498.083025 
L 477.59787 503.130448 
L 479.549179 510.062937 
L 479.827938 510.469497 
L 480.050945 510.45841 
L 480.329703 510.67705 
L 481.946502 512.496736 
L 482.559771 512.780573 
L 482.671274 512.446637 
L 482.894281 510.356152 
L 483.897812 497.582279 
L 484.343825 494.918428 
L 484.734087 493.709268 
L 485.012845 493.360294 
L 485.235852 493.339882 
L 485.347356 493.340723 
L 485.458859 493.057468 
L 485.626114 491.794893 
L 486.127879 484.896389 
L 486.629645 480.242492 
L 487.075658 478.058014 
L 487.410168 477.353363 
L 487.633175 477.247498 
L 487.856182 477.390738 
L 488.748209 478.669201 
L 489.194223 480.127225 
L 489.807491 482.958952 
L 490.75527 488.527853 
L 491.257035 491.051605 
L 492.204814 496.086116 
L 493.821613 505.225517 
L 493.877365 505.130669 
L 494.04462 504.172129 
L 494.490634 501.484751 
L 494.880895 500.209101 
L 495.215406 499.751001 
L 495.494164 499.736838 
L 495.772923 500.002341 
L 496.163184 500.76184 
L 496.553446 501.68033 
L 496.609198 501.597083 
L 496.776453 500.639721 
L 497.33397 496.542331 
L 497.724232 495.034473 
L 498.058742 494.448036 
L 498.3375 494.367818 
L 498.616259 494.598522 
L 498.950769 495.218189 
L 499.619789 496.55591 
L 500.065803 497.65116 
L 500.679072 499.85801 
L 501.571099 503.994553 
L 502.240119 506.851444 
L 502.909139 508.860737 
L 503.57816 510.528 
L 504.24718 511.633367 
L 504.804697 512.269732 
L 504.9162 512.176847 
L 505.083456 511.199028 
L 505.362214 507.365283 
L 505.752476 498.228461 
L 507.20202 459.286759 
L 508.372805 441.054346 
L 509.933853 405.059174 
L 510.324115 401.840181 
L 510.658625 399.535027 
L 511.327645 393.76124 
L 511.662155 392.770856 
L 511.829411 392.675705 
L 511.996666 392.813285 
L 512.219672 393.3211 
L 512.554183 394.687261 
L 513.055948 397.849115 
L 513.44621 400.035598 
L 513.557713 400.037029 
L 513.836472 399.823734 
L 514.003727 399.985864 
L 514.282485 400.699009 
L 514.672747 402.488978 
L 515.230264 406.31261 
L 516.568305 416.239909 
L 517.125822 419.860832 
L 517.906345 426.597397 
L 519.132883 437.471406 
L 519.634648 439.981518 
L 520.303668 444.617709 
L 521.307199 453.284371 
L 522.310729 461.622759 
L 524.206287 478.509844 
L 524.819555 483.064048 
L 527.328382 500.631254 
L 527.384133 500.515578 
L 527.551388 499.471495 
L 527.830147 495.698024 
L 528.331912 489.036201 
L 528.833677 485.13466 
L 529.223939 483.544796 
L 529.558449 482.970872 
L 529.781456 482.923317 
L 530.004463 482.912477 
L 530.171718 482.057716 
L 530.450477 478.673931 
L 531.286752 466.379165 
L 531.732766 463.216315 
L 532.123027 461.910188 
L 532.401786 461.644542 
L 532.624793 461.766801 
L 532.847799 461.8827 
L 533.070806 462.057439 
L 533.349565 462.623433 
L 533.739827 463.958952 
L 534.297343 466.720855 
L 535.133619 472.142339 
L 536.137149 478.546039 
L 537.363687 487.019934 
L 538.701727 496.036349 
L 541.09905 508.712662 
L 543.05036 512.267098 
L 543.775132 512.979564 
L 543.886635 512.997721 
L 544.499904 512.70257 
L 545.001669 513.098575 
L 545.837944 513.588684 
L 546.618468 513.864748 
L 547.34324 513.280813 
L 549.461804 513.989346 
L 549.573308 513.623236 
L 549.796315 511.472272 
L 550.799845 498.49718 
L 551.245859 495.77459 
L 551.63612 494.524703 
L 551.970631 494.121906 
L 552.305141 494.021535 
L 552.472396 493.074413 
L 552.751154 489.501927 
L 553.25292 483.213698 
L 553.698933 479.937322 
L 554.089195 478.436003 
L 554.367954 477.988587 
L 554.59096 477.944557 
L 554.813967 478.141974 
L 555.315732 478.696649 
L 555.650243 479.341874 
L 556.096256 480.797708 
L 556.709525 483.627895 
L 557.657304 489.196779 
L 558.159069 491.721411 
L 559.106848 496.758505 
L 560.723647 505.910581 
L 560.779398 505.816906 
L 561.671426 502.712323 
L 561.950184 502.526382 
L 562.173191 502.594343 
L 562.451949 502.91095 
L 562.842211 503.714865 
L 563.45548 505.422459 
L 563.511231 505.357271 
L 563.678487 504.482996 
L 564.1245 501.985844 
L 564.514762 500.840606 
L 564.849272 500.472843 
L 565.072279 500.48862 
L 565.351037 500.756698 
L 565.741299 501.519107 
L 567.581105 506.450911 
L 568.696139 510.371995 
L 569.030649 511.000596 
L 569.253656 511.047411 
L 569.588166 511.410245 
L 570.647448 512.901273 
L 571.427972 513.533735 
L 571.762482 513.659586 
L 572.375751 513.249615 
L 572.821764 513.542731 
L 573.65804 513.977245 
L 574.494315 514.233626 
L 575.219087 513.624416 
L 576.055363 514.028771 
L 577.170397 514.337 
L 577.337652 514.301005 
L 577.95092 513.706722 
L 578.285431 513.846376 
L 579.233209 514.220689 
L 580.069485 514.405165 
L 580.794257 513.755477 
L 581.463277 514.067568 
L 582.522559 514.376315 
L 582.912821 514.380923 
L 583.52609 513.780276 
L 583.8606 513.917333 
L 584.808379 514.286858 
L 585.644654 514.468848 
L 586.369426 513.817762 
L 587.038447 514.129032 
L 588.097729 514.437013 
L 588.487991 514.441439 
L 588.599494 514.073144 
L 588.822501 511.918074 
L 589.435769 504.992993 
L 589.937535 501.825909 
L 590.327797 500.534949 
L 590.662307 500.070539 
L 590.885313 500.034001 
L 591.164072 500.248372 
L 591.275575 500.338749 
L 591.331327 500.296486 
L 591.498582 499.454953 
L 592.557864 490.655646 
L 592.948126 489.526936 
L 593.226885 489.24916 
L 593.449891 489.292436 
L 593.72865 489.630469 
L 594.118912 490.349401 
L 594.174663 490.256101 
L 594.620677 489.193594 
L 594.899435 489.054966 
L 595.122442 489.194596 
L 595.456952 489.757101 
L 595.902966 491.044285 
L 596.516235 493.560094 
L 596.962248 495.308904 
L 597.35251 495.022296 
L 597.575517 495.134234 
L 597.910027 495.634399 
L 598.356041 496.80677 
L 598.969309 499.120393 
L 600.251598 504.201934 
L 601.199377 508.214542 
L 601.868397 510.455994 
L 602.425914 511.662938 
L 602.704673 511.695559 
L 602.983431 511.927185 
L 604.544479 513.748408 
L 605.157747 514.118588 
L 605.436506 513.787023 
L 605.715264 513.637721 
L 605.994023 513.737282 
L 606.997553 514.311382 
L 607.945332 514.604213 
L 608.670104 513.990778 
L 609.450628 514.370349 
L 610.50991 514.676245 
L 610.788668 514.662031 
L 610.900172 514.294961 
L 611.17893 511.791204 
L 611.680696 508.148602 
L 612.126709 506.365173 
L 612.461219 505.727596 
L 612.739978 505.568606 
L 613.018736 505.693297 
L 613.353246 506.155978 
L 613.632005 506.553479 
L 613.743508 506.173945 
L 614.579784 501.366383 
L 614.970046 500.557009 
L 615.248804 500.415759 
L 615.527562 500.576046 
L 615.862073 501.101068 
L 617.367368 504.534222 
L 618.09214 507.282207 
L 618.928416 510.389084 
L 619.207174 510.982944 
L 619.430181 511.103351 
L 619.764691 511.562162 
L 620.768222 513.172523 
L 621.492994 513.863007 
L 621.939007 514.093737 
L 622.106262 513.606337 
L 622.496524 512.610063 
L 622.831034 512.276369 
L 623.109793 512.299407 
L 623.444303 512.626077 
L 624.280579 513.659164 
L 624.726592 513.953908 
L 624.893847 513.485763 
L 625.284109 512.528482 
L 625.618619 512.222309 
L 625.897378 512.264799 
L 626.231888 512.611263 
L 627.012412 513.609319 
L 627.514177 513.963875 
L 628.127445 513.656129 
L 628.629211 514.040897 
L 629.465486 514.514304 
L 630.24601 514.7801 
L 630.970782 514.189744 
L 633.089346 514.889961 
L 633.20085 514.523635 
L 633.423856 512.416118 
L 633.925622 507.513076 
L 634.371635 504.908271 
L 634.761897 503.672112 
L 635.096407 503.229275 
L 635.375166 503.217122 
L 635.653924 503.476485 
L 635.932683 503.761581 
L 636.044186 503.349568 
L 636.378696 500.329959 
L 636.880462 497.021403 
L 637.270723 495.691926 
L 637.605234 495.232971 
L 637.82824 495.216284 
L 638.106999 495.470836 
L 638.497261 496.256802 
L 638.831771 496.839003 
L 639.166281 497.413786 
L 639.668046 498.840833 
L 640.337067 501.506136 
L 642.288376 509.797162 
L 642.957396 511.651075 
L 643.626417 512.879706 
L 644.128182 513.525211 
L 644.128182 513.525211 
" clip-path="url(#p25a13a93de)" style="fill: none; stroke: #008000; stroke-width: 1.5; stroke-linecap: square"/>
   </g>
   <g id="patch_8">
    <path d="M 52.94 534.04 
L 52.94 319.05 
" style="fill: none; stroke: #000000; stroke-width: 0.8; stroke-linejoin: miter; stroke-linecap: square"/>
   </g>
   <g id="patch_9">
    <path d="M 672.28 534.04 
L 672.28 319.05 
" style="fill: none; stroke: #000000; stroke-width: 0.8; stroke-linejoin: miter; stroke-linecap: square"/>
   </g>
   <g id="patch_10">
    <path d="M 52.94 534.04 
L 672.28 534.04 
" style="fill: none; stroke: #000000; stroke-width: 0.8; stroke-linejoin: miter; stroke-linecap: square"/>
   </g>
   <g id="patch_11">
    <path d="M 52.94 319.05 
L 672.28 319.05 
" style="fill: none; stroke: #000000; stroke-width: 0.8; stroke-linejoin: miter; stroke-linecap: square"/>
   </g>
   <g id="text_22">
    <!-- Cost Over Time -->
    <g transform="translate(316.344375 313.05) scale(0.12 -0.12)">
     <defs>
      <path id="DejaVuSans-76" d="M 191 3500 
L 800 3500 
L 1894 563 
L 2988 3500 
L 3597 3500 
L 2284 0 
L 1503 0 
L 191 3500 
z
" transform="scale(0.015625)"/>
      <path id="DejaVuSans-72" d="M 2631 2963 
Q 2534 3019 2420 3045 
Q 2306 3072 2169 3072 
Q 1681 3072 1420 2755 
Q 1159 2438 1159 1844 
L 1159 0 
L 581 0 
L 581 3500 
L 1159 3500 
L 1159 2956 
Q 1341 3275 1631 3429 
Q 1922 3584 2338 3584 
Q 2397 3584 2469 3576 
Q 2541 3569 2628 3553 
L 2631 2963 
z
" transform="scale(0.015625)"/>
     </defs>
     <use xlink:href="#DejaVuSans-43"/>
     <use xlink:href="#DejaVuSans-6f" x="69.824219"/>
     <use xlink:href="#DejaVuSans-73" x="131.005859"/>
     <use xlink:href="#DejaVuSans-74" x="183.105469"/>
     <use xlink:href="#DejaVuSans-20" x="222.314453"/>
     <use xlink:href="#DejaVuSans-4f" x="254.101562"/>
     <use xlink:href="#DejaVuSans-76" x="332.8125"/>
     <use xlink:href="#DejaVuSans-65" x="391.992188"/>
     <use xlink:href="#DejaVuSans-72" x="453.515625"/>
     <use xlink:href="#DejaVuSans-20" x="494.628906"/>
     <use xlink:href="#DejaVuSans-54" x="526.416016"/>
     <use xlink:href="#DejaVuSans-69" x="584.375"/>
     <use xlink:href="#DejaVuSans-6d" x="612.158203"/>
     <use xlink:href="#DejaVuSans-65" x="709.570312"/>
    </g>
   </g>
  </g>
  <g id="axes_3">
   <g id="matplotlib.axis_5">
    <g id="ytick_12">
     <g id="line2d_26">
      <defs>
       <path id="mae25012649" d="M 0 0 
L 3.5 0 
" style="stroke: #4682b4; stroke-width: 0.8"/>
      </defs>
      <g>
       <use xlink:href="#mae25012649" x="672.28" y="278.897727" style="fill: #4682b4; stroke: #4682b4; stroke-width: 0.8"/>
      </g>
     </g>
     <g id="text_23">
      <!-- 0.0 -->
      <g style="fill: #4682b4" transform="translate(679.28 282.696946) scale(0.1 -0.1)">
       <use xlink:href="#DejaVuSans-30"/>
       <use xlink:href="#DejaVuSans-2e" x="63.623047"/>
       <use xlink:href="#DejaVuSans-30" x="95.410156"/>
      </g>
     </g>
    </g>
    <g id="ytick_13">
     <g id="line2d_27">
      <g>
       <use xlink:href="#mae25012649" x="672.28" y="232.428259" style="fill: #4682b4; stroke: #4682b4; stroke-width: 0.8"/>
      </g>
     </g>
     <g id="text_24">
      <!-- 0.2 -->
      <g style="fill: #4682b4" transform="translate(679.28 236.227478) scale(0.1 -0.1)">
       <use xlink:href="#DejaVuSans-30"/>
       <use xlink:href="#DejaVuSans-2e" x="63.623047"/>
       <use xlink:href="#DejaVuSans-32" x="95.410156"/>
      </g>
     </g>
    </g>
    <g id="ytick_14">
     <g id="line2d_28">
      <g>
       <use xlink:href="#mae25012649" x="672.28" y="185.958791" style="fill: #4682b4; stroke: #4682b4; stroke-width: 0.8"/>
      </g>
     </g>
     <g id="text_25">
      <!-- 0.4 -->
      <g style="fill: #4682b4" transform="translate(679.28 189.75801) scale(0.1 -0.1)">
       <use xlink:href="#DejaVuSans-30"/>
       <use xlink:href="#DejaVuSans-2e" x="63.623047"/>
       <use xlink:href="#DejaVuSans-34" x="95.410156"/>
      </g>
     </g>
    </g>
    <g id="ytick_15">
     <g id="line2d_29">
      <g>
       <use xlink:href="#mae25012649" x="672.28" y="139.489323" style="fill: #4682b4; stroke: #4682b4; stroke-width: 0.8"/>
      </g>
     </g>
     <g id="text_26">
      <!-- 0.6 -->
      <g style="fill: #4682b4" transform="translate(679.28 143.288542) scale(0.1 -0.1)">
       <use xlink:href="#DejaVuSans-30"/>
       <use xlink:href="#DejaVuSans-2e" x="63.623047"/>
       <use xlink:href="#DejaVuSans-36" x="95.410156"/>
      </g>
     </g>
    </g>
    <g id="ytick_16">
     <g id="line2d_30">
      <g>
       <use xlink:href="#mae25012649" x="672.28" y="93.019855" style="fill: #4682b4; stroke: #4682b4; stroke-width: 0.8"/>
      </g>
     </g>
     <g id="text_27">
      <!-- 0.8 -->
      <g style="fill: #4682b4" transform="translate(679.28 96.819074) scale(0.1 -0.1)">
       <use xlink:href="#DejaVuSans-30"/>
       <use xlink:href="#DejaVuSans-2e" x="63.623047"/>
       <use xlink:href="#DejaVuSans-38" x="95.410156"/>
      </g>
     </g>
    </g>
    <g id="text_28">
     <!-- Duty Cycle -->
     <g style="fill: #4682b4" transform="translate(706.781563 208.367969) rotate(-90) scale(0.1 -0.1)">
      <use xlink:href="#DejaVuSans-44"/>
      <use xlink:href="#DejaVuSans-75" x="77.001953"/>
      <use xlink:href="#DejaVuSans-74" x="140.380859"/>
      <use xlink:href="#DejaVuSans-79" x="179.589844"/>
      <use xlink:href="#DejaVuSans-20" x="238.769531"/>
      <use xlink:href="#DejaVuSans-43" x="270.556641"/>
      <use xlink:href="#DejaVuSans-79" x="340.380859"/>
      <use xlink:href="#DejaVuSans-63" x="399.560547"/>
      <use xlink:href="#DejaVuSans-6c" x="454.541016"/>
      <use xlink:href="#DejaVuSans-65" x="482.324219"/>
     </g>
    </g>
   </g>
   <g id="line2d_31">
    <path d="M 81.091818 245.654675 
L 86.611236 245.654675 
L 86.722739 278.897727 
L 92.186405 278.897727 
L 92.297909 273.684434 
L 97.761575 273.684434 
L 97.873078 278.897727 
L 114.487083 278.897727 
L 114.598587 263.942242 
L 120.062253 263.942242 
L 120.173756 278.897727 
L 131.212592 278.897727 
L 131.324095 244.916559 
L 136.787761 244.916559 
L 136.899264 248.834401 
L 142.362931 248.834401 
L 142.474434 229.144815 
L 147.9381 229.144815 
L 148.049603 235.705294 
L 153.513269 235.705294 
L 153.624773 278.897727 
L 164.663608 278.897727 
L 164.775112 243.322823 
L 170.238778 243.322823 
L 170.350281 268.644965 
L 175.813947 268.644965 
L 175.925451 278.897727 
L 181.389117 278.897727 
L 181.50062 275.064869 
L 186.964286 275.064869 
L 187.07579 278.897727 
L 214.840133 278.897727 
L 214.951637 272.284588 
L 220.415303 272.284588 
L 220.526806 278.897727 
L 237.140811 278.897727 
L 237.252315 265.535876 
L 242.715981 265.535876 
L 242.827484 228.915653 
L 248.29115 228.915653 
L 248.402654 278.897727 
L 265.016659 278.897727 
L 265.128162 83.452273 
L 270.591828 83.452273 
L 270.703331 249.292887 
L 276.166998 249.292887 
L 276.278501 265.526242 
L 281.742167 265.526242 
L 281.85367 278.897727 
L 298.467675 278.897727 
L 298.579179 266.490073 
L 304.042845 266.490073 
L 304.154348 243.397206 
L 309.618014 243.397206 
L 309.729518 265.927391 
L 315.193184 265.927391 
L 315.304687 278.897727 
L 343.069031 278.897727 
L 343.180534 269.1885 
L 348.644201 269.1885 
L 348.755704 272.48046 
L 354.21937 272.48046 
L 354.330873 278.897727 
L 365.369709 278.897727 
L 365.481212 229.963379 
L 370.944878 229.963379 
L 371.056382 234.452648 
L 376.520048 234.452648 
L 376.631551 238.201777 
L 382.095217 238.201777 
L 382.206721 242.193612 
L 387.670387 242.193612 
L 387.78189 273.915252 
L 393.245556 273.915252 
L 393.35706 263.178481 
L 398.820726 263.178481 
L 398.932229 252.594471 
L 404.395895 252.594471 
L 404.507398 278.897727 
L 426.696573 278.897727 
L 426.808076 278.146391 
L 432.271742 278.146391 
L 432.383246 275.289956 
L 437.846912 275.289956 
L 437.958415 278.897727 
L 443.422081 278.897727 
L 443.533585 270.119595 
L 448.997251 270.119595 
L 449.108754 278.897727 
L 460.14759 278.897727 
L 460.259093 265.071875 
L 465.722759 265.071875 
L 465.834263 246.749561 
L 471.297929 246.749561 
L 471.409432 266.364125 
L 476.873098 266.364125 
L 476.984601 278.897727 
L 482.448268 278.897727 
L 482.559771 237.554735 
L 488.023437 237.554735 
L 488.13494 278.897727 
L 493.598606 278.897727 
L 493.71011 254.530174 
L 499.173776 254.530174 
L 499.285279 278.897727 
L 504.748945 278.897727 
L 504.860449 163.105236 
L 510.324115 163.105236 
L 510.435618 249.598344 
L 515.899284 249.598344 
L 516.010788 262.698268 
L 521.474454 262.698268 
L 521.585957 278.897727 
L 527.049623 278.897727 
L 527.161127 226.079642 
L 532.624793 226.079642 
L 532.736296 278.897727 
L 538.199962 278.897727 
L 538.311465 278.123212 
L 543.775132 278.123212 
L 543.886635 278.897727 
L 549.350301 278.897727 
L 549.461804 239.359199 
L 554.92547 239.359199 
L 555.036974 278.897727 
L 560.50064 278.897727 
L 560.612143 260.078982 
L 566.075809 260.078982 
L 566.187313 278.897727 
L 571.650979 278.897727 
L 571.762482 274.657427 
L 577.226148 274.657427 
L 577.337652 278.897727 
L 588.376487 278.897727 
L 588.487991 250.263844 
L 593.951657 250.263844 
L 594.06316 265.298677 
L 599.526826 265.298677 
L 599.63833 278.897727 
L 605.101996 278.897727 
L 605.213499 277.224768 
L 610.677165 277.224768 
L 610.788668 257.124134 
L 616.252335 257.124134 
L 616.363838 278.897727 
L 621.827504 278.897727 
L 621.939007 269.635744 
L 627.402673 269.635744 
L 627.514177 278.897727 
L 632.977843 278.897727 
L 633.089346 254.778147 
L 638.553012 254.778147 
L 638.664516 278.897727 
L 644.128182 278.897727 
L 644.128182 278.897727 
" clip-path="url(#p8db377f0f6)" style="fill: none; stroke: #4682b4; stroke-width: 1.5; stroke-linecap: square"/>
   </g>
   <g id="patch_12">
    <path d="M 52.94 288.67 
L 52.94 73.68 
" style="fill: none; stroke: #000000; stroke-width: 0.8; stroke-linejoin: miter; stroke-linecap: square"/>
   </g>
   <g id="patch_13">
    <path d="M 672.28 288.67 
L 672.28 73.68 
" style="fill: none; stroke: #4682b4; stroke-width: 0.8; stroke-linejoin: miter; stroke-linecap: square"/>
   </g>
   <g id="patch_14">
    <path d="M 52.94 288.67 
L 672.28 288.67 
" style="fill: none; stroke: #000000; stroke-width: 0.8; stroke-linejoin: miter; stroke-linecap: square"/>
   </g>
   <g id="patch_15">
    <path d="M 52.94 73.68 
L 672.28 73.68 
" style="fill: none; stroke: #000000; stroke-width: 0.8; stroke-linejoin: miter; stroke-linecap: square"/>
   </g>
  </g>
  <g id="text_29">
   <!-- Episode 35 - Total Reward: -5300.88 -->
   <g transform="translate(251.745938 20.638125) scale(0.12 -0.12)">
    <defs>
     <path id="DejaVuSans-45" d="M 628 4666 
L 3578 4666 
L 3578 4134 
L 1259 4134 
L 1259 2753 
L 3481 2753 
L 3481 2222 
L 1259 2222 
L 1259 531 
L 3634 531 
L 3634 0 
L 628 0 
L 628 4666 
z
" transform="scale(0.015625)"/>
     <path id="DejaVuSans-2d" d="M 313 2009 
L 1997 2009 
L 1997 1497 
L 313 1497 
L 313 2009 
z
" transform="scale(0.015625)"/>
     <path id="DejaVuSans-52" d="M 2841 2188 
Q 3044 2119 3236 1894 
Q 3428 1669 3622 1275 
L 4263 0 
L 3584 0 
L 2988 1197 
Q 2756 1666 2539 1819 
Q 2322 1972 1947 1972 
L 1259 1972 
L 1259 0 
L 628 0 
L 628 4666 
L 2053 4666 
Q 2853 4666 3247 4331 
Q 3641 3997 3641 3322 
Q 3641 2881 3436 2590 
Q 3231 2300 2841 2188 
z
M 1259 4147 
L 1259 2491 
L 2053 2491 
Q 2509 2491 2742 2702 
Q 2975 2913 2975 3322 
Q 2975 3731 2742 3939 
Q 2509 4147 2053 4147 
L 1259 4147 
z
" transform="scale(0.015625)"/>
     <path id="DejaVuSans-77" d="M 269 3500 
L 844 3500 
L 1563 769 
L 2278 3500 
L 2956 3500 
L 3675 769 
L 4391 3500 
L 4966 3500 
L 4050 0 
L 3372 0 
L 2619 2869 
L 1863 0 
L 1184 0 
L 269 3500 
z
" transform="scale(0.015625)"/>
     <path id="DejaVuSans-3a" d="M 750 794 
L 1409 794 
L 1409 0 
L 750 0 
L 750 794 
z
M 750 3309 
L 1409 3309 
L 1409 2516 
L 750 2516 
L 750 3309 
z
" transform="scale(0.015625)"/>
    </defs>
    <use xlink:href="#DejaVuSans-45"/>
    <use xlink:href="#DejaVuSans-70" x="63.183594"/>
    <use xlink:href="#DejaVuSans-69" x="126.660156"/>
    <use xlink:href="#DejaVuSans-73" x="154.443359"/>
    <use xlink:href="#DejaVuSans-6f" x="206.542969"/>
    <use xlink:href="#DejaVuSans-64" x="267.724609"/>
    <use xlink:href="#DejaVuSans-65" x="331.201172"/>
    <use xlink:href="#DejaVuSans-20" x="392.724609"/>
    <use xlink:href="#DejaVuSans-33" x="424.511719"/>
    <use xlink:href="#DejaVuSans-35" x="488.134766"/>
    <use xlink:href="#DejaVuSans-20" x="551.757812"/>
    <use xlink:href="#DejaVuSans-2d" x="583.544922"/>
    <use xlink:href="#DejaVuSans-20" x="619.628906"/>
    <use xlink:href="#DejaVuSans-54" x="651.416016"/>
    <use xlink:href="#DejaVuSans-6f" x="695.5"/>
    <use xlink:href="#DejaVuSans-74" x="756.681641"/>
    <use xlink:href="#DejaVuSans-61" x="795.890625"/>
    <use xlink:href="#DejaVuSans-6c" x="857.169922"/>
    <use xlink:href="#DejaVuSans-20" x="884.953125"/>
    <use xlink:href="#DejaVuSans-52" x="916.740234"/>
    <use xlink:href="#DejaVuSans-65" x="981.722656"/>
    <use xlink:href="#DejaVuSans-77" x="1043.246094"/>
    <use xlink:href="#DejaVuSans-61" x="1125.033203"/>
    <use xlink:href="#DejaVuSans-72" x="1186.3125"/>
    <use xlink:href="#DejaVuSans-64" x="1225.675781"/>
    <use xlink:href="#DejaVuSans-3a" x="1289.152344"/>
    <use xlink:href="#DejaVuSans-20" x="1322.84375"/>
    <use xlink:href="#DejaVuSans-2d" x="1354.630859"/>
    <use xlink:href="#DejaVuSans-35" x="1390.714844"/>
    <use xlink:href="#DejaVuSans-33" x="1454.337891"/>
    <use xlink:href="#DejaVuSans-30" x="1517.960938"/>
    <use xlink:href="#DejaVuSans-30" x="1581.583984"/>
    <use xlink:href="#DejaVuSans-2e" x="1645.207031"/>
    <use xlink:href="#DejaVuSans-38" x="1676.994141"/>
    <use xlink:href="#DejaVuSans-38" x="1740.617188"/>
   </g>
  </g>
 </g>
 <defs>
  <clipPath id="p8db377f0f6">
   <rect x="52.94" y="73.68" width="619.34" height="214.99"/>
  </clipPath>
  <clipPath id="p25a13a93de">
   <rect x="52.94" y="319.05" width="619.34" height="214.99"/>
  </clipPath>
 </defs>
</svg>
