<?xml version="1.0" encoding="utf-8" standalone="no"?>
<!DOCTYPE svg PUBLIC "-//W3C//DTD SVG 1.1//EN"
  "http://www.w3.org/Graphics/SVG/1.1/DTD/svg11.dtd">
<svg xmlns:xlink="http://www.w3.org/1999/xlink" width="720pt" height="576pt" viewBox="0 0 720 576" xmlns="http://www.w3.org/2000/svg" version="1.1">
 <metadata>
  <rdf:RDF xmlns:dc="http://purl.org/dc/elements/1.1/" xmlns:cc="http://creativecommons.org/ns#" xmlns:rdf="http://www.w3.org/1999/02/22-rdf-syntax-ns#">
   <cc:Work>
    <dc:type rdf:resource="http://purl.org/dc/dcmitype/StillImage"/>
    <dc:date>2024-06-03T12:56:35.233924</dc:date>
    <dc:format>image/svg+xml</dc:format>
    <dc:creator>
     <cc:Agent>
      <dc:title>Matplotlib v3.8.4, https://matplotlib.org/</dc:title>
     </cc:Agent>
    </dc:creator>
   </cc:Work>
  </rdf:RDF>
 </metadata>
 <defs>
  <style type="text/css">*{stroke-linejoin: round; stroke-linecap: butt}</style>
 </defs>
 <g id="figure_1">
  <g id="patch_1">
   <path d="M 0 576 
L 720 576 
L 720 0 
L 0 0 
z
" style="fill: #ffffff"/>
  </g>
  <g id="axes_1">
   <g id="patch_2">
    <path d="M 52.94 288.67 
L 672.28 288.67 
L 672.28 73.68 
L 52.94 73.68 
z
" style="fill: #ffffff"/>
   </g>
   <g id="matplotlib.axis_1">
    <g id="xtick_1">
     <g id="line2d_1">
      <defs>
       <path id="me43f9d3662" d="M 0 0 
L 0 3.5 
" style="stroke: #000000; stroke-width: 0.8"/>
      </defs>
      <g>
       <use xlink:href="#me43f9d3662" x="81.091818" y="288.67" style="stroke: #000000; stroke-width: 0.8"/>
      </g>
     </g>
    </g>
    <g id="xtick_2">
     <g id="line2d_2">
      <g>
       <use xlink:href="#me43f9d3662" x="192.595207" y="288.67" style="stroke: #000000; stroke-width: 0.8"/>
      </g>
     </g>
    </g>
    <g id="xtick_3">
     <g id="line2d_3">
      <g>
       <use xlink:href="#me43f9d3662" x="304.098597" y="288.67" style="stroke: #000000; stroke-width: 0.8"/>
      </g>
     </g>
    </g>
    <g id="xtick_4">
     <g id="line2d_4">
      <g>
       <use xlink:href="#me43f9d3662" x="415.601986" y="288.67" style="stroke: #000000; stroke-width: 0.8"/>
      </g>
     </g>
    </g>
    <g id="xtick_5">
     <g id="line2d_5">
      <g>
       <use xlink:href="#me43f9d3662" x="527.105375" y="288.67" style="stroke: #000000; stroke-width: 0.8"/>
      </g>
     </g>
    </g>
    <g id="xtick_6">
     <g id="line2d_6">
      <g>
       <use xlink:href="#me43f9d3662" x="638.608764" y="288.67" style="stroke: #000000; stroke-width: 0.8"/>
      </g>
     </g>
    </g>
   </g>
   <g id="matplotlib.axis_2">
    <g id="ytick_1">
     <g id="line2d_7">
      <defs>
       <path id="m4c34307d13" d="M 0 0 
L -3.5 0 
" style="stroke: #ff4500; stroke-width: 0.8"/>
      </defs>
      <g>
       <use xlink:href="#m4c34307d13" x="52.94" y="278.904128" style="fill: #ff4500; stroke: #ff4500; stroke-width: 0.8"/>
      </g>
     </g>
     <g id="text_1">
      <!-- 0 -->
      <g style="fill: #ff4500" transform="translate(39.5775 282.703347) scale(0.1 -0.1)">
       <defs>
        <path id="DejaVuSans-30" d="M 2034 4250 
Q 1547 4250 1301 3770 
Q 1056 3291 1056 2328 
Q 1056 1369 1301 889 
Q 1547 409 2034 409 
Q 2525 409 2770 889 
Q 3016 1369 3016 2328 
Q 3016 3291 2770 3770 
Q 2525 4250 2034 4250 
z
M 2034 4750 
Q 2819 4750 3233 4129 
Q 3647 3509 3647 2328 
Q 3647 1150 3233 529 
Q 2819 -91 2034 -91 
Q 1250 -91 836 529 
Q 422 1150 422 2328 
Q 422 3509 836 4129 
Q 1250 4750 2034 4750 
z
" transform="scale(0.015625)"/>
       </defs>
       <use xlink:href="#DejaVuSans-30"/>
      </g>
     </g>
    </g>
    <g id="ytick_2">
     <g id="line2d_8">
      <g>
       <use xlink:href="#m4c34307d13" x="52.94" y="243.341552" style="fill: #ff4500; stroke: #ff4500; stroke-width: 0.8"/>
      </g>
     </g>
     <g id="text_2">
      <!-- 2 -->
      <g style="fill: #ff4500" transform="translate(39.5775 247.14077) scale(0.1 -0.1)">
       <defs>
        <path id="DejaVuSans-32" d="M 1228 531 
L 3431 531 
L 3431 0 
L 469 0 
L 469 531 
Q 828 903 1448 1529 
Q 2069 2156 2228 2338 
Q 2531 2678 2651 2914 
Q 2772 3150 2772 3378 
Q 2772 3750 2511 3984 
Q 2250 4219 1831 4219 
Q 1534 4219 1204 4116 
Q 875 4013 500 3803 
L 500 4441 
Q 881 4594 1212 4672 
Q 1544 4750 1819 4750 
Q 2544 4750 2975 4387 
Q 3406 4025 3406 3419 
Q 3406 3131 3298 2873 
Q 3191 2616 2906 2266 
Q 2828 2175 2409 1742 
Q 1991 1309 1228 531 
z
" transform="scale(0.015625)"/>
       </defs>
       <use xlink:href="#DejaVuSans-32"/>
      </g>
     </g>
    </g>
    <g id="ytick_3">
     <g id="line2d_9">
      <g>
       <use xlink:href="#m4c34307d13" x="52.94" y="207.778975" style="fill: #ff4500; stroke: #ff4500; stroke-width: 0.8"/>
      </g>
     </g>
     <g id="text_3">
      <!-- 4 -->
      <g style="fill: #ff4500" transform="translate(39.5775 211.578194) scale(0.1 -0.1)">
       <defs>
        <path id="DejaVuSans-34" d="M 2419 4116 
L 825 1625 
L 2419 1625 
L 2419 4116 
z
M 2253 4666 
L 3047 4666 
L 3047 1625 
L 3713 1625 
L 3713 1100 
L 3047 1100 
L 3047 0 
L 2419 0 
L 2419 1100 
L 313 1100 
L 313 1709 
L 2253 4666 
z
" transform="scale(0.015625)"/>
       </defs>
       <use xlink:href="#DejaVuSans-34"/>
      </g>
     </g>
    </g>
    <g id="ytick_4">
     <g id="line2d_10">
      <g>
       <use xlink:href="#m4c34307d13" x="52.94" y="172.216398" style="fill: #ff4500; stroke: #ff4500; stroke-width: 0.8"/>
      </g>
     </g>
     <g id="text_4">
      <!-- 6 -->
      <g style="fill: #ff4500" transform="translate(39.5775 176.015617) scale(0.1 -0.1)">
       <defs>
        <path id="DejaVuSans-36" d="M 2113 2584 
Q 1688 2584 1439 2293 
Q 1191 2003 1191 1497 
Q 1191 994 1439 701 
Q 1688 409 2113 409 
Q 2538 409 2786 701 
Q 3034 994 3034 1497 
Q 3034 2003 2786 2293 
Q 2538 2584 2113 2584 
z
M 3366 4563 
L 3366 3988 
Q 3128 4100 2886 4159 
Q 2644 4219 2406 4219 
Q 1781 4219 1451 3797 
Q 1122 3375 1075 2522 
Q 1259 2794 1537 2939 
Q 1816 3084 2150 3084 
Q 2853 3084 3261 2657 
Q 3669 2231 3669 1497 
Q 3669 778 3244 343 
Q 2819 -91 2113 -91 
Q 1303 -91 875 529 
Q 447 1150 447 2328 
Q 447 3434 972 4092 
Q 1497 4750 2381 4750 
Q 2619 4750 2861 4703 
Q 3103 4656 3366 4563 
z
" transform="scale(0.015625)"/>
       </defs>
       <use xlink:href="#DejaVuSans-36"/>
      </g>
     </g>
    </g>
    <g id="ytick_5">
     <g id="line2d_11">
      <g>
       <use xlink:href="#m4c34307d13" x="52.94" y="136.653822" style="fill: #ff4500; stroke: #ff4500; stroke-width: 0.8"/>
      </g>
     </g>
     <g id="text_5">
      <!-- 8 -->
      <g style="fill: #ff4500" transform="translate(39.5775 140.45304) scale(0.1 -0.1)">
       <defs>
        <path id="DejaVuSans-38" d="M 2034 2216 
Q 1584 2216 1326 1975 
Q 1069 1734 1069 1313 
Q 1069 891 1326 650 
Q 1584 409 2034 409 
Q 2484 409 2743 651 
Q 3003 894 3003 1313 
Q 3003 1734 2745 1975 
Q 2488 2216 2034 2216 
z
M 1403 2484 
Q 997 2584 770 2862 
Q 544 3141 544 3541 
Q 544 4100 942 4425 
Q 1341 4750 2034 4750 
Q 2731 4750 3128 4425 
Q 3525 4100 3525 3541 
Q 3525 3141 3298 2862 
Q 3072 2584 2669 2484 
Q 3125 2378 3379 2068 
Q 3634 1759 3634 1313 
Q 3634 634 3220 271 
Q 2806 -91 2034 -91 
Q 1263 -91 848 271 
Q 434 634 434 1313 
Q 434 1759 690 2068 
Q 947 2378 1403 2484 
z
M 1172 3481 
Q 1172 3119 1398 2916 
Q 1625 2713 2034 2713 
Q 2441 2713 2670 2916 
Q 2900 3119 2900 3481 
Q 2900 3844 2670 4047 
Q 2441 4250 2034 4250 
Q 1625 4250 1398 4047 
Q 1172 3844 1172 3481 
z
" transform="scale(0.015625)"/>
       </defs>
       <use xlink:href="#DejaVuSans-38"/>
      </g>
     </g>
    </g>
    <g id="ytick_6">
     <g id="line2d_12">
      <g>
       <use xlink:href="#m4c34307d13" x="52.94" y="101.091245" style="fill: #ff4500; stroke: #ff4500; stroke-width: 0.8"/>
      </g>
     </g>
     <g id="text_6">
      <!-- 10 -->
      <g style="fill: #ff4500" transform="translate(33.215 104.890464) scale(0.1 -0.1)">
       <defs>
        <path id="DejaVuSans-31" d="M 794 531 
L 1825 531 
L 1825 4091 
L 703 3866 
L 703 4441 
L 1819 4666 
L 2450 4666 
L 2450 531 
L 3481 531 
L 3481 0 
L 794 0 
L 794 531 
z
" transform="scale(0.015625)"/>
       </defs>
       <use xlink:href="#DejaVuSans-31"/>
       <use xlink:href="#DejaVuSans-30" x="63.623047"/>
      </g>
     </g>
    </g>
    <g id="text_7">
     <!-- Output Voltage -->
     <g style="fill: #ff4500" transform="translate(27.135313 218.888281) rotate(-90) scale(0.1 -0.1)">
      <defs>
       <path id="DejaVuSans-4f" d="M 2522 4238 
Q 1834 4238 1429 3725 
Q 1025 3213 1025 2328 
Q 1025 1447 1429 934 
Q 1834 422 2522 422 
Q 3209 422 3611 934 
Q 4013 1447 4013 2328 
Q 4013 3213 3611 3725 
Q 3209 4238 2522 4238 
z
M 2522 4750 
Q 3503 4750 4090 4092 
Q 4678 3434 4678 2328 
Q 4678 1225 4090 567 
Q 3503 -91 2522 -91 
Q 1538 -91 948 565 
Q 359 1222 359 2328 
Q 359 3434 948 4092 
Q 1538 4750 2522 4750 
z
" transform="scale(0.015625)"/>
       <path id="DejaVuSans-75" d="M 544 1381 
L 544 3500 
L 1119 3500 
L 1119 1403 
Q 1119 906 1312 657 
Q 1506 409 1894 409 
Q 2359 409 2629 706 
Q 2900 1003 2900 1516 
L 2900 3500 
L 3475 3500 
L 3475 0 
L 2900 0 
L 2900 538 
Q 2691 219 2414 64 
Q 2138 -91 1772 -91 
Q 1169 -91 856 284 
Q 544 659 544 1381 
z
M 1991 3584 
L 1991 3584 
z
" transform="scale(0.015625)"/>
       <path id="DejaVuSans-74" d="M 1172 4494 
L 1172 3500 
L 2356 3500 
L 2356 3053 
L 1172 3053 
L 1172 1153 
Q 1172 725 1289 603 
Q 1406 481 1766 481 
L 2356 481 
L 2356 0 
L 1766 0 
Q 1100 0 847 248 
Q 594 497 594 1153 
L 594 3053 
L 172 3053 
L 172 3500 
L 594 3500 
L 594 4494 
L 1172 4494 
z
" transform="scale(0.015625)"/>
       <path id="DejaVuSans-70" d="M 1159 525 
L 1159 -1331 
L 581 -1331 
L 581 3500 
L 1159 3500 
L 1159 2969 
Q 1341 3281 1617 3432 
Q 1894 3584 2278 3584 
Q 2916 3584 3314 3078 
Q 3713 2572 3713 1747 
Q 3713 922 3314 415 
Q 2916 -91 2278 -91 
Q 1894 -91 1617 61 
Q 1341 213 1159 525 
z
M 3116 1747 
Q 3116 2381 2855 2742 
Q 2594 3103 2138 3103 
Q 1681 3103 1420 2742 
Q 1159 2381 1159 1747 
Q 1159 1113 1420 752 
Q 1681 391 2138 391 
Q 2594 391 2855 752 
Q 3116 1113 3116 1747 
z
" transform="scale(0.015625)"/>
       <path id="DejaVuSans-20" transform="scale(0.015625)"/>
       <path id="DejaVuSans-56" d="M 1831 0 
L 50 4666 
L 709 4666 
L 2188 738 
L 3669 4666 
L 4325 4666 
L 2547 0 
L 1831 0 
z
" transform="scale(0.015625)"/>
       <path id="DejaVuSans-6f" d="M 1959 3097 
Q 1497 3097 1228 2736 
Q 959 2375 959 1747 
Q 959 1119 1226 758 
Q 1494 397 1959 397 
Q 2419 397 2687 759 
Q 2956 1122 2956 1747 
Q 2956 2369 2687 2733 
Q 2419 3097 1959 3097 
z
M 1959 3584 
Q 2709 3584 3137 3096 
Q 3566 2609 3566 1747 
Q 3566 888 3137 398 
Q 2709 -91 1959 -91 
Q 1206 -91 779 398 
Q 353 888 353 1747 
Q 353 2609 779 3096 
Q 1206 3584 1959 3584 
z
" transform="scale(0.015625)"/>
       <path id="DejaVuSans-6c" d="M 603 4863 
L 1178 4863 
L 1178 0 
L 603 0 
L 603 4863 
z
" transform="scale(0.015625)"/>
       <path id="DejaVuSans-61" d="M 2194 1759 
Q 1497 1759 1228 1600 
Q 959 1441 959 1056 
Q 959 750 1161 570 
Q 1363 391 1709 391 
Q 2188 391 2477 730 
Q 2766 1069 2766 1631 
L 2766 1759 
L 2194 1759 
z
M 3341 1997 
L 3341 0 
L 2766 0 
L 2766 531 
Q 2569 213 2275 61 
Q 1981 -91 1556 -91 
Q 1019 -91 701 211 
Q 384 513 384 1019 
Q 384 1609 779 1909 
Q 1175 2209 1959 2209 
L 2766 2209 
L 2766 2266 
Q 2766 2663 2505 2880 
Q 2244 3097 1772 3097 
Q 1472 3097 1187 3025 
Q 903 2953 641 2809 
L 641 3341 
Q 956 3463 1253 3523 
Q 1550 3584 1831 3584 
Q 2591 3584 2966 3190 
Q 3341 2797 3341 1997 
z
" transform="scale(0.015625)"/>
       <path id="DejaVuSans-67" d="M 2906 1791 
Q 2906 2416 2648 2759 
Q 2391 3103 1925 3103 
Q 1463 3103 1205 2759 
Q 947 2416 947 1791 
Q 947 1169 1205 825 
Q 1463 481 1925 481 
Q 2391 481 2648 825 
Q 2906 1169 2906 1791 
z
M 3481 434 
Q 3481 -459 3084 -895 
Q 2688 -1331 1869 -1331 
Q 1566 -1331 1297 -1286 
Q 1028 -1241 775 -1147 
L 775 -588 
Q 1028 -725 1275 -790 
Q 1522 -856 1778 -856 
Q 2344 -856 2625 -561 
Q 2906 -266 2906 331 
L 2906 616 
Q 2728 306 2450 153 
Q 2172 0 1784 0 
Q 1141 0 747 490 
Q 353 981 353 1791 
Q 353 2603 747 3093 
Q 1141 3584 1784 3584 
Q 2172 3584 2450 3431 
Q 2728 3278 2906 2969 
L 2906 3500 
L 3481 3500 
L 3481 434 
z
" transform="scale(0.015625)"/>
       <path id="DejaVuSans-65" d="M 3597 1894 
L 3597 1613 
L 953 1613 
Q 991 1019 1311 708 
Q 1631 397 2203 397 
Q 2534 397 2845 478 
Q 3156 559 3463 722 
L 3463 178 
Q 3153 47 2828 -22 
Q 2503 -91 2169 -91 
Q 1331 -91 842 396 
Q 353 884 353 1716 
Q 353 2575 817 3079 
Q 1281 3584 2069 3584 
Q 2775 3584 3186 3129 
Q 3597 2675 3597 1894 
z
M 3022 2063 
Q 3016 2534 2758 2815 
Q 2500 3097 2075 3097 
Q 1594 3097 1305 2825 
Q 1016 2553 972 2059 
L 3022 2063 
z
" transform="scale(0.015625)"/>
      </defs>
      <use xlink:href="#DejaVuSans-4f"/>
      <use xlink:href="#DejaVuSans-75" x="78.710938"/>
      <use xlink:href="#DejaVuSans-74" x="142.089844"/>
      <use xlink:href="#DejaVuSans-70" x="181.298828"/>
      <use xlink:href="#DejaVuSans-75" x="244.775391"/>
      <use xlink:href="#DejaVuSans-74" x="308.154297"/>
      <use xlink:href="#DejaVuSans-20" x="347.363281"/>
      <use xlink:href="#DejaVuSans-56" x="379.150391"/>
      <use xlink:href="#DejaVuSans-6f" x="439.808594"/>
      <use xlink:href="#DejaVuSans-6c" x="500.990234"/>
      <use xlink:href="#DejaVuSans-74" x="528.773438"/>
      <use xlink:href="#DejaVuSans-61" x="567.982422"/>
      <use xlink:href="#DejaVuSans-67" x="629.261719"/>
      <use xlink:href="#DejaVuSans-65" x="692.738281"/>
     </g>
    </g>
   </g>
   <g id="line2d_13">
    <path d="M 81.091818 278.897727 
L 81.259073 278.765586 
L 81.48208 278.117321 
L 81.81659 276.223594 
L 82.318355 271.726311 
L 83.489141 260.083105 
L 84.77143 251.517705 
L 85.551954 242.583829 
L 86.053719 237.893022 
L 86.499733 235.408289 
L 87.224505 232.155857 
L 87.782022 227.739424 
L 88.618297 219.005238 
L 92.130654 179.771543 
L 93.245688 170.005917 
L 96.089024 145.523815 
L 97.650071 134.139476 
L 99.099616 125.179987 
L 100.158898 119.703598 
L 100.381905 119.309244 
L 100.54916 119.391605 
L 101.162428 120.254479 
L 101.496938 120.300169 
L 101.831449 120.096668 
L 102.277462 119.517031 
L 103.057986 118.313834 
L 103.225241 118.576168 
L 103.559751 119.76052 
L 104.005765 120.943479 
L 104.396027 121.399665 
L 104.730537 121.447156 
L 105.065047 121.237646 
L 105.51106 120.640331 
L 106.012826 119.899411 
L 106.180081 120.082637 
L 106.626094 120.769801 
L 106.960604 120.904283 
L 107.295115 120.769536 
L 107.685376 120.33791 
L 108.242893 119.330764 
L 108.80041 118.258752 
L 108.967665 118.389987 
L 109.413679 118.975248 
L 109.748189 119.062613 
L 110.082699 118.901306 
L 110.528713 118.378108 
L 111.141982 117.232234 
L 111.811002 116.012273 
L 112.145512 115.94222 
L 112.535774 115.610834 
L 113.093291 114.78099 
L 113.873815 113.142392 
L 114.542835 111.737332 
L 115.0446 111.629602 
L 115.490614 111.23042 
L 116.103882 110.335758 
L 116.995909 108.581296 
L 118.835715 104.320048 
L 121.010032 99.487761 
L 122.571079 96.547635 
L 122.738334 96.499082 
L 122.905589 96.791956 
L 123.518858 98.215781 
L 124.020623 98.829443 
L 124.466637 99.056867 
L 124.91265 99.054982 
L 125.470167 98.952209 
L 125.637422 99.306324 
L 126.417946 101.587979 
L 126.919711 102.29415 
L 127.365725 102.542391 
L 127.811738 102.517316 
L 128.313503 102.241912 
L 128.982524 101.585542 
L 129.930303 100.310483 
L 132.216122 96.717 
L 133.944425 94.18782 
L 134.11168 94.188817 
L 134.613445 94.435309 
L 135.170962 94.455523 
L 135.839982 94.229143 
L 136.899264 93.775586 
L 137.40103 94.267708 
L 137.902795 94.480032 
L 138.460312 94.471785 
L 139.129332 94.221365 
L 140.021359 93.628531 
L 141.526655 92.316349 
L 144.760253 89.476443 
L 145.039012 89.322495 
L 145.206267 89.552297 
L 145.931039 91.069757 
L 146.488556 91.723138 
L 147.046073 92.049489 
L 147.659342 92.134147 
L 147.826597 92.179749 
L 147.993852 92.507102 
L 148.662872 94.195348 
L 149.220389 94.977074 
L 149.722154 95.319212 
L 150.223919 95.405661 
L 150.781436 95.421817 
L 151.450457 96.239084 
L 151.952222 96.470572 
L 152.453987 96.458954 
L 153.067256 96.205598 
L 153.569021 96.001455 
L 154.238041 96.596279 
L 154.739807 96.704489 
L 155.297324 96.575849 
L 155.966344 96.179071 
L 156.914123 95.339215 
L 158.80968 93.287017 
L 161.207003 90.793826 
L 163.046809 89.204672 
L 164.830863 87.953857 
L 166.726421 86.901358 
L 167.618448 86.580706 
L 168.454724 86.692428 
L 169.569757 86.60286 
L 170.461785 86.551443 
L 171.242308 86.771386 
L 172.190087 86.792684 
L 173.026363 86.818076 
L 174.2529 89.001789 
L 174.866168 89.483631 
L 175.479437 89.694003 
L 175.758196 89.782988 
L 175.981202 90.276884 
L 176.538719 91.45356 
L 177.096236 92.159435 
L 177.653753 92.515987 
L 178.21127 92.616191 
L 178.434277 92.661839 
L 178.601532 92.989507 
L 179.493559 95.529515 
L 179.995324 96.262691 
L 180.49709 96.625628 
L 180.998855 96.709219 
L 181.221862 96.736617 
L 181.389117 97.044123 
L 182.225392 99.308581 
L 182.727157 99.952574 
L 183.173171 100.186976 
L 183.619185 100.177747 
L 184.176701 99.909542 
L 184.901474 99.265013 
L 185.960756 97.976633 
L 190.922657 91.539092 
L 192.595207 89.903108 
L 194.267758 88.569204 
L 196.051812 87.432638 
L 197.94737 86.489984 
L 200.065934 85.690029 
L 202.463257 85.028197 
L 205.306594 84.483286 
L 208.763199 84.056378 
L 211.049018 83.93016 
L 211.216273 84.274767 
L 211.495032 85.555455 
L 211.885294 88.595265 
L 213.056079 98.803889 
L 213.613596 101.437821 
L 214.05961 103.38014 
L 214.505623 106.883564 
L 215.899416 119.193515 
L 216.401181 121.085935 
L 216.791443 121.840324 
L 217.125953 122.09049 
L 217.404711 122.068952 
L 217.739222 121.814756 
L 218.185235 121.164513 
L 218.798504 119.841813 
L 219.746283 117.195553 
L 223.202888 106.812354 
L 223.258639 106.844369 
L 223.760405 107.214404 
L 224.150666 107.20669 
L 224.59668 106.94761 
L 225.154197 106.343319 
L 225.934721 105.407995 
L 226.157727 105.800524 
L 226.603741 106.48533 
L 226.994003 106.736731 
L 227.384265 106.731702 
L 227.830278 106.480037 
L 228.387795 105.889843 
L 228.889561 105.421381 
L 229.279822 105.510312 
L 229.725836 105.355296 
L 230.283353 104.872021 
L 231.008125 103.914707 
L 231.677145 103.07755 
L 232.067407 103.123229 
L 232.513421 102.954974 
L 233.070938 102.496526 
L 233.851461 101.542841 
L 234.297475 101.035886 
L 234.46473 101.236159 
L 234.966495 101.907236 
L 235.412509 102.136635 
L 235.858522 102.101684 
L 236.360288 101.823428 
L 237.140811 101.302449 
L 238.032838 102.533533 
L 238.478852 102.654735 
L 238.924866 102.531099 
L 239.482383 102.120537 
L 240.262906 101.222128 
L 241.489444 99.408278 
L 245.113304 93.878973 
L 246.785854 91.807791 
L 248.402654 90.151602 
L 250.075204 88.759206 
L 251.803507 87.610162 
L 253.643313 86.650162 
L 255.706126 85.827549 
L 258.047697 85.139945 
L 260.77953 84.576832 
L 264.124632 84.125557 
L 267.525485 83.860592 
L 267.69274 84.090105 
L 267.971498 85.150061 
L 268.584767 87.377062 
L 269.198036 88.839463 
L 269.811304 89.742407 
L 270.480325 90.528944 
L 270.814835 91.979423 
L 271.428104 94.228971 
L 271.98562 95.477102 
L 272.487386 96.117643 
L 272.989151 96.413984 
L 273.323661 96.604242 
L 273.658171 97.555587 
L 274.159937 98.667083 
L 274.661702 99.27666 
L 275.107715 99.496042 
L 275.553729 99.483067 
L 276.111246 99.3634 
L 276.334253 99.842701 
L 276.836018 100.80035 
L 277.282031 101.234656 
L 277.728045 101.366772 
L 278.174059 101.265956 
L 278.731575 100.896086 
L 279.512099 100.069396 
L 280.738636 98.384553 
L 284.474 93.077781 
L 286.146551 91.161427 
L 287.819102 89.58327 
L 289.491653 88.306507 
L 291.275707 87.2235 
L 293.227016 86.304686 
L 295.401332 85.534525 
L 297.854407 84.904771 
L 300.809247 84.384457 
L 300.976502 84.502746 
L 301.199508 85.167716 
L 302.426046 90.279458 
L 302.983563 91.497927 
L 303.54108 92.232993 
L 303.764086 92.561596 
L 304.042845 93.682345 
L 304.823369 97.544211 
L 305.380886 99.135626 
L 305.882651 99.947496 
L 306.328664 100.294335 
L 306.774678 100.370017 
L 307.276443 100.208524 
L 307.889712 99.75416 
L 308.781739 98.771127 
L 310.342786 96.644848 
L 313.018868 93.03815 
L 314.74717 91.089541 
L 316.419721 89.532695 
L 317.925017 88.404402 
L 318.092272 88.519245 
L 318.705541 89.195951 
L 319.318809 89.547246 
L 319.987829 89.667648 
L 320.824105 89.702193 
L 321.548877 90.724961 
L 322.106394 91.125644 
L 322.719663 91.285867 
L 323.388683 91.224478 
L 324.28071 90.895788 
L 325.618751 90.128459 
L 330.357645 87.23666 
L 332.531961 86.259975 
L 334.260263 85.671325 
L 334.427518 85.859654 
L 334.650525 86.629394 
L 335.821311 91.891386 
L 336.378828 93.208778 
L 336.936345 93.985663 
L 337.159351 94.318514 
L 337.43811 95.436623 
L 338.385889 100.296601 
L 338.887654 101.682448 
L 339.389419 102.453099 
L 339.835433 102.742618 
L 340.002688 102.833977 
L 340.169943 103.185104 
L 340.560205 104.835845 
L 341.06197 106.465601 
L 341.507984 107.2826 
L 341.898245 107.616641 
L 342.288507 107.669364 
L 342.901776 107.580137 
L 343.124783 108.189299 
L 343.6823 109.956457 
L 344.128313 110.679337 
L 344.518575 110.91763 
L 344.853085 110.888451 
L 345.243347 110.636609 
L 345.800864 109.965406 
L 346.079623 109.809098 
L 346.525636 109.519178 
L 347.083153 108.846579 
L 347.863677 107.51802 
L 348.922959 105.688367 
L 349.536228 104.997723 
L 350.428255 103.615608 
L 351.376034 102.161329 
L 351.543289 102.411422 
L 352.045054 103.194165 
L 352.491067 103.483043 
L 352.881329 103.492649 
L 353.327343 103.288293 
L 354.163618 102.727883 
L 354.442377 103.362483 
L 354.944142 104.249971 
L 355.390156 104.596381 
L 355.780417 104.634818 
L 356.226431 104.444039 
L 357.006955 103.938876 
L 357.84323 105.054215 
L 358.233492 105.147122 
L 358.679506 104.999411 
L 359.237022 104.528403 
L 359.738788 104.05049 
L 359.906043 104.269514 
L 360.352056 104.90773 
L 360.742318 105.142135 
L 361.13258 105.13758 
L 361.578594 104.903208 
L 362.191862 104.286087 
L 363.028138 103.086447 
L 364.533433 100.458353 
L 367.209515 95.8252 
L 368.04579 94.697352 
L 368.213045 94.924037 
L 368.826314 96.180692 
L 369.328079 96.727526 
L 369.829844 96.945923 
L 370.33161 96.91796 
L 370.833375 96.849238 
L 371.056382 97.393971 
L 371.613899 98.848366 
L 372.115664 99.57469 
L 372.561677 99.868688 
L 373.007691 99.908678 
L 373.509456 99.723057 
L 374.066973 99.507992 
L 374.62449 99.235974 
L 375.349262 98.604632 
L 376.464296 97.286402 
L 376.798806 97.014314 
L 377.635082 96.315771 
L 378.973122 94.8643 
L 382.429727 91.034585 
L 384.213782 89.434141 
L 384.659795 89.14309 
L 384.82705 89.37183 
L 385.273064 90.893051 
L 385.830581 92.318808 
L 386.388098 93.188455 
L 386.945615 93.644871 
L 387.558883 94.059763 
L 387.837642 95.116222 
L 388.395159 97.040874 
L 388.896924 98.101942 
L 389.398689 98.682064 
L 389.844703 98.888783 
L 390.346468 98.858022 
L 390.903985 98.581919 
L 391.684509 97.906619 
L 392.855294 96.548492 
L 396.088893 92.642744 
L 396.813665 93.09875 
L 397.371182 93.15679 
L 398.040202 92.990391 
L 398.876477 92.68891 
L 399.601249 93.442135 
L 400.158766 93.649386 
L 400.716283 93.623363 
L 401.441055 93.34822 
L 401.719814 93.321267 
L 402.277331 93.620472 
L 402.834848 93.660888 
L 403.503868 93.468759 
L 404.618902 93.076078 
L 405.176419 93.271733 
L 405.789687 93.231332 
L 406.514459 92.947693 
L 407.573742 92.261474 
L 409.803809 90.461303 
L 412.201132 88.651224 
L 412.535643 88.488333 
L 412.702898 88.735221 
L 413.148911 90.301792 
L 413.76218 91.892855 
L 414.319697 92.760716 
L 414.877214 93.223118 
L 415.378979 93.522876 
L 415.601986 94.227669 
L 416.271006 96.677575 
L 416.828523 97.853469 
L 417.330288 98.411772 
L 417.776302 98.607094 
L 418.278067 98.570412 
L 418.835584 98.294181 
L 419.616108 97.626631 
L 420.786893 96.290253 
L 422.180686 94.672859 
L 422.347941 94.930546 
L 422.626699 96.044735 
L 423.016961 98.814234 
L 423.574478 104.647613 
L 424.801015 118.372181 
L 425.358532 123.179788 
L 426.139056 132.329341 
L 427.477097 148.358731 
L 427.92311 150.751842 
L 428.313372 151.754984 
L 428.592131 151.967646 
L 428.815137 151.884118 
L 429.093896 151.508724 
L 429.484158 150.562498 
L 430.041675 148.557737 
L 430.87795 144.603548 
L 432.494749 135.597693 
L 434.780569 123.159434 
L 436.341616 115.879004 
L 437.79116 110.145671 
L 439.184953 105.509987 
L 440.578745 101.636835 
L 441.024758 100.777379 
L 443.589336 96.41988 
L 444.815874 95.137891 
L 448.885747 90.684643 
L 450.669802 89.147557 
L 452.453856 87.903594 
L 454.293662 86.887298 
L 456.300723 86.030363 
L 458.586542 85.302879 
L 461.206872 84.709259 
L 462.990926 84.47445 
L 463.994457 85.426514 
L 464.77498 85.793658 
L 465.945766 86.254582 
L 466.614786 86.960132 
L 467.283807 87.348132 
L 468.008579 87.520223 
L 468.510344 87.674937 
L 469.681129 89.890967 
L 470.238646 90.371537 
L 470.851915 90.608337 
L 471.297929 90.78024 
L 472.357211 92.771913 
L 472.914728 93.213588 
L 473.472245 93.362933 
L 474.085513 93.284856 
L 474.866037 92.93848 
L 475.981071 92.170297 
L 481.779247 87.808275 
L 483.786308 86.753636 
L 485.904873 85.897228 
L 488.246444 85.19476 
L 490.978277 84.615831 
L 494.267627 84.156512 
L 498.449004 83.808941 
L 504.24718 83.566895 
L 510.770128 83.472222 
L 510.937383 83.710775 
L 511.16039 84.545773 
L 511.4949 86.752712 
L 511.996666 91.776239 
L 512.721438 101.573042 
L 516.568305 158.345547 
L 517.014318 161.400999 
L 517.40458 162.75625 
L 517.683338 163.114623 
L 517.906345 163.094045 
L 518.185104 162.739666 
L 518.575366 161.732511 
L 519.355889 158.793753 
L 520.136413 154.674695 
L 521.920467 143.573957 
L 525.265569 124.17078 
L 526.826616 116.654327 
L 528.27616 110.760726 
L 529.669953 106.006815 
L 531.063745 102.040567 
L 532.457538 98.749654 
L 533.85133 96.028552 
L 535.245122 93.783559 
L 536.694666 91.867213 
L 538.199962 90.248005 
L 539.76101 88.893223 
L 541.43356 87.736071 
L 543.273366 86.741148 
L 545.280427 85.912629 
L 546.67422 85.506131 
L 547.287488 85.707415 
L 548.291019 85.811502 
L 549.684811 85.901117 
L 550.465335 86.160565 
L 551.413114 86.235365 
L 552.695403 86.099499 
L 555.092726 85.574205 
L 557.5458 85.079098 
L 557.713055 85.400651 
L 558.716586 88.347602 
L 559.329854 89.348543 
L 559.943123 89.92139 
L 560.389137 90.280081 
L 560.667895 91.252591 
L 561.281164 93.239652 
L 561.838681 94.337229 
L 562.340446 94.89581 
L 562.842211 95.148519 
L 563.399728 95.162125 
L 564.012997 94.94388 
L 564.849272 94.38923 
L 566.187313 93.187322 
L 569.030649 90.560392 
L 569.922676 90.277045 
L 571.260717 89.586997 
L 571.873986 89.353516 
L 572.654509 89.300013 
L 573.713792 88.977112 
L 575.497846 88.15244 
L 579.121706 86.4698 
L 581.519029 85.623243 
L 584.083607 84.955501 
L 587.038447 84.421973 
L 590.662307 84.004741 
L 591.10832 84.027723 
L 591.331327 84.505566 
L 592.000347 85.914123 
L 592.669368 86.798124 
L 593.338388 87.309576 
L 593.951657 87.6877 
L 595.066691 90.066598 
L 595.624208 90.640356 
L 596.181724 90.928049 
L 596.68349 91.147136 
L 597.018 92.122899 
L 597.575517 93.430723 
L 598.133034 94.196982 
L 598.634799 94.540432 
L 599.136564 94.638742 
L 599.471074 94.740683 
L 599.749833 95.479331 
L 600.30735 96.695563 
L 600.809115 97.297307 
L 601.31088 97.548413 
L 601.812646 97.536258 
L 602.425914 97.262409 
L 603.206438 96.638911 
L 604.432975 95.329122 
L 607.833829 91.525548 
L 608.001084 91.699716 
L 608.558601 92.454054 
L 609.116118 92.840388 
L 609.673635 92.956421 
L 610.286903 92.860406 
L 610.677165 92.852427 
L 611.792199 94.505421 
L 612.293964 94.741239 
L 612.851481 94.747777 
L 613.520501 94.503601 
L 614.412529 93.906026 
L 615.862073 92.620361 
L 619.207174 89.60902 
L 621.102732 88.233389 
L 622.99829 87.130907 
L 625.005351 86.221636 
L 627.235418 85.460927 
L 629.799996 84.831134 
L 630.134506 84.825582 
L 630.357513 85.278852 
L 630.970782 86.528721 
L 631.584051 87.331114 
L 632.253071 87.837596 
L 633.033595 88.350713 
L 633.758367 90.02427 
L 634.315884 90.779538 
L 634.873401 91.194919 
L 635.486669 91.365194 
L 635.765428 91.428283 
L 636.991965 92.942757 
L 637.549482 93.115388 
L 638.16275 93.060171 
L 638.608764 93.045369 
L 639.277784 93.867833 
L 639.77955 94.140052 
L 640.337067 94.185817 
L 641.006087 93.986616 
L 641.619356 93.804066 
L 642.232624 93.687575 
L 643.013148 93.297527 
L 644.128182 92.47558 
L 644.128182 92.47558 
" clip-path="url(#pfd310af858)" style="fill: none; stroke: #ff4500; stroke-width: 1.5; stroke-linecap: square"/>
   </g>
   <g id="patch_3">
    <path d="M 52.94 288.67 
L 52.94 73.68 
" style="fill: none; stroke: #ff4500; stroke-width: 0.8; stroke-linejoin: miter; stroke-linecap: square"/>
   </g>
   <g id="patch_4">
    <path d="M 672.28 288.67 
L 672.28 73.68 
" style="fill: none; stroke: #000000; stroke-width: 0.8; stroke-linejoin: miter; stroke-linecap: square"/>
   </g>
   <g id="patch_5">
    <path d="M 52.94 288.67 
L 672.28 288.67 
" style="fill: none; stroke: #000000; stroke-width: 0.8; stroke-linejoin: miter; stroke-linecap: square"/>
   </g>
   <g id="patch_6">
    <path d="M 52.94 73.68 
L 672.28 73.68 
" style="fill: none; stroke: #808080; stroke-width: 0.8; stroke-linejoin: miter; stroke-linecap: square"/>
   </g>
   <g id="text_8">
    <!-- Output Voltage and Duty Cycle -->
    <g transform="translate(269.620312 67.68) scale(0.12 -0.12)">
     <defs>
      <path id="DejaVuSans-6e" d="M 3513 2113 
L 3513 0 
L 2938 0 
L 2938 2094 
Q 2938 2591 2744 2837 
Q 2550 3084 2163 3084 
Q 1697 3084 1428 2787 
Q 1159 2491 1159 1978 
L 1159 0 
L 581 0 
L 581 3500 
L 1159 3500 
L 1159 2956 
Q 1366 3272 1645 3428 
Q 1925 3584 2291 3584 
Q 2894 3584 3203 3211 
Q 3513 2838 3513 2113 
z
" transform="scale(0.015625)"/>
      <path id="DejaVuSans-64" d="M 2906 2969 
L 2906 4863 
L 3481 4863 
L 3481 0 
L 2906 0 
L 2906 525 
Q 2725 213 2448 61 
Q 2172 -91 1784 -91 
Q 1150 -91 751 415 
Q 353 922 353 1747 
Q 353 2572 751 3078 
Q 1150 3584 1784 3584 
Q 2172 3584 2448 3432 
Q 2725 3281 2906 2969 
z
M 947 1747 
Q 947 1113 1208 752 
Q 1469 391 1925 391 
Q 2381 391 2643 752 
Q 2906 1113 2906 1747 
Q 2906 2381 2643 2742 
Q 2381 3103 1925 3103 
Q 1469 3103 1208 2742 
Q 947 2381 947 1747 
z
" transform="scale(0.015625)"/>
      <path id="DejaVuSans-44" d="M 1259 4147 
L 1259 519 
L 2022 519 
Q 2988 519 3436 956 
Q 3884 1394 3884 2338 
Q 3884 3275 3436 3711 
Q 2988 4147 2022 4147 
L 1259 4147 
z
M 628 4666 
L 1925 4666 
Q 3281 4666 3915 4102 
Q 4550 3538 4550 2338 
Q 4550 1131 3912 565 
Q 3275 0 1925 0 
L 628 0 
L 628 4666 
z
" transform="scale(0.015625)"/>
      <path id="DejaVuSans-79" d="M 2059 -325 
Q 1816 -950 1584 -1140 
Q 1353 -1331 966 -1331 
L 506 -1331 
L 506 -850 
L 844 -850 
Q 1081 -850 1212 -737 
Q 1344 -625 1503 -206 
L 1606 56 
L 191 3500 
L 800 3500 
L 1894 763 
L 2988 3500 
L 3597 3500 
L 2059 -325 
z
" transform="scale(0.015625)"/>
      <path id="DejaVuSans-43" d="M 4122 4306 
L 4122 3641 
Q 3803 3938 3442 4084 
Q 3081 4231 2675 4231 
Q 1875 4231 1450 3742 
Q 1025 3253 1025 2328 
Q 1025 1406 1450 917 
Q 1875 428 2675 428 
Q 3081 428 3442 575 
Q 3803 722 4122 1019 
L 4122 359 
Q 3791 134 3420 21 
Q 3050 -91 2638 -91 
Q 1578 -91 968 557 
Q 359 1206 359 2328 
Q 359 3453 968 4101 
Q 1578 4750 2638 4750 
Q 3056 4750 3426 4639 
Q 3797 4528 4122 4306 
z
" transform="scale(0.015625)"/>
      <path id="DejaVuSans-63" d="M 3122 3366 
L 3122 2828 
Q 2878 2963 2633 3030 
Q 2388 3097 2138 3097 
Q 1578 3097 1268 2742 
Q 959 2388 959 1747 
Q 959 1106 1268 751 
Q 1578 397 2138 397 
Q 2388 397 2633 464 
Q 2878 531 3122 666 
L 3122 134 
Q 2881 22 2623 -34 
Q 2366 -91 2075 -91 
Q 1284 -91 818 406 
Q 353 903 353 1747 
Q 353 2603 823 3093 
Q 1294 3584 2113 3584 
Q 2378 3584 2631 3529 
Q 2884 3475 3122 3366 
z
" transform="scale(0.015625)"/>
     </defs>
     <use xlink:href="#DejaVuSans-4f"/>
     <use xlink:href="#DejaVuSans-75" x="78.710938"/>
     <use xlink:href="#DejaVuSans-74" x="142.089844"/>
     <use xlink:href="#DejaVuSans-70" x="181.298828"/>
     <use xlink:href="#DejaVuSans-75" x="244.775391"/>
     <use xlink:href="#DejaVuSans-74" x="308.154297"/>
     <use xlink:href="#DejaVuSans-20" x="347.363281"/>
     <use xlink:href="#DejaVuSans-56" x="379.150391"/>
     <use xlink:href="#DejaVuSans-6f" x="439.808594"/>
     <use xlink:href="#DejaVuSans-6c" x="500.990234"/>
     <use xlink:href="#DejaVuSans-74" x="528.773438"/>
     <use xlink:href="#DejaVuSans-61" x="567.982422"/>
     <use xlink:href="#DejaVuSans-67" x="629.261719"/>
     <use xlink:href="#DejaVuSans-65" x="692.738281"/>
     <use xlink:href="#DejaVuSans-20" x="754.261719"/>
     <use xlink:href="#DejaVuSans-61" x="786.048828"/>
     <use xlink:href="#DejaVuSans-6e" x="847.328125"/>
     <use xlink:href="#DejaVuSans-64" x="910.707031"/>
     <use xlink:href="#DejaVuSans-20" x="974.183594"/>
     <use xlink:href="#DejaVuSans-44" x="1005.970703"/>
     <use xlink:href="#DejaVuSans-75" x="1082.972656"/>
     <use xlink:href="#DejaVuSans-74" x="1146.351562"/>
     <use xlink:href="#DejaVuSans-79" x="1185.560547"/>
     <use xlink:href="#DejaVuSans-20" x="1244.740234"/>
     <use xlink:href="#DejaVuSans-43" x="1276.527344"/>
     <use xlink:href="#DejaVuSans-79" x="1346.351562"/>
     <use xlink:href="#DejaVuSans-63" x="1405.53125"/>
     <use xlink:href="#DejaVuSans-6c" x="1460.511719"/>
     <use xlink:href="#DejaVuSans-65" x="1488.294922"/>
    </g>
   </g>
  </g>
  <g id="axes_2">
   <g id="patch_7">
    <path d="M 52.94 534.04 
L 672.28 534.04 
L 672.28 319.05 
L 52.94 319.05 
z
" style="fill: #ffffff"/>
   </g>
   <g id="matplotlib.axis_3">
    <g id="xtick_7">
     <g id="line2d_14">
      <g>
       <use xlink:href="#me43f9d3662" x="81.091818" y="534.04" style="stroke: #000000; stroke-width: 0.8"/>
      </g>
     </g>
     <g id="text_9">
      <!-- 0.00 -->
      <g transform="translate(69.959006 548.638438) scale(0.1 -0.1)">
       <defs>
        <path id="DejaVuSans-2e" d="M 684 794 
L 1344 794 
L 1344 0 
L 684 0 
L 684 794 
z
" transform="scale(0.015625)"/>
       </defs>
       <use xlink:href="#DejaVuSans-30"/>
       <use xlink:href="#DejaVuSans-2e" x="63.623047"/>
       <use xlink:href="#DejaVuSans-30" x="95.410156"/>
       <use xlink:href="#DejaVuSans-30" x="159.033203"/>
      </g>
     </g>
    </g>
    <g id="xtick_8">
     <g id="line2d_15">
      <g>
       <use xlink:href="#me43f9d3662" x="192.595207" y="534.04" style="stroke: #000000; stroke-width: 0.8"/>
      </g>
     </g>
     <g id="text_10">
      <!-- 0.02 -->
      <g transform="translate(181.462395 548.638438) scale(0.1 -0.1)">
       <use xlink:href="#DejaVuSans-30"/>
       <use xlink:href="#DejaVuSans-2e" x="63.623047"/>
       <use xlink:href="#DejaVuSans-30" x="95.410156"/>
       <use xlink:href="#DejaVuSans-32" x="159.033203"/>
      </g>
     </g>
    </g>
    <g id="xtick_9">
     <g id="line2d_16">
      <g>
       <use xlink:href="#me43f9d3662" x="304.098597" y="534.04" style="stroke: #000000; stroke-width: 0.8"/>
      </g>
     </g>
     <g id="text_11">
      <!-- 0.04 -->
      <g transform="translate(292.965784 548.638438) scale(0.1 -0.1)">
       <use xlink:href="#DejaVuSans-30"/>
       <use xlink:href="#DejaVuSans-2e" x="63.623047"/>
       <use xlink:href="#DejaVuSans-30" x="95.410156"/>
       <use xlink:href="#DejaVuSans-34" x="159.033203"/>
      </g>
     </g>
    </g>
    <g id="xtick_10">
     <g id="line2d_17">
      <g>
       <use xlink:href="#me43f9d3662" x="415.601986" y="534.04" style="stroke: #000000; stroke-width: 0.8"/>
      </g>
     </g>
     <g id="text_12">
      <!-- 0.06 -->
      <g transform="translate(404.469173 548.638438) scale(0.1 -0.1)">
       <use xlink:href="#DejaVuSans-30"/>
       <use xlink:href="#DejaVuSans-2e" x="63.623047"/>
       <use xlink:href="#DejaVuSans-30" x="95.410156"/>
       <use xlink:href="#DejaVuSans-36" x="159.033203"/>
      </g>
     </g>
    </g>
    <g id="xtick_11">
     <g id="line2d_18">
      <g>
       <use xlink:href="#me43f9d3662" x="527.105375" y="534.04" style="stroke: #000000; stroke-width: 0.8"/>
      </g>
     </g>
     <g id="text_13">
      <!-- 0.08 -->
      <g transform="translate(515.972562 548.638438) scale(0.1 -0.1)">
       <use xlink:href="#DejaVuSans-30"/>
       <use xlink:href="#DejaVuSans-2e" x="63.623047"/>
       <use xlink:href="#DejaVuSans-30" x="95.410156"/>
       <use xlink:href="#DejaVuSans-38" x="159.033203"/>
      </g>
     </g>
    </g>
    <g id="xtick_12">
     <g id="line2d_19">
      <g>
       <use xlink:href="#me43f9d3662" x="638.608764" y="534.04" style="stroke: #000000; stroke-width: 0.8"/>
      </g>
     </g>
     <g id="text_14">
      <!-- 0.10 -->
      <g transform="translate(627.475952 548.638438) scale(0.1 -0.1)">
       <use xlink:href="#DejaVuSans-30"/>
       <use xlink:href="#DejaVuSans-2e" x="63.623047"/>
       <use xlink:href="#DejaVuSans-31" x="95.410156"/>
       <use xlink:href="#DejaVuSans-30" x="159.033203"/>
      </g>
     </g>
    </g>
    <g id="text_15">
     <!-- Time -->
     <g transform="translate(350.376406 562.316563) scale(0.1 -0.1)">
      <defs>
       <path id="DejaVuSans-54" d="M -19 4666 
L 3928 4666 
L 3928 4134 
L 2272 4134 
L 2272 0 
L 1638 0 
L 1638 4134 
L -19 4134 
L -19 4666 
z
" transform="scale(0.015625)"/>
       <path id="DejaVuSans-69" d="M 603 3500 
L 1178 3500 
L 1178 0 
L 603 0 
L 603 3500 
z
M 603 4863 
L 1178 4863 
L 1178 4134 
L 603 4134 
L 603 4863 
z
" transform="scale(0.015625)"/>
       <path id="DejaVuSans-6d" d="M 3328 2828 
Q 3544 3216 3844 3400 
Q 4144 3584 4550 3584 
Q 5097 3584 5394 3201 
Q 5691 2819 5691 2113 
L 5691 0 
L 5113 0 
L 5113 2094 
Q 5113 2597 4934 2840 
Q 4756 3084 4391 3084 
Q 3944 3084 3684 2787 
Q 3425 2491 3425 1978 
L 3425 0 
L 2847 0 
L 2847 2094 
Q 2847 2600 2669 2842 
Q 2491 3084 2119 3084 
Q 1678 3084 1418 2786 
Q 1159 2488 1159 1978 
L 1159 0 
L 581 0 
L 581 3500 
L 1159 3500 
L 1159 2956 
Q 1356 3278 1631 3431 
Q 1906 3584 2284 3584 
Q 2666 3584 2933 3390 
Q 3200 3197 3328 2828 
z
" transform="scale(0.015625)"/>
      </defs>
      <use xlink:href="#DejaVuSans-54"/>
      <use xlink:href="#DejaVuSans-69" x="57.958984"/>
      <use xlink:href="#DejaVuSans-6d" x="85.742188"/>
      <use xlink:href="#DejaVuSans-65" x="183.154297"/>
     </g>
    </g>
   </g>
   <g id="matplotlib.axis_4">
    <g id="ytick_7">
     <g id="line2d_20">
      <defs>
       <path id="mb968b43ad1" d="M 0 0 
L -3.5 0 
" style="stroke: #008000; stroke-width: 0.8"/>
      </defs>
      <g>
       <use xlink:href="#mb968b43ad1" x="52.94" y="524.284915" style="fill: #008000; stroke: #008000; stroke-width: 0.8"/>
      </g>
     </g>
     <g id="text_16">
      <!-- −60 -->
      <g style="fill: #008000" transform="translate(24.835313 528.084134) scale(0.1 -0.1)">
       <defs>
        <path id="DejaVuSans-2212" d="M 678 2272 
L 4684 2272 
L 4684 1741 
L 678 1741 
L 678 2272 
z
" transform="scale(0.015625)"/>
       </defs>
       <use xlink:href="#DejaVuSans-2212"/>
       <use xlink:href="#DejaVuSans-36" x="83.789062"/>
       <use xlink:href="#DejaVuSans-30" x="147.412109"/>
      </g>
     </g>
    </g>
    <g id="ytick_8">
     <g id="line2d_21">
      <g>
       <use xlink:href="#mb968b43ad1" x="52.94" y="491.692496" style="fill: #008000; stroke: #008000; stroke-width: 0.8"/>
      </g>
     </g>
     <g id="text_17">
      <!-- −50 -->
      <g style="fill: #008000" transform="translate(24.835313 495.491715) scale(0.1 -0.1)">
       <defs>
        <path id="DejaVuSans-35" d="M 691 4666 
L 3169 4666 
L 3169 4134 
L 1269 4134 
L 1269 2991 
Q 1406 3038 1543 3061 
Q 1681 3084 1819 3084 
Q 2600 3084 3056 2656 
Q 3513 2228 3513 1497 
Q 3513 744 3044 326 
Q 2575 -91 1722 -91 
Q 1428 -91 1123 -41 
Q 819 9 494 109 
L 494 744 
Q 775 591 1075 516 
Q 1375 441 1709 441 
Q 2250 441 2565 725 
Q 2881 1009 2881 1497 
Q 2881 1984 2565 2268 
Q 2250 2553 1709 2553 
Q 1456 2553 1204 2497 
Q 953 2441 691 2322 
L 691 4666 
z
" transform="scale(0.015625)"/>
       </defs>
       <use xlink:href="#DejaVuSans-2212"/>
       <use xlink:href="#DejaVuSans-35" x="83.789062"/>
       <use xlink:href="#DejaVuSans-30" x="147.412109"/>
      </g>
     </g>
    </g>
    <g id="ytick_9">
     <g id="line2d_22">
      <g>
       <use xlink:href="#mb968b43ad1" x="52.94" y="459.100077" style="fill: #008000; stroke: #008000; stroke-width: 0.8"/>
      </g>
     </g>
     <g id="text_18">
      <!-- −40 -->
      <g style="fill: #008000" transform="translate(24.835313 462.899296) scale(0.1 -0.1)">
       <use xlink:href="#DejaVuSans-2212"/>
       <use xlink:href="#DejaVuSans-34" x="83.789062"/>
       <use xlink:href="#DejaVuSans-30" x="147.412109"/>
      </g>
     </g>
    </g>
    <g id="ytick_10">
     <g id="line2d_23">
      <g>
       <use xlink:href="#mb968b43ad1" x="52.94" y="426.507658" style="fill: #008000; stroke: #008000; stroke-width: 0.8"/>
      </g>
     </g>
     <g id="text_19">
      <!-- −30 -->
      <g style="fill: #008000" transform="translate(24.835313 430.306877) scale(0.1 -0.1)">
       <defs>
        <path id="DejaVuSans-33" d="M 2597 2516 
Q 3050 2419 3304 2112 
Q 3559 1806 3559 1356 
Q 3559 666 3084 287 
Q 2609 -91 1734 -91 
Q 1441 -91 1130 -33 
Q 819 25 488 141 
L 488 750 
Q 750 597 1062 519 
Q 1375 441 1716 441 
Q 2309 441 2620 675 
Q 2931 909 2931 1356 
Q 2931 1769 2642 2001 
Q 2353 2234 1838 2234 
L 1294 2234 
L 1294 2753 
L 1863 2753 
Q 2328 2753 2575 2939 
Q 2822 3125 2822 3475 
Q 2822 3834 2567 4026 
Q 2313 4219 1838 4219 
Q 1578 4219 1281 4162 
Q 984 4106 628 3988 
L 628 4550 
Q 988 4650 1302 4700 
Q 1616 4750 1894 4750 
Q 2613 4750 3031 4423 
Q 3450 4097 3450 3541 
Q 3450 3153 3228 2886 
Q 3006 2619 2597 2516 
z
" transform="scale(0.015625)"/>
       </defs>
       <use xlink:href="#DejaVuSans-2212"/>
       <use xlink:href="#DejaVuSans-33" x="83.789062"/>
       <use xlink:href="#DejaVuSans-30" x="147.412109"/>
      </g>
     </g>
    </g>
    <g id="ytick_11">
     <g id="line2d_24">
      <g>
       <use xlink:href="#mb968b43ad1" x="52.94" y="393.915239" style="fill: #008000; stroke: #008000; stroke-width: 0.8"/>
      </g>
     </g>
     <g id="text_20">
      <!-- −20 -->
      <g style="fill: #008000" transform="translate(24.835313 397.714457) scale(0.1 -0.1)">
       <use xlink:href="#DejaVuSans-2212"/>
       <use xlink:href="#DejaVuSans-32" x="83.789062"/>
       <use xlink:href="#DejaVuSans-30" x="147.412109"/>
      </g>
     </g>
    </g>
    <g id="ytick_12">
     <g id="line2d_25">
      <g>
       <use xlink:href="#mb968b43ad1" x="52.94" y="361.322819" style="fill: #008000; stroke: #008000; stroke-width: 0.8"/>
      </g>
     </g>
     <g id="text_21">
      <!-- −10 -->
      <g style="fill: #008000" transform="translate(24.835313 365.122038) scale(0.1 -0.1)">
       <use xlink:href="#DejaVuSans-2212"/>
       <use xlink:href="#DejaVuSans-31" x="83.789062"/>
       <use xlink:href="#DejaVuSans-30" x="147.412109"/>
      </g>
     </g>
    </g>
    <g id="ytick_13">
     <g id="line2d_26">
      <g>
       <use xlink:href="#mb968b43ad1" x="52.94" y="328.7304" style="fill: #008000; stroke: #008000; stroke-width: 0.8"/>
      </g>
     </g>
     <g id="text_22">
      <!-- 0 -->
      <g style="fill: #008000" transform="translate(39.5775 332.529619) scale(0.1 -0.1)">
       <use xlink:href="#DejaVuSans-30"/>
      </g>
     </g>
    </g>
    <g id="text_23">
     <!-- Cost -->
     <g style="fill: #008000" transform="translate(18.755625 437.660625) rotate(-90) scale(0.1 -0.1)">
      <defs>
       <path id="DejaVuSans-73" d="M 2834 3397 
L 2834 2853 
Q 2591 2978 2328 3040 
Q 2066 3103 1784 3103 
Q 1356 3103 1142 2972 
Q 928 2841 928 2578 
Q 928 2378 1081 2264 
Q 1234 2150 1697 2047 
L 1894 2003 
Q 2506 1872 2764 1633 
Q 3022 1394 3022 966 
Q 3022 478 2636 193 
Q 2250 -91 1575 -91 
Q 1294 -91 989 -36 
Q 684 19 347 128 
L 347 722 
Q 666 556 975 473 
Q 1284 391 1588 391 
Q 1994 391 2212 530 
Q 2431 669 2431 922 
Q 2431 1156 2273 1281 
Q 2116 1406 1581 1522 
L 1381 1569 
Q 847 1681 609 1914 
Q 372 2147 372 2553 
Q 372 3047 722 3315 
Q 1072 3584 1716 3584 
Q 2034 3584 2315 3537 
Q 2597 3491 2834 3397 
z
" transform="scale(0.015625)"/>
      </defs>
      <use xlink:href="#DejaVuSans-43"/>
      <use xlink:href="#DejaVuSans-6f" x="69.824219"/>
      <use xlink:href="#DejaVuSans-73" x="131.005859"/>
      <use xlink:href="#DejaVuSans-74" x="183.105469"/>
     </g>
    </g>
   </g>
   <g id="line2d_27">
    <path d="M 81.091818 524.267727 
L 81.259073 511.676141 
L 81.48208 509.889369 
L 81.81659 504.73747 
L 82.318355 492.815803 
L 83.377638 465.740101 
L 83.879403 459.083043 
L 84.269665 454.068412 
L 84.827182 443.25291 
L 86.165222 415.224118 
L 86.611236 411.233979 
L 87.001498 408.435384 
L 87.503263 402.499668 
L 88.339538 389.189083 
L 89.733331 366.936996 
L 91.294378 348.390087 
L 92.130654 340.849429 
L 92.743922 337.396999 
L 93.635949 333.324082 
L 94.360721 330.966621 
L 94.97399 329.67156 
L 95.475755 329.064086 
L 95.921769 328.836624 
L 96.144776 328.904142 
L 96.590789 329.059093 
L 97.092555 329.493814 
L 97.705823 330.339797 
L 98.542099 331.927717 
L 99.657132 334.571345 
L 100.270401 335.938559 
L 100.493408 335.981126 
L 101.441187 335.472223 
L 101.8872 335.621655 
L 102.444717 336.066757 
L 103.057986 336.564293 
L 103.280993 336.324912 
L 104.061516 335.113154 
L 104.50753 334.919218 
L 104.953543 334.985436 
L 105.455309 335.297999 
L 106.068577 335.710888 
L 107.016356 335.218977 
L 107.46237 335.371722 
L 108.019887 335.818159 
L 108.911914 336.614072 
L 109.525182 336.221004 
L 109.971196 336.260411 
L 110.472961 336.556572 
L 111.08623 337.196658 
L 111.811002 337.98988 
L 112.201264 338.058471 
L 112.703029 338.380615 
L 113.372049 339.120577 
L 114.208325 340.404967 
L 114.542835 340.807267 
L 115.0446 340.887364 
L 115.546365 341.222974 
L 116.215386 341.967946 
L 117.107413 343.326973 
L 118.445454 345.814129 
L 122.626831 353.903314 
L 122.738334 353.889234 
L 122.905589 353.58536 
L 123.518858 352.183934 
L 124.020623 351.597876 
L 124.466637 351.386315 
L 124.968402 351.408106 
L 125.470167 351.492637 
L 125.693174 350.966199 
L 126.250691 349.35737 
L 126.752456 348.566688 
L 127.19847 348.244352 
L 127.644483 348.190026 
L 128.146248 348.371191 
L 128.759517 348.848711 
L 129.595792 349.807246 
L 130.878081 351.657365 
L 134.055928 356.415524 
L 134.724948 356.102125 
L 135.282465 356.13431 
L 135.951486 356.419357 
L 136.843513 356.910217 
L 137.456781 356.286708 
L 137.958547 356.097581 
L 138.516064 356.135885 
L 139.185084 356.426515 
L 140.077111 357.081632 
L 141.526655 358.470599 
L 144.98326 361.873855 
L 145.094764 361.827247 
L 145.31777 361.270717 
L 145.875287 359.977887 
L 146.432804 359.213089 
L 146.990321 358.82797 
L 147.547838 358.716681 
L 147.826597 358.668103 
L 147.993852 358.300313 
L 148.60712 356.604957 
L 149.108886 355.803344 
L 149.610651 355.384772 
L 150.112416 355.249714 
L 150.837188 355.143639 
L 151.338953 354.494765 
L 151.840719 354.201937 
L 152.342484 354.171822 
L 152.900001 354.36417 
L 153.569021 354.664059 
L 154.18229 354.094527 
L 154.684055 353.964232 
L 155.241572 354.078083 
L 155.910592 354.469023 
L 156.802619 355.267926 
L 158.307915 356.966347 
L 161.76452 360.926105 
L 163.660078 362.715862 
L 165.444132 364.102105 
L 167.283938 365.25687 
L 167.618448 365.326178 
L 168.398972 365.200882 
L 169.402502 365.286724 
L 170.461785 365.386236 
L 171.186557 365.137323 
L 172.022832 365.096888 
L 173.026363 365.081063 
L 174.141396 362.641701 
L 174.698913 362.060926 
L 175.25643 361.766993 
L 175.813947 361.511137 
L 176.817478 359.274999 
L 177.374995 358.712558 
L 177.932512 358.481059 
L 178.490029 358.326375 
L 178.713035 357.628077 
L 179.270552 355.855817 
L 179.772318 354.902774 
L 180.274083 354.38758 
L 180.775848 354.195145 
L 181.277613 354.092195 
L 181.50062 353.477672 
L 182.002385 352.067271 
L 182.504151 351.256748 
L 182.950164 350.905067 
L 183.396178 350.813888 
L 183.897943 350.946875 
L 184.511212 351.357887 
L 185.347487 352.21501 
L 186.629776 353.892583 
L 191.089912 359.963686 
L 192.873966 361.907387 
L 194.602268 363.467126 
L 196.386323 364.776315 
L 198.226129 365.854137 
L 200.23319 366.772884 
L 202.463257 367.546928 
L 205.027835 368.196189 
L 208.094178 368.732636 
L 210.993267 369.04815 
L 211.10477 368.899557 
L 211.327777 368.029728 
L 211.662287 365.535801 
L 212.275556 358.666083 
L 212.833072 353.763298 
L 213.390589 350.755915 
L 214.282617 346.847704 
L 215.787912 337.363331 
L 216.233926 336.32029 
L 216.679939 335.780843 
L 217.125953 335.591538 
L 217.571967 335.659154 
L 218.073732 335.97057 
L 218.742752 336.687141 
L 219.579028 337.95298 
L 220.694061 340.092814 
L 222.422364 343.965418 
L 223.147136 345.440066 
L 223.314391 345.366393 
L 223.760405 345.124245 
L 224.206418 345.152835 
L 224.708183 345.429334 
L 225.377204 346.093344 
L 225.934721 346.603967 
L 226.157727 346.273848 
L 226.603741 345.726984 
L 227.049755 345.522495 
L 227.495768 345.577305 
L 227.997533 345.874157 
L 229.001064 346.578626 
L 229.447077 346.578093 
L 229.948843 346.821972 
L 230.562111 347.379635 
L 231.788649 348.610638 
L 232.234662 348.641079 
L 232.792179 348.938271 
L 233.461199 349.568494 
L 234.353227 350.460083 
L 235.189502 349.57099 
L 235.635516 349.498652 
L 236.137281 349.661802 
L 236.750549 350.119569 
L 237.08506 350.321747 
L 237.308066 349.978464 
L 237.809832 349.323939 
L 238.255845 349.091901 
L 238.701859 349.106959 
L 239.203624 349.347624 
L 239.872644 349.936563 
L 240.820423 351.112865 
L 242.381471 353.472948 
L 245.670821 358.481116 
L 247.454875 360.769541 
L 249.183177 362.628071 
L 250.91148 364.156051 
L 252.695534 365.430878 
L 254.591092 366.504625 
L 256.653904 367.409041 
L 258.939724 368.16238 
L 261.560054 368.787274 
L 264.682148 369.298175 
L 267.525485 369.585532 
L 267.636988 369.436215 
L 267.859995 368.564682 
L 268.529015 365.436372 
L 269.142284 363.640202 
L 269.699801 362.626109 
L 270.536076 361.367086 
L 271.595359 357.065095 
L 272.097124 356.054772 
L 272.598889 355.494719 
L 273.100654 355.266474 
L 273.267909 355.183555 
L 273.490916 354.645464 
L 273.992681 353.361878 
L 274.494447 352.636027 
L 274.94046 352.335065 
L 275.386474 352.277847 
L 275.888239 352.434051 
L 276.055494 352.465868 
L 276.222749 352.227091 
L 276.780266 351.149275 
L 277.22628 350.718153 
L 277.672293 350.573957 
L 278.174059 350.670719 
L 278.731575 351.016824 
L 279.512099 351.793596 
L 280.627133 353.254882 
L 286.425309 361.344088 
L 288.153612 363.153606 
L 289.881914 364.643276 
L 291.665969 365.886952 
L 293.561526 366.934793 
L 295.624339 367.817529 
L 297.910158 368.552892 
L 300.58624 369.173793 
L 300.92075 369.156142 
L 301.088005 368.728574 
L 301.366763 367.167751 
L 301.980032 363.782301 
L 302.537549 361.813811 
L 303.095066 360.578034 
L 303.87559 359.222221 
L 304.265852 357.006108 
L 304.823369 354.423531 
L 305.325134 353.004274 
L 305.826899 352.188202 
L 306.272913 351.834082 
L 306.718926 351.74214 
L 307.220691 351.87576 
L 307.83396 352.28915 
L 308.670235 353.151584 
L 309.952524 354.840316 
L 314.41266 360.957779 
L 316.196714 362.917892 
L 317.869265 364.445223 
L 318.03652 364.407858 
L 318.761292 363.489852 
L 319.318809 363.140836 
L 319.932078 363.011069 
L 320.824105 362.971226 
L 321.493125 361.875113 
L 322.050642 361.398566 
L 322.608159 361.207485 
L 323.221428 361.232747 
L 324.001951 361.506855 
L 325.061234 362.136814 
L 327.179798 363.725327 
L 329.855879 365.646638 
L 331.974444 366.885854 
L 334.14876 367.885809 
L 334.316015 367.873036 
L 334.48327 367.489116 
L 334.762029 365.998844 
L 335.375297 362.367862 
L 335.932814 360.277563 
L 336.490331 358.987254 
L 337.326607 357.402771 
L 337.828372 354.447008 
L 338.385889 352.072864 
L 338.887654 350.811514 
L 339.389419 350.130673 
L 339.835433 349.882007 
L 340.05844 349.724834 
L 340.281446 349.133466 
L 340.950467 346.971416 
L 341.39648 346.219248 
L 341.842494 345.864719 
L 342.288507 345.808622 
L 342.901776 345.876707 
L 343.124783 345.393813 
L 343.626548 344.170574 
L 344.072562 343.604741 
L 344.518575 343.398474 
L 344.964589 343.462964 
L 345.466354 343.781556 
L 346.135374 344.2359 
L 346.63714 344.524127 
L 347.250408 345.146723 
L 348.086684 346.33001 
L 348.922959 347.457839 
L 349.591979 348.101823 
L 350.484006 349.306527 
L 351.376034 350.500024 
L 351.59904 350.167594 
L 352.045054 349.58889 
L 352.491067 349.345311 
L 352.937081 349.356123 
L 353.438846 349.598594 
L 354.163618 350.017723 
L 354.442377 349.456199 
L 354.944142 348.703095 
L 355.390156 348.417541 
L 355.836169 348.401876 
L 356.337934 348.628377 
L 357.006955 348.988833 
L 357.787478 348.080749 
L 358.233492 347.982933 
L 358.679506 348.112873 
L 359.237022 348.516302 
L 359.738788 348.921388 
L 359.961795 348.638378 
L 360.407808 348.155205 
L 360.853822 347.992005 
L 361.299835 348.072004 
L 361.857352 348.428997 
L 362.582124 349.198552 
L 363.585655 350.625041 
L 365.425461 353.712324 
L 367.934287 357.858363 
L 368.101542 357.854742 
L 368.324549 357.362126 
L 368.826314 356.364494 
L 369.328079 355.819346 
L 369.829844 355.607373 
L 370.33161 355.641989 
L 370.833375 355.709558 
L 371.056382 355.155944 
L 371.558147 353.851477 
L 372.059912 353.114552 
L 372.505926 352.80935 
L 372.951939 352.751687 
L 373.453705 352.910791 
L 374.234228 353.203659 
L 374.847497 353.575261 
L 375.683772 354.384898 
L 377.133316 355.857763 
L 378.081095 356.784997 
L 379.753646 358.790078 
L 382.764238 362.374399 
L 384.548292 364.157931 
L 384.715547 364.137125 
L 384.882802 363.732523 
L 385.719077 360.851804 
L 386.276594 359.803924 
L 386.77836 359.280862 
L 387.280125 359.049372 
L 387.44738 358.955033 
L 387.614635 358.561974 
L 388.729669 354.907583 
L 389.231434 354.207582 
L 389.677448 353.918954 
L 390.123461 353.866807 
L 390.625227 354.022198 
L 391.294247 354.484884 
L 392.186274 355.398677 
L 393.69157 357.318116 
L 396.033141 360.36059 
L 396.256148 360.180711 
L 396.757913 359.869693 
L 397.31543 359.790314 
L 397.928699 359.935702 
L 398.932229 360.230845 
L 399.433994 359.629953 
L 399.93576 359.339681 
L 400.493276 359.284315 
L 401.106545 359.456742 
L 401.719814 359.651826 
L 402.221579 359.35462 
L 402.779096 359.294514 
L 403.392365 359.463413 
L 404.172888 359.917709 
L 404.451647 360.054762 
L 405.120667 359.746286 
L 405.678184 359.762398 
L 406.347204 360.01187 
L 407.239232 360.596184 
L 408.688776 361.850685 
L 412.424139 365.181873 
L 412.591394 365.13908 
L 412.758649 364.708982 
L 413.594925 361.704975 
L 414.152442 360.594967 
L 414.654207 360.025619 
L 415.155972 359.754646 
L 415.323227 359.647852 
L 415.490482 359.240392 
L 416.549765 355.604589 
L 417.05153 354.822849 
L 417.497543 354.477694 
L 417.943557 354.380249 
L 418.445322 354.494798 
L 419.058591 354.871014 
L 419.894866 355.665019 
L 421.232907 357.296197 
L 422.180686 358.397237 
L 422.347941 358.118827 
L 422.626699 356.956439 
L 423.072713 353.720609 
L 423.96474 344.919964 
L 424.466505 340.952835 
L 425.024022 338.388568 
L 426.417814 332.619088 
L 426.808076 331.861523 
L 427.086835 331.711762 
L 427.198338 331.806585 
L 428.759386 332.195652 
L 429.539909 332.012271 
L 430.654943 331.770322 
L 431.769977 332.182389 
L 432.383246 332.732973 
L 433.108018 333.704461 
L 434.000045 335.316576 
L 435.170831 337.952633 
L 437.12214 343.011977 
L 440.07698 350.594082 
L 440.969007 352.462496 
L 443.923847 357.119799 
L 445.317639 358.722752 
L 449.220258 363.34019 
L 451.060063 365.110061 
L 452.844118 366.523819 
L 454.683924 367.700516 
L 456.635233 368.685415 
L 458.809549 369.526851 
L 461.262624 370.228137 
L 462.935174 370.563664 
L 463.158181 370.269176 
L 463.827202 369.482243 
L 464.496222 369.01803 
L 465.276746 368.754574 
L 465.778511 368.616514 
L 466.559035 367.53987 
L 467.172303 367.082067 
L 467.841324 366.852643 
L 468.510344 366.641508 
L 469.569626 364.212206 
L 470.127143 363.600162 
L 470.68466 363.299943 
L 471.297929 363.060439 
L 472.301459 360.932132 
L 472.803224 360.458172 
L 473.30499 360.25779 
L 473.862507 360.271246 
L 474.531527 360.520092 
L 475.423554 361.106492 
L 476.873098 362.368413 
L 480.719965 365.813083 
L 482.671274 367.215402 
L 484.622584 368.345976 
L 486.685396 369.282944 
L 488.971216 370.070509 
L 491.535794 370.715148 
L 494.602137 371.2489 
L 498.393252 371.673237 
L 503.466656 372.002132 
L 510.714377 372.240645 
L 510.881632 372.055762 
L 511.104639 371.163941 
L 511.439149 368.630806 
L 511.996666 362.251322 
L 513.669216 341.648405 
L 514.505492 335.711409 
L 515.007257 333.473728 
L 515.397519 332.599591 
L 515.620526 332.458696 
L 515.843533 332.744123 
L 516.122291 333.231667 
L 517.237325 335.468878 
L 517.627587 335.732156 
L 517.962097 335.71606 
L 518.352359 335.47179 
L 519.188634 334.567269 
L 520.638178 332.934488 
L 521.251447 332.604195 
L 521.585957 332.561305 
L 521.808964 332.642459 
L 522.366481 332.854465 
L 522.979749 333.359749 
L 523.64877 334.219277 
L 524.485045 335.684719 
L 525.600079 338.148208 
L 527.328382 342.600104 
L 530.784987 351.542318 
L 532.569041 355.502104 
L 534.241592 358.678103 
L 535.802639 361.184404 
L 537.363687 363.28662 
L 538.980486 365.089218 
L 540.597285 366.565442 
L 542.325588 367.841832 
L 544.165393 368.92054 
L 546.172454 369.835053 
L 546.67422 369.969391 
L 547.175985 369.757362 
L 548.01226 369.614493 
L 549.127294 369.668279 
L 549.517556 369.612735 
L 550.242328 369.257885 
L 551.078604 369.115729 
L 552.137886 369.187298 
L 553.698933 369.547706 
L 557.5458 370.59331 
L 557.713055 370.18437 
L 558.660834 366.768716 
L 559.218351 365.638492 
L 559.775868 364.95583 
L 560.444888 364.248541 
L 561.671426 360.251262 
L 562.173191 359.541864 
L 562.674956 359.18886 
L 563.176721 359.099948 
L 563.734238 359.228429 
L 564.45901 359.64534 
L 565.462541 360.5098 
L 567.358098 362.509664 
L 569.030649 364.173867 
L 569.866925 364.478284 
L 571.093462 365.197218 
L 571.818234 365.585643 
L 572.543006 365.627294 
L 573.435033 365.912943 
L 574.773074 366.596483 
L 580.180988 369.574983 
L 582.466808 370.478477 
L 584.919882 371.208041 
L 587.707467 371.802838 
L 590.996817 372.277626 
L 591.164072 372.10964 
L 592.390609 369.165531 
L 593.003878 368.434604 
L 593.617147 368.024308 
L 593.895905 367.84095 
L 594.118912 367.184965 
L 594.73218 365.551361 
L 595.289697 364.652651 
L 595.847214 364.151489 
L 596.404731 363.93782 
L 596.627738 363.842077 
L 596.794993 363.434203 
L 597.408262 361.595917 
L 597.965779 360.627821 
L 598.467544 360.168054 
L 598.969309 359.99364 
L 599.471074 359.875414 
L 599.805585 358.945463 
L 600.30735 357.872378 
L 600.809115 357.278646 
L 601.31088 357.03706 
L 601.812646 357.055832 
L 602.425914 357.335064 
L 603.206438 357.968175 
L 604.377224 359.251457 
L 607.88958 363.401471 
L 609.060366 362.018121 
L 609.617883 361.873911 
L 610.231152 361.96552 
L 610.621413 362.053111 
L 610.788668 361.755663 
L 611.346185 360.704241 
L 611.847951 360.192467 
L 612.349716 359.98104 
L 612.907233 360.004851 
L 613.576253 360.288367 
L 614.46828 360.945848 
L 615.862073 362.297477 
L 619.820443 366.261767 
L 621.716001 367.788934 
L 623.611558 369.030059 
L 625.562868 370.043614 
L 627.681432 370.894398 
L 630.023003 371.598488 
L 630.190258 371.456112 
L 631.416795 368.701355 
L 632.030064 368.044351 
L 632.643333 367.698281 
L 632.922091 367.542176 
L 633.145098 366.911756 
L 633.702615 365.454554 
L 634.260132 364.557941 
L 634.817649 364.064739 
L 635.375166 363.862976 
L 635.765428 363.779064 
L 636.880462 362.195437 
L 637.382227 361.970679 
L 637.939744 361.960863 
L 638.608764 362.02506 
L 639.222033 361.197708 
L 639.723798 360.884865 
L 640.225563 360.814329 
L 640.838832 360.967177 
L 641.730859 361.248088 
L 642.344128 361.418755 
L 643.124651 361.877776 
L 644.128182 362.70288 
L 644.128182 362.70288 
" clip-path="url(#p439c9d4aed)" style="fill: none; stroke: #008000; stroke-width: 1.5; stroke-linecap: square"/>
   </g>
   <g id="patch_8">
    <path d="M 52.94 534.04 
L 52.94 319.05 
" style="fill: none; stroke: #000000; stroke-width: 0.8; stroke-linejoin: miter; stroke-linecap: square"/>
   </g>
   <g id="patch_9">
    <path d="M 672.28 534.04 
L 672.28 319.05 
" style="fill: none; stroke: #000000; stroke-width: 0.8; stroke-linejoin: miter; stroke-linecap: square"/>
   </g>
   <g id="patch_10">
    <path d="M 52.94 534.04 
L 672.28 534.04 
" style="fill: none; stroke: #000000; stroke-width: 0.8; stroke-linejoin: miter; stroke-linecap: square"/>
   </g>
   <g id="patch_11">
    <path d="M 52.94 319.05 
L 672.28 319.05 
" style="fill: none; stroke: #000000; stroke-width: 0.8; stroke-linejoin: miter; stroke-linecap: square"/>
   </g>
   <g id="text_24">
    <!-- Cost Over Time -->
    <g transform="translate(316.344375 313.05) scale(0.12 -0.12)">
     <defs>
      <path id="DejaVuSans-76" d="M 191 3500 
L 800 3500 
L 1894 563 
L 2988 3500 
L 3597 3500 
L 2284 0 
L 1503 0 
L 191 3500 
z
" transform="scale(0.015625)"/>
      <path id="DejaVuSans-72" d="M 2631 2963 
Q 2534 3019 2420 3045 
Q 2306 3072 2169 3072 
Q 1681 3072 1420 2755 
Q 1159 2438 1159 1844 
L 1159 0 
L 581 0 
L 581 3500 
L 1159 3500 
L 1159 2956 
Q 1341 3275 1631 3429 
Q 1922 3584 2338 3584 
Q 2397 3584 2469 3576 
Q 2541 3569 2628 3553 
L 2631 2963 
z
" transform="scale(0.015625)"/>
     </defs>
     <use xlink:href="#DejaVuSans-43"/>
     <use xlink:href="#DejaVuSans-6f" x="69.824219"/>
     <use xlink:href="#DejaVuSans-73" x="131.005859"/>
     <use xlink:href="#DejaVuSans-74" x="183.105469"/>
     <use xlink:href="#DejaVuSans-20" x="222.314453"/>
     <use xlink:href="#DejaVuSans-4f" x="254.101562"/>
     <use xlink:href="#DejaVuSans-76" x="332.8125"/>
     <use xlink:href="#DejaVuSans-65" x="391.992188"/>
     <use xlink:href="#DejaVuSans-72" x="453.515625"/>
     <use xlink:href="#DejaVuSans-20" x="494.628906"/>
     <use xlink:href="#DejaVuSans-54" x="526.416016"/>
     <use xlink:href="#DejaVuSans-69" x="584.375"/>
     <use xlink:href="#DejaVuSans-6d" x="612.158203"/>
     <use xlink:href="#DejaVuSans-65" x="709.570312"/>
    </g>
   </g>
  </g>
  <g id="axes_3">
   <g id="matplotlib.axis_5">
    <g id="ytick_14">
     <g id="line2d_28">
      <defs>
       <path id="m77fc23bd84" d="M 0 0 
L 3.5 0 
" style="stroke: #4682b4; stroke-width: 0.8"/>
      </defs>
      <g>
       <use xlink:href="#m77fc23bd84" x="672.28" y="258.106785" style="fill: #4682b4; stroke: #4682b4; stroke-width: 0.8"/>
      </g>
     </g>
     <g id="text_25">
      <!-- 0.2 -->
      <g style="fill: #4682b4" transform="translate(679.28 261.906004) scale(0.1 -0.1)">
       <use xlink:href="#DejaVuSans-30"/>
       <use xlink:href="#DejaVuSans-2e" x="63.623047"/>
       <use xlink:href="#DejaVuSans-32" x="95.410156"/>
      </g>
     </g>
    </g>
    <g id="ytick_15">
     <g id="line2d_29">
      <g>
       <use xlink:href="#m77fc23bd84" x="672.28" y="214.443157" style="fill: #4682b4; stroke: #4682b4; stroke-width: 0.8"/>
      </g>
     </g>
     <g id="text_26">
      <!-- 0.4 -->
      <g style="fill: #4682b4" transform="translate(679.28 218.242376) scale(0.1 -0.1)">
       <use xlink:href="#DejaVuSans-30"/>
       <use xlink:href="#DejaVuSans-2e" x="63.623047"/>
       <use xlink:href="#DejaVuSans-34" x="95.410156"/>
      </g>
     </g>
    </g>
    <g id="ytick_16">
     <g id="line2d_30">
      <g>
       <use xlink:href="#m77fc23bd84" x="672.28" y="170.779529" style="fill: #4682b4; stroke: #4682b4; stroke-width: 0.8"/>
      </g>
     </g>
     <g id="text_27">
      <!-- 0.6 -->
      <g style="fill: #4682b4" transform="translate(679.28 174.578748) scale(0.1 -0.1)">
       <use xlink:href="#DejaVuSans-30"/>
       <use xlink:href="#DejaVuSans-2e" x="63.623047"/>
       <use xlink:href="#DejaVuSans-36" x="95.410156"/>
      </g>
     </g>
    </g>
    <g id="ytick_17">
     <g id="line2d_31">
      <g>
       <use xlink:href="#m77fc23bd84" x="672.28" y="127.115901" style="fill: #4682b4; stroke: #4682b4; stroke-width: 0.8"/>
      </g>
     </g>
     <g id="text_28">
      <!-- 0.8 -->
      <g style="fill: #4682b4" transform="translate(679.28 130.91512) scale(0.1 -0.1)">
       <use xlink:href="#DejaVuSans-30"/>
       <use xlink:href="#DejaVuSans-2e" x="63.623047"/>
       <use xlink:href="#DejaVuSans-38" x="95.410156"/>
      </g>
     </g>
    </g>
    <g id="ytick_18">
     <g id="line2d_32">
      <g>
       <use xlink:href="#m77fc23bd84" x="672.28" y="83.452273" style="fill: #4682b4; stroke: #4682b4; stroke-width: 0.8"/>
      </g>
     </g>
     <g id="text_29">
      <!-- 1.0 -->
      <g style="fill: #4682b4" transform="translate(679.28 87.251491) scale(0.1 -0.1)">
       <use xlink:href="#DejaVuSans-31"/>
       <use xlink:href="#DejaVuSans-2e" x="63.623047"/>
       <use xlink:href="#DejaVuSans-30" x="95.410156"/>
      </g>
     </g>
    </g>
    <g id="text_30">
     <!-- Duty Cycle -->
     <g style="fill: #4682b4" transform="translate(706.781563 208.367969) rotate(-90) scale(0.1 -0.1)">
      <use xlink:href="#DejaVuSans-44"/>
      <use xlink:href="#DejaVuSans-75" x="77.001953"/>
      <use xlink:href="#DejaVuSans-74" x="140.380859"/>
      <use xlink:href="#DejaVuSans-79" x="179.589844"/>
      <use xlink:href="#DejaVuSans-20" x="238.769531"/>
      <use xlink:href="#DejaVuSans-43" x="270.556641"/>
      <use xlink:href="#DejaVuSans-79" x="340.380859"/>
      <use xlink:href="#DejaVuSans-63" x="399.560547"/>
      <use xlink:href="#DejaVuSans-6c" x="454.541016"/>
      <use xlink:href="#DejaVuSans-65" x="482.324219"/>
     </g>
    </g>
   </g>
   <g id="line2d_33">
    <path d="M 81.091818 180.98565 
L 86.611236 180.98565 
L 86.722739 102.367843 
L 92.186405 102.367843 
L 92.297909 83.452273 
L 97.761575 83.452273 
L 97.873078 134.407834 
L 103.336744 134.407834 
L 103.448248 114.484351 
L 108.911914 114.484351 
L 109.023417 101.017485 
L 114.487083 101.017485 
L 114.598587 83.452273 
L 120.062253 83.452273 
L 120.173756 116.307987 
L 125.637422 116.307987 
L 125.748926 83.452273 
L 131.212592 83.452273 
L 131.324095 98.025395 
L 136.787761 98.025395 
L 136.899264 83.452273 
L 142.362931 83.452273 
L 142.474434 106.330077 
L 147.9381 106.330077 
L 148.049603 97.222258 
L 153.513269 97.222258 
L 153.624773 83.452273 
L 164.663608 83.452273 
L 164.775112 90.645345 
L 170.238778 90.645345 
L 170.350281 102.095415 
L 175.813947 102.095415 
L 175.925451 110.031999 
L 181.389117 110.031999 
L 181.50062 86.397222 
L 186.964286 86.397222 
L 187.07579 83.452273 
L 203.689795 83.452273 
L 203.801298 87.483887 
L 209.264964 87.483887 
L 209.376467 177.065682 
L 214.840133 177.065682 
L 214.951637 83.452273 
L 220.415303 83.452273 
L 220.526806 112.710522 
L 225.990472 112.710522 
L 226.101976 98.575139 
L 231.565642 98.575139 
L 231.677145 105.394691 
L 237.140811 105.394691 
L 237.252315 83.452273 
L 265.016659 83.452273 
L 265.128162 114.9565 
L 270.591828 114.9565 
L 270.703331 106.05406 
L 276.166998 106.05406 
L 276.278501 83.452273 
L 281.742167 83.452273 
L 281.85367 85.346596 
L 287.317336 85.346596 
L 287.42884 83.452273 
L 298.467675 83.452273 
L 298.579179 124.790883 
L 304.042845 124.790883 
L 304.154348 83.452273 
L 315.193184 83.452273 
L 315.304687 100.032027 
L 320.768353 100.032027 
L 320.879857 84.941993 
L 326.343523 84.941993 
L 326.455026 83.452273 
L 331.918692 83.452273 
L 332.030196 128.236073 
L 337.493862 128.236073 
L 337.605365 122.729408 
L 343.069031 122.729408 
L 343.180534 96.031614 
L 348.644201 96.031614 
L 348.755704 112.331988 
L 354.21937 112.331988 
L 354.330873 108.277076 
L 359.794539 108.277076 
L 359.906043 83.452273 
L 365.369709 83.452273 
L 365.481212 113.91563 
L 370.944878 113.91563 
L 371.056382 91.025193 
L 376.520048 91.025193 
L 376.631551 85.733488 
L 382.095217 85.733488 
L 382.206721 114.541573 
L 387.670387 114.541573 
L 387.78189 84.114229 
L 393.245556 84.114229 
L 393.35706 96.724819 
L 398.820726 96.724819 
L 398.932229 95.723175 
L 404.395895 95.723175 
L 404.507398 83.452273 
L 409.971065 83.452273 
L 410.082568 114.621963 
L 415.546234 114.621963 
L 415.657737 83.452273 
L 421.121403 83.452273 
L 421.232907 237.74802 
L 426.696573 237.74802 
L 426.808076 83.452273 
L 437.846912 83.452273 
L 437.958415 88.904878 
L 443.422081 88.904878 
L 443.533585 83.452273 
L 460.14759 83.452273 
L 460.259093 93.593118 
L 465.722759 93.593118 
L 465.834263 101.1278 
L 471.297929 101.1278 
L 471.409432 83.452273 
L 510.324115 83.452273 
L 510.435618 278.897727 
L 515.899284 278.897727 
L 516.010788 89.262367 
L 521.474454 89.262367 
L 521.585957 83.806873 
L 527.049623 83.806873 
L 527.216878 83.452273 
L 543.775132 83.452273 
L 543.886635 88.690245 
L 549.350301 88.690245 
L 549.461804 83.672821 
L 554.92547 83.672821 
L 555.036974 111.848097 
L 560.50064 111.848097 
L 560.612143 87.615042 
L 566.075809 87.615042 
L 566.187313 90.406106 
L 571.650979 90.406106 
L 571.762482 83.452273 
L 588.376487 83.452273 
L 588.487991 104.242524 
L 593.951657 104.242524 
L 594.06316 106.706523 
L 599.526826 106.706523 
L 599.63833 83.452273 
L 605.101996 83.452273 
L 605.213499 104.849419 
L 610.677165 104.849419 
L 610.788668 83.452273 
L 627.402673 83.452273 
L 627.514177 101.036689 
L 632.977843 101.036689 
L 633.089346 97.694056 
L 638.553012 97.694056 
L 638.664516 88.087538 
L 644.128182 88.087538 
L 644.128182 88.087538 
" clip-path="url(#pfd310af858)" style="fill: none; stroke: #4682b4; stroke-width: 1.5; stroke-linecap: square"/>
   </g>
   <g id="patch_12">
    <path d="M 52.94 288.67 
L 52.94 73.68 
" style="fill: none; stroke: #000000; stroke-width: 0.8; stroke-linejoin: miter; stroke-linecap: square"/>
   </g>
   <g id="patch_13">
    <path d="M 672.28 288.67 
L 672.28 73.68 
" style="fill: none; stroke: #4682b4; stroke-width: 0.8; stroke-linejoin: miter; stroke-linecap: square"/>
   </g>
   <g id="patch_14">
    <path d="M 52.94 288.67 
L 672.28 288.67 
" style="fill: none; stroke: #000000; stroke-width: 0.8; stroke-linejoin: miter; stroke-linecap: square"/>
   </g>
   <g id="patch_15">
    <path d="M 52.94 73.68 
L 672.28 73.68 
" style="fill: none; stroke: #000000; stroke-width: 0.8; stroke-linejoin: miter; stroke-linecap: square"/>
   </g>
  </g>
  <g id="text_31">
   <!-- Episode 15 - Total Reward: -931.56 -->
   <g transform="translate(255.563438 20.638125) scale(0.12 -0.12)">
    <defs>
     <path id="DejaVuSans-45" d="M 628 4666 
L 3578 4666 
L 3578 4134 
L 1259 4134 
L 1259 2753 
L 3481 2753 
L 3481 2222 
L 1259 2222 
L 1259 531 
L 3634 531 
L 3634 0 
L 628 0 
L 628 4666 
z
" transform="scale(0.015625)"/>
     <path id="DejaVuSans-2d" d="M 313 2009 
L 1997 2009 
L 1997 1497 
L 313 1497 
L 313 2009 
z
" transform="scale(0.015625)"/>
     <path id="DejaVuSans-52" d="M 2841 2188 
Q 3044 2119 3236 1894 
Q 3428 1669 3622 1275 
L 4263 0 
L 3584 0 
L 2988 1197 
Q 2756 1666 2539 1819 
Q 2322 1972 1947 1972 
L 1259 1972 
L 1259 0 
L 628 0 
L 628 4666 
L 2053 4666 
Q 2853 4666 3247 4331 
Q 3641 3997 3641 3322 
Q 3641 2881 3436 2590 
Q 3231 2300 2841 2188 
z
M 1259 4147 
L 1259 2491 
L 2053 2491 
Q 2509 2491 2742 2702 
Q 2975 2913 2975 3322 
Q 2975 3731 2742 3939 
Q 2509 4147 2053 4147 
L 1259 4147 
z
" transform="scale(0.015625)"/>
     <path id="DejaVuSans-77" d="M 269 3500 
L 844 3500 
L 1563 769 
L 2278 3500 
L 2956 3500 
L 3675 769 
L 4391 3500 
L 4966 3500 
L 4050 0 
L 3372 0 
L 2619 2869 
L 1863 0 
L 1184 0 
L 269 3500 
z
" transform="scale(0.015625)"/>
     <path id="DejaVuSans-3a" d="M 750 794 
L 1409 794 
L 1409 0 
L 750 0 
L 750 794 
z
M 750 3309 
L 1409 3309 
L 1409 2516 
L 750 2516 
L 750 3309 
z
" transform="scale(0.015625)"/>
     <path id="DejaVuSans-39" d="M 703 97 
L 703 672 
Q 941 559 1184 500 
Q 1428 441 1663 441 
Q 2288 441 2617 861 
Q 2947 1281 2994 2138 
Q 2813 1869 2534 1725 
Q 2256 1581 1919 1581 
Q 1219 1581 811 2004 
Q 403 2428 403 3163 
Q 403 3881 828 4315 
Q 1253 4750 1959 4750 
Q 2769 4750 3195 4129 
Q 3622 3509 3622 2328 
Q 3622 1225 3098 567 
Q 2575 -91 1691 -91 
Q 1453 -91 1209 -44 
Q 966 3 703 97 
z
M 1959 2075 
Q 2384 2075 2632 2365 
Q 2881 2656 2881 3163 
Q 2881 3666 2632 3958 
Q 2384 4250 1959 4250 
Q 1534 4250 1286 3958 
Q 1038 3666 1038 3163 
Q 1038 2656 1286 2365 
Q 1534 2075 1959 2075 
z
" transform="scale(0.015625)"/>
    </defs>
    <use xlink:href="#DejaVuSans-45"/>
    <use xlink:href="#DejaVuSans-70" x="63.183594"/>
    <use xlink:href="#DejaVuSans-69" x="126.660156"/>
    <use xlink:href="#DejaVuSans-73" x="154.443359"/>
    <use xlink:href="#DejaVuSans-6f" x="206.542969"/>
    <use xlink:href="#DejaVuSans-64" x="267.724609"/>
    <use xlink:href="#DejaVuSans-65" x="331.201172"/>
    <use xlink:href="#DejaVuSans-20" x="392.724609"/>
    <use xlink:href="#DejaVuSans-31" x="424.511719"/>
    <use xlink:href="#DejaVuSans-35" x="488.134766"/>
    <use xlink:href="#DejaVuSans-20" x="551.757812"/>
    <use xlink:href="#DejaVuSans-2d" x="583.544922"/>
    <use xlink:href="#DejaVuSans-20" x="619.628906"/>
    <use xlink:href="#DejaVuSans-54" x="651.416016"/>
    <use xlink:href="#DejaVuSans-6f" x="695.5"/>
    <use xlink:href="#DejaVuSans-74" x="756.681641"/>
    <use xlink:href="#DejaVuSans-61" x="795.890625"/>
    <use xlink:href="#DejaVuSans-6c" x="857.169922"/>
    <use xlink:href="#DejaVuSans-20" x="884.953125"/>
    <use xlink:href="#DejaVuSans-52" x="916.740234"/>
    <use xlink:href="#DejaVuSans-65" x="981.722656"/>
    <use xlink:href="#DejaVuSans-77" x="1043.246094"/>
    <use xlink:href="#DejaVuSans-61" x="1125.033203"/>
    <use xlink:href="#DejaVuSans-72" x="1186.3125"/>
    <use xlink:href="#DejaVuSans-64" x="1225.675781"/>
    <use xlink:href="#DejaVuSans-3a" x="1289.152344"/>
    <use xlink:href="#DejaVuSans-20" x="1322.84375"/>
    <use xlink:href="#DejaVuSans-2d" x="1354.630859"/>
    <use xlink:href="#DejaVuSans-39" x="1390.714844"/>
    <use xlink:href="#DejaVuSans-33" x="1454.337891"/>
    <use xlink:href="#DejaVuSans-31" x="1517.960938"/>
    <use xlink:href="#DejaVuSans-2e" x="1581.583984"/>
    <use xlink:href="#DejaVuSans-35" x="1613.371094"/>
    <use xlink:href="#DejaVuSans-36" x="1676.994141"/>
   </g>
  </g>
 </g>
 <defs>
  <clipPath id="pfd310af858">
   <rect x="52.94" y="73.68" width="619.34" height="214.99"/>
  </clipPath>
  <clipPath id="p439c9d4aed">
   <rect x="52.94" y="319.05" width="619.34" height="214.99"/>
  </clipPath>
 </defs>
</svg>
