<?xml version="1.0" encoding="utf-8" standalone="no"?>
<!DOCTYPE svg PUBLIC "-//W3C//DTD SVG 1.1//EN"
  "http://www.w3.org/Graphics/SVG/1.1/DTD/svg11.dtd">
<svg xmlns:xlink="http://www.w3.org/1999/xlink" width="720pt" height="864pt" viewBox="0 0 720 864" xmlns="http://www.w3.org/2000/svg" version="1.1">
 <metadata>
  <rdf:RDF xmlns:dc="http://purl.org/dc/elements/1.1/" xmlns:cc="http://creativecommons.org/ns#" xmlns:rdf="http://www.w3.org/1999/02/22-rdf-syntax-ns#">
   <cc:Work>
    <dc:type rdf:resource="http://purl.org/dc/dcmitype/StillImage"/>
    <dc:date>2024-06-05T00:34:23.280779</dc:date>
    <dc:format>image/svg+xml</dc:format>
    <dc:creator>
     <cc:Agent>
      <dc:title>Matplotlib v3.8.4, https://matplotlib.org/</dc:title>
     </cc:Agent>
    </dc:creator>
   </cc:Work>
  </rdf:RDF>
 </metadata>
 <defs>
  <style type="text/css">*{stroke-linejoin: round; stroke-linecap: butt}</style>
 </defs>
 <g id="figure_1">
  <g id="patch_1">
   <path d="M 0 864 
L 720 864 
L 720 0 
L 0 0 
z
" style="fill: #ffffff"/>
  </g>
  <g id="axes_1">
   <g id="patch_2">
    <path d="M 52.94 301.506667 
L 709.2 301.506667 
L 709.2 85.2 
L 52.94 85.2 
z
" style="fill: #ffffff"/>
   </g>
   <g id="matplotlib.axis_1">
    <g id="xtick_1">
     <g id="line2d_1">
      <defs>
       <path id="m7b2ab69383" d="M 0 0 
L 0 3.5 
" style="stroke: #000000; stroke-width: 0.8"/>
      </defs>
      <g>
       <use xlink:href="#m7b2ab69383" x="82.77" y="301.506667" style="stroke: #000000; stroke-width: 0.8"/>
      </g>
     </g>
     <g id="text_1">
      <!-- 0.0 -->
      <g transform="translate(74.818438 316.105104) scale(0.1 -0.1)">
       <defs>
        <path id="DejaVuSans-30" d="M 2034 4250 
Q 1547 4250 1301 3770 
Q 1056 3291 1056 2328 
Q 1056 1369 1301 889 
Q 1547 409 2034 409 
Q 2525 409 2770 889 
Q 3016 1369 3016 2328 
Q 3016 3291 2770 3770 
Q 2525 4250 2034 4250 
z
M 2034 4750 
Q 2819 4750 3233 4129 
Q 3647 3509 3647 2328 
Q 3647 1150 3233 529 
Q 2819 -91 2034 -91 
Q 1250 -91 836 529 
Q 422 1150 422 2328 
Q 422 3509 836 4129 
Q 1250 4750 2034 4750 
z
" transform="scale(0.015625)"/>
        <path id="DejaVuSans-2e" d="M 684 794 
L 1344 794 
L 1344 0 
L 684 0 
L 684 794 
z
" transform="scale(0.015625)"/>
       </defs>
       <use xlink:href="#DejaVuSans-30"/>
       <use xlink:href="#DejaVuSans-2e" x="63.623047"/>
       <use xlink:href="#DejaVuSans-30" x="95.410156"/>
      </g>
     </g>
    </g>
    <g id="xtick_2">
     <g id="line2d_2">
      <g>
       <use xlink:href="#m7b2ab69383" x="202.031562" y="301.506667" style="stroke: #000000; stroke-width: 0.8"/>
      </g>
     </g>
     <g id="text_2">
      <!-- 0.2 -->
      <g transform="translate(194.079999 316.105104) scale(0.1 -0.1)">
       <defs>
        <path id="DejaVuSans-32" d="M 1228 531 
L 3431 531 
L 3431 0 
L 469 0 
L 469 531 
Q 828 903 1448 1529 
Q 2069 2156 2228 2338 
Q 2531 2678 2651 2914 
Q 2772 3150 2772 3378 
Q 2772 3750 2511 3984 
Q 2250 4219 1831 4219 
Q 1534 4219 1204 4116 
Q 875 4013 500 3803 
L 500 4441 
Q 881 4594 1212 4672 
Q 1544 4750 1819 4750 
Q 2544 4750 2975 4387 
Q 3406 4025 3406 3419 
Q 3406 3131 3298 2873 
Q 3191 2616 2906 2266 
Q 2828 2175 2409 1742 
Q 1991 1309 1228 531 
z
" transform="scale(0.015625)"/>
       </defs>
       <use xlink:href="#DejaVuSans-30"/>
       <use xlink:href="#DejaVuSans-2e" x="63.623047"/>
       <use xlink:href="#DejaVuSans-32" x="95.410156"/>
      </g>
     </g>
    </g>
    <g id="xtick_3">
     <g id="line2d_3">
      <g>
       <use xlink:href="#m7b2ab69383" x="321.293124" y="301.506667" style="stroke: #000000; stroke-width: 0.8"/>
      </g>
     </g>
     <g id="text_3">
      <!-- 0.4 -->
      <g transform="translate(313.341561 316.105104) scale(0.1 -0.1)">
       <defs>
        <path id="DejaVuSans-34" d="M 2419 4116 
L 825 1625 
L 2419 1625 
L 2419 4116 
z
M 2253 4666 
L 3047 4666 
L 3047 1625 
L 3713 1625 
L 3713 1100 
L 3047 1100 
L 3047 0 
L 2419 0 
L 2419 1100 
L 313 1100 
L 313 1709 
L 2253 4666 
z
" transform="scale(0.015625)"/>
       </defs>
       <use xlink:href="#DejaVuSans-30"/>
       <use xlink:href="#DejaVuSans-2e" x="63.623047"/>
       <use xlink:href="#DejaVuSans-34" x="95.410156"/>
      </g>
     </g>
    </g>
    <g id="xtick_4">
     <g id="line2d_4">
      <g>
       <use xlink:href="#m7b2ab69383" x="440.554686" y="301.506667" style="stroke: #000000; stroke-width: 0.8"/>
      </g>
     </g>
     <g id="text_4">
      <!-- 0.6 -->
      <g transform="translate(432.603123 316.105104) scale(0.1 -0.1)">
       <defs>
        <path id="DejaVuSans-36" d="M 2113 2584 
Q 1688 2584 1439 2293 
Q 1191 2003 1191 1497 
Q 1191 994 1439 701 
Q 1688 409 2113 409 
Q 2538 409 2786 701 
Q 3034 994 3034 1497 
Q 3034 2003 2786 2293 
Q 2538 2584 2113 2584 
z
M 3366 4563 
L 3366 3988 
Q 3128 4100 2886 4159 
Q 2644 4219 2406 4219 
Q 1781 4219 1451 3797 
Q 1122 3375 1075 2522 
Q 1259 2794 1537 2939 
Q 1816 3084 2150 3084 
Q 2853 3084 3261 2657 
Q 3669 2231 3669 1497 
Q 3669 778 3244 343 
Q 2819 -91 2113 -91 
Q 1303 -91 875 529 
Q 447 1150 447 2328 
Q 447 3434 972 4092 
Q 1497 4750 2381 4750 
Q 2619 4750 2861 4703 
Q 3103 4656 3366 4563 
z
" transform="scale(0.015625)"/>
       </defs>
       <use xlink:href="#DejaVuSans-30"/>
       <use xlink:href="#DejaVuSans-2e" x="63.623047"/>
       <use xlink:href="#DejaVuSans-36" x="95.410156"/>
      </g>
     </g>
    </g>
    <g id="xtick_5">
     <g id="line2d_5">
      <g>
       <use xlink:href="#m7b2ab69383" x="559.816247" y="301.506667" style="stroke: #000000; stroke-width: 0.8"/>
      </g>
     </g>
     <g id="text_5">
      <!-- 0.8 -->
      <g transform="translate(551.864685 316.105104) scale(0.1 -0.1)">
       <defs>
        <path id="DejaVuSans-38" d="M 2034 2216 
Q 1584 2216 1326 1975 
Q 1069 1734 1069 1313 
Q 1069 891 1326 650 
Q 1584 409 2034 409 
Q 2484 409 2743 651 
Q 3003 894 3003 1313 
Q 3003 1734 2745 1975 
Q 2488 2216 2034 2216 
z
M 1403 2484 
Q 997 2584 770 2862 
Q 544 3141 544 3541 
Q 544 4100 942 4425 
Q 1341 4750 2034 4750 
Q 2731 4750 3128 4425 
Q 3525 4100 3525 3541 
Q 3525 3141 3298 2862 
Q 3072 2584 2669 2484 
Q 3125 2378 3379 2068 
Q 3634 1759 3634 1313 
Q 3634 634 3220 271 
Q 2806 -91 2034 -91 
Q 1263 -91 848 271 
Q 434 634 434 1313 
Q 434 1759 690 2068 
Q 947 2378 1403 2484 
z
M 1172 3481 
Q 1172 3119 1398 2916 
Q 1625 2713 2034 2713 
Q 2441 2713 2670 2916 
Q 2900 3119 2900 3481 
Q 2900 3844 2670 4047 
Q 2441 4250 2034 4250 
Q 1625 4250 1398 4047 
Q 1172 3844 1172 3481 
z
" transform="scale(0.015625)"/>
       </defs>
       <use xlink:href="#DejaVuSans-30"/>
       <use xlink:href="#DejaVuSans-2e" x="63.623047"/>
       <use xlink:href="#DejaVuSans-38" x="95.410156"/>
      </g>
     </g>
    </g>
    <g id="xtick_6">
     <g id="line2d_6">
      <g>
       <use xlink:href="#m7b2ab69383" x="679.077809" y="301.506667" style="stroke: #000000; stroke-width: 0.8"/>
      </g>
     </g>
     <g id="text_6">
      <!-- 1.0 -->
      <g transform="translate(671.126247 316.105104) scale(0.1 -0.1)">
       <defs>
        <path id="DejaVuSans-31" d="M 794 531 
L 1825 531 
L 1825 4091 
L 703 3866 
L 703 4441 
L 1819 4666 
L 2450 4666 
L 2450 531 
L 3481 531 
L 3481 0 
L 794 0 
L 794 531 
z
" transform="scale(0.015625)"/>
       </defs>
       <use xlink:href="#DejaVuSans-31"/>
       <use xlink:href="#DejaVuSans-2e" x="63.623047"/>
       <use xlink:href="#DejaVuSans-30" x="95.410156"/>
      </g>
     </g>
    </g>
   </g>
   <g id="matplotlib.axis_2">
    <g id="ytick_1">
     <g id="line2d_7">
      <defs>
       <path id="m9d305721e6" d="M 0 0 
L -3.5 0 
" style="stroke: #ff4500; stroke-width: 0.8"/>
      </defs>
      <g>
       <use xlink:href="#m9d305721e6" x="52.94" y="291.680983" style="fill: #ff4500; stroke: #ff4500; stroke-width: 0.8"/>
      </g>
     </g>
     <g id="text_7">
      <!-- 0 -->
      <g style="fill: #ff4500" transform="translate(39.5775 295.480202) scale(0.1 -0.1)">
       <use xlink:href="#DejaVuSans-30"/>
      </g>
     </g>
    </g>
    <g id="ytick_2">
     <g id="line2d_8">
      <g>
       <use xlink:href="#m9d305721e6" x="52.94" y="255.914727" style="fill: #ff4500; stroke: #ff4500; stroke-width: 0.8"/>
      </g>
     </g>
     <g id="text_8">
      <!-- 2 -->
      <g style="fill: #ff4500" transform="translate(39.5775 259.713945) scale(0.1 -0.1)">
       <use xlink:href="#DejaVuSans-32"/>
      </g>
     </g>
    </g>
    <g id="ytick_3">
     <g id="line2d_9">
      <g>
       <use xlink:href="#m9d305721e6" x="52.94" y="220.14847" style="fill: #ff4500; stroke: #ff4500; stroke-width: 0.8"/>
      </g>
     </g>
     <g id="text_9">
      <!-- 4 -->
      <g style="fill: #ff4500" transform="translate(39.5775 223.947689) scale(0.1 -0.1)">
       <use xlink:href="#DejaVuSans-34"/>
      </g>
     </g>
    </g>
    <g id="ytick_4">
     <g id="line2d_10">
      <g>
       <use xlink:href="#m9d305721e6" x="52.94" y="184.382213" style="fill: #ff4500; stroke: #ff4500; stroke-width: 0.8"/>
      </g>
     </g>
     <g id="text_10">
      <!-- 6 -->
      <g style="fill: #ff4500" transform="translate(39.5775 188.181432) scale(0.1 -0.1)">
       <use xlink:href="#DejaVuSans-36"/>
      </g>
     </g>
    </g>
    <g id="ytick_5">
     <g id="line2d_11">
      <g>
       <use xlink:href="#m9d305721e6" x="52.94" y="148.615957" style="fill: #ff4500; stroke: #ff4500; stroke-width: 0.8"/>
      </g>
     </g>
     <g id="text_11">
      <!-- 8 -->
      <g style="fill: #ff4500" transform="translate(39.5775 152.415175) scale(0.1 -0.1)">
       <use xlink:href="#DejaVuSans-38"/>
      </g>
     </g>
    </g>
    <g id="ytick_6">
     <g id="line2d_12">
      <g>
       <use xlink:href="#m9d305721e6" x="52.94" y="112.8497" style="fill: #ff4500; stroke: #ff4500; stroke-width: 0.8"/>
      </g>
     </g>
     <g id="text_12">
      <!-- 10 -->
      <g style="fill: #ff4500" transform="translate(33.215 116.648919) scale(0.1 -0.1)">
       <use xlink:href="#DejaVuSans-31"/>
       <use xlink:href="#DejaVuSans-30" x="63.623047"/>
      </g>
     </g>
    </g>
    <g id="text_13">
     <!-- Output Voltage -->
     <g style="fill: #ff4500" transform="translate(27.135313 231.066615) rotate(-90) scale(0.1 -0.1)">
      <defs>
       <path id="DejaVuSans-4f" d="M 2522 4238 
Q 1834 4238 1429 3725 
Q 1025 3213 1025 2328 
Q 1025 1447 1429 934 
Q 1834 422 2522 422 
Q 3209 422 3611 934 
Q 4013 1447 4013 2328 
Q 4013 3213 3611 3725 
Q 3209 4238 2522 4238 
z
M 2522 4750 
Q 3503 4750 4090 4092 
Q 4678 3434 4678 2328 
Q 4678 1225 4090 567 
Q 3503 -91 2522 -91 
Q 1538 -91 948 565 
Q 359 1222 359 2328 
Q 359 3434 948 4092 
Q 1538 4750 2522 4750 
z
" transform="scale(0.015625)"/>
       <path id="DejaVuSans-75" d="M 544 1381 
L 544 3500 
L 1119 3500 
L 1119 1403 
Q 1119 906 1312 657 
Q 1506 409 1894 409 
Q 2359 409 2629 706 
Q 2900 1003 2900 1516 
L 2900 3500 
L 3475 3500 
L 3475 0 
L 2900 0 
L 2900 538 
Q 2691 219 2414 64 
Q 2138 -91 1772 -91 
Q 1169 -91 856 284 
Q 544 659 544 1381 
z
M 1991 3584 
L 1991 3584 
z
" transform="scale(0.015625)"/>
       <path id="DejaVuSans-74" d="M 1172 4494 
L 1172 3500 
L 2356 3500 
L 2356 3053 
L 1172 3053 
L 1172 1153 
Q 1172 725 1289 603 
Q 1406 481 1766 481 
L 2356 481 
L 2356 0 
L 1766 0 
Q 1100 0 847 248 
Q 594 497 594 1153 
L 594 3053 
L 172 3053 
L 172 3500 
L 594 3500 
L 594 4494 
L 1172 4494 
z
" transform="scale(0.015625)"/>
       <path id="DejaVuSans-70" d="M 1159 525 
L 1159 -1331 
L 581 -1331 
L 581 3500 
L 1159 3500 
L 1159 2969 
Q 1341 3281 1617 3432 
Q 1894 3584 2278 3584 
Q 2916 3584 3314 3078 
Q 3713 2572 3713 1747 
Q 3713 922 3314 415 
Q 2916 -91 2278 -91 
Q 1894 -91 1617 61 
Q 1341 213 1159 525 
z
M 3116 1747 
Q 3116 2381 2855 2742 
Q 2594 3103 2138 3103 
Q 1681 3103 1420 2742 
Q 1159 2381 1159 1747 
Q 1159 1113 1420 752 
Q 1681 391 2138 391 
Q 2594 391 2855 752 
Q 3116 1113 3116 1747 
z
" transform="scale(0.015625)"/>
       <path id="DejaVuSans-20" transform="scale(0.015625)"/>
       <path id="DejaVuSans-56" d="M 1831 0 
L 50 4666 
L 709 4666 
L 2188 738 
L 3669 4666 
L 4325 4666 
L 2547 0 
L 1831 0 
z
" transform="scale(0.015625)"/>
       <path id="DejaVuSans-6f" d="M 1959 3097 
Q 1497 3097 1228 2736 
Q 959 2375 959 1747 
Q 959 1119 1226 758 
Q 1494 397 1959 397 
Q 2419 397 2687 759 
Q 2956 1122 2956 1747 
Q 2956 2369 2687 2733 
Q 2419 3097 1959 3097 
z
M 1959 3584 
Q 2709 3584 3137 3096 
Q 3566 2609 3566 1747 
Q 3566 888 3137 398 
Q 2709 -91 1959 -91 
Q 1206 -91 779 398 
Q 353 888 353 1747 
Q 353 2609 779 3096 
Q 1206 3584 1959 3584 
z
" transform="scale(0.015625)"/>
       <path id="DejaVuSans-6c" d="M 603 4863 
L 1178 4863 
L 1178 0 
L 603 0 
L 603 4863 
z
" transform="scale(0.015625)"/>
       <path id="DejaVuSans-61" d="M 2194 1759 
Q 1497 1759 1228 1600 
Q 959 1441 959 1056 
Q 959 750 1161 570 
Q 1363 391 1709 391 
Q 2188 391 2477 730 
Q 2766 1069 2766 1631 
L 2766 1759 
L 2194 1759 
z
M 3341 1997 
L 3341 0 
L 2766 0 
L 2766 531 
Q 2569 213 2275 61 
Q 1981 -91 1556 -91 
Q 1019 -91 701 211 
Q 384 513 384 1019 
Q 384 1609 779 1909 
Q 1175 2209 1959 2209 
L 2766 2209 
L 2766 2266 
Q 2766 2663 2505 2880 
Q 2244 3097 1772 3097 
Q 1472 3097 1187 3025 
Q 903 2953 641 2809 
L 641 3341 
Q 956 3463 1253 3523 
Q 1550 3584 1831 3584 
Q 2591 3584 2966 3190 
Q 3341 2797 3341 1997 
z
" transform="scale(0.015625)"/>
       <path id="DejaVuSans-67" d="M 2906 1791 
Q 2906 2416 2648 2759 
Q 2391 3103 1925 3103 
Q 1463 3103 1205 2759 
Q 947 2416 947 1791 
Q 947 1169 1205 825 
Q 1463 481 1925 481 
Q 2391 481 2648 825 
Q 2906 1169 2906 1791 
z
M 3481 434 
Q 3481 -459 3084 -895 
Q 2688 -1331 1869 -1331 
Q 1566 -1331 1297 -1286 
Q 1028 -1241 775 -1147 
L 775 -588 
Q 1028 -725 1275 -790 
Q 1522 -856 1778 -856 
Q 2344 -856 2625 -561 
Q 2906 -266 2906 331 
L 2906 616 
Q 2728 306 2450 153 
Q 2172 0 1784 0 
Q 1141 0 747 490 
Q 353 981 353 1791 
Q 353 2603 747 3093 
Q 1141 3584 1784 3584 
Q 2172 3584 2450 3431 
Q 2728 3278 2906 2969 
L 2906 3500 
L 3481 3500 
L 3481 434 
z
" transform="scale(0.015625)"/>
       <path id="DejaVuSans-65" d="M 3597 1894 
L 3597 1613 
L 953 1613 
Q 991 1019 1311 708 
Q 1631 397 2203 397 
Q 2534 397 2845 478 
Q 3156 559 3463 722 
L 3463 178 
Q 3153 47 2828 -22 
Q 2503 -91 2169 -91 
Q 1331 -91 842 396 
Q 353 884 353 1716 
Q 353 2575 817 3079 
Q 1281 3584 2069 3584 
Q 2775 3584 3186 3129 
Q 3597 2675 3597 1894 
z
M 3022 2063 
Q 3016 2534 2758 2815 
Q 2500 3097 2075 3097 
Q 1594 3097 1305 2825 
Q 1016 2553 972 2059 
L 3022 2063 
z
" transform="scale(0.015625)"/>
      </defs>
      <use xlink:href="#DejaVuSans-4f"/>
      <use xlink:href="#DejaVuSans-75" x="78.710938"/>
      <use xlink:href="#DejaVuSans-74" x="142.089844"/>
      <use xlink:href="#DejaVuSans-70" x="181.298828"/>
      <use xlink:href="#DejaVuSans-75" x="244.775391"/>
      <use xlink:href="#DejaVuSans-74" x="308.154297"/>
      <use xlink:href="#DejaVuSans-20" x="347.363281"/>
      <use xlink:href="#DejaVuSans-56" x="379.150391"/>
      <use xlink:href="#DejaVuSans-6f" x="439.808594"/>
      <use xlink:href="#DejaVuSans-6c" x="500.990234"/>
      <use xlink:href="#DejaVuSans-74" x="528.773438"/>
      <use xlink:href="#DejaVuSans-61" x="567.982422"/>
      <use xlink:href="#DejaVuSans-67" x="629.261719"/>
      <use xlink:href="#DejaVuSans-65" x="692.738281"/>
     </g>
    </g>
   </g>
   <g id="line2d_13">
    <path d="M 82.77 291.674545 
L 82.799815 291.283292 
L 82.895225 285.047241 
L 83.175489 246.648907 
L 83.807576 166.771105 
L 84.272696 134.346789 
L 84.72589 116.739819 
L 85.179084 106.994188 
L 85.632277 101.620405 
L 86.085471 98.66022 
L 86.544628 97.014384 
L 87.015712 96.098276 
L 87.522573 95.579165 
L 88.130807 95.277741 
L 89.013343 95.108976 
L 90.808229 95.039356 
L 103.277026 95.032121 
L 106.348011 95.093704 
L 106.401678 97.115735 
L 106.556719 114.123444 
L 106.848909 140.847039 
L 106.896614 141.208138 
L 106.956245 140.8291 
L 107.099359 137.569745 
L 108.232343 106.50139 
L 108.6915 101.326413 
L 109.144694 98.502093 
L 109.603851 96.928531 
L 110.074935 96.052176 
L 110.587759 95.551428 
L 111.207919 95.261656 
L 112.126233 95.100639 
L 114.070197 95.037422 
L 129.317788 95.032121 
L 129.347603 95.451843 
L 129.443012 102.141644 
L 129.866391 137.486936 
L 129.88428 137.448588 
L 129.9618 136.567575 
L 130.176471 130.788925 
L 130.933782 109.879032 
L 131.398902 103.160219 
L 131.852096 99.518935 
L 132.263548 97.664719 
L 132.275474 97.694114 
L 132.430514 97.880794 
L 132.448404 97.873162 
L 132.61537 97.650336 
L 132.853893 97.140329 
L 132.907561 97.32571 
L 133.08049 97.525748 
L 133.086453 97.523576 
L 133.152047 97.474977 
L 133.175899 97.577099 
L 133.366718 97.974047 
L 133.480016 98.043909 
L 133.652945 98.365109 
L 133.658908 98.36332 
L 133.754318 98.286519 
L 133.784133 98.417332 
L 133.93321 98.661873 
L 133.957062 98.650657 
L 134.046509 98.534177 
L 134.08825 98.687541 
L 134.219438 98.87361 
L 134.249253 98.856869 
L 134.344662 98.713836 
L 134.392367 98.877192 
L 134.511629 99.020166 
L 134.547407 98.995597 
L 134.642816 98.836493 
L 134.690521 98.992501 
L 134.803819 99.121363 
L 134.839598 99.096285 
L 134.94097 98.919701 
L 134.994638 99.087023 
L 135.101973 99.188761 
L 135.137752 99.160594 
L 135.239124 98.976001 
L 135.292792 99.139494 
L 135.394164 99.236919 
L 135.435906 99.204071 
L 135.537278 99.014053 
L 135.590946 99.174954 
L 135.692318 99.267952 
L 135.73406 99.233447 
L 135.835432 99.039761 
L 135.8891 99.19891 
L 135.990472 99.288916 
L 136.032214 99.25329 
L 136.205143 98.859716 
L 137.189051 96.260799 
L 137.695912 95.666703 
L 138.280294 95.326589 
L 139.085309 95.134192 
L 140.576079 95.046462 
L 147.2428 95.032123 
L 156.163565 95.093704 
L 156.217233 97.115735 
L 156.372273 114.123444 
L 156.640611 137.017315 
L 156.700242 137.486936 
L 156.75391 137.171573 
L 156.897024 134.223503 
L 158.047898 105.374723 
L 158.507055 100.707009 
L 158.960249 98.160469 
L 159.419406 96.741804 
L 159.896452 95.944545 
L 160.421203 95.489397 
L 161.077142 95.224939 
L 162.090865 95.082884 
L 164.493985 95.034267 
L 195.174022 95.052791 
L 195.710699 96.857132 
L 195.871702 96.845187 
L 196.169856 96.475007 
L 196.867536 95.661777 
L 197.469807 95.320006 
L 198.286749 95.130511 
L 199.813297 95.045311 
L 206.998806 95.032122 
L 222.443178 95.093704 
L 222.496846 97.115735 
L 222.926187 123.264937 
L 223.003707 122.847529 
L 223.188563 119.814028 
L 224.065135 104.040595 
L 224.530255 99.954569 
L 224.989412 97.726899 
L 225.44857 96.505186 
L 225.931579 95.812165 
L 226.474219 95.413959 
L 227.183825 95.182146 
L 228.358552 95.064074 
L 231.763469 95.032482 
L 235.472504 95.093707 
L 235.526171 97.115738 
L 235.681212 114.123446 
L 235.94955 137.017316 
L 236.009181 137.486938 
L 236.062849 137.171574 
L 236.205962 134.223504 
L 237.356836 105.374723 
L 237.815993 100.707009 
L 238.269187 98.160469 
L 238.728344 96.741804 
L 239.205391 95.944545 
L 239.730142 95.489397 
L 240.38608 95.224939 
L 241.399803 95.082884 
L 243.176801 95.057683 
L 243.719441 96.864307 
L 243.796961 97.050884 
L 243.999705 97.585452 
L 244.136856 97.505056 
L 244.458862 96.924921 
L 245.090949 95.919131 
L 245.633589 95.470828 
L 246.307417 95.213207 
L 247.356918 95.077618 
L 247.39866 95.136769 
L 247.452328 97.155862 
L 247.607368 114.156162 
L 247.905522 141.19291 
L 248.138082 153.773571 
L 248.155971 153.71474 
L 248.233491 152.476657 
L 248.454125 144.193584 
L 249.19951 115.704536 
L 249.66463 106.351107 
L 250.117824 101.280571 
L 250.571018 98.475146 
L 251.030175 96.913563 
L 251.501258 96.044092 
L 252.014082 95.547308 
L 252.640206 95.258054 
L 253.564483 95.099036 
L 255.538262 95.037099 
L 273.32016 95.032121 
L 283.14135 95.122813 
L 283.37391 95.926689 
L 283.576655 96.006073 
L 283.898661 95.810939 
L 284.715603 95.325391 
L 285.544471 95.131434 
L 287.065055 95.045547 
L 294.137266 95.032122 
L 344.227122 95.093704 
L 344.316568 97.762968 
L 344.537202 100.724426 
L 344.644537 100.91078 
L 344.686279 100.871976 
L 344.835356 100.445722 
L 345.968341 96.491037 
L 346.457313 95.802041 
L 347.005916 95.406465 
L 347.721486 95.178086 
L 348.914101 95.062487 
L 352.45617 95.032408 
L 372.921454 95.093704 
L 372.975121 97.115735 
L 373.130162 114.123444 
L 373.3985 137.017315 
L 373.458131 137.486936 
L 373.511799 137.171573 
L 373.654912 134.223503 
L 374.805786 105.374723 
L 375.264943 100.707009 
L 375.718137 98.160469 
L 376.177294 96.741804 
L 376.654341 95.944545 
L 377.179092 95.489397 
L 377.83503 95.224939 
L 378.848753 95.082884 
L 381.251874 95.034267 
L 413.124526 95.052791 
L 413.458459 96.000196 
L 413.667166 95.967384 
L 415.390496 95.152917 
L 416.732189 95.052797 
L 421.592097 95.032156 
L 440.906507 95.093704 
L 440.960175 97.115735 
L 441.115215 114.123444 
L 441.37759 136.053944 
L 441.437221 136.550884 
L 441.496852 136.201699 
L 441.645929 133.097057 
L 442.743135 105.741676 
L 443.202292 100.91185 
L 443.655486 98.27388 
L 444.114643 96.803856 
L 444.585726 95.985122 
L 445.104514 95.513498 
L 445.748527 95.238314 
L 446.720508 95.089472 
L 448.920884 95.035287 
L 454.138577 95.093707 
L 454.192245 97.115738 
L 454.603697 118.448314 
L 454.62755 118.413814 
L 454.716996 117.765189 
L 454.973408 113.692931 
L 455.641273 103.547092 
L 456.112356 99.66194 
L 456.541698 97.690387 
L 456.547661 97.710721 
L 456.595366 99.216567 
L 456.982966 116.03438 
L 457.000855 116.016164 
L 457.078375 115.582827 
L 457.293046 112.726882 
L 458.050357 102.380363 
L 458.515477 99.055038 
L 458.974634 97.235497 
L 459.439754 96.227298 
L 459.934689 95.655173 
L 460.519071 95.320804 
L 461.33005 95.131375 
L 462.844671 95.045634 
L 469.87514 95.032123 
L 535.689633 95.093704 
L 535.743301 97.115735 
L 535.898341 114.123444 
L 536.190532 140.847039 
L 536.238237 141.208138 
L 536.297867 140.8291 
L 536.440981 137.569745 
L 537.573966 106.50139 
L 538.033123 101.326413 
L 538.486317 98.502093 
L 538.945474 96.928531 
L 539.416557 96.052176 
L 539.929382 95.551428 
L 540.549542 95.261656 
L 541.467856 95.100639 
L 542.559099 95.109993 
L 542.612767 97.130913 
L 542.767807 114.135819 
L 543.048072 138.94571 
L 543.101739 139.359973 
L 543.16137 138.976222 
L 543.310447 135.646856 
L 544.40169 106.542103 
L 544.860847 101.351767 
L 545.314041 98.516491 
L 545.773198 96.936461 
L 546.244282 96.05645 
L 546.757106 95.553605 
L 547.377266 95.262619 
L 548.29558 95.100926 
L 549.446455 95.067913 
L 549.482233 95.888533 
L 549.595531 105.479413 
L 549.935427 133.565646 
L 549.977168 133.73933 
L 550.024873 133.484298 
L 550.162024 130.991993 
L 551.366566 103.931546 
L 551.825723 99.912577 
L 552.278917 97.722168 
L 552.738074 96.502215 
L 553.221083 95.810539 
L 553.763723 95.413156 
L 554.473329 95.18183 
L 555.648056 95.064007 
L 559.058936 95.032479 
L 568.695271 95.093704 
L 568.748938 97.115735 
L 569.011314 107.187746 
L 569.124612 107.758747 
L 569.166354 107.701085 
L 569.291578 107.019719 
L 569.79844 102.289025 
L 570.305302 98.882385 
L 570.770422 97.134056 
L 571.241505 96.164656 
L 571.742404 95.61807 
L 572.338711 95.299402 
L 573.185468 95.11979 
L 574.831278 95.042164 
L 584.026344 95.032121 
L 619.792887 95.093704 
L 619.846554 97.115735 
L 620.001595 114.123444 
L 620.269933 137.017315 
L 620.329564 137.486936 
L 620.383232 137.171573 
L 620.526345 134.223503 
L 621.677219 105.374723 
L 622.136376 100.707009 
L 622.58957 98.160469 
L 623.048727 96.741804 
L 623.525774 95.944545 
L 624.050525 95.489397 
L 624.706463 95.224939 
L 625.720186 95.082884 
L 628.123307 95.034267 
L 668.374084 95.032121 
L 673.001433 95.093704 
L 673.0551 97.115735 
L 673.448663 115.540164 
L 673.472516 115.530604 
L 673.496368 115.460819 
L 673.61563 114.452364 
L 673.883968 110.598291 
L 673.931673 111.782395 
L 674.271568 127.918995 
L 674.355051 127.330685 
L 674.551833 123.405875 
L 675.368775 106.067197 
L 675.833895 101.067913 
L 676.293052 98.337207 
L 676.752209 96.838916 
L 677.223292 96.004043 
L 677.736117 95.526933 
L 678.368203 95.247423 
L 679.322295 95.093433 
L 679.37 95.089701 
L 679.37 95.089701 
" clip-path="url(#p5f7d00c987)" style="fill: none; stroke: #ff4500; stroke-width: 1.5; stroke-linecap: square"/>
   </g>
   <g id="patch_3">
    <path d="M 52.94 301.506667 
L 52.94 85.2 
" style="fill: none; stroke: #000000; stroke-width: 0.8; stroke-linejoin: miter; stroke-linecap: square"/>
   </g>
   <g id="patch_4">
    <path d="M 709.2 301.506667 
L 709.2 85.2 
" style="fill: none; stroke: #000000; stroke-width: 0.8; stroke-linejoin: miter; stroke-linecap: square"/>
   </g>
   <g id="patch_5">
    <path d="M 52.94 301.506667 
L 709.2 301.506667 
" style="fill: none; stroke: #000000; stroke-width: 0.8; stroke-linejoin: miter; stroke-linecap: square"/>
   </g>
   <g id="patch_6">
    <path d="M 52.94 85.2 
L 709.2 85.2 
" style="fill: none; stroke: #000000; stroke-width: 0.8; stroke-linejoin: miter; stroke-linecap: square"/>
   </g>
   <g id="text_14">
    <!-- Output Voltage -->
    <g transform="translate(335.814062 79.2) scale(0.12 -0.12)">
     <use xlink:href="#DejaVuSans-4f"/>
     <use xlink:href="#DejaVuSans-75" x="78.710938"/>
     <use xlink:href="#DejaVuSans-74" x="142.089844"/>
     <use xlink:href="#DejaVuSans-70" x="181.298828"/>
     <use xlink:href="#DejaVuSans-75" x="244.775391"/>
     <use xlink:href="#DejaVuSans-74" x="308.154297"/>
     <use xlink:href="#DejaVuSans-20" x="347.363281"/>
     <use xlink:href="#DejaVuSans-56" x="379.150391"/>
     <use xlink:href="#DejaVuSans-6f" x="439.808594"/>
     <use xlink:href="#DejaVuSans-6c" x="500.990234"/>
     <use xlink:href="#DejaVuSans-74" x="528.773438"/>
     <use xlink:href="#DejaVuSans-61" x="567.982422"/>
     <use xlink:href="#DejaVuSans-67" x="629.261719"/>
     <use xlink:href="#DejaVuSans-65" x="692.738281"/>
    </g>
   </g>
  </g>
  <g id="axes_2">
   <g id="patch_7">
    <path d="M 52.94 561.773333 
L 709.2 561.773333 
L 709.2 345.466667 
L 52.94 345.466667 
z
" style="fill: #ffffff"/>
   </g>
   <g id="matplotlib.axis_3">
    <g id="xtick_7">
     <g id="line2d_14">
      <g>
       <use xlink:href="#m7b2ab69383" x="82.77" y="561.773333" style="stroke: #000000; stroke-width: 0.8"/>
      </g>
     </g>
     <g id="text_15">
      <!-- 0.0 -->
      <g transform="translate(74.818438 576.371771) scale(0.1 -0.1)">
       <use xlink:href="#DejaVuSans-30"/>
       <use xlink:href="#DejaVuSans-2e" x="63.623047"/>
       <use xlink:href="#DejaVuSans-30" x="95.410156"/>
      </g>
     </g>
    </g>
    <g id="xtick_8">
     <g id="line2d_15">
      <g>
       <use xlink:href="#m7b2ab69383" x="202.031562" y="561.773333" style="stroke: #000000; stroke-width: 0.8"/>
      </g>
     </g>
     <g id="text_16">
      <!-- 0.2 -->
      <g transform="translate(194.079999 576.371771) scale(0.1 -0.1)">
       <use xlink:href="#DejaVuSans-30"/>
       <use xlink:href="#DejaVuSans-2e" x="63.623047"/>
       <use xlink:href="#DejaVuSans-32" x="95.410156"/>
      </g>
     </g>
    </g>
    <g id="xtick_9">
     <g id="line2d_16">
      <g>
       <use xlink:href="#m7b2ab69383" x="321.293124" y="561.773333" style="stroke: #000000; stroke-width: 0.8"/>
      </g>
     </g>
     <g id="text_17">
      <!-- 0.4 -->
      <g transform="translate(313.341561 576.371771) scale(0.1 -0.1)">
       <use xlink:href="#DejaVuSans-30"/>
       <use xlink:href="#DejaVuSans-2e" x="63.623047"/>
       <use xlink:href="#DejaVuSans-34" x="95.410156"/>
      </g>
     </g>
    </g>
    <g id="xtick_10">
     <g id="line2d_17">
      <g>
       <use xlink:href="#m7b2ab69383" x="440.554686" y="561.773333" style="stroke: #000000; stroke-width: 0.8"/>
      </g>
     </g>
     <g id="text_18">
      <!-- 0.6 -->
      <g transform="translate(432.603123 576.371771) scale(0.1 -0.1)">
       <use xlink:href="#DejaVuSans-30"/>
       <use xlink:href="#DejaVuSans-2e" x="63.623047"/>
       <use xlink:href="#DejaVuSans-36" x="95.410156"/>
      </g>
     </g>
    </g>
    <g id="xtick_11">
     <g id="line2d_18">
      <g>
       <use xlink:href="#m7b2ab69383" x="559.816247" y="561.773333" style="stroke: #000000; stroke-width: 0.8"/>
      </g>
     </g>
     <g id="text_19">
      <!-- 0.8 -->
      <g transform="translate(551.864685 576.371771) scale(0.1 -0.1)">
       <use xlink:href="#DejaVuSans-30"/>
       <use xlink:href="#DejaVuSans-2e" x="63.623047"/>
       <use xlink:href="#DejaVuSans-38" x="95.410156"/>
      </g>
     </g>
    </g>
    <g id="xtick_12">
     <g id="line2d_19">
      <g>
       <use xlink:href="#m7b2ab69383" x="679.077809" y="561.773333" style="stroke: #000000; stroke-width: 0.8"/>
      </g>
     </g>
     <g id="text_20">
      <!-- 1.0 -->
      <g transform="translate(671.126247 576.371771) scale(0.1 -0.1)">
       <use xlink:href="#DejaVuSans-31"/>
       <use xlink:href="#DejaVuSans-2e" x="63.623047"/>
       <use xlink:href="#DejaVuSans-30" x="95.410156"/>
      </g>
     </g>
    </g>
   </g>
   <g id="matplotlib.axis_4">
    <g id="ytick_7">
     <g id="line2d_20">
      <defs>
       <path id="mccb2d49ee6" d="M 0 0 
L -3.5 0 
" style="stroke: #4682b4; stroke-width: 0.8"/>
      </defs>
      <g>
       <use xlink:href="#mccb2d49ee6" x="52.94" y="556.22941" style="fill: #4682b4; stroke: #4682b4; stroke-width: 0.8"/>
      </g>
     </g>
     <g id="text_21">
      <!-- 0.0 -->
      <g style="fill: #4682b4" transform="translate(30.036875 560.028629) scale(0.1 -0.1)">
       <use xlink:href="#DejaVuSans-30"/>
       <use xlink:href="#DejaVuSans-2e" x="63.623047"/>
       <use xlink:href="#DejaVuSans-30" x="95.410156"/>
      </g>
     </g>
    </g>
    <g id="ytick_8">
     <g id="line2d_21">
      <g>
       <use xlink:href="#mccb2d49ee6" x="52.94" y="516.043286" style="fill: #4682b4; stroke: #4682b4; stroke-width: 0.8"/>
      </g>
     </g>
     <g id="text_22">
      <!-- 0.2 -->
      <g style="fill: #4682b4" transform="translate(30.036875 519.842505) scale(0.1 -0.1)">
       <use xlink:href="#DejaVuSans-30"/>
       <use xlink:href="#DejaVuSans-2e" x="63.623047"/>
       <use xlink:href="#DejaVuSans-32" x="95.410156"/>
      </g>
     </g>
    </g>
    <g id="ytick_9">
     <g id="line2d_22">
      <g>
       <use xlink:href="#mccb2d49ee6" x="52.94" y="475.857161" style="fill: #4682b4; stroke: #4682b4; stroke-width: 0.8"/>
      </g>
     </g>
     <g id="text_23">
      <!-- 0.4 -->
      <g style="fill: #4682b4" transform="translate(30.036875 479.65638) scale(0.1 -0.1)">
       <use xlink:href="#DejaVuSans-30"/>
       <use xlink:href="#DejaVuSans-2e" x="63.623047"/>
       <use xlink:href="#DejaVuSans-34" x="95.410156"/>
      </g>
     </g>
    </g>
    <g id="ytick_10">
     <g id="line2d_23">
      <g>
       <use xlink:href="#mccb2d49ee6" x="52.94" y="435.671037" style="fill: #4682b4; stroke: #4682b4; stroke-width: 0.8"/>
      </g>
     </g>
     <g id="text_24">
      <!-- 0.6 -->
      <g style="fill: #4682b4" transform="translate(30.036875 439.470256) scale(0.1 -0.1)">
       <use xlink:href="#DejaVuSans-30"/>
       <use xlink:href="#DejaVuSans-2e" x="63.623047"/>
       <use xlink:href="#DejaVuSans-36" x="95.410156"/>
      </g>
     </g>
    </g>
    <g id="ytick_11">
     <g id="line2d_24">
      <g>
       <use xlink:href="#mccb2d49ee6" x="52.94" y="395.484912" style="fill: #4682b4; stroke: #4682b4; stroke-width: 0.8"/>
      </g>
     </g>
     <g id="text_25">
      <!-- 0.8 -->
      <g style="fill: #4682b4" transform="translate(30.036875 399.284131) scale(0.1 -0.1)">
       <use xlink:href="#DejaVuSans-30"/>
       <use xlink:href="#DejaVuSans-2e" x="63.623047"/>
       <use xlink:href="#DejaVuSans-38" x="95.410156"/>
      </g>
     </g>
    </g>
    <g id="ytick_12">
     <g id="line2d_25">
      <g>
       <use xlink:href="#mccb2d49ee6" x="52.94" y="355.298788" style="fill: #4682b4; stroke: #4682b4; stroke-width: 0.8"/>
      </g>
     </g>
     <g id="text_26">
      <!-- 1.0 -->
      <g style="fill: #4682b4" transform="translate(30.036875 359.098007) scale(0.1 -0.1)">
       <use xlink:href="#DejaVuSans-31"/>
       <use xlink:href="#DejaVuSans-2e" x="63.623047"/>
       <use xlink:href="#DejaVuSans-30" x="95.410156"/>
      </g>
     </g>
    </g>
    <g id="text_27">
     <!-- Duty Cycle -->
     <g style="fill: #4682b4" transform="translate(23.957187 480.812969) rotate(-90) scale(0.1 -0.1)">
      <defs>
       <path id="DejaVuSans-44" d="M 1259 4147 
L 1259 519 
L 2022 519 
Q 2988 519 3436 956 
Q 3884 1394 3884 2338 
Q 3884 3275 3436 3711 
Q 2988 4147 2022 4147 
L 1259 4147 
z
M 628 4666 
L 1925 4666 
Q 3281 4666 3915 4102 
Q 4550 3538 4550 2338 
Q 4550 1131 3912 565 
Q 3275 0 1925 0 
L 628 0 
L 628 4666 
z
" transform="scale(0.015625)"/>
       <path id="DejaVuSans-79" d="M 2059 -325 
Q 1816 -950 1584 -1140 
Q 1353 -1331 966 -1331 
L 506 -1331 
L 506 -850 
L 844 -850 
Q 1081 -850 1212 -737 
Q 1344 -625 1503 -206 
L 1606 56 
L 191 3500 
L 800 3500 
L 1894 763 
L 2988 3500 
L 3597 3500 
L 2059 -325 
z
" transform="scale(0.015625)"/>
       <path id="DejaVuSans-43" d="M 4122 4306 
L 4122 3641 
Q 3803 3938 3442 4084 
Q 3081 4231 2675 4231 
Q 1875 4231 1450 3742 
Q 1025 3253 1025 2328 
Q 1025 1406 1450 917 
Q 1875 428 2675 428 
Q 3081 428 3442 575 
Q 3803 722 4122 1019 
L 4122 359 
Q 3791 134 3420 21 
Q 3050 -91 2638 -91 
Q 1578 -91 968 557 
Q 359 1206 359 2328 
Q 359 3453 968 4101 
Q 1578 4750 2638 4750 
Q 3056 4750 3426 4639 
Q 3797 4528 4122 4306 
z
" transform="scale(0.015625)"/>
       <path id="DejaVuSans-63" d="M 3122 3366 
L 3122 2828 
Q 2878 2963 2633 3030 
Q 2388 3097 2138 3097 
Q 1578 3097 1268 2742 
Q 959 2388 959 1747 
Q 959 1106 1268 751 
Q 1578 397 2138 397 
Q 2388 397 2633 464 
Q 2878 531 3122 666 
L 3122 134 
Q 2881 22 2623 -34 
Q 2366 -91 2075 -91 
Q 1284 -91 818 406 
Q 353 903 353 1747 
Q 353 2603 823 3093 
Q 1294 3584 2113 3584 
Q 2378 3584 2631 3529 
Q 2884 3475 3122 3366 
z
" transform="scale(0.015625)"/>
      </defs>
      <use xlink:href="#DejaVuSans-44"/>
      <use xlink:href="#DejaVuSans-75" x="77.001953"/>
      <use xlink:href="#DejaVuSans-74" x="140.380859"/>
      <use xlink:href="#DejaVuSans-79" x="179.589844"/>
      <use xlink:href="#DejaVuSans-20" x="238.769531"/>
      <use xlink:href="#DejaVuSans-43" x="270.556641"/>
      <use xlink:href="#DejaVuSans-79" x="340.380859"/>
      <use xlink:href="#DejaVuSans-63" x="399.560547"/>
      <use xlink:href="#DejaVuSans-6c" x="454.541016"/>
      <use xlink:href="#DejaVuSans-65" x="482.324219"/>
     </g>
    </g>
   </g>
   <g id="line2d_26">
    <path d="M 82.77 355.298788 
L 93.497577 355.298788 
L 93.610876 355.452657 
L 93.795731 355.452657 
L 93.90903 355.627964 
L 94.093885 355.627964 
L 94.207184 355.954425 
L 94.392039 355.954425 
L 94.505338 355.690011 
L 94.690193 355.690011 
L 94.803492 356.511638 
L 94.988347 356.511638 
L 95.101645 356.647918 
L 95.286501 356.647918 
L 95.399799 356.011776 
L 95.584655 356.011776 
L 95.697953 356.150885 
L 95.882809 356.150885 
L 95.996107 356.886427 
L 96.180963 356.886427 
L 96.294261 356.209872 
L 96.479117 356.209872 
L 96.592415 355.913955 
L 96.77727 355.913955 
L 96.890569 356.046058 
L 97.075424 356.046058 
L 97.188723 355.69592 
L 97.373578 355.69592 
L 97.486877 355.338586 
L 98.566194 355.298788 
L 98.679492 355.947917 
L 98.864348 355.947917 
L 98.977646 355.427219 
L 99.162502 355.427219 
L 99.2758 356.308942 
L 99.460656 356.308942 
L 99.573954 356.830885 
L 99.758809 356.830885 
L 99.872108 357.313934 
L 100.056963 357.313934 
L 100.170262 356.136894 
L 100.355117 356.136894 
L 100.468416 355.887725 
L 100.653271 355.887725 
L 100.76657 355.298788 
L 106.318195 355.298788 
L 106.431494 551.941212 
L 106.616349 551.941212 
L 106.729648 355.298788 
L 111.386812 355.298788 
L 111.50011 355.696991 
L 111.684966 355.696991 
L 111.798264 356.393499 
L 111.98312 356.393499 
L 112.096418 356.220818 
L 112.281273 356.220818 
L 112.394572 355.614485 
L 112.877581 355.682779 
L 112.99088 355.899345 
L 113.175735 355.899345 
L 113.289034 355.298788 
L 115.85912 355.298788 
L 115.972419 355.688392 
L 116.455428 355.705014 
L 116.568727 356.23471 
L 116.753582 356.23471 
L 116.866881 356.95549 
L 117.051736 356.95549 
L 117.165034 356.224699 
L 118.244352 356.139885 
L 118.35765 355.298788 
L 118.840659 355.298788 
L 118.953958 355.689576 
L 119.735121 355.664143 
L 119.84842 356.110755 
L 120.033275 356.110755 
L 120.146573 356.549271 
L 120.331429 356.549271 
L 120.444727 356.905915 
L 120.927737 356.881662 
L 121.041035 356.663145 
L 121.225891 356.663145 
L 121.339189 356.492845 
L 121.524045 356.492845 
L 121.637343 356.251512 
L 121.822198 356.251512 
L 121.935497 357.019367 
L 122.120352 357.019367 
L 122.233651 356.35658 
L 122.418506 356.35658 
L 122.531805 355.298788 
L 125.698199 355.298788 
L 125.811498 356.00842 
L 125.996353 356.00842 
L 126.109652 356.407935 
L 126.592661 356.380281 
L 126.705959 357.278875 
L 126.890815 357.278875 
L 127.004113 357.581322 
L 127.785277 357.504955 
L 127.898575 357.246463 
L 128.08343 357.246463 
L 128.196729 358.344438 
L 128.381584 358.344438 
L 128.494883 358.476786 
L 128.679738 358.476786 
L 128.793037 357.425078 
L 128.977892 357.425078 
L 129.091191 356.489904 
L 129.276046 356.489904 
L 129.389345 532.720077 
L 129.5742 532.720077 
L 129.687498 357.120048 
L 129.872354 357.120048 
L 129.985652 356.437094 
L 130.170508 356.437094 
L 130.283806 357.756529 
L 130.468662 357.756529 
L 130.58196 356.919728 
L 130.766816 356.919728 
L 130.880114 357.132647 
L 131.064969 357.132647 
L 131.178268 358.156662 
L 131.661277 358.134632 
L 131.774576 358.775096 
L 131.959431 358.775096 
L 132.07273 359.425913 
L 132.257585 359.425913 
L 132.370884 359.169339 
L 132.555739 359.169339 
L 132.669037 360.046943 
L 132.853893 360.046943 
L 132.967191 359.564982 
L 133.152047 359.564982 
L 133.265345 359.801747 
L 133.450201 359.801747 
L 133.563499 360.299713 
L 133.748355 360.299713 
L 133.861653 359.441813 
L 134.046509 359.441813 
L 134.159807 360.79213 
L 134.344662 360.79213 
L 134.457961 360.100525 
L 134.642816 360.100525 
L 134.756115 359.636311 
L 134.94097 359.636311 
L 135.054269 359.401866 
L 135.239124 359.401866 
L 135.352423 359.796946 
L 135.835432 359.794587 
L 135.94873 358.980592 
L 136.133586 358.980592 
L 136.246884 358.713999 
L 136.43174 358.713999 
L 136.545038 358.108875 
L 136.729894 358.108875 
L 136.843192 356.543126 
L 137.028048 356.543126 
L 137.141346 356.272971 
L 137.326201 356.272971 
L 137.4395 355.767089 
L 137.624355 355.767089 
L 137.737654 356.151551 
L 138.220663 356.133022 
L 138.333962 355.559162 
L 138.518817 355.559162 
L 138.632116 355.768278 
L 138.816971 355.768278 
L 138.930269 356.795256 
L 139.115125 356.795256 
L 139.228423 356.912035 
L 139.413279 356.912035 
L 139.526577 356.157133 
L 140.009587 356.084211 
L 140.122885 356.027632 
L 140.307741 356.027632 
L 140.421039 355.824966 
L 140.605894 355.824966 
L 140.719193 356.019514 
L 140.904048 356.019514 
L 141.017347 356.486492 
L 141.202202 356.486492 
L 141.315501 356.669314 
L 141.500356 356.669314 
L 141.613655 356.10954 
L 142.096664 356.155871 
L 142.209962 355.654637 
L 142.692972 355.66559 
L 142.80627 355.919244 
L 142.991126 355.919244 
L 143.104424 356.752236 
L 143.28928 356.752236 
L 143.402578 355.637984 
L 143.587433 355.637984 
L 143.700732 356.236593 
L 143.885587 356.236593 
L 143.998886 356.641666 
L 144.481895 356.674332 
L 144.595194 357.399162 
L 144.780049 357.399162 
L 144.893348 357.795034 
L 145.078203 357.795034 
L 145.191501 358.004132 
L 145.376357 358.004132 
L 145.489655 357.558891 
L 145.674511 357.558891 
L 145.787809 357.676697 
L 145.972665 357.676697 
L 146.085963 357.793441 
L 146.270819 357.793441 
L 146.384117 357.116176 
L 146.867126 357.164937 
L 146.980425 356.576569 
L 147.463434 356.545714 
L 147.576733 357.389763 
L 147.761588 357.389763 
L 147.874887 356.753254 
L 148.059742 356.753254 
L 148.173041 356.916312 
L 148.65605 356.979059 
L 148.769348 356.647077 
L 148.954204 356.647077 
L 149.067502 356.103286 
L 149.252358 356.103286 
L 149.365656 355.298788 
L 149.550512 355.298788 
L 149.66381 355.996901 
L 149.848665 355.996901 
L 149.961964 357.72084 
L 150.146819 357.72084 
L 150.260118 358.376729 
L 150.444973 358.376729 
L 150.558272 357.636495 
L 150.743127 357.636495 
L 150.856426 357.774842 
L 151.041281 357.774842 
L 151.15458 358.151291 
L 151.339435 358.151291 
L 151.452733 358.287194 
L 151.935743 358.273252 
L 152.049041 357.526476 
L 152.233897 357.526476 
L 152.347195 357.385398 
L 152.532051 357.385398 
L 152.645349 357.166831 
L 152.830204 357.166831 
L 152.943503 357.324832 
L 153.128358 357.324832 
L 153.241657 356.673348 
L 153.426512 356.673348 
L 153.539811 357.210477 
L 153.724666 357.210477 
L 153.837965 357.505002 
L 154.02282 357.505002 
L 154.136119 357.160259 
L 154.619128 357.255208 
L 154.732426 356.231308 
L 154.917282 356.231308 
L 155.03058 356.863172 
L 155.215436 356.863172 
L 155.328734 357.089861 
L 155.811744 357.062125 
L 155.925042 357.423672 
L 156.109897 357.423672 
L 156.223196 535.197238 
L 156.408051 535.197238 
L 156.52135 355.95405 
L 156.706205 355.95405 
L 156.819504 355.842801 
L 157.302513 355.845261 
L 157.415812 355.718209 
L 157.600667 355.718209 
L 157.713965 355.576123 
L 157.898821 355.576123 
L 158.012119 355.298788 
L 158.196975 355.298788 
L 158.310273 355.446524 
L 158.495129 355.446524 
L 158.608427 355.298788 
L 161.178514 355.298788 
L 161.291812 355.452058 
L 161.476668 355.452058 
L 161.589966 355.298788 
L 185.030826 355.298788 
L 185.144125 356.712531 
L 185.627134 356.768873 
L 185.740432 357.112451 
L 185.925288 357.112451 
L 186.038586 357.531354 
L 186.223442 357.531354 
L 186.33674 357.312808 
L 186.521596 357.312808 
L 186.634894 357.662174 
L 187.416057 357.67566 
L 187.529356 356.853845 
L 187.714211 356.853845 
L 187.82751 356.425042 
L 188.310519 356.404523 
L 188.423818 357.074547 
L 188.906827 357.100552 
L 189.020125 356.912281 
L 189.204981 356.912281 
L 189.318279 356.495654 
L 189.503135 356.495654 
L 189.616433 356.066333 
L 189.801289 356.066333 
L 189.914587 356.692319 
L 190.099443 356.692319 
L 190.212741 357.778822 
L 190.397596 357.778822 
L 190.510895 358.106163 
L 190.69575 358.106163 
L 190.809049 358.496456 
L 190.993904 358.496456 
L 191.107203 357.560038 
L 191.590212 357.596235 
L 191.703511 357.804199 
L 191.888366 357.804199 
L 192.001664 357.335365 
L 192.18652 357.335365 
L 192.299818 356.591183 
L 192.484674 356.591183 
L 192.597972 356.439645 
L 192.782828 356.439645 
L 192.896126 356.580403 
L 193.080982 356.580403 
L 193.19428 356.84668 
L 193.379136 356.84668 
L 193.492434 357.915144 
L 193.677289 357.915144 
L 193.790588 358.206659 
L 193.975443 358.206659 
L 194.088742 357.802996 
L 194.273597 357.802996 
L 194.386896 358.361237 
L 194.571751 358.361237 
L 194.68505 359.160352 
L 194.869905 359.160352 
L 194.983204 359.80934 
L 195.168059 359.80934 
L 195.281357 359.403771 
L 195.466213 359.403771 
L 195.579511 359.270623 
L 195.764367 359.270623 
L 195.877665 358.575097 
L 196.062521 358.575097 
L 196.175819 358.345852 
L 196.360675 358.345852 
L 196.473973 359.215913 
L 196.658828 359.215913 
L 196.772127 358.614591 
L 196.956982 358.614591 
L 197.070281 358.339682 
L 197.255136 358.339682 
L 197.368435 357.969122 
L 197.55329 357.969122 
L 197.666589 357.254585 
L 198.149598 357.315172 
L 198.262896 356.997541 
L 198.447752 356.997541 
L 198.56105 357.577965 
L 198.745906 357.577965 
L 198.859204 357.849315 
L 199.04406 357.849315 
L 199.157358 358.557315 
L 199.342214 358.557315 
L 199.455512 358.181253 
L 199.640368 358.181253 
L 199.753666 358.011309 
L 199.938521 358.011309 
L 200.05182 357.815612 
L 200.236675 357.815612 
L 200.349974 357.987828 
L 200.534829 357.987828 
L 200.648128 357.808173 
L 201.131137 357.788003 
L 201.244436 357.278858 
L 201.429291 357.278858 
L 201.542589 357.460765 
L 201.727445 357.460765 
L 201.840743 356.489155 
L 202.025599 356.489155 
L 202.138897 355.921357 
L 202.323753 355.921357 
L 202.437051 356.058054 
L 202.621907 356.058054 
L 202.735205 356.274299 
L 203.218214 356.297782 
L 203.331513 355.88465 
L 203.516368 355.88465 
L 203.629667 355.704879 
L 204.41083 355.727901 
L 204.524128 355.977923 
L 205.007138 356.012737 
L 205.120436 356.254936 
L 205.603446 356.236381 
L 205.716744 356.545078 
L 205.9016 356.545078 
L 206.014898 355.824723 
L 206.199753 355.824723 
L 206.313052 355.311626 
L 206.497907 355.311626 
L 206.611206 355.492889 
L 206.796061 355.492889 
L 206.90936 355.298788 
L 207.094215 355.298788 
L 207.207514 355.452286 
L 207.392369 355.452286 
L 207.505668 355.298788 
L 222.300064 355.298788 
L 222.413363 473.458076 
L 222.598218 473.458076 
L 222.711517 355.298788 
L 235.418836 355.298788 
L 235.532135 535.296734 
L 235.71699 535.296734 
L 235.830288 355.298788 
L 239.592991 355.298788 
L 239.706289 355.489321 
L 239.891145 355.489321 
L 240.004443 355.298788 
L 240.189299 355.298788 
L 240.302597 355.595252 
L 240.785606 355.67318 
L 240.898905 356.135303 
L 241.381914 356.209958 
L 241.495213 356.851241 
L 241.680068 356.851241 
L 241.793367 357.714327 
L 241.978222 357.714327 
L 242.09152 357.475276 
L 242.276376 357.475276 
L 242.389674 358.465816 
L 242.57453 358.465816 
L 242.687828 358.687711 
L 242.872684 358.687711 
L 242.985982 359.566216 
L 243.170838 359.566216 
L 243.284136 360.286791 
L 243.468991 360.286791 
L 243.58229 359.69784 
L 243.767145 359.69784 
L 243.880444 358.763183 
L 244.065299 358.763183 
L 244.178598 358.594933 
L 244.661607 358.550907 
L 244.774906 357.966215 
L 244.959761 357.966215 
L 245.07306 357.588128 
L 245.257915 357.588128 
L 245.371213 358.181122 
L 245.854223 358.229731 
L 245.967521 358.633927 
L 246.152377 358.633927 
L 246.265675 358.479618 
L 246.450531 358.479618 
L 246.563829 358.858222 
L 246.748684 358.858222 
L 246.861983 358.193216 
L 247.046838 358.193216 
L 247.160137 358.573375 
L 247.344992 358.573375 
L 247.458291 533.823443 
L 247.643146 533.823443 
L 247.756445 443.725461 
L 247.9413 443.725461 
L 248.054599 358.284297 
L 248.239454 358.284297 
L 248.352752 357.52901 
L 248.537608 357.52901 
L 248.650906 357.788 
L 248.835762 357.788 
L 248.94906 358.535406 
L 249.133916 358.535406 
L 249.247214 358.325213 
L 249.43207 358.325213 
L 249.545368 357.460871 
L 250.028377 357.424176 
L 250.141676 356.251213 
L 250.326531 356.251213 
L 250.43983 357.015424 
L 250.624685 357.015424 
L 250.737984 357.146568 
L 250.922839 357.146568 
L 251.036138 357.449751 
L 251.519147 357.535383 
L 251.632445 357.044835 
L 251.817301 357.044835 
L 251.930599 357.75932 
L 252.115455 357.75932 
L 252.228753 357.93003 
L 252.413609 357.93003 
L 252.526907 358.289701 
L 253.009916 358.196109 
L 253.123215 357.715159 
L 253.30807 357.715159 
L 253.421369 357.11783 
L 253.606224 357.11783 
L 253.719523 356.812768 
L 253.904378 356.812768 
L 254.017677 356.110762 
L 254.202532 356.110762 
L 254.315831 355.693061 
L 254.500686 355.693061 
L 254.613984 355.981869 
L 254.79884 355.981869 
L 254.912138 355.298788 
L 255.395148 355.298788 
L 255.508446 355.974283 
L 255.693302 355.974283 
L 255.8066 355.298788 
L 257.184071 355.298788 
L 257.29737 355.559248 
L 257.482225 355.559248 
L 257.595523 355.765514 
L 257.780379 355.765514 
L 257.893677 355.298788 
L 269.408381 355.298788 
L 269.52168 356.39314 
L 269.706535 356.39314 
L 269.819834 356.713469 
L 270.004689 356.713469 
L 270.117987 357.93623 
L 270.302843 357.93623 
L 270.416141 358.112863 
L 270.899151 358.152275 
L 271.012449 357.771341 
L 271.197305 357.771341 
L 271.310603 357.609643 
L 271.495459 357.609643 
L 271.608757 357.474852 
L 272.091766 357.371808 
L 272.205065 356.460262 
L 272.38992 356.460262 
L 272.503219 355.776631 
L 272.688074 355.776631 
L 272.801373 356.291852 
L 273.284382 356.317703 
L 273.39768 355.52622 
L 273.582536 355.52622 
L 273.695834 355.298788 
L 277.160383 355.363572 
L 277.273681 356.06847 
L 277.756691 355.999671 
L 277.869989 356.346105 
L 278.054844 356.346105 
L 278.168143 355.379745 
L 278.352998 355.379745 
L 278.466297 355.990273 
L 278.651152 355.990273 
L 278.764451 356.189989 
L 278.949306 356.189989 
L 279.062605 355.298788 
L 279.545614 355.298788 
L 279.658912 355.842191 
L 279.843768 355.842191 
L 279.957066 356.112557 
L 280.141922 356.112557 
L 280.25522 356.795698 
L 280.440076 356.795698 
L 280.553374 357.310191 
L 280.73823 357.310191 
L 280.851528 357.882224 
L 281.036383 357.882224 
L 281.149682 358.148387 
L 281.334537 358.148387 
L 281.447836 358.589707 
L 281.632691 358.589707 
L 281.74599 358.781992 
L 281.930845 358.781992 
L 282.044144 358.436862 
L 282.228999 358.436862 
L 282.342298 359.292315 
L 282.527153 359.292315 
L 282.640451 359.102765 
L 282.825307 359.102765 
L 282.938605 359.41389 
L 283.123461 359.41389 
L 283.236759 359.069093 
L 283.421615 359.069093 
L 283.534913 358.240037 
L 283.719769 358.240037 
L 283.833067 358.05939 
L 284.017923 358.05939 
L 284.131221 357.864962 
L 284.61423 357.814976 
L 284.727529 356.921296 
L 284.912384 356.921296 
L 285.025683 356.67032 
L 285.210538 356.67032 
L 285.323837 355.801656 
L 285.508692 355.801656 
L 285.621991 355.298788 
L 286.403154 355.298788 
L 286.516452 356.418392 
L 286.999462 356.308361 
L 287.11276 356.986931 
L 287.297615 356.986931 
L 287.410914 357.656849 
L 287.595769 357.656849 
L 287.709068 356.141252 
L 287.893923 356.141252 
L 288.007222 356.266491 
L 288.192077 356.266491 
L 288.305376 355.298788 
L 289.981001 355.350004 
L 290.094299 355.463022 
L 290.279155 355.463022 
L 290.392453 355.298788 
L 290.875462 355.298788 
L 290.988761 355.873366 
L 291.173616 355.873366 
L 291.286915 355.494541 
L 291.47177 355.494541 
L 291.585069 355.298788 
L 293.260694 355.298788 
L 293.373992 355.535865 
L 293.558847 355.535865 
L 293.672146 355.298788 
L 296.540387 355.298788 
L 296.653685 355.894521 
L 296.83854 355.894521 
L 296.951839 355.29955 
L 297.136694 355.29955 
L 297.249993 355.828276 
L 297.434848 355.828276 
L 297.548147 355.680023 
L 297.733002 355.680023 
L 297.846301 355.298788 
L 299.820079 355.298788 
L 299.933378 355.809991 
L 300.416387 355.85192 
L 300.529686 356.107319 
L 300.714541 356.107319 
L 300.82784 356.741598 
L 301.012695 356.741598 
L 301.125994 356.234832 
L 301.310849 356.234832 
L 301.424147 355.597466 
L 301.609003 355.597466 
L 301.722301 355.72342 
L 302.205311 355.635561 
L 302.318609 355.942339 
L 302.801619 355.899788 
L 302.914917 355.605042 
L 303.099772 355.605042 
L 303.213071 355.827367 
L 303.397926 355.827367 
L 303.511225 356.364416 
L 303.69608 356.364416 
L 303.809379 355.450976 
L 303.994234 355.450976 
L 304.107533 355.298788 
L 307.870235 355.298788 
L 307.983533 355.950091 
L 308.168389 355.950091 
L 308.281687 355.315946 
L 309.361004 355.298788 
L 309.474303 356.009499 
L 309.659158 356.009499 
L 309.772457 355.463841 
L 309.957312 355.463841 
L 310.070611 355.678687 
L 310.255466 355.678687 
L 310.368765 355.298788 
L 310.55362 355.298788 
L 310.666919 355.435229 
L 310.851774 355.435229 
L 310.965072 355.298788 
L 311.448082 355.298788 
L 311.56138 356.164799 
L 312.04439 356.17536 
L 312.157688 355.999327 
L 312.342543 355.999327 
L 312.455842 357.490446 
L 312.640697 357.490446 
L 312.753996 357.327729 
L 312.938851 357.327729 
L 313.05215 357.676594 
L 313.237005 357.676594 
L 313.350304 358.060879 
L 313.535159 358.060879 
L 313.648458 357.180624 
L 313.833313 357.180624 
L 313.946611 357.531074 
L 314.131467 357.531074 
L 314.244765 357.361367 
L 314.429621 357.361367 
L 314.542919 357.698838 
L 314.727775 357.698838 
L 314.841073 357.281059 
L 315.025929 357.281059 
L 315.139227 356.418985 
L 315.622236 356.345738 
L 315.735535 356.92943 
L 315.92039 356.92943 
L 316.033689 356.770247 
L 316.218544 356.770247 
L 316.331843 357.472669 
L 316.516698 357.472669 
L 316.629997 356.807357 
L 316.814852 356.807357 
L 316.928151 356.648816 
L 317.113006 356.648816 
L 317.226304 355.839527 
L 317.41116 355.839527 
L 317.524458 355.490237 
L 318.007468 355.458592 
L 318.120766 355.744262 
L 318.305622 355.744262 
L 318.41892 355.298788 
L 318.901929 355.330695 
L 319.015228 356.003467 
L 319.200083 356.003467 
L 319.313382 356.471827 
L 319.498237 356.471827 
L 319.611536 356.846188 
L 319.796391 356.846188 
L 319.90969 356.200848 
L 320.094545 356.200848 
L 320.207843 356.044251 
L 320.392699 356.044251 
L 320.505997 356.529253 
L 320.690853 356.529253 
L 320.804151 355.298788 
L 327.250239 355.374459 
L 327.363537 355.77737 
L 327.548393 355.77737 
L 327.661691 355.298788 
L 327.846546 355.298788 
L 327.959845 355.522912 
L 328.1447 355.522912 
L 328.257999 355.298788 
L 328.442854 355.298788 
L 328.556153 355.861328 
L 328.741008 355.861328 
L 328.854307 355.668302 
L 329.039162 355.668302 
L 329.152461 355.908675 
L 329.337316 355.908675 
L 329.450614 356.083178 
L 329.63547 356.083178 
L 329.748768 355.298788 
L 340.667164 355.307716 
L 340.780463 355.413673 
L 340.965318 355.413673 
L 341.078617 355.298788 
L 341.561626 355.298788 
L 341.674925 355.589832 
L 342.157934 355.674348 
L 342.271232 355.918526 
L 342.456088 355.918526 
L 342.569386 355.298788 
L 343.946857 355.298788 
L 344.060156 381.120003 
L 344.245011 381.120003 
L 344.35831 355.298788 
L 372.867786 355.298788 
L 372.981085 535.07285 
L 373.16594 535.07285 
L 373.279238 355.298788 
L 412.820409 355.298788 
L 412.933708 360.326679 
L 413.118563 360.326679 
L 413.231862 355.298788 
L 440.846876 355.298788 
L 440.960175 530.859218 
L 441.14503 530.859218 
L 441.258329 355.298788 
L 453.965648 355.298788 
L 454.078947 455.735401 
L 454.263802 455.735401 
L 454.377101 355.298788 
L 456.350879 355.298788 
L 456.464178 437.433152 
L 456.649033 437.433152 
L 456.762332 355.298788 
L 477.221653 355.298788 
L 477.334951 355.479782 
L 477.519807 355.479782 
L 477.633105 356.284358 
L 477.81796 356.284358 
L 477.931259 356.050865 
L 478.116114 356.050865 
L 478.229413 357.071724 
L 478.414268 357.071724 
L 478.527567 356.871604 
L 479.010576 356.84722 
L 479.123875 357.889014 
L 479.30873 357.889014 
L 479.422029 358.031171 
L 479.606884 358.031171 
L 479.720182 358.213486 
L 480.203192 358.248325 
L 480.31649 357.512754 
L 480.501346 357.512754 
L 480.614644 357.671423 
L 480.7995 357.671423 
L 480.912798 358.168329 
L 481.097653 358.168329 
L 481.210952 357.545548 
L 481.395807 357.545548 
L 481.509106 357.674292 
L 481.693961 357.674292 
L 481.80726 357.224001 
L 481.992115 357.224001 
L 482.105414 357.943821 
L 482.290269 357.943821 
L 482.403568 357.613352 
L 482.886577 357.641064 
L 482.999875 356.461902 
L 483.184731 356.461902 
L 483.298029 356.070635 
L 483.482885 356.070635 
L 483.596183 355.605397 
L 484.079192 355.49979 
L 484.192491 356.475001 
L 484.377346 356.475001 
L 484.490645 356.157932 
L 484.6755 356.157932 
L 484.788799 355.862472 
L 484.973654 355.862472 
L 485.086953 356.182106 
L 485.569962 356.204635 
L 485.683261 356.653793 
L 485.868116 356.653793 
L 485.981414 356.517353 
L 486.16627 356.517353 
L 486.279568 356.924499 
L 486.464424 356.924499 
L 486.577722 357.199874 
L 486.762578 357.199874 
L 486.875876 358.291135 
L 487.060732 358.291135 
L 487.17403 357.423077 
L 487.358885 357.423077 
L 487.472184 357.674241 
L 487.955193 357.66393 
L 488.068492 358.156391 
L 488.253347 358.156391 
L 488.366646 358.633829 
L 488.551501 358.633829 
L 488.6648 358.318082 
L 489.147809 358.377753 
L 489.261107 358.901289 
L 489.445963 358.901289 
L 489.559261 358.277913 
L 489.744117 358.277913 
L 489.857415 358.517948 
L 490.042271 358.517948 
L 490.155569 358.117427 
L 490.340424 358.117427 
L 490.453723 356.393874 
L 490.638578 356.393874 
L 490.751877 355.84456 
L 491.234886 355.909948 
L 491.348185 356.243778 
L 491.53304 356.243778 
L 491.646339 355.804703 
L 491.831194 355.804703 
L 491.944492 356.183261 
L 492.129348 356.183261 
L 492.242646 355.894773 
L 492.427502 355.894773 
L 492.5408 356.352946 
L 492.725656 356.352946 
L 492.838954 356.731848 
L 493.02381 356.731848 
L 493.137108 356.066661 
L 493.321964 356.066661 
L 493.435262 355.846074 
L 493.620117 355.846074 
L 493.733416 356.517943 
L 493.918271 356.517943 
L 494.03157 356.874071 
L 494.216425 356.874071 
L 494.329724 356.453067 
L 494.514579 356.453067 
L 494.627878 357.013711 
L 494.812733 357.013711 
L 494.926032 356.084219 
L 495.110887 356.084219 
L 495.224185 355.538339 
L 495.707195 355.433184 
L 495.820493 355.32062 
L 496.005349 355.32062 
L 496.118647 355.651228 
L 496.601656 355.566264 
L 496.714955 356.603867 
L 496.89981 356.603867 
L 497.013109 356.462893 
L 497.496118 356.392659 
L 497.609417 356.246856 
L 497.794272 356.246856 
L 497.907571 356.068286 
L 498.092426 356.068286 
L 498.205724 355.298788 
L 499.285042 355.344526 
L 499.39834 355.52071 
L 499.583196 355.52071 
L 499.696494 355.298788 
L 502.862888 355.341124 
L 502.976187 355.535255 
L 503.161042 355.535255 
L 503.274341 356.026582 
L 503.459196 356.026582 
L 503.572495 356.248094 
L 504.055504 356.340258 
L 504.168803 357.595863 
L 504.353658 357.595863 
L 504.466956 357.981964 
L 504.651812 357.981964 
L 504.76511 357.666368 
L 504.949966 357.666368 
L 505.063264 356.924878 
L 505.24812 356.924878 
L 505.361418 356.783579 
L 505.546274 356.783579 
L 505.659572 356.49299 
L 505.844428 356.49299 
L 505.957726 355.766027 
L 506.142581 355.766027 
L 506.25588 356.902147 
L 506.440735 356.902147 
L 506.554034 357.103828 
L 506.738889 357.103828 
L 506.852188 356.319141 
L 507.037043 356.319141 
L 507.150342 355.54713 
L 507.633351 355.59237 
L 507.746649 356.233422 
L 507.931505 356.233422 
L 508.044803 356.463908 
L 508.229659 356.463908 
L 508.342957 355.68622 
L 508.527813 355.68622 
L 508.641111 355.298788 
L 510.913044 355.298788 
L 511.026342 355.794429 
L 511.211198 355.794429 
L 511.324496 355.641169 
L 511.509352 355.641169 
L 511.62265 355.298788 
L 535.659818 355.298788 
L 535.773116 550.353916 
L 535.957972 550.353916 
L 536.07127 355.298788 
L 542.517358 355.298788 
L 542.630656 540.921195 
L 542.815512 540.921195 
L 542.92881 355.298788 
L 549.374898 355.298788 
L 549.488196 519.736047 
L 549.673052 519.736047 
L 549.78635 355.298788 
L 563.388131 355.379727 
L 563.50143 356.465677 
L 563.984439 356.426659 
L 564.097737 355.810186 
L 564.580747 355.772199 
L 564.694045 356.235476 
L 564.878901 356.235476 
L 564.992199 356.415188 
L 565.177055 356.415188 
L 565.290353 356.834819 
L 565.475208 356.834819 
L 565.588507 356.090218 
L 566.071516 356.1879 
L 566.184815 355.806982 
L 566.36967 355.806982 
L 566.482969 355.527126 
L 566.667824 355.527126 
L 566.781123 356.144897 
L 566.965978 356.144897 
L 567.079276 356.956599 
L 567.264132 356.956599 
L 567.37743 356.382688 
L 567.562286 356.382688 
L 567.675584 356.538977 
L 567.86044 356.538977 
L 567.973738 355.824179 
L 568.158594 355.824179 
L 568.271892 355.625429 
L 568.456747 355.625429 
L 568.570046 408.478945 
L 568.754901 408.478945 
L 568.8682 357.205016 
L 569.053055 357.205016 
L 569.166354 357.351717 
L 569.351209 357.351717 
L 569.464508 357.213114 
L 569.649363 357.213114 
L 569.762662 356.825569 
L 569.947517 356.825569 
L 570.060816 356.198325 
L 570.245671 356.198325 
L 570.358969 356.499865 
L 570.543825 356.499865 
L 570.657123 356.388384 
L 570.841979 356.388384 
L 570.955277 356.162848 
L 571.140133 356.162848 
L 571.253431 356.761177 
L 571.438287 356.761177 
L 571.551585 357.292968 
L 571.73644 357.292968 
L 571.849739 356.887224 
L 572.332748 356.822565 
L 572.446047 355.750801 
L 572.630902 355.750801 
L 572.744201 356.934763 
L 572.929056 356.934763 
L 573.042355 357.162771 
L 573.525364 357.147709 
L 573.638662 357.744143 
L 573.823518 357.744143 
L 573.936816 357.004393 
L 574.121672 357.004393 
L 574.23497 356.031103 
L 574.419826 356.031103 
L 574.533124 356.262528 
L 574.717979 356.262528 
L 574.831278 356.032096 
L 575.314287 356.115155 
L 575.427586 356.172372 
L 575.612441 356.172372 
L 575.72574 355.760935 
L 575.910595 355.760935 
L 576.023894 355.298788 
L 576.208749 355.298788 
L 576.322047 355.922799 
L 576.506903 355.922799 
L 576.620201 355.298788 
L 577.401365 355.349916 
L 577.514663 355.539901 
L 577.699519 355.539901 
L 577.812817 355.298788 
L 577.997672 355.298788 
L 578.110971 355.58122 
L 578.295826 355.58122 
L 578.409125 355.466991 
L 578.59398 355.466991 
L 578.707279 355.849898 
L 578.892134 355.849898 
L 579.005433 356.221002 
L 579.190288 356.221002 
L 579.303587 355.956816 
L 579.488442 355.956816 
L 579.60174 355.512402 
L 579.786596 355.512402 
L 579.899894 355.718302 
L 580.08475 355.718302 
L 580.198048 355.498473 
L 580.382904 355.498473 
L 580.496202 356.614891 
L 580.681058 356.614891 
L 580.794356 358.143115 
L 581.277365 358.176857 
L 581.390664 358.005044 
L 581.575519 358.005044 
L 581.688818 358.271741 
L 581.873673 358.271741 
L 581.986972 357.801164 
L 582.171827 357.801164 
L 582.285126 358.371227 
L 582.469981 358.371227 
L 582.583279 359.095002 
L 582.768135 359.095002 
L 582.881433 358.313346 
L 583.066289 358.313346 
L 583.179587 358.137651 
L 583.364443 358.137651 
L 583.477741 357.910996 
L 583.662597 357.910996 
L 583.775895 357.142794 
L 583.960751 357.142794 
L 584.074049 355.298788 
L 585.153366 355.298788 
L 585.266665 355.525017 
L 585.45152 355.525017 
L 585.564819 355.298788 
L 586.047828 355.298788 
L 586.161126 355.531331 
L 586.345982 355.531331 
L 586.45928 355.732164 
L 586.644136 355.732164 
L 586.757434 355.961772 
L 587.240443 355.943982 
L 587.353742 356.399863 
L 587.836751 356.457866 
L 587.95005 356.158691 
L 588.134905 356.158691 
L 588.248204 356.818315 
L 588.433059 356.818315 
L 588.546358 356.593037 
L 588.731213 356.593037 
L 588.844511 357.354062 
L 589.029367 357.354062 
L 589.142665 357.221182 
L 589.625675 357.133197 
L 589.738973 357.578314 
L 589.923829 357.578314 
L 590.037127 357.167025 
L 590.221983 357.167025 
L 590.335281 355.955914 
L 590.520136 355.955914 
L 590.633435 355.661024 
L 590.81829 355.661024 
L 590.931589 355.42426 
L 591.116444 355.42426 
L 591.229743 355.298788 
L 593.799829 355.298788 
L 593.913128 355.555363 
L 594.097983 355.555363 
L 594.211282 355.298788 
L 594.396137 355.298788 
L 594.509436 355.777406 
L 594.694291 355.777406 
L 594.80759 356.423554 
L 594.992445 356.423554 
L 595.105743 357.001627 
L 595.290599 357.001627 
L 595.403897 356.866628 
L 595.588753 356.866628 
L 595.702051 355.860244 
L 595.886907 355.860244 
L 596.000205 355.980669 
L 596.185061 355.980669 
L 596.298359 355.581852 
L 596.483215 355.581852 
L 596.596513 355.438099 
L 596.781368 355.438099 
L 596.894667 355.298788 
L 597.079522 355.298788 
L 597.192821 356.621458 
L 597.377676 356.621458 
L 597.490975 355.298788 
L 619.739219 355.298788 
L 619.852518 534.910911 
L 620.037373 534.910911 
L 620.150671 355.298788 
L 640.908146 355.298788 
L 641.021445 355.813918 
L 641.2063 355.813918 
L 641.319599 355.298788 
L 641.802608 355.298788 
L 641.915907 355.558889 
L 642.100762 355.558889 
L 642.21406 355.298788 
L 642.398916 355.298788 
L 642.512214 355.473128 
L 642.69707 355.473128 
L 642.810368 355.298788 
L 645.678609 355.298788 
L 645.791907 355.875517 
L 645.976763 355.875517 
L 646.090061 357.116578 
L 646.274917 357.116578 
L 646.388215 356.955243 
L 646.871224 356.932623 
L 646.984523 356.273707 
L 647.169378 356.273707 
L 647.282677 355.6408 
L 647.467532 355.6408 
L 647.580831 356.724997 
L 647.765686 356.724997 
L 647.878985 357.453723 
L 648.361994 357.405789 
L 648.475292 357.172126 
L 648.660148 357.172126 
L 648.773446 357.871253 
L 648.958302 357.871253 
L 649.0716 358.47811 
L 649.55461 358.468806 
L 649.667908 358.82436 
L 649.852763 358.82436 
L 649.966062 358.014865 
L 650.150917 358.014865 
L 650.264216 357.640439 
L 650.449071 357.640439 
L 650.56237 357.780255 
L 651.343533 357.8793 
L 651.456831 357.153056 
L 651.641687 357.153056 
L 651.754985 357.484919 
L 651.939841 357.484919 
L 652.053139 357.712347 
L 652.237995 357.712347 
L 652.351293 355.887158 
L 652.834302 355.931048 
L 652.947601 356.795936 
L 653.132456 356.795936 
L 653.245755 357.200679 
L 653.728764 357.231387 
L 653.842063 357.312293 
L 654.623226 357.352198 
L 654.736524 356.912319 
L 654.92138 356.912319 
L 655.034678 356.25702 
L 655.219534 356.25702 
L 655.332832 355.571102 
L 655.517688 355.571102 
L 655.630986 355.85529 
L 656.113995 355.916265 
L 656.227294 355.298788 
L 672.810614 355.298788 
L 672.923913 443.108632 
L 673.108768 443.108632 
L 673.222066 355.298788 
L 673.705076 355.298788 
L 673.818374 453.812617 
L 674.00323 453.812617 
L 674.116528 355.298788 
L 679.37 355.298788 
L 679.37 355.298788 
" clip-path="url(#pbe5231e71a)" style="fill: none; stroke: #4682b4; stroke-width: 1.5; stroke-linecap: square"/>
   </g>
   <g id="patch_8">
    <path d="M 52.94 561.773333 
L 52.94 345.466667 
" style="fill: none; stroke: #000000; stroke-width: 0.8; stroke-linejoin: miter; stroke-linecap: square"/>
   </g>
   <g id="patch_9">
    <path d="M 709.2 561.773333 
L 709.2 345.466667 
" style="fill: none; stroke: #000000; stroke-width: 0.8; stroke-linejoin: miter; stroke-linecap: square"/>
   </g>
   <g id="patch_10">
    <path d="M 52.94 561.773333 
L 709.2 561.773333 
" style="fill: none; stroke: #000000; stroke-width: 0.8; stroke-linejoin: miter; stroke-linecap: square"/>
   </g>
   <g id="patch_11">
    <path d="M 52.94 345.466667 
L 709.2 345.466667 
" style="fill: none; stroke: #000000; stroke-width: 0.8; stroke-linejoin: miter; stroke-linecap: square"/>
   </g>
   <g id="text_28">
    <!-- Duty Cycle -->
    <g transform="translate(348.438437 339.466667) scale(0.12 -0.12)">
     <use xlink:href="#DejaVuSans-44"/>
     <use xlink:href="#DejaVuSans-75" x="77.001953"/>
     <use xlink:href="#DejaVuSans-74" x="140.380859"/>
     <use xlink:href="#DejaVuSans-79" x="179.589844"/>
     <use xlink:href="#DejaVuSans-20" x="238.769531"/>
     <use xlink:href="#DejaVuSans-43" x="270.556641"/>
     <use xlink:href="#DejaVuSans-79" x="340.380859"/>
     <use xlink:href="#DejaVuSans-63" x="399.560547"/>
     <use xlink:href="#DejaVuSans-6c" x="454.541016"/>
     <use xlink:href="#DejaVuSans-65" x="482.324219"/>
    </g>
   </g>
  </g>
  <g id="axes_3">
   <g id="patch_12">
    <path d="M 52.94 822.04 
L 709.2 822.04 
L 709.2 605.733333 
L 52.94 605.733333 
z
" style="fill: #ffffff"/>
   </g>
   <g id="matplotlib.axis_5">
    <g id="xtick_13">
     <g id="line2d_27">
      <g>
       <use xlink:href="#m7b2ab69383" x="82.77" y="822.04" style="stroke: #000000; stroke-width: 0.8"/>
      </g>
     </g>
     <g id="text_29">
      <!-- 0.0 -->
      <g transform="translate(74.818438 836.638437) scale(0.1 -0.1)">
       <use xlink:href="#DejaVuSans-30"/>
       <use xlink:href="#DejaVuSans-2e" x="63.623047"/>
       <use xlink:href="#DejaVuSans-30" x="95.410156"/>
      </g>
     </g>
    </g>
    <g id="xtick_14">
     <g id="line2d_28">
      <g>
       <use xlink:href="#m7b2ab69383" x="202.031562" y="822.04" style="stroke: #000000; stroke-width: 0.8"/>
      </g>
     </g>
     <g id="text_30">
      <!-- 0.2 -->
      <g transform="translate(194.079999 836.638437) scale(0.1 -0.1)">
       <use xlink:href="#DejaVuSans-30"/>
       <use xlink:href="#DejaVuSans-2e" x="63.623047"/>
       <use xlink:href="#DejaVuSans-32" x="95.410156"/>
      </g>
     </g>
    </g>
    <g id="xtick_15">
     <g id="line2d_29">
      <g>
       <use xlink:href="#m7b2ab69383" x="321.293124" y="822.04" style="stroke: #000000; stroke-width: 0.8"/>
      </g>
     </g>
     <g id="text_31">
      <!-- 0.4 -->
      <g transform="translate(313.341561 836.638437) scale(0.1 -0.1)">
       <use xlink:href="#DejaVuSans-30"/>
       <use xlink:href="#DejaVuSans-2e" x="63.623047"/>
       <use xlink:href="#DejaVuSans-34" x="95.410156"/>
      </g>
     </g>
    </g>
    <g id="xtick_16">
     <g id="line2d_30">
      <g>
       <use xlink:href="#m7b2ab69383" x="440.554686" y="822.04" style="stroke: #000000; stroke-width: 0.8"/>
      </g>
     </g>
     <g id="text_32">
      <!-- 0.6 -->
      <g transform="translate(432.603123 836.638437) scale(0.1 -0.1)">
       <use xlink:href="#DejaVuSans-30"/>
       <use xlink:href="#DejaVuSans-2e" x="63.623047"/>
       <use xlink:href="#DejaVuSans-36" x="95.410156"/>
      </g>
     </g>
    </g>
    <g id="xtick_17">
     <g id="line2d_31">
      <g>
       <use xlink:href="#m7b2ab69383" x="559.816247" y="822.04" style="stroke: #000000; stroke-width: 0.8"/>
      </g>
     </g>
     <g id="text_33">
      <!-- 0.8 -->
      <g transform="translate(551.864685 836.638437) scale(0.1 -0.1)">
       <use xlink:href="#DejaVuSans-30"/>
       <use xlink:href="#DejaVuSans-2e" x="63.623047"/>
       <use xlink:href="#DejaVuSans-38" x="95.410156"/>
      </g>
     </g>
    </g>
    <g id="xtick_18">
     <g id="line2d_32">
      <g>
       <use xlink:href="#m7b2ab69383" x="679.077809" y="822.04" style="stroke: #000000; stroke-width: 0.8"/>
      </g>
     </g>
     <g id="text_34">
      <!-- 1.0 -->
      <g transform="translate(671.126247 836.638437) scale(0.1 -0.1)">
       <use xlink:href="#DejaVuSans-31"/>
       <use xlink:href="#DejaVuSans-2e" x="63.623047"/>
       <use xlink:href="#DejaVuSans-30" x="95.410156"/>
      </g>
     </g>
    </g>
    <g id="text_35">
     <!-- Time (s) -->
     <g transform="translate(360.741094 850.316562) scale(0.1 -0.1)">
      <defs>
       <path id="DejaVuSans-54" d="M -19 4666 
L 3928 4666 
L 3928 4134 
L 2272 4134 
L 2272 0 
L 1638 0 
L 1638 4134 
L -19 4134 
L -19 4666 
z
" transform="scale(0.015625)"/>
       <path id="DejaVuSans-69" d="M 603 3500 
L 1178 3500 
L 1178 0 
L 603 0 
L 603 3500 
z
M 603 4863 
L 1178 4863 
L 1178 4134 
L 603 4134 
L 603 4863 
z
" transform="scale(0.015625)"/>
       <path id="DejaVuSans-6d" d="M 3328 2828 
Q 3544 3216 3844 3400 
Q 4144 3584 4550 3584 
Q 5097 3584 5394 3201 
Q 5691 2819 5691 2113 
L 5691 0 
L 5113 0 
L 5113 2094 
Q 5113 2597 4934 2840 
Q 4756 3084 4391 3084 
Q 3944 3084 3684 2787 
Q 3425 2491 3425 1978 
L 3425 0 
L 2847 0 
L 2847 2094 
Q 2847 2600 2669 2842 
Q 2491 3084 2119 3084 
Q 1678 3084 1418 2786 
Q 1159 2488 1159 1978 
L 1159 0 
L 581 0 
L 581 3500 
L 1159 3500 
L 1159 2956 
Q 1356 3278 1631 3431 
Q 1906 3584 2284 3584 
Q 2666 3584 2933 3390 
Q 3200 3197 3328 2828 
z
" transform="scale(0.015625)"/>
       <path id="DejaVuSans-28" d="M 1984 4856 
Q 1566 4138 1362 3434 
Q 1159 2731 1159 2009 
Q 1159 1288 1364 580 
Q 1569 -128 1984 -844 
L 1484 -844 
Q 1016 -109 783 600 
Q 550 1309 550 2009 
Q 550 2706 781 3412 
Q 1013 4119 1484 4856 
L 1984 4856 
z
" transform="scale(0.015625)"/>
       <path id="DejaVuSans-73" d="M 2834 3397 
L 2834 2853 
Q 2591 2978 2328 3040 
Q 2066 3103 1784 3103 
Q 1356 3103 1142 2972 
Q 928 2841 928 2578 
Q 928 2378 1081 2264 
Q 1234 2150 1697 2047 
L 1894 2003 
Q 2506 1872 2764 1633 
Q 3022 1394 3022 966 
Q 3022 478 2636 193 
Q 2250 -91 1575 -91 
Q 1294 -91 989 -36 
Q 684 19 347 128 
L 347 722 
Q 666 556 975 473 
Q 1284 391 1588 391 
Q 1994 391 2212 530 
Q 2431 669 2431 922 
Q 2431 1156 2273 1281 
Q 2116 1406 1581 1522 
L 1381 1569 
Q 847 1681 609 1914 
Q 372 2147 372 2553 
Q 372 3047 722 3315 
Q 1072 3584 1716 3584 
Q 2034 3584 2315 3537 
Q 2597 3491 2834 3397 
z
" transform="scale(0.015625)"/>
       <path id="DejaVuSans-29" d="M 513 4856 
L 1013 4856 
Q 1481 4119 1714 3412 
Q 1947 2706 1947 2009 
Q 1947 1309 1714 600 
Q 1481 -109 1013 -844 
L 513 -844 
Q 928 -128 1133 580 
Q 1338 1288 1338 2009 
Q 1338 2731 1133 3434 
Q 928 4138 513 4856 
z
" transform="scale(0.015625)"/>
      </defs>
      <use xlink:href="#DejaVuSans-54"/>
      <use xlink:href="#DejaVuSans-69" x="57.958984"/>
      <use xlink:href="#DejaVuSans-6d" x="85.742188"/>
      <use xlink:href="#DejaVuSans-65" x="183.154297"/>
      <use xlink:href="#DejaVuSans-20" x="244.677734"/>
      <use xlink:href="#DejaVuSans-28" x="276.464844"/>
      <use xlink:href="#DejaVuSans-73" x="315.478516"/>
      <use xlink:href="#DejaVuSans-29" x="367.578125"/>
     </g>
    </g>
   </g>
   <g id="matplotlib.axis_6">
    <g id="ytick_13">
     <g id="line2d_33">
      <defs>
       <path id="mfa9b84669a" d="M 0 0 
L -3.5 0 
" style="stroke: #008000; stroke-width: 0.8"/>
      </defs>
      <g>
       <use xlink:href="#mfa9b84669a" x="52.94" y="812.222887" style="fill: #008000; stroke: #008000; stroke-width: 0.8"/>
      </g>
     </g>
     <g id="text_36">
      <!-- 60 -->
      <g style="fill: #008000" transform="translate(24.835313 816.022105) scale(0.1 -0.1)">
       <defs>
        <path id="DejaVuSans-2212" d="M 678 2272 
L 4684 2272 
L 4684 1741 
L 678 1741 
L 678 2272 
z
" transform="scale(0.015625)"/>
       </defs>
       <use xlink:href="#DejaVuSans-2212"/>
       <use xlink:href="#DejaVuSans-36" x="83.789062"/>
       <use xlink:href="#DejaVuSans-30" x="147.412109"/>
      </g>
     </g>
    </g>
    <g id="ytick_14">
     <g id="line2d_34">
      <g>
       <use xlink:href="#mfa9b84669a" x="52.94" y="779.452427" style="fill: #008000; stroke: #008000; stroke-width: 0.8"/>
      </g>
     </g>
     <g id="text_37">
      <!-- 50 -->
      <g style="fill: #008000" transform="translate(24.835313 783.251646) scale(0.1 -0.1)">
       <defs>
        <path id="DejaVuSans-35" d="M 691 4666 
L 3169 4666 
L 3169 4134 
L 1269 4134 
L 1269 2991 
Q 1406 3038 1543 3061 
Q 1681 3084 1819 3084 
Q 2600 3084 3056 2656 
Q 3513 2228 3513 1497 
Q 3513 744 3044 326 
Q 2575 -91 1722 -91 
Q 1428 -91 1123 -41 
Q 819 9 494 109 
L 494 744 
Q 775 591 1075 516 
Q 1375 441 1709 441 
Q 2250 441 2565 725 
Q 2881 1009 2881 1497 
Q 2881 1984 2565 2268 
Q 2250 2553 1709 2553 
Q 1456 2553 1204 2497 
Q 953 2441 691 2322 
L 691 4666 
z
" transform="scale(0.015625)"/>
       </defs>
       <use xlink:href="#DejaVuSans-2212"/>
       <use xlink:href="#DejaVuSans-35" x="83.789062"/>
       <use xlink:href="#DejaVuSans-30" x="147.412109"/>
      </g>
     </g>
    </g>
    <g id="ytick_15">
     <g id="line2d_35">
      <g>
       <use xlink:href="#mfa9b84669a" x="52.94" y="746.681968" style="fill: #008000; stroke: #008000; stroke-width: 0.8"/>
      </g>
     </g>
     <g id="text_38">
      <!-- 40 -->
      <g style="fill: #008000" transform="translate(24.835313 750.481186) scale(0.1 -0.1)">
       <use xlink:href="#DejaVuSans-2212"/>
       <use xlink:href="#DejaVuSans-34" x="83.789062"/>
       <use xlink:href="#DejaVuSans-30" x="147.412109"/>
      </g>
     </g>
    </g>
    <g id="ytick_16">
     <g id="line2d_36">
      <g>
       <use xlink:href="#mfa9b84669a" x="52.94" y="713.911508" style="fill: #008000; stroke: #008000; stroke-width: 0.8"/>
      </g>
     </g>
     <g id="text_39">
      <!-- 30 -->
      <g style="fill: #008000" transform="translate(24.835313 717.710727) scale(0.1 -0.1)">
       <defs>
        <path id="DejaVuSans-33" d="M 2597 2516 
Q 3050 2419 3304 2112 
Q 3559 1806 3559 1356 
Q 3559 666 3084 287 
Q 2609 -91 1734 -91 
Q 1441 -91 1130 -33 
Q 819 25 488 141 
L 488 750 
Q 750 597 1062 519 
Q 1375 441 1716 441 
Q 2309 441 2620 675 
Q 2931 909 2931 1356 
Q 2931 1769 2642 2001 
Q 2353 2234 1838 2234 
L 1294 2234 
L 1294 2753 
L 1863 2753 
Q 2328 2753 2575 2939 
Q 2822 3125 2822 3475 
Q 2822 3834 2567 4026 
Q 2313 4219 1838 4219 
Q 1578 4219 1281 4162 
Q 984 4106 628 3988 
L 628 4550 
Q 988 4650 1302 4700 
Q 1616 4750 1894 4750 
Q 2613 4750 3031 4423 
Q 3450 4097 3450 3541 
Q 3450 3153 3228 2886 
Q 3006 2619 2597 2516 
z
" transform="scale(0.015625)"/>
       </defs>
       <use xlink:href="#DejaVuSans-2212"/>
       <use xlink:href="#DejaVuSans-33" x="83.789062"/>
       <use xlink:href="#DejaVuSans-30" x="147.412109"/>
      </g>
     </g>
    </g>
    <g id="ytick_17">
     <g id="line2d_37">
      <g>
       <use xlink:href="#mfa9b84669a" x="52.94" y="681.141049" style="fill: #008000; stroke: #008000; stroke-width: 0.8"/>
      </g>
     </g>
     <g id="text_40">
      <!-- 20 -->
      <g style="fill: #008000" transform="translate(24.835313 684.940267) scale(0.1 -0.1)">
       <use xlink:href="#DejaVuSans-2212"/>
       <use xlink:href="#DejaVuSans-32" x="83.789062"/>
       <use xlink:href="#DejaVuSans-30" x="147.412109"/>
      </g>
     </g>
    </g>
    <g id="ytick_18">
     <g id="line2d_38">
      <g>
       <use xlink:href="#mfa9b84669a" x="52.94" y="648.370589" style="fill: #008000; stroke: #008000; stroke-width: 0.8"/>
      </g>
     </g>
     <g id="text_41">
      <!-- 10 -->
      <g style="fill: #008000" transform="translate(24.835313 652.169808) scale(0.1 -0.1)">
       <use xlink:href="#DejaVuSans-2212"/>
       <use xlink:href="#DejaVuSans-31" x="83.789062"/>
       <use xlink:href="#DejaVuSans-30" x="147.412109"/>
      </g>
     </g>
    </g>
    <g id="ytick_19">
     <g id="line2d_39">
      <g>
       <use xlink:href="#mfa9b84669a" x="52.94" y="615.60013" style="fill: #008000; stroke: #008000; stroke-width: 0.8"/>
      </g>
     </g>
     <g id="text_42">
      <!-- 0 -->
      <g style="fill: #008000" transform="translate(39.5775 619.399348) scale(0.1 -0.1)">
       <use xlink:href="#DejaVuSans-30"/>
      </g>
     </g>
    </g>
    <g id="text_43">
     <!-- Cost -->
     <g style="fill: #008000" transform="translate(18.755625 725.002292) rotate(-90) scale(0.1 -0.1)">
      <use xlink:href="#DejaVuSans-43"/>
      <use xlink:href="#DejaVuSans-6f" x="69.824219"/>
      <use xlink:href="#DejaVuSans-73" x="131.005859"/>
      <use xlink:href="#DejaVuSans-74" x="183.105469"/>
     </g>
    </g>
   </g>
   <g id="line2d_40">
    <path d="M 82.77 812.207879 
L 82.895225 782.099697 
L 83.62272 623.581408 
L 83.85528 615.81548 
L 83.914911 615.565455 
L 83.962616 615.792989 
L 84.081877 617.15285 
L 84.374068 623.723288 
L 85.185047 641.923447 
L 85.679982 648.15224 
L 86.151065 651.539206 
L 86.616185 653.414517 
L 87.087269 654.462453 
L 87.588167 655.05953 
L 88.166586 655.404818 
L 88.965638 655.60619 
L 90.432555 655.707827 
L 96.771307 655.775269 
L 106.348011 655.771595 
L 106.407642 652.716515 
L 106.896614 618.537192 
L 106.914503 618.549378 
L 106.992023 618.87377 
L 107.164952 620.821239 
L 107.516774 627.944328 
L 108.309863 643.692471 
L 108.804799 649.229 
L 109.275882 652.226226 
L 109.741002 653.880335 
L 110.218048 654.811404 
L 110.72491 655.337027 
L 111.333144 655.646418 
L 112.21568 655.824623 
L 113.99864 655.909824 
L 126.121578 656.017217 
L 129.329714 655.961041 
L 129.389345 652.905961 
L 129.866391 620.115734 
L 129.878317 620.124581 
L 129.949874 620.426597 
L 130.11684 622.357352 
L 130.492514 629.985102 
L 131.225973 644.080136 
L 131.720908 649.527936 
L 132.191991 652.476466 
L 132.257585 652.767493 
L 132.323179 652.584964 
L 132.436477 652.504863 
L 132.466293 652.526541 
L 132.645185 652.858416 
L 132.853893 653.418025 
L 132.901598 653.210139 
L 133.068564 652.939237 
L 133.08049 652.943144 
L 133.152047 653.006619 
L 133.175899 652.877747 
L 133.366718 652.395907 
L 133.462127 652.427231 
L 133.480016 652.308903 
L 133.646982 651.920845 
L 133.658908 651.924652 
L 133.748355 652.033081 
L 133.77817 651.888084 
L 133.927247 651.564062 
L 133.951099 651.574938 
L 134.046509 651.721692 
L 134.082287 651.560076 
L 134.213475 651.311169 
L 134.24329 651.327855 
L 134.344662 651.507285 
L 134.386404 651.331034 
L 134.505666 651.137123 
L 134.541444 651.16245 
L 134.642816 651.362067 
L 134.690521 651.172094 
L 134.797856 651.018213 
L 134.839598 651.051083 
L 134.94097 651.26452 
L 134.988675 651.08084 
L 135.090047 650.937555 
L 135.131789 650.968891 
L 135.239124 651.199394 
L 135.292792 651.001075 
L 135.388201 650.884699 
L 135.429943 650.918964 
L 135.537278 651.15621 
L 135.590946 650.961118 
L 135.686355 650.849806 
L 135.728097 650.886049 
L 135.835432 651.12785 
L 135.8891 650.934936 
L 135.984509 650.827045 
L 136.02625 650.864623 
L 136.187254 651.284222 
L 137.290423 654.741208 
L 137.791322 655.399534 
L 138.357814 655.778258 
L 139.109162 655.9977 
L 140.415076 656.112345 
L 144.911237 656.172045 
L 156.163565 656.182241 
L 156.223196 653.127162 
L 156.700242 620.336935 
L 156.712168 620.345782 
L 156.783725 620.647798 
L 156.950691 622.578553 
L 157.326365 630.206302 
L 158.059824 644.301336 
L 158.554759 649.749137 
L 159.025843 652.697666 
L 159.490963 654.324372 
L 159.968009 655.239826 
L 160.480834 655.760879 
L 161.095031 656.064691 
L 161.989492 656.23863 
L 163.832084 656.321509 
L 177.493495 656.440693 
L 195.179985 656.525453 
L 195.394656 655.492943 
L 195.507954 655.056507 
L 195.722625 654.274897 
L 195.865739 654.297496 
L 196.128115 654.69234 
L 196.867536 655.798068 
L 197.428066 656.216559 
L 198.137672 656.457704 
L 199.300472 656.587283 
L 202.60998 656.647311 
L 222.443178 656.728607 
L 222.502809 653.673527 
L 222.902335 628.835292 
L 222.926187 628.805451 
L 222.973892 628.927703 
L 223.10508 630.151908 
L 223.456901 636.201883 
L 224.142655 647.065711 
L 224.631628 651.49937 
L 225.102711 653.914897 
L 225.567831 655.240752 
L 226.05084 655.991687 
L 226.587517 656.425252 
L 227.267308 656.679045 
L 228.352589 656.818708 
L 231.155235 656.882015 
L 235.472504 656.836008 
L 235.532135 653.780929 
L 236.009181 620.990705 
L 236.021107 620.999552 
L 236.092664 621.301568 
L 236.25963 623.232323 
L 236.635304 630.860072 
L 237.368763 644.955107 
L 237.863698 650.402907 
L 238.334781 653.351437 
L 238.799901 654.978143 
L 239.276948 655.893597 
L 239.789772 656.41465 
L 240.403969 656.718461 
L 241.298431 656.892401 
L 243.141022 656.97528 
L 243.182764 656.914944 
L 243.397435 655.884024 
L 243.510733 655.448251 
L 243.725404 654.667646 
L 243.790998 654.483812 
L 243.993742 653.785939 
L 244.113004 653.850562 
L 244.363453 654.369042 
L 245.096912 655.878553 
L 245.621663 656.433653 
L 246.229897 656.750917 
L 247.100506 656.932869 
L 247.392697 656.932972 
L 247.39866 656.879245 
L 247.458291 653.830288 
L 247.989005 617.673504 
L 248.132119 617.108786 
L 248.144045 617.111465 
L 248.245417 617.275653 
L 248.382568 618.064879 
L 248.591276 620.932668 
L 249.04447 631.298609 
L 249.694445 644.308343 
L 250.189381 650.087431 
L 250.660464 653.220064 
L 251.125584 654.95076 
L 251.596667 655.916687 
L 252.103529 656.471387 
L 252.699836 656.793592 
L 253.546593 656.979935 
L 255.192403 657.071141 
L 264.387469 657.15699 
L 283.135387 657.250499 
L 283.350058 656.217989 
L 283.546839 656.070042 
L 283.785362 656.219006 
L 284.793123 656.986135 
L 285.56236 657.207406 
L 286.886163 657.320697 
L 291.543327 657.380797 
L 344.227122 657.732513 
L 344.334457 653.831875 
L 344.549128 650.799419 
L 344.638574 650.638198 
L 344.686279 650.68601 
L 344.835356 651.1856 
L 346.033935 656.132781 
L 346.516944 656.927429 
L 347.047658 657.385881 
L 347.70956 657.654176 
L 348.735209 657.803096 
L 351.191997 657.870611 
L 372.915491 658.023248 
L 372.951269 656.95932 
L 373.082457 643.431258 
L 373.350795 622.822154 
L 373.458131 622.123744 
L 373.499872 622.209888 
L 373.619134 623.150737 
L 373.869583 627.301149 
L 375.02642 648.751731 
L 375.50943 652.975071 
L 375.97455 655.268762 
L 376.43967 656.545576 
L 376.922679 657.268104 
L 377.465319 657.688379 
L 378.162999 657.934692 
L 379.295984 658.068147 
L 382.396785 658.129172 
L 413.130489 658.322093 
L 413.34516 657.289583 
L 413.541942 657.141636 
L 413.780465 657.2906 
L 414.788225 658.057729 
L 415.557462 658.279 
L 416.881265 658.392291 
L 421.538429 658.452391 
L 440.906507 658.529475 
L 440.966138 655.474395 
L 441.437221 623.07783 
L 441.449147 623.084179 
L 441.514741 623.340047 
L 441.675744 625.136508 
L 442.033529 632.264006 
L 442.79084 646.774238 
L 443.285775 652.167519 
L 443.756858 655.084717 
L 444.221979 656.693612 
L 444.699025 657.598896 
L 445.211849 658.11413 
L 445.83201 658.416468 
L 446.738397 658.588465 
L 448.62273 658.669701 
L 454.132614 658.692744 
L 454.168393 657.628816 
L 454.311507 643.407741 
L 454.520214 634.76894 
L 454.603697 634.338033 
L 454.657365 634.477672 
L 454.794516 635.738561 
L 455.217895 642.483299 
L 455.814202 650.476467 
L 456.297212 654.218901 
L 456.535735 655.40894 
L 456.559587 655.177074 
L 456.637107 650.074407 
L 456.87563 637.060324 
L 456.982966 636.352183 
L 457.024707 636.436029 
L 457.143969 637.348811 
L 457.483864 642.235865 
L 458.139803 650.802855 
L 458.622812 654.406209 
L 459.093895 656.385987 
L 459.564978 657.478353 
L 460.059914 658.096185 
L 460.632369 658.456858 
L 461.40757 658.666397 
L 462.791004 658.773927 
L 468.116032 658.836377 
L 535.689633 659.310804 
L 535.749264 656.255725 
L 536.238237 622.076402 
L 536.256126 622.088588 
L 536.333646 622.412979 
L 536.506575 624.360448 
L 536.858397 631.483538 
L 537.651486 647.231681 
L 538.146422 652.76821 
L 538.617505 655.765435 
L 539.082625 657.419545 
L 539.559671 658.350613 
L 540.066533 658.876236 
L 540.674767 659.185627 
L 541.557302 659.363832 
L 542.553136 659.400614 
L 542.588915 658.337916 
L 542.720102 644.816177 
L 542.994404 623.471784 
L 543.101739 622.787484 
L 543.143481 622.864674 
L 543.256779 623.689509 
L 543.495303 627.451419 
L 544.795254 651.134374 
L 545.2723 654.897126 
L 545.73742 656.960662 
L 546.208503 658.116859 
L 546.697476 658.765038 
L 547.258005 659.144158 
L 548.00339 659.365583 
L 549.291415 659.481802 
L 549.452418 659.405062 
L 549.512048 656.352116 
L 549.971205 625.263766 
L 549.983132 625.269155 
L 550.048725 625.532988 
L 550.209729 627.387893 
L 550.597329 635.138848 
L 551.295009 647.991224 
L 551.789944 653.243484 
L 552.261027 656.080657 
L 552.726147 657.644223 
L 553.203194 658.523653 
L 553.716018 659.024101 
L 554.342142 659.319637 
L 555.266419 659.487343 
L 557.234235 659.565966 
L 568.689308 659.637078 
L 568.725086 658.57315 
L 569.070945 645.13462 
L 569.124612 645.020797 
L 569.17828 645.11839 
L 569.321394 646.032018 
L 570.65116 656.597106 
L 571.122243 658.006932 
L 571.605253 658.795694 
L 572.135967 659.248104 
L 572.803831 659.514028 
L 573.841407 659.660596 
L 576.369752 659.727069 
L 619.780961 660.08662 
L 619.810776 659.536426 
L 619.912148 650.729126 
L 620.234155 624.690664 
L 620.329564 624.15879 
L 620.377268 624.269146 
L 620.502493 625.325805 
L 620.770832 629.95345 
L 621.838223 650.085172 
L 622.321232 654.609352 
L 622.792315 657.101891 
L 623.257435 658.468988 
L 623.740444 659.24326 
L 624.271158 659.686838 
L 624.944986 659.949004 
L 626.000451 660.09295 
L 628.624205 660.158096 
L 672.99547 660.49691 
L 673.031248 659.432981 
L 673.454627 638.556361 
L 673.508294 638.6789 
L 673.645445 639.846896 
L 673.883968 643.070441 
L 673.931673 641.920235 
L 674.265605 629.476811 
L 674.307347 629.558811 
L 674.420645 630.501616 
L 674.70091 635.234868 
L 675.577482 650.478168 
L 676.066455 655.053807 
L 676.537538 657.544254 
L 677.002658 658.911454 
L 677.485667 659.685966 
L 678.016381 660.129708 
L 678.690209 660.391973 
L 679.37 660.504126 
L 679.37 660.504126 
" clip-path="url(#p3ed5e37038)" style="fill: none; stroke: #008000; stroke-width: 1.5; stroke-linecap: square"/>
   </g>
   <g id="patch_13">
    <path d="M 52.94 822.04 
L 52.94 605.733333 
" style="fill: none; stroke: #000000; stroke-width: 0.8; stroke-linejoin: miter; stroke-linecap: square"/>
   </g>
   <g id="patch_14">
    <path d="M 709.2 822.04 
L 709.2 605.733333 
" style="fill: none; stroke: #000000; stroke-width: 0.8; stroke-linejoin: miter; stroke-linecap: square"/>
   </g>
   <g id="patch_15">
    <path d="M 52.94 822.04 
L 709.2 822.04 
" style="fill: none; stroke: #000000; stroke-width: 0.8; stroke-linejoin: miter; stroke-linecap: square"/>
   </g>
   <g id="patch_16">
    <path d="M 52.94 605.733333 
L 709.2 605.733333 
" style="fill: none; stroke: #000000; stroke-width: 0.8; stroke-linejoin: miter; stroke-linecap: square"/>
   </g>
   <g id="text_44">
    <!-- Cost Over Time -->
    <g transform="translate(334.804375 599.733333) scale(0.12 -0.12)">
     <defs>
      <path id="DejaVuSans-76" d="M 191 3500 
L 800 3500 
L 1894 563 
L 2988 3500 
L 3597 3500 
L 2284 0 
L 1503 0 
L 191 3500 
z
" transform="scale(0.015625)"/>
      <path id="DejaVuSans-72" d="M 2631 2963 
Q 2534 3019 2420 3045 
Q 2306 3072 2169 3072 
Q 1681 3072 1420 2755 
Q 1159 2438 1159 1844 
L 1159 0 
L 581 0 
L 581 3500 
L 1159 3500 
L 1159 2956 
Q 1341 3275 1631 3429 
Q 1922 3584 2338 3584 
Q 2397 3584 2469 3576 
Q 2541 3569 2628 3553 
L 2631 2963 
z
" transform="scale(0.015625)"/>
     </defs>
     <use xlink:href="#DejaVuSans-43"/>
     <use xlink:href="#DejaVuSans-6f" x="69.824219"/>
     <use xlink:href="#DejaVuSans-73" x="131.005859"/>
     <use xlink:href="#DejaVuSans-74" x="183.105469"/>
     <use xlink:href="#DejaVuSans-20" x="222.314453"/>
     <use xlink:href="#DejaVuSans-4f" x="254.101562"/>
     <use xlink:href="#DejaVuSans-76" x="332.8125"/>
     <use xlink:href="#DejaVuSans-65" x="391.992188"/>
     <use xlink:href="#DejaVuSans-72" x="453.515625"/>
     <use xlink:href="#DejaVuSans-20" x="494.628906"/>
     <use xlink:href="#DejaVuSans-54" x="526.416016"/>
     <use xlink:href="#DejaVuSans-69" x="584.375"/>
     <use xlink:href="#DejaVuSans-6d" x="612.158203"/>
     <use xlink:href="#DejaVuSans-65" x="709.570312"/>
    </g>
   </g>
  </g>
  <g id="text_45">
   <!-- Episode 731 - Total Reward: -25047.47 -->
   <g transform="translate(244.110938 26.398125) scale(0.12 -0.12)">
    <defs>
     <path id="DejaVuSans-45" d="M 628 4666 
L 3578 4666 
L 3578 4134 
L 1259 4134 
L 1259 2753 
L 3481 2753 
L 3481 2222 
L 1259 2222 
L 1259 531 
L 3634 531 
L 3634 0 
L 628 0 
L 628 4666 
z
" transform="scale(0.015625)"/>
     <path id="DejaVuSans-64" d="M 2906 2969 
L 2906 4863 
L 3481 4863 
L 3481 0 
L 2906 0 
L 2906 525 
Q 2725 213 2448 61 
Q 2172 -91 1784 -91 
Q 1150 -91 751 415 
Q 353 922 353 1747 
Q 353 2572 751 3078 
Q 1150 3584 1784 3584 
Q 2172 3584 2448 3432 
Q 2725 3281 2906 2969 
z
M 947 1747 
Q 947 1113 1208 752 
Q 1469 391 1925 391 
Q 2381 391 2643 752 
Q 2906 1113 2906 1747 
Q 2906 2381 2643 2742 
Q 2381 3103 1925 3103 
Q 1469 3103 1208 2742 
Q 947 2381 947 1747 
z
" transform="scale(0.015625)"/>
     <path id="DejaVuSans-37" d="M 525 4666 
L 3525 4666 
L 3525 4397 
L 1831 0 
L 1172 0 
L 2766 4134 
L 525 4134 
L 525 4666 
z
" transform="scale(0.015625)"/>
     <path id="DejaVuSans-2d" d="M 313 2009 
L 1997 2009 
L 1997 1497 
L 313 1497 
L 313 2009 
z
" transform="scale(0.015625)"/>
     <path id="DejaVuSans-52" d="M 2841 2188 
Q 3044 2119 3236 1894 
Q 3428 1669 3622 1275 
L 4263 0 
L 3584 0 
L 2988 1197 
Q 2756 1666 2539 1819 
Q 2322 1972 1947 1972 
L 1259 1972 
L 1259 0 
L 628 0 
L 628 4666 
L 2053 4666 
Q 2853 4666 3247 4331 
Q 3641 3997 3641 3322 
Q 3641 2881 3436 2590 
Q 3231 2300 2841 2188 
z
M 1259 4147 
L 1259 2491 
L 2053 2491 
Q 2509 2491 2742 2702 
Q 2975 2913 2975 3322 
Q 2975 3731 2742 3939 
Q 2509 4147 2053 4147 
L 1259 4147 
z
" transform="scale(0.015625)"/>
     <path id="DejaVuSans-77" d="M 269 3500 
L 844 3500 
L 1563 769 
L 2278 3500 
L 2956 3500 
L 3675 769 
L 4391 3500 
L 4966 3500 
L 4050 0 
L 3372 0 
L 2619 2869 
L 1863 0 
L 1184 0 
L 269 3500 
z
" transform="scale(0.015625)"/>
     <path id="DejaVuSans-3a" d="M 750 794 
L 1409 794 
L 1409 0 
L 750 0 
L 750 794 
z
M 750 3309 
L 1409 3309 
L 1409 2516 
L 750 2516 
L 750 3309 
z
" transform="scale(0.015625)"/>
    </defs>
    <use xlink:href="#DejaVuSans-45"/>
    <use xlink:href="#DejaVuSans-70" x="63.183594"/>
    <use xlink:href="#DejaVuSans-69" x="126.660156"/>
    <use xlink:href="#DejaVuSans-73" x="154.443359"/>
    <use xlink:href="#DejaVuSans-6f" x="206.542969"/>
    <use xlink:href="#DejaVuSans-64" x="267.724609"/>
    <use xlink:href="#DejaVuSans-65" x="331.201172"/>
    <use xlink:href="#DejaVuSans-20" x="392.724609"/>
    <use xlink:href="#DejaVuSans-37" x="424.511719"/>
    <use xlink:href="#DejaVuSans-33" x="488.134766"/>
    <use xlink:href="#DejaVuSans-31" x="551.757812"/>
    <use xlink:href="#DejaVuSans-20" x="615.380859"/>
    <use xlink:href="#DejaVuSans-2d" x="647.167969"/>
    <use xlink:href="#DejaVuSans-20" x="683.251953"/>
    <use xlink:href="#DejaVuSans-54" x="715.039062"/>
    <use xlink:href="#DejaVuSans-6f" x="759.123047"/>
    <use xlink:href="#DejaVuSans-74" x="820.304688"/>
    <use xlink:href="#DejaVuSans-61" x="859.513672"/>
    <use xlink:href="#DejaVuSans-6c" x="920.792969"/>
    <use xlink:href="#DejaVuSans-20" x="948.576172"/>
    <use xlink:href="#DejaVuSans-52" x="980.363281"/>
    <use xlink:href="#DejaVuSans-65" x="1045.345703"/>
    <use xlink:href="#DejaVuSans-77" x="1106.869141"/>
    <use xlink:href="#DejaVuSans-61" x="1188.65625"/>
    <use xlink:href="#DejaVuSans-72" x="1249.935547"/>
    <use xlink:href="#DejaVuSans-64" x="1289.298828"/>
    <use xlink:href="#DejaVuSans-3a" x="1352.775391"/>
    <use xlink:href="#DejaVuSans-20" x="1386.466797"/>
    <use xlink:href="#DejaVuSans-2d" x="1418.253906"/>
    <use xlink:href="#DejaVuSans-32" x="1454.337891"/>
    <use xlink:href="#DejaVuSans-35" x="1517.960938"/>
    <use xlink:href="#DejaVuSans-30" x="1581.583984"/>
    <use xlink:href="#DejaVuSans-34" x="1645.207031"/>
    <use xlink:href="#DejaVuSans-37" x="1708.830078"/>
    <use xlink:href="#DejaVuSans-2e" x="1772.453125"/>
    <use xlink:href="#DejaVuSans-34" x="1804.240234"/>
    <use xlink:href="#DejaVuSans-37" x="1867.863281"/>
   </g>
  </g>
 </g>
 <defs>
  <clipPath id="p5f7d00c987">
   <rect x="52.94" y="85.2" width="656.26" height="216.306667"/>
  </clipPath>
  <clipPath id="pbe5231e71a">
   <rect x="52.94" y="345.466667" width="656.26" height="216.306667"/>
  </clipPath>
  <clipPath id="p3ed5e37038">
   <rect x="52.94" y="605.733333" width="656.26" height="216.306667"/>
  </clipPath>
 </defs>
</svg>
