<?xml version="1.0" encoding="utf-8" standalone="no"?>
<!DOCTYPE svg PUBLIC "-//W3C//DTD SVG 1.1//EN"
  "http://www.w3.org/Graphics/SVG/1.1/DTD/svg11.dtd">
<svg xmlns:xlink="http://www.w3.org/1999/xlink" width="720pt" height="864pt" viewBox="0 0 720 864" xmlns="http://www.w3.org/2000/svg" version="1.1">
 <metadata>
  <rdf:RDF xmlns:dc="http://purl.org/dc/elements/1.1/" xmlns:cc="http://creativecommons.org/ns#" xmlns:rdf="http://www.w3.org/1999/02/22-rdf-syntax-ns#">
   <cc:Work>
    <dc:type rdf:resource="http://purl.org/dc/dcmitype/StillImage"/>
    <dc:date>2024-06-05T00:01:18.699664</dc:date>
    <dc:format>image/svg+xml</dc:format>
    <dc:creator>
     <cc:Agent>
      <dc:title>Matplotlib v3.8.4, https://matplotlib.org/</dc:title>
     </cc:Agent>
    </dc:creator>
   </cc:Work>
  </rdf:RDF>
 </metadata>
 <defs>
  <style type="text/css">*{stroke-linejoin: round; stroke-linecap: butt}</style>
 </defs>
 <g id="figure_1">
  <g id="patch_1">
   <path d="M 0 864 
L 720 864 
L 720 0 
L 0 0 
z
" style="fill: #ffffff"/>
  </g>
  <g id="axes_1">
   <g id="patch_2">
    <path d="M 52.94 301.506667 
L 709.2 301.506667 
L 709.2 85.2 
L 52.94 85.2 
z
" style="fill: #ffffff"/>
   </g>
   <g id="matplotlib.axis_1">
    <g id="xtick_1">
     <g id="line2d_1">
      <defs>
       <path id="m9de8a1549a" d="M 0 0 
L 0 3.5 
" style="stroke: #000000; stroke-width: 0.8"/>
      </defs>
      <g>
       <use xlink:href="#m9de8a1549a" x="82.77" y="301.506667" style="stroke: #000000; stroke-width: 0.8"/>
      </g>
     </g>
     <g id="text_1">
      <!-- 0.0 -->
      <g transform="translate(74.818438 316.105104) scale(0.1 -0.1)">
       <defs>
        <path id="DejaVuSans-30" d="M 2034 4250 
Q 1547 4250 1301 3770 
Q 1056 3291 1056 2328 
Q 1056 1369 1301 889 
Q 1547 409 2034 409 
Q 2525 409 2770 889 
Q 3016 1369 3016 2328 
Q 3016 3291 2770 3770 
Q 2525 4250 2034 4250 
z
M 2034 4750 
Q 2819 4750 3233 4129 
Q 3647 3509 3647 2328 
Q 3647 1150 3233 529 
Q 2819 -91 2034 -91 
Q 1250 -91 836 529 
Q 422 1150 422 2328 
Q 422 3509 836 4129 
Q 1250 4750 2034 4750 
z
" transform="scale(0.015625)"/>
        <path id="DejaVuSans-2e" d="M 684 794 
L 1344 794 
L 1344 0 
L 684 0 
L 684 794 
z
" transform="scale(0.015625)"/>
       </defs>
       <use xlink:href="#DejaVuSans-30"/>
       <use xlink:href="#DejaVuSans-2e" x="63.623047"/>
       <use xlink:href="#DejaVuSans-30" x="95.410156"/>
      </g>
     </g>
    </g>
    <g id="xtick_2">
     <g id="line2d_2">
      <g>
       <use xlink:href="#m9de8a1549a" x="202.031562" y="301.506667" style="stroke: #000000; stroke-width: 0.8"/>
      </g>
     </g>
     <g id="text_2">
      <!-- 0.2 -->
      <g transform="translate(194.079999 316.105104) scale(0.1 -0.1)">
       <defs>
        <path id="DejaVuSans-32" d="M 1228 531 
L 3431 531 
L 3431 0 
L 469 0 
L 469 531 
Q 828 903 1448 1529 
Q 2069 2156 2228 2338 
Q 2531 2678 2651 2914 
Q 2772 3150 2772 3378 
Q 2772 3750 2511 3984 
Q 2250 4219 1831 4219 
Q 1534 4219 1204 4116 
Q 875 4013 500 3803 
L 500 4441 
Q 881 4594 1212 4672 
Q 1544 4750 1819 4750 
Q 2544 4750 2975 4387 
Q 3406 4025 3406 3419 
Q 3406 3131 3298 2873 
Q 3191 2616 2906 2266 
Q 2828 2175 2409 1742 
Q 1991 1309 1228 531 
z
" transform="scale(0.015625)"/>
       </defs>
       <use xlink:href="#DejaVuSans-30"/>
       <use xlink:href="#DejaVuSans-2e" x="63.623047"/>
       <use xlink:href="#DejaVuSans-32" x="95.410156"/>
      </g>
     </g>
    </g>
    <g id="xtick_3">
     <g id="line2d_3">
      <g>
       <use xlink:href="#m9de8a1549a" x="321.293124" y="301.506667" style="stroke: #000000; stroke-width: 0.8"/>
      </g>
     </g>
     <g id="text_3">
      <!-- 0.4 -->
      <g transform="translate(313.341561 316.105104) scale(0.1 -0.1)">
       <defs>
        <path id="DejaVuSans-34" d="M 2419 4116 
L 825 1625 
L 2419 1625 
L 2419 4116 
z
M 2253 4666 
L 3047 4666 
L 3047 1625 
L 3713 1625 
L 3713 1100 
L 3047 1100 
L 3047 0 
L 2419 0 
L 2419 1100 
L 313 1100 
L 313 1709 
L 2253 4666 
z
" transform="scale(0.015625)"/>
       </defs>
       <use xlink:href="#DejaVuSans-30"/>
       <use xlink:href="#DejaVuSans-2e" x="63.623047"/>
       <use xlink:href="#DejaVuSans-34" x="95.410156"/>
      </g>
     </g>
    </g>
    <g id="xtick_4">
     <g id="line2d_4">
      <g>
       <use xlink:href="#m9de8a1549a" x="440.554686" y="301.506667" style="stroke: #000000; stroke-width: 0.8"/>
      </g>
     </g>
     <g id="text_4">
      <!-- 0.6 -->
      <g transform="translate(432.603123 316.105104) scale(0.1 -0.1)">
       <defs>
        <path id="DejaVuSans-36" d="M 2113 2584 
Q 1688 2584 1439 2293 
Q 1191 2003 1191 1497 
Q 1191 994 1439 701 
Q 1688 409 2113 409 
Q 2538 409 2786 701 
Q 3034 994 3034 1497 
Q 3034 2003 2786 2293 
Q 2538 2584 2113 2584 
z
M 3366 4563 
L 3366 3988 
Q 3128 4100 2886 4159 
Q 2644 4219 2406 4219 
Q 1781 4219 1451 3797 
Q 1122 3375 1075 2522 
Q 1259 2794 1537 2939 
Q 1816 3084 2150 3084 
Q 2853 3084 3261 2657 
Q 3669 2231 3669 1497 
Q 3669 778 3244 343 
Q 2819 -91 2113 -91 
Q 1303 -91 875 529 
Q 447 1150 447 2328 
Q 447 3434 972 4092 
Q 1497 4750 2381 4750 
Q 2619 4750 2861 4703 
Q 3103 4656 3366 4563 
z
" transform="scale(0.015625)"/>
       </defs>
       <use xlink:href="#DejaVuSans-30"/>
       <use xlink:href="#DejaVuSans-2e" x="63.623047"/>
       <use xlink:href="#DejaVuSans-36" x="95.410156"/>
      </g>
     </g>
    </g>
    <g id="xtick_5">
     <g id="line2d_5">
      <g>
       <use xlink:href="#m9de8a1549a" x="559.816247" y="301.506667" style="stroke: #000000; stroke-width: 0.8"/>
      </g>
     </g>
     <g id="text_5">
      <!-- 0.8 -->
      <g transform="translate(551.864685 316.105104) scale(0.1 -0.1)">
       <defs>
        <path id="DejaVuSans-38" d="M 2034 2216 
Q 1584 2216 1326 1975 
Q 1069 1734 1069 1313 
Q 1069 891 1326 650 
Q 1584 409 2034 409 
Q 2484 409 2743 651 
Q 3003 894 3003 1313 
Q 3003 1734 2745 1975 
Q 2488 2216 2034 2216 
z
M 1403 2484 
Q 997 2584 770 2862 
Q 544 3141 544 3541 
Q 544 4100 942 4425 
Q 1341 4750 2034 4750 
Q 2731 4750 3128 4425 
Q 3525 4100 3525 3541 
Q 3525 3141 3298 2862 
Q 3072 2584 2669 2484 
Q 3125 2378 3379 2068 
Q 3634 1759 3634 1313 
Q 3634 634 3220 271 
Q 2806 -91 2034 -91 
Q 1263 -91 848 271 
Q 434 634 434 1313 
Q 434 1759 690 2068 
Q 947 2378 1403 2484 
z
M 1172 3481 
Q 1172 3119 1398 2916 
Q 1625 2713 2034 2713 
Q 2441 2713 2670 2916 
Q 2900 3119 2900 3481 
Q 2900 3844 2670 4047 
Q 2441 4250 2034 4250 
Q 1625 4250 1398 4047 
Q 1172 3844 1172 3481 
z
" transform="scale(0.015625)"/>
       </defs>
       <use xlink:href="#DejaVuSans-30"/>
       <use xlink:href="#DejaVuSans-2e" x="63.623047"/>
       <use xlink:href="#DejaVuSans-38" x="95.410156"/>
      </g>
     </g>
    </g>
    <g id="xtick_6">
     <g id="line2d_6">
      <g>
       <use xlink:href="#m9de8a1549a" x="679.077809" y="301.506667" style="stroke: #000000; stroke-width: 0.8"/>
      </g>
     </g>
     <g id="text_6">
      <!-- 1.0 -->
      <g transform="translate(671.126247 316.105104) scale(0.1 -0.1)">
       <defs>
        <path id="DejaVuSans-31" d="M 794 531 
L 1825 531 
L 1825 4091 
L 703 3866 
L 703 4441 
L 1819 4666 
L 2450 4666 
L 2450 531 
L 3481 531 
L 3481 0 
L 794 0 
L 794 531 
z
" transform="scale(0.015625)"/>
       </defs>
       <use xlink:href="#DejaVuSans-31"/>
       <use xlink:href="#DejaVuSans-2e" x="63.623047"/>
       <use xlink:href="#DejaVuSans-30" x="95.410156"/>
      </g>
     </g>
    </g>
   </g>
   <g id="matplotlib.axis_2">
    <g id="ytick_1">
     <g id="line2d_7">
      <defs>
       <path id="mef7e31a51e" d="M 0 0 
L -3.5 0 
" style="stroke: #ff4500; stroke-width: 0.8"/>
      </defs>
      <g>
       <use xlink:href="#mef7e31a51e" x="52.94" y="291.680983" style="fill: #ff4500; stroke: #ff4500; stroke-width: 0.8"/>
      </g>
     </g>
     <g id="text_7">
      <!-- 0 -->
      <g style="fill: #ff4500" transform="translate(39.5775 295.480202) scale(0.1 -0.1)">
       <use xlink:href="#DejaVuSans-30"/>
      </g>
     </g>
    </g>
    <g id="ytick_2">
     <g id="line2d_8">
      <g>
       <use xlink:href="#mef7e31a51e" x="52.94" y="255.914727" style="fill: #ff4500; stroke: #ff4500; stroke-width: 0.8"/>
      </g>
     </g>
     <g id="text_8">
      <!-- 2 -->
      <g style="fill: #ff4500" transform="translate(39.5775 259.713945) scale(0.1 -0.1)">
       <use xlink:href="#DejaVuSans-32"/>
      </g>
     </g>
    </g>
    <g id="ytick_3">
     <g id="line2d_9">
      <g>
       <use xlink:href="#mef7e31a51e" x="52.94" y="220.14847" style="fill: #ff4500; stroke: #ff4500; stroke-width: 0.8"/>
      </g>
     </g>
     <g id="text_9">
      <!-- 4 -->
      <g style="fill: #ff4500" transform="translate(39.5775 223.947689) scale(0.1 -0.1)">
       <use xlink:href="#DejaVuSans-34"/>
      </g>
     </g>
    </g>
    <g id="ytick_4">
     <g id="line2d_10">
      <g>
       <use xlink:href="#mef7e31a51e" x="52.94" y="184.382213" style="fill: #ff4500; stroke: #ff4500; stroke-width: 0.8"/>
      </g>
     </g>
     <g id="text_10">
      <!-- 6 -->
      <g style="fill: #ff4500" transform="translate(39.5775 188.181432) scale(0.1 -0.1)">
       <use xlink:href="#DejaVuSans-36"/>
      </g>
     </g>
    </g>
    <g id="ytick_5">
     <g id="line2d_11">
      <g>
       <use xlink:href="#mef7e31a51e" x="52.94" y="148.615957" style="fill: #ff4500; stroke: #ff4500; stroke-width: 0.8"/>
      </g>
     </g>
     <g id="text_11">
      <!-- 8 -->
      <g style="fill: #ff4500" transform="translate(39.5775 152.415175) scale(0.1 -0.1)">
       <use xlink:href="#DejaVuSans-38"/>
      </g>
     </g>
    </g>
    <g id="ytick_6">
     <g id="line2d_12">
      <g>
       <use xlink:href="#mef7e31a51e" x="52.94" y="112.8497" style="fill: #ff4500; stroke: #ff4500; stroke-width: 0.8"/>
      </g>
     </g>
     <g id="text_12">
      <!-- 10 -->
      <g style="fill: #ff4500" transform="translate(33.215 116.648919) scale(0.1 -0.1)">
       <use xlink:href="#DejaVuSans-31"/>
       <use xlink:href="#DejaVuSans-30" x="63.623047"/>
      </g>
     </g>
    </g>
    <g id="text_13">
     <!-- Output Voltage -->
     <g style="fill: #ff4500" transform="translate(27.135313 231.066615) rotate(-90) scale(0.1 -0.1)">
      <defs>
       <path id="DejaVuSans-4f" d="M 2522 4238 
Q 1834 4238 1429 3725 
Q 1025 3213 1025 2328 
Q 1025 1447 1429 934 
Q 1834 422 2522 422 
Q 3209 422 3611 934 
Q 4013 1447 4013 2328 
Q 4013 3213 3611 3725 
Q 3209 4238 2522 4238 
z
M 2522 4750 
Q 3503 4750 4090 4092 
Q 4678 3434 4678 2328 
Q 4678 1225 4090 567 
Q 3503 -91 2522 -91 
Q 1538 -91 948 565 
Q 359 1222 359 2328 
Q 359 3434 948 4092 
Q 1538 4750 2522 4750 
z
" transform="scale(0.015625)"/>
       <path id="DejaVuSans-75" d="M 544 1381 
L 544 3500 
L 1119 3500 
L 1119 1403 
Q 1119 906 1312 657 
Q 1506 409 1894 409 
Q 2359 409 2629 706 
Q 2900 1003 2900 1516 
L 2900 3500 
L 3475 3500 
L 3475 0 
L 2900 0 
L 2900 538 
Q 2691 219 2414 64 
Q 2138 -91 1772 -91 
Q 1169 -91 856 284 
Q 544 659 544 1381 
z
M 1991 3584 
L 1991 3584 
z
" transform="scale(0.015625)"/>
       <path id="DejaVuSans-74" d="M 1172 4494 
L 1172 3500 
L 2356 3500 
L 2356 3053 
L 1172 3053 
L 1172 1153 
Q 1172 725 1289 603 
Q 1406 481 1766 481 
L 2356 481 
L 2356 0 
L 1766 0 
Q 1100 0 847 248 
Q 594 497 594 1153 
L 594 3053 
L 172 3053 
L 172 3500 
L 594 3500 
L 594 4494 
L 1172 4494 
z
" transform="scale(0.015625)"/>
       <path id="DejaVuSans-70" d="M 1159 525 
L 1159 -1331 
L 581 -1331 
L 581 3500 
L 1159 3500 
L 1159 2969 
Q 1341 3281 1617 3432 
Q 1894 3584 2278 3584 
Q 2916 3584 3314 3078 
Q 3713 2572 3713 1747 
Q 3713 922 3314 415 
Q 2916 -91 2278 -91 
Q 1894 -91 1617 61 
Q 1341 213 1159 525 
z
M 3116 1747 
Q 3116 2381 2855 2742 
Q 2594 3103 2138 3103 
Q 1681 3103 1420 2742 
Q 1159 2381 1159 1747 
Q 1159 1113 1420 752 
Q 1681 391 2138 391 
Q 2594 391 2855 752 
Q 3116 1113 3116 1747 
z
" transform="scale(0.015625)"/>
       <path id="DejaVuSans-20" transform="scale(0.015625)"/>
       <path id="DejaVuSans-56" d="M 1831 0 
L 50 4666 
L 709 4666 
L 2188 738 
L 3669 4666 
L 4325 4666 
L 2547 0 
L 1831 0 
z
" transform="scale(0.015625)"/>
       <path id="DejaVuSans-6f" d="M 1959 3097 
Q 1497 3097 1228 2736 
Q 959 2375 959 1747 
Q 959 1119 1226 758 
Q 1494 397 1959 397 
Q 2419 397 2687 759 
Q 2956 1122 2956 1747 
Q 2956 2369 2687 2733 
Q 2419 3097 1959 3097 
z
M 1959 3584 
Q 2709 3584 3137 3096 
Q 3566 2609 3566 1747 
Q 3566 888 3137 398 
Q 2709 -91 1959 -91 
Q 1206 -91 779 398 
Q 353 888 353 1747 
Q 353 2609 779 3096 
Q 1206 3584 1959 3584 
z
" transform="scale(0.015625)"/>
       <path id="DejaVuSans-6c" d="M 603 4863 
L 1178 4863 
L 1178 0 
L 603 0 
L 603 4863 
z
" transform="scale(0.015625)"/>
       <path id="DejaVuSans-61" d="M 2194 1759 
Q 1497 1759 1228 1600 
Q 959 1441 959 1056 
Q 959 750 1161 570 
Q 1363 391 1709 391 
Q 2188 391 2477 730 
Q 2766 1069 2766 1631 
L 2766 1759 
L 2194 1759 
z
M 3341 1997 
L 3341 0 
L 2766 0 
L 2766 531 
Q 2569 213 2275 61 
Q 1981 -91 1556 -91 
Q 1019 -91 701 211 
Q 384 513 384 1019 
Q 384 1609 779 1909 
Q 1175 2209 1959 2209 
L 2766 2209 
L 2766 2266 
Q 2766 2663 2505 2880 
Q 2244 3097 1772 3097 
Q 1472 3097 1187 3025 
Q 903 2953 641 2809 
L 641 3341 
Q 956 3463 1253 3523 
Q 1550 3584 1831 3584 
Q 2591 3584 2966 3190 
Q 3341 2797 3341 1997 
z
" transform="scale(0.015625)"/>
       <path id="DejaVuSans-67" d="M 2906 1791 
Q 2906 2416 2648 2759 
Q 2391 3103 1925 3103 
Q 1463 3103 1205 2759 
Q 947 2416 947 1791 
Q 947 1169 1205 825 
Q 1463 481 1925 481 
Q 2391 481 2648 825 
Q 2906 1169 2906 1791 
z
M 3481 434 
Q 3481 -459 3084 -895 
Q 2688 -1331 1869 -1331 
Q 1566 -1331 1297 -1286 
Q 1028 -1241 775 -1147 
L 775 -588 
Q 1028 -725 1275 -790 
Q 1522 -856 1778 -856 
Q 2344 -856 2625 -561 
Q 2906 -266 2906 331 
L 2906 616 
Q 2728 306 2450 153 
Q 2172 0 1784 0 
Q 1141 0 747 490 
Q 353 981 353 1791 
Q 353 2603 747 3093 
Q 1141 3584 1784 3584 
Q 2172 3584 2450 3431 
Q 2728 3278 2906 2969 
L 2906 3500 
L 3481 3500 
L 3481 434 
z
" transform="scale(0.015625)"/>
       <path id="DejaVuSans-65" d="M 3597 1894 
L 3597 1613 
L 953 1613 
Q 991 1019 1311 708 
Q 1631 397 2203 397 
Q 2534 397 2845 478 
Q 3156 559 3463 722 
L 3463 178 
Q 3153 47 2828 -22 
Q 2503 -91 2169 -91 
Q 1331 -91 842 396 
Q 353 884 353 1716 
Q 353 2575 817 3079 
Q 1281 3584 2069 3584 
Q 2775 3584 3186 3129 
Q 3597 2675 3597 1894 
z
M 3022 2063 
Q 3016 2534 2758 2815 
Q 2500 3097 2075 3097 
Q 1594 3097 1305 2825 
Q 1016 2553 972 2059 
L 3022 2063 
z
" transform="scale(0.015625)"/>
      </defs>
      <use xlink:href="#DejaVuSans-4f"/>
      <use xlink:href="#DejaVuSans-75" x="78.710938"/>
      <use xlink:href="#DejaVuSans-74" x="142.089844"/>
      <use xlink:href="#DejaVuSans-70" x="181.298828"/>
      <use xlink:href="#DejaVuSans-75" x="244.775391"/>
      <use xlink:href="#DejaVuSans-74" x="308.154297"/>
      <use xlink:href="#DejaVuSans-20" x="347.363281"/>
      <use xlink:href="#DejaVuSans-56" x="379.150391"/>
      <use xlink:href="#DejaVuSans-6f" x="439.808594"/>
      <use xlink:href="#DejaVuSans-6c" x="500.990234"/>
      <use xlink:href="#DejaVuSans-74" x="528.773438"/>
      <use xlink:href="#DejaVuSans-61" x="567.982422"/>
      <use xlink:href="#DejaVuSans-67" x="629.261719"/>
      <use xlink:href="#DejaVuSans-65" x="692.738281"/>
     </g>
    </g>
   </g>
   <g id="line2d_13">
    <path d="M 82.77 291.674545 
L 82.799815 291.283292 
L 82.895225 285.047241 
L 83.175489 246.648907 
L 83.807576 166.771105 
L 84.272696 134.346789 
L 84.72589 116.739819 
L 85.179084 106.994188 
L 85.632277 101.620405 
L 86.085471 98.66022 
L 86.544628 97.014384 
L 87.015712 96.098276 
L 87.522573 95.579165 
L 88.130807 95.277741 
L 89.013343 95.108976 
L 90.808229 95.039356 
L 94.123701 95.093796 
L 94.177368 97.115821 
L 94.332408 114.123513 
L 94.624599 140.847087 
L 94.672304 141.208183 
L 94.731935 140.829142 
L 94.875049 137.569779 
L 96.008033 106.501397 
L 96.46719 101.326418 
L 96.920384 98.502095 
L 97.379541 96.928532 
L 97.850624 96.052177 
L 98.363449 95.551429 
L 98.983609 95.261656 
L 99.19828 95.225819 
L 99.204243 95.26538 
L 99.257911 97.2757 
L 99.412951 114.253874 
L 99.693216 139.02734 
L 99.746883 139.436034 
L 99.800551 139.117927 
L 99.937702 136.221984 
L 101.130317 105.371448 
L 101.589474 100.702842 
L 102.042668 98.15784 
L 102.501825 96.74032 
L 102.978872 95.943746 
L 103.503623 95.488995 
L 104.159561 95.224769 
L 105.173284 95.08284 
L 107.576405 95.034265 
L 144.750234 95.032121 
L 144.780049 95.451843 
L 145.048388 100.606916 
L 145.173612 100.912163 
L 145.209391 100.887915 
L 145.340578 100.556132 
L 146.670345 96.205884 
L 147.171243 95.640837 
L 147.761588 95.312136 
L 148.590456 95.126165 
L 150.164709 95.043959 
L 158.083676 95.032122 
L 221.125338 95.122813 
L 221.357898 95.926689 
L 221.560643 96.006073 
L 221.715683 95.977572 
L 221.727609 96.053085 
L 221.94228 96.643627 
L 222.031726 96.827029 
L 222.23447 97.372222 
L 222.377584 97.306392 
L 222.699591 96.776897 
L 223.33764 95.844349 
L 223.892206 95.427597 
L 224.595849 95.189069 
L 225.74076 95.066897 
L 228.925044 95.032647 
L 270.946855 95.093704 
L 271.000523 97.115735 
L 271.155563 114.123444 
L 271.429865 137.978423 
L 271.489495 138.419753 
L 271.543163 138.07215 
L 271.686277 135.021595 
L 272.199102 119.083468 
L 272.270659 121.507504 
L 272.62248 145.118078 
L 272.723853 143.973276 
L 272.944487 136.878104 
L 273.683908 112.750635 
L 274.149028 104.734914 
L 274.602222 100.388541 
L 275.055416 97.983642 
L 275.514573 96.644984 
L 275.991619 95.892848 
L 276.522333 95.460112 
L 277.196161 95.208389 
L 278.263552 95.075362 
L 280.964827 95.033356 
L 283.206944 95.093769 
L 283.260612 97.115795 
L 283.415652 114.123493 
L 283.648212 132.065139 
L 283.725732 132.789567 
L 283.779399 132.505264 
L 283.922513 129.87767 
L 285.067424 104.297222 
L 285.526581 100.116155 
L 285.979775 97.834804 
L 286.438932 96.563832 
L 286.915978 95.849565 
L 287.452655 95.435414 
L 288.144373 95.194352 
L 289.265431 95.069203 
L 292.300638 95.032803 
L 325.216829 95.093704 
L 325.270497 97.115735 
L 325.425537 114.123444 
L 325.693875 137.017315 
L 325.753506 137.486936 
L 325.807174 137.171573 
L 325.950288 134.223503 
L 327.101162 105.374723 
L 327.560319 100.707009 
L 328.013513 98.160469 
L 328.47267 96.741804 
L 328.949716 95.944545 
L 329.474467 95.489397 
L 330.130405 95.224939 
L 331.144129 95.082884 
L 333.547249 95.034267 
L 362.074615 95.052791 
L 362.110393 95.874106 
L 362.462215 106.710897 
L 362.509919 106.781888 
L 362.563587 106.686058 
L 362.712664 105.81136 
L 363.815834 98.04298 
L 364.280954 96.672136 
L 364.758 95.908373 
L 365.288714 95.467963 
L 365.956579 95.21305 
L 367.00608 95.077563 
L 369.605982 95.033604 
L 371.156383 95.093897 
L 371.21005 97.115915 
L 371.36509 114.12359 
L 371.603614 133.038017 
L 371.681134 133.731907 
L 371.728838 133.477327 
L 371.865989 130.986174 
L 373.070531 103.930354 
L 373.529688 99.911925 
L 373.982882 97.721809 
L 374.442039 96.502019 
L 374.925048 95.810435 
L 375.467688 95.413105 
L 376.177294 95.18181 
L 377.352021 95.064003 
L 380.762901 95.032479 
L 396.582948 95.093704 
L 396.636615 97.115735 
L 397.054031 120.378625 
L 397.101735 120.237719 
L 397.232923 118.743127 
L 398.133348 106.328241 
L 398.526911 103.291397 
L 399.170924 98.895518 
L 399.642007 97.133062 
L 399.701637 96.975574 
L 399.749342 97.128727 
L 399.928234 97.336469 
L 400.095201 97.172268 
L 401.192407 95.640047 
L 401.210296 95.716816 
L 401.43093 96.355984 
L 401.609822 96.36452 
L 401.949718 96.050258 
L 402.385023 95.645339 
L 402.402912 95.722524 
L 402.623546 96.363828 
L 402.712992 96.565203 
L 402.9217 97.160232 
L 403.011146 97.323194 
L 403.207927 97.794094 
L 403.339115 97.696541 
L 403.673048 97.039216 
L 404.287245 95.990565 
L 404.823922 95.509869 
L 405.473897 95.235615 
L 406.457805 95.08786 
L 408.699922 95.035034 
L 429.004203 95.052791 
L 429.039982 95.874106 
L 429.15328 105.466985 
L 429.481249 131.633223 
L 429.522991 131.844275 
L 429.576659 131.589693 
L 429.71381 129.202147 
L 430.912388 103.548023 
L 431.371545 99.702499 
L 431.824739 97.60641 
L 432.289859 96.427961 
L 432.772869 95.771221 
L 433.327435 95.388274 
L 434.060893 95.167728 
L 435.307177 95.058407 
L 439.290513 95.03226 
L 465.647318 95.093704 
L 465.700986 97.115735 
L 465.856026 114.123444 
L 466.124364 137.017315 
L 466.183995 137.486936 
L 466.237663 137.171573 
L 466.380777 134.223503 
L 467.531651 105.374723 
L 467.990808 100.707009 
L 468.444002 98.160469 
L 468.903159 96.741804 
L 469.380205 95.944545 
L 469.904956 95.489397 
L 470.560894 95.224939 
L 471.574618 95.082884 
L 473.977738 95.034267 
L 479.028465 95.122816 
L 479.261025 95.926691 
L 479.344508 96.199819 
L 479.559179 96.861913 
L 479.636699 97.048723 
L 479.839444 97.583797 
L 479.934853 97.714801 
L 480.125672 98.113332 
L 480.215118 98.08774 
L 480.233007 98.183254 
L 480.399973 98.492837 
L 480.411899 98.488689 
L 480.507309 98.401836 
L 480.537124 98.529392 
L 480.680238 98.759524 
L 480.70409 98.748355 
L 480.7995 98.618405 
L 480.841241 98.767726 
L 480.966466 98.943827 
L 481.002244 98.92281 
L 481.163247 98.616157 
L 482.266417 96.031946 
L 482.588423 95.689058 
L 482.606312 95.76456 
L 482.826946 96.390841 
L 482.916392 96.588223 
L 483.1251 97.176573 
L 483.214546 97.337443 
L 483.411328 97.804778 
L 483.5127 97.909839 
L 483.691592 98.268386 
L 483.697555 98.267016 
L 483.792965 98.222613 
L 483.816817 98.340964 
L 483.971857 98.600531 
L 483.989746 98.592785 
L 484.079192 98.483646 
L 484.120934 98.64004 
L 484.258085 98.832643 
L 484.281937 98.819214 
L 484.431014 98.561495 
L 485.641519 95.89794 
L 486.178196 95.460945 
L 486.852024 95.208885 
L 487.919415 95.075489 
L 488.092344 95.128243 
L 488.146012 97.147918 
L 488.348756 117.453736 
L 488.551501 124.180278 
L 488.581316 124.241811 
L 488.629021 124.050286 
L 488.766172 122.171067 
L 489.970714 101.749098 
L 490.429871 98.715725 
L 490.889028 97.046614 
L 491.360111 96.115878 
L 491.866972 95.588231 
L 492.475206 95.281816 
L 493.351779 95.110867 
L 495.11685 95.039831 
L 503.29223 95.052791 
L 503.328009 95.874106 
L 503.441307 105.466985 
L 503.697719 123.498025 
L 503.787166 124.223667 
L 503.83487 124.033246 
L 503.972021 122.156842 
L 505.176563 101.746185 
L 505.63572 98.714133 
L 506.094877 97.045744 
L 506.56596 96.11541 
L 507.072822 95.587991 
L 507.681056 95.281708 
L 508.557628 95.110833 
L 510.322699 95.039828 
L 513.441389 95.093831 
L 513.495057 97.115853 
L 513.924398 123.265005 
L 514.001918 122.84759 
L 514.186774 119.814075 
L 515.063346 104.04061 
L 515.528466 99.954577 
L 515.987623 97.726904 
L 516.44678 96.505188 
L 516.92979 95.812167 
L 517.47243 95.41396 
L 518.182036 95.182147 
L 519.356762 95.064074 
L 522.76168 95.032482 
L 554.759557 95.122813 
L 554.992117 95.926689 
L 555.0756 96.199817 
L 555.290271 96.861912 
L 555.367791 97.048722 
L 555.570536 97.583796 
L 555.665945 97.7148 
L 555.856763 98.113332 
L 555.993914 97.969374 
L 556.232437 97.447603 
L 556.298031 97.654912 
L 556.447108 97.786061 
L 556.464997 97.776329 
L 556.530591 97.711157 
L 556.560407 97.835686 
L 556.739299 98.161006 
L 556.745262 98.159262 
L 556.834708 98.09634 
L 556.864524 98.23155 
L 557.019564 98.499029 
L 557.037453 98.492583 
L 557.132862 98.401029 
L 557.162678 98.527562 
L 557.305791 98.754732 
L 557.329644 98.743301 
L 557.425053 98.61273 
L 557.466795 98.761945 
L 557.592019 98.938105 
L 557.627798 98.917176 
L 557.723207 98.767064 
L 557.770912 98.927197 
L 557.890173 99.062931 
L 557.919989 99.042425 
L 558.021361 98.872491 
L 558.075029 99.043001 
L 558.182364 99.150497 
L 558.218142 99.124081 
L 558.319515 98.944027 
L 558.373182 99.109692 
L 558.480518 99.208444 
L 558.516296 99.179372 
L 558.617669 98.992434 
L 558.671336 99.154807 
L 558.772709 99.250319 
L 558.81445 99.216755 
L 558.987379 98.830617 
L 559.983214 96.234169 
L 560.490075 95.652833 
L 560.704746 95.500421 
L 560.722635 95.580249 
L 560.949232 96.258335 
L 561.032715 96.465252 
L 561.241423 97.083045 
L 561.330869 97.254278 
L 561.527651 97.740566 
L 561.629023 97.85364 
L 561.813878 98.222949 
L 561.945066 98.080829 
L 562.338629 97.162613 
L 562.905122 96.097803 
L 563.429873 95.571204 
L 564.050033 95.270896 
L 564.950458 95.105123 
L 566.810938 95.038425 
L 567.878329 95.124359 
L 568.110889 95.927828 
L 568.194372 96.200837 
L 568.409043 96.862681 
L 568.486563 97.049416 
L 568.689308 97.584328 
L 568.826458 97.504117 
L 569.148465 96.924306 
L 569.780551 95.918863 
L 570.323191 95.470697 
L 570.997019 95.213153 
L 572.046521 95.077604 
L 574.646423 95.033605 
L 576.143155 95.093911 
L 576.196823 97.115928 
L 576.477088 108.282048 
L 576.57846 108.734477 
L 576.626164 108.645451 
L 576.763315 107.765273 
L 577.97382 98.15975 
L 578.43894 96.733838 
L 578.915986 95.941082 
L 579.440737 95.487761 
L 580.096676 95.224259 
L 581.110399 95.082706 
L 583.519483 95.034243 
L 602.81004 95.052791 
L 602.845819 95.874106 
L 602.959117 105.466985 
L 603.310939 134.56519 
L 603.340754 134.674188 
L 603.394422 134.389123 
L 603.531573 131.802182 
L 604.724188 104.261419 
L 605.183345 100.094028 
L 605.636539 97.822259 
L 606.095696 96.556925 
L 606.578706 95.839509 
L 607.115383 95.430452 
L 607.813063 95.191103 
L 608.946048 95.067895 
L 610.007476 95.102549 
L 610.061143 97.123977 
L 610.216183 114.071071 
L 610.436817 128.395505 
L 610.514337 129.002618 
L 610.562042 128.778292 
L 610.699193 126.590135 
L 611.903734 102.841854 
L 612.362891 99.314985 
L 612.822048 97.374337 
L 613.263316 96.342619 
L 613.269279 96.353063 
L 613.305058 97.114564 
L 613.418356 106.53558 
L 613.734399 131.305373 
L 613.782104 131.558131 
L 613.835772 131.28741 
L 613.978886 128.751935 
L 614.706381 110.490124 
L 614.771975 112.458476 
L 614.927015 128.290959 
L 615.18939 148.877446 
L 615.213243 148.986 
L 615.266911 148.623045 
L 615.404061 145.138515 
L 616.60264 107.525235 
L 617.061797 101.883778 
L 617.514991 98.808728 
L 617.974148 97.096022 
L 618.439268 96.151004 
L 618.940167 95.610754 
L 619.536474 95.296037 
L 620.389195 95.118007 
L 622.058856 95.041656 
L 631.707117 95.032121 
L 644.849741 95.093704 
L 644.903409 97.115735 
L 645.058449 114.123444 
L 645.314861 135.088428 
L 645.380455 135.613394 
L 645.434123 135.297296 
L 645.577236 132.457496 
L 646.716184 105.05457 
L 647.175341 100.532088 
L 647.628535 98.064146 
L 648.087692 96.689178 
L 648.564739 95.916461 
L 649.089489 95.475322 
L 649.751391 95.217543 
L 650.138991 95.164106 
L 650.144954 95.204149 
L 650.753188 102.487562 
L 650.79493 102.451069 
L 650.926118 102.020045 
L 652.226069 96.572314 
L 652.709078 95.85005 
L 653.245755 95.435948 
L 653.937472 95.194593 
L 655.058531 95.06926 
L 658.087774 95.03281 
L 665.80996 95.093704 
L 665.863628 97.115735 
L 666.287007 121.341996 
L 666.340674 121.140306 
L 666.483788 119.304024 
L 667.628699 101.483766 
L 668.087856 98.572306 
L 668.547013 96.968473 
L 669.018096 96.07388 
L 669.524958 95.566686 
L 670.139155 95.270266 
L 671.03958 95.104903 
L 672.906023 95.038357 
L 679.37 95.032122 
L 679.37 95.032122 
" clip-path="url(#p3262c6fb1d)" style="fill: none; stroke: #ff4500; stroke-width: 1.5; stroke-linecap: square"/>
   </g>
   <g id="patch_3">
    <path d="M 52.94 301.506667 
L 52.94 85.2 
" style="fill: none; stroke: #000000; stroke-width: 0.8; stroke-linejoin: miter; stroke-linecap: square"/>
   </g>
   <g id="patch_4">
    <path d="M 709.2 301.506667 
L 709.2 85.2 
" style="fill: none; stroke: #000000; stroke-width: 0.8; stroke-linejoin: miter; stroke-linecap: square"/>
   </g>
   <g id="patch_5">
    <path d="M 52.94 301.506667 
L 709.2 301.506667 
" style="fill: none; stroke: #000000; stroke-width: 0.8; stroke-linejoin: miter; stroke-linecap: square"/>
   </g>
   <g id="patch_6">
    <path d="M 52.94 85.2 
L 709.2 85.2 
" style="fill: none; stroke: #000000; stroke-width: 0.8; stroke-linejoin: miter; stroke-linecap: square"/>
   </g>
   <g id="text_14">
    <!-- Output Voltage -->
    <g transform="translate(335.814062 79.2) scale(0.12 -0.12)">
     <use xlink:href="#DejaVuSans-4f"/>
     <use xlink:href="#DejaVuSans-75" x="78.710938"/>
     <use xlink:href="#DejaVuSans-74" x="142.089844"/>
     <use xlink:href="#DejaVuSans-70" x="181.298828"/>
     <use xlink:href="#DejaVuSans-75" x="244.775391"/>
     <use xlink:href="#DejaVuSans-74" x="308.154297"/>
     <use xlink:href="#DejaVuSans-20" x="347.363281"/>
     <use xlink:href="#DejaVuSans-56" x="379.150391"/>
     <use xlink:href="#DejaVuSans-6f" x="439.808594"/>
     <use xlink:href="#DejaVuSans-6c" x="500.990234"/>
     <use xlink:href="#DejaVuSans-74" x="528.773438"/>
     <use xlink:href="#DejaVuSans-61" x="567.982422"/>
     <use xlink:href="#DejaVuSans-67" x="629.261719"/>
     <use xlink:href="#DejaVuSans-65" x="692.738281"/>
    </g>
   </g>
  </g>
  <g id="axes_2">
   <g id="patch_7">
    <path d="M 52.94 561.773333 
L 709.2 561.773333 
L 709.2 345.466667 
L 52.94 345.466667 
z
" style="fill: #ffffff"/>
   </g>
   <g id="matplotlib.axis_3">
    <g id="xtick_7">
     <g id="line2d_14">
      <g>
       <use xlink:href="#m9de8a1549a" x="82.77" y="561.773333" style="stroke: #000000; stroke-width: 0.8"/>
      </g>
     </g>
     <g id="text_15">
      <!-- 0.0 -->
      <g transform="translate(74.818438 576.371771) scale(0.1 -0.1)">
       <use xlink:href="#DejaVuSans-30"/>
       <use xlink:href="#DejaVuSans-2e" x="63.623047"/>
       <use xlink:href="#DejaVuSans-30" x="95.410156"/>
      </g>
     </g>
    </g>
    <g id="xtick_8">
     <g id="line2d_15">
      <g>
       <use xlink:href="#m9de8a1549a" x="202.031562" y="561.773333" style="stroke: #000000; stroke-width: 0.8"/>
      </g>
     </g>
     <g id="text_16">
      <!-- 0.2 -->
      <g transform="translate(194.079999 576.371771) scale(0.1 -0.1)">
       <use xlink:href="#DejaVuSans-30"/>
       <use xlink:href="#DejaVuSans-2e" x="63.623047"/>
       <use xlink:href="#DejaVuSans-32" x="95.410156"/>
      </g>
     </g>
    </g>
    <g id="xtick_9">
     <g id="line2d_16">
      <g>
       <use xlink:href="#m9de8a1549a" x="321.293124" y="561.773333" style="stroke: #000000; stroke-width: 0.8"/>
      </g>
     </g>
     <g id="text_17">
      <!-- 0.4 -->
      <g transform="translate(313.341561 576.371771) scale(0.1 -0.1)">
       <use xlink:href="#DejaVuSans-30"/>
       <use xlink:href="#DejaVuSans-2e" x="63.623047"/>
       <use xlink:href="#DejaVuSans-34" x="95.410156"/>
      </g>
     </g>
    </g>
    <g id="xtick_10">
     <g id="line2d_17">
      <g>
       <use xlink:href="#m9de8a1549a" x="440.554686" y="561.773333" style="stroke: #000000; stroke-width: 0.8"/>
      </g>
     </g>
     <g id="text_18">
      <!-- 0.6 -->
      <g transform="translate(432.603123 576.371771) scale(0.1 -0.1)">
       <use xlink:href="#DejaVuSans-30"/>
       <use xlink:href="#DejaVuSans-2e" x="63.623047"/>
       <use xlink:href="#DejaVuSans-36" x="95.410156"/>
      </g>
     </g>
    </g>
    <g id="xtick_11">
     <g id="line2d_18">
      <g>
       <use xlink:href="#m9de8a1549a" x="559.816247" y="561.773333" style="stroke: #000000; stroke-width: 0.8"/>
      </g>
     </g>
     <g id="text_19">
      <!-- 0.8 -->
      <g transform="translate(551.864685 576.371771) scale(0.1 -0.1)">
       <use xlink:href="#DejaVuSans-30"/>
       <use xlink:href="#DejaVuSans-2e" x="63.623047"/>
       <use xlink:href="#DejaVuSans-38" x="95.410156"/>
      </g>
     </g>
    </g>
    <g id="xtick_12">
     <g id="line2d_19">
      <g>
       <use xlink:href="#m9de8a1549a" x="679.077809" y="561.773333" style="stroke: #000000; stroke-width: 0.8"/>
      </g>
     </g>
     <g id="text_20">
      <!-- 1.0 -->
      <g transform="translate(671.126247 576.371771) scale(0.1 -0.1)">
       <use xlink:href="#DejaVuSans-31"/>
       <use xlink:href="#DejaVuSans-2e" x="63.623047"/>
       <use xlink:href="#DejaVuSans-30" x="95.410156"/>
      </g>
     </g>
    </g>
   </g>
   <g id="matplotlib.axis_4">
    <g id="ytick_7">
     <g id="line2d_20">
      <defs>
       <path id="mdfeb820aa8" d="M 0 0 
L -3.5 0 
" style="stroke: #4682b4; stroke-width: 0.8"/>
      </defs>
      <g>
       <use xlink:href="#mdfeb820aa8" x="52.94" y="558.532467" style="fill: #4682b4; stroke: #4682b4; stroke-width: 0.8"/>
      </g>
     </g>
     <g id="text_21">
      <!-- 0.0 -->
      <g style="fill: #4682b4" transform="translate(30.036875 562.331686) scale(0.1 -0.1)">
       <use xlink:href="#DejaVuSans-30"/>
       <use xlink:href="#DejaVuSans-2e" x="63.623047"/>
       <use xlink:href="#DejaVuSans-30" x="95.410156"/>
      </g>
     </g>
    </g>
    <g id="ytick_8">
     <g id="line2d_21">
      <g>
       <use xlink:href="#mdfeb820aa8" x="52.94" y="517.885731" style="fill: #4682b4; stroke: #4682b4; stroke-width: 0.8"/>
      </g>
     </g>
     <g id="text_22">
      <!-- 0.2 -->
      <g style="fill: #4682b4" transform="translate(30.036875 521.68495) scale(0.1 -0.1)">
       <use xlink:href="#DejaVuSans-30"/>
       <use xlink:href="#DejaVuSans-2e" x="63.623047"/>
       <use xlink:href="#DejaVuSans-32" x="95.410156"/>
      </g>
     </g>
    </g>
    <g id="ytick_9">
     <g id="line2d_22">
      <g>
       <use xlink:href="#mdfeb820aa8" x="52.94" y="477.238995" style="fill: #4682b4; stroke: #4682b4; stroke-width: 0.8"/>
      </g>
     </g>
     <g id="text_23">
      <!-- 0.4 -->
      <g style="fill: #4682b4" transform="translate(30.036875 481.038214) scale(0.1 -0.1)">
       <use xlink:href="#DejaVuSans-30"/>
       <use xlink:href="#DejaVuSans-2e" x="63.623047"/>
       <use xlink:href="#DejaVuSans-34" x="95.410156"/>
      </g>
     </g>
    </g>
    <g id="ytick_10">
     <g id="line2d_23">
      <g>
       <use xlink:href="#mdfeb820aa8" x="52.94" y="436.592259" style="fill: #4682b4; stroke: #4682b4; stroke-width: 0.8"/>
      </g>
     </g>
     <g id="text_24">
      <!-- 0.6 -->
      <g style="fill: #4682b4" transform="translate(30.036875 440.391478) scale(0.1 -0.1)">
       <use xlink:href="#DejaVuSans-30"/>
       <use xlink:href="#DejaVuSans-2e" x="63.623047"/>
       <use xlink:href="#DejaVuSans-36" x="95.410156"/>
      </g>
     </g>
    </g>
    <g id="ytick_11">
     <g id="line2d_24">
      <g>
       <use xlink:href="#mdfeb820aa8" x="52.94" y="395.945524" style="fill: #4682b4; stroke: #4682b4; stroke-width: 0.8"/>
      </g>
     </g>
     <g id="text_25">
      <!-- 0.8 -->
      <g style="fill: #4682b4" transform="translate(30.036875 399.744742) scale(0.1 -0.1)">
       <use xlink:href="#DejaVuSans-30"/>
       <use xlink:href="#DejaVuSans-2e" x="63.623047"/>
       <use xlink:href="#DejaVuSans-38" x="95.410156"/>
      </g>
     </g>
    </g>
    <g id="ytick_12">
     <g id="line2d_25">
      <g>
       <use xlink:href="#mdfeb820aa8" x="52.94" y="355.298788" style="fill: #4682b4; stroke: #4682b4; stroke-width: 0.8"/>
      </g>
     </g>
     <g id="text_26">
      <!-- 1.0 -->
      <g style="fill: #4682b4" transform="translate(30.036875 359.098007) scale(0.1 -0.1)">
       <use xlink:href="#DejaVuSans-31"/>
       <use xlink:href="#DejaVuSans-2e" x="63.623047"/>
       <use xlink:href="#DejaVuSans-30" x="95.410156"/>
      </g>
     </g>
    </g>
    <g id="text_27">
     <!-- Duty Cycle -->
     <g style="fill: #4682b4" transform="translate(23.957187 480.812969) rotate(-90) scale(0.1 -0.1)">
      <defs>
       <path id="DejaVuSans-44" d="M 1259 4147 
L 1259 519 
L 2022 519 
Q 2988 519 3436 956 
Q 3884 1394 3884 2338 
Q 3884 3275 3436 3711 
Q 2988 4147 2022 4147 
L 1259 4147 
z
M 628 4666 
L 1925 4666 
Q 3281 4666 3915 4102 
Q 4550 3538 4550 2338 
Q 4550 1131 3912 565 
Q 3275 0 1925 0 
L 628 0 
L 628 4666 
z
" transform="scale(0.015625)"/>
       <path id="DejaVuSans-79" d="M 2059 -325 
Q 1816 -950 1584 -1140 
Q 1353 -1331 966 -1331 
L 506 -1331 
L 506 -850 
L 844 -850 
Q 1081 -850 1212 -737 
Q 1344 -625 1503 -206 
L 1606 56 
L 191 3500 
L 800 3500 
L 1894 763 
L 2988 3500 
L 3597 3500 
L 2059 -325 
z
" transform="scale(0.015625)"/>
       <path id="DejaVuSans-43" d="M 4122 4306 
L 4122 3641 
Q 3803 3938 3442 4084 
Q 3081 4231 2675 4231 
Q 1875 4231 1450 3742 
Q 1025 3253 1025 2328 
Q 1025 1406 1450 917 
Q 1875 428 2675 428 
Q 3081 428 3442 575 
Q 3803 722 4122 1019 
L 4122 359 
Q 3791 134 3420 21 
Q 3050 -91 2638 -91 
Q 1578 -91 968 557 
Q 359 1206 359 2328 
Q 359 3453 968 4101 
Q 1578 4750 2638 4750 
Q 3056 4750 3426 4639 
Q 3797 4528 4122 4306 
z
" transform="scale(0.015625)"/>
       <path id="DejaVuSans-63" d="M 3122 3366 
L 3122 2828 
Q 2878 2963 2633 3030 
Q 2388 3097 2138 3097 
Q 1578 3097 1268 2742 
Q 959 2388 959 1747 
Q 959 1106 1268 751 
Q 1578 397 2138 397 
Q 2388 397 2633 464 
Q 2878 531 3122 666 
L 3122 134 
Q 2881 22 2623 -34 
Q 2366 -91 2075 -91 
Q 1284 -91 818 406 
Q 353 903 353 1747 
Q 353 2603 823 3093 
Q 1294 3584 2113 3584 
Q 2378 3584 2631 3529 
Q 2884 3475 3122 3366 
z
" transform="scale(0.015625)"/>
      </defs>
      <use xlink:href="#DejaVuSans-44"/>
      <use xlink:href="#DejaVuSans-75" x="77.001953"/>
      <use xlink:href="#DejaVuSans-74" x="140.380859"/>
      <use xlink:href="#DejaVuSans-79" x="179.589844"/>
      <use xlink:href="#DejaVuSans-20" x="238.769531"/>
      <use xlink:href="#DejaVuSans-43" x="270.556641"/>
      <use xlink:href="#DejaVuSans-79" x="340.380859"/>
      <use xlink:href="#DejaVuSans-63" x="399.560547"/>
      <use xlink:href="#DejaVuSans-6c" x="454.541016"/>
      <use xlink:href="#DejaVuSans-65" x="482.324219"/>
     </g>
    </g>
   </g>
   <g id="line2d_26">
    <path d="M 82.77 355.298788 
L 94.093885 355.298788 
L 94.207184 551.617435 
L 94.392039 551.617435 
L 94.505338 355.298788 
L 99.162502 355.298788 
L 99.2758 543.900672 
L 99.460656 543.900672 
L 99.573954 355.298788 
L 144.481895 355.298788 
L 144.595194 383.278662 
L 144.780049 383.278662 
L 144.893348 355.298788 
L 154.320974 355.357966 
L 154.434273 355.562094 
L 154.619128 355.562094 
L 154.732426 355.329945 
L 156.706205 355.298788 
L 156.819504 355.577283 
L 157.004359 355.577283 
L 157.117658 355.298788 
L 165.054515 355.298788 
L 165.167813 355.526254 
L 165.352668 355.526254 
L 165.465967 355.298788 
L 165.948976 355.298788 
L 166.062275 355.57688 
L 166.545284 355.493004 
L 166.658583 355.974961 
L 166.843438 355.974961 
L 166.956736 355.298788 
L 167.7379 355.351882 
L 167.851198 355.864874 
L 168.036054 355.864874 
L 168.149352 355.645464 
L 168.334208 355.645464 
L 168.447506 355.331047 
L 170.719439 355.298788 
L 170.832737 355.890868 
L 171.017593 355.890868 
L 171.130891 356.098762 
L 171.315747 356.098762 
L 171.429045 356.461161 
L 171.6139 356.461161 
L 171.727199 355.976412 
L 171.912054 355.976412 
L 172.025353 355.369002 
L 206.796061 355.298788 
L 206.90936 355.990846 
L 207.094215 355.990846 
L 207.207514 355.8736 
L 207.392369 355.8736 
L 207.505668 355.298788 
L 207.988677 355.298788 
L 208.101975 355.553091 
L 208.584985 355.568486 
L 208.698283 355.361079 
L 213.653601 355.298788 
L 213.7669 355.697294 
L 214.249909 355.627143 
L 214.363207 356.205786 
L 214.548063 356.205786 
L 214.661361 355.298788 
L 215.740678 355.298788 
L 215.853977 356.098641 
L 216.038832 356.098641 
L 216.152131 356.31879 
L 216.336986 356.31879 
L 216.450285 357.079421 
L 216.63514 357.079421 
L 216.748439 356.745788 
L 217.231448 356.766683 
L 217.344746 356.527164 
L 217.529602 356.527164 
L 217.6429 356.265804 
L 217.827756 356.265804 
L 217.941054 357.470833 
L 218.424064 357.466828 
L 218.537362 356.765255 
L 218.722217 356.765255 
L 218.835516 356.548995 
L 219.020371 356.548995 
L 219.13367 356.39394 
L 219.616679 356.426154 
L 219.729978 357.079563 
L 219.914833 357.079563 
L 220.028132 357.490154 
L 220.212987 357.490154 
L 220.326285 357.781309 
L 220.809295 357.817497 
L 220.922593 359.390388 
L 221.107449 359.390388 
L 221.220747 359.139763 
L 221.405603 359.139763 
L 221.518901 359.370899 
L 221.703756 359.370899 
L 221.817055 359.81279 
L 222.00191 359.81279 
L 222.115209 359.168814 
L 222.300064 359.168814 
L 222.413363 358.896562 
L 222.896372 358.811693 
L 223.009671 359.148656 
L 223.194526 359.148656 
L 223.307824 358.788062 
L 223.49268 358.788062 
L 223.605978 358.334464 
L 223.790834 358.334464 
L 223.904132 357.777182 
L 224.088988 357.777182 
L 224.202286 356.797887 
L 224.387142 356.797887 
L 224.50044 357.204166 
L 224.685296 357.204166 
L 224.798594 356.440823 
L 224.983449 356.440823 
L 225.096748 356.099789 
L 225.281603 356.099789 
L 225.394902 356.429396 
L 225.579757 356.429396 
L 225.693056 356.299649 
L 226.176065 356.266265 
L 226.289364 355.96889 
L 226.474219 355.96889 
L 226.587517 355.595392 
L 226.772373 355.595392 
L 226.885671 356.66186 
L 227.070527 356.66186 
L 227.183825 357.31796 
L 227.368681 357.31796 
L 227.481979 357.620126 
L 227.666835 357.620126 
L 227.780133 357.055122 
L 227.964988 357.055122 
L 228.078287 356.26147 
L 228.263142 356.26147 
L 228.376441 356.668164 
L 228.561296 356.668164 
L 228.674595 357.332003 
L 229.157604 357.306812 
L 229.270903 357.659603 
L 229.455758 357.659603 
L 229.569056 357.09939 
L 229.753912 357.09939 
L 229.86721 356.363755 
L 230.052066 356.363755 
L 230.165364 356.236079 
L 230.35022 356.236079 
L 230.463518 355.298788 
L 234.22622 355.298788 
L 234.339519 355.646656 
L 234.524374 355.646656 
L 234.637673 355.500485 
L 234.822528 355.500485 
L 234.935827 355.866675 
L 235.120682 355.866675 
L 235.233981 356.394289 
L 235.418836 356.394289 
L 235.532135 356.535727 
L 235.71699 356.535727 
L 235.830288 357.124282 
L 236.015144 357.124282 
L 236.128442 357.969628 
L 236.611452 358.076555 
L 236.72475 357.707709 
L 236.909606 357.707709 
L 237.022904 357.254728 
L 237.207759 357.254728 
L 237.321058 357.634675 
L 237.505913 357.634675 
L 237.619212 356.8112 
L 238.400375 356.815457 
L 238.513674 355.622395 
L 238.698529 355.622395 
L 238.811828 355.298788 
L 241.680068 355.329049 
L 241.793367 355.47757 
L 241.978222 355.47757 
L 242.09152 355.298788 
L 242.276376 355.298788 
L 242.389674 356.223326 
L 242.57453 356.223326 
L 242.687828 355.298788 
L 243.468991 355.298788 
L 243.58229 355.622675 
L 243.767145 355.622675 
L 243.880444 355.298788 
L 262.252687 355.363579 
L 262.365986 356.019321 
L 262.550841 356.019321 
L 262.66414 355.298788 
L 270.899151 355.298788 
L 271.012449 541.233576 
L 271.197305 541.233576 
L 271.310603 355.298788 
L 272.091766 355.298788 
L 272.205065 510.385896 
L 272.38992 510.385896 
L 272.503219 355.298788 
L 278.949306 355.298788 
L 279.062605 355.434301 
L 279.24746 355.434301 
L 279.360759 355.298788 
L 280.141922 355.298788 
L 280.25522 355.766501 
L 280.440076 355.766501 
L 280.553374 355.298788 
L 282.825307 355.298788 
L 282.938605 355.551971 
L 283.123461 355.551971 
L 283.236759 514.045 
L 283.421615 514.045 
L 283.534913 355.337525 
L 283.719769 355.337525 
L 283.833067 355.576695 
L 284.017923 355.576695 
L 284.131221 355.298788 
L 284.316076 355.298788 
L 284.429375 355.721355 
L 284.61423 355.721355 
L 284.727529 355.336364 
L 284.912384 355.336364 
L 285.025683 355.639638 
L 285.210538 355.639638 
L 285.323837 355.363975 
L 287.297615 355.298788 
L 287.410914 355.475265 
L 287.595769 355.475265 
L 287.709068 355.622573 
L 288.490231 355.666376 
L 288.60353 355.389698 
L 325.163161 355.298788 
L 325.27646 536.51034 
L 325.461315 536.51034 
L 325.574614 355.298788 
L 353.189628 355.298788 
L 353.302927 356.315783 
L 353.785936 356.423497 
L 353.899235 356.181829 
L 354.08409 356.181829 
L 354.197389 355.555111 
L 354.382244 355.555111 
L 354.495542 355.298788 
L 355.57486 355.298788 
L 355.688158 355.844585 
L 355.873014 355.844585 
L 355.986312 355.482096 
L 356.171167 355.482096 
L 356.284466 355.298788 
L 361.537938 355.298788 
L 361.651236 355.48794 
L 361.836092 355.48794 
L 361.94939 404.140123 
L 362.134246 404.140123 
L 362.247544 355.298788 
L 371.078863 355.298788 
L 371.192161 519.951318 
L 371.377017 519.951318 
L 371.490315 355.298788 
L 393.142252 355.298788 
L 393.25555 355.578672 
L 393.440406 355.578672 
L 393.553704 355.298788 
L 393.738559 355.298788 
L 393.851858 356.080602 
L 394.334867 356.06315 
L 394.448166 356.626481 
L 394.633021 356.626481 
L 394.74632 356.477745 
L 395.229329 356.470668 
L 395.342627 356.65352 
L 395.527483 356.65352 
L 395.640781 356.858358 
L 395.825637 356.858358 
L 395.938935 357.36069 
L 396.123791 357.36069 
L 396.237089 357.885497 
L 396.421945 357.885497 
L 396.535243 462.31662 
L 396.720098 462.31662 
L 396.833397 358.462683 
L 397.018252 358.462683 
L 397.131551 360.328188 
L 397.61456 360.433424 
L 397.727859 360.578565 
L 397.912714 360.578565 
L 398.026013 359.403764 
L 398.210868 359.403764 
L 398.324166 358.430275 
L 398.509022 358.430275 
L 398.62232 358.957794 
L 398.807176 358.957794 
L 398.920474 358.21333 
L 399.10533 358.21333 
L 399.218628 358.802517 
L 399.403484 358.802517 
L 399.516782 359.637363 
L 399.701637 359.637363 
L 399.814936 358.416215 
L 399.999791 358.416215 
L 400.11309 357.526272 
L 400.297945 357.526272 
L 400.411244 358.125603 
L 400.596099 358.125603 
L 400.709398 358.421739 
L 400.894253 358.421739 
L 401.007552 359.766305 
L 401.192407 359.766305 
L 401.305706 358.386722 
L 401.490561 358.386722 
L 401.603859 357.697524 
L 401.788715 357.697524 
L 401.902013 358.523005 
L 402.086869 358.523005 
L 402.200167 359.589065 
L 402.385023 359.589065 
L 402.498321 359.866256 
L 402.683177 359.866256 
L 402.796475 359.47584 
L 402.98133 359.47584 
L 403.094629 359.201846 
L 403.577638 359.223887 
L 403.690937 358.522868 
L 403.875792 358.522868 
L 403.989091 357.798792 
L 404.4721 357.898772 
L 404.585398 357.59069 
L 404.770254 357.59069 
L 404.883552 357.387845 
L 405.068408 357.387845 
L 405.181706 357.537938 
L 405.366562 357.537938 
L 405.47986 357.173119 
L 405.664716 357.173119 
L 405.778014 357.841452 
L 405.962869 357.841452 
L 406.076168 356.455195 
L 406.261023 356.455195 
L 406.374322 355.824929 
L 406.559177 355.824929 
L 406.672476 356.45806 
L 407.155485 356.41308 
L 407.268784 357.186852 
L 407.453639 357.186852 
L 407.566938 357.571907 
L 407.751793 357.571907 
L 407.865091 357.074008 
L 408.049947 357.074008 
L 408.163245 356.477712 
L 408.348101 356.477712 
L 408.461399 355.971429 
L 408.646255 355.971429 
L 408.759553 355.715101 
L 408.944409 355.715101 
L 409.057707 355.464876 
L 409.540716 355.405207 
L 409.654015 355.298788 
L 410.137024 355.402433 
L 410.250323 355.543939 
L 410.435178 355.543939 
L 410.548477 355.701689 
L 410.733332 355.701689 
L 410.84663 355.905057 
L 411.627794 355.899478 
L 411.741092 355.298788 
L 428.92072 355.298788 
L 429.034019 511.021131 
L 429.218874 511.021131 
L 429.332173 355.298788 
L 443.232108 355.298788 
L 443.345406 355.863257 
L 443.530261 355.863257 
L 443.64356 355.35605 
L 465.59365 355.298788 
L 465.706949 537.336824 
L 465.891804 537.336824 
L 466.005103 355.298788 
L 470.960421 355.375196 
L 471.073719 355.743164 
L 471.556729 355.827628 
L 471.670027 356.220032 
L 471.854882 356.220032 
L 471.968181 356.812146 
L 472.45119 356.783769 
L 472.564489 356.486053 
L 472.749344 356.486053 
L 472.862643 355.949969 
L 473.047498 355.949969 
L 473.160797 355.404776 
L 473.345652 355.404776 
L 473.45895 355.830846 
L 473.643806 355.830846 
L 473.757104 356.153967 
L 473.94196 356.153967 
L 474.055258 356.390648 
L 474.240114 356.390648 
L 474.353412 355.464714 
L 474.836421 355.551192 
L 474.94972 355.768764 
L 475.134575 355.768764 
L 475.247874 355.955635 
L 475.432729 355.955635 
L 475.546028 356.316368 
L 476.029037 356.277811 
L 476.142336 355.740361 
L 476.327191 355.740361 
L 476.440489 356.708666 
L 476.625345 356.708666 
L 476.738643 357.173647 
L 476.923499 357.173647 
L 477.036797 356.855297 
L 477.221653 356.855297 
L 477.334951 357.418877 
L 477.81796 357.354738 
L 477.931259 357.242441 
L 478.116114 357.242441 
L 478.229413 357.515495 
L 478.414268 357.515495 
L 478.527567 358.140323 
L 478.712422 358.140323 
L 478.825721 359.538338 
L 479.30873 359.53789 
L 479.422029 360.146559 
L 479.606884 360.146559 
L 479.720182 360.639774 
L 480.203192 360.623093 
L 480.31649 360.399137 
L 480.501346 360.399137 
L 480.614644 359.416041 
L 480.7995 359.416041 
L 480.912798 359.206096 
L 481.097653 359.206096 
L 481.210952 358.390557 
L 481.693961 358.413419 
L 481.80726 358.57831 
L 481.992115 358.57831 
L 482.105414 359.240881 
L 482.290269 359.240881 
L 482.403568 360.28095 
L 482.588423 360.28095 
L 482.701721 361.362161 
L 482.886577 361.362161 
L 482.999875 361.047498 
L 483.184731 361.047498 
L 483.298029 360.604223 
L 483.482885 360.604223 
L 483.596183 360.162784 
L 483.781039 360.162784 
L 483.894337 359.533545 
L 484.079192 359.533545 
L 484.192491 359.324791 
L 484.377346 359.324791 
L 484.490645 358.77876 
L 484.6755 358.77876 
L 484.788799 358.388327 
L 484.973654 358.388327 
L 485.086953 358.04307 
L 485.271808 358.04307 
L 485.385107 358.773841 
L 486.16627 358.817698 
L 486.279568 358.106362 
L 486.464424 358.106362 
L 486.577722 358.446837 
L 486.762578 358.446837 
L 486.875876 357.524471 
L 487.060732 357.524471 
L 487.17403 356.736217 
L 487.358885 356.736217 
L 487.472184 357.027977 
L 487.657039 357.027977 
L 487.770338 357.91813 
L 487.955193 357.91813 
L 488.068492 477.411088 
L 488.253347 477.411088 
L 488.366646 358.308157 
L 488.551501 358.308157 
L 488.6648 357.493008 
L 489.147809 357.602079 
L 489.261107 357.077915 
L 489.445963 357.077915 
L 489.559261 355.869056 
L 489.744117 355.869056 
L 489.857415 355.500544 
L 490.042271 355.500544 
L 490.155569 355.298788 
L 501.372119 355.298788 
L 501.485417 355.949623 
L 501.670273 355.949623 
L 501.783571 355.54015 
L 501.968427 355.54015 
L 502.081725 355.803127 
L 502.266581 355.803127 
L 502.379879 355.298788 
L 503.161042 355.298788 
L 503.274341 481.292694 
L 503.459196 481.292694 
L 503.572495 355.298788 
L 504.055504 355.298788 
L 504.168803 355.491251 
L 504.353658 355.491251 
L 504.466956 355.6835 
L 504.651812 355.6835 
L 504.76511 356.617587 
L 504.949966 356.617587 
L 505.063264 356.364013 
L 505.24812 356.364013 
L 505.361418 355.555112 
L 505.844428 355.478379 
L 505.957726 355.728968 
L 506.142581 355.728968 
L 506.25588 357.366777 
L 506.440735 357.366777 
L 506.554034 357.206308 
L 506.738889 357.206308 
L 506.852188 356.745729 
L 507.037043 356.745729 
L 507.150342 357.160805 
L 507.633351 357.194237 
L 507.746649 356.735196 
L 507.931505 356.735196 
L 508.044803 356.907489 
L 508.229659 356.907489 
L 508.342957 356.521442 
L 508.527813 356.521442 
L 508.641111 356.660085 
L 508.825967 356.660085 
L 508.939265 356.519981 
L 509.12412 356.519981 
L 509.237419 356.735601 
L 509.422274 356.735601 
L 509.535573 356.97267 
L 509.720428 356.97267 
L 509.833727 356.832871 
L 510.018582 356.832871 
L 510.131881 356.338823 
L 510.316736 356.338823 
L 510.430035 355.938391 
L 510.61489 355.938391 
L 510.728188 355.444781 
L 510.913044 355.444781 
L 511.026342 355.635718 
L 511.211198 355.635718 
L 511.324496 355.298788 
L 513.298275 355.298788 
L 513.411574 476.181116 
L 513.596429 476.181116 
L 513.709728 355.298788 
L 523.733662 355.298788 
L 523.84696 355.719078 
L 524.031816 355.719078 
L 524.145114 356.300251 
L 524.32997 356.300251 
L 524.443268 356.524374 
L 524.628124 356.524374 
L 524.741422 357.146367 
L 524.926277 357.146367 
L 525.039576 358.417879 
L 525.224431 358.417879 
L 525.33773 358.734209 
L 525.522585 358.734209 
L 525.635884 358.487145 
L 526.118893 358.453582 
L 526.232192 358.222802 
L 526.417047 358.222802 
L 526.530345 358.617843 
L 526.715201 358.617843 
L 526.828499 357.978786 
L 527.013355 357.978786 
L 527.126653 358.487895 
L 527.311509 358.487895 
L 527.424807 358.765067 
L 527.609663 358.765067 
L 527.722961 357.974095 
L 528.20597 357.994924 
L 528.319269 357.831011 
L 528.504124 357.831011 
L 528.617423 357.566135 
L 528.802278 357.566135 
L 528.915577 357.093514 
L 529.100432 357.093514 
L 529.213731 356.811091 
L 529.69674 356.726624 
L 529.810038 356.564737 
L 529.994894 356.564737 
L 530.108192 356.181165 
L 530.293048 356.181165 
L 530.406346 356.797253 
L 530.591202 356.797253 
L 530.7045 356.649061 
L 530.889356 356.649061 
L 531.002654 356.330347 
L 531.187509 356.330347 
L 531.300808 356.112355 
L 531.485663 356.112355 
L 531.598962 355.933436 
L 531.783817 355.933436 
L 531.897116 355.298788 
L 532.081971 355.298788 
L 532.19527 355.436205 
L 532.380125 355.436205 
L 532.493424 355.298788 
L 534.169048 355.298788 
L 534.282347 355.69206 
L 534.467202 355.69206 
L 534.580501 355.298788 
L 535.06351 355.298788 
L 535.176809 355.562948 
L 535.361664 355.562948 
L 535.474963 355.298788 
L 535.659818 355.298788 
L 535.773116 355.8094 
L 535.957972 355.8094 
L 536.07127 356.018136 
L 536.256126 356.018136 
L 536.369424 357.031779 
L 536.55428 357.031779 
L 536.667578 358.149648 
L 537.150588 358.113339 
L 537.263886 358.790717 
L 538.045049 358.762611 
L 538.158348 358.960169 
L 538.343203 358.960169 
L 538.456502 359.116509 
L 538.641357 359.116509 
L 538.754656 358.410052 
L 538.939511 358.410052 
L 539.052809 357.933385 
L 539.535819 357.935881 
L 539.649117 358.494271 
L 539.833973 358.494271 
L 539.947271 358.764958 
L 540.132127 358.764958 
L 540.245425 359.086227 
L 540.43028 359.086227 
L 540.543579 358.834202 
L 540.728434 358.834202 
L 540.841733 359.098427 
L 541.026588 359.098427 
L 541.139887 358.819122 
L 541.324742 358.819122 
L 541.438041 358.460497 
L 541.622896 358.460497 
L 541.736195 357.775927 
L 541.92105 357.775927 
L 542.034348 356.761718 
L 542.219204 356.761718 
L 542.332502 357.57163 
L 542.517358 357.57163 
L 542.630656 357.916149 
L 542.815512 357.916149 
L 542.92881 358.083678 
L 543.113666 358.083678 
L 543.226964 355.556604 
L 543.41182 355.556604 
L 543.525118 355.743816 
L 543.709973 355.743816 
L 543.823272 355.510928 
L 544.306281 355.578162 
L 544.41958 356.146707 
L 544.604435 356.146707 
L 544.717734 356.6086 
L 544.902589 356.6086 
L 545.015888 355.773477 
L 545.200743 355.773477 
L 545.314041 355.298804 
L 546.393359 355.298788 
L 546.506657 355.570235 
L 546.691512 355.570235 
L 546.804811 355.298788 
L 547.28782 355.298788 
L 547.401119 356.009549 
L 548.480436 356.087854 
L 548.593734 355.83325 
L 549.076744 355.894469 
L 549.190042 356.500403 
L 549.673052 356.56274 
L 549.78635 356.854891 
L 549.971205 356.854891 
L 550.084504 357.354468 
L 550.269359 357.354468 
L 550.382658 357.533494 
L 550.567513 357.533494 
L 550.680812 358.455703 
L 550.865667 358.455703 
L 550.978966 357.971516 
L 551.163821 357.971516 
L 551.27712 357.583495 
L 551.461975 357.583495 
L 551.575273 357.137669 
L 551.760129 357.137669 
L 551.873427 357.810889 
L 552.058283 357.810889 
L 552.171581 356.916823 
L 552.356437 356.916823 
L 552.469735 357.235936 
L 552.654591 357.235936 
L 552.767889 357.515053 
L 552.952744 357.515053 
L 553.066043 357.772001 
L 553.250898 357.772001 
L 553.364197 358.044023 
L 553.549052 358.044023 
L 553.662351 357.58616 
L 553.847206 357.58616 
L 553.960505 357.473002 
L 554.14536 357.473002 
L 554.258659 358.527602 
L 554.443514 358.527602 
L 554.556812 359.475225 
L 554.741668 359.475225 
L 554.854966 360.108716 
L 555.039822 360.108716 
L 555.15312 360.468213 
L 555.337976 360.468213 
L 555.451274 359.699258 
L 555.63613 359.699258 
L 555.749428 359.33334 
L 555.934284 359.33334 
L 556.047582 360.55617 
L 556.232437 360.55617 
L 556.345736 361.055148 
L 556.530591 361.055148 
L 556.64389 361.630406 
L 556.828745 361.630406 
L 556.942044 361.076611 
L 557.126899 361.076611 
L 557.240198 361.498309 
L 557.425053 361.498309 
L 557.538352 360.996566 
L 557.723207 360.996566 
L 557.836505 359.994927 
L 558.319515 359.990536 
L 558.432813 359.375749 
L 558.915823 359.3618 
L 559.029121 359.221679 
L 559.213976 359.221679 
L 559.327275 358.74712 
L 559.51213 358.74712 
L 559.625429 358.179129 
L 559.810284 358.179129 
L 559.923583 357.893296 
L 560.108438 357.893296 
L 560.221737 358.918729 
L 560.406592 358.918729 
L 560.519891 359.401002 
L 560.704746 359.401002 
L 560.818044 359.598542 
L 561.0029 359.598542 
L 561.116198 359.38604 
L 561.301054 359.38604 
L 561.414352 359.501589 
L 561.599208 359.501589 
L 561.712506 359.112915 
L 561.897362 359.112915 
L 562.01066 357.301399 
L 562.195515 357.301399 
L 562.308814 357.042343 
L 562.493669 357.042343 
L 562.606968 356.008434 
L 562.791823 356.008434 
L 562.905122 355.713536 
L 563.089977 355.713536 
L 563.203276 356.177139 
L 563.388131 356.177139 
L 563.50143 355.979317 
L 563.686285 355.979317 
L 563.799584 356.9516 
L 563.984439 356.9516 
L 564.097737 355.877611 
L 564.282593 355.877611 
L 564.395891 356.268494 
L 564.580747 356.268494 
L 564.694045 356.542188 
L 564.878901 356.542188 
L 564.992199 356.048267 
L 565.177055 356.048267 
L 565.290353 356.676365 
L 565.475208 356.676365 
L 565.588507 356.90606 
L 565.773362 356.90606 
L 565.886661 357.390523 
L 566.071516 357.390523 
L 566.184815 357.66937 
L 566.36967 357.66937 
L 566.482969 357.920631 
L 566.667824 357.920631 
L 566.781123 358.745987 
L 566.965978 358.745987 
L 567.079276 359.321857 
L 567.562286 359.21991 
L 567.675584 359.559026 
L 567.86044 359.559026 
L 567.973738 359.376671 
L 568.158594 359.376671 
L 568.271892 359.857756 
L 568.456747 359.857756 
L 568.570046 359.132698 
L 568.754901 359.132698 
L 568.8682 358.437991 
L 569.351209 358.542846 
L 569.464508 358.749351 
L 569.649363 358.749351 
L 569.762662 358.384426 
L 569.947517 358.384426 
L 570.060816 357.933181 
L 570.245671 357.933181 
L 570.358969 359.047003 
L 570.543825 359.047003 
L 570.657123 358.120835 
L 570.841979 358.120835 
L 570.955277 358.309742 
L 571.140133 358.309742 
L 571.253431 358.492896 
L 571.438287 358.492896 
L 571.551585 358.009386 
L 571.73644 358.009386 
L 571.849739 357.260785 
L 572.034594 357.260785 
L 572.147893 357.764184 
L 572.332748 357.764184 
L 572.446047 356.78372 
L 572.630902 356.78372 
L 572.744201 355.91353 
L 572.929056 355.91353 
L 573.042355 355.298788 
L 573.22721 355.298788 
L 573.340508 355.823511 
L 573.823518 355.721644 
L 573.936816 355.461393 
L 574.121672 355.461393 
L 574.23497 355.771024 
L 574.419826 355.771024 
L 574.533124 356.377342 
L 574.717979 356.377342 
L 574.831278 357.166519 
L 575.016133 357.166519 
L 575.129432 355.298788 
L 575.612441 355.298788 
L 575.72574 355.561064 
L 575.910595 355.561064 
L 576.023894 412.880301 
L 576.208749 412.880301 
L 576.322047 355.298788 
L 580.979211 355.298788 
L 581.09251 355.594513 
L 581.873673 355.515465 
L 581.986972 355.298788 
L 599.464754 355.298788 
L 599.578052 355.713847 
L 599.762907 355.713847 
L 599.876206 355.408168 
L 600.359215 355.401187 
L 600.472514 355.966742 
L 600.955523 355.924794 
L 601.068822 355.8343 
L 601.253677 355.8343 
L 601.366975 356.292522 
L 601.551831 356.292522 
L 601.665129 355.350365 
L 601.849985 355.350365 
L 601.963283 356.82988 
L 602.148139 356.82988 
L 602.261437 357.638761 
L 602.446293 357.638761 
L 602.559591 355.87698 
L 602.744447 355.87698 
L 602.857745 523.764968 
L 603.0426 523.764968 
L 603.155899 356.440906 
L 603.340754 356.440906 
L 603.454053 355.302895 
L 609.90014 355.298788 
L 610.013439 500.056512 
L 610.198294 500.056512 
L 610.311593 355.298788 
L 613.179833 355.298788 
L 613.293132 509.411923 
L 613.477987 509.411923 
L 613.591286 355.298788 
L 614.670603 355.298788 
L 614.783901 551.941212 
L 614.968757 551.941212 
L 615.082055 355.298788 
L 644.784147 355.298788 
L 644.897446 527.513421 
L 645.082301 527.513421 
L 645.195599 355.298788 
L 649.852763 355.298788 
L 649.966062 371.593482 
L 650.150917 371.593482 
L 650.264216 373.568849 
L 650.449071 373.568849 
L 650.56237 355.298788 
L 651.641687 355.405256 
L 651.754985 356.341674 
L 651.939841 356.341674 
L 652.053139 356.821387 
L 652.536149 356.723034 
L 652.649447 356.104175 
L 652.834302 356.104175 
L 652.947601 355.617714 
L 653.132456 355.617714 
L 653.245755 355.877419 
L 653.728764 355.894273 
L 653.842063 355.335231 
L 654.026918 355.335231 
L 654.140217 356.21757 
L 654.325072 356.21757 
L 654.43837 355.893256 
L 654.623226 355.893256 
L 654.736524 356.292358 
L 654.92138 356.292358 
L 655.034678 355.755199 
L 655.219534 355.755199 
L 655.332832 355.298788 
L 665.65492 355.298788 
L 665.768219 467.730645 
L 665.953074 467.730645 
L 666.066373 355.298788 
L 671.617998 355.298788 
L 671.731297 356.382465 
L 671.916152 356.382465 
L 672.029451 355.931732 
L 672.214306 355.931732 
L 672.327605 355.740316 
L 672.51246 355.740316 
L 672.625759 355.411433 
L 672.810614 355.411433 
L 672.923913 355.298788 
L 675.792153 355.317057 
L 675.905452 355.877521 
L 676.090307 355.877521 
L 676.203606 356.177295 
L 676.686615 356.194447 
L 676.799913 356.490575 
L 676.984769 356.490575 
L 677.098067 356.887405 
L 677.282923 356.887405 
L 677.396221 356.226846 
L 677.581077 356.226846 
L 677.694375 356.606066 
L 677.87923 356.606066 
L 677.992529 356.296505 
L 678.177384 356.296505 
L 678.290683 356.124138 
L 678.475538 356.124138 
L 678.588837 355.426895 
L 678.773692 355.426895 
L 678.886991 355.298788 
L 679.37 355.298788 
L 679.37 355.298788 
" clip-path="url(#p64e06a8a86)" style="fill: none; stroke: #4682b4; stroke-width: 1.5; stroke-linecap: square"/>
   </g>
   <g id="patch_8">
    <path d="M 52.94 561.773333 
L 52.94 345.466667 
" style="fill: none; stroke: #000000; stroke-width: 0.8; stroke-linejoin: miter; stroke-linecap: square"/>
   </g>
   <g id="patch_9">
    <path d="M 709.2 561.773333 
L 709.2 345.466667 
" style="fill: none; stroke: #000000; stroke-width: 0.8; stroke-linejoin: miter; stroke-linecap: square"/>
   </g>
   <g id="patch_10">
    <path d="M 52.94 561.773333 
L 709.2 561.773333 
" style="fill: none; stroke: #000000; stroke-width: 0.8; stroke-linejoin: miter; stroke-linecap: square"/>
   </g>
   <g id="patch_11">
    <path d="M 52.94 345.466667 
L 709.2 345.466667 
" style="fill: none; stroke: #000000; stroke-width: 0.8; stroke-linejoin: miter; stroke-linecap: square"/>
   </g>
   <g id="text_28">
    <!-- Duty Cycle -->
    <g transform="translate(348.438437 339.466667) scale(0.12 -0.12)">
     <use xlink:href="#DejaVuSans-44"/>
     <use xlink:href="#DejaVuSans-75" x="77.001953"/>
     <use xlink:href="#DejaVuSans-74" x="140.380859"/>
     <use xlink:href="#DejaVuSans-79" x="179.589844"/>
     <use xlink:href="#DejaVuSans-20" x="238.769531"/>
     <use xlink:href="#DejaVuSans-43" x="270.556641"/>
     <use xlink:href="#DejaVuSans-79" x="340.380859"/>
     <use xlink:href="#DejaVuSans-63" x="399.560547"/>
     <use xlink:href="#DejaVuSans-6c" x="454.541016"/>
     <use xlink:href="#DejaVuSans-65" x="482.324219"/>
    </g>
   </g>
  </g>
  <g id="axes_3">
   <g id="patch_12">
    <path d="M 52.94 822.04 
L 709.2 822.04 
L 709.2 605.733333 
L 52.94 605.733333 
z
" style="fill: #ffffff"/>
   </g>
   <g id="matplotlib.axis_5">
    <g id="xtick_13">
     <g id="line2d_27">
      <g>
       <use xlink:href="#m9de8a1549a" x="82.77" y="822.04" style="stroke: #000000; stroke-width: 0.8"/>
      </g>
     </g>
     <g id="text_29">
      <!-- 0.0 -->
      <g transform="translate(74.818438 836.638437) scale(0.1 -0.1)">
       <use xlink:href="#DejaVuSans-30"/>
       <use xlink:href="#DejaVuSans-2e" x="63.623047"/>
       <use xlink:href="#DejaVuSans-30" x="95.410156"/>
      </g>
     </g>
    </g>
    <g id="xtick_14">
     <g id="line2d_28">
      <g>
       <use xlink:href="#m9de8a1549a" x="202.031562" y="822.04" style="stroke: #000000; stroke-width: 0.8"/>
      </g>
     </g>
     <g id="text_30">
      <!-- 0.2 -->
      <g transform="translate(194.079999 836.638437) scale(0.1 -0.1)">
       <use xlink:href="#DejaVuSans-30"/>
       <use xlink:href="#DejaVuSans-2e" x="63.623047"/>
       <use xlink:href="#DejaVuSans-32" x="95.410156"/>
      </g>
     </g>
    </g>
    <g id="xtick_15">
     <g id="line2d_29">
      <g>
       <use xlink:href="#m9de8a1549a" x="321.293124" y="822.04" style="stroke: #000000; stroke-width: 0.8"/>
      </g>
     </g>
     <g id="text_31">
      <!-- 0.4 -->
      <g transform="translate(313.341561 836.638437) scale(0.1 -0.1)">
       <use xlink:href="#DejaVuSans-30"/>
       <use xlink:href="#DejaVuSans-2e" x="63.623047"/>
       <use xlink:href="#DejaVuSans-34" x="95.410156"/>
      </g>
     </g>
    </g>
    <g id="xtick_16">
     <g id="line2d_30">
      <g>
       <use xlink:href="#m9de8a1549a" x="440.554686" y="822.04" style="stroke: #000000; stroke-width: 0.8"/>
      </g>
     </g>
     <g id="text_32">
      <!-- 0.6 -->
      <g transform="translate(432.603123 836.638437) scale(0.1 -0.1)">
       <use xlink:href="#DejaVuSans-30"/>
       <use xlink:href="#DejaVuSans-2e" x="63.623047"/>
       <use xlink:href="#DejaVuSans-36" x="95.410156"/>
      </g>
     </g>
    </g>
    <g id="xtick_17">
     <g id="line2d_31">
      <g>
       <use xlink:href="#m9de8a1549a" x="559.816247" y="822.04" style="stroke: #000000; stroke-width: 0.8"/>
      </g>
     </g>
     <g id="text_33">
      <!-- 0.8 -->
      <g transform="translate(551.864685 836.638437) scale(0.1 -0.1)">
       <use xlink:href="#DejaVuSans-30"/>
       <use xlink:href="#DejaVuSans-2e" x="63.623047"/>
       <use xlink:href="#DejaVuSans-38" x="95.410156"/>
      </g>
     </g>
    </g>
    <g id="xtick_18">
     <g id="line2d_32">
      <g>
       <use xlink:href="#m9de8a1549a" x="679.077809" y="822.04" style="stroke: #000000; stroke-width: 0.8"/>
      </g>
     </g>
     <g id="text_34">
      <!-- 1.0 -->
      <g transform="translate(671.126247 836.638437) scale(0.1 -0.1)">
       <use xlink:href="#DejaVuSans-31"/>
       <use xlink:href="#DejaVuSans-2e" x="63.623047"/>
       <use xlink:href="#DejaVuSans-30" x="95.410156"/>
      </g>
     </g>
    </g>
    <g id="text_35">
     <!-- Time (s) -->
     <g transform="translate(360.741094 850.316562) scale(0.1 -0.1)">
      <defs>
       <path id="DejaVuSans-54" d="M -19 4666 
L 3928 4666 
L 3928 4134 
L 2272 4134 
L 2272 0 
L 1638 0 
L 1638 4134 
L -19 4134 
L -19 4666 
z
" transform="scale(0.015625)"/>
       <path id="DejaVuSans-69" d="M 603 3500 
L 1178 3500 
L 1178 0 
L 603 0 
L 603 3500 
z
M 603 4863 
L 1178 4863 
L 1178 4134 
L 603 4134 
L 603 4863 
z
" transform="scale(0.015625)"/>
       <path id="DejaVuSans-6d" d="M 3328 2828 
Q 3544 3216 3844 3400 
Q 4144 3584 4550 3584 
Q 5097 3584 5394 3201 
Q 5691 2819 5691 2113 
L 5691 0 
L 5113 0 
L 5113 2094 
Q 5113 2597 4934 2840 
Q 4756 3084 4391 3084 
Q 3944 3084 3684 2787 
Q 3425 2491 3425 1978 
L 3425 0 
L 2847 0 
L 2847 2094 
Q 2847 2600 2669 2842 
Q 2491 3084 2119 3084 
Q 1678 3084 1418 2786 
Q 1159 2488 1159 1978 
L 1159 0 
L 581 0 
L 581 3500 
L 1159 3500 
L 1159 2956 
Q 1356 3278 1631 3431 
Q 1906 3584 2284 3584 
Q 2666 3584 2933 3390 
Q 3200 3197 3328 2828 
z
" transform="scale(0.015625)"/>
       <path id="DejaVuSans-28" d="M 1984 4856 
Q 1566 4138 1362 3434 
Q 1159 2731 1159 2009 
Q 1159 1288 1364 580 
Q 1569 -128 1984 -844 
L 1484 -844 
Q 1016 -109 783 600 
Q 550 1309 550 2009 
Q 550 2706 781 3412 
Q 1013 4119 1484 4856 
L 1984 4856 
z
" transform="scale(0.015625)"/>
       <path id="DejaVuSans-73" d="M 2834 3397 
L 2834 2853 
Q 2591 2978 2328 3040 
Q 2066 3103 1784 3103 
Q 1356 3103 1142 2972 
Q 928 2841 928 2578 
Q 928 2378 1081 2264 
Q 1234 2150 1697 2047 
L 1894 2003 
Q 2506 1872 2764 1633 
Q 3022 1394 3022 966 
Q 3022 478 2636 193 
Q 2250 -91 1575 -91 
Q 1294 -91 989 -36 
Q 684 19 347 128 
L 347 722 
Q 666 556 975 473 
Q 1284 391 1588 391 
Q 1994 391 2212 530 
Q 2431 669 2431 922 
Q 2431 1156 2273 1281 
Q 2116 1406 1581 1522 
L 1381 1569 
Q 847 1681 609 1914 
Q 372 2147 372 2553 
Q 372 3047 722 3315 
Q 1072 3584 1716 3584 
Q 2034 3584 2315 3537 
Q 2597 3491 2834 3397 
z
" transform="scale(0.015625)"/>
       <path id="DejaVuSans-29" d="M 513 4856 
L 1013 4856 
Q 1481 4119 1714 3412 
Q 1947 2706 1947 2009 
Q 1947 1309 1714 600 
Q 1481 -109 1013 -844 
L 513 -844 
Q 928 -128 1133 580 
Q 1338 1288 1338 2009 
Q 1338 2731 1133 3434 
Q 928 4138 513 4856 
z
" transform="scale(0.015625)"/>
      </defs>
      <use xlink:href="#DejaVuSans-54"/>
      <use xlink:href="#DejaVuSans-69" x="57.958984"/>
      <use xlink:href="#DejaVuSans-6d" x="85.742188"/>
      <use xlink:href="#DejaVuSans-65" x="183.154297"/>
      <use xlink:href="#DejaVuSans-20" x="244.677734"/>
      <use xlink:href="#DejaVuSans-28" x="276.464844"/>
      <use xlink:href="#DejaVuSans-73" x="315.478516"/>
      <use xlink:href="#DejaVuSans-29" x="367.578125"/>
     </g>
    </g>
   </g>
   <g id="matplotlib.axis_6">
    <g id="ytick_13">
     <g id="line2d_33">
      <defs>
       <path id="m569d580a84" d="M 0 0 
L -3.5 0 
" style="stroke: #008000; stroke-width: 0.8"/>
      </defs>
      <g>
       <use xlink:href="#m569d580a84" x="52.94" y="812.222887" style="fill: #008000; stroke: #008000; stroke-width: 0.8"/>
      </g>
     </g>
     <g id="text_36">
      <!-- 60 -->
      <g style="fill: #008000" transform="translate(24.835313 816.022105) scale(0.1 -0.1)">
       <defs>
        <path id="DejaVuSans-2212" d="M 678 2272 
L 4684 2272 
L 4684 1741 
L 678 1741 
L 678 2272 
z
" transform="scale(0.015625)"/>
       </defs>
       <use xlink:href="#DejaVuSans-2212"/>
       <use xlink:href="#DejaVuSans-36" x="83.789062"/>
       <use xlink:href="#DejaVuSans-30" x="147.412109"/>
      </g>
     </g>
    </g>
    <g id="ytick_14">
     <g id="line2d_34">
      <g>
       <use xlink:href="#m569d580a84" x="52.94" y="779.452427" style="fill: #008000; stroke: #008000; stroke-width: 0.8"/>
      </g>
     </g>
     <g id="text_37">
      <!-- 50 -->
      <g style="fill: #008000" transform="translate(24.835313 783.251646) scale(0.1 -0.1)">
       <defs>
        <path id="DejaVuSans-35" d="M 691 4666 
L 3169 4666 
L 3169 4134 
L 1269 4134 
L 1269 2991 
Q 1406 3038 1543 3061 
Q 1681 3084 1819 3084 
Q 2600 3084 3056 2656 
Q 3513 2228 3513 1497 
Q 3513 744 3044 326 
Q 2575 -91 1722 -91 
Q 1428 -91 1123 -41 
Q 819 9 494 109 
L 494 744 
Q 775 591 1075 516 
Q 1375 441 1709 441 
Q 2250 441 2565 725 
Q 2881 1009 2881 1497 
Q 2881 1984 2565 2268 
Q 2250 2553 1709 2553 
Q 1456 2553 1204 2497 
Q 953 2441 691 2322 
L 691 4666 
z
" transform="scale(0.015625)"/>
       </defs>
       <use xlink:href="#DejaVuSans-2212"/>
       <use xlink:href="#DejaVuSans-35" x="83.789062"/>
       <use xlink:href="#DejaVuSans-30" x="147.412109"/>
      </g>
     </g>
    </g>
    <g id="ytick_15">
     <g id="line2d_35">
      <g>
       <use xlink:href="#m569d580a84" x="52.94" y="746.681968" style="fill: #008000; stroke: #008000; stroke-width: 0.8"/>
      </g>
     </g>
     <g id="text_38">
      <!-- 40 -->
      <g style="fill: #008000" transform="translate(24.835313 750.481186) scale(0.1 -0.1)">
       <use xlink:href="#DejaVuSans-2212"/>
       <use xlink:href="#DejaVuSans-34" x="83.789062"/>
       <use xlink:href="#DejaVuSans-30" x="147.412109"/>
      </g>
     </g>
    </g>
    <g id="ytick_16">
     <g id="line2d_36">
      <g>
       <use xlink:href="#m569d580a84" x="52.94" y="713.911508" style="fill: #008000; stroke: #008000; stroke-width: 0.8"/>
      </g>
     </g>
     <g id="text_39">
      <!-- 30 -->
      <g style="fill: #008000" transform="translate(24.835313 717.710727) scale(0.1 -0.1)">
       <defs>
        <path id="DejaVuSans-33" d="M 2597 2516 
Q 3050 2419 3304 2112 
Q 3559 1806 3559 1356 
Q 3559 666 3084 287 
Q 2609 -91 1734 -91 
Q 1441 -91 1130 -33 
Q 819 25 488 141 
L 488 750 
Q 750 597 1062 519 
Q 1375 441 1716 441 
Q 2309 441 2620 675 
Q 2931 909 2931 1356 
Q 2931 1769 2642 2001 
Q 2353 2234 1838 2234 
L 1294 2234 
L 1294 2753 
L 1863 2753 
Q 2328 2753 2575 2939 
Q 2822 3125 2822 3475 
Q 2822 3834 2567 4026 
Q 2313 4219 1838 4219 
Q 1578 4219 1281 4162 
Q 984 4106 628 3988 
L 628 4550 
Q 988 4650 1302 4700 
Q 1616 4750 1894 4750 
Q 2613 4750 3031 4423 
Q 3450 4097 3450 3541 
Q 3450 3153 3228 2886 
Q 3006 2619 2597 2516 
z
" transform="scale(0.015625)"/>
       </defs>
       <use xlink:href="#DejaVuSans-2212"/>
       <use xlink:href="#DejaVuSans-33" x="83.789062"/>
       <use xlink:href="#DejaVuSans-30" x="147.412109"/>
      </g>
     </g>
    </g>
    <g id="ytick_17">
     <g id="line2d_37">
      <g>
       <use xlink:href="#m569d580a84" x="52.94" y="681.141049" style="fill: #008000; stroke: #008000; stroke-width: 0.8"/>
      </g>
     </g>
     <g id="text_40">
      <!-- 20 -->
      <g style="fill: #008000" transform="translate(24.835313 684.940267) scale(0.1 -0.1)">
       <use xlink:href="#DejaVuSans-2212"/>
       <use xlink:href="#DejaVuSans-32" x="83.789062"/>
       <use xlink:href="#DejaVuSans-30" x="147.412109"/>
      </g>
     </g>
    </g>
    <g id="ytick_18">
     <g id="line2d_38">
      <g>
       <use xlink:href="#m569d580a84" x="52.94" y="648.370589" style="fill: #008000; stroke: #008000; stroke-width: 0.8"/>
      </g>
     </g>
     <g id="text_41">
      <!-- 10 -->
      <g style="fill: #008000" transform="translate(24.835313 652.169808) scale(0.1 -0.1)">
       <use xlink:href="#DejaVuSans-2212"/>
       <use xlink:href="#DejaVuSans-31" x="83.789062"/>
       <use xlink:href="#DejaVuSans-30" x="147.412109"/>
      </g>
     </g>
    </g>
    <g id="ytick_19">
     <g id="line2d_39">
      <g>
       <use xlink:href="#m569d580a84" x="52.94" y="615.60013" style="fill: #008000; stroke: #008000; stroke-width: 0.8"/>
      </g>
     </g>
     <g id="text_42">
      <!-- 0 -->
      <g style="fill: #008000" transform="translate(39.5775 619.399348) scale(0.1 -0.1)">
       <use xlink:href="#DejaVuSans-30"/>
      </g>
     </g>
    </g>
    <g id="text_43">
     <!-- Cost -->
     <g style="fill: #008000" transform="translate(18.755625 725.002292) rotate(-90) scale(0.1 -0.1)">
      <use xlink:href="#DejaVuSans-43"/>
      <use xlink:href="#DejaVuSans-6f" x="69.824219"/>
      <use xlink:href="#DejaVuSans-73" x="131.005859"/>
      <use xlink:href="#DejaVuSans-74" x="183.105469"/>
     </g>
    </g>
   </g>
   <g id="line2d_40">
    <path d="M 82.77 812.207879 
L 82.895225 782.099697 
L 83.62272 623.581408 
L 83.85528 615.81548 
L 83.914911 615.565455 
L 83.962616 615.792989 
L 84.081877 617.15285 
L 84.374068 623.723288 
L 85.185047 641.923447 
L 85.679982 648.15224 
L 86.151065 651.539206 
L 86.616185 653.414517 
L 87.087269 654.462453 
L 87.588167 655.05953 
L 88.166586 655.404818 
L 88.965638 655.60619 
L 90.432555 655.707827 
L 94.117738 655.724904 
L 94.153516 654.660983 
L 94.284704 641.132957 
L 94.564968 619.101739 
L 94.672304 618.436408 
L 94.714045 618.504161 
L 94.827344 619.274109 
L 95.053941 622.688704 
L 96.491043 648.34174 
L 96.962126 651.680922 
L 97.427246 653.532313 
L 97.898329 654.567128 
L 98.399228 655.156745 
L 98.983609 655.50009 
L 99.192317 655.572206 
L 99.204243 655.493365 
L 99.257911 652.939834 
L 99.746883 619.104506 
L 99.788625 619.182922 
L 99.901923 620.008892 
L 100.140446 623.770748 
L 101.440398 647.470325 
L 101.917444 651.237138 
L 102.382564 653.303002 
L 102.853647 654.460531 
L 103.342619 655.109464 
L 103.903149 655.489025 
L 104.648534 655.710704 
L 105.936558 655.827049 
L 110.25979 655.886382 
L 144.76216 656.088256 
L 144.869495 652.187618 
L 145.084166 649.155161 
L 145.173612 648.99394 
L 145.221317 649.041753 
L 145.370394 649.541342 
L 146.568973 654.488523 
L 147.051982 655.283171 
L 147.582696 655.741623 
L 148.244597 656.009918 
L 149.270247 656.158839 
L 151.727035 656.226353 
L 196.205635 656.594943 
L 221.119375 656.73928 
L 221.334046 655.70677 
L 221.530827 655.558823 
L 221.715683 655.600943 
L 221.727609 655.504589 
L 221.94228 654.768344 
L 222.025763 654.582195 
L 222.228507 653.869946 
L 222.353732 653.919572 
L 222.604181 654.392577 
L 223.343603 655.792997 
L 223.874317 656.30623 
L 224.506403 656.602459 
L 225.436643 656.769467 
L 227.422348 656.847406 
L 245.591847 657.002051 
L 270.946855 657.128439 
L 271.006486 654.07336 
L 271.483532 620.908068 
L 271.501422 620.91986 
L 271.578942 621.269104 
L 271.757834 623.427519 
L 272.15736 631.731104 
L 272.199102 632.330854 
L 272.246806 631.420913 
L 272.62248 618.749822 
L 272.7 618.940282 
L 272.849077 620.211547 
L 273.117416 624.873844 
L 274.274253 647.38506 
L 274.757262 651.842931 
L 275.228345 654.292395 
L 275.693466 655.63467 
L 276.176475 656.394637 
L 276.713152 656.833375 
L 277.392943 657.090167 
L 278.47226 657.231034 
L 281.233165 657.294744 
L 283.206944 657.229421 
L 283.266575 654.17435 
L 283.725732 623.542384 
L 283.731695 623.545479 
L 283.791326 623.761052 
L 283.940403 625.379037 
L 284.298187 632.323137 
L 285.037609 645.943654 
L 285.532544 651.131804 
L 286.003628 653.932326 
L 286.468748 655.475113 
L 286.945794 656.342694 
L 287.464582 656.840398 
L 288.096668 657.131508 
L 289.038834 657.296228 
L 291.078207 657.372644 
L 311.245337 657.543255 
L 325.216829 657.575805 
L 325.27646 654.520726 
L 325.753506 621.730499 
L 325.765432 621.739346 
L 325.836989 622.041362 
L 326.003955 623.972116 
L 326.379629 631.599866 
L 327.113088 645.6949 
L 327.608023 651.142701 
L 328.079107 654.09123 
L 328.544227 655.717936 
L 329.021273 656.63339 
L 329.534098 657.154443 
L 330.148295 657.458254 
L 331.042756 657.632194 
L 332.885347 657.715073 
L 346.546759 657.834257 
L 362.080578 657.879686 
L 362.140209 654.824795 
L 362.366806 645.204007 
L 362.509919 644.324461 
L 362.533772 644.349005 
L 362.635144 644.779531 
L 362.915409 647.268117 
L 363.601163 653.050419 
L 364.084172 655.307038 
L 364.555255 656.531093 
L 365.044228 657.220403 
L 365.592831 657.618103 
L 366.314363 657.852667 
L 367.518905 657.977516 
L 371.138493 658.036722 
L 371.156383 657.954254 
L 371.216013 654.899202 
L 371.67517 623.797658 
L 371.687097 623.802991 
L 371.75269 624.066599 
L 371.913694 625.921248 
L 372.301294 633.67172 
L 372.998974 646.522884 
L 373.493909 651.774531 
L 373.964992 654.611351 
L 374.430113 656.174716 
L 374.907159 657.054032 
L 375.419984 657.554415 
L 376.046107 657.849912 
L 376.970384 658.017597 
L 378.9382 658.096211 
L 396.445797 658.245591 
L 396.582948 658.1641 
L 396.642578 655.109021 
L 397.012289 632.459693 
L 397.054031 632.354578 
L 397.107699 632.494301 
L 397.244849 633.789651 
L 398.365908 646.977963 
L 399.486967 655.045473 
L 399.701637 655.822202 
L 399.743379 655.653228 
L 399.922271 655.374128 
L 400.071348 655.538778 
L 401.192407 657.509947 
L 401.222222 657.325057 
L 401.442856 656.596068 
L 401.609822 656.599314 
L 401.907976 656.941513 
L 402.385023 657.51305 
L 402.396949 657.464135 
L 402.599693 656.637909 
L 402.718955 656.308944 
L 402.927663 655.614594 
L 403.005183 655.456724 
L 403.201964 654.841139 
L 403.321226 654.932651 
L 403.595527 655.568945 
L 404.275318 657.073525 
L 404.788143 657.675769 
L 405.372525 658.021955 
L 406.17754 658.222645 
L 407.662347 658.323436 
L 414.221733 658.392122 
L 429.010166 658.431409 
L 429.069797 655.37633 
L 429.522991 625.232956 
L 429.528954 625.23456 
L 429.582622 625.405219 
L 429.725736 626.8775 
L 430.065631 633.315086 
L 430.828905 647.296446 
L 431.323841 652.418779 
L 431.794924 655.181746 
L 432.260044 656.703258 
L 432.73709 657.558712 
L 433.255878 658.049428 
L 433.893927 658.338219 
L 434.84802 658.500564 
L 436.94106 658.575491 
L 459.332418 658.763987 
L 465.647318 658.733422 
L 465.706949 655.678342 
L 466.183995 622.888115 
L 466.195921 622.896962 
L 466.267478 623.198978 
L 466.434444 625.129733 
L 466.810118 632.757482 
L 467.543577 646.852517 
L 468.038512 652.300317 
L 468.509596 655.248847 
L 468.974716 656.875552 
L 469.451762 657.791006 
L 469.964587 658.312059 
L 470.578784 658.615871 
L 471.473245 658.78981 
L 473.315837 658.87269 
L 479.022502 658.86526 
L 479.237173 657.832751 
L 479.350472 657.396316 
L 479.565142 656.614706 
L 479.630736 656.430621 
L 479.833481 655.732095 
L 479.92889 655.606146 
L 480.119709 655.083469 
L 480.215118 655.114759 
L 480.233007 654.997573 
L 480.39401 654.624483 
L 480.411899 654.631182 
L 480.501346 654.750792 
L 480.537124 654.58049 
L 480.674275 654.30472 
L 480.70409 654.320068 
L 480.7995 654.478337 
L 480.841241 654.295553 
L 480.966466 654.086787 
L 480.996281 654.10644 
L 481.139395 654.411285 
L 482.42742 657.922707 
L 482.588423 658.118794 
L 482.606312 658.01915 
L 482.826946 657.235059 
L 482.910429 657.03195 
L 483.119137 656.263048 
L 483.208583 656.100124 
L 483.405365 655.489095 
L 483.506737 655.394967 
L 483.685629 654.924226 
L 483.691592 654.925254 
L 483.787002 655.000442 
L 483.810854 654.867042 
L 483.965894 654.523493 
L 483.983783 654.530869 
L 484.079192 654.668239 
L 484.114971 654.503335 
L 484.252122 654.245521 
L 484.275974 654.25896 
L 484.413125 654.52607 
L 485.039248 656.620819 
L 485.54611 657.734698 
L 486.052971 658.339551 
L 486.637353 658.689361 
L 487.436405 658.890831 
L 488.086381 658.928087 
L 488.092344 658.874267 
L 488.151975 655.824098 
L 488.557464 630.341272 
L 488.581316 630.318808 
L 488.623058 630.425538 
L 488.748283 631.554545 
L 489.076252 637.17289 
L 489.803747 649.045489 
L 490.29272 653.571084 
L 490.763803 656.039059 
L 491.228923 657.394397 
L 491.711932 658.16222 
L 492.242646 658.602135 
L 492.916474 658.862156 
L 493.977902 659.005368 
L 496.637435 659.070172 
L 503.298193 659.04379 
L 503.357824 655.988711 
L 503.763313 630.479406 
L 503.787166 630.456534 
L 503.828907 630.562654 
L 503.954132 631.690349 
L 504.282101 637.306401 
L 505.009597 649.174864 
L 505.498569 653.698701 
L 505.969652 656.165669 
L 506.434772 657.520441 
L 506.917782 658.28794 
L 507.448496 658.727668 
L 508.122323 658.98758 
L 509.183751 659.130734 
L 511.843284 659.195519 
L 513.441389 659.127242 
L 513.50102 656.072181 
L 513.900546 631.234041 
L 513.924398 631.204201 
L 513.972103 631.326456 
L 514.103291 632.550666 
L 514.455112 638.600651 
L 515.140866 649.464494 
L 515.629839 653.898159 
L 516.100922 656.31369 
L 516.566042 657.639547 
L 517.049051 658.390484 
L 517.585728 658.824049 
L 518.265519 659.077843 
L 519.350799 659.217506 
L 522.153446 659.280812 
L 554.753594 659.489541 
L 554.968265 658.457031 
L 555.081563 658.020595 
L 555.296234 657.238985 
L 555.361828 657.0549 
L 555.564573 656.356374 
L 555.659982 656.230425 
L 555.8508 655.707748 
L 555.970062 655.838864 
L 556.232437 656.528687 
L 556.303994 656.25334 
L 556.435182 656.108273 
L 556.464997 656.125783 
L 556.530591 656.206568 
L 556.554444 656.085489 
L 556.733336 655.656518 
L 556.739299 655.658042 
L 556.828745 655.753067 
L 556.858561 655.602308 
L 557.013601 655.248866 
L 557.03149 655.254701 
L 557.126899 655.383169 
L 557.162678 655.214373 
L 557.299828 654.942063 
L 557.329644 654.957816 
L 557.425053 655.116844 
L 557.466795 654.93417 
L 557.592019 654.72531 
L 557.621835 654.74488 
L 557.723207 654.933215 
L 557.764948 654.760523 
L 557.878247 654.573888 
L 557.919989 654.6032 
L 558.021361 654.808839 
L 558.069065 654.621602 
L 558.176401 654.473133 
L 558.218142 654.507863 
L 558.319515 654.725365 
L 558.367219 654.54353 
L 558.468592 654.403711 
L 558.510333 654.436314 
L 558.617669 654.669734 
L 558.671336 654.47281 
L 558.766746 654.358623 
L 558.808487 654.393742 
L 558.963527 654.784841 
L 560.108438 658.296632 
L 560.609337 658.921944 
L 560.704746 659.002143 
L 560.722635 658.896714 
L 560.949232 658.045271 
L 561.026752 657.830909 
L 561.23546 657.023662 
L 561.330869 656.804752 
L 561.527651 656.210895 
L 561.62306 656.108174 
L 561.807915 655.623148 
L 561.927177 655.762743 
L 562.237257 656.6249 
L 562.86338 658.190723 
L 563.370242 658.878674 
L 563.930771 659.269308 
L 564.66423 659.496119 
L 565.910513 659.616135 
L 567.872366 659.595689 
L 568.087037 658.563689 
L 568.200335 658.127467 
L 568.415006 657.346179 
L 568.4806 657.162174 
L 568.683344 656.463858 
L 568.802606 656.52828 
L 569.053055 657.046432 
L 569.786514 658.555415 
L 570.311265 659.110349 
L 570.919499 659.427521 
L 571.790108 659.60942 
L 573.519401 659.696892 
L 576.143155 659.644012 
L 576.202786 656.588962 
L 576.447272 644.907943 
L 576.57846 644.096301 
L 576.608275 644.135874 
L 576.715611 644.690584 
L 577.019728 647.81861 
L 577.681629 654.108388 
L 578.164639 656.68213 
L 578.635722 658.082257 
L 579.118731 658.86489 
L 579.649445 659.313683 
L 580.31731 659.577482 
L 581.360848 659.723336 
L 583.919009 659.789392 
L 602.81004 659.918347 
L 602.845819 658.854419 
L 602.977007 645.326357 
L 603.233419 626.011985 
L 603.340754 625.25668 
L 603.382496 625.344098 
L 603.501757 626.326712 
L 603.764133 630.793389 
L 604.807672 650.063843 
L 605.290681 654.534828 
L 605.761764 656.997947 
L 606.226884 658.348682 
L 606.709893 659.113606 
L 607.240607 659.551816 
L 607.914435 659.810832 
L 608.975863 659.953511 
L 610.007476 659.912116 
L 610.067106 656.858295 
L 610.508374 628.304871 
L 610.556079 628.413529 
L 610.681303 629.552679 
L 610.98542 634.939361 
L 611.802362 649.424529 
L 612.291335 654.226727 
L 612.762418 656.850156 
L 613.227538 658.292691 
L 613.263316 658.372175 
L 613.281206 658.224388 
L 613.346799 654.433292 
L 613.752289 626.950367 
L 613.782104 626.903715 
L 613.829809 627.02472 
L 613.955033 628.173274 
L 614.253187 633.509348 
L 614.706381 642.688664 
L 614.748123 641.901562 
L 614.885274 632.15803 
L 615.123797 621.011803 
L 615.213243 620.741149 
L 615.260947 620.799846 
L 615.374246 621.348912 
L 615.565064 623.598297 
L 615.922849 631.14931 
L 616.709975 647.359674 
L 617.204911 653.12453 
L 617.675994 656.251656 
L 618.141114 657.979555 
L 618.612197 658.943944 
L 619.119059 659.497762 
L 619.72133 659.821588 
L 620.57405 660.006972 
L 622.237749 660.097224 
L 631.784637 660.18557 
L 644.849741 660.210648 
L 644.909372 657.155569 
L 645.380455 625.172088 
L 645.392381 625.182827 
L 645.463938 625.505135 
L 645.636867 627.599179 
L 646.04832 636.060495 
L 646.728111 648.668462 
L 647.223046 653.970107 
L 647.694129 656.833962 
L 648.159249 658.412466 
L 648.636296 659.30039 
L 649.14912 659.805691 
L 649.775243 660.104081 
L 650.133028 660.193271 
L 650.144954 660.113119 
L 650.747225 651.358298 
L 650.818782 651.454704 
L 650.985748 652.226505 
L 652.03525 657.864216 
L 652.512296 659.011676 
L 653.007232 659.655825 
L 653.573724 660.030022 
L 654.331035 660.247586 
L 655.654838 660.36065 
L 660.323929 660.420783 
L 665.80996 660.383431 
L 665.869591 657.328351 
L 666.251228 633.91597 
L 666.287007 633.849631 
L 666.340674 634.003962 
L 666.483788 635.415807 
L 666.907167 642.648892 
L 667.515401 651.482904 
L 668.004373 655.585596 
L 668.475456 657.80985 
L 668.946539 659.039423 
L 669.435512 659.729493 
L 669.984115 660.127293 
L 670.705648 660.361867 
L 671.910189 660.486717 
L 675.529778 660.545924 
L 679.37 660.577831 
L 679.37 660.577831 
" clip-path="url(#p0b5b955238)" style="fill: none; stroke: #008000; stroke-width: 1.5; stroke-linecap: square"/>
   </g>
   <g id="patch_13">
    <path d="M 52.94 822.04 
L 52.94 605.733333 
" style="fill: none; stroke: #000000; stroke-width: 0.8; stroke-linejoin: miter; stroke-linecap: square"/>
   </g>
   <g id="patch_14">
    <path d="M 709.2 822.04 
L 709.2 605.733333 
" style="fill: none; stroke: #000000; stroke-width: 0.8; stroke-linejoin: miter; stroke-linecap: square"/>
   </g>
   <g id="patch_15">
    <path d="M 52.94 822.04 
L 709.2 822.04 
" style="fill: none; stroke: #000000; stroke-width: 0.8; stroke-linejoin: miter; stroke-linecap: square"/>
   </g>
   <g id="patch_16">
    <path d="M 52.94 605.733333 
L 709.2 605.733333 
" style="fill: none; stroke: #000000; stroke-width: 0.8; stroke-linejoin: miter; stroke-linecap: square"/>
   </g>
   <g id="text_44">
    <!-- Cost Over Time -->
    <g transform="translate(334.804375 599.733333) scale(0.12 -0.12)">
     <defs>
      <path id="DejaVuSans-76" d="M 191 3500 
L 800 3500 
L 1894 563 
L 2988 3500 
L 3597 3500 
L 2284 0 
L 1503 0 
L 191 3500 
z
" transform="scale(0.015625)"/>
      <path id="DejaVuSans-72" d="M 2631 2963 
Q 2534 3019 2420 3045 
Q 2306 3072 2169 3072 
Q 1681 3072 1420 2755 
Q 1159 2438 1159 1844 
L 1159 0 
L 581 0 
L 581 3500 
L 1159 3500 
L 1159 2956 
Q 1341 3275 1631 3429 
Q 1922 3584 2338 3584 
Q 2397 3584 2469 3576 
Q 2541 3569 2628 3553 
L 2631 2963 
z
" transform="scale(0.015625)"/>
     </defs>
     <use xlink:href="#DejaVuSans-43"/>
     <use xlink:href="#DejaVuSans-6f" x="69.824219"/>
     <use xlink:href="#DejaVuSans-73" x="131.005859"/>
     <use xlink:href="#DejaVuSans-74" x="183.105469"/>
     <use xlink:href="#DejaVuSans-20" x="222.314453"/>
     <use xlink:href="#DejaVuSans-4f" x="254.101562"/>
     <use xlink:href="#DejaVuSans-76" x="332.8125"/>
     <use xlink:href="#DejaVuSans-65" x="391.992188"/>
     <use xlink:href="#DejaVuSans-72" x="453.515625"/>
     <use xlink:href="#DejaVuSans-20" x="494.628906"/>
     <use xlink:href="#DejaVuSans-54" x="526.416016"/>
     <use xlink:href="#DejaVuSans-69" x="584.375"/>
     <use xlink:href="#DejaVuSans-6d" x="612.158203"/>
     <use xlink:href="#DejaVuSans-65" x="709.570312"/>
    </g>
   </g>
  </g>
  <g id="text_45">
   <!-- Episode 640 - Total Reward: -24839.41 -->
   <g transform="translate(244.110938 26.398125) scale(0.12 -0.12)">
    <defs>
     <path id="DejaVuSans-45" d="M 628 4666 
L 3578 4666 
L 3578 4134 
L 1259 4134 
L 1259 2753 
L 3481 2753 
L 3481 2222 
L 1259 2222 
L 1259 531 
L 3634 531 
L 3634 0 
L 628 0 
L 628 4666 
z
" transform="scale(0.015625)"/>
     <path id="DejaVuSans-64" d="M 2906 2969 
L 2906 4863 
L 3481 4863 
L 3481 0 
L 2906 0 
L 2906 525 
Q 2725 213 2448 61 
Q 2172 -91 1784 -91 
Q 1150 -91 751 415 
Q 353 922 353 1747 
Q 353 2572 751 3078 
Q 1150 3584 1784 3584 
Q 2172 3584 2448 3432 
Q 2725 3281 2906 2969 
z
M 947 1747 
Q 947 1113 1208 752 
Q 1469 391 1925 391 
Q 2381 391 2643 752 
Q 2906 1113 2906 1747 
Q 2906 2381 2643 2742 
Q 2381 3103 1925 3103 
Q 1469 3103 1208 2742 
Q 947 2381 947 1747 
z
" transform="scale(0.015625)"/>
     <path id="DejaVuSans-2d" d="M 313 2009 
L 1997 2009 
L 1997 1497 
L 313 1497 
L 313 2009 
z
" transform="scale(0.015625)"/>
     <path id="DejaVuSans-52" d="M 2841 2188 
Q 3044 2119 3236 1894 
Q 3428 1669 3622 1275 
L 4263 0 
L 3584 0 
L 2988 1197 
Q 2756 1666 2539 1819 
Q 2322 1972 1947 1972 
L 1259 1972 
L 1259 0 
L 628 0 
L 628 4666 
L 2053 4666 
Q 2853 4666 3247 4331 
Q 3641 3997 3641 3322 
Q 3641 2881 3436 2590 
Q 3231 2300 2841 2188 
z
M 1259 4147 
L 1259 2491 
L 2053 2491 
Q 2509 2491 2742 2702 
Q 2975 2913 2975 3322 
Q 2975 3731 2742 3939 
Q 2509 4147 2053 4147 
L 1259 4147 
z
" transform="scale(0.015625)"/>
     <path id="DejaVuSans-77" d="M 269 3500 
L 844 3500 
L 1563 769 
L 2278 3500 
L 2956 3500 
L 3675 769 
L 4391 3500 
L 4966 3500 
L 4050 0 
L 3372 0 
L 2619 2869 
L 1863 0 
L 1184 0 
L 269 3500 
z
" transform="scale(0.015625)"/>
     <path id="DejaVuSans-3a" d="M 750 794 
L 1409 794 
L 1409 0 
L 750 0 
L 750 794 
z
M 750 3309 
L 1409 3309 
L 1409 2516 
L 750 2516 
L 750 3309 
z
" transform="scale(0.015625)"/>
     <path id="DejaVuSans-39" d="M 703 97 
L 703 672 
Q 941 559 1184 500 
Q 1428 441 1663 441 
Q 2288 441 2617 861 
Q 2947 1281 2994 2138 
Q 2813 1869 2534 1725 
Q 2256 1581 1919 1581 
Q 1219 1581 811 2004 
Q 403 2428 403 3163 
Q 403 3881 828 4315 
Q 1253 4750 1959 4750 
Q 2769 4750 3195 4129 
Q 3622 3509 3622 2328 
Q 3622 1225 3098 567 
Q 2575 -91 1691 -91 
Q 1453 -91 1209 -44 
Q 966 3 703 97 
z
M 1959 2075 
Q 2384 2075 2632 2365 
Q 2881 2656 2881 3163 
Q 2881 3666 2632 3958 
Q 2384 4250 1959 4250 
Q 1534 4250 1286 3958 
Q 1038 3666 1038 3163 
Q 1038 2656 1286 2365 
Q 1534 2075 1959 2075 
z
" transform="scale(0.015625)"/>
    </defs>
    <use xlink:href="#DejaVuSans-45"/>
    <use xlink:href="#DejaVuSans-70" x="63.183594"/>
    <use xlink:href="#DejaVuSans-69" x="126.660156"/>
    <use xlink:href="#DejaVuSans-73" x="154.443359"/>
    <use xlink:href="#DejaVuSans-6f" x="206.542969"/>
    <use xlink:href="#DejaVuSans-64" x="267.724609"/>
    <use xlink:href="#DejaVuSans-65" x="331.201172"/>
    <use xlink:href="#DejaVuSans-20" x="392.724609"/>
    <use xlink:href="#DejaVuSans-36" x="424.511719"/>
    <use xlink:href="#DejaVuSans-34" x="488.134766"/>
    <use xlink:href="#DejaVuSans-30" x="551.757812"/>
    <use xlink:href="#DejaVuSans-20" x="615.380859"/>
    <use xlink:href="#DejaVuSans-2d" x="647.167969"/>
    <use xlink:href="#DejaVuSans-20" x="683.251953"/>
    <use xlink:href="#DejaVuSans-54" x="715.039062"/>
    <use xlink:href="#DejaVuSans-6f" x="759.123047"/>
    <use xlink:href="#DejaVuSans-74" x="820.304688"/>
    <use xlink:href="#DejaVuSans-61" x="859.513672"/>
    <use xlink:href="#DejaVuSans-6c" x="920.792969"/>
    <use xlink:href="#DejaVuSans-20" x="948.576172"/>
    <use xlink:href="#DejaVuSans-52" x="980.363281"/>
    <use xlink:href="#DejaVuSans-65" x="1045.345703"/>
    <use xlink:href="#DejaVuSans-77" x="1106.869141"/>
    <use xlink:href="#DejaVuSans-61" x="1188.65625"/>
    <use xlink:href="#DejaVuSans-72" x="1249.935547"/>
    <use xlink:href="#DejaVuSans-64" x="1289.298828"/>
    <use xlink:href="#DejaVuSans-3a" x="1352.775391"/>
    <use xlink:href="#DejaVuSans-20" x="1386.466797"/>
    <use xlink:href="#DejaVuSans-2d" x="1418.253906"/>
    <use xlink:href="#DejaVuSans-32" x="1454.337891"/>
    <use xlink:href="#DejaVuSans-34" x="1517.960938"/>
    <use xlink:href="#DejaVuSans-38" x="1581.583984"/>
    <use xlink:href="#DejaVuSans-33" x="1645.207031"/>
    <use xlink:href="#DejaVuSans-39" x="1708.830078"/>
    <use xlink:href="#DejaVuSans-2e" x="1772.453125"/>
    <use xlink:href="#DejaVuSans-34" x="1804.240234"/>
    <use xlink:href="#DejaVuSans-31" x="1867.863281"/>
   </g>
  </g>
 </g>
 <defs>
  <clipPath id="p3262c6fb1d">
   <rect x="52.94" y="85.2" width="656.26" height="216.306667"/>
  </clipPath>
  <clipPath id="p64e06a8a86">
   <rect x="52.94" y="345.466667" width="656.26" height="216.306667"/>
  </clipPath>
  <clipPath id="p0b5b955238">
   <rect x="52.94" y="605.733333" width="656.26" height="216.306667"/>
  </clipPath>
 </defs>
</svg>
