<?xml version="1.0" encoding="utf-8" standalone="no"?>
<!DOCTYPE svg PUBLIC "-//W3C//DTD SVG 1.1//EN"
  "http://www.w3.org/Graphics/SVG/1.1/DTD/svg11.dtd">
<svg xmlns:xlink="http://www.w3.org/1999/xlink" width="720pt" height="864pt" viewBox="0 0 720 864" xmlns="http://www.w3.org/2000/svg" version="1.1">
 <metadata>
  <rdf:RDF xmlns:dc="http://purl.org/dc/elements/1.1/" xmlns:cc="http://creativecommons.org/ns#" xmlns:rdf="http://www.w3.org/1999/02/22-rdf-syntax-ns#">
   <cc:Work>
    <dc:type rdf:resource="http://purl.org/dc/dcmitype/StillImage"/>
    <dc:date>2024-06-04T23:20:51.140681</dc:date>
    <dc:format>image/svg+xml</dc:format>
    <dc:creator>
     <cc:Agent>
      <dc:title>Matplotlib v3.8.4, https://matplotlib.org/</dc:title>
     </cc:Agent>
    </dc:creator>
   </cc:Work>
  </rdf:RDF>
 </metadata>
 <defs>
  <style type="text/css">*{stroke-linejoin: round; stroke-linecap: butt}</style>
 </defs>
 <g id="figure_1">
  <g id="patch_1">
   <path d="M 0 864 
L 720 864 
L 720 0 
L 0 0 
z
" style="fill: #ffffff"/>
  </g>
  <g id="axes_1">
   <g id="patch_2">
    <path d="M 52.94 301.506667 
L 709.2 301.506667 
L 709.2 85.2 
L 52.94 85.2 
z
" style="fill: #ffffff"/>
   </g>
   <g id="matplotlib.axis_1">
    <g id="xtick_1">
     <g id="line2d_1">
      <defs>
       <path id="m19275f6ed7" d="M 0 0 
L 0 3.5 
" style="stroke: #000000; stroke-width: 0.8"/>
      </defs>
      <g>
       <use xlink:href="#m19275f6ed7" x="82.77" y="301.506667" style="stroke: #000000; stroke-width: 0.8"/>
      </g>
     </g>
     <g id="text_1">
      <!-- 0.0 -->
      <g transform="translate(74.818438 316.105104) scale(0.1 -0.1)">
       <defs>
        <path id="DejaVuSans-30" d="M 2034 4250 
Q 1547 4250 1301 3770 
Q 1056 3291 1056 2328 
Q 1056 1369 1301 889 
Q 1547 409 2034 409 
Q 2525 409 2770 889 
Q 3016 1369 3016 2328 
Q 3016 3291 2770 3770 
Q 2525 4250 2034 4250 
z
M 2034 4750 
Q 2819 4750 3233 4129 
Q 3647 3509 3647 2328 
Q 3647 1150 3233 529 
Q 2819 -91 2034 -91 
Q 1250 -91 836 529 
Q 422 1150 422 2328 
Q 422 3509 836 4129 
Q 1250 4750 2034 4750 
z
" transform="scale(0.015625)"/>
        <path id="DejaVuSans-2e" d="M 684 794 
L 1344 794 
L 1344 0 
L 684 0 
L 684 794 
z
" transform="scale(0.015625)"/>
       </defs>
       <use xlink:href="#DejaVuSans-30"/>
       <use xlink:href="#DejaVuSans-2e" x="63.623047"/>
       <use xlink:href="#DejaVuSans-30" x="95.410156"/>
      </g>
     </g>
    </g>
    <g id="xtick_2">
     <g id="line2d_2">
      <g>
       <use xlink:href="#m19275f6ed7" x="202.031562" y="301.506667" style="stroke: #000000; stroke-width: 0.8"/>
      </g>
     </g>
     <g id="text_2">
      <!-- 0.2 -->
      <g transform="translate(194.079999 316.105104) scale(0.1 -0.1)">
       <defs>
        <path id="DejaVuSans-32" d="M 1228 531 
L 3431 531 
L 3431 0 
L 469 0 
L 469 531 
Q 828 903 1448 1529 
Q 2069 2156 2228 2338 
Q 2531 2678 2651 2914 
Q 2772 3150 2772 3378 
Q 2772 3750 2511 3984 
Q 2250 4219 1831 4219 
Q 1534 4219 1204 4116 
Q 875 4013 500 3803 
L 500 4441 
Q 881 4594 1212 4672 
Q 1544 4750 1819 4750 
Q 2544 4750 2975 4387 
Q 3406 4025 3406 3419 
Q 3406 3131 3298 2873 
Q 3191 2616 2906 2266 
Q 2828 2175 2409 1742 
Q 1991 1309 1228 531 
z
" transform="scale(0.015625)"/>
       </defs>
       <use xlink:href="#DejaVuSans-30"/>
       <use xlink:href="#DejaVuSans-2e" x="63.623047"/>
       <use xlink:href="#DejaVuSans-32" x="95.410156"/>
      </g>
     </g>
    </g>
    <g id="xtick_3">
     <g id="line2d_3">
      <g>
       <use xlink:href="#m19275f6ed7" x="321.293124" y="301.506667" style="stroke: #000000; stroke-width: 0.8"/>
      </g>
     </g>
     <g id="text_3">
      <!-- 0.4 -->
      <g transform="translate(313.341561 316.105104) scale(0.1 -0.1)">
       <defs>
        <path id="DejaVuSans-34" d="M 2419 4116 
L 825 1625 
L 2419 1625 
L 2419 4116 
z
M 2253 4666 
L 3047 4666 
L 3047 1625 
L 3713 1625 
L 3713 1100 
L 3047 1100 
L 3047 0 
L 2419 0 
L 2419 1100 
L 313 1100 
L 313 1709 
L 2253 4666 
z
" transform="scale(0.015625)"/>
       </defs>
       <use xlink:href="#DejaVuSans-30"/>
       <use xlink:href="#DejaVuSans-2e" x="63.623047"/>
       <use xlink:href="#DejaVuSans-34" x="95.410156"/>
      </g>
     </g>
    </g>
    <g id="xtick_4">
     <g id="line2d_4">
      <g>
       <use xlink:href="#m19275f6ed7" x="440.554686" y="301.506667" style="stroke: #000000; stroke-width: 0.8"/>
      </g>
     </g>
     <g id="text_4">
      <!-- 0.6 -->
      <g transform="translate(432.603123 316.105104) scale(0.1 -0.1)">
       <defs>
        <path id="DejaVuSans-36" d="M 2113 2584 
Q 1688 2584 1439 2293 
Q 1191 2003 1191 1497 
Q 1191 994 1439 701 
Q 1688 409 2113 409 
Q 2538 409 2786 701 
Q 3034 994 3034 1497 
Q 3034 2003 2786 2293 
Q 2538 2584 2113 2584 
z
M 3366 4563 
L 3366 3988 
Q 3128 4100 2886 4159 
Q 2644 4219 2406 4219 
Q 1781 4219 1451 3797 
Q 1122 3375 1075 2522 
Q 1259 2794 1537 2939 
Q 1816 3084 2150 3084 
Q 2853 3084 3261 2657 
Q 3669 2231 3669 1497 
Q 3669 778 3244 343 
Q 2819 -91 2113 -91 
Q 1303 -91 875 529 
Q 447 1150 447 2328 
Q 447 3434 972 4092 
Q 1497 4750 2381 4750 
Q 2619 4750 2861 4703 
Q 3103 4656 3366 4563 
z
" transform="scale(0.015625)"/>
       </defs>
       <use xlink:href="#DejaVuSans-30"/>
       <use xlink:href="#DejaVuSans-2e" x="63.623047"/>
       <use xlink:href="#DejaVuSans-36" x="95.410156"/>
      </g>
     </g>
    </g>
    <g id="xtick_5">
     <g id="line2d_5">
      <g>
       <use xlink:href="#m19275f6ed7" x="559.816247" y="301.506667" style="stroke: #000000; stroke-width: 0.8"/>
      </g>
     </g>
     <g id="text_5">
      <!-- 0.8 -->
      <g transform="translate(551.864685 316.105104) scale(0.1 -0.1)">
       <defs>
        <path id="DejaVuSans-38" d="M 2034 2216 
Q 1584 2216 1326 1975 
Q 1069 1734 1069 1313 
Q 1069 891 1326 650 
Q 1584 409 2034 409 
Q 2484 409 2743 651 
Q 3003 894 3003 1313 
Q 3003 1734 2745 1975 
Q 2488 2216 2034 2216 
z
M 1403 2484 
Q 997 2584 770 2862 
Q 544 3141 544 3541 
Q 544 4100 942 4425 
Q 1341 4750 2034 4750 
Q 2731 4750 3128 4425 
Q 3525 4100 3525 3541 
Q 3525 3141 3298 2862 
Q 3072 2584 2669 2484 
Q 3125 2378 3379 2068 
Q 3634 1759 3634 1313 
Q 3634 634 3220 271 
Q 2806 -91 2034 -91 
Q 1263 -91 848 271 
Q 434 634 434 1313 
Q 434 1759 690 2068 
Q 947 2378 1403 2484 
z
M 1172 3481 
Q 1172 3119 1398 2916 
Q 1625 2713 2034 2713 
Q 2441 2713 2670 2916 
Q 2900 3119 2900 3481 
Q 2900 3844 2670 4047 
Q 2441 4250 2034 4250 
Q 1625 4250 1398 4047 
Q 1172 3844 1172 3481 
z
" transform="scale(0.015625)"/>
       </defs>
       <use xlink:href="#DejaVuSans-30"/>
       <use xlink:href="#DejaVuSans-2e" x="63.623047"/>
       <use xlink:href="#DejaVuSans-38" x="95.410156"/>
      </g>
     </g>
    </g>
    <g id="xtick_6">
     <g id="line2d_6">
      <g>
       <use xlink:href="#m19275f6ed7" x="679.077809" y="301.506667" style="stroke: #000000; stroke-width: 0.8"/>
      </g>
     </g>
     <g id="text_6">
      <!-- 1.0 -->
      <g transform="translate(671.126247 316.105104) scale(0.1 -0.1)">
       <defs>
        <path id="DejaVuSans-31" d="M 794 531 
L 1825 531 
L 1825 4091 
L 703 3866 
L 703 4441 
L 1819 4666 
L 2450 4666 
L 2450 531 
L 3481 531 
L 3481 0 
L 794 0 
L 794 531 
z
" transform="scale(0.015625)"/>
       </defs>
       <use xlink:href="#DejaVuSans-31"/>
       <use xlink:href="#DejaVuSans-2e" x="63.623047"/>
       <use xlink:href="#DejaVuSans-30" x="95.410156"/>
      </g>
     </g>
    </g>
   </g>
   <g id="matplotlib.axis_2">
    <g id="ytick_1">
     <g id="line2d_7">
      <defs>
       <path id="mf5419cf2d9" d="M 0 0 
L -3.5 0 
" style="stroke: #ff4500; stroke-width: 0.8"/>
      </defs>
      <g>
       <use xlink:href="#mf5419cf2d9" x="52.94" y="291.680983" style="fill: #ff4500; stroke: #ff4500; stroke-width: 0.8"/>
      </g>
     </g>
     <g id="text_7">
      <!-- 0 -->
      <g style="fill: #ff4500" transform="translate(39.5775 295.480202) scale(0.1 -0.1)">
       <use xlink:href="#DejaVuSans-30"/>
      </g>
     </g>
    </g>
    <g id="ytick_2">
     <g id="line2d_8">
      <g>
       <use xlink:href="#mf5419cf2d9" x="52.94" y="255.914727" style="fill: #ff4500; stroke: #ff4500; stroke-width: 0.8"/>
      </g>
     </g>
     <g id="text_8">
      <!-- 2 -->
      <g style="fill: #ff4500" transform="translate(39.5775 259.713945) scale(0.1 -0.1)">
       <use xlink:href="#DejaVuSans-32"/>
      </g>
     </g>
    </g>
    <g id="ytick_3">
     <g id="line2d_9">
      <g>
       <use xlink:href="#mf5419cf2d9" x="52.94" y="220.14847" style="fill: #ff4500; stroke: #ff4500; stroke-width: 0.8"/>
      </g>
     </g>
     <g id="text_9">
      <!-- 4 -->
      <g style="fill: #ff4500" transform="translate(39.5775 223.947689) scale(0.1 -0.1)">
       <use xlink:href="#DejaVuSans-34"/>
      </g>
     </g>
    </g>
    <g id="ytick_4">
     <g id="line2d_10">
      <g>
       <use xlink:href="#mf5419cf2d9" x="52.94" y="184.382213" style="fill: #ff4500; stroke: #ff4500; stroke-width: 0.8"/>
      </g>
     </g>
     <g id="text_10">
      <!-- 6 -->
      <g style="fill: #ff4500" transform="translate(39.5775 188.181432) scale(0.1 -0.1)">
       <use xlink:href="#DejaVuSans-36"/>
      </g>
     </g>
    </g>
    <g id="ytick_5">
     <g id="line2d_11">
      <g>
       <use xlink:href="#mf5419cf2d9" x="52.94" y="148.615957" style="fill: #ff4500; stroke: #ff4500; stroke-width: 0.8"/>
      </g>
     </g>
     <g id="text_11">
      <!-- 8 -->
      <g style="fill: #ff4500" transform="translate(39.5775 152.415175) scale(0.1 -0.1)">
       <use xlink:href="#DejaVuSans-38"/>
      </g>
     </g>
    </g>
    <g id="ytick_6">
     <g id="line2d_12">
      <g>
       <use xlink:href="#mf5419cf2d9" x="52.94" y="112.8497" style="fill: #ff4500; stroke: #ff4500; stroke-width: 0.8"/>
      </g>
     </g>
     <g id="text_12">
      <!-- 10 -->
      <g style="fill: #ff4500" transform="translate(33.215 116.648919) scale(0.1 -0.1)">
       <use xlink:href="#DejaVuSans-31"/>
       <use xlink:href="#DejaVuSans-30" x="63.623047"/>
      </g>
     </g>
    </g>
    <g id="text_13">
     <!-- Output Voltage -->
     <g style="fill: #ff4500" transform="translate(27.135313 231.066615) rotate(-90) scale(0.1 -0.1)">
      <defs>
       <path id="DejaVuSans-4f" d="M 2522 4238 
Q 1834 4238 1429 3725 
Q 1025 3213 1025 2328 
Q 1025 1447 1429 934 
Q 1834 422 2522 422 
Q 3209 422 3611 934 
Q 4013 1447 4013 2328 
Q 4013 3213 3611 3725 
Q 3209 4238 2522 4238 
z
M 2522 4750 
Q 3503 4750 4090 4092 
Q 4678 3434 4678 2328 
Q 4678 1225 4090 567 
Q 3503 -91 2522 -91 
Q 1538 -91 948 565 
Q 359 1222 359 2328 
Q 359 3434 948 4092 
Q 1538 4750 2522 4750 
z
" transform="scale(0.015625)"/>
       <path id="DejaVuSans-75" d="M 544 1381 
L 544 3500 
L 1119 3500 
L 1119 1403 
Q 1119 906 1312 657 
Q 1506 409 1894 409 
Q 2359 409 2629 706 
Q 2900 1003 2900 1516 
L 2900 3500 
L 3475 3500 
L 3475 0 
L 2900 0 
L 2900 538 
Q 2691 219 2414 64 
Q 2138 -91 1772 -91 
Q 1169 -91 856 284 
Q 544 659 544 1381 
z
M 1991 3584 
L 1991 3584 
z
" transform="scale(0.015625)"/>
       <path id="DejaVuSans-74" d="M 1172 4494 
L 1172 3500 
L 2356 3500 
L 2356 3053 
L 1172 3053 
L 1172 1153 
Q 1172 725 1289 603 
Q 1406 481 1766 481 
L 2356 481 
L 2356 0 
L 1766 0 
Q 1100 0 847 248 
Q 594 497 594 1153 
L 594 3053 
L 172 3053 
L 172 3500 
L 594 3500 
L 594 4494 
L 1172 4494 
z
" transform="scale(0.015625)"/>
       <path id="DejaVuSans-70" d="M 1159 525 
L 1159 -1331 
L 581 -1331 
L 581 3500 
L 1159 3500 
L 1159 2969 
Q 1341 3281 1617 3432 
Q 1894 3584 2278 3584 
Q 2916 3584 3314 3078 
Q 3713 2572 3713 1747 
Q 3713 922 3314 415 
Q 2916 -91 2278 -91 
Q 1894 -91 1617 61 
Q 1341 213 1159 525 
z
M 3116 1747 
Q 3116 2381 2855 2742 
Q 2594 3103 2138 3103 
Q 1681 3103 1420 2742 
Q 1159 2381 1159 1747 
Q 1159 1113 1420 752 
Q 1681 391 2138 391 
Q 2594 391 2855 752 
Q 3116 1113 3116 1747 
z
" transform="scale(0.015625)"/>
       <path id="DejaVuSans-20" transform="scale(0.015625)"/>
       <path id="DejaVuSans-56" d="M 1831 0 
L 50 4666 
L 709 4666 
L 2188 738 
L 3669 4666 
L 4325 4666 
L 2547 0 
L 1831 0 
z
" transform="scale(0.015625)"/>
       <path id="DejaVuSans-6f" d="M 1959 3097 
Q 1497 3097 1228 2736 
Q 959 2375 959 1747 
Q 959 1119 1226 758 
Q 1494 397 1959 397 
Q 2419 397 2687 759 
Q 2956 1122 2956 1747 
Q 2956 2369 2687 2733 
Q 2419 3097 1959 3097 
z
M 1959 3584 
Q 2709 3584 3137 3096 
Q 3566 2609 3566 1747 
Q 3566 888 3137 398 
Q 2709 -91 1959 -91 
Q 1206 -91 779 398 
Q 353 888 353 1747 
Q 353 2609 779 3096 
Q 1206 3584 1959 3584 
z
" transform="scale(0.015625)"/>
       <path id="DejaVuSans-6c" d="M 603 4863 
L 1178 4863 
L 1178 0 
L 603 0 
L 603 4863 
z
" transform="scale(0.015625)"/>
       <path id="DejaVuSans-61" d="M 2194 1759 
Q 1497 1759 1228 1600 
Q 959 1441 959 1056 
Q 959 750 1161 570 
Q 1363 391 1709 391 
Q 2188 391 2477 730 
Q 2766 1069 2766 1631 
L 2766 1759 
L 2194 1759 
z
M 3341 1997 
L 3341 0 
L 2766 0 
L 2766 531 
Q 2569 213 2275 61 
Q 1981 -91 1556 -91 
Q 1019 -91 701 211 
Q 384 513 384 1019 
Q 384 1609 779 1909 
Q 1175 2209 1959 2209 
L 2766 2209 
L 2766 2266 
Q 2766 2663 2505 2880 
Q 2244 3097 1772 3097 
Q 1472 3097 1187 3025 
Q 903 2953 641 2809 
L 641 3341 
Q 956 3463 1253 3523 
Q 1550 3584 1831 3584 
Q 2591 3584 2966 3190 
Q 3341 2797 3341 1997 
z
" transform="scale(0.015625)"/>
       <path id="DejaVuSans-67" d="M 2906 1791 
Q 2906 2416 2648 2759 
Q 2391 3103 1925 3103 
Q 1463 3103 1205 2759 
Q 947 2416 947 1791 
Q 947 1169 1205 825 
Q 1463 481 1925 481 
Q 2391 481 2648 825 
Q 2906 1169 2906 1791 
z
M 3481 434 
Q 3481 -459 3084 -895 
Q 2688 -1331 1869 -1331 
Q 1566 -1331 1297 -1286 
Q 1028 -1241 775 -1147 
L 775 -588 
Q 1028 -725 1275 -790 
Q 1522 -856 1778 -856 
Q 2344 -856 2625 -561 
Q 2906 -266 2906 331 
L 2906 616 
Q 2728 306 2450 153 
Q 2172 0 1784 0 
Q 1141 0 747 490 
Q 353 981 353 1791 
Q 353 2603 747 3093 
Q 1141 3584 1784 3584 
Q 2172 3584 2450 3431 
Q 2728 3278 2906 2969 
L 2906 3500 
L 3481 3500 
L 3481 434 
z
" transform="scale(0.015625)"/>
       <path id="DejaVuSans-65" d="M 3597 1894 
L 3597 1613 
L 953 1613 
Q 991 1019 1311 708 
Q 1631 397 2203 397 
Q 2534 397 2845 478 
Q 3156 559 3463 722 
L 3463 178 
Q 3153 47 2828 -22 
Q 2503 -91 2169 -91 
Q 1331 -91 842 396 
Q 353 884 353 1716 
Q 353 2575 817 3079 
Q 1281 3584 2069 3584 
Q 2775 3584 3186 3129 
Q 3597 2675 3597 1894 
z
M 3022 2063 
Q 3016 2534 2758 2815 
Q 2500 3097 2075 3097 
Q 1594 3097 1305 2825 
Q 1016 2553 972 2059 
L 3022 2063 
z
" transform="scale(0.015625)"/>
      </defs>
      <use xlink:href="#DejaVuSans-4f"/>
      <use xlink:href="#DejaVuSans-75" x="78.710938"/>
      <use xlink:href="#DejaVuSans-74" x="142.089844"/>
      <use xlink:href="#DejaVuSans-70" x="181.298828"/>
      <use xlink:href="#DejaVuSans-75" x="244.775391"/>
      <use xlink:href="#DejaVuSans-74" x="308.154297"/>
      <use xlink:href="#DejaVuSans-20" x="347.363281"/>
      <use xlink:href="#DejaVuSans-56" x="379.150391"/>
      <use xlink:href="#DejaVuSans-6f" x="439.808594"/>
      <use xlink:href="#DejaVuSans-6c" x="500.990234"/>
      <use xlink:href="#DejaVuSans-74" x="528.773438"/>
      <use xlink:href="#DejaVuSans-61" x="567.982422"/>
      <use xlink:href="#DejaVuSans-67" x="629.261719"/>
      <use xlink:href="#DejaVuSans-65" x="692.738281"/>
     </g>
    </g>
   </g>
   <g id="line2d_13">
    <path d="M 82.77 291.674545 
L 82.799815 291.283292 
L 82.895225 285.047241 
L 83.175489 246.648907 
L 83.807576 166.771105 
L 84.272696 134.346789 
L 84.72589 116.739819 
L 85.179084 106.994188 
L 85.632277 101.620405 
L 86.085471 98.66022 
L 86.544628 97.014384 
L 87.015712 96.098276 
L 87.522573 95.579165 
L 88.130807 95.277741 
L 89.013343 95.108976 
L 90.808229 95.039356 
L 94.046181 95.093806 
L 94.099848 97.11583 
L 94.338371 105.138848 
L 94.469559 105.805156 
L 94.505338 105.76809 
L 94.618636 105.288184 
L 94.99431 102.322191 
L 95.548876 98.742369 
L 96.01996 97.046868 
L 96.491043 96.118308 
L 96.997904 95.58978 
L 97.606138 95.282544 
L 98.482711 95.111099 
L 100.247782 95.039854 
L 102.406416 95.094155 
L 102.466047 97.36726 
L 102.692644 103.307655 
L 102.823832 103.849558 
L 102.85961 103.818633 
L 102.978872 103.394892 
L 103.390324 100.723169 
L 103.927001 97.976168 
L 104.398084 96.629738 
L 104.881094 95.879891 
L 105.411808 95.453898 
L 106.091598 95.204493 
L 107.170916 95.073748 
L 109.94971 95.033194 
L 131.309456 95.093704 
L 131.363123 97.115735 
L 131.613573 106.160152 
L 131.738797 106.781888 
L 131.774576 106.73557 
L 131.893837 106.160021 
L 132.317216 102.493036 
L 132.84793 98.913455 
L 133.319013 97.137903 
L 133.790096 96.16714 
L 134.290995 95.61941 
L 134.887303 95.300019 
L 135.73406 95.119992 
L 137.379869 95.042187 
L 146.557046 95.032121 
L 169.819014 95.093704 
L 170.212577 98.952371 
L 170.319913 98.861279 
L 170.570362 98.214297 
L 171.274005 96.427584 
L 171.774904 95.761486 
L 172.335433 95.381707 
L 173.074855 95.164256 
L 174.34499 95.056944 
L 178.519145 95.032223 
L 187.732101 95.122813 
L 187.964661 95.926689 
L 188.048144 96.199817 
L 188.262815 96.861912 
L 188.340335 97.048722 
L 188.543079 97.583796 
L 188.638488 97.7148 
L 188.829307 98.113332 
L 188.918753 98.087739 
L 188.936642 98.183254 
L 189.103609 98.492836 
L 189.115535 98.488689 
L 189.210944 98.401835 
L 189.240759 98.529392 
L 189.383873 98.759524 
L 189.407726 98.748355 
L 189.503135 98.618405 
L 189.544876 98.767726 
L 189.670101 98.943827 
L 189.705879 98.92281 
L 189.801289 98.772374 
L 189.848993 98.932313 
L 189.962292 99.069562 
L 189.99807 99.046879 
L 190.099443 98.87649 
L 190.15311 99.046768 
L 190.260446 99.153822 
L 190.296224 99.127267 
L 190.397596 98.946844 
L 190.451264 99.112327 
L 190.552637 99.213149 
L 190.594378 99.181574 
L 190.69575 98.994368 
L 190.749418 99.156612 
L 190.85079 99.251903 
L 190.892532 99.218256 
L 190.993904 99.026468 
L 191.047572 99.186524 
L 191.148944 99.278078 
L 191.190686 99.243031 
L 191.292058 99.048148 
L 191.345726 99.206726 
L 191.447098 99.295756 
L 191.48884 99.259764 
L 191.590212 99.062791 
L 191.64388 99.22037 
L 191.745252 99.307695 
L 191.781031 99.278271 
L 191.888366 99.07268 
L 191.947997 99.243481 
L 192.043406 99.315759 
L 192.085148 99.278697 
L 192.18652 99.079359 
L 192.246151 99.249656 
L 192.34156 99.321205 
L 192.383301 99.283852 
L 192.484674 99.083869 
L 192.544305 99.253826 
L 192.639714 99.324883 
L 192.681455 99.287333 
L 192.782828 99.086916 
L 192.842458 99.256643 
L 192.937868 99.327367 
L 192.979609 99.289685 
L 193.080982 99.088973 
L 193.140612 99.258545 
L 193.236022 99.329044 
L 193.277763 99.291273 
L 193.379136 99.090363 
L 193.438766 99.25983 
L 193.534176 99.330177 
L 193.575917 99.292345 
L 193.677289 99.091301 
L 193.73692 99.260697 
L 193.832329 99.330943 
L 193.874071 99.293069 
L 193.975443 99.091935 
L 194.035074 99.261283 
L 194.130483 99.33146 
L 194.172225 99.293559 
L 194.273597 99.092363 
L 194.333228 99.261679 
L 194.428637 99.331809 
L 194.470379 99.293889 
L 194.649271 98.873968 
L 195.466213 96.553987 
L 195.490065 96.637542 
L 195.69281 97.028983 
L 195.853813 96.933946 
L 196.360675 96.19506 
L 196.420305 96.449677 
L 196.62305 96.785152 
L 196.676718 96.867262 
L 196.879462 97.441265 
L 196.986798 97.578661 
L 197.177616 97.992906 
L 197.284952 98.074173 
L 197.457881 98.40034 
L 197.463844 98.398564 
L 197.600995 98.226712 
L 198.066115 97.075054 
L 198.608755 96.073277 
L 198.745906 95.904161 
L 198.769758 96.006802 
L 198.984429 96.54951 
L 199.157358 96.521962 
L 199.419734 96.247854 
L 199.437623 96.369035 
L 199.503217 99.475653 
L 199.9743 132.60485 
L 200.033931 132.255086 
L 200.188971 129.249757 
L 201.184805 106.601692 
L 201.649925 101.359177 
L 202.109082 98.49655 
L 202.329716 97.644873 
L 202.37742 97.769657 
L 202.508608 97.860621 
L 202.53246 97.846314 
L 202.723279 97.556815 
L 202.92006 97.13134 
L 202.967765 97.297833 
L 203.146657 97.519088 
L 203.307661 97.350247 
L 203.516368 96.968988 
L 203.564073 97.147191 
L 203.748928 97.402866 
L 203.826448 97.399793 
L 203.838374 97.470932 
L 204.029193 97.892725 
L 204.142491 97.974261 
L 204.315421 98.309969 
L 204.321384 98.308619 
L 204.422756 98.254354 
L 204.446608 98.371069 
L 204.595685 98.623936 
L 204.619538 98.613903 
L 204.708984 98.501533 
L 204.750725 98.656651 
L 204.881913 98.847641 
L 204.911729 98.831903 
L 205.007138 98.691825 
L 205.048879 98.837133 
L 205.174104 99.002506 
L 205.203919 98.984322 
L 205.305292 98.821637 
L 205.352996 98.97855 
L 205.466295 99.109347 
L 205.502073 99.084823 
L 205.603446 98.909671 
L 205.657113 99.077677 
L 205.764449 99.180647 
L 205.800227 99.152854 
L 205.9016 98.969228 
L 205.955267 99.133183 
L 206.05664 99.231396 
L 206.098381 99.198844 
L 206.199753 99.009479 
L 206.253421 99.170692 
L 206.354793 99.264223 
L 206.396535 99.229916 
L 206.497907 99.036671 
L 206.551575 99.196031 
L 206.652947 99.286397 
L 206.694689 99.250905 
L 206.796061 99.055039 
L 206.849729 99.213146 
L 206.951101 99.301374 
L 206.98688 99.272241 
L 207.094215 99.067444 
L 207.153846 99.238641 
L 207.249255 99.31149 
L 207.290997 99.274656 
L 207.392369 99.075823 
L 207.452 99.246387 
L 207.547409 99.318321 
L 207.589151 99.281123 
L 207.690523 99.081481 
L 207.750154 99.251619 
L 207.845563 99.322935 
L 207.887305 99.28549 
L 207.988677 99.085303 
L 208.048308 99.255152 
L 208.143717 99.326052 
L 208.185458 99.28844 
L 208.286831 99.087884 
L 208.346462 99.257538 
L 208.441871 99.328156 
L 208.483612 99.290432 
L 208.662505 98.871237 
L 209.181292 97.240778 
L 209.246886 97.434628 
L 209.401926 97.560764 
L 209.413853 97.554783 
L 209.598708 97.317126 
L 210.624357 95.728509 
L 211.196813 95.3619 
L 211.960087 95.153002 
L 213.301779 95.05279 
L 218.161688 95.032156 
L 233.767063 95.093704 
L 233.820731 97.115735 
L 234.023476 117.429092 
L 234.22622 124.161408 
L 234.256036 124.223667 
L 234.30374 124.033246 
L 234.440891 122.156842 
L 235.210128 106.926228 
L 235.263796 108.481979 
L 235.40691 122.419389 
L 235.63947 138.705058 
L 235.687175 139.009188 
L 235.740842 138.68308 
L 235.883956 135.630146 
L 237.03483 105.746251 
L 237.493987 100.910867 
L 237.947181 98.272848 
L 238.406338 96.803221 
L 238.877421 95.984771 
L 239.396209 95.513319 
L 240.040222 95.238237 
L 241.018166 95.089003 
L 243.230468 95.035212 
L 261.48345 95.052791 
L 261.519229 95.874106 
L 261.632527 105.466985 
L 261.900866 124.581139 
L 261.978386 125.18224 
L 262.032054 124.966062 
L 262.169204 122.999459 
L 263.36182 102.052278 
L 263.820977 98.882405 
L 264.280134 97.137826 
L 264.745254 96.173882 
L 265.246153 95.622614 
L 265.836497 95.303572 
L 266.677291 95.121858 
L 268.299249 95.042729 
L 277.047084 95.032121 
L 299.933378 95.093704 
L 299.987046 97.115735 
L 300.148049 114.72106 
L 300.36272 127.514399 
L 300.434277 128.047132 
L 300.487944 127.798542 
L 300.631058 125.500985 
L 301.775969 103.133505 
L 302.235126 99.47759 
L 302.694283 97.463635 
L 303.159403 96.350586 
L 303.648376 95.724797 
L 304.208905 95.363294 
L 304.966216 95.154319 
L 306.295982 95.053342 
L 311.048556 95.032162 
L 338.478715 95.093704 
L 338.532382 97.115735 
L 338.908056 114.544089 
L 338.937872 114.571425 
L 338.979613 114.454843 
L 339.110801 113.28541 
L 340.36901 99.265964 
L 340.828167 97.352869 
L 341.293288 96.291223 
L 341.788223 95.688532 
L 342.360679 95.341078 
L 343.147805 95.141734 
L 344.572981 95.04891 
L 350.381019 95.032129 
L 381.275726 95.093704 
L 381.329394 97.115735 
L 381.484434 114.123444 
L 381.746809 136.053944 
L 381.80644 136.550884 
L 381.866071 136.201699 
L 382.015148 133.097057 
L 383.112354 105.741676 
L 383.571511 100.91185 
L 384.024705 98.27388 
L 384.483862 96.803856 
L 384.954945 95.985122 
L 385.473733 95.513498 
L 386.117746 95.238314 
L 387.089727 95.089472 
L 389.290103 95.035287 
L 413.458459 95.032121 
L 413.488274 95.451843 
L 413.583683 102.141644 
L 414.007062 137.486936 
L 414.024951 137.448588 
L 414.102471 136.567575 
L 414.317142 130.788925 
L 415.074453 109.879032 
L 415.539573 103.160219 
L 415.992767 99.518935 
L 416.445961 97.504425 
L 416.911081 96.372546 
L 417.400053 95.736313 
L 417.960583 95.368797 
L 418.71193 95.157328 
L 420.023808 95.054383 
L 424.591525 95.032176 
L 439.511147 95.093704 
L 439.564815 97.115735 
L 439.988193 121.341996 
L 440.041861 121.140306 
L 440.184975 119.304024 
L 441.329886 101.483766 
L 441.789043 98.572306 
L 442.2482 96.968473 
L 442.719283 96.07388 
L 443.226144 95.566686 
L 443.840342 95.270266 
L 444.740766 95.104903 
L 446.60721 95.038357 
L 460.954376 95.032121 
L 471.878735 95.093704 
L 471.932402 97.115735 
L 472.087442 114.123444 
L 472.385596 141.797987 
L 472.433301 142.134255 
L 472.486969 141.793898 
L 472.624119 138.717737 
L 473.816735 105.996322 
L 474.275892 101.045545 
L 474.729086 98.346736 
L 475.188243 96.843551 
L 475.653363 96.014135 
L 475.677215 96.246173 
L 475.760699 100.978681 
L 475.987296 108.78519 
L 476.088668 109.284987 
L 476.136372 109.201413 
L 476.26756 108.353913 
L 477.531733 98.100142 
L 477.996853 96.700635 
L 478.473899 95.923242 
L 478.99865 95.478805 
L 479.660552 95.219008 
L 480.692164 95.080178 
L 483.190694 95.033913 
L 495.134739 95.093704 
L 495.188407 97.115735 
L 495.343447 114.123444 
L 495.641601 141.797987 
L 495.689306 142.134255 
L 495.742973 141.793898 
L 495.880124 138.717737 
L 497.07274 105.996322 
L 497.531897 101.045545 
L 497.985091 98.346736 
L 498.444248 96.843551 
L 498.915331 96.006456 
L 499.428156 95.528151 
L 500.060242 95.247952 
L 501.008371 95.094068 
L 503.089485 95.036122 
L 525.02765 95.032121 
L 547.776793 95.093704 
L 547.83046 97.115735 
L 548.224024 115.540164 
L 548.247876 115.530604 
L 548.271728 115.460819 
L 548.39099 114.452364 
L 548.814368 108.049477 
L 549.345082 101.803591 
L 549.810202 98.734641 
L 550.269359 97.059384 
L 550.740442 96.123086 
L 551.247304 95.591975 
L 551.849575 95.285483 
L 552.720184 95.112654 
L 553.185305 95.13736 
L 553.238972 97.156413 
L 553.519237 108.310042 
L 553.620609 108.758974 
L 553.662351 108.687753 
L 553.787575 107.936176 
L 554.371957 102.136205 
L 554.866893 98.832258 
L 555.332013 97.103988 
L 555.803096 96.148089 
L 556.303994 95.60945 
L 556.900302 95.295465 
L 557.753022 95.117822 
L 559.422684 95.041635 
L 569.088834 95.032121 
L 598.152876 95.093704 
L 598.206544 97.115735 
L 598.617996 117.480838 
L 598.629923 117.467847 
L 598.70148 117.078888 
L 598.898261 114.399433 
L 599.715203 102.564285 
L 600.180323 99.15194 
L 600.63948 97.288056 
L 601.1046 96.255736 
L 601.599536 95.669988 
L 602.177954 95.329997 
L 602.977007 95.136156 
L 604.449887 95.047086 
L 604.801708 95.103121 
L 604.861339 97.255737 
L 605.087936 102.421145 
L 605.219124 102.875837 
L 605.248939 102.852425 
L 605.368201 102.483606 
L 605.767727 100.179215 
L 606.310367 97.68027 
L 606.787413 96.458334 
L 607.276386 95.783041 
L 607.824989 95.397019 
L 608.552485 95.172169 
L 609.774916 95.060134 
L 610.30563 95.107633 
L 610.359297 97.128714 
L 610.514337 114.074934 
L 610.734971 128.398394 
L 610.812491 129.005227 
L 610.860196 128.780742 
L 610.997347 126.59218 
L 612.201888 102.842273 
L 612.661045 99.315214 
L 613.120202 97.374462 
L 613.585322 96.302182 
L 614.074295 95.699361 
L 614.640787 95.348638 
L 615.415987 95.146192 
L 615.576991 95.170255 
L 615.582954 95.214377 
L 615.815514 95.994104 
L 616.012295 96.059471 
L 616.334301 95.849537 
L 617.133354 95.346435 
L 617.932406 95.142844 
L 618.379637 95.155197 
L 618.433305 97.173035 
L 618.612197 115.92973 
L 618.820905 124.999408 
L 618.86861 125.21455 
L 618.922277 124.996169 
L 619.059428 123.024592 
L 620.246081 102.112223 
L 620.705238 98.915538 
L 621.164395 97.155982 
L 621.629515 96.183732 
L 622.130413 95.627709 
L 622.720758 95.305914 
L 623.555589 95.123345 
L 625.159657 95.043162 
L 625.869263 95.098042 
L 625.922931 97.119777 
L 626.340347 119.416161 
L 626.376125 119.324526 
L 626.489423 118.22236 
L 626.87106 111.39182 
L 627.419664 103.411311 
L 627.884784 99.617582 
L 628.343941 97.543352 
L 628.809061 96.394253 
L 629.298033 95.747798 
L 629.8526 95.376995 
L 630.597984 95.161389 
L 631.880046 95.056025 
L 636.185388 95.032204 
L 646.274917 95.093704 
L 646.59096 97.908274 
L 646.716184 97.958556 
L 646.740037 97.939864 
L 646.942781 97.597808 
L 647.819354 95.961712 
L 648.356031 95.494558 
L 649.011969 95.227469 
L 650.01973 95.083971 
L 652.381109 95.034437 
L 664.665049 95.093704 
L 664.718717 97.115735 
L 665.082465 113.548063 
L 665.118243 113.601998 
L 665.165948 113.47454 
L 665.303099 112.270314 
L 666.501677 99.328331 
L 666.75809 98.126522 
L 666.775979 98.297057 
L 666.847536 102.055989 
L 667.086059 112.804747 
L 667.181468 113.391034 
L 667.229173 113.290935 
L 667.360361 112.211569 
L 668.636459 98.931894 
L 669.095616 97.169445 
L 669.560737 96.191665 
L 670.061635 95.631897 
L 670.65198 95.307849 
L 671.486811 95.12399 
L 673.084916 95.043327 
L 679.37 95.032124 
L 679.37 95.032124 
" clip-path="url(#p449a9997da)" style="fill: none; stroke: #ff4500; stroke-width: 1.5; stroke-linecap: square"/>
   </g>
   <g id="patch_3">
    <path d="M 52.94 301.506667 
L 52.94 85.2 
" style="fill: none; stroke: #000000; stroke-width: 0.8; stroke-linejoin: miter; stroke-linecap: square"/>
   </g>
   <g id="patch_4">
    <path d="M 709.2 301.506667 
L 709.2 85.2 
" style="fill: none; stroke: #000000; stroke-width: 0.8; stroke-linejoin: miter; stroke-linecap: square"/>
   </g>
   <g id="patch_5">
    <path d="M 52.94 301.506667 
L 709.2 301.506667 
" style="fill: none; stroke: #000000; stroke-width: 0.8; stroke-linejoin: miter; stroke-linecap: square"/>
   </g>
   <g id="patch_6">
    <path d="M 52.94 85.2 
L 709.2 85.2 
" style="fill: none; stroke: #000000; stroke-width: 0.8; stroke-linejoin: miter; stroke-linecap: square"/>
   </g>
   <g id="text_14">
    <!-- Output Voltage -->
    <g transform="translate(335.814062 79.2) scale(0.12 -0.12)">
     <use xlink:href="#DejaVuSans-4f"/>
     <use xlink:href="#DejaVuSans-75" x="78.710938"/>
     <use xlink:href="#DejaVuSans-74" x="142.089844"/>
     <use xlink:href="#DejaVuSans-70" x="181.298828"/>
     <use xlink:href="#DejaVuSans-75" x="244.775391"/>
     <use xlink:href="#DejaVuSans-74" x="308.154297"/>
     <use xlink:href="#DejaVuSans-20" x="347.363281"/>
     <use xlink:href="#DejaVuSans-56" x="379.150391"/>
     <use xlink:href="#DejaVuSans-6f" x="439.808594"/>
     <use xlink:href="#DejaVuSans-6c" x="500.990234"/>
     <use xlink:href="#DejaVuSans-74" x="528.773438"/>
     <use xlink:href="#DejaVuSans-61" x="567.982422"/>
     <use xlink:href="#DejaVuSans-67" x="629.261719"/>
     <use xlink:href="#DejaVuSans-65" x="692.738281"/>
    </g>
   </g>
  </g>
  <g id="axes_2">
   <g id="patch_7">
    <path d="M 52.94 561.773333 
L 709.2 561.773333 
L 709.2 345.466667 
L 52.94 345.466667 
z
" style="fill: #ffffff"/>
   </g>
   <g id="matplotlib.axis_3">
    <g id="xtick_7">
     <g id="line2d_14">
      <g>
       <use xlink:href="#m19275f6ed7" x="82.77" y="561.773333" style="stroke: #000000; stroke-width: 0.8"/>
      </g>
     </g>
     <g id="text_15">
      <!-- 0.0 -->
      <g transform="translate(74.818438 576.371771) scale(0.1 -0.1)">
       <use xlink:href="#DejaVuSans-30"/>
       <use xlink:href="#DejaVuSans-2e" x="63.623047"/>
       <use xlink:href="#DejaVuSans-30" x="95.410156"/>
      </g>
     </g>
    </g>
    <g id="xtick_8">
     <g id="line2d_15">
      <g>
       <use xlink:href="#m19275f6ed7" x="202.031562" y="561.773333" style="stroke: #000000; stroke-width: 0.8"/>
      </g>
     </g>
     <g id="text_16">
      <!-- 0.2 -->
      <g transform="translate(194.079999 576.371771) scale(0.1 -0.1)">
       <use xlink:href="#DejaVuSans-30"/>
       <use xlink:href="#DejaVuSans-2e" x="63.623047"/>
       <use xlink:href="#DejaVuSans-32" x="95.410156"/>
      </g>
     </g>
    </g>
    <g id="xtick_9">
     <g id="line2d_16">
      <g>
       <use xlink:href="#m19275f6ed7" x="321.293124" y="561.773333" style="stroke: #000000; stroke-width: 0.8"/>
      </g>
     </g>
     <g id="text_17">
      <!-- 0.4 -->
      <g transform="translate(313.341561 576.371771) scale(0.1 -0.1)">
       <use xlink:href="#DejaVuSans-30"/>
       <use xlink:href="#DejaVuSans-2e" x="63.623047"/>
       <use xlink:href="#DejaVuSans-34" x="95.410156"/>
      </g>
     </g>
    </g>
    <g id="xtick_10">
     <g id="line2d_17">
      <g>
       <use xlink:href="#m19275f6ed7" x="440.554686" y="561.773333" style="stroke: #000000; stroke-width: 0.8"/>
      </g>
     </g>
     <g id="text_18">
      <!-- 0.6 -->
      <g transform="translate(432.603123 576.371771) scale(0.1 -0.1)">
       <use xlink:href="#DejaVuSans-30"/>
       <use xlink:href="#DejaVuSans-2e" x="63.623047"/>
       <use xlink:href="#DejaVuSans-36" x="95.410156"/>
      </g>
     </g>
    </g>
    <g id="xtick_11">
     <g id="line2d_18">
      <g>
       <use xlink:href="#m19275f6ed7" x="559.816247" y="561.773333" style="stroke: #000000; stroke-width: 0.8"/>
      </g>
     </g>
     <g id="text_19">
      <!-- 0.8 -->
      <g transform="translate(551.864685 576.371771) scale(0.1 -0.1)">
       <use xlink:href="#DejaVuSans-30"/>
       <use xlink:href="#DejaVuSans-2e" x="63.623047"/>
       <use xlink:href="#DejaVuSans-38" x="95.410156"/>
      </g>
     </g>
    </g>
    <g id="xtick_12">
     <g id="line2d_19">
      <g>
       <use xlink:href="#m19275f6ed7" x="679.077809" y="561.773333" style="stroke: #000000; stroke-width: 0.8"/>
      </g>
     </g>
     <g id="text_20">
      <!-- 1.0 -->
      <g transform="translate(671.126247 576.371771) scale(0.1 -0.1)">
       <use xlink:href="#DejaVuSans-31"/>
       <use xlink:href="#DejaVuSans-2e" x="63.623047"/>
       <use xlink:href="#DejaVuSans-30" x="95.410156"/>
      </g>
     </g>
    </g>
   </g>
   <g id="matplotlib.axis_4">
    <g id="ytick_7">
     <g id="line2d_20">
      <defs>
       <path id="mb3a01eefa9" d="M 0 0 
L -3.5 0 
" style="stroke: #4682b4; stroke-width: 0.8"/>
      </defs>
      <g>
       <use xlink:href="#mb3a01eefa9" x="52.94" y="552.313004" style="fill: #4682b4; stroke: #4682b4; stroke-width: 0.8"/>
      </g>
     </g>
     <g id="text_21">
      <!-- 0.0 -->
      <g style="fill: #4682b4" transform="translate(30.036875 556.112223) scale(0.1 -0.1)">
       <use xlink:href="#DejaVuSans-30"/>
       <use xlink:href="#DejaVuSans-2e" x="63.623047"/>
       <use xlink:href="#DejaVuSans-30" x="95.410156"/>
      </g>
     </g>
    </g>
    <g id="ytick_8">
     <g id="line2d_21">
      <g>
       <use xlink:href="#mb3a01eefa9" x="52.94" y="512.910161" style="fill: #4682b4; stroke: #4682b4; stroke-width: 0.8"/>
      </g>
     </g>
     <g id="text_22">
      <!-- 0.2 -->
      <g style="fill: #4682b4" transform="translate(30.036875 516.70938) scale(0.1 -0.1)">
       <use xlink:href="#DejaVuSans-30"/>
       <use xlink:href="#DejaVuSans-2e" x="63.623047"/>
       <use xlink:href="#DejaVuSans-32" x="95.410156"/>
      </g>
     </g>
    </g>
    <g id="ytick_9">
     <g id="line2d_22">
      <g>
       <use xlink:href="#mb3a01eefa9" x="52.94" y="473.507318" style="fill: #4682b4; stroke: #4682b4; stroke-width: 0.8"/>
      </g>
     </g>
     <g id="text_23">
      <!-- 0.4 -->
      <g style="fill: #4682b4" transform="translate(30.036875 477.306536) scale(0.1 -0.1)">
       <use xlink:href="#DejaVuSans-30"/>
       <use xlink:href="#DejaVuSans-2e" x="63.623047"/>
       <use xlink:href="#DejaVuSans-34" x="95.410156"/>
      </g>
     </g>
    </g>
    <g id="ytick_10">
     <g id="line2d_23">
      <g>
       <use xlink:href="#mb3a01eefa9" x="52.94" y="434.104474" style="fill: #4682b4; stroke: #4682b4; stroke-width: 0.8"/>
      </g>
     </g>
     <g id="text_24">
      <!-- 0.6 -->
      <g style="fill: #4682b4" transform="translate(30.036875 437.903693) scale(0.1 -0.1)">
       <use xlink:href="#DejaVuSans-30"/>
       <use xlink:href="#DejaVuSans-2e" x="63.623047"/>
       <use xlink:href="#DejaVuSans-36" x="95.410156"/>
      </g>
     </g>
    </g>
    <g id="ytick_11">
     <g id="line2d_24">
      <g>
       <use xlink:href="#mb3a01eefa9" x="52.94" y="394.701631" style="fill: #4682b4; stroke: #4682b4; stroke-width: 0.8"/>
      </g>
     </g>
     <g id="text_25">
      <!-- 0.8 -->
      <g style="fill: #4682b4" transform="translate(30.036875 398.50085) scale(0.1 -0.1)">
       <use xlink:href="#DejaVuSans-30"/>
       <use xlink:href="#DejaVuSans-2e" x="63.623047"/>
       <use xlink:href="#DejaVuSans-38" x="95.410156"/>
      </g>
     </g>
    </g>
    <g id="ytick_12">
     <g id="line2d_25">
      <g>
       <use xlink:href="#mb3a01eefa9" x="52.94" y="355.298788" style="fill: #4682b4; stroke: #4682b4; stroke-width: 0.8"/>
      </g>
     </g>
     <g id="text_26">
      <!-- 1.0 -->
      <g style="fill: #4682b4" transform="translate(30.036875 359.098007) scale(0.1 -0.1)">
       <use xlink:href="#DejaVuSans-31"/>
       <use xlink:href="#DejaVuSans-2e" x="63.623047"/>
       <use xlink:href="#DejaVuSans-30" x="95.410156"/>
      </g>
     </g>
    </g>
    <g id="text_27">
     <!-- Duty Cycle -->
     <g style="fill: #4682b4" transform="translate(23.957187 480.812969) rotate(-90) scale(0.1 -0.1)">
      <defs>
       <path id="DejaVuSans-44" d="M 1259 4147 
L 1259 519 
L 2022 519 
Q 2988 519 3436 956 
Q 3884 1394 3884 2338 
Q 3884 3275 3436 3711 
Q 2988 4147 2022 4147 
L 1259 4147 
z
M 628 4666 
L 1925 4666 
Q 3281 4666 3915 4102 
Q 4550 3538 4550 2338 
Q 4550 1131 3912 565 
Q 3275 0 1925 0 
L 628 0 
L 628 4666 
z
" transform="scale(0.015625)"/>
       <path id="DejaVuSans-79" d="M 2059 -325 
Q 1816 -950 1584 -1140 
Q 1353 -1331 966 -1331 
L 506 -1331 
L 506 -850 
L 844 -850 
Q 1081 -850 1212 -737 
Q 1344 -625 1503 -206 
L 1606 56 
L 191 3500 
L 800 3500 
L 1894 763 
L 2988 3500 
L 3597 3500 
L 2059 -325 
z
" transform="scale(0.015625)"/>
       <path id="DejaVuSans-43" d="M 4122 4306 
L 4122 3641 
Q 3803 3938 3442 4084 
Q 3081 4231 2675 4231 
Q 1875 4231 1450 3742 
Q 1025 3253 1025 2328 
Q 1025 1406 1450 917 
Q 1875 428 2675 428 
Q 3081 428 3442 575 
Q 3803 722 4122 1019 
L 4122 359 
Q 3791 134 3420 21 
Q 3050 -91 2638 -91 
Q 1578 -91 968 557 
Q 359 1206 359 2328 
Q 359 3453 968 4101 
Q 1578 4750 2638 4750 
Q 3056 4750 3426 4639 
Q 3797 4528 4122 4306 
z
" transform="scale(0.015625)"/>
       <path id="DejaVuSans-63" d="M 3122 3366 
L 3122 2828 
Q 2878 2963 2633 3030 
Q 2388 3097 2138 3097 
Q 1578 3097 1268 2742 
Q 959 2388 959 1747 
Q 959 1106 1268 751 
Q 1578 397 2138 397 
Q 2388 397 2633 464 
Q 2878 531 3122 666 
L 3122 134 
Q 2881 22 2623 -34 
Q 2366 -91 2075 -91 
Q 1284 -91 818 406 
Q 353 903 353 1747 
Q 353 2603 823 3093 
Q 1294 3584 2113 3584 
Q 2378 3584 2631 3529 
Q 2884 3475 3122 3366 
z
" transform="scale(0.015625)"/>
      </defs>
      <use xlink:href="#DejaVuSans-44"/>
      <use xlink:href="#DejaVuSans-75" x="77.001953"/>
      <use xlink:href="#DejaVuSans-74" x="140.380859"/>
      <use xlink:href="#DejaVuSans-79" x="179.589844"/>
      <use xlink:href="#DejaVuSans-20" x="238.769531"/>
      <use xlink:href="#DejaVuSans-43" x="270.556641"/>
      <use xlink:href="#DejaVuSans-79" x="340.380859"/>
      <use xlink:href="#DejaVuSans-63" x="399.560547"/>
      <use xlink:href="#DejaVuSans-6c" x="454.541016"/>
      <use xlink:href="#DejaVuSans-65" x="482.324219"/>
     </g>
    </g>
   </g>
   <g id="line2d_26">
    <path d="M 82.77 355.298788 
L 93.795731 355.298788 
L 93.90903 401.766536 
L 94.093885 401.766536 
L 94.207184 355.298788 
L 102.144041 355.298788 
L 102.257339 392.270837 
L 102.442195 392.270837 
L 102.555493 355.298788 
L 122.418506 355.298788 
L 122.531805 355.515346 
L 122.71666 355.515346 
L 122.829959 355.298788 
L 131.064969 355.298788 
L 131.178268 403.667101 
L 131.363123 403.667101 
L 131.476422 355.298788 
L 169.526823 355.298788 
L 169.640122 371.330485 
L 169.824977 371.330485 
L 169.938276 355.298788 
L 175.788055 355.303256 
L 175.901354 355.630313 
L 176.086209 355.630313 
L 176.199508 355.298788 
L 177.278825 355.298788 
L 177.392123 355.533193 
L 177.576979 355.533193 
L 177.690277 355.298788 
L 182.347441 355.298788 
L 182.46074 355.427668 
L 182.645595 355.427668 
L 182.758893 355.298788 
L 182.943749 355.298788 
L 183.057047 355.443174 
L 183.241903 355.443174 
L 183.355201 356.733454 
L 183.540057 356.733454 
L 183.653355 356.890686 
L 183.838211 356.890686 
L 183.951509 357.544099 
L 184.136364 357.544099 
L 184.249663 357.189825 
L 184.434518 357.189825 
L 184.547817 357.397933 
L 185.030826 357.313143 
L 185.144125 356.865116 
L 185.32898 356.865116 
L 185.442279 357.571559 
L 185.627134 357.571559 
L 185.740432 358.184782 
L 185.925288 358.184782 
L 186.038586 357.927295 
L 186.223442 357.927295 
L 186.33674 358.070559 
L 186.521596 358.070559 
L 186.634894 358.345314 
L 186.81975 358.345314 
L 186.933048 358.49419 
L 187.117904 358.49419 
L 187.231202 358.893803 
L 187.416057 358.893803 
L 187.529356 359.481186 
L 188.012365 359.42155 
L 188.125664 360.047437 
L 188.310519 360.047437 
L 188.423818 359.707449 
L 188.608673 359.707449 
L 188.721972 359.995016 
L 188.906827 359.995016 
L 189.020125 359.858204 
L 189.204981 359.858204 
L 189.318279 360.079674 
L 189.503135 360.079674 
L 189.616433 360.279438 
L 189.801289 360.279438 
L 189.914587 359.888585 
L 190.099443 359.888585 
L 190.212741 359.566814 
L 190.397596 359.566814 
L 190.510895 359.754533 
L 190.69575 359.754533 
L 190.809049 359.955734 
L 190.993904 359.955734 
L 191.107203 360.94777 
L 191.292058 360.94777 
L 191.405357 361.100667 
L 191.590212 361.100667 
L 191.703511 361.27465 
L 191.888366 361.27465 
L 192.001664 361.004458 
L 192.18652 361.004458 
L 192.299818 360.392154 
L 192.484674 360.392154 
L 192.597972 360.610438 
L 192.782828 360.610438 
L 192.896126 360.868466 
L 193.677289 360.902061 
L 193.790588 360.356462 
L 194.273597 360.251709 
L 194.386896 359.000237 
L 194.571751 359.000237 
L 194.68505 358.234909 
L 194.869905 358.234909 
L 194.983204 359.09448 
L 195.168059 359.09448 
L 195.281357 359.28419 
L 195.466213 359.28419 
L 195.579511 359.090807 
L 195.764367 359.090807 
L 195.877665 358.724262 
L 196.062521 358.724262 
L 196.175819 359.57899 
L 196.360675 359.57899 
L 196.473973 359.85848 
L 196.658828 359.85848 
L 196.772127 360.189645 
L 196.956982 360.189645 
L 197.070281 359.618504 
L 197.255136 359.618504 
L 197.368435 358.955405 
L 197.851444 358.921835 
L 197.964743 359.157403 
L 198.447752 359.200113 
L 198.56105 359.821396 
L 198.745906 359.821396 
L 198.859204 358.51425 
L 199.04406 358.51425 
L 199.157358 359.106682 
L 199.342214 359.106682 
L 199.455512 506.521022 
L 199.640368 506.521022 
L 199.753666 359.445216 
L 199.938521 359.445216 
L 200.05182 359.241608 
L 200.236675 359.241608 
L 200.349974 358.864333 
L 200.534829 358.864333 
L 200.648128 359.155976 
L 200.832983 359.155976 
L 200.946282 358.731838 
L 201.131137 358.731838 
L 201.244436 358.461046 
L 201.727445 358.417147 
L 201.840743 358.751451 
L 202.025599 358.751451 
L 202.138897 359.406474 
L 202.323753 359.406474 
L 202.437051 358.876896 
L 202.621907 358.876896 
L 202.735205 359.588267 
L 202.92006 359.588267 
L 203.033359 358.882522 
L 203.218214 358.882522 
L 203.331513 359.936665 
L 203.516368 359.936665 
L 203.629667 359.79514 
L 203.814522 359.79514 
L 203.927821 359.582898 
L 204.112676 359.582898 
L 204.225975 360.081333 
L 204.41083 360.081333 
L 204.524128 360.884707 
L 204.708984 360.884707 
L 204.822282 360.479276 
L 205.603446 360.514695 
L 205.716744 361.651811 
L 205.9016 361.651811 
L 206.014898 361.836622 
L 206.199753 361.836622 
L 206.313052 360.727686 
L 206.497907 360.727686 
L 206.611206 361.245875 
L 206.796061 361.245875 
L 206.90936 361.110612 
L 207.392369 361.15523 
L 207.505668 359.673972 
L 207.690523 359.673972 
L 207.803821 360.12243 
L 208.286831 360.120482 
L 208.400129 358.911794 
L 208.584985 358.911794 
L 208.698283 359.09108 
L 208.883139 359.09108 
L 208.996437 359.462423 
L 209.181292 359.462423 
L 209.294591 357.777918 
L 209.479446 357.777918 
L 209.592745 357.915749 
L 209.7776 357.915749 
L 209.890899 357.759194 
L 210.075754 357.759194 
L 210.189053 358.065038 
L 210.373908 358.065038 
L 210.487207 356.348537 
L 210.672062 356.348537 
L 210.78536 355.831005 
L 211.26837 355.810247 
L 211.381668 356.210716 
L 211.566524 356.210716 
L 211.679822 356.850146 
L 211.864678 356.850146 
L 211.977976 357.120542 
L 212.162832 357.120542 
L 212.27613 356.836957 
L 212.460985 356.836957 
L 212.574284 356.582554 
L 212.759139 356.582554 
L 212.872438 355.651416 
L 213.057293 355.651416 
L 213.170592 356.572903 
L 213.653601 356.617693 
L 213.7669 355.298788 
L 214.249909 355.298788 
L 214.363207 355.531255 
L 214.846217 355.553118 
L 214.959515 355.298788 
L 221.405603 355.298788 
L 221.518901 355.785696 
L 222.00191 355.720703 
L 222.115209 355.298788 
L 222.598218 355.298788 
L 222.711517 355.473293 
L 222.896372 355.473293 
L 223.009671 355.298788 
L 224.088988 355.298788 
L 224.202286 355.41604 
L 224.387142 355.41604 
L 224.50044 355.298788 
L 224.685296 355.298788 
L 224.798594 355.951155 
L 224.983449 355.951155 
L 225.096748 355.584784 
L 225.281603 355.584784 
L 225.394902 355.917301 
L 225.579757 355.917301 
L 225.693056 356.697984 
L 225.877911 356.697984 
L 225.99121 356.578312 
L 226.176065 356.578312 
L 226.289364 356.822996 
L 227.070527 356.752628 
L 227.183825 356.079312 
L 227.368681 356.079312 
L 227.481979 356.558485 
L 227.666835 356.558485 
L 227.780133 355.569114 
L 227.964988 355.569114 
L 228.078287 356.021843 
L 228.263142 356.021843 
L 228.376441 355.902914 
L 228.561296 355.902914 
L 228.674595 355.298788 
L 233.629913 355.298788 
L 233.743211 477.287721 
L 233.928067 477.287721 
L 234.041365 355.298788 
L 235.120682 355.298788 
L 235.233981 511.896748 
L 235.418836 511.896748 
L 235.532135 355.298788 
L 261.358226 355.298788 
L 261.471524 478.517582 
L 261.65638 478.517582 
L 261.769678 355.298788 
L 275.967767 355.298788 
L 276.081066 355.681446 
L 276.265921 355.681446 
L 276.379219 355.494335 
L 276.564075 355.494335 
L 276.677373 355.742372 
L 276.862229 355.742372 
L 276.975527 355.298788 
L 277.458537 355.298788 
L 277.571835 355.482274 
L 277.756691 355.482274 
L 277.869989 356.103879 
L 278.054844 356.103879 
L 278.168143 357.164313 
L 278.352998 357.164313 
L 278.466297 357.010357 
L 278.651152 357.010357 
L 278.764451 357.148472 
L 278.949306 357.148472 
L 279.062605 356.662755 
L 279.24746 356.662755 
L 279.360759 355.570337 
L 279.545614 355.570337 
L 279.658912 355.298788 
L 283.123461 355.298788 
L 283.236759 355.599684 
L 283.421615 355.599684 
L 283.534913 355.366672 
L 284.017923 355.298788 
L 284.131221 355.551272 
L 284.316076 355.551272 
L 284.429375 355.974476 
L 284.61423 355.974476 
L 284.727529 356.137835 
L 284.912384 356.137835 
L 285.025683 355.505317 
L 285.210538 355.505317 
L 285.323837 356.059173 
L 285.508692 356.059173 
L 285.621991 355.46678 
L 285.806846 355.46678 
L 285.920144 355.946542 
L 286.105 355.946542 
L 286.218298 356.148345 
L 286.403154 356.148345 
L 286.516452 355.655859 
L 286.701308 355.655859 
L 286.814606 355.298788 
L 299.820079 355.298788 
L 299.933378 490.071459 
L 300.118233 490.071459 
L 300.231532 355.298788 
L 317.709314 355.298788 
L 317.822612 355.626234 
L 318.305622 355.636664 
L 318.41892 355.298788 
L 322.181622 355.298788 
L 322.294921 356.128236 
L 322.77793 356.093708 
L 322.891229 355.466234 
L 323.374238 355.477852 
L 323.487536 355.298788 
L 329.63547 355.298788 
L 329.748768 356.001131 
L 329.933624 356.001131 
L 330.046922 355.416938 
L 330.231778 355.416938 
L 330.345076 355.995924 
L 330.529932 355.995924 
L 330.64323 356.26086 
L 330.828086 356.26086 
L 330.941384 356.502913 
L 331.126239 356.502913 
L 331.239538 356.875283 
L 331.424393 356.875283 
L 331.537692 356.568898 
L 332.020701 356.640568 
L 332.134 357.106442 
L 332.318855 357.106442 
L 332.432154 356.900119 
L 332.915163 356.960561 
L 333.028461 357.547337 
L 333.213317 357.547337 
L 333.326615 357.941381 
L 333.809625 357.940809 
L 333.922923 358.531749 
L 334.107778 358.531749 
L 334.221077 359.193018 
L 334.405932 359.193018 
L 334.519231 358.297921 
L 334.704086 358.297921 
L 334.817385 358.541906 
L 335.00224 358.541906 
L 335.115539 358.414228 
L 335.598548 358.507543 
L 335.711846 358.55256 
L 336.194856 358.579972 
L 336.308154 358.105883 
L 336.49301 358.105883 
L 336.606308 358.680323 
L 336.791164 358.680323 
L 336.904462 358.851541 
L 337.089318 358.851541 
L 337.202616 356.591537 
L 337.387471 356.591537 
L 337.50077 355.995 
L 337.685625 355.995 
L 337.798924 355.379572 
L 338.281933 355.298788 
L 338.395232 434.50839 
L 338.580087 434.50839 
L 338.693386 355.387448 
L 338.878241 355.387448 
L 338.991539 356.150346 
L 339.176395 356.150346 
L 339.289693 355.580035 
L 339.772703 355.590916 
L 339.886001 355.298788 
L 366.3084 355.298788 
L 366.421699 355.67179 
L 366.606554 355.67179 
L 366.719853 355.298788 
L 367.501016 355.298788 
L 367.614314 355.953386 
L 367.79917 355.953386 
L 367.912468 356.266227 
L 368.097324 356.266227 
L 368.210622 355.298788 
L 381.216095 355.298788 
L 381.329394 526.819144 
L 381.514249 526.819144 
L 381.627548 355.298788 
L 413.416717 355.298788 
L 413.530016 532.103138 
L 413.714871 532.103138 
L 413.828169 355.298788 
L 439.356107 355.298788 
L 439.469405 464.327836 
L 439.654261 464.327836 
L 439.767559 355.298788 
L 445.617339 355.298788 
L 445.730637 355.412637 
L 445.915493 355.412637 
L 446.028791 355.298788 
L 471.854882 355.298788 
L 471.968181 551.941212 
L 472.153036 551.941212 
L 472.266335 355.298788 
L 475.432729 355.298788 
L 475.546028 410.979464 
L 475.730883 410.979464 
L 475.844182 355.298788 
L 495.110887 355.298788 
L 495.224185 550.484938 
L 495.409041 550.484938 
L 495.522339 355.298788 
L 496.601656 355.298788 
L 496.714955 356.198635 
L 496.89981 356.198635 
L 497.013109 355.79377 
L 497.197964 355.79377 
L 497.311263 356.299405 
L 497.496118 356.299405 
L 497.609417 355.657897 
L 497.794272 355.657897 
L 497.907571 355.298788 
L 498.688734 355.298788 
L 498.802032 355.614866 
L 498.986888 355.614866 
L 499.100186 356.221268 
L 499.285042 356.221268 
L 499.39834 355.955112 
L 499.583196 355.955112 
L 499.696494 356.379896 
L 499.881349 356.379896 
L 499.994648 355.963127 
L 500.179503 355.963127 
L 500.292802 355.474444 
L 500.775811 355.39211 
L 500.88911 356.137417 
L 501.073965 356.137417 
L 501.187264 355.754647 
L 501.372119 355.754647 
L 501.485417 355.875106 
L 501.670273 355.875106 
L 501.783571 355.298788 
L 503.161042 355.298788 
L 503.274341 355.540237 
L 503.459196 355.540237 
L 503.572495 356.054812 
L 504.055504 356.150508 
L 504.168803 356.410015 
L 504.353658 356.410015 
L 504.466956 355.306716 
L 504.651812 355.306716 
L 504.76511 356.302413 
L 504.949966 356.302413 
L 505.063264 356.680953 
L 505.24812 356.680953 
L 505.361418 356.343635 
L 505.546274 356.343635 
L 505.659572 355.973464 
L 505.844428 355.973464 
L 505.957726 356.960144 
L 506.142581 356.960144 
L 506.25588 356.615429 
L 506.440735 356.615429 
L 506.554034 357.023421 
L 506.738889 357.023421 
L 506.852188 356.607705 
L 507.037043 356.607705 
L 507.150342 357.767329 
L 507.335197 357.767329 
L 507.448496 357.596347 
L 507.633351 357.596347 
L 507.746649 358.257364 
L 507.931505 358.257364 
L 508.044803 358.905374 
L 508.229659 358.905374 
L 508.342957 358.57007 
L 508.527813 358.57007 
L 508.641111 357.275398 
L 508.825967 357.275398 
L 508.939265 356.290066 
L 509.12412 356.290066 
L 509.237419 356.452972 
L 509.422274 356.452972 
L 509.535573 356.776907 
L 509.720428 356.776907 
L 509.833727 356.088974 
L 510.61489 356.122062 
L 510.728188 356.716827 
L 510.913044 356.716827 
L 511.026342 356.48372 
L 511.211198 356.48372 
L 511.324496 356.904742 
L 511.509352 356.904742 
L 511.62265 355.684328 
L 511.807506 355.684328 
L 511.920804 355.444873 
L 512.10566 355.444873 
L 512.218958 355.298788 
L 518.068738 355.298788 
L 518.182036 356.152034 
L 518.366892 356.152034 
L 518.48019 355.733345 
L 518.665045 355.733345 
L 518.778344 355.298788 
L 518.963199 355.298788 
L 519.076498 355.633738 
L 519.261353 355.633738 
L 519.374652 356.09662 
L 519.559507 356.09662 
L 519.672806 355.681905 
L 520.155815 355.787064 
L 520.269113 355.940013 
L 520.453969 355.940013 
L 520.567267 356.602927 
L 521.050277 356.61203 
L 521.163575 356.796259 
L 521.646584 356.797252 
L 521.759883 357.173957 
L 521.944738 357.173957 
L 522.058037 356.171394 
L 522.242892 356.171394 
L 522.356191 355.553375 
L 522.541046 355.553375 
L 522.654345 355.861366 
L 523.137354 355.775589 
L 523.250652 355.298788 
L 528.504124 355.298788 
L 528.617423 355.863984 
L 528.802278 355.863984 
L 528.915577 355.481426 
L 529.398586 355.387834 
L 529.511884 355.298788 
L 530.293048 355.298788 
L 530.406346 355.543315 
L 530.591202 355.543315 
L 530.7045 355.298788 
L 531.187509 355.298788 
L 531.300808 356.439116 
L 531.783817 356.532094 
L 531.897116 356.097113 
L 532.081971 356.097113 
L 532.19527 355.936496 
L 532.380125 355.936496 
L 532.493424 355.472787 
L 532.678279 355.472787 
L 532.791577 356.073446 
L 533.274587 356.141179 
L 533.387885 355.298788 
L 534.169048 355.298788 
L 534.282347 355.426829 
L 534.467202 355.426829 
L 534.580501 355.298788 
L 538.343203 355.298788 
L 538.456502 356.241183 
L 538.641357 356.241183 
L 538.754656 356.713563 
L 538.939511 356.713563 
L 539.052809 356.045937 
L 539.237665 356.045937 
L 539.350963 355.746485 
L 539.535819 355.746485 
L 539.649117 355.608148 
L 539.833973 355.608148 
L 539.947271 355.298788 
L 547.585974 355.298788 
L 547.699273 440.30494 
L 547.884128 440.30494 
L 547.997427 355.298788 
L 552.952744 355.298788 
L 553.066043 414.053097 
L 553.250898 414.053097 
L 553.364197 355.298788 
L 565.773362 355.298788 
L 565.886661 355.470655 
L 566.071516 355.470655 
L 566.184815 355.298788 
L 566.667824 355.334479 
L 566.781123 355.529965 
L 566.965978 355.529965 
L 567.079276 356.377918 
L 567.562286 356.437266 
L 567.675584 355.298788 
L 570.245671 355.298788 
L 570.358969 355.558353 
L 570.841979 355.622293 
L 570.955277 355.298788 
L 597.973984 355.298788 
L 598.087283 448.768866 
L 598.272138 448.768866 
L 598.385436 355.298788 
L 604.53337 355.298788 
L 604.646668 390.642223 
L 604.831524 390.642223 
L 604.944822 355.298788 
L 610.198294 355.298788 
L 610.311593 496.92226 
L 610.496448 496.92226 
L 610.609747 355.298788 
L 615.266911 355.298788 
L 615.380209 359.47093 
L 615.565064 359.47093 
L 615.678363 355.298788 
L 618.24845 355.298788 
L 618.361748 479.787325 
L 618.546603 479.787325 
L 618.659902 355.298788 
L 625.702297 355.298788 
L 625.815596 455.443766 
L 626.000451 455.443766 
L 626.11375 355.298788 
L 645.976763 355.298788 
L 646.090061 370.647661 
L 646.274917 370.647661 
L 646.388215 355.298788 
L 656.710303 355.332463 
L 656.823602 356.327411 
L 657.008457 356.327411 
L 657.121756 356.614349 
L 657.306611 356.614349 
L 657.41991 356.39426 
L 657.902919 356.372842 
L 658.016217 355.445809 
L 658.201073 355.445809 
L 658.314371 355.938226 
L 658.499227 355.938226 
L 658.612525 356.619343 
L 658.797381 356.619343 
L 658.910679 355.991945 
L 659.095534 355.991945 
L 659.208833 355.72773 
L 659.691842 355.793167 
L 659.805141 355.298788 
L 661.77892 355.298788 
L 661.892218 355.439471 
L 662.077074 355.439471 
L 662.190372 355.862238 
L 662.375227 355.862238 
L 662.488526 355.298788 
L 663.865997 355.298788 
L 663.979295 356.732553 
L 664.462305 356.842349 
L 664.575603 431.185783 
L 664.760459 431.185783 
L 664.873757 356.269343 
L 665.058613 356.269343 
L 665.171911 355.298788 
L 666.549382 355.298788 
L 666.662681 422.646458 
L 666.847536 422.646458 
L 666.960834 355.298788 
L 679.37 355.298788 
L 679.37 355.298788 
" clip-path="url(#p4d50dca98c)" style="fill: none; stroke: #4682b4; stroke-width: 1.5; stroke-linecap: square"/>
   </g>
   <g id="patch_8">
    <path d="M 52.94 561.773333 
L 52.94 345.466667 
" style="fill: none; stroke: #000000; stroke-width: 0.8; stroke-linejoin: miter; stroke-linecap: square"/>
   </g>
   <g id="patch_9">
    <path d="M 709.2 561.773333 
L 709.2 345.466667 
" style="fill: none; stroke: #000000; stroke-width: 0.8; stroke-linejoin: miter; stroke-linecap: square"/>
   </g>
   <g id="patch_10">
    <path d="M 52.94 561.773333 
L 709.2 561.773333 
" style="fill: none; stroke: #000000; stroke-width: 0.8; stroke-linejoin: miter; stroke-linecap: square"/>
   </g>
   <g id="patch_11">
    <path d="M 52.94 345.466667 
L 709.2 345.466667 
" style="fill: none; stroke: #000000; stroke-width: 0.8; stroke-linejoin: miter; stroke-linecap: square"/>
   </g>
   <g id="text_28">
    <!-- Duty Cycle -->
    <g transform="translate(348.438437 339.466667) scale(0.12 -0.12)">
     <use xlink:href="#DejaVuSans-44"/>
     <use xlink:href="#DejaVuSans-75" x="77.001953"/>
     <use xlink:href="#DejaVuSans-74" x="140.380859"/>
     <use xlink:href="#DejaVuSans-79" x="179.589844"/>
     <use xlink:href="#DejaVuSans-20" x="238.769531"/>
     <use xlink:href="#DejaVuSans-43" x="270.556641"/>
     <use xlink:href="#DejaVuSans-79" x="340.380859"/>
     <use xlink:href="#DejaVuSans-63" x="399.560547"/>
     <use xlink:href="#DejaVuSans-6c" x="454.541016"/>
     <use xlink:href="#DejaVuSans-65" x="482.324219"/>
    </g>
   </g>
  </g>
  <g id="axes_3">
   <g id="patch_12">
    <path d="M 52.94 822.04 
L 709.2 822.04 
L 709.2 605.733333 
L 52.94 605.733333 
z
" style="fill: #ffffff"/>
   </g>
   <g id="matplotlib.axis_5">
    <g id="xtick_13">
     <g id="line2d_27">
      <g>
       <use xlink:href="#m19275f6ed7" x="82.77" y="822.04" style="stroke: #000000; stroke-width: 0.8"/>
      </g>
     </g>
     <g id="text_29">
      <!-- 0.0 -->
      <g transform="translate(74.818438 836.638437) scale(0.1 -0.1)">
       <use xlink:href="#DejaVuSans-30"/>
       <use xlink:href="#DejaVuSans-2e" x="63.623047"/>
       <use xlink:href="#DejaVuSans-30" x="95.410156"/>
      </g>
     </g>
    </g>
    <g id="xtick_14">
     <g id="line2d_28">
      <g>
       <use xlink:href="#m19275f6ed7" x="202.031562" y="822.04" style="stroke: #000000; stroke-width: 0.8"/>
      </g>
     </g>
     <g id="text_30">
      <!-- 0.2 -->
      <g transform="translate(194.079999 836.638437) scale(0.1 -0.1)">
       <use xlink:href="#DejaVuSans-30"/>
       <use xlink:href="#DejaVuSans-2e" x="63.623047"/>
       <use xlink:href="#DejaVuSans-32" x="95.410156"/>
      </g>
     </g>
    </g>
    <g id="xtick_15">
     <g id="line2d_29">
      <g>
       <use xlink:href="#m19275f6ed7" x="321.293124" y="822.04" style="stroke: #000000; stroke-width: 0.8"/>
      </g>
     </g>
     <g id="text_31">
      <!-- 0.4 -->
      <g transform="translate(313.341561 836.638437) scale(0.1 -0.1)">
       <use xlink:href="#DejaVuSans-30"/>
       <use xlink:href="#DejaVuSans-2e" x="63.623047"/>
       <use xlink:href="#DejaVuSans-34" x="95.410156"/>
      </g>
     </g>
    </g>
    <g id="xtick_16">
     <g id="line2d_30">
      <g>
       <use xlink:href="#m19275f6ed7" x="440.554686" y="822.04" style="stroke: #000000; stroke-width: 0.8"/>
      </g>
     </g>
     <g id="text_32">
      <!-- 0.6 -->
      <g transform="translate(432.603123 836.638437) scale(0.1 -0.1)">
       <use xlink:href="#DejaVuSans-30"/>
       <use xlink:href="#DejaVuSans-2e" x="63.623047"/>
       <use xlink:href="#DejaVuSans-36" x="95.410156"/>
      </g>
     </g>
    </g>
    <g id="xtick_17">
     <g id="line2d_31">
      <g>
       <use xlink:href="#m19275f6ed7" x="559.816247" y="822.04" style="stroke: #000000; stroke-width: 0.8"/>
      </g>
     </g>
     <g id="text_33">
      <!-- 0.8 -->
      <g transform="translate(551.864685 836.638437) scale(0.1 -0.1)">
       <use xlink:href="#DejaVuSans-30"/>
       <use xlink:href="#DejaVuSans-2e" x="63.623047"/>
       <use xlink:href="#DejaVuSans-38" x="95.410156"/>
      </g>
     </g>
    </g>
    <g id="xtick_18">
     <g id="line2d_32">
      <g>
       <use xlink:href="#m19275f6ed7" x="679.077809" y="822.04" style="stroke: #000000; stroke-width: 0.8"/>
      </g>
     </g>
     <g id="text_34">
      <!-- 1.0 -->
      <g transform="translate(671.126247 836.638437) scale(0.1 -0.1)">
       <use xlink:href="#DejaVuSans-31"/>
       <use xlink:href="#DejaVuSans-2e" x="63.623047"/>
       <use xlink:href="#DejaVuSans-30" x="95.410156"/>
      </g>
     </g>
    </g>
    <g id="text_35">
     <!-- Time (s) -->
     <g transform="translate(360.741094 850.316562) scale(0.1 -0.1)">
      <defs>
       <path id="DejaVuSans-54" d="M -19 4666 
L 3928 4666 
L 3928 4134 
L 2272 4134 
L 2272 0 
L 1638 0 
L 1638 4134 
L -19 4134 
L -19 4666 
z
" transform="scale(0.015625)"/>
       <path id="DejaVuSans-69" d="M 603 3500 
L 1178 3500 
L 1178 0 
L 603 0 
L 603 3500 
z
M 603 4863 
L 1178 4863 
L 1178 4134 
L 603 4134 
L 603 4863 
z
" transform="scale(0.015625)"/>
       <path id="DejaVuSans-6d" d="M 3328 2828 
Q 3544 3216 3844 3400 
Q 4144 3584 4550 3584 
Q 5097 3584 5394 3201 
Q 5691 2819 5691 2113 
L 5691 0 
L 5113 0 
L 5113 2094 
Q 5113 2597 4934 2840 
Q 4756 3084 4391 3084 
Q 3944 3084 3684 2787 
Q 3425 2491 3425 1978 
L 3425 0 
L 2847 0 
L 2847 2094 
Q 2847 2600 2669 2842 
Q 2491 3084 2119 3084 
Q 1678 3084 1418 2786 
Q 1159 2488 1159 1978 
L 1159 0 
L 581 0 
L 581 3500 
L 1159 3500 
L 1159 2956 
Q 1356 3278 1631 3431 
Q 1906 3584 2284 3584 
Q 2666 3584 2933 3390 
Q 3200 3197 3328 2828 
z
" transform="scale(0.015625)"/>
       <path id="DejaVuSans-28" d="M 1984 4856 
Q 1566 4138 1362 3434 
Q 1159 2731 1159 2009 
Q 1159 1288 1364 580 
Q 1569 -128 1984 -844 
L 1484 -844 
Q 1016 -109 783 600 
Q 550 1309 550 2009 
Q 550 2706 781 3412 
Q 1013 4119 1484 4856 
L 1984 4856 
z
" transform="scale(0.015625)"/>
       <path id="DejaVuSans-73" d="M 2834 3397 
L 2834 2853 
Q 2591 2978 2328 3040 
Q 2066 3103 1784 3103 
Q 1356 3103 1142 2972 
Q 928 2841 928 2578 
Q 928 2378 1081 2264 
Q 1234 2150 1697 2047 
L 1894 2003 
Q 2506 1872 2764 1633 
Q 3022 1394 3022 966 
Q 3022 478 2636 193 
Q 2250 -91 1575 -91 
Q 1294 -91 989 -36 
Q 684 19 347 128 
L 347 722 
Q 666 556 975 473 
Q 1284 391 1588 391 
Q 1994 391 2212 530 
Q 2431 669 2431 922 
Q 2431 1156 2273 1281 
Q 2116 1406 1581 1522 
L 1381 1569 
Q 847 1681 609 1914 
Q 372 2147 372 2553 
Q 372 3047 722 3315 
Q 1072 3584 1716 3584 
Q 2034 3584 2315 3537 
Q 2597 3491 2834 3397 
z
" transform="scale(0.015625)"/>
       <path id="DejaVuSans-29" d="M 513 4856 
L 1013 4856 
Q 1481 4119 1714 3412 
Q 1947 2706 1947 2009 
Q 1947 1309 1714 600 
Q 1481 -109 1013 -844 
L 513 -844 
Q 928 -128 1133 580 
Q 1338 1288 1338 2009 
Q 1338 2731 1133 3434 
Q 928 4138 513 4856 
z
" transform="scale(0.015625)"/>
      </defs>
      <use xlink:href="#DejaVuSans-54"/>
      <use xlink:href="#DejaVuSans-69" x="57.958984"/>
      <use xlink:href="#DejaVuSans-6d" x="85.742188"/>
      <use xlink:href="#DejaVuSans-65" x="183.154297"/>
      <use xlink:href="#DejaVuSans-20" x="244.677734"/>
      <use xlink:href="#DejaVuSans-28" x="276.464844"/>
      <use xlink:href="#DejaVuSans-73" x="315.478516"/>
      <use xlink:href="#DejaVuSans-29" x="367.578125"/>
     </g>
    </g>
   </g>
   <g id="matplotlib.axis_6">
    <g id="ytick_13">
     <g id="line2d_33">
      <defs>
       <path id="m088b73a9b7" d="M 0 0 
L -3.5 0 
" style="stroke: #008000; stroke-width: 0.8"/>
      </defs>
      <g>
       <use xlink:href="#m088b73a9b7" x="52.94" y="812.222887" style="fill: #008000; stroke: #008000; stroke-width: 0.8"/>
      </g>
     </g>
     <g id="text_36">
      <!-- 60 -->
      <g style="fill: #008000" transform="translate(24.835313 816.022105) scale(0.1 -0.1)">
       <defs>
        <path id="DejaVuSans-2212" d="M 678 2272 
L 4684 2272 
L 4684 1741 
L 678 1741 
L 678 2272 
z
" transform="scale(0.015625)"/>
       </defs>
       <use xlink:href="#DejaVuSans-2212"/>
       <use xlink:href="#DejaVuSans-36" x="83.789062"/>
       <use xlink:href="#DejaVuSans-30" x="147.412109"/>
      </g>
     </g>
    </g>
    <g id="ytick_14">
     <g id="line2d_34">
      <g>
       <use xlink:href="#m088b73a9b7" x="52.94" y="779.452427" style="fill: #008000; stroke: #008000; stroke-width: 0.8"/>
      </g>
     </g>
     <g id="text_37">
      <!-- 50 -->
      <g style="fill: #008000" transform="translate(24.835313 783.251646) scale(0.1 -0.1)">
       <defs>
        <path id="DejaVuSans-35" d="M 691 4666 
L 3169 4666 
L 3169 4134 
L 1269 4134 
L 1269 2991 
Q 1406 3038 1543 3061 
Q 1681 3084 1819 3084 
Q 2600 3084 3056 2656 
Q 3513 2228 3513 1497 
Q 3513 744 3044 326 
Q 2575 -91 1722 -91 
Q 1428 -91 1123 -41 
Q 819 9 494 109 
L 494 744 
Q 775 591 1075 516 
Q 1375 441 1709 441 
Q 2250 441 2565 725 
Q 2881 1009 2881 1497 
Q 2881 1984 2565 2268 
Q 2250 2553 1709 2553 
Q 1456 2553 1204 2497 
Q 953 2441 691 2322 
L 691 4666 
z
" transform="scale(0.015625)"/>
       </defs>
       <use xlink:href="#DejaVuSans-2212"/>
       <use xlink:href="#DejaVuSans-35" x="83.789062"/>
       <use xlink:href="#DejaVuSans-30" x="147.412109"/>
      </g>
     </g>
    </g>
    <g id="ytick_15">
     <g id="line2d_35">
      <g>
       <use xlink:href="#m088b73a9b7" x="52.94" y="746.681968" style="fill: #008000; stroke: #008000; stroke-width: 0.8"/>
      </g>
     </g>
     <g id="text_38">
      <!-- 40 -->
      <g style="fill: #008000" transform="translate(24.835313 750.481186) scale(0.1 -0.1)">
       <use xlink:href="#DejaVuSans-2212"/>
       <use xlink:href="#DejaVuSans-34" x="83.789062"/>
       <use xlink:href="#DejaVuSans-30" x="147.412109"/>
      </g>
     </g>
    </g>
    <g id="ytick_16">
     <g id="line2d_36">
      <g>
       <use xlink:href="#m088b73a9b7" x="52.94" y="713.911508" style="fill: #008000; stroke: #008000; stroke-width: 0.8"/>
      </g>
     </g>
     <g id="text_39">
      <!-- 30 -->
      <g style="fill: #008000" transform="translate(24.835313 717.710727) scale(0.1 -0.1)">
       <defs>
        <path id="DejaVuSans-33" d="M 2597 2516 
Q 3050 2419 3304 2112 
Q 3559 1806 3559 1356 
Q 3559 666 3084 287 
Q 2609 -91 1734 -91 
Q 1441 -91 1130 -33 
Q 819 25 488 141 
L 488 750 
Q 750 597 1062 519 
Q 1375 441 1716 441 
Q 2309 441 2620 675 
Q 2931 909 2931 1356 
Q 2931 1769 2642 2001 
Q 2353 2234 1838 2234 
L 1294 2234 
L 1294 2753 
L 1863 2753 
Q 2328 2753 2575 2939 
Q 2822 3125 2822 3475 
Q 2822 3834 2567 4026 
Q 2313 4219 1838 4219 
Q 1578 4219 1281 4162 
Q 984 4106 628 3988 
L 628 4550 
Q 988 4650 1302 4700 
Q 1616 4750 1894 4750 
Q 2613 4750 3031 4423 
Q 3450 4097 3450 3541 
Q 3450 3153 3228 2886 
Q 3006 2619 2597 2516 
z
" transform="scale(0.015625)"/>
       </defs>
       <use xlink:href="#DejaVuSans-2212"/>
       <use xlink:href="#DejaVuSans-33" x="83.789062"/>
       <use xlink:href="#DejaVuSans-30" x="147.412109"/>
      </g>
     </g>
    </g>
    <g id="ytick_17">
     <g id="line2d_37">
      <g>
       <use xlink:href="#m088b73a9b7" x="52.94" y="681.141049" style="fill: #008000; stroke: #008000; stroke-width: 0.8"/>
      </g>
     </g>
     <g id="text_40">
      <!-- 20 -->
      <g style="fill: #008000" transform="translate(24.835313 684.940267) scale(0.1 -0.1)">
       <use xlink:href="#DejaVuSans-2212"/>
       <use xlink:href="#DejaVuSans-32" x="83.789062"/>
       <use xlink:href="#DejaVuSans-30" x="147.412109"/>
      </g>
     </g>
    </g>
    <g id="ytick_18">
     <g id="line2d_38">
      <g>
       <use xlink:href="#m088b73a9b7" x="52.94" y="648.370589" style="fill: #008000; stroke: #008000; stroke-width: 0.8"/>
      </g>
     </g>
     <g id="text_41">
      <!-- 10 -->
      <g style="fill: #008000" transform="translate(24.835313 652.169808) scale(0.1 -0.1)">
       <use xlink:href="#DejaVuSans-2212"/>
       <use xlink:href="#DejaVuSans-31" x="83.789062"/>
       <use xlink:href="#DejaVuSans-30" x="147.412109"/>
      </g>
     </g>
    </g>
    <g id="ytick_19">
     <g id="line2d_39">
      <g>
       <use xlink:href="#m088b73a9b7" x="52.94" y="615.60013" style="fill: #008000; stroke: #008000; stroke-width: 0.8"/>
      </g>
     </g>
     <g id="text_42">
      <!-- 0 -->
      <g style="fill: #008000" transform="translate(39.5775 619.399348) scale(0.1 -0.1)">
       <use xlink:href="#DejaVuSans-30"/>
      </g>
     </g>
    </g>
    <g id="text_43">
     <!-- Cost -->
     <g style="fill: #008000" transform="translate(18.755625 725.002292) rotate(-90) scale(0.1 -0.1)">
      <use xlink:href="#DejaVuSans-43"/>
      <use xlink:href="#DejaVuSans-6f" x="69.824219"/>
      <use xlink:href="#DejaVuSans-73" x="131.005859"/>
      <use xlink:href="#DejaVuSans-74" x="183.105469"/>
     </g>
    </g>
   </g>
   <g id="line2d_40">
    <path d="M 82.77 812.207879 
L 82.895225 782.099697 
L 83.62272 623.581408 
L 83.85528 615.81548 
L 83.914911 615.565455 
L 83.962616 615.792989 
L 84.081877 617.15285 
L 84.374068 623.723288 
L 85.185047 641.923447 
L 85.679982 648.15224 
L 86.151065 651.539206 
L 86.616185 653.414517 
L 87.087269 654.462453 
L 87.588167 655.05953 
L 88.166586 655.404818 
L 88.965638 655.60619 
L 90.432555 655.707827 
L 94.040218 655.724252 
L 94.075996 654.660332 
L 94.386076 643.397235 
L 94.469559 643.140976 
L 94.523227 643.228049 
L 94.666341 644.03214 
L 95.960329 653.027928 
L 96.431412 654.282184 
L 96.920384 654.989532 
L 97.468987 655.397778 
L 98.178594 655.63607 
L 99.35332 655.764414 
L 102.39449 655.821039 
L 102.424305 655.270872 
L 102.770164 645.405555 
L 102.829795 645.324594 
L 102.883462 645.414198 
L 103.038502 646.198164 
L 104.19534 653.215318 
L 104.672386 654.424961 
L 105.161358 655.096949 
L 105.715924 655.48785 
L 106.449383 655.71734 
L 107.689703 655.838354 
L 111.595519 655.897316 
L 131.309456 655.97736 
L 131.369086 652.922478 
L 131.595683 643.301682 
L 131.738797 642.422136 
L 131.76265 642.44668 
L 131.864022 642.877206 
L 132.144287 645.365792 
L 132.830041 651.148094 
L 133.31305 653.404713 
L 133.784133 654.628767 
L 134.273105 655.318078 
L 134.821709 655.715778 
L 135.543241 655.950342 
L 136.747783 656.075191 
L 140.367371 656.134397 
L 169.819014 656.294808 
L 170.194688 651.522437 
L 170.29606 651.582081 
L 170.492842 652.130945 
L 171.375377 654.836173 
L 171.870313 655.574134 
L 172.412953 655.995517 
L 173.110633 656.24329 
L 174.237655 656.377248 
L 177.302677 656.438472 
L 187.726137 656.464008 
L 187.940808 655.431498 
L 188.054107 654.995063 
L 188.268778 654.213452 
L 188.334371 654.029367 
L 188.537116 653.330841 
L 188.632525 653.204892 
L 188.823344 652.682215 
L 188.918753 652.713504 
L 188.936642 652.596318 
L 189.097645 652.223229 
L 189.115535 652.229927 
L 189.204981 652.349537 
L 189.240759 652.179235 
L 189.37791 651.903465 
L 189.407726 651.918813 
L 189.503135 652.077082 
L 189.544876 651.894297 
L 189.670101 651.685531 
L 189.699916 651.705185 
L 189.801289 651.893914 
L 189.84303 651.721441 
L 189.956329 651.535419 
L 189.99807 651.564956 
L 190.099443 651.771126 
L 190.147147 651.58415 
L 190.254483 651.436221 
L 190.296224 651.471144 
L 190.397596 651.689078 
L 190.445301 651.507445 
L 190.546673 651.36801 
L 190.588415 651.400756 
L 190.69575 651.634508 
L 190.749418 651.437744 
L 190.844827 651.32381 
L 190.886569 651.359029 
L 190.993904 651.598473 
L 191.047572 651.404433 
L 191.142981 651.294772 
L 191.184723 651.33166 
L 191.292058 651.574946 
L 191.345726 651.382743 
L 191.441135 651.275966 
L 191.482877 651.31398 
L 191.590212 651.559859 
L 191.64388 651.368896 
L 191.739289 651.264067 
L 191.781031 651.302841 
L 191.888366 651.55047 
L 191.942034 651.360345 
L 192.037443 651.256829 
L 192.079184 651.296117 
L 192.18652 651.544927 
L 192.240188 651.355368 
L 192.335597 651.25274 
L 192.377338 651.292375 
L 192.484674 651.541983 
L 192.538342 651.352805 
L 192.627788 651.248595 
L 192.675492 651.290645 
L 192.782828 651.540792 
L 192.836495 651.351873 
L 192.925942 651.248043 
L 192.973646 651.290275 
L 193.080982 651.540786 
L 193.134649 651.352041 
L 193.224095 651.248469 
L 193.2718 651.290823 
L 193.379136 651.54158 
L 193.432803 651.352952 
L 193.522249 651.249554 
L 193.569954 651.291991 
L 193.677289 651.542914 
L 193.730957 651.354365 
L 193.820403 651.251085 
L 193.868108 651.293578 
L 193.975443 651.544613 
L 194.029111 651.356118 
L 194.118557 651.252917 
L 194.166262 651.295448 
L 194.273597 651.546558 
L 194.327265 651.358099 
L 194.416711 651.254952 
L 194.464416 651.297508 
L 194.631382 651.74733 
L 195.466213 654.663539 
L 195.501991 654.492686 
L 195.698773 654.072073 
L 195.841887 654.176481 
L 196.229487 654.882423 
L 196.360675 655.120651 
L 196.39049 654.959137 
L 196.599198 654.389833 
L 196.676718 654.277894 
L 196.879462 653.572645 
L 196.986798 653.401757 
L 197.177616 652.898872 
L 197.267062 652.917681 
L 197.278989 652.833343 
L 197.451918 652.40411 
L 197.457881 652.405613 
L 197.577143 652.564799 
L 197.905112 653.537468 
L 198.513346 655.121197 
L 198.745906 655.506871 
L 198.769758 655.373941 
L 198.984429 654.69672 
L 199.139469 654.718056 
L 199.419734 655.079406 
L 199.437623 654.920023 
L 199.50918 650.541069 
L 199.902743 623.08046 
L 199.9743 622.946161 
L 200.016041 623.043239 
L 200.135303 624.066018 
L 200.487125 629.785122 
L 201.44718 646.778211 
L 201.936153 651.267607 
L 202.323753 653.369621 
L 202.347605 653.306606 
L 202.490719 653.097336 
L 202.514571 653.108328 
L 202.669611 653.352714 
L 202.92006 654.006729 
L 202.973728 653.774202 
L 203.134731 653.525136 
L 203.152621 653.531611 
L 203.307661 653.738974 
L 203.516368 654.212824 
L 203.55811 654.016313 
L 203.742965 653.675494 
L 203.820485 653.703845 
L 203.838374 653.590779 
L 204.029193 653.07771 
L 204.142491 652.976343 
L 204.315421 652.57175 
L 204.321384 652.573495 
L 204.41083 652.674519 
L 204.440645 652.527111 
L 204.589722 652.192697 
L 204.613575 652.202141 
L 204.708984 652.34366 
L 204.744762 652.180135 
L 204.87595 651.925131 
L 204.905765 651.940608 
L 205.007138 652.116312 
L 205.048879 651.938579 
L 205.168141 651.740961 
L 205.203919 651.765311 
L 205.305292 651.962431 
L 205.352996 651.771325 
L 205.460332 651.615204 
L 205.502073 651.647304 
L 205.603446 651.859062 
L 205.65115 651.674619 
L 205.758486 651.531694 
L 205.794264 651.560717 
L 205.9016 651.790017 
L 205.955267 651.591122 
L 206.050676 651.473843 
L 206.098381 651.515799 
L 206.199753 651.74419 
L 206.253421 651.54871 
L 206.34883 651.436789 
L 206.390572 651.472794 
L 206.497907 651.714047 
L 206.551575 651.520872 
L 206.646984 651.412569 
L 206.688726 651.449988 
L 206.796061 651.694494 
L 206.849729 651.502875 
L 206.945138 651.397014 
L 206.98688 651.435387 
L 207.094215 651.682088 
L 207.147883 651.49152 
L 207.243292 651.387309 
L 207.285034 651.426325 
L 207.392369 651.67451 
L 207.446037 651.484651 
L 207.541446 651.381553 
L 207.583188 651.421004 
L 207.690523 651.67019 
L 207.744191 651.48081 
L 207.8396 651.378465 
L 207.881341 651.418209 
L 207.988677 651.668071 
L 208.042345 651.479015 
L 208.131791 651.374984 
L 208.179495 651.417119 
L 208.286831 651.667438 
L 208.340498 651.4786 
L 208.429945 651.374892 
L 208.477649 651.417181 
L 208.638652 651.845096 
L 209.181292 653.92321 
L 209.258812 653.648189 
L 209.39 653.523811 
L 209.419816 653.5413 
L 209.598708 653.831818 
L 210.636284 655.840531 
L 211.178924 656.28717 
L 211.858715 656.547271 
L 212.926106 656.689384 
L 215.621417 656.753746 
L 233.767063 656.821953 
L 233.826694 653.766874 
L 234.232184 628.257569 
L 234.256036 628.234697 
L 234.297777 628.340817 
L 234.423002 629.468512 
L 234.750971 635.084564 
L 235.210128 643.125802 
L 235.239944 642.564915 
L 235.353242 634.512831 
L 235.609655 620.703964 
L 235.687175 620.385636 
L 235.740842 620.51748 
L 235.87203 621.654608 
L 236.140369 626.328295 
L 237.219686 646.876135 
L 237.702695 651.417862 
L 238.173778 653.919804 
L 238.638898 655.292089 
L 239.121908 656.069321 
L 239.652622 656.514598 
L 240.320486 656.776287 
L 241.369988 656.921421 
L 243.957964 656.987063 
L 261.48345 657.104676 
L 261.519229 656.040747 
L 261.650417 642.512686 
L 261.865087 628.729407 
L 261.978386 627.817469 
L 262.020127 627.909557 
L 262.139389 628.940134 
L 262.443506 634.09239 
L 263.224669 647.1265 
L 263.713642 651.676205 
L 264.184725 654.156423 
L 264.649845 655.518454 
L 265.132854 656.290085 
L 265.663568 656.732183 
L 266.337396 656.993486 
L 267.392861 657.136977 
L 270.022578 657.202037 
L 299.927415 657.421582 
L 299.963193 656.357654 
L 300.094381 642.829592 
L 300.320978 627.205133 
L 300.434277 626.317839 
L 300.476018 626.415902 
L 300.59528 627.461832 
L 300.88747 632.513553 
L 301.728264 647.187994 
L 302.217237 651.85268 
L 302.68832 654.395769 
L 303.15344 655.792822 
L 303.636449 656.584479 
L 304.167163 657.038079 
L 304.829065 657.30312 
L 305.860678 657.450677 
L 308.353244 657.517603 
L 338.472752 657.739325 
L 338.50853 656.675396 
L 338.931909 636.643721 
L 338.97365 636.728124 
L 339.098875 637.675217 
L 339.468586 642.816541 
L 340.088746 650.363527 
L 340.571755 653.73293 
L 341.042838 655.578683 
L 341.513921 656.595686 
L 342.01482 657.175494 
L 342.599202 657.513195 
L 343.416143 657.709911 
L 344.942691 657.80782 
L 352.116274 657.880167 
L 381.275726 658.037918 
L 381.335357 654.982838 
L 381.80644 622.586273 
L 381.818366 622.592622 
L 381.88396 622.84849 
L 382.044963 624.644951 
L 382.402748 631.772449 
L 383.160059 646.282681 
L 383.654994 651.675962 
L 384.126078 654.59316 
L 384.591198 656.202056 
L 385.068244 657.107339 
L 385.581069 657.622573 
L 386.201229 657.924912 
L 387.107617 658.096908 
L 388.991949 658.178144 
L 403.869829 658.30679 
L 413.470385 658.303309 
L 413.530016 655.24823 
L 414.007062 622.458003 
L 414.018988 622.46685 
L 414.090545 622.768866 
L 414.257511 624.699621 
L 414.633185 632.32737 
L 415.366644 646.422404 
L 415.861579 651.870205 
L 416.332662 654.818734 
L 416.797782 656.44544 
L 417.274829 657.360894 
L 417.787653 657.881947 
L 418.40185 658.185759 
L 419.296312 658.359698 
L 421.138903 658.442577 
L 434.800315 658.561761 
L 439.511147 658.517972 
L 439.570778 655.462893 
L 439.952415 632.050511 
L 439.988193 631.984173 
L 440.041861 632.138504 
L 440.184975 633.550349 
L 440.608353 640.783433 
L 441.216587 649.617446 
L 441.70556 653.720138 
L 442.176643 655.944392 
L 442.647726 657.173965 
L 443.136698 657.864035 
L 443.685302 658.261834 
L 444.406834 658.496409 
L 445.611376 658.621259 
L 449.230964 658.680465 
L 471.878735 658.784789 
L 471.938366 655.72971 
L 472.433301 621.249227 
L 472.45119 621.264242 
L 472.534673 621.62928 
L 472.713566 623.691062 
L 473.07135 631.029211 
L 473.852514 646.603413 
L 474.347449 652.184202 
L 474.818532 655.20694 
L 475.283652 656.875576 
L 475.653363 657.650773 
L 475.665289 657.588736 
L 475.718957 655.134067 
L 475.981332 643.276823 
L 476.088668 642.720087 
L 476.130409 642.786126 
L 476.255634 643.552316 
L 476.649197 647.915068 
L 477.233579 653.338161 
L 477.710625 655.865725 
L 478.181708 657.260911 
L 478.664718 658.040459 
L 479.195432 658.487435 
L 479.863296 658.750168 
L 480.906835 658.895453 
L 483.470959 658.961383 
L 495.134739 658.976496 
L 495.19437 655.921417 
L 495.689306 621.440934 
L 495.707195 621.455949 
L 495.790678 621.820987 
L 495.96957 623.88277 
L 496.327355 631.220918 
L 497.108518 646.79512 
L 497.603454 652.375909 
L 498.074537 655.398648 
L 498.539657 657.067283 
L 499.016703 658.006654 
L 499.523565 658.536991 
L 500.131799 658.849148 
L 501.008371 659.028242 
L 502.767479 659.114209 
L 514.35374 659.217547 
L 547.776793 659.410443 
L 547.836423 656.355363 
L 548.15843 637.830821 
L 548.229987 637.524092 
L 548.283654 637.64663 
L 548.420805 638.814626 
L 548.862073 645.279759 
L 549.440491 652.204066 
L 549.923501 655.527123 
L 550.394584 657.342775 
L 550.865667 658.342415 
L 551.366566 658.912188 
L 551.95691 659.246304 
L 552.785778 659.439808 
L 553.179341 659.452913 
L 553.185305 659.399193 
L 553.244935 656.35032 
L 553.489421 644.689106 
L 553.620609 643.882565 
L 553.650425 643.923062 
L 553.75776 644.480646 
L 554.06784 647.682812 
L 554.723779 653.912333 
L 555.206788 656.489145 
L 555.677871 657.890961 
L 556.16088 658.674546 
L 556.691594 659.123886 
L 557.359459 659.388005 
L 558.402998 659.534029 
L 560.961158 659.60014 
L 598.146913 659.879907 
L 598.182692 658.815979 
L 598.331769 644.366431 
L 598.534513 636.696729 
L 598.617996 636.310463 
L 598.665701 636.434576 
L 598.802852 637.651966 
L 599.220267 644.121457 
L 599.816575 651.902492 
L 600.299585 655.539761 
L 600.770668 657.535397 
L 601.241751 658.636227 
L 601.736686 659.258822 
L 602.309142 659.622266 
L 603.084342 659.83339 
L 604.461813 659.941475 
L 604.801708 659.868472 
L 604.867302 656.824183 
L 605.087936 651.052182 
L 605.219124 650.546165 
L 605.248939 650.57331 
L 605.362238 650.961241 
L 605.708096 653.237592 
L 606.304404 656.631047 
L 606.787413 658.173837 
L 607.270423 659.020112 
L 607.789211 659.499423 
L 608.433223 659.783506 
L 609.399242 659.942233 
L 610.30563 659.90807 
L 610.36526 656.854972 
L 610.806528 628.305792 
L 610.854233 628.414535 
L 610.979457 629.553826 
L 611.283574 634.940721 
L 612.100516 649.426461 
L 612.589488 654.228887 
L 613.060572 656.852447 
L 613.525692 658.295057 
L 614.002738 659.105573 
L 614.527489 659.574141 
L 615.177464 659.84894 
L 615.565064 659.931902 
L 615.576991 659.872916 
L 615.785698 658.882235 
L 615.98248 658.741526 
L 616.221003 658.904149 
L 617.198948 659.696335 
L 617.938369 659.930861 
L 618.373674 659.967337 
L 618.379637 659.913811 
L 618.439268 656.867469 
L 618.85072 630.755597 
L 618.874573 630.74035 
L 618.916314 630.858091 
L 619.041539 632.013844 
L 619.369508 637.716945 
L 620.102967 649.916978 
L 620.591939 654.531045 
L 621.063022 657.049611 
L 621.528143 658.433421 
L 622.011152 659.217563 
L 622.541866 659.666856 
L 623.209731 659.930896 
L 624.253269 660.076872 
L 625.8633 660.102786 
L 625.899079 659.039186 
L 626.03623 645.172927 
L 626.244937 635.539554 
L 626.340347 634.987771 
L 626.388051 635.112832 
L 626.519239 636.294672 
L 626.900876 642.447732 
L 627.532962 651.410635 
L 628.021935 655.397452 
L 628.493018 657.558381 
L 628.964101 658.752485 
L 629.453073 659.4225 
L 630.00764 659.811606 
L 630.741098 660.039965 
L 631.981418 660.160408 
L 635.905124 660.219384 
L 646.274917 660.222397 
L 646.579034 656.732818 
L 646.692332 656.632599 
L 646.728111 656.657379 
L 646.90104 656.983486 
L 647.944578 659.312348 
L 648.469329 659.814261 
L 649.101416 660.106227 
L 650.037619 660.271205 
L 652.059102 660.348169 
L 664.659086 660.42819 
L 664.694865 659.364262 
L 665.11228 640.197573 
L 665.142096 640.234735 
L 665.243468 640.833241 
L 665.51777 644.243833 
L 666.263154 653.328042 
L 666.746164 656.575312 
L 666.75809 656.607155 
L 666.781942 656.224824 
L 666.877351 649.204066 
L 667.086059 640.932038 
L 667.181468 640.405862 
L 667.229173 640.499385 
L 667.360361 641.495558 
L 667.771813 647.041821 
L 668.362158 653.675682 
L 668.845167 656.779575 
L 669.31625 658.47291 
L 669.793297 659.412864 
L 670.300158 659.943903 
L 670.908392 660.256526 
L 671.784965 660.435888 
L 673.544073 660.521967 
L 679.37 660.577829 
L 679.37 660.577829 
" clip-path="url(#p6ce95bde17)" style="fill: none; stroke: #008000; stroke-width: 1.5; stroke-linecap: square"/>
   </g>
   <g id="patch_13">
    <path d="M 52.94 822.04 
L 52.94 605.733333 
" style="fill: none; stroke: #000000; stroke-width: 0.8; stroke-linejoin: miter; stroke-linecap: square"/>
   </g>
   <g id="patch_14">
    <path d="M 709.2 822.04 
L 709.2 605.733333 
" style="fill: none; stroke: #000000; stroke-width: 0.8; stroke-linejoin: miter; stroke-linecap: square"/>
   </g>
   <g id="patch_15">
    <path d="M 52.94 822.04 
L 709.2 822.04 
" style="fill: none; stroke: #000000; stroke-width: 0.8; stroke-linejoin: miter; stroke-linecap: square"/>
   </g>
   <g id="patch_16">
    <path d="M 52.94 605.733333 
L 709.2 605.733333 
" style="fill: none; stroke: #000000; stroke-width: 0.8; stroke-linejoin: miter; stroke-linecap: square"/>
   </g>
   <g id="text_44">
    <!-- Cost Over Time -->
    <g transform="translate(334.804375 599.733333) scale(0.12 -0.12)">
     <defs>
      <path id="DejaVuSans-76" d="M 191 3500 
L 800 3500 
L 1894 563 
L 2988 3500 
L 3597 3500 
L 2284 0 
L 1503 0 
L 191 3500 
z
" transform="scale(0.015625)"/>
      <path id="DejaVuSans-72" d="M 2631 2963 
Q 2534 3019 2420 3045 
Q 2306 3072 2169 3072 
Q 1681 3072 1420 2755 
Q 1159 2438 1159 1844 
L 1159 0 
L 581 0 
L 581 3500 
L 1159 3500 
L 1159 2956 
Q 1341 3275 1631 3429 
Q 1922 3584 2338 3584 
Q 2397 3584 2469 3576 
Q 2541 3569 2628 3553 
L 2631 2963 
z
" transform="scale(0.015625)"/>
     </defs>
     <use xlink:href="#DejaVuSans-43"/>
     <use xlink:href="#DejaVuSans-6f" x="69.824219"/>
     <use xlink:href="#DejaVuSans-73" x="131.005859"/>
     <use xlink:href="#DejaVuSans-74" x="183.105469"/>
     <use xlink:href="#DejaVuSans-20" x="222.314453"/>
     <use xlink:href="#DejaVuSans-4f" x="254.101562"/>
     <use xlink:href="#DejaVuSans-76" x="332.8125"/>
     <use xlink:href="#DejaVuSans-65" x="391.992188"/>
     <use xlink:href="#DejaVuSans-72" x="453.515625"/>
     <use xlink:href="#DejaVuSans-20" x="494.628906"/>
     <use xlink:href="#DejaVuSans-54" x="526.416016"/>
     <use xlink:href="#DejaVuSans-69" x="584.375"/>
     <use xlink:href="#DejaVuSans-6d" x="612.158203"/>
     <use xlink:href="#DejaVuSans-65" x="709.570312"/>
    </g>
   </g>
  </g>
  <g id="text_45">
   <!-- Episode 538 - Total Reward: -24949.11 -->
   <g transform="translate(244.110938 26.398125) scale(0.12 -0.12)">
    <defs>
     <path id="DejaVuSans-45" d="M 628 4666 
L 3578 4666 
L 3578 4134 
L 1259 4134 
L 1259 2753 
L 3481 2753 
L 3481 2222 
L 1259 2222 
L 1259 531 
L 3634 531 
L 3634 0 
L 628 0 
L 628 4666 
z
" transform="scale(0.015625)"/>
     <path id="DejaVuSans-64" d="M 2906 2969 
L 2906 4863 
L 3481 4863 
L 3481 0 
L 2906 0 
L 2906 525 
Q 2725 213 2448 61 
Q 2172 -91 1784 -91 
Q 1150 -91 751 415 
Q 353 922 353 1747 
Q 353 2572 751 3078 
Q 1150 3584 1784 3584 
Q 2172 3584 2448 3432 
Q 2725 3281 2906 2969 
z
M 947 1747 
Q 947 1113 1208 752 
Q 1469 391 1925 391 
Q 2381 391 2643 752 
Q 2906 1113 2906 1747 
Q 2906 2381 2643 2742 
Q 2381 3103 1925 3103 
Q 1469 3103 1208 2742 
Q 947 2381 947 1747 
z
" transform="scale(0.015625)"/>
     <path id="DejaVuSans-2d" d="M 313 2009 
L 1997 2009 
L 1997 1497 
L 313 1497 
L 313 2009 
z
" transform="scale(0.015625)"/>
     <path id="DejaVuSans-52" d="M 2841 2188 
Q 3044 2119 3236 1894 
Q 3428 1669 3622 1275 
L 4263 0 
L 3584 0 
L 2988 1197 
Q 2756 1666 2539 1819 
Q 2322 1972 1947 1972 
L 1259 1972 
L 1259 0 
L 628 0 
L 628 4666 
L 2053 4666 
Q 2853 4666 3247 4331 
Q 3641 3997 3641 3322 
Q 3641 2881 3436 2590 
Q 3231 2300 2841 2188 
z
M 1259 4147 
L 1259 2491 
L 2053 2491 
Q 2509 2491 2742 2702 
Q 2975 2913 2975 3322 
Q 2975 3731 2742 3939 
Q 2509 4147 2053 4147 
L 1259 4147 
z
" transform="scale(0.015625)"/>
     <path id="DejaVuSans-77" d="M 269 3500 
L 844 3500 
L 1563 769 
L 2278 3500 
L 2956 3500 
L 3675 769 
L 4391 3500 
L 4966 3500 
L 4050 0 
L 3372 0 
L 2619 2869 
L 1863 0 
L 1184 0 
L 269 3500 
z
" transform="scale(0.015625)"/>
     <path id="DejaVuSans-3a" d="M 750 794 
L 1409 794 
L 1409 0 
L 750 0 
L 750 794 
z
M 750 3309 
L 1409 3309 
L 1409 2516 
L 750 2516 
L 750 3309 
z
" transform="scale(0.015625)"/>
     <path id="DejaVuSans-39" d="M 703 97 
L 703 672 
Q 941 559 1184 500 
Q 1428 441 1663 441 
Q 2288 441 2617 861 
Q 2947 1281 2994 2138 
Q 2813 1869 2534 1725 
Q 2256 1581 1919 1581 
Q 1219 1581 811 2004 
Q 403 2428 403 3163 
Q 403 3881 828 4315 
Q 1253 4750 1959 4750 
Q 2769 4750 3195 4129 
Q 3622 3509 3622 2328 
Q 3622 1225 3098 567 
Q 2575 -91 1691 -91 
Q 1453 -91 1209 -44 
Q 966 3 703 97 
z
M 1959 2075 
Q 2384 2075 2632 2365 
Q 2881 2656 2881 3163 
Q 2881 3666 2632 3958 
Q 2384 4250 1959 4250 
Q 1534 4250 1286 3958 
Q 1038 3666 1038 3163 
Q 1038 2656 1286 2365 
Q 1534 2075 1959 2075 
z
" transform="scale(0.015625)"/>
    </defs>
    <use xlink:href="#DejaVuSans-45"/>
    <use xlink:href="#DejaVuSans-70" x="63.183594"/>
    <use xlink:href="#DejaVuSans-69" x="126.660156"/>
    <use xlink:href="#DejaVuSans-73" x="154.443359"/>
    <use xlink:href="#DejaVuSans-6f" x="206.542969"/>
    <use xlink:href="#DejaVuSans-64" x="267.724609"/>
    <use xlink:href="#DejaVuSans-65" x="331.201172"/>
    <use xlink:href="#DejaVuSans-20" x="392.724609"/>
    <use xlink:href="#DejaVuSans-35" x="424.511719"/>
    <use xlink:href="#DejaVuSans-33" x="488.134766"/>
    <use xlink:href="#DejaVuSans-38" x="551.757812"/>
    <use xlink:href="#DejaVuSans-20" x="615.380859"/>
    <use xlink:href="#DejaVuSans-2d" x="647.167969"/>
    <use xlink:href="#DejaVuSans-20" x="683.251953"/>
    <use xlink:href="#DejaVuSans-54" x="715.039062"/>
    <use xlink:href="#DejaVuSans-6f" x="759.123047"/>
    <use xlink:href="#DejaVuSans-74" x="820.304688"/>
    <use xlink:href="#DejaVuSans-61" x="859.513672"/>
    <use xlink:href="#DejaVuSans-6c" x="920.792969"/>
    <use xlink:href="#DejaVuSans-20" x="948.576172"/>
    <use xlink:href="#DejaVuSans-52" x="980.363281"/>
    <use xlink:href="#DejaVuSans-65" x="1045.345703"/>
    <use xlink:href="#DejaVuSans-77" x="1106.869141"/>
    <use xlink:href="#DejaVuSans-61" x="1188.65625"/>
    <use xlink:href="#DejaVuSans-72" x="1249.935547"/>
    <use xlink:href="#DejaVuSans-64" x="1289.298828"/>
    <use xlink:href="#DejaVuSans-3a" x="1352.775391"/>
    <use xlink:href="#DejaVuSans-20" x="1386.466797"/>
    <use xlink:href="#DejaVuSans-2d" x="1418.253906"/>
    <use xlink:href="#DejaVuSans-32" x="1454.337891"/>
    <use xlink:href="#DejaVuSans-34" x="1517.960938"/>
    <use xlink:href="#DejaVuSans-39" x="1581.583984"/>
    <use xlink:href="#DejaVuSans-34" x="1645.207031"/>
    <use xlink:href="#DejaVuSans-39" x="1708.830078"/>
    <use xlink:href="#DejaVuSans-2e" x="1772.453125"/>
    <use xlink:href="#DejaVuSans-31" x="1804.240234"/>
    <use xlink:href="#DejaVuSans-31" x="1867.863281"/>
   </g>
  </g>
 </g>
 <defs>
  <clipPath id="p449a9997da">
   <rect x="52.94" y="85.2" width="656.26" height="216.306667"/>
  </clipPath>
  <clipPath id="p4d50dca98c">
   <rect x="52.94" y="345.466667" width="656.26" height="216.306667"/>
  </clipPath>
  <clipPath id="p6ce95bde17">
   <rect x="52.94" y="605.733333" width="656.26" height="216.306667"/>
  </clipPath>
 </defs>
</svg>
