<?xml version="1.0" encoding="utf-8" standalone="no"?>
<!DOCTYPE svg PUBLIC "-//W3C//DTD SVG 1.1//EN"
  "http://www.w3.org/Graphics/SVG/1.1/DTD/svg11.dtd">
<svg xmlns:xlink="http://www.w3.org/1999/xlink" width="720pt" height="864pt" viewBox="0 0 720 864" xmlns="http://www.w3.org/2000/svg" version="1.1">
 <metadata>
  <rdf:RDF xmlns:dc="http://purl.org/dc/elements/1.1/" xmlns:cc="http://creativecommons.org/ns#" xmlns:rdf="http://www.w3.org/1999/02/22-rdf-syntax-ns#">
   <cc:Work>
    <dc:type rdf:resource="http://purl.org/dc/dcmitype/StillImage"/>
    <dc:date>2024-06-04T22:51:30.018956</dc:date>
    <dc:format>image/svg+xml</dc:format>
    <dc:creator>
     <cc:Agent>
      <dc:title>Matplotlib v3.8.4, https://matplotlib.org/</dc:title>
     </cc:Agent>
    </dc:creator>
   </cc:Work>
  </rdf:RDF>
 </metadata>
 <defs>
  <style type="text/css">*{stroke-linejoin: round; stroke-linecap: butt}</style>
 </defs>
 <g id="figure_1">
  <g id="patch_1">
   <path d="M 0 864 
L 720 864 
L 720 0 
L 0 0 
z
" style="fill: #ffffff"/>
  </g>
  <g id="axes_1">
   <g id="patch_2">
    <path d="M 52.94 301.506667 
L 709.2 301.506667 
L 709.2 85.2 
L 52.94 85.2 
z
" style="fill: #ffffff"/>
   </g>
   <g id="matplotlib.axis_1">
    <g id="xtick_1">
     <g id="line2d_1">
      <defs>
       <path id="mf5bc116dcd" d="M 0 0 
L 0 3.5 
" style="stroke: #000000; stroke-width: 0.8"/>
      </defs>
      <g>
       <use xlink:href="#mf5bc116dcd" x="82.77" y="301.506667" style="stroke: #000000; stroke-width: 0.8"/>
      </g>
     </g>
     <g id="text_1">
      <!-- 0.0 -->
      <g transform="translate(74.818438 316.105104) scale(0.1 -0.1)">
       <defs>
        <path id="DejaVuSans-30" d="M 2034 4250 
Q 1547 4250 1301 3770 
Q 1056 3291 1056 2328 
Q 1056 1369 1301 889 
Q 1547 409 2034 409 
Q 2525 409 2770 889 
Q 3016 1369 3016 2328 
Q 3016 3291 2770 3770 
Q 2525 4250 2034 4250 
z
M 2034 4750 
Q 2819 4750 3233 4129 
Q 3647 3509 3647 2328 
Q 3647 1150 3233 529 
Q 2819 -91 2034 -91 
Q 1250 -91 836 529 
Q 422 1150 422 2328 
Q 422 3509 836 4129 
Q 1250 4750 2034 4750 
z
" transform="scale(0.015625)"/>
        <path id="DejaVuSans-2e" d="M 684 794 
L 1344 794 
L 1344 0 
L 684 0 
L 684 794 
z
" transform="scale(0.015625)"/>
       </defs>
       <use xlink:href="#DejaVuSans-30"/>
       <use xlink:href="#DejaVuSans-2e" x="63.623047"/>
       <use xlink:href="#DejaVuSans-30" x="95.410156"/>
      </g>
     </g>
    </g>
    <g id="xtick_2">
     <g id="line2d_2">
      <g>
       <use xlink:href="#mf5bc116dcd" x="202.031562" y="301.506667" style="stroke: #000000; stroke-width: 0.8"/>
      </g>
     </g>
     <g id="text_2">
      <!-- 0.2 -->
      <g transform="translate(194.079999 316.105104) scale(0.1 -0.1)">
       <defs>
        <path id="DejaVuSans-32" d="M 1228 531 
L 3431 531 
L 3431 0 
L 469 0 
L 469 531 
Q 828 903 1448 1529 
Q 2069 2156 2228 2338 
Q 2531 2678 2651 2914 
Q 2772 3150 2772 3378 
Q 2772 3750 2511 3984 
Q 2250 4219 1831 4219 
Q 1534 4219 1204 4116 
Q 875 4013 500 3803 
L 500 4441 
Q 881 4594 1212 4672 
Q 1544 4750 1819 4750 
Q 2544 4750 2975 4387 
Q 3406 4025 3406 3419 
Q 3406 3131 3298 2873 
Q 3191 2616 2906 2266 
Q 2828 2175 2409 1742 
Q 1991 1309 1228 531 
z
" transform="scale(0.015625)"/>
       </defs>
       <use xlink:href="#DejaVuSans-30"/>
       <use xlink:href="#DejaVuSans-2e" x="63.623047"/>
       <use xlink:href="#DejaVuSans-32" x="95.410156"/>
      </g>
     </g>
    </g>
    <g id="xtick_3">
     <g id="line2d_3">
      <g>
       <use xlink:href="#mf5bc116dcd" x="321.293124" y="301.506667" style="stroke: #000000; stroke-width: 0.8"/>
      </g>
     </g>
     <g id="text_3">
      <!-- 0.4 -->
      <g transform="translate(313.341561 316.105104) scale(0.1 -0.1)">
       <defs>
        <path id="DejaVuSans-34" d="M 2419 4116 
L 825 1625 
L 2419 1625 
L 2419 4116 
z
M 2253 4666 
L 3047 4666 
L 3047 1625 
L 3713 1625 
L 3713 1100 
L 3047 1100 
L 3047 0 
L 2419 0 
L 2419 1100 
L 313 1100 
L 313 1709 
L 2253 4666 
z
" transform="scale(0.015625)"/>
       </defs>
       <use xlink:href="#DejaVuSans-30"/>
       <use xlink:href="#DejaVuSans-2e" x="63.623047"/>
       <use xlink:href="#DejaVuSans-34" x="95.410156"/>
      </g>
     </g>
    </g>
    <g id="xtick_4">
     <g id="line2d_4">
      <g>
       <use xlink:href="#mf5bc116dcd" x="440.554686" y="301.506667" style="stroke: #000000; stroke-width: 0.8"/>
      </g>
     </g>
     <g id="text_4">
      <!-- 0.6 -->
      <g transform="translate(432.603123 316.105104) scale(0.1 -0.1)">
       <defs>
        <path id="DejaVuSans-36" d="M 2113 2584 
Q 1688 2584 1439 2293 
Q 1191 2003 1191 1497 
Q 1191 994 1439 701 
Q 1688 409 2113 409 
Q 2538 409 2786 701 
Q 3034 994 3034 1497 
Q 3034 2003 2786 2293 
Q 2538 2584 2113 2584 
z
M 3366 4563 
L 3366 3988 
Q 3128 4100 2886 4159 
Q 2644 4219 2406 4219 
Q 1781 4219 1451 3797 
Q 1122 3375 1075 2522 
Q 1259 2794 1537 2939 
Q 1816 3084 2150 3084 
Q 2853 3084 3261 2657 
Q 3669 2231 3669 1497 
Q 3669 778 3244 343 
Q 2819 -91 2113 -91 
Q 1303 -91 875 529 
Q 447 1150 447 2328 
Q 447 3434 972 4092 
Q 1497 4750 2381 4750 
Q 2619 4750 2861 4703 
Q 3103 4656 3366 4563 
z
" transform="scale(0.015625)"/>
       </defs>
       <use xlink:href="#DejaVuSans-30"/>
       <use xlink:href="#DejaVuSans-2e" x="63.623047"/>
       <use xlink:href="#DejaVuSans-36" x="95.410156"/>
      </g>
     </g>
    </g>
    <g id="xtick_5">
     <g id="line2d_5">
      <g>
       <use xlink:href="#mf5bc116dcd" x="559.816247" y="301.506667" style="stroke: #000000; stroke-width: 0.8"/>
      </g>
     </g>
     <g id="text_5">
      <!-- 0.8 -->
      <g transform="translate(551.864685 316.105104) scale(0.1 -0.1)">
       <defs>
        <path id="DejaVuSans-38" d="M 2034 2216 
Q 1584 2216 1326 1975 
Q 1069 1734 1069 1313 
Q 1069 891 1326 650 
Q 1584 409 2034 409 
Q 2484 409 2743 651 
Q 3003 894 3003 1313 
Q 3003 1734 2745 1975 
Q 2488 2216 2034 2216 
z
M 1403 2484 
Q 997 2584 770 2862 
Q 544 3141 544 3541 
Q 544 4100 942 4425 
Q 1341 4750 2034 4750 
Q 2731 4750 3128 4425 
Q 3525 4100 3525 3541 
Q 3525 3141 3298 2862 
Q 3072 2584 2669 2484 
Q 3125 2378 3379 2068 
Q 3634 1759 3634 1313 
Q 3634 634 3220 271 
Q 2806 -91 2034 -91 
Q 1263 -91 848 271 
Q 434 634 434 1313 
Q 434 1759 690 2068 
Q 947 2378 1403 2484 
z
M 1172 3481 
Q 1172 3119 1398 2916 
Q 1625 2713 2034 2713 
Q 2441 2713 2670 2916 
Q 2900 3119 2900 3481 
Q 2900 3844 2670 4047 
Q 2441 4250 2034 4250 
Q 1625 4250 1398 4047 
Q 1172 3844 1172 3481 
z
" transform="scale(0.015625)"/>
       </defs>
       <use xlink:href="#DejaVuSans-30"/>
       <use xlink:href="#DejaVuSans-2e" x="63.623047"/>
       <use xlink:href="#DejaVuSans-38" x="95.410156"/>
      </g>
     </g>
    </g>
    <g id="xtick_6">
     <g id="line2d_6">
      <g>
       <use xlink:href="#mf5bc116dcd" x="679.077809" y="301.506667" style="stroke: #000000; stroke-width: 0.8"/>
      </g>
     </g>
     <g id="text_6">
      <!-- 1.0 -->
      <g transform="translate(671.126247 316.105104) scale(0.1 -0.1)">
       <defs>
        <path id="DejaVuSans-31" d="M 794 531 
L 1825 531 
L 1825 4091 
L 703 3866 
L 703 4441 
L 1819 4666 
L 2450 4666 
L 2450 531 
L 3481 531 
L 3481 0 
L 794 0 
L 794 531 
z
" transform="scale(0.015625)"/>
       </defs>
       <use xlink:href="#DejaVuSans-31"/>
       <use xlink:href="#DejaVuSans-2e" x="63.623047"/>
       <use xlink:href="#DejaVuSans-30" x="95.410156"/>
      </g>
     </g>
    </g>
   </g>
   <g id="matplotlib.axis_2">
    <g id="ytick_1">
     <g id="line2d_7">
      <defs>
       <path id="m5e6343b7a2" d="M 0 0 
L -3.5 0 
" style="stroke: #ff4500; stroke-width: 0.8"/>
      </defs>
      <g>
       <use xlink:href="#m5e6343b7a2" x="52.94" y="291.680983" style="fill: #ff4500; stroke: #ff4500; stroke-width: 0.8"/>
      </g>
     </g>
     <g id="text_7">
      <!-- 0 -->
      <g style="fill: #ff4500" transform="translate(39.5775 295.480202) scale(0.1 -0.1)">
       <use xlink:href="#DejaVuSans-30"/>
      </g>
     </g>
    </g>
    <g id="ytick_2">
     <g id="line2d_8">
      <g>
       <use xlink:href="#m5e6343b7a2" x="52.94" y="255.914727" style="fill: #ff4500; stroke: #ff4500; stroke-width: 0.8"/>
      </g>
     </g>
     <g id="text_8">
      <!-- 2 -->
      <g style="fill: #ff4500" transform="translate(39.5775 259.713945) scale(0.1 -0.1)">
       <use xlink:href="#DejaVuSans-32"/>
      </g>
     </g>
    </g>
    <g id="ytick_3">
     <g id="line2d_9">
      <g>
       <use xlink:href="#m5e6343b7a2" x="52.94" y="220.14847" style="fill: #ff4500; stroke: #ff4500; stroke-width: 0.8"/>
      </g>
     </g>
     <g id="text_9">
      <!-- 4 -->
      <g style="fill: #ff4500" transform="translate(39.5775 223.947689) scale(0.1 -0.1)">
       <use xlink:href="#DejaVuSans-34"/>
      </g>
     </g>
    </g>
    <g id="ytick_4">
     <g id="line2d_10">
      <g>
       <use xlink:href="#m5e6343b7a2" x="52.94" y="184.382213" style="fill: #ff4500; stroke: #ff4500; stroke-width: 0.8"/>
      </g>
     </g>
     <g id="text_10">
      <!-- 6 -->
      <g style="fill: #ff4500" transform="translate(39.5775 188.181432) scale(0.1 -0.1)">
       <use xlink:href="#DejaVuSans-36"/>
      </g>
     </g>
    </g>
    <g id="ytick_5">
     <g id="line2d_11">
      <g>
       <use xlink:href="#m5e6343b7a2" x="52.94" y="148.615957" style="fill: #ff4500; stroke: #ff4500; stroke-width: 0.8"/>
      </g>
     </g>
     <g id="text_11">
      <!-- 8 -->
      <g style="fill: #ff4500" transform="translate(39.5775 152.415175) scale(0.1 -0.1)">
       <use xlink:href="#DejaVuSans-38"/>
      </g>
     </g>
    </g>
    <g id="ytick_6">
     <g id="line2d_12">
      <g>
       <use xlink:href="#m5e6343b7a2" x="52.94" y="112.8497" style="fill: #ff4500; stroke: #ff4500; stroke-width: 0.8"/>
      </g>
     </g>
     <g id="text_12">
      <!-- 10 -->
      <g style="fill: #ff4500" transform="translate(33.215 116.648919) scale(0.1 -0.1)">
       <use xlink:href="#DejaVuSans-31"/>
       <use xlink:href="#DejaVuSans-30" x="63.623047"/>
      </g>
     </g>
    </g>
    <g id="text_13">
     <!-- Output Voltage -->
     <g style="fill: #ff4500" transform="translate(27.135313 231.066615) rotate(-90) scale(0.1 -0.1)">
      <defs>
       <path id="DejaVuSans-4f" d="M 2522 4238 
Q 1834 4238 1429 3725 
Q 1025 3213 1025 2328 
Q 1025 1447 1429 934 
Q 1834 422 2522 422 
Q 3209 422 3611 934 
Q 4013 1447 4013 2328 
Q 4013 3213 3611 3725 
Q 3209 4238 2522 4238 
z
M 2522 4750 
Q 3503 4750 4090 4092 
Q 4678 3434 4678 2328 
Q 4678 1225 4090 567 
Q 3503 -91 2522 -91 
Q 1538 -91 948 565 
Q 359 1222 359 2328 
Q 359 3434 948 4092 
Q 1538 4750 2522 4750 
z
" transform="scale(0.015625)"/>
       <path id="DejaVuSans-75" d="M 544 1381 
L 544 3500 
L 1119 3500 
L 1119 1403 
Q 1119 906 1312 657 
Q 1506 409 1894 409 
Q 2359 409 2629 706 
Q 2900 1003 2900 1516 
L 2900 3500 
L 3475 3500 
L 3475 0 
L 2900 0 
L 2900 538 
Q 2691 219 2414 64 
Q 2138 -91 1772 -91 
Q 1169 -91 856 284 
Q 544 659 544 1381 
z
M 1991 3584 
L 1991 3584 
z
" transform="scale(0.015625)"/>
       <path id="DejaVuSans-74" d="M 1172 4494 
L 1172 3500 
L 2356 3500 
L 2356 3053 
L 1172 3053 
L 1172 1153 
Q 1172 725 1289 603 
Q 1406 481 1766 481 
L 2356 481 
L 2356 0 
L 1766 0 
Q 1100 0 847 248 
Q 594 497 594 1153 
L 594 3053 
L 172 3053 
L 172 3500 
L 594 3500 
L 594 4494 
L 1172 4494 
z
" transform="scale(0.015625)"/>
       <path id="DejaVuSans-70" d="M 1159 525 
L 1159 -1331 
L 581 -1331 
L 581 3500 
L 1159 3500 
L 1159 2969 
Q 1341 3281 1617 3432 
Q 1894 3584 2278 3584 
Q 2916 3584 3314 3078 
Q 3713 2572 3713 1747 
Q 3713 922 3314 415 
Q 2916 -91 2278 -91 
Q 1894 -91 1617 61 
Q 1341 213 1159 525 
z
M 3116 1747 
Q 3116 2381 2855 2742 
Q 2594 3103 2138 3103 
Q 1681 3103 1420 2742 
Q 1159 2381 1159 1747 
Q 1159 1113 1420 752 
Q 1681 391 2138 391 
Q 2594 391 2855 752 
Q 3116 1113 3116 1747 
z
" transform="scale(0.015625)"/>
       <path id="DejaVuSans-20" transform="scale(0.015625)"/>
       <path id="DejaVuSans-56" d="M 1831 0 
L 50 4666 
L 709 4666 
L 2188 738 
L 3669 4666 
L 4325 4666 
L 2547 0 
L 1831 0 
z
" transform="scale(0.015625)"/>
       <path id="DejaVuSans-6f" d="M 1959 3097 
Q 1497 3097 1228 2736 
Q 959 2375 959 1747 
Q 959 1119 1226 758 
Q 1494 397 1959 397 
Q 2419 397 2687 759 
Q 2956 1122 2956 1747 
Q 2956 2369 2687 2733 
Q 2419 3097 1959 3097 
z
M 1959 3584 
Q 2709 3584 3137 3096 
Q 3566 2609 3566 1747 
Q 3566 888 3137 398 
Q 2709 -91 1959 -91 
Q 1206 -91 779 398 
Q 353 888 353 1747 
Q 353 2609 779 3096 
Q 1206 3584 1959 3584 
z
" transform="scale(0.015625)"/>
       <path id="DejaVuSans-6c" d="M 603 4863 
L 1178 4863 
L 1178 0 
L 603 0 
L 603 4863 
z
" transform="scale(0.015625)"/>
       <path id="DejaVuSans-61" d="M 2194 1759 
Q 1497 1759 1228 1600 
Q 959 1441 959 1056 
Q 959 750 1161 570 
Q 1363 391 1709 391 
Q 2188 391 2477 730 
Q 2766 1069 2766 1631 
L 2766 1759 
L 2194 1759 
z
M 3341 1997 
L 3341 0 
L 2766 0 
L 2766 531 
Q 2569 213 2275 61 
Q 1981 -91 1556 -91 
Q 1019 -91 701 211 
Q 384 513 384 1019 
Q 384 1609 779 1909 
Q 1175 2209 1959 2209 
L 2766 2209 
L 2766 2266 
Q 2766 2663 2505 2880 
Q 2244 3097 1772 3097 
Q 1472 3097 1187 3025 
Q 903 2953 641 2809 
L 641 3341 
Q 956 3463 1253 3523 
Q 1550 3584 1831 3584 
Q 2591 3584 2966 3190 
Q 3341 2797 3341 1997 
z
" transform="scale(0.015625)"/>
       <path id="DejaVuSans-67" d="M 2906 1791 
Q 2906 2416 2648 2759 
Q 2391 3103 1925 3103 
Q 1463 3103 1205 2759 
Q 947 2416 947 1791 
Q 947 1169 1205 825 
Q 1463 481 1925 481 
Q 2391 481 2648 825 
Q 2906 1169 2906 1791 
z
M 3481 434 
Q 3481 -459 3084 -895 
Q 2688 -1331 1869 -1331 
Q 1566 -1331 1297 -1286 
Q 1028 -1241 775 -1147 
L 775 -588 
Q 1028 -725 1275 -790 
Q 1522 -856 1778 -856 
Q 2344 -856 2625 -561 
Q 2906 -266 2906 331 
L 2906 616 
Q 2728 306 2450 153 
Q 2172 0 1784 0 
Q 1141 0 747 490 
Q 353 981 353 1791 
Q 353 2603 747 3093 
Q 1141 3584 1784 3584 
Q 2172 3584 2450 3431 
Q 2728 3278 2906 2969 
L 2906 3500 
L 3481 3500 
L 3481 434 
z
" transform="scale(0.015625)"/>
       <path id="DejaVuSans-65" d="M 3597 1894 
L 3597 1613 
L 953 1613 
Q 991 1019 1311 708 
Q 1631 397 2203 397 
Q 2534 397 2845 478 
Q 3156 559 3463 722 
L 3463 178 
Q 3153 47 2828 -22 
Q 2503 -91 2169 -91 
Q 1331 -91 842 396 
Q 353 884 353 1716 
Q 353 2575 817 3079 
Q 1281 3584 2069 3584 
Q 2775 3584 3186 3129 
Q 3597 2675 3597 1894 
z
M 3022 2063 
Q 3016 2534 2758 2815 
Q 2500 3097 2075 3097 
Q 1594 3097 1305 2825 
Q 1016 2553 972 2059 
L 3022 2063 
z
" transform="scale(0.015625)"/>
      </defs>
      <use xlink:href="#DejaVuSans-4f"/>
      <use xlink:href="#DejaVuSans-75" x="78.710938"/>
      <use xlink:href="#DejaVuSans-74" x="142.089844"/>
      <use xlink:href="#DejaVuSans-70" x="181.298828"/>
      <use xlink:href="#DejaVuSans-75" x="244.775391"/>
      <use xlink:href="#DejaVuSans-74" x="308.154297"/>
      <use xlink:href="#DejaVuSans-20" x="347.363281"/>
      <use xlink:href="#DejaVuSans-56" x="379.150391"/>
      <use xlink:href="#DejaVuSans-6f" x="439.808594"/>
      <use xlink:href="#DejaVuSans-6c" x="500.990234"/>
      <use xlink:href="#DejaVuSans-74" x="528.773438"/>
      <use xlink:href="#DejaVuSans-61" x="567.982422"/>
      <use xlink:href="#DejaVuSans-67" x="629.261719"/>
      <use xlink:href="#DejaVuSans-65" x="692.738281"/>
     </g>
    </g>
   </g>
   <g id="line2d_13">
    <path d="M 82.77 291.674545 
L 82.799815 291.283292 
L 82.895225 285.047241 
L 83.175489 246.648907 
L 83.807576 166.771105 
L 84.272696 134.346789 
L 84.72589 116.739819 
L 84.946524 111.537709 
L 84.982302 112.255161 
L 85.0956 121.016808 
L 85.387791 141.373886 
L 85.405681 141.411517 
L 85.447422 141.190075 
L 85.566684 138.849689 
L 86.013914 123.554497 
L 86.532702 110.043786 
L 86.997822 103.237062 
L 87.451016 99.559536 
L 87.90421 97.526535 
L 88.36933 96.384496 
L 88.858303 95.742586 
L 89.418832 95.371796 
L 90.17018 95.158444 
L 91.470131 95.054937 
L 95.94244 95.032184 
L 110.241901 95.093704 
L 110.295568 97.115735 
L 110.450609 114.123444 
L 110.72491 137.978423 
L 110.784541 138.419753 
L 110.838209 138.07215 
L 110.981322 135.021595 
L 112.12027 105.735744 
L 112.579427 100.905826 
L 113.032621 98.270171 
L 113.491778 96.801773 
L 113.962861 95.983994 
L 114.022492 95.912129 
L 114.040382 96.034228 
L 114.129828 99.752822 
L 114.350462 104.11653 
L 114.439908 104.354126 
L 114.487612 104.295446 
L 114.624763 103.699796 
L 115.841231 97.145833 
L 116.312314 96.173142 
L 116.813213 95.622743 
L 117.409521 95.301565 
L 118.250315 95.121197 
L 119.878235 95.042568 
L 128.751295 95.032121 
L 151.094949 95.093704 
L 151.148616 97.115735 
L 151.303657 114.123444 
L 151.571995 137.017315 
L 151.631626 137.486936 
L 151.685294 137.171573 
L 151.828407 134.223503 
L 152.979281 105.374723 
L 153.438438 100.707009 
L 153.891632 98.160469 
L 154.350789 96.741804 
L 154.827836 95.944545 
L 155.352587 95.489397 
L 156.008525 95.224939 
L 157.022248 95.082884 
L 159.425369 95.034267 
L 192.407154 95.032121 
L 192.436969 95.451843 
L 192.568157 103.303158 
L 192.782828 108.52654 
L 192.854385 108.734361 
L 192.908052 108.624176 
L 193.057129 107.606521 
L 194.160299 98.54531 
L 194.625419 96.945767 
L 195.096502 96.062625 
L 195.609327 95.556902 
L 196.229487 95.264092 
L 197.141838 95.101913 
L 198.394084 95.066213 
L 198.429863 95.886911 
L 198.763795 105.694369 
L 198.829389 105.811464 
L 198.883057 105.714406 
L 199.038097 104.85489 
L 200.093561 97.935517 
L 200.558682 96.614521 
L 201.041691 95.871108 
L 201.578368 95.446178 
L 202.264122 95.200007 
L 203.361328 95.071721 
L 206.247458 95.033007 
L 250.940728 95.052791 
L 250.976507 95.874106 
L 251.089805 105.466985 
L 251.501258 142.134255 
L 251.537036 141.979257 
L 251.644372 140.04993 
L 251.984267 128.427728 
L 252.556723 111.773541 
L 253.021843 104.200881 
L 253.475037 100.093869 
L 253.92823 97.82129 
L 254.387387 96.55627 
L 254.870397 95.839145 
L 255.407074 95.43027 
L 256.104754 95.19103 
L 257.237739 95.067878 
L 260.356429 95.03271 
L 264.691586 95.093706 
L 264.745254 97.115737 
L 264.900294 114.123445 
L 265.168633 137.017316 
L 265.228263 137.486937 
L 265.281931 137.171574 
L 265.425045 134.223504 
L 266.575919 105.374723 
L 267.035076 100.707009 
L 267.48827 98.160469 
L 267.947427 96.741804 
L 268.424473 95.944545 
L 268.949224 95.489397 
L 269.605163 95.224939 
L 270.618886 95.082884 
L 273.022007 95.034267 
L 275.150825 95.093834 
L 275.204493 97.115856 
L 275.359533 114.123542 
L 275.598056 133.037982 
L 275.675576 133.731876 
L 275.723281 133.477298 
L 275.860432 130.986149 
L 277.064973 103.930349 
L 277.52413 99.911923 
L 277.977324 97.721808 
L 278.436481 96.502019 
L 278.919491 95.810435 
L 279.462131 95.413105 
L 280.171737 95.18181 
L 281.346464 95.064003 
L 284.757344 95.032479 
L 292.646497 95.093704 
L 292.735943 97.762968 
L 292.956577 100.724426 
L 293.063912 100.91078 
L 293.105654 100.871976 
L 293.25473 100.445722 
L 294.387715 96.491037 
L 294.876688 95.802041 
L 295.425291 95.406465 
L 296.14086 95.178086 
L 297.333476 95.062487 
L 300.875544 95.032408 
L 302.086049 95.093762 
L 302.139717 97.115789 
L 302.551169 117.48087 
L 302.563095 117.467878 
L 302.634652 117.078916 
L 302.831434 114.399455 
L 303.648376 102.564292 
L 304.113496 99.151944 
L 304.572653 97.288058 
L 305.037773 96.255737 
L 305.532708 95.669989 
L 306.111127 95.329997 
L 306.910179 95.136156 
L 308.38306 95.047086 
L 314.805295 95.032124 
L 329.540061 95.093704 
L 329.593728 97.115735 
L 329.957476 113.548063 
L 329.993255 113.601998 
L 330.040959 113.47454 
L 330.17811 112.270314 
L 331.376689 99.328331 
L 331.835846 97.388293 
L 332.300966 96.310615 
L 332.789938 95.703918 
L 333.356431 95.350814 
L 334.131631 95.146978 
L 335.515065 95.050707 
L 340.834131 95.032138 
L 341.102469 95.093716 
L 341.156137 97.115746 
L 341.358881 117.4291 
L 341.561626 124.161414 
L 341.591441 124.223673 
L 341.639146 124.033252 
L 341.776297 122.156847 
L 342.980839 101.746186 
L 343.439996 98.714134 
L 343.899153 97.045745 
L 344.370236 96.11541 
L 344.877098 95.587991 
L 345.485331 95.281708 
L 346.361904 95.110833 
L 348.126975 95.039828 
L 350.822286 95.123035 
L 351.054846 95.926852 
L 351.13833 96.199963 
L 351.353 96.862022 
L 351.43052 97.048821 
L 351.633265 97.583873 
L 351.728674 97.714867 
L 351.919493 98.113384 
L 352.056644 97.969418 
L 352.474059 97.026251 
L 352.593321 96.767634 
L 352.635062 96.920075 
L 352.825881 97.206247 
L 352.915327 97.286053 
L 353.112108 97.738343 
L 353.219444 97.837108 
L 353.404299 98.196137 
L 353.54145 98.042625 
L 353.976755 97.030643 
L 354.08409 96.794399 
L 354.125832 96.945296 
L 354.31665 97.225573 
L 354.39417 97.230584 
L 354.406096 97.303153 
L 354.602878 97.75145 
L 354.740029 97.642987 
L 355.10974 96.915251 
L 355.57486 96.109769 
L 355.586786 96.139506 
L 355.783567 96.686563 
L 355.908792 96.901932 
L 356.111537 97.391048 
L 356.19502 97.495799 
L 356.385838 97.952928 
L 356.499137 98.03933 
L 356.672066 98.372379 
L 356.678029 98.370816 
L 356.779401 98.312284 
L 356.803254 98.42787 
L 356.952331 98.673268 
L 356.976183 98.662026 
L 357.065629 98.545203 
L 357.107371 98.698312 
L 357.238558 98.883361 
L 357.268374 98.866363 
L 357.363783 98.722487 
L 357.411488 98.885421 
L 357.530749 99.027376 
L 357.566528 99.002515 
L 357.661937 98.842672 
L 357.709642 98.998334 
L 357.82294 99.126435 
L 357.858719 99.101136 
L 357.960091 98.923968 
L 358.013759 99.091008 
L 358.121094 99.192233 
L 358.156872 99.16391 
L 358.323839 98.805624 
L 358.562362 98.073994 
L 358.633919 98.248329 
L 358.747217 98.279075 
L 358.771069 98.2577 
L 358.854553 98.133833 
L 358.890331 98.265859 
L 359.039408 98.493539 
L 359.057297 98.485999 
L 359.152706 98.369757 
L 359.194448 98.526559 
L 359.331599 98.725847 
L 359.361414 98.709651 
L 359.45086 98.583497 
L 359.492602 98.733095 
L 359.62379 98.909605 
L 359.653605 98.891079 
L 359.749014 98.743068 
L 359.796719 98.90429 
L 359.91598 99.04273 
L 359.951759 99.016987 
L 360.047168 98.855095 
L 360.094873 99.009872 
L 360.208171 99.136166 
L 360.24395 99.110368 
L 360.345322 98.931946 
L 360.39899 99.098402 
L 360.506325 99.198597 
L 360.542104 99.169968 
L 360.70907 98.810447 
L 360.947593 98.077495 
L 361.01915 98.251511 
L 361.132448 98.281812 
L 361.156301 98.260351 
L 361.359045 97.877347 
L 362.223692 96.077899 
L 362.748443 95.560676 
L 363.368603 95.266188 
L 364.280954 95.102566 
L 366.189139 95.037834 
L 372.635226 95.093705 
L 372.688894 97.115736 
L 372.843934 114.123444 
L 373.100346 135.088429 
L 373.16594 135.613395 
L 373.219608 135.297297 
L 373.362722 132.457496 
L 374.501669 105.05457 
L 374.960826 100.532088 
L 375.41402 98.064146 
L 375.873177 96.689178 
L 375.932808 96.564092 
L 375.950697 96.671031 
L 376.016291 99.732105 
L 376.451596 131.670007 
L 376.535079 131.039928 
L 376.731861 126.692481 
L 377.554765 107.261358 
L 378.019886 101.720351 
L 378.473079 98.723184 
L 378.932237 97.049925 
L 379.40332 96.117551 
L 379.910181 95.589076 
L 380.518415 95.282193 
L 381.394988 95.110986 
L 383.160059 95.039843 
L 387.489254 95.077996 
L 387.709887 95.901482 
L 387.817223 96.237189 
L 388.031894 96.866188 
L 388.097488 97.01231 
L 388.300232 97.581921 
L 388.401605 97.714808 
L 388.592423 98.113338 
L 388.729574 97.96938 
L 389.146989 97.026228 
L 389.707519 96.032932 
L 390.232269 95.538094 
L 390.864356 95.252714 
L 391.806522 95.095955 
L 393.845895 95.036477 
L 400.148868 95.093705 
L 400.202536 97.115736 
L 400.625915 122.30383 
L 400.691508 122.029597 
L 400.846548 119.821359 
L 401.884124 102.517602 
L 402.343281 99.144835 
L 402.802438 97.282358 
L 403.267558 96.252393 
L 403.762494 95.668211 
L 404.340912 95.329163 
L 405.139965 95.135865 
L 406.612845 95.047044 
L 406.988519 95.102804 
L 407.042187 97.124215 
L 407.221079 115.89115 
L 407.429787 124.970095 
L 407.477491 125.18702 
L 407.531159 124.970517 
L 407.66831 123.003178 
L 408.526993 105.976998 
L 408.574698 107.279234 
L 408.932482 124.630794 
L 409.010002 124.194437 
L 409.194858 121.015505 
L 410.07143 104.477859 
L 410.53655 100.193516 
L 410.995707 97.857712 
L 411.454864 96.576693 
L 411.931911 95.856477 
L 412.468588 95.43883 
L 413.160305 95.195726 
L 413.977246 95.108601 
L 414.013025 95.927349 
L 414.269437 102.452674 
L 414.400625 102.902365 
L 414.43044 102.877932 
L 414.549702 102.505407 
L 414.955191 100.157456 
L 415.497831 97.666381 
L 415.974878 96.450594 
L 416.46385 95.778932 
L 417.012453 95.395018 
L 417.739949 95.171401 
L 418.968343 95.059763 
L 422.790676 95.032302 
L 428.837237 95.093704 
L 428.890905 97.115735 
L 429.218874 111.464897 
L 429.278505 111.658005 
L 429.338136 111.513958 
L 429.487213 110.26507 
L 430.578456 99.348991 
L 431.043576 97.383867 
L 431.508696 96.308561 
L 431.997668 95.702885 
L 432.564161 95.35033 
L 433.339361 95.146804 
L 434.722795 95.050679 
L 440.047824 95.032138 
L 504.729332 95.093704 
L 504.783 97.115735 
L 504.93804 114.123444 
L 505.176563 133.03791 
L 505.254083 133.731811 
L 505.301787 133.477237 
L 505.438938 130.986098 
L 506.64348 103.930339 
L 507.102637 99.911917 
L 507.555831 97.721805 
L 508.014988 96.502017 
L 508.497997 95.810434 
L 509.040637 95.413105 
L 509.750244 95.18181 
L 510.92497 95.064003 
L 514.335851 95.032479 
L 533.888784 95.122813 
L 534.121344 95.926689 
L 534.204827 96.199817 
L 534.419498 96.861912 
L 534.497018 97.048722 
L 534.699762 97.583796 
L 534.795172 97.7148 
L 534.98599 98.113332 
L 535.075436 98.087739 
L 535.093326 98.183254 
L 535.260292 98.492836 
L 535.272218 98.488689 
L 535.409369 98.303518 
L 535.928157 96.990122 
L 536.452907 96.046564 
L 536.977658 95.544038 
L 537.603781 95.256969 
L 538.534022 95.098212 
L 540.52569 95.036923 
L 558.933712 95.032121 
L 593.531491 95.093704 
L 593.585159 97.115735 
L 593.740199 114.123444 
L 594.032389 140.847039 
L 594.080094 141.208138 
L 594.139725 140.8291 
L 594.282839 137.569745 
L 595.415824 106.50139 
L 595.874981 101.326413 
L 596.328174 98.502093 
L 596.787332 96.928531 
L 597.258415 96.052176 
L 597.771239 95.551428 
L 598.3914 95.261656 
L 599.309714 95.100639 
L 601.253677 95.037422 
L 609.66758 95.052791 
L 609.703359 95.874106 
L 609.816657 105.466985 
L 610.168479 134.56519 
L 610.198294 134.674188 
L 610.251962 134.389123 
L 610.389113 131.802182 
L 611.581728 104.261419 
L 612.040885 100.094028 
L 612.494079 97.822259 
L 612.953236 96.556925 
L 613.436246 95.839509 
L 613.972923 95.430452 
L 614.670603 95.191103 
L 615.803588 95.067895 
L 618.922277 95.032711 
L 639.125186 95.093704 
L 639.387561 96.868529 
L 639.560491 96.984271 
L 639.763235 96.780205 
L 640.753106 95.586294 
L 641.373266 95.278731 
L 642.261765 95.108774 
L 644.062615 95.039281 
L 656.656636 95.032121 
L 658.821233 95.093704 
L 658.874901 97.115735 
L 659.029941 114.123444 
L 659.328095 141.797987 
L 659.375799 142.134255 
L 659.429467 141.793898 
L 659.566618 138.717737 
L 660.759233 105.996322 
L 661.21839 101.045545 
L 661.671584 98.346736 
L 662.130741 96.843551 
L 662.601824 96.006456 
L 663.114649 95.528151 
L 663.746735 95.247952 
L 664.694865 95.094068 
L 666.775979 95.036122 
L 679.37 95.032121 
L 679.37 95.032121 
" clip-path="url(#pc22b8fa295)" style="fill: none; stroke: #ff4500; stroke-width: 1.5; stroke-linecap: square"/>
   </g>
   <g id="patch_3">
    <path d="M 52.94 301.506667 
L 52.94 85.2 
" style="fill: none; stroke: #000000; stroke-width: 0.8; stroke-linejoin: miter; stroke-linecap: square"/>
   </g>
   <g id="patch_4">
    <path d="M 709.2 301.506667 
L 709.2 85.2 
" style="fill: none; stroke: #000000; stroke-width: 0.8; stroke-linejoin: miter; stroke-linecap: square"/>
   </g>
   <g id="patch_5">
    <path d="M 52.94 301.506667 
L 709.2 301.506667 
" style="fill: none; stroke: #000000; stroke-width: 0.8; stroke-linejoin: miter; stroke-linecap: square"/>
   </g>
   <g id="patch_6">
    <path d="M 52.94 85.2 
L 709.2 85.2 
" style="fill: none; stroke: #000000; stroke-width: 0.8; stroke-linejoin: miter; stroke-linecap: square"/>
   </g>
   <g id="text_14">
    <!-- Output Voltage -->
    <g transform="translate(335.814062 79.2) scale(0.12 -0.12)">
     <use xlink:href="#DejaVuSans-4f"/>
     <use xlink:href="#DejaVuSans-75" x="78.710938"/>
     <use xlink:href="#DejaVuSans-74" x="142.089844"/>
     <use xlink:href="#DejaVuSans-70" x="181.298828"/>
     <use xlink:href="#DejaVuSans-75" x="244.775391"/>
     <use xlink:href="#DejaVuSans-74" x="308.154297"/>
     <use xlink:href="#DejaVuSans-20" x="347.363281"/>
     <use xlink:href="#DejaVuSans-56" x="379.150391"/>
     <use xlink:href="#DejaVuSans-6f" x="439.808594"/>
     <use xlink:href="#DejaVuSans-6c" x="500.990234"/>
     <use xlink:href="#DejaVuSans-74" x="528.773438"/>
     <use xlink:href="#DejaVuSans-61" x="567.982422"/>
     <use xlink:href="#DejaVuSans-67" x="629.261719"/>
     <use xlink:href="#DejaVuSans-65" x="692.738281"/>
    </g>
   </g>
  </g>
  <g id="axes_2">
   <g id="patch_7">
    <path d="M 52.94 561.773333 
L 709.2 561.773333 
L 709.2 345.466667 
L 52.94 345.466667 
z
" style="fill: #ffffff"/>
   </g>
   <g id="matplotlib.axis_3">
    <g id="xtick_7">
     <g id="line2d_14">
      <g>
       <use xlink:href="#mf5bc116dcd" x="82.77" y="561.773333" style="stroke: #000000; stroke-width: 0.8"/>
      </g>
     </g>
     <g id="text_15">
      <!-- 0.0 -->
      <g transform="translate(74.818438 576.371771) scale(0.1 -0.1)">
       <use xlink:href="#DejaVuSans-30"/>
       <use xlink:href="#DejaVuSans-2e" x="63.623047"/>
       <use xlink:href="#DejaVuSans-30" x="95.410156"/>
      </g>
     </g>
    </g>
    <g id="xtick_8">
     <g id="line2d_15">
      <g>
       <use xlink:href="#mf5bc116dcd" x="202.031562" y="561.773333" style="stroke: #000000; stroke-width: 0.8"/>
      </g>
     </g>
     <g id="text_16">
      <!-- 0.2 -->
      <g transform="translate(194.079999 576.371771) scale(0.1 -0.1)">
       <use xlink:href="#DejaVuSans-30"/>
       <use xlink:href="#DejaVuSans-2e" x="63.623047"/>
       <use xlink:href="#DejaVuSans-32" x="95.410156"/>
      </g>
     </g>
    </g>
    <g id="xtick_9">
     <g id="line2d_16">
      <g>
       <use xlink:href="#mf5bc116dcd" x="321.293124" y="561.773333" style="stroke: #000000; stroke-width: 0.8"/>
      </g>
     </g>
     <g id="text_17">
      <!-- 0.4 -->
      <g transform="translate(313.341561 576.371771) scale(0.1 -0.1)">
       <use xlink:href="#DejaVuSans-30"/>
       <use xlink:href="#DejaVuSans-2e" x="63.623047"/>
       <use xlink:href="#DejaVuSans-34" x="95.410156"/>
      </g>
     </g>
    </g>
    <g id="xtick_10">
     <g id="line2d_17">
      <g>
       <use xlink:href="#mf5bc116dcd" x="440.554686" y="561.773333" style="stroke: #000000; stroke-width: 0.8"/>
      </g>
     </g>
     <g id="text_18">
      <!-- 0.6 -->
      <g transform="translate(432.603123 576.371771) scale(0.1 -0.1)">
       <use xlink:href="#DejaVuSans-30"/>
       <use xlink:href="#DejaVuSans-2e" x="63.623047"/>
       <use xlink:href="#DejaVuSans-36" x="95.410156"/>
      </g>
     </g>
    </g>
    <g id="xtick_11">
     <g id="line2d_18">
      <g>
       <use xlink:href="#mf5bc116dcd" x="559.816247" y="561.773333" style="stroke: #000000; stroke-width: 0.8"/>
      </g>
     </g>
     <g id="text_19">
      <!-- 0.8 -->
      <g transform="translate(551.864685 576.371771) scale(0.1 -0.1)">
       <use xlink:href="#DejaVuSans-30"/>
       <use xlink:href="#DejaVuSans-2e" x="63.623047"/>
       <use xlink:href="#DejaVuSans-38" x="95.410156"/>
      </g>
     </g>
    </g>
    <g id="xtick_12">
     <g id="line2d_19">
      <g>
       <use xlink:href="#mf5bc116dcd" x="679.077809" y="561.773333" style="stroke: #000000; stroke-width: 0.8"/>
      </g>
     </g>
     <g id="text_20">
      <!-- 1.0 -->
      <g transform="translate(671.126247 576.371771) scale(0.1 -0.1)">
       <use xlink:href="#DejaVuSans-31"/>
       <use xlink:href="#DejaVuSans-2e" x="63.623047"/>
       <use xlink:href="#DejaVuSans-30" x="95.410156"/>
      </g>
     </g>
    </g>
   </g>
   <g id="matplotlib.axis_4">
    <g id="ytick_7">
     <g id="line2d_20">
      <defs>
       <path id="md3d444e43b" d="M 0 0 
L -3.5 0 
" style="stroke: #4682b4; stroke-width: 0.8"/>
      </defs>
      <g>
       <use xlink:href="#md3d444e43b" x="52.94" y="553.867512" style="fill: #4682b4; stroke: #4682b4; stroke-width: 0.8"/>
      </g>
     </g>
     <g id="text_21">
      <!-- 0.0 -->
      <g style="fill: #4682b4" transform="translate(30.036875 557.666731) scale(0.1 -0.1)">
       <use xlink:href="#DejaVuSans-30"/>
       <use xlink:href="#DejaVuSans-2e" x="63.623047"/>
       <use xlink:href="#DejaVuSans-30" x="95.410156"/>
      </g>
     </g>
    </g>
    <g id="ytick_8">
     <g id="line2d_21">
      <g>
       <use xlink:href="#md3d444e43b" x="52.94" y="514.153767" style="fill: #4682b4; stroke: #4682b4; stroke-width: 0.8"/>
      </g>
     </g>
     <g id="text_22">
      <!-- 0.2 -->
      <g style="fill: #4682b4" transform="translate(30.036875 517.952986) scale(0.1 -0.1)">
       <use xlink:href="#DejaVuSans-30"/>
       <use xlink:href="#DejaVuSans-2e" x="63.623047"/>
       <use xlink:href="#DejaVuSans-32" x="95.410156"/>
      </g>
     </g>
    </g>
    <g id="ytick_9">
     <g id="line2d_22">
      <g>
       <use xlink:href="#md3d444e43b" x="52.94" y="474.440022" style="fill: #4682b4; stroke: #4682b4; stroke-width: 0.8"/>
      </g>
     </g>
     <g id="text_23">
      <!-- 0.4 -->
      <g style="fill: #4682b4" transform="translate(30.036875 478.239241) scale(0.1 -0.1)">
       <use xlink:href="#DejaVuSans-30"/>
       <use xlink:href="#DejaVuSans-2e" x="63.623047"/>
       <use xlink:href="#DejaVuSans-34" x="95.410156"/>
      </g>
     </g>
    </g>
    <g id="ytick_10">
     <g id="line2d_23">
      <g>
       <use xlink:href="#md3d444e43b" x="52.94" y="434.726278" style="fill: #4682b4; stroke: #4682b4; stroke-width: 0.8"/>
      </g>
     </g>
     <g id="text_24">
      <!-- 0.6 -->
      <g style="fill: #4682b4" transform="translate(30.036875 438.525496) scale(0.1 -0.1)">
       <use xlink:href="#DejaVuSans-30"/>
       <use xlink:href="#DejaVuSans-2e" x="63.623047"/>
       <use xlink:href="#DejaVuSans-36" x="95.410156"/>
      </g>
     </g>
    </g>
    <g id="ytick_11">
     <g id="line2d_24">
      <g>
       <use xlink:href="#md3d444e43b" x="52.94" y="395.012533" style="fill: #4682b4; stroke: #4682b4; stroke-width: 0.8"/>
      </g>
     </g>
     <g id="text_25">
      <!-- 0.8 -->
      <g style="fill: #4682b4" transform="translate(30.036875 398.811751) scale(0.1 -0.1)">
       <use xlink:href="#DejaVuSans-30"/>
       <use xlink:href="#DejaVuSans-2e" x="63.623047"/>
       <use xlink:href="#DejaVuSans-38" x="95.410156"/>
      </g>
     </g>
    </g>
    <g id="ytick_12">
     <g id="line2d_25">
      <g>
       <use xlink:href="#md3d444e43b" x="52.94" y="355.298788" style="fill: #4682b4; stroke: #4682b4; stroke-width: 0.8"/>
      </g>
     </g>
     <g id="text_26">
      <!-- 1.0 -->
      <g style="fill: #4682b4" transform="translate(30.036875 359.098007) scale(0.1 -0.1)">
       <use xlink:href="#DejaVuSans-31"/>
       <use xlink:href="#DejaVuSans-2e" x="63.623047"/>
       <use xlink:href="#DejaVuSans-30" x="95.410156"/>
      </g>
     </g>
    </g>
    <g id="text_27">
     <!-- Duty Cycle -->
     <g style="fill: #4682b4" transform="translate(23.957187 480.812969) rotate(-90) scale(0.1 -0.1)">
      <defs>
       <path id="DejaVuSans-44" d="M 1259 4147 
L 1259 519 
L 2022 519 
Q 2988 519 3436 956 
Q 3884 1394 3884 2338 
Q 3884 3275 3436 3711 
Q 2988 4147 2022 4147 
L 1259 4147 
z
M 628 4666 
L 1925 4666 
Q 3281 4666 3915 4102 
Q 4550 3538 4550 2338 
Q 4550 1131 3912 565 
Q 3275 0 1925 0 
L 628 0 
L 628 4666 
z
" transform="scale(0.015625)"/>
       <path id="DejaVuSans-79" d="M 2059 -325 
Q 1816 -950 1584 -1140 
Q 1353 -1331 966 -1331 
L 506 -1331 
L 506 -850 
L 844 -850 
Q 1081 -850 1212 -737 
Q 1344 -625 1503 -206 
L 1606 56 
L 191 3500 
L 800 3500 
L 1894 763 
L 2988 3500 
L 3597 3500 
L 2059 -325 
z
" transform="scale(0.015625)"/>
       <path id="DejaVuSans-43" d="M 4122 4306 
L 4122 3641 
Q 3803 3938 3442 4084 
Q 3081 4231 2675 4231 
Q 1875 4231 1450 3742 
Q 1025 3253 1025 2328 
Q 1025 1406 1450 917 
Q 1875 428 2675 428 
Q 3081 428 3442 575 
Q 3803 722 4122 1019 
L 4122 359 
Q 3791 134 3420 21 
Q 3050 -91 2638 -91 
Q 1578 -91 968 557 
Q 359 1206 359 2328 
Q 359 3453 968 4101 
Q 1578 4750 2638 4750 
Q 3056 4750 3426 4639 
Q 3797 4528 4122 4306 
z
" transform="scale(0.015625)"/>
       <path id="DejaVuSans-63" d="M 3122 3366 
L 3122 2828 
Q 2878 2963 2633 3030 
Q 2388 3097 2138 3097 
Q 1578 3097 1268 2742 
Q 959 2388 959 1747 
Q 959 1106 1268 751 
Q 1578 397 2138 397 
Q 2388 397 2633 464 
Q 2878 531 3122 666 
L 3122 134 
Q 2881 22 2623 -34 
Q 2366 -91 2075 -91 
Q 1284 -91 818 406 
Q 353 903 353 1747 
Q 353 2603 823 3093 
Q 1294 3584 2113 3584 
Q 2378 3584 2631 3529 
Q 2884 3475 3122 3366 
z
" transform="scale(0.015625)"/>
      </defs>
      <use xlink:href="#DejaVuSans-44"/>
      <use xlink:href="#DejaVuSans-75" x="77.001953"/>
      <use xlink:href="#DejaVuSans-74" x="140.380859"/>
      <use xlink:href="#DejaVuSans-79" x="179.589844"/>
      <use xlink:href="#DejaVuSans-20" x="238.769531"/>
      <use xlink:href="#DejaVuSans-43" x="270.556641"/>
      <use xlink:href="#DejaVuSans-79" x="340.380859"/>
      <use xlink:href="#DejaVuSans-63" x="399.560547"/>
      <use xlink:href="#DejaVuSans-6c" x="454.541016"/>
      <use xlink:href="#DejaVuSans-65" x="482.324219"/>
     </g>
    </g>
   </g>
   <g id="line2d_26">
    <path d="M 82.77 355.298788 
L 84.851114 355.298788 
L 84.964413 513.737805 
L 85.149268 513.737805 
L 85.262567 355.298788 
L 95.882809 355.298788 
L 95.996107 355.595956 
L 96.479117 355.576815 
L 96.592415 356.040434 
L 96.77727 356.040434 
L 96.890569 355.692483 
L 97.075424 355.692483 
L 97.188723 355.298788 
L 97.373578 355.298788 
L 97.486877 355.410717 
L 97.969886 355.439523 
L 98.083185 355.298788 
L 100.653271 355.305792 
L 100.76657 355.498247 
L 100.951425 355.498247 
L 101.064724 355.298788 
L 110.194196 355.298788 
L 110.307495 537.252421 
L 110.49235 537.252421 
L 110.605649 355.298788 
L 113.772043 355.298788 
L 113.885341 391.678113 
L 114.070197 391.678113 
L 114.183495 355.298788 
L 151.041281 355.298788 
L 151.15458 532.066762 
L 151.339435 532.066762 
L 151.452733 355.298788 
L 192.18652 355.298788 
L 192.299818 413.637388 
L 192.484674 413.637388 
L 192.597972 355.298788 
L 198.149598 355.298788 
L 198.262896 401.430261 
L 198.447752 401.430261 
L 198.56105 355.298788 
L 206.796061 355.298788 
L 206.90936 355.646818 
L 207.094215 355.646818 
L 207.207514 355.345173 
L 208.286831 355.298788 
L 208.400129 355.789519 
L 208.584985 355.789519 
L 208.698283 357.025998 
L 208.883139 357.025998 
L 208.996437 357.532502 
L 209.181292 357.532502 
L 209.294591 357.006548 
L 209.479446 357.006548 
L 209.592745 356.399072 
L 209.7776 356.399072 
L 209.890899 356.931436 
L 210.075754 356.931436 
L 210.189053 356.226517 
L 210.373908 356.226517 
L 210.487207 356.0044 
L 210.672062 356.0044 
L 210.78536 355.423303 
L 210.970216 355.423303 
L 211.083514 355.643677 
L 211.26837 355.643677 
L 211.381668 355.997852 
L 211.566524 355.997852 
L 211.679822 356.624595 
L 211.864678 356.624595 
L 211.977976 356.820907 
L 212.162832 356.820907 
L 212.27613 357.37293 
L 212.759139 357.315119 
L 212.872438 356.317496 
L 213.057293 356.317496 
L 213.170592 355.688299 
L 213.355447 355.688299 
L 213.468746 356.26002 
L 213.653601 356.26002 
L 213.7669 356.65651 
L 213.951755 356.65651 
L 214.065053 357.35752 
L 214.249909 357.35752 
L 214.363207 356.693084 
L 214.548063 356.693084 
L 214.661361 357.416009 
L 214.846217 357.416009 
L 214.959515 357.684201 
L 215.144371 357.684201 
L 215.257669 357.146176 
L 215.442524 357.146176 
L 215.555823 358.183843 
L 215.740678 358.183843 
L 215.853977 357.858215 
L 216.038832 357.858215 
L 216.152131 357.238501 
L 216.336986 357.238501 
L 216.450285 356.763142 
L 216.933294 356.824164 
L 217.046592 356.205952 
L 217.529602 356.162686 
L 217.6429 355.298788 
L 217.827756 355.298788 
L 217.941054 355.636139 
L 218.12591 355.636139 
L 218.239208 355.298788 
L 229.455758 355.298788 
L 229.569056 355.986911 
L 229.753912 355.986911 
L 229.86721 355.662391 
L 230.35022 355.588841 
L 230.463518 355.455867 
L 230.648374 355.455867 
L 230.761672 355.298788 
L 238.996683 355.398635 
L 239.109981 355.825777 
L 239.294837 355.825777 
L 239.408135 355.298788 
L 241.08376 355.298788 
L 241.197059 355.583451 
L 241.381914 355.583451 
L 241.495213 355.298788 
L 242.57453 355.298788 
L 242.687828 356.0494 
L 242.872684 356.0494 
L 242.985982 355.90939 
L 243.170838 355.90939 
L 243.284136 356.161976 
L 243.468991 356.161976 
L 243.58229 356.308104 
L 243.767145 356.308104 
L 243.880444 355.470365 
L 244.363453 355.472066 
L 244.476752 356.51843 
L 244.959761 356.543088 
L 245.07306 355.348624 
L 245.257915 355.348624 
L 245.371213 355.585035 
L 245.556069 355.585035 
L 245.669367 356.46367 
L 246.152377 356.502044 
L 246.265675 356.094002 
L 246.450531 356.094002 
L 246.563829 355.298788 
L 246.748684 355.298788 
L 246.861983 355.823403 
L 247.344992 355.786422 
L 247.458291 356.270017 
L 247.643146 356.270017 
L 247.756445 355.74261 
L 247.9413 355.74261 
L 248.054599 355.434029 
L 248.239454 355.434029 
L 248.352752 356.268511 
L 248.835762 356.306808 
L 248.94906 357.201506 
L 249.133916 357.201506 
L 249.247214 357.988281 
L 249.43207 357.988281 
L 249.545368 358.103852 
L 249.730223 358.103852 
L 249.843522 358.413791 
L 250.028377 358.413791 
L 250.141676 358.226588 
L 250.326531 358.226588 
L 250.43983 357.877984 
L 250.624685 357.877984 
L 250.737984 358.256785 
L 250.922839 358.256785 
L 251.036138 551.427858 
L 251.220993 551.427858 
L 251.334291 357.497418 
L 251.817301 357.512588 
L 251.930599 357.747986 
L 252.115455 357.747986 
L 252.228753 357.261271 
L 252.711763 357.324648 
L 252.825061 356.587463 
L 253.009916 356.587463 
L 253.123215 356.947782 
L 253.606224 356.997576 
L 253.719523 356.624996 
L 253.904378 356.624996 
L 254.017677 355.839756 
L 254.202532 355.839756 
L 254.315831 355.410336 
L 254.500686 355.410336 
L 254.613984 355.298788 
L 254.79884 355.298788 
L 254.912138 356.061513 
L 255.096994 356.061513 
L 255.210292 355.741506 
L 255.395148 355.741506 
L 255.508446 355.298788 
L 264.637919 355.298788 
L 264.751217 532.78113 
L 264.936073 532.78113 
L 265.049371 355.298788 
L 275.073305 355.298788 
L 275.186604 516.532229 
L 275.371459 516.532229 
L 275.484758 355.298788 
L 292.366232 355.298788 
L 292.47953 379.451491 
L 292.664386 379.451491 
L 292.777684 355.298788 
L 301.907157 355.298788 
L 302.020455 450.537794 
L 302.205311 450.537794 
L 302.318609 355.298788 
L 303.69608 355.298788 
L 303.809379 356.064331 
L 303.994234 356.064331 
L 304.107533 355.812514 
L 304.590542 355.792672 
L 304.70384 355.656832 
L 305.18685 355.548158 
L 305.300148 355.298788 
L 308.466543 355.376909 
L 308.579841 355.874276 
L 309.062851 355.938504 
L 309.176149 356.567617 
L 309.659158 356.65745 
L 309.772457 356.838869 
L 310.255466 356.887228 
L 310.368765 356.340606 
L 310.55362 356.340606 
L 310.666919 355.954965 
L 310.851774 355.954965 
L 310.965072 355.298788 
L 311.149928 355.298788 
L 311.263226 356.056754 
L 311.448082 356.056754 
L 311.56138 355.298788 
L 312.342543 355.298788 
L 312.455842 355.526549 
L 312.640697 355.526549 
L 312.753996 356.110858 
L 312.938851 356.110858 
L 313.05215 355.75405 
L 313.237005 355.75405 
L 313.350304 356.330672 
L 313.535159 356.330672 
L 313.648458 357.016368 
L 313.833313 357.016368 
L 313.946611 356.651016 
L 314.429621 356.643232 
L 314.542919 356.270542 
L 315.025929 356.213624 
L 315.139227 356.807296 
L 315.324082 356.807296 
L 315.437381 357.414116 
L 315.622236 357.414116 
L 315.735535 356.489099 
L 315.92039 356.489099 
L 316.033689 356.234343 
L 316.516698 356.130111 
L 316.629997 356.389775 
L 316.814852 356.389775 
L 316.928151 356.004811 
L 317.113006 356.004811 
L 317.226304 356.76435 
L 317.709314 356.728561 
L 317.822612 356.458345 
L 318.007468 356.458345 
L 318.120766 356.620797 
L 318.305622 356.620797 
L 318.41892 356.00723 
L 318.603775 356.00723 
L 318.717074 356.439109 
L 318.901929 356.439109 
L 319.015228 356.004149 
L 319.200083 356.004149 
L 319.313382 355.667382 
L 319.796391 355.589668 
L 319.90969 355.298788 
L 326.952085 355.298788 
L 327.065383 355.638198 
L 327.250239 355.638198 
L 327.363537 355.367712 
L 329.337316 355.298788 
L 329.450614 433.843008 
L 329.63547 433.843008 
L 329.748768 355.298788 
L 332.617009 355.298788 
L 332.730307 355.607598 
L 332.915163 355.607598 
L 333.028461 355.919917 
L 333.213317 355.919917 
L 333.326615 355.298788 
L 333.511471 355.298788 
L 333.624769 356.009404 
L 333.809625 356.009404 
L 333.922923 355.402297 
L 334.107778 355.402297 
L 334.221077 355.660491 
L 334.405932 355.660491 
L 334.519231 355.298788 
L 335.598548 355.298788 
L 335.711846 355.424282 
L 335.896702 355.424282 
L 336.01 355.298788 
L 338.878241 355.298788 
L 338.991539 355.635437 
L 339.176395 355.635437 
L 339.289693 355.298788 
L 340.667164 355.298788 
L 340.780463 355.438786 
L 340.965318 355.438786 
L 341.078617 476.146816 
L 341.263472 476.146816 
L 341.376771 355.298788 
L 344.543165 355.298788 
L 344.656464 355.546364 
L 344.841319 355.546364 
L 344.954618 356.222592 
L 345.139473 356.222592 
L 345.252771 356.484832 
L 345.437627 356.484832 
L 345.550925 356.750738 
L 345.735781 356.750738 
L 345.849079 356.462882 
L 346.033935 356.462882 
L 346.147233 356.735213 
L 346.332089 356.735213 
L 346.445387 356.40012 
L 346.630242 356.40012 
L 346.743541 356.928123 
L 347.22655 357.03456 
L 347.339849 356.581286 
L 347.524704 356.581286 
L 347.638003 357.747944 
L 348.121012 357.665731 
L 348.23431 358.035274 
L 348.419166 358.035274 
L 348.532464 358.478187 
L 348.71732 358.478187 
L 348.830618 358.966106 
L 349.015474 358.966106 
L 349.128772 359.117628 
L 349.313628 359.117628 
L 349.426926 358.643734 
L 349.611782 358.643734 
L 349.72508 358.458339 
L 349.909935 358.458339 
L 350.023234 358.337097 
L 350.506243 358.397709 
L 350.619542 359.278985 
L 350.804397 359.278985 
L 350.917696 359.430115 
L 351.400705 359.530207 
L 351.514003 359.563623 
L 351.698859 359.563623 
L 351.812157 358.775413 
L 351.997013 358.775413 
L 352.110311 358.969228 
L 352.295167 358.969228 
L 352.408465 360.03793 
L 352.593321 360.03793 
L 352.706619 359.673826 
L 352.891474 359.673826 
L 353.004773 360.148903 
L 353.189628 360.148903 
L 353.302927 358.836481 
L 353.487782 358.836481 
L 353.601081 359.091858 
L 353.785936 359.091858 
L 353.899235 359.375952 
L 354.382244 359.48457 
L 354.495542 358.998712 
L 354.680398 358.998712 
L 354.793696 358.74429 
L 355.276706 358.818046 
L 355.390004 359.377539 
L 355.57486 359.377539 
L 355.688158 359.64075 
L 355.873014 359.64075 
L 355.986312 360.097249 
L 356.171167 360.097249 
L 356.284466 359.45505 
L 356.767475 359.562075 
L 356.886737 359.589601 
L 357.363783 359.492913 
L 357.477082 359.415429 
L 357.960091 359.316104 
L 358.073389 358.899306 
L 358.258245 358.899306 
L 358.371543 359.879155 
L 358.556399 359.879155 
L 358.669697 360.029929 
L 358.854553 360.029929 
L 358.967851 359.911585 
L 359.152706 359.911585 
L 359.266005 360.611823 
L 359.45086 360.611823 
L 359.564159 359.696703 
L 360.345322 359.74311 
L 360.458621 358.974134 
L 360.643476 358.974134 
L 360.756774 359.356203 
L 360.94163 359.356203 
L 361.054928 358.697896 
L 361.239784 358.697896 
L 361.353082 359.060587 
L 361.537938 359.060587 
L 361.651236 358.571646 
L 361.836092 358.571646 
L 361.94939 358.284242 
L 362.134246 358.284242 
L 362.247544 357.776994 
L 362.730553 357.831143 
L 362.843852 357.947622 
L 363.326861 357.994597 
L 363.44016 357.657843 
L 363.625015 357.657843 
L 363.738314 357.876663 
L 363.923169 357.876663 
L 364.036467 357.196491 
L 364.221323 357.196491 
L 364.334621 356.574706 
L 364.519477 356.574706 
L 364.632775 355.71575 
L 364.817631 355.71575 
L 364.930929 356.089324 
L 365.115785 356.089324 
L 365.229083 356.929569 
L 365.413938 356.929569 
L 365.527237 355.732411 
L 365.712092 355.732411 
L 365.825391 356.153138 
L 366.010246 356.153138 
L 366.123545 355.794992 
L 366.606554 355.787909 
L 366.719853 356.063492 
L 367.202862 356.070517 
L 367.31616 355.885268 
L 367.501016 355.885268 
L 367.614314 356.176334 
L 367.79917 356.176334 
L 367.912468 356.044665 
L 368.097324 356.044665 
L 368.210622 356.359523 
L 368.395478 356.359523 
L 368.508776 356.691754 
L 368.693631 356.691754 
L 368.80693 357.365436 
L 369.289939 357.462619 
L 369.403238 357.201053 
L 369.588093 357.201053 
L 369.701392 358.117112 
L 370.184401 358.15792 
L 370.297699 358.618696 
L 370.482555 358.618696 
L 370.595853 357.751387 
L 371.078863 357.694095 
L 371.192161 356.715018 
L 371.377017 356.715018 
L 371.490315 356.867569 
L 371.67517 356.867569 
L 371.788469 357.043857 
L 371.973324 357.043857 
L 372.086623 357.52842 
L 372.569632 357.561029 
L 372.682931 525.804732 
L 372.867786 525.804732 
L 372.981085 357.33735 
L 373.464094 357.438483 
L 373.577392 358.012711 
L 373.762248 358.012711 
L 373.875546 358.521806 
L 374.060402 358.521806 
L 374.1737 358.932962 
L 374.358556 358.932962 
L 374.471854 358.514077 
L 374.65671 358.514077 
L 374.770008 358.674158 
L 374.954863 358.674158 
L 375.068162 357.707052 
L 375.253017 357.707052 
L 375.366316 358.080211 
L 375.551171 358.080211 
L 375.66447 358.39787 
L 375.849325 358.39787 
L 375.962624 503.372472 
L 376.147479 503.372472 
L 376.260778 357.904606 
L 376.445633 357.904606 
L 376.558931 357.018597 
L 376.743787 357.018597 
L 376.857085 357.351826 
L 377.041941 357.351826 
L 377.155239 357.108218 
L 377.340095 357.108218 
L 377.453393 357.479903 
L 378.234556 357.444818 
L 378.347855 357.197596 
L 378.53271 357.197596 
L 378.646009 357.044684 
L 378.830864 357.044684 
L 378.944163 357.564979 
L 379.129018 357.564979 
L 379.242317 357.902508 
L 379.427172 357.902508 
L 379.54047 357.058408 
L 380.321634 356.963349 
L 380.434932 357.222744 
L 380.619788 357.222744 
L 380.733086 357.029858 
L 380.917942 357.029858 
L 381.03124 356.710757 
L 381.514249 356.66989 
L 381.627548 357.019021 
L 381.812403 357.019021 
L 381.925702 356.839149 
L 382.110557 356.839149 
L 382.223856 356.595265 
L 382.408711 356.595265 
L 382.52201 356.038526 
L 382.706865 356.038526 
L 382.820163 355.424763 
L 383.005019 355.424763 
L 383.118317 355.892944 
L 383.303173 355.892944 
L 383.416471 356.181088 
L 383.601327 356.181088 
L 383.714625 355.298788 
L 384.197634 355.298788 
L 384.310933 355.464638 
L 384.495788 355.464638 
L 384.609087 355.338543 
L 384.793942 355.338543 
L 384.907241 355.969231 
L 385.092096 355.969231 
L 385.205395 356.285372 
L 385.39025 356.285372 
L 385.503549 356.620183 
L 385.688404 356.620183 
L 385.801702 357.382728 
L 385.986558 357.382728 
L 386.099856 357.652729 
L 386.284712 357.652729 
L 386.39801 357.238025 
L 386.582866 357.238025 
L 386.696164 358.694069 
L 386.88102 358.694069 
L 386.994318 358.830783 
L 387.179174 358.830783 
L 387.292472 360.320787 
L 387.477327 360.320787 
L 387.590626 360.102189 
L 387.775481 360.102189 
L 387.88878 359.931533 
L 388.073635 359.931533 
L 388.186934 359.572688 
L 388.371789 359.572688 
L 388.485088 358.805748 
L 388.669943 358.805748 
L 388.783242 359.213703 
L 388.968097 359.213703 
L 389.081395 358.893876 
L 389.266251 358.893876 
L 389.379549 358.131729 
L 389.564405 358.131729 
L 389.677703 357.389954 
L 389.862559 357.389954 
L 389.975857 357.748118 
L 390.160713 357.748118 
L 390.274011 357.540877 
L 390.458866 357.540877 
L 390.572165 358.146007 
L 390.75702 358.146007 
L 390.870319 357.28209 
L 391.055174 357.28209 
L 391.168473 355.704727 
L 391.353328 355.704727 
L 391.466627 355.588149 
L 391.651482 355.588149 
L 391.764781 356.944734 
L 391.949636 356.944734 
L 392.062934 357.288297 
L 392.545944 357.393297 
L 392.659242 356.603083 
L 392.844098 356.603083 
L 392.957396 356.780248 
L 393.142252 356.780248 
L 393.25555 357.223953 
L 393.440406 357.223953 
L 393.553704 357.863184 
L 393.738559 357.863184 
L 393.851858 357.28038 
L 394.334867 357.353199 
L 394.448166 356.914144 
L 394.931175 356.863597 
L 395.044474 356.363686 
L 395.229329 356.363686 
L 395.342627 356.152016 
L 395.527483 356.152016 
L 395.640781 356.572306 
L 395.825637 356.572306 
L 395.938935 356.20049 
L 396.123791 356.20049 
L 396.237089 357.184677 
L 396.421945 357.184677 
L 396.535243 356.811101 
L 396.720098 356.811101 
L 396.833397 357.650407 
L 397.018252 357.650407 
L 397.131551 358.123952 
L 397.316406 358.123952 
L 397.429705 357.802971 
L 397.61456 357.802971 
L 397.727859 357.290965 
L 398.210868 357.317851 
L 398.324166 356.810744 
L 398.509022 356.810744 
L 398.62232 357.989347 
L 399.10533 358.006345 
L 399.218628 357.844833 
L 399.403484 357.844833 
L 399.516782 357.964542 
L 399.999791 358.038652 
L 400.11309 469.37559 
L 400.297945 469.37559 
L 400.411244 358.775848 
L 400.894253 358.824129 
L 401.007552 358.20695 
L 401.490561 358.12035 
L 401.603859 357.968676 
L 401.788715 357.968676 
L 401.902013 356.732247 
L 402.086869 356.732247 
L 402.200167 356.311059 
L 402.683177 356.361734 
L 402.796475 355.555814 
L 403.279484 355.445987 
L 403.392783 355.298788 
L 404.173946 355.337644 
L 404.287245 356.029573 
L 404.770254 355.925975 
L 404.883552 355.298788 
L 406.857331 355.298788 
L 406.97063 482.104585 
L 407.155485 482.104585 
L 407.268784 355.298788 
L 408.348101 355.298788 
L 408.461399 452.864666 
L 408.646255 452.864666 
L 408.759553 355.298788 
L 410.733332 355.298788 
L 410.84663 355.44155 
L 411.031486 355.44155 
L 411.144784 355.810299 
L 411.627794 355.790881 
L 411.741092 355.612948 
L 411.925948 355.612948 
L 412.039246 355.298788 
L 412.820409 355.298788 
L 412.933708 355.421269 
L 413.118563 355.421269 
L 413.231862 355.298788 
L 413.714871 355.298788 
L 413.828169 387.443865 
L 414.013025 387.443865 
L 414.126323 355.298788 
L 428.622566 355.298788 
L 428.735865 423.074455 
L 428.92072 423.074455 
L 429.034019 355.298788 
L 456.052725 355.298788 
L 456.166024 356.176306 
L 456.350879 356.176306 
L 456.464178 355.999728 
L 456.649033 355.999728 
L 456.762332 356.130069 
L 456.947187 356.130069 
L 457.060486 355.298788 
L 460.22688 355.298788 
L 460.340179 355.823711 
L 460.823188 355.818216 
L 460.936486 355.987287 
L 461.121342 355.987287 
L 461.23464 355.298788 
L 461.419496 355.298788 
L 461.532794 356.215348 
L 461.71765 356.215348 
L 461.830948 356.071991 
L 462.015804 356.071991 
L 462.129102 355.84978 
L 462.313957 355.84978 
L 462.427256 355.298788 
L 462.612111 355.298788 
L 462.72541 356.385641 
L 462.910265 356.385641 
L 463.023564 355.899222 
L 463.208419 355.899222 
L 463.321718 355.298788 
L 493.918271 355.298788 
L 494.03157 355.478543 
L 494.216425 355.478543 
L 494.329724 355.298788 
L 504.651812 355.298788 
L 504.76511 514.619987 
L 504.949966 514.619987 
L 505.063264 355.298788 
L 516.279814 355.298788 
L 516.393113 355.429044 
L 516.577968 355.429044 
L 516.691267 356.061477 
L 516.876122 356.061477 
L 516.98942 356.909672 
L 517.174276 356.909672 
L 517.287574 356.286424 
L 517.47243 356.286424 
L 517.585728 356.7084 
L 518.068738 356.73446 
L 518.182036 356.337289 
L 518.366892 356.337289 
L 518.48019 356.014628 
L 518.665045 356.014628 
L 518.778344 355.796324 
L 518.963199 355.796324 
L 519.076498 355.298788 
L 522.242892 355.298788 
L 522.356191 356.202499 
L 522.541046 356.202499 
L 522.654345 355.620992 
L 523.137354 355.654989 
L 523.250652 355.835619 
L 523.435508 355.835619 
L 523.548806 355.683396 
L 523.733662 355.683396 
L 523.84696 356.223901 
L 524.031816 356.223901 
L 524.145114 356.38369 
L 524.32997 356.38369 
L 524.443268 357.321149 
L 524.628124 357.321149 
L 524.741422 357.540575 
L 524.926277 357.540575 
L 525.039576 357.678978 
L 525.224431 357.678978 
L 525.33773 358.234796 
L 525.522585 358.234796 
L 525.635884 357.942584 
L 525.820739 357.942584 
L 525.934038 357.451163 
L 526.118893 357.451163 
L 526.232192 356.724724 
L 526.417047 356.724724 
L 526.530345 355.844789 
L 526.715201 355.844789 
L 526.828499 356.362501 
L 527.311509 356.425312 
L 527.424807 355.967597 
L 527.609663 355.967597 
L 527.722961 356.70369 
L 527.907816 356.70369 
L 528.021115 357.248157 
L 528.20597 357.248157 
L 528.319269 357.621045 
L 528.504124 357.621045 
L 528.617423 357.793147 
L 528.802278 357.793147 
L 528.915577 357.602785 
L 529.100432 357.602785 
L 529.213731 357.439542 
L 529.398586 357.439542 
L 529.511884 358.150104 
L 529.69674 358.150104 
L 529.810038 358.431992 
L 529.994894 358.431992 
L 530.108192 358.168891 
L 530.293048 358.168891 
L 530.406346 358.920553 
L 530.591202 358.920553 
L 530.7045 359.152169 
L 530.889356 359.152169 
L 531.002654 358.795645 
L 531.187509 358.795645 
L 531.300808 358.342718 
L 531.485663 358.342718 
L 531.598962 357.77641 
L 531.783817 357.77641 
L 531.897116 358.139135 
L 532.081971 358.139135 
L 532.19527 358.42845 
L 532.380125 358.42845 
L 532.493424 357.478739 
L 532.678279 357.478739 
L 532.791577 357.799149 
L 532.976433 357.799149 
L 533.089731 357.556806 
L 533.274587 357.556806 
L 533.387885 358.924414 
L 533.572741 358.924414 
L 533.686039 359.446449 
L 533.870895 359.446449 
L 533.984193 360.175846 
L 534.169048 360.175846 
L 534.282347 359.64166 
L 534.467202 359.64166 
L 534.580501 359.378249 
L 534.765356 359.378249 
L 534.878655 359.558537 
L 535.06351 359.558537 
L 535.176809 357.932621 
L 535.361664 357.932621 
L 535.474963 358.162041 
L 535.659818 358.162041 
L 535.773116 357.856875 
L 535.957972 357.856875 
L 536.07127 356.813241 
L 536.256126 356.813241 
L 536.369424 357.882738 
L 536.55428 357.882738 
L 536.667578 357.314309 
L 536.852434 357.314309 
L 536.965732 356.733382 
L 537.150588 356.733382 
L 537.263886 356.283297 
L 537.448741 356.283297 
L 537.56204 356.63563 
L 537.746895 356.63563 
L 537.860194 357.182291 
L 538.045049 357.182291 
L 538.158348 355.548446 
L 538.343203 355.548446 
L 538.456502 355.298788 
L 541.622896 355.298788 
L 541.736195 355.99015 
L 542.517358 356.005457 
L 542.630656 355.374087 
L 593.501675 355.298788 
L 593.614974 548.813785 
L 593.799829 548.813785 
L 593.913128 355.298788 
L 609.601986 355.298788 
L 609.715285 518.782836 
L 609.90014 518.782836 
L 610.013439 355.298788 
L 638.821069 355.298788 
L 638.934367 366.661918 
L 639.119223 366.661918 
L 639.232521 355.298788 
L 658.797381 355.298788 
L 658.910679 551.941212 
L 659.095534 551.941212 
L 659.208833 355.298788 
L 679.37 355.298788 
L 679.37 355.298788 
" clip-path="url(#p395a3b8636)" style="fill: none; stroke: #4682b4; stroke-width: 1.5; stroke-linecap: square"/>
   </g>
   <g id="patch_8">
    <path d="M 52.94 561.773333 
L 52.94 345.466667 
" style="fill: none; stroke: #000000; stroke-width: 0.8; stroke-linejoin: miter; stroke-linecap: square"/>
   </g>
   <g id="patch_9">
    <path d="M 709.2 561.773333 
L 709.2 345.466667 
" style="fill: none; stroke: #000000; stroke-width: 0.8; stroke-linejoin: miter; stroke-linecap: square"/>
   </g>
   <g id="patch_10">
    <path d="M 52.94 561.773333 
L 709.2 561.773333 
" style="fill: none; stroke: #000000; stroke-width: 0.8; stroke-linejoin: miter; stroke-linecap: square"/>
   </g>
   <g id="patch_11">
    <path d="M 52.94 345.466667 
L 709.2 345.466667 
" style="fill: none; stroke: #000000; stroke-width: 0.8; stroke-linejoin: miter; stroke-linecap: square"/>
   </g>
   <g id="text_28">
    <!-- Duty Cycle -->
    <g transform="translate(348.438437 339.466667) scale(0.12 -0.12)">
     <use xlink:href="#DejaVuSans-44"/>
     <use xlink:href="#DejaVuSans-75" x="77.001953"/>
     <use xlink:href="#DejaVuSans-74" x="140.380859"/>
     <use xlink:href="#DejaVuSans-79" x="179.589844"/>
     <use xlink:href="#DejaVuSans-20" x="238.769531"/>
     <use xlink:href="#DejaVuSans-43" x="270.556641"/>
     <use xlink:href="#DejaVuSans-79" x="340.380859"/>
     <use xlink:href="#DejaVuSans-63" x="399.560547"/>
     <use xlink:href="#DejaVuSans-6c" x="454.541016"/>
     <use xlink:href="#DejaVuSans-65" x="482.324219"/>
    </g>
   </g>
  </g>
  <g id="axes_3">
   <g id="patch_12">
    <path d="M 52.94 822.04 
L 709.2 822.04 
L 709.2 605.733333 
L 52.94 605.733333 
z
" style="fill: #ffffff"/>
   </g>
   <g id="matplotlib.axis_5">
    <g id="xtick_13">
     <g id="line2d_27">
      <g>
       <use xlink:href="#mf5bc116dcd" x="82.77" y="822.04" style="stroke: #000000; stroke-width: 0.8"/>
      </g>
     </g>
     <g id="text_29">
      <!-- 0.0 -->
      <g transform="translate(74.818438 836.638437) scale(0.1 -0.1)">
       <use xlink:href="#DejaVuSans-30"/>
       <use xlink:href="#DejaVuSans-2e" x="63.623047"/>
       <use xlink:href="#DejaVuSans-30" x="95.410156"/>
      </g>
     </g>
    </g>
    <g id="xtick_14">
     <g id="line2d_28">
      <g>
       <use xlink:href="#mf5bc116dcd" x="202.031562" y="822.04" style="stroke: #000000; stroke-width: 0.8"/>
      </g>
     </g>
     <g id="text_30">
      <!-- 0.2 -->
      <g transform="translate(194.079999 836.638437) scale(0.1 -0.1)">
       <use xlink:href="#DejaVuSans-30"/>
       <use xlink:href="#DejaVuSans-2e" x="63.623047"/>
       <use xlink:href="#DejaVuSans-32" x="95.410156"/>
      </g>
     </g>
    </g>
    <g id="xtick_15">
     <g id="line2d_29">
      <g>
       <use xlink:href="#mf5bc116dcd" x="321.293124" y="822.04" style="stroke: #000000; stroke-width: 0.8"/>
      </g>
     </g>
     <g id="text_31">
      <!-- 0.4 -->
      <g transform="translate(313.341561 836.638437) scale(0.1 -0.1)">
       <use xlink:href="#DejaVuSans-30"/>
       <use xlink:href="#DejaVuSans-2e" x="63.623047"/>
       <use xlink:href="#DejaVuSans-34" x="95.410156"/>
      </g>
     </g>
    </g>
    <g id="xtick_16">
     <g id="line2d_30">
      <g>
       <use xlink:href="#mf5bc116dcd" x="440.554686" y="822.04" style="stroke: #000000; stroke-width: 0.8"/>
      </g>
     </g>
     <g id="text_32">
      <!-- 0.6 -->
      <g transform="translate(432.603123 836.638437) scale(0.1 -0.1)">
       <use xlink:href="#DejaVuSans-30"/>
       <use xlink:href="#DejaVuSans-2e" x="63.623047"/>
       <use xlink:href="#DejaVuSans-36" x="95.410156"/>
      </g>
     </g>
    </g>
    <g id="xtick_17">
     <g id="line2d_31">
      <g>
       <use xlink:href="#mf5bc116dcd" x="559.816247" y="822.04" style="stroke: #000000; stroke-width: 0.8"/>
      </g>
     </g>
     <g id="text_33">
      <!-- 0.8 -->
      <g transform="translate(551.864685 836.638437) scale(0.1 -0.1)">
       <use xlink:href="#DejaVuSans-30"/>
       <use xlink:href="#DejaVuSans-2e" x="63.623047"/>
       <use xlink:href="#DejaVuSans-38" x="95.410156"/>
      </g>
     </g>
    </g>
    <g id="xtick_18">
     <g id="line2d_32">
      <g>
       <use xlink:href="#mf5bc116dcd" x="679.077809" y="822.04" style="stroke: #000000; stroke-width: 0.8"/>
      </g>
     </g>
     <g id="text_34">
      <!-- 1.0 -->
      <g transform="translate(671.126247 836.638437) scale(0.1 -0.1)">
       <use xlink:href="#DejaVuSans-31"/>
       <use xlink:href="#DejaVuSans-2e" x="63.623047"/>
       <use xlink:href="#DejaVuSans-30" x="95.410156"/>
      </g>
     </g>
    </g>
    <g id="text_35">
     <!-- Time (s) -->
     <g transform="translate(360.741094 850.316562) scale(0.1 -0.1)">
      <defs>
       <path id="DejaVuSans-54" d="M -19 4666 
L 3928 4666 
L 3928 4134 
L 2272 4134 
L 2272 0 
L 1638 0 
L 1638 4134 
L -19 4134 
L -19 4666 
z
" transform="scale(0.015625)"/>
       <path id="DejaVuSans-69" d="M 603 3500 
L 1178 3500 
L 1178 0 
L 603 0 
L 603 3500 
z
M 603 4863 
L 1178 4863 
L 1178 4134 
L 603 4134 
L 603 4863 
z
" transform="scale(0.015625)"/>
       <path id="DejaVuSans-6d" d="M 3328 2828 
Q 3544 3216 3844 3400 
Q 4144 3584 4550 3584 
Q 5097 3584 5394 3201 
Q 5691 2819 5691 2113 
L 5691 0 
L 5113 0 
L 5113 2094 
Q 5113 2597 4934 2840 
Q 4756 3084 4391 3084 
Q 3944 3084 3684 2787 
Q 3425 2491 3425 1978 
L 3425 0 
L 2847 0 
L 2847 2094 
Q 2847 2600 2669 2842 
Q 2491 3084 2119 3084 
Q 1678 3084 1418 2786 
Q 1159 2488 1159 1978 
L 1159 0 
L 581 0 
L 581 3500 
L 1159 3500 
L 1159 2956 
Q 1356 3278 1631 3431 
Q 1906 3584 2284 3584 
Q 2666 3584 2933 3390 
Q 3200 3197 3328 2828 
z
" transform="scale(0.015625)"/>
       <path id="DejaVuSans-28" d="M 1984 4856 
Q 1566 4138 1362 3434 
Q 1159 2731 1159 2009 
Q 1159 1288 1364 580 
Q 1569 -128 1984 -844 
L 1484 -844 
Q 1016 -109 783 600 
Q 550 1309 550 2009 
Q 550 2706 781 3412 
Q 1013 4119 1484 4856 
L 1984 4856 
z
" transform="scale(0.015625)"/>
       <path id="DejaVuSans-73" d="M 2834 3397 
L 2834 2853 
Q 2591 2978 2328 3040 
Q 2066 3103 1784 3103 
Q 1356 3103 1142 2972 
Q 928 2841 928 2578 
Q 928 2378 1081 2264 
Q 1234 2150 1697 2047 
L 1894 2003 
Q 2506 1872 2764 1633 
Q 3022 1394 3022 966 
Q 3022 478 2636 193 
Q 2250 -91 1575 -91 
Q 1294 -91 989 -36 
Q 684 19 347 128 
L 347 722 
Q 666 556 975 473 
Q 1284 391 1588 391 
Q 1994 391 2212 530 
Q 2431 669 2431 922 
Q 2431 1156 2273 1281 
Q 2116 1406 1581 1522 
L 1381 1569 
Q 847 1681 609 1914 
Q 372 2147 372 2553 
Q 372 3047 722 3315 
Q 1072 3584 1716 3584 
Q 2034 3584 2315 3537 
Q 2597 3491 2834 3397 
z
" transform="scale(0.015625)"/>
       <path id="DejaVuSans-29" d="M 513 4856 
L 1013 4856 
Q 1481 4119 1714 3412 
Q 1947 2706 1947 2009 
Q 1947 1309 1714 600 
Q 1481 -109 1013 -844 
L 513 -844 
Q 928 -128 1133 580 
Q 1338 1288 1338 2009 
Q 1338 2731 1133 3434 
Q 928 4138 513 4856 
z
" transform="scale(0.015625)"/>
      </defs>
      <use xlink:href="#DejaVuSans-54"/>
      <use xlink:href="#DejaVuSans-69" x="57.958984"/>
      <use xlink:href="#DejaVuSans-6d" x="85.742188"/>
      <use xlink:href="#DejaVuSans-65" x="183.154297"/>
      <use xlink:href="#DejaVuSans-20" x="244.677734"/>
      <use xlink:href="#DejaVuSans-28" x="276.464844"/>
      <use xlink:href="#DejaVuSans-73" x="315.478516"/>
      <use xlink:href="#DejaVuSans-29" x="367.578125"/>
     </g>
    </g>
   </g>
   <g id="matplotlib.axis_6">
    <g id="ytick_13">
     <g id="line2d_33">
      <defs>
       <path id="mbd11ab6cd7" d="M 0 0 
L -3.5 0 
" style="stroke: #008000; stroke-width: 0.8"/>
      </defs>
      <g>
       <use xlink:href="#mbd11ab6cd7" x="52.94" y="812.222887" style="fill: #008000; stroke: #008000; stroke-width: 0.8"/>
      </g>
     </g>
     <g id="text_36">
      <!-- 60 -->
      <g style="fill: #008000" transform="translate(24.835313 816.022105) scale(0.1 -0.1)">
       <defs>
        <path id="DejaVuSans-2212" d="M 678 2272 
L 4684 2272 
L 4684 1741 
L 678 1741 
L 678 2272 
z
" transform="scale(0.015625)"/>
       </defs>
       <use xlink:href="#DejaVuSans-2212"/>
       <use xlink:href="#DejaVuSans-36" x="83.789062"/>
       <use xlink:href="#DejaVuSans-30" x="147.412109"/>
      </g>
     </g>
    </g>
    <g id="ytick_14">
     <g id="line2d_34">
      <g>
       <use xlink:href="#mbd11ab6cd7" x="52.94" y="779.452427" style="fill: #008000; stroke: #008000; stroke-width: 0.8"/>
      </g>
     </g>
     <g id="text_37">
      <!-- 50 -->
      <g style="fill: #008000" transform="translate(24.835313 783.251646) scale(0.1 -0.1)">
       <defs>
        <path id="DejaVuSans-35" d="M 691 4666 
L 3169 4666 
L 3169 4134 
L 1269 4134 
L 1269 2991 
Q 1406 3038 1543 3061 
Q 1681 3084 1819 3084 
Q 2600 3084 3056 2656 
Q 3513 2228 3513 1497 
Q 3513 744 3044 326 
Q 2575 -91 1722 -91 
Q 1428 -91 1123 -41 
Q 819 9 494 109 
L 494 744 
Q 775 591 1075 516 
Q 1375 441 1709 441 
Q 2250 441 2565 725 
Q 2881 1009 2881 1497 
Q 2881 1984 2565 2268 
Q 2250 2553 1709 2553 
Q 1456 2553 1204 2497 
Q 953 2441 691 2322 
L 691 4666 
z
" transform="scale(0.015625)"/>
       </defs>
       <use xlink:href="#DejaVuSans-2212"/>
       <use xlink:href="#DejaVuSans-35" x="83.789062"/>
       <use xlink:href="#DejaVuSans-30" x="147.412109"/>
      </g>
     </g>
    </g>
    <g id="ytick_15">
     <g id="line2d_35">
      <g>
       <use xlink:href="#mbd11ab6cd7" x="52.94" y="746.681968" style="fill: #008000; stroke: #008000; stroke-width: 0.8"/>
      </g>
     </g>
     <g id="text_38">
      <!-- 40 -->
      <g style="fill: #008000" transform="translate(24.835313 750.481186) scale(0.1 -0.1)">
       <use xlink:href="#DejaVuSans-2212"/>
       <use xlink:href="#DejaVuSans-34" x="83.789062"/>
       <use xlink:href="#DejaVuSans-30" x="147.412109"/>
      </g>
     </g>
    </g>
    <g id="ytick_16">
     <g id="line2d_36">
      <g>
       <use xlink:href="#mbd11ab6cd7" x="52.94" y="713.911508" style="fill: #008000; stroke: #008000; stroke-width: 0.8"/>
      </g>
     </g>
     <g id="text_39">
      <!-- 30 -->
      <g style="fill: #008000" transform="translate(24.835313 717.710727) scale(0.1 -0.1)">
       <defs>
        <path id="DejaVuSans-33" d="M 2597 2516 
Q 3050 2419 3304 2112 
Q 3559 1806 3559 1356 
Q 3559 666 3084 287 
Q 2609 -91 1734 -91 
Q 1441 -91 1130 -33 
Q 819 25 488 141 
L 488 750 
Q 750 597 1062 519 
Q 1375 441 1716 441 
Q 2309 441 2620 675 
Q 2931 909 2931 1356 
Q 2931 1769 2642 2001 
Q 2353 2234 1838 2234 
L 1294 2234 
L 1294 2753 
L 1863 2753 
Q 2328 2753 2575 2939 
Q 2822 3125 2822 3475 
Q 2822 3834 2567 4026 
Q 2313 4219 1838 4219 
Q 1578 4219 1281 4162 
Q 984 4106 628 3988 
L 628 4550 
Q 988 4650 1302 4700 
Q 1616 4750 1894 4750 
Q 2613 4750 3031 4423 
Q 3450 4097 3450 3541 
Q 3450 3153 3228 2886 
Q 3006 2619 2597 2516 
z
" transform="scale(0.015625)"/>
       </defs>
       <use xlink:href="#DejaVuSans-2212"/>
       <use xlink:href="#DejaVuSans-33" x="83.789062"/>
       <use xlink:href="#DejaVuSans-30" x="147.412109"/>
      </g>
     </g>
    </g>
    <g id="ytick_17">
     <g id="line2d_37">
      <g>
       <use xlink:href="#mbd11ab6cd7" x="52.94" y="681.141049" style="fill: #008000; stroke: #008000; stroke-width: 0.8"/>
      </g>
     </g>
     <g id="text_40">
      <!-- 20 -->
      <g style="fill: #008000" transform="translate(24.835313 684.940267) scale(0.1 -0.1)">
       <use xlink:href="#DejaVuSans-2212"/>
       <use xlink:href="#DejaVuSans-32" x="83.789062"/>
       <use xlink:href="#DejaVuSans-30" x="147.412109"/>
      </g>
     </g>
    </g>
    <g id="ytick_18">
     <g id="line2d_38">
      <g>
       <use xlink:href="#mbd11ab6cd7" x="52.94" y="648.370589" style="fill: #008000; stroke: #008000; stroke-width: 0.8"/>
      </g>
     </g>
     <g id="text_41">
      <!-- 10 -->
      <g style="fill: #008000" transform="translate(24.835313 652.169808) scale(0.1 -0.1)">
       <use xlink:href="#DejaVuSans-2212"/>
       <use xlink:href="#DejaVuSans-31" x="83.789062"/>
       <use xlink:href="#DejaVuSans-30" x="147.412109"/>
      </g>
     </g>
    </g>
    <g id="ytick_19">
     <g id="line2d_39">
      <g>
       <use xlink:href="#mbd11ab6cd7" x="52.94" y="615.60013" style="fill: #008000; stroke: #008000; stroke-width: 0.8"/>
      </g>
     </g>
     <g id="text_42">
      <!-- 0 -->
      <g style="fill: #008000" transform="translate(39.5775 619.399348) scale(0.1 -0.1)">
       <use xlink:href="#DejaVuSans-30"/>
      </g>
     </g>
    </g>
    <g id="text_43">
     <!-- Cost -->
     <g style="fill: #008000" transform="translate(18.755625 725.002292) rotate(-90) scale(0.1 -0.1)">
      <use xlink:href="#DejaVuSans-43"/>
      <use xlink:href="#DejaVuSans-6f" x="69.824219"/>
      <use xlink:href="#DejaVuSans-73" x="131.005859"/>
      <use xlink:href="#DejaVuSans-74" x="183.105469"/>
     </g>
    </g>
   </g>
   <g id="line2d_40">
    <path d="M 82.77 812.207879 
L 82.895225 782.099697 
L 83.62272 623.581408 
L 83.85528 615.81548 
L 83.914911 615.565455 
L 83.962616 615.792989 
L 84.081877 617.15285 
L 84.374068 623.723288 
L 84.946524 637.320034 
L 84.982302 636.629458 
L 85.11349 627.768398 
L 85.334124 618.529848 
L 85.405681 618.292859 
L 85.459348 618.418413 
L 85.590536 619.488132 
L 85.846948 623.797059 
L 87.039564 646.364285 
L 87.522573 650.595466 
L 87.987693 652.891898 
L 88.452813 654.170045 
L 88.935823 654.893303 
L 89.478463 655.313998 
L 90.176143 655.560555 
L 91.303165 655.693802 
L 94.380113 655.754927 
L 110.241901 655.803693 
L 110.301532 652.748614 
L 110.778578 619.583322 
L 110.796467 619.595114 
L 110.873987 619.944358 
L 111.052879 622.102774 
L 111.452406 630.406359 
L 112.156049 643.886825 
L 112.650984 649.351175 
L 113.122067 652.308419 
L 113.587188 653.939979 
L 114.022492 654.798416 
L 114.028455 654.77913 
L 114.064234 653.779951 
L 114.332572 645.251428 
L 114.439908 644.866205 
L 114.481649 644.917672 
L 114.612837 645.512436 
L 115.095846 649.288896 
L 115.62656 652.435026 
L 116.103607 654.03632 
L 116.580653 654.918099 
L 117.093477 655.42142 
L 117.719601 655.718866 
L 118.643878 655.887656 
L 120.599767 655.966524 
L 137.737654 656.112972 
L 151.094949 656.140459 
L 151.15458 653.08538 
L 151.631626 620.295153 
L 151.643552 620.304 
L 151.715109 620.606016 
L 151.882075 622.53677 
L 152.257749 630.16452 
L 152.991208 644.259554 
L 153.486143 649.707354 
L 153.957226 652.655884 
L 154.422346 654.28259 
L 154.899393 655.198044 
L 155.412217 655.719097 
L 156.026414 656.022908 
L 156.920876 656.196848 
L 158.763467 656.279727 
L 172.424879 656.398911 
L 192.41908 656.481108 
L 192.478711 653.426028 
L 192.723197 641.744915 
L 192.854385 640.933249 
L 192.8842 640.972818 
L 192.991535 641.527514 
L 193.295652 644.655512 
L 193.957554 650.945252 
L 194.440563 653.518979 
L 194.911647 654.919098 
L 195.394656 655.701727 
L 195.92537 656.150517 
L 196.593235 656.414315 
L 197.636773 656.560168 
L 198.400047 656.513374 
L 198.459678 653.478148 
L 198.680312 644.851211 
L 198.823426 643.993179 
L 198.847278 644.012422 
L 198.942687 644.369697 
L 199.205063 646.491876 
L 199.914669 652.080438 
L 200.397678 654.166391 
L 200.868762 655.295975 
L 201.363697 655.937156 
L 201.93019 656.30912 
L 202.6875 656.525334 
L 204.011304 656.637738 
L 208.704246 656.697929 
L 250.946691 656.963571 
L 251.006322 653.908492 
L 251.501258 619.428009 
L 251.519147 619.443024 
L 251.60263 619.808061 
L 251.781522 621.869844 
L 252.139307 629.207993 
L 252.92047 644.782195 
L 253.415406 650.362984 
L 253.886489 653.385722 
L 254.351609 655.054358 
L 254.828655 655.993728 
L 255.335517 656.524065 
L 255.943751 656.836223 
L 256.820323 657.015317 
L 258.579431 657.101284 
L 264.685623 657.13107 
L 264.721402 656.067142 
L 264.85259 642.539081 
L 265.120928 621.929978 
L 265.228263 621.231568 
L 265.270005 621.317712 
L 265.389267 622.258561 
L 265.639716 626.408973 
L 266.796553 647.859555 
L 267.279562 652.082895 
L 267.744682 654.376587 
L 268.209802 655.6534 
L 268.692812 656.375928 
L 269.235452 656.796203 
L 269.933132 657.042516 
L 271.066117 657.175971 
L 274.166918 657.236996 
L 275.150825 657.162927 
L 275.210456 654.107866 
L 275.669613 623.006267 
L 275.681539 623.011599 
L 275.747133 623.275207 
L 275.908136 625.129854 
L 276.295736 632.880324 
L 276.993417 645.731483 
L 277.488352 650.983128 
L 277.959435 653.819946 
L 278.424555 655.383311 
L 278.901602 656.262626 
L 279.414426 656.763009 
L 280.040549 657.058506 
L 280.964827 657.22619 
L 282.932642 657.304805 
L 292.640533 657.361514 
L 292.682275 656.03444 
L 292.908872 650.742221 
L 293.057949 650.213001 
L 293.081801 650.227595 
L 293.1951 650.513271 
L 293.529032 652.196041 
L 294.131303 654.843597 
L 294.614312 656.027706 
L 295.109248 656.687063 
L 295.669777 657.068091 
L 296.415162 657.290836 
L 297.697224 657.407486 
L 301.972751 657.466731 
L 302.086049 657.385056 
L 302.14568 654.329985 
L 302.491538 634.05032 
L 302.551169 633.869857 
L 302.604837 634.023016 
L 302.747951 635.358992 
L 303.23096 642.89916 
L 303.797453 649.916485 
L 304.280462 653.358178 
L 304.745582 655.221189 
L 305.216665 656.264812 
L 305.717564 656.859801 
L 306.301945 657.206317 
L 307.106961 657.40638 
L 308.591767 657.506822 
L 315.175006 657.575646 
L 329.540061 657.611443 
L 329.599691 654.556364 
L 329.903808 637.83103 
L 329.987292 637.435023 
L 330.040959 637.553897 
L 330.17811 638.66178 
L 330.649193 645.108129 
L 331.209723 651.167103 
L 331.686769 654.126723 
L 332.157852 655.763599 
L 332.634898 656.671417 
L 333.147723 657.18841 
L 333.767883 657.491822 
L 334.674271 657.664419 
L 336.552641 657.745799 
L 341.096506 657.760938 
L 341.132284 656.69701 
L 341.263472 643.168953 
L 341.47218 630.072921 
L 341.585478 629.119009 
L 341.62722 629.200254 
L 341.740518 630.134795 
L 342.032709 634.942995 
L 342.831762 648.049875 
L 343.320734 652.483532 
L 343.791817 654.896825 
L 344.256937 656.22114 
L 344.739947 656.971154 
L 345.276624 657.404179 
L 345.962378 657.659049 
L 347.053621 657.797895 
L 349.892046 657.860867 
L 350.816323 657.80813 
L 351.030994 656.775694 
L 351.144293 656.339289 
L 351.358963 655.557724 
L 351.424557 655.373651 
L 351.627302 654.675155 
L 351.722711 654.549217 
L 351.91353 654.026559 
L 352.032791 654.157684 
L 352.336908 654.971424 
L 352.593321 655.692225 
L 352.629099 655.527897 
L 352.819918 655.147942 
L 352.915327 655.047605 
L 353.112108 654.495634 
L 353.213481 654.409721 
L 353.398336 653.937622 
L 353.517598 654.078588 
L 353.833641 654.953538 
L 354.08409 655.671197 
L 354.119869 655.508593 
L 354.310687 655.136151 
L 354.39417 655.129532 
L 354.406096 655.038788 
L 354.596915 654.492403 
L 354.716176 654.587406 
L 354.996441 655.233063 
L 355.57486 656.540436 
L 355.586786 656.500778 
L 355.777604 655.824184 
L 355.908792 655.548235 
L 356.111537 654.947261 
L 356.19502 654.815909 
L 356.385838 654.260016 
L 356.499137 654.152851 
L 356.666103 653.750714 
L 356.678029 653.75396 
L 356.767475 653.859397 
L 356.797291 653.713825 
L 356.946368 653.388731 
L 356.97022 653.399627 
L 357.065629 653.54678 
L 357.101408 653.385456 
L 357.232595 653.137809 
L 357.262411 653.154801 
L 357.363783 653.335281 
L 357.405525 653.159499 
L 357.524786 652.966843 
L 357.560565 652.992517 
L 357.661937 653.193058 
L 357.709642 653.003521 
L 357.816977 652.85052 
L 357.858719 652.883698 
L 357.960091 653.097818 
L 358.007795 652.914452 
L 358.109168 652.771762 
L 358.150909 652.803317 
L 358.305949 653.182947 
L 358.556399 654.133826 
L 358.633919 653.917798 
L 358.729328 653.869201 
L 358.765106 653.901532 
L 358.854553 654.060784 
L 358.890331 653.897303 
L 359.033445 653.623055 
L 359.057297 653.634139 
L 359.152706 653.776443 
L 359.188485 653.610864 
L 359.325636 653.344808 
L 359.355451 653.361024 
L 359.45086 653.520195 
L 359.492602 653.336966 
L 359.617827 653.125566 
L 359.647642 653.144415 
L 359.749014 653.330152 
L 359.790756 653.156244 
L 359.910017 652.967921 
L 359.945796 652.99466 
L 360.047168 653.197784 
L 360.094873 653.009347 
L 360.202208 652.858436 
L 360.24395 652.892308 
L 360.345322 653.107902 
L 360.393027 652.925184 
L 360.494399 652.783691 
L 360.536141 652.815676 
L 360.691181 653.196669 
L 360.94163 654.14919 
L 361.01915 653.933595 
L 361.114559 653.885461 
L 361.150338 653.917949 
L 361.335193 654.325473 
L 362.295249 656.751987 
L 362.808073 657.344725 
L 363.398418 657.685457 
L 364.21536 657.881613 
L 365.741908 657.979308 
L 372.6233 658.049213 
L 372.653115 657.499019 
L 372.754488 648.69172 
L 373.070531 623.464569 
L 373.16594 622.928131 
L 373.213645 623.048845 
L 373.338869 624.154159 
L 373.613171 628.973234 
L 374.609005 647.681922 
L 375.097977 652.40281 
L 375.56906 654.969574 
L 375.932808 656.138596 
L 375.944734 656.087761 
L 375.998402 653.699422 
L 376.451596 624.887917 
L 376.481411 624.940343 
L 376.582784 625.671944 
L 376.821307 629.449699 
L 377.936402 649.110566 
L 378.419412 653.185319 
L 378.884532 655.396574 
L 379.355615 656.638231 
L 379.844587 657.334914 
L 380.393191 657.736497 
L 381.10876 657.972076 
L 382.295413 658.098083 
L 385.795739 658.157492 
L 387.489254 658.110691 
L 387.703924 657.078189 
L 387.817223 656.641757 
L 388.031894 655.860152 
L 388.097488 655.676068 
L 388.300232 654.977546 
L 388.395641 654.851598 
L 388.58646 654.328923 
L 388.705721 654.460041 
L 389.009838 655.273764 
L 389.647888 656.818088 
L 390.154749 657.479769 
L 390.721242 657.858115 
L 391.47259 658.077814 
L 392.772541 658.192397 
L 397.232923 658.252015 
L 400.148868 658.193494 
L 400.208499 655.138415 
L 400.596099 631.012026 
L 400.631878 630.956084 
L 400.679582 631.093181 
L 400.816733 632.412403 
L 401.19837 638.97109 
L 401.848346 648.879536 
L 402.337318 653.161839 
L 402.808401 655.489817 
L 403.279484 656.778284 
L 403.762494 657.49543 
L 404.305134 657.912613 
L 405.002814 658.157136 
L 406.135799 658.289666 
L 406.988519 658.238235 
L 407.04815 655.18445 
L 407.459602 629.031715 
L 407.483454 629.015875 
L 407.525196 629.13274 
L 407.650421 630.28663 
L 407.97839 635.986488 
L 408.52103 645.550285 
L 408.550845 645.139097 
L 408.652218 638.319443 
L 408.854962 629.780588 
L 408.932482 629.397947 
L 408.98615 629.550875 
L 409.123301 630.914859 
L 409.493012 637.499667 
L 410.16684 648.376414 
L 410.655812 652.908354 
L 411.126895 655.379211 
L 411.592015 656.736075 
L 412.075025 657.50476 
L 412.605738 657.945168 
L 413.279566 658.205479 
L 413.971283 658.318055 
L 413.977246 658.290315 
L 414.013025 657.230567 
L 414.257511 649.558024 
L 414.394662 648.942741 
L 414.424477 648.963005 
L 414.531813 649.30602 
L 414.841893 651.311378 
L 415.473979 654.999785 
L 415.956988 656.568433 
L 416.439998 657.429616 
L 416.958785 657.917478 
L 417.596835 658.204885 
L 418.550927 658.366508 
L 420.649931 658.441246 
L 428.831274 658.484181 
L 428.867052 657.420252 
L 429.278505 640.044227 
L 429.284468 640.045584 
L 429.344099 640.210666 
L 429.505102 641.578115 
L 430.733496 654.136984 
L 431.204579 656.131168 
L 431.675662 657.234425 
L 432.170598 657.858857 
L 432.743053 658.223439 
L 433.518253 658.435224 
L 434.895724 658.543623 
L 440.13727 658.605736 
L 504.729332 659.055588 
L 504.788963 656.000509 
L 505.24812 624.898793 
L 505.260046 624.904125 
L 505.32564 625.16773 
L 505.486643 627.022376 
L 505.874243 634.772841 
L 506.571923 647.62399 
L 507.066859 652.875629 
L 507.537942 655.712444 
L 508.003062 657.275807 
L 508.480108 658.155121 
L 508.992933 658.655503 
L 509.619056 658.951 
L 510.543333 659.118685 
L 512.511149 659.197299 
L 530.018746 659.346679 
L 533.882821 659.317496 
L 534.097492 658.284986 
L 534.21079 657.84855 
L 534.425461 657.06694 
L 534.491055 656.882855 
L 534.693799 656.184329 
L 534.789209 656.05838 
L 534.980027 655.535703 
L 535.075436 655.566992 
L 535.093326 655.449806 
L 535.254329 655.076716 
L 535.272218 655.083415 
L 535.403406 655.295348 
L 535.826784 656.621534 
L 536.38135 657.987239 
L 536.882249 658.663812 
L 537.442778 659.052789 
L 538.1822 659.279587 
L 539.440409 659.398683 
L 543.501266 659.457698 
L 593.531491 659.787614 
L 593.591122 656.732535 
L 594.080094 622.553212 
L 594.097983 622.565398 
L 594.175503 622.889789 
L 594.348433 624.837259 
L 594.700254 631.960348 
L 595.493344 647.708491 
L 595.988279 653.24502 
L 596.459362 656.242245 
L 596.924482 657.896355 
L 597.401529 658.827423 
L 597.90839 659.353047 
L 598.516624 659.662438 
L 599.39916 659.840643 
L 601.18212 659.925844 
L 609.66758 659.974876 
L 609.703359 658.910948 
L 609.834546 645.382886 
L 610.090959 626.068514 
L 610.198294 625.313209 
L 610.240036 625.400627 
L 610.359297 626.383241 
L 610.621673 630.849918 
L 611.665211 650.120372 
L 612.148221 654.591357 
L 612.619304 657.054476 
L 613.084424 658.405211 
L 613.567433 659.170135 
L 614.098147 659.608345 
L 614.771975 659.867361 
L 615.833403 660.01004 
L 618.498899 660.074733 
L 639.119223 660.217656 
L 639.494897 657.780434 
L 639.632048 657.848193 
L 639.942128 658.377929 
L 640.598066 659.396577 
L 641.152633 659.842128 
L 641.838386 660.097261 
L 642.923667 660.23633 
L 645.732276 660.299527 
L 658.821233 660.32582 
L 658.880864 657.270741 
L 659.375799 622.790258 
L 659.393688 622.805273 
L 659.477171 623.170311 
L 659.656064 625.232093 
L 660.013849 632.570242 
L 660.795012 648.144444 
L 661.289947 653.725233 
L 661.76103 656.747971 
L 662.22615 658.416607 
L 662.703197 659.355977 
L 663.210058 659.886314 
L 663.818292 660.198472 
L 664.694865 660.377566 
L 666.453973 660.463533 
L 678.040234 660.566871 
L 679.37 660.577832 
L 679.37 660.577832 
" clip-path="url(#p912fd227ee)" style="fill: none; stroke: #008000; stroke-width: 1.5; stroke-linecap: square"/>
   </g>
   <g id="patch_13">
    <path d="M 52.94 822.04 
L 52.94 605.733333 
" style="fill: none; stroke: #000000; stroke-width: 0.8; stroke-linejoin: miter; stroke-linecap: square"/>
   </g>
   <g id="patch_14">
    <path d="M 709.2 822.04 
L 709.2 605.733333 
" style="fill: none; stroke: #000000; stroke-width: 0.8; stroke-linejoin: miter; stroke-linecap: square"/>
   </g>
   <g id="patch_15">
    <path d="M 52.94 822.04 
L 709.2 822.04 
" style="fill: none; stroke: #000000; stroke-width: 0.8; stroke-linejoin: miter; stroke-linecap: square"/>
   </g>
   <g id="patch_16">
    <path d="M 52.94 605.733333 
L 709.2 605.733333 
" style="fill: none; stroke: #000000; stroke-width: 0.8; stroke-linejoin: miter; stroke-linecap: square"/>
   </g>
   <g id="text_44">
    <!-- Cost Over Time -->
    <g transform="translate(334.804375 599.733333) scale(0.12 -0.12)">
     <defs>
      <path id="DejaVuSans-76" d="M 191 3500 
L 800 3500 
L 1894 563 
L 2988 3500 
L 3597 3500 
L 2284 0 
L 1503 0 
L 191 3500 
z
" transform="scale(0.015625)"/>
      <path id="DejaVuSans-72" d="M 2631 2963 
Q 2534 3019 2420 3045 
Q 2306 3072 2169 3072 
Q 1681 3072 1420 2755 
Q 1159 2438 1159 1844 
L 1159 0 
L 581 0 
L 581 3500 
L 1159 3500 
L 1159 2956 
Q 1341 3275 1631 3429 
Q 1922 3584 2338 3584 
Q 2397 3584 2469 3576 
Q 2541 3569 2628 3553 
L 2631 2963 
z
" transform="scale(0.015625)"/>
     </defs>
     <use xlink:href="#DejaVuSans-43"/>
     <use xlink:href="#DejaVuSans-6f" x="69.824219"/>
     <use xlink:href="#DejaVuSans-73" x="131.005859"/>
     <use xlink:href="#DejaVuSans-74" x="183.105469"/>
     <use xlink:href="#DejaVuSans-20" x="222.314453"/>
     <use xlink:href="#DejaVuSans-4f" x="254.101562"/>
     <use xlink:href="#DejaVuSans-76" x="332.8125"/>
     <use xlink:href="#DejaVuSans-65" x="391.992188"/>
     <use xlink:href="#DejaVuSans-72" x="453.515625"/>
     <use xlink:href="#DejaVuSans-20" x="494.628906"/>
     <use xlink:href="#DejaVuSans-54" x="526.416016"/>
     <use xlink:href="#DejaVuSans-69" x="584.375"/>
     <use xlink:href="#DejaVuSans-6d" x="612.158203"/>
     <use xlink:href="#DejaVuSans-65" x="709.570312"/>
    </g>
   </g>
  </g>
  <g id="text_45">
   <!-- Episode 451 - Total Reward: -24880.29 -->
   <g transform="translate(244.110938 26.398125) scale(0.12 -0.12)">
    <defs>
     <path id="DejaVuSans-45" d="M 628 4666 
L 3578 4666 
L 3578 4134 
L 1259 4134 
L 1259 2753 
L 3481 2753 
L 3481 2222 
L 1259 2222 
L 1259 531 
L 3634 531 
L 3634 0 
L 628 0 
L 628 4666 
z
" transform="scale(0.015625)"/>
     <path id="DejaVuSans-64" d="M 2906 2969 
L 2906 4863 
L 3481 4863 
L 3481 0 
L 2906 0 
L 2906 525 
Q 2725 213 2448 61 
Q 2172 -91 1784 -91 
Q 1150 -91 751 415 
Q 353 922 353 1747 
Q 353 2572 751 3078 
Q 1150 3584 1784 3584 
Q 2172 3584 2448 3432 
Q 2725 3281 2906 2969 
z
M 947 1747 
Q 947 1113 1208 752 
Q 1469 391 1925 391 
Q 2381 391 2643 752 
Q 2906 1113 2906 1747 
Q 2906 2381 2643 2742 
Q 2381 3103 1925 3103 
Q 1469 3103 1208 2742 
Q 947 2381 947 1747 
z
" transform="scale(0.015625)"/>
     <path id="DejaVuSans-2d" d="M 313 2009 
L 1997 2009 
L 1997 1497 
L 313 1497 
L 313 2009 
z
" transform="scale(0.015625)"/>
     <path id="DejaVuSans-52" d="M 2841 2188 
Q 3044 2119 3236 1894 
Q 3428 1669 3622 1275 
L 4263 0 
L 3584 0 
L 2988 1197 
Q 2756 1666 2539 1819 
Q 2322 1972 1947 1972 
L 1259 1972 
L 1259 0 
L 628 0 
L 628 4666 
L 2053 4666 
Q 2853 4666 3247 4331 
Q 3641 3997 3641 3322 
Q 3641 2881 3436 2590 
Q 3231 2300 2841 2188 
z
M 1259 4147 
L 1259 2491 
L 2053 2491 
Q 2509 2491 2742 2702 
Q 2975 2913 2975 3322 
Q 2975 3731 2742 3939 
Q 2509 4147 2053 4147 
L 1259 4147 
z
" transform="scale(0.015625)"/>
     <path id="DejaVuSans-77" d="M 269 3500 
L 844 3500 
L 1563 769 
L 2278 3500 
L 2956 3500 
L 3675 769 
L 4391 3500 
L 4966 3500 
L 4050 0 
L 3372 0 
L 2619 2869 
L 1863 0 
L 1184 0 
L 269 3500 
z
" transform="scale(0.015625)"/>
     <path id="DejaVuSans-3a" d="M 750 794 
L 1409 794 
L 1409 0 
L 750 0 
L 750 794 
z
M 750 3309 
L 1409 3309 
L 1409 2516 
L 750 2516 
L 750 3309 
z
" transform="scale(0.015625)"/>
     <path id="DejaVuSans-39" d="M 703 97 
L 703 672 
Q 941 559 1184 500 
Q 1428 441 1663 441 
Q 2288 441 2617 861 
Q 2947 1281 2994 2138 
Q 2813 1869 2534 1725 
Q 2256 1581 1919 1581 
Q 1219 1581 811 2004 
Q 403 2428 403 3163 
Q 403 3881 828 4315 
Q 1253 4750 1959 4750 
Q 2769 4750 3195 4129 
Q 3622 3509 3622 2328 
Q 3622 1225 3098 567 
Q 2575 -91 1691 -91 
Q 1453 -91 1209 -44 
Q 966 3 703 97 
z
M 1959 2075 
Q 2384 2075 2632 2365 
Q 2881 2656 2881 3163 
Q 2881 3666 2632 3958 
Q 2384 4250 1959 4250 
Q 1534 4250 1286 3958 
Q 1038 3666 1038 3163 
Q 1038 2656 1286 2365 
Q 1534 2075 1959 2075 
z
" transform="scale(0.015625)"/>
    </defs>
    <use xlink:href="#DejaVuSans-45"/>
    <use xlink:href="#DejaVuSans-70" x="63.183594"/>
    <use xlink:href="#DejaVuSans-69" x="126.660156"/>
    <use xlink:href="#DejaVuSans-73" x="154.443359"/>
    <use xlink:href="#DejaVuSans-6f" x="206.542969"/>
    <use xlink:href="#DejaVuSans-64" x="267.724609"/>
    <use xlink:href="#DejaVuSans-65" x="331.201172"/>
    <use xlink:href="#DejaVuSans-20" x="392.724609"/>
    <use xlink:href="#DejaVuSans-34" x="424.511719"/>
    <use xlink:href="#DejaVuSans-35" x="488.134766"/>
    <use xlink:href="#DejaVuSans-31" x="551.757812"/>
    <use xlink:href="#DejaVuSans-20" x="615.380859"/>
    <use xlink:href="#DejaVuSans-2d" x="647.167969"/>
    <use xlink:href="#DejaVuSans-20" x="683.251953"/>
    <use xlink:href="#DejaVuSans-54" x="715.039062"/>
    <use xlink:href="#DejaVuSans-6f" x="759.123047"/>
    <use xlink:href="#DejaVuSans-74" x="820.304688"/>
    <use xlink:href="#DejaVuSans-61" x="859.513672"/>
    <use xlink:href="#DejaVuSans-6c" x="920.792969"/>
    <use xlink:href="#DejaVuSans-20" x="948.576172"/>
    <use xlink:href="#DejaVuSans-52" x="980.363281"/>
    <use xlink:href="#DejaVuSans-65" x="1045.345703"/>
    <use xlink:href="#DejaVuSans-77" x="1106.869141"/>
    <use xlink:href="#DejaVuSans-61" x="1188.65625"/>
    <use xlink:href="#DejaVuSans-72" x="1249.935547"/>
    <use xlink:href="#DejaVuSans-64" x="1289.298828"/>
    <use xlink:href="#DejaVuSans-3a" x="1352.775391"/>
    <use xlink:href="#DejaVuSans-20" x="1386.466797"/>
    <use xlink:href="#DejaVuSans-2d" x="1418.253906"/>
    <use xlink:href="#DejaVuSans-32" x="1454.337891"/>
    <use xlink:href="#DejaVuSans-34" x="1517.960938"/>
    <use xlink:href="#DejaVuSans-38" x="1581.583984"/>
    <use xlink:href="#DejaVuSans-38" x="1645.207031"/>
    <use xlink:href="#DejaVuSans-30" x="1708.830078"/>
    <use xlink:href="#DejaVuSans-2e" x="1772.453125"/>
    <use xlink:href="#DejaVuSans-32" x="1804.240234"/>
    <use xlink:href="#DejaVuSans-39" x="1867.863281"/>
   </g>
  </g>
 </g>
 <defs>
  <clipPath id="pc22b8fa295">
   <rect x="52.94" y="85.2" width="656.26" height="216.306667"/>
  </clipPath>
  <clipPath id="p395a3b8636">
   <rect x="52.94" y="345.466667" width="656.26" height="216.306667"/>
  </clipPath>
  <clipPath id="p912fd227ee">
   <rect x="52.94" y="605.733333" width="656.26" height="216.306667"/>
  </clipPath>
 </defs>
</svg>
