<?xml version="1.0" encoding="utf-8" standalone="no"?>
<!DOCTYPE svg PUBLIC "-//W3C//DTD SVG 1.1//EN"
  "http://www.w3.org/Graphics/SVG/1.1/DTD/svg11.dtd">
<svg xmlns:xlink="http://www.w3.org/1999/xlink" width="720pt" height="864pt" viewBox="0 0 720 864" xmlns="http://www.w3.org/2000/svg" version="1.1">
 <metadata>
  <rdf:RDF xmlns:dc="http://purl.org/dc/elements/1.1/" xmlns:cc="http://creativecommons.org/ns#" xmlns:rdf="http://www.w3.org/1999/02/22-rdf-syntax-ns#">
   <cc:Work>
    <dc:type rdf:resource="http://purl.org/dc/dcmitype/StillImage"/>
    <dc:date>2024-06-03T12:49:21.075310</dc:date>
    <dc:format>image/svg+xml</dc:format>
    <dc:creator>
     <cc:Agent>
      <dc:title>Matplotlib v3.8.4, https://matplotlib.org/</dc:title>
     </cc:Agent>
    </dc:creator>
   </cc:Work>
  </rdf:RDF>
 </metadata>
 <defs>
  <style type="text/css">*{stroke-linejoin: round; stroke-linecap: butt}</style>
 </defs>
 <g id="figure_1">
  <g id="patch_1">
   <path d="M 0 864 
L 720 864 
L 720 0 
L 0 0 
z
" style="fill: #ffffff"/>
  </g>
  <g id="axes_1">
   <g id="patch_2">
    <path d="M 52.94 301.506667 
L 709.2 301.506667 
L 709.2 85.2 
L 52.94 85.2 
z
" style="fill: #ffffff"/>
   </g>
   <g id="matplotlib.axis_1">
    <g id="xtick_1">
     <g id="line2d_1">
      <defs>
       <path id="m1d22dea631" d="M 0 0 
L 0 3.5 
" style="stroke: #000000; stroke-width: 0.8"/>
      </defs>
      <g>
       <use xlink:href="#m1d22dea631" x="82.77" y="301.506667" style="stroke: #000000; stroke-width: 0.8"/>
      </g>
     </g>
     <g id="text_1">
      <!-- 0.00 -->
      <g transform="translate(71.637188 316.105104) scale(0.1 -0.1)">
       <defs>
        <path id="DejaVuSans-30" d="M 2034 4250 
Q 1547 4250 1301 3770 
Q 1056 3291 1056 2328 
Q 1056 1369 1301 889 
Q 1547 409 2034 409 
Q 2525 409 2770 889 
Q 3016 1369 3016 2328 
Q 3016 3291 2770 3770 
Q 2525 4250 2034 4250 
z
M 2034 4750 
Q 2819 4750 3233 4129 
Q 3647 3509 3647 2328 
Q 3647 1150 3233 529 
Q 2819 -91 2034 -91 
Q 1250 -91 836 529 
Q 422 1150 422 2328 
Q 422 3509 836 4129 
Q 1250 4750 2034 4750 
z
" transform="scale(0.015625)"/>
        <path id="DejaVuSans-2e" d="M 684 794 
L 1344 794 
L 1344 0 
L 684 0 
L 684 794 
z
" transform="scale(0.015625)"/>
       </defs>
       <use xlink:href="#DejaVuSans-30"/>
       <use xlink:href="#DejaVuSans-2e" x="63.623047"/>
       <use xlink:href="#DejaVuSans-30" x="95.410156"/>
       <use xlink:href="#DejaVuSans-30" x="159.033203"/>
      </g>
     </g>
    </g>
    <g id="xtick_2">
     <g id="line2d_2">
      <g>
       <use xlink:href="#m1d22dea631" x="201.62646" y="301.506667" style="stroke: #000000; stroke-width: 0.8"/>
      </g>
     </g>
     <g id="text_2">
      <!-- 0.02 -->
      <g transform="translate(190.493647 316.105104) scale(0.1 -0.1)">
       <defs>
        <path id="DejaVuSans-32" d="M 1228 531 
L 3431 531 
L 3431 0 
L 469 0 
L 469 531 
Q 828 903 1448 1529 
Q 2069 2156 2228 2338 
Q 2531 2678 2651 2914 
Q 2772 3150 2772 3378 
Q 2772 3750 2511 3984 
Q 2250 4219 1831 4219 
Q 1534 4219 1204 4116 
Q 875 4013 500 3803 
L 500 4441 
Q 881 4594 1212 4672 
Q 1544 4750 1819 4750 
Q 2544 4750 2975 4387 
Q 3406 4025 3406 3419 
Q 3406 3131 3298 2873 
Q 3191 2616 2906 2266 
Q 2828 2175 2409 1742 
Q 1991 1309 1228 531 
z
" transform="scale(0.015625)"/>
       </defs>
       <use xlink:href="#DejaVuSans-30"/>
       <use xlink:href="#DejaVuSans-2e" x="63.623047"/>
       <use xlink:href="#DejaVuSans-30" x="95.410156"/>
       <use xlink:href="#DejaVuSans-32" x="159.033203"/>
      </g>
     </g>
    </g>
    <g id="xtick_3">
     <g id="line2d_3">
      <g>
       <use xlink:href="#m1d22dea631" x="320.48292" y="301.506667" style="stroke: #000000; stroke-width: 0.8"/>
      </g>
     </g>
     <g id="text_3">
      <!-- 0.04 -->
      <g transform="translate(309.350107 316.105104) scale(0.1 -0.1)">
       <defs>
        <path id="DejaVuSans-34" d="M 2419 4116 
L 825 1625 
L 2419 1625 
L 2419 4116 
z
M 2253 4666 
L 3047 4666 
L 3047 1625 
L 3713 1625 
L 3713 1100 
L 3047 1100 
L 3047 0 
L 2419 0 
L 2419 1100 
L 313 1100 
L 313 1709 
L 2253 4666 
z
" transform="scale(0.015625)"/>
       </defs>
       <use xlink:href="#DejaVuSans-30"/>
       <use xlink:href="#DejaVuSans-2e" x="63.623047"/>
       <use xlink:href="#DejaVuSans-30" x="95.410156"/>
       <use xlink:href="#DejaVuSans-34" x="159.033203"/>
      </g>
     </g>
    </g>
    <g id="xtick_4">
     <g id="line2d_4">
      <g>
       <use xlink:href="#m1d22dea631" x="439.339379" y="301.506667" style="stroke: #000000; stroke-width: 0.8"/>
      </g>
     </g>
     <g id="text_4">
      <!-- 0.06 -->
      <g transform="translate(428.206567 316.105104) scale(0.1 -0.1)">
       <defs>
        <path id="DejaVuSans-36" d="M 2113 2584 
Q 1688 2584 1439 2293 
Q 1191 2003 1191 1497 
Q 1191 994 1439 701 
Q 1688 409 2113 409 
Q 2538 409 2786 701 
Q 3034 994 3034 1497 
Q 3034 2003 2786 2293 
Q 2538 2584 2113 2584 
z
M 3366 4563 
L 3366 3988 
Q 3128 4100 2886 4159 
Q 2644 4219 2406 4219 
Q 1781 4219 1451 3797 
Q 1122 3375 1075 2522 
Q 1259 2794 1537 2939 
Q 1816 3084 2150 3084 
Q 2853 3084 3261 2657 
Q 3669 2231 3669 1497 
Q 3669 778 3244 343 
Q 2819 -91 2113 -91 
Q 1303 -91 875 529 
Q 447 1150 447 2328 
Q 447 3434 972 4092 
Q 1497 4750 2381 4750 
Q 2619 4750 2861 4703 
Q 3103 4656 3366 4563 
z
" transform="scale(0.015625)"/>
       </defs>
       <use xlink:href="#DejaVuSans-30"/>
       <use xlink:href="#DejaVuSans-2e" x="63.623047"/>
       <use xlink:href="#DejaVuSans-30" x="95.410156"/>
       <use xlink:href="#DejaVuSans-36" x="159.033203"/>
      </g>
     </g>
    </g>
    <g id="xtick_5">
     <g id="line2d_5">
      <g>
       <use xlink:href="#m1d22dea631" x="558.195839" y="301.506667" style="stroke: #000000; stroke-width: 0.8"/>
      </g>
     </g>
     <g id="text_5">
      <!-- 0.08 -->
      <g transform="translate(547.063027 316.105104) scale(0.1 -0.1)">
       <defs>
        <path id="DejaVuSans-38" d="M 2034 2216 
Q 1584 2216 1326 1975 
Q 1069 1734 1069 1313 
Q 1069 891 1326 650 
Q 1584 409 2034 409 
Q 2484 409 2743 651 
Q 3003 894 3003 1313 
Q 3003 1734 2745 1975 
Q 2488 2216 2034 2216 
z
M 1403 2484 
Q 997 2584 770 2862 
Q 544 3141 544 3541 
Q 544 4100 942 4425 
Q 1341 4750 2034 4750 
Q 2731 4750 3128 4425 
Q 3525 4100 3525 3541 
Q 3525 3141 3298 2862 
Q 3072 2584 2669 2484 
Q 3125 2378 3379 2068 
Q 3634 1759 3634 1313 
Q 3634 634 3220 271 
Q 2806 -91 2034 -91 
Q 1263 -91 848 271 
Q 434 634 434 1313 
Q 434 1759 690 2068 
Q 947 2378 1403 2484 
z
M 1172 3481 
Q 1172 3119 1398 2916 
Q 1625 2713 2034 2713 
Q 2441 2713 2670 2916 
Q 2900 3119 2900 3481 
Q 2900 3844 2670 4047 
Q 2441 4250 2034 4250 
Q 1625 4250 1398 4047 
Q 1172 3844 1172 3481 
z
" transform="scale(0.015625)"/>
       </defs>
       <use xlink:href="#DejaVuSans-30"/>
       <use xlink:href="#DejaVuSans-2e" x="63.623047"/>
       <use xlink:href="#DejaVuSans-30" x="95.410156"/>
       <use xlink:href="#DejaVuSans-38" x="159.033203"/>
      </g>
     </g>
    </g>
    <g id="xtick_6">
     <g id="line2d_6">
      <g>
       <use xlink:href="#m1d22dea631" x="677.052299" y="301.506667" style="stroke: #000000; stroke-width: 0.8"/>
      </g>
     </g>
     <g id="text_6">
      <!-- 0.10 -->
      <g transform="translate(665.919487 316.105104) scale(0.1 -0.1)">
       <defs>
        <path id="DejaVuSans-31" d="M 794 531 
L 1825 531 
L 1825 4091 
L 703 3866 
L 703 4441 
L 1819 4666 
L 2450 4666 
L 2450 531 
L 3481 531 
L 3481 0 
L 794 0 
L 794 531 
z
" transform="scale(0.015625)"/>
       </defs>
       <use xlink:href="#DejaVuSans-30"/>
       <use xlink:href="#DejaVuSans-2e" x="63.623047"/>
       <use xlink:href="#DejaVuSans-31" x="95.410156"/>
       <use xlink:href="#DejaVuSans-30" x="159.033203"/>
      </g>
     </g>
    </g>
   </g>
   <g id="matplotlib.axis_2">
    <g id="ytick_1">
     <g id="line2d_7">
      <defs>
       <path id="m88070b73b0" d="M 0 0 
L -3.5 0 
" style="stroke: #ff4500; stroke-width: 0.8"/>
      </defs>
      <g>
       <use xlink:href="#m88070b73b0" x="52.94" y="291.68101" style="fill: #ff4500; stroke: #ff4500; stroke-width: 0.8"/>
      </g>
     </g>
     <g id="text_7">
      <!-- 0 -->
      <g style="fill: #ff4500" transform="translate(39.5775 295.480228) scale(0.1 -0.1)">
       <use xlink:href="#DejaVuSans-30"/>
      </g>
     </g>
    </g>
    <g id="ytick_2">
     <g id="line2d_8">
      <g>
       <use xlink:href="#m88070b73b0" x="52.94" y="255.767895" style="fill: #ff4500; stroke: #ff4500; stroke-width: 0.8"/>
      </g>
     </g>
     <g id="text_8">
      <!-- 2 -->
      <g style="fill: #ff4500" transform="translate(39.5775 259.567114) scale(0.1 -0.1)">
       <use xlink:href="#DejaVuSans-32"/>
      </g>
     </g>
    </g>
    <g id="ytick_3">
     <g id="line2d_9">
      <g>
       <use xlink:href="#m88070b73b0" x="52.94" y="219.854781" style="fill: #ff4500; stroke: #ff4500; stroke-width: 0.8"/>
      </g>
     </g>
     <g id="text_9">
      <!-- 4 -->
      <g style="fill: #ff4500" transform="translate(39.5775 223.654) scale(0.1 -0.1)">
       <use xlink:href="#DejaVuSans-34"/>
      </g>
     </g>
    </g>
    <g id="ytick_4">
     <g id="line2d_10">
      <g>
       <use xlink:href="#m88070b73b0" x="52.94" y="183.941666" style="fill: #ff4500; stroke: #ff4500; stroke-width: 0.8"/>
      </g>
     </g>
     <g id="text_10">
      <!-- 6 -->
      <g style="fill: #ff4500" transform="translate(39.5775 187.740885) scale(0.1 -0.1)">
       <use xlink:href="#DejaVuSans-36"/>
      </g>
     </g>
    </g>
    <g id="ytick_5">
     <g id="line2d_11">
      <g>
       <use xlink:href="#m88070b73b0" x="52.94" y="148.028552" style="fill: #ff4500; stroke: #ff4500; stroke-width: 0.8"/>
      </g>
     </g>
     <g id="text_11">
      <!-- 8 -->
      <g style="fill: #ff4500" transform="translate(39.5775 151.827771) scale(0.1 -0.1)">
       <use xlink:href="#DejaVuSans-38"/>
      </g>
     </g>
    </g>
    <g id="ytick_6">
     <g id="line2d_12">
      <g>
       <use xlink:href="#m88070b73b0" x="52.94" y="112.115438" style="fill: #ff4500; stroke: #ff4500; stroke-width: 0.8"/>
      </g>
     </g>
     <g id="text_12">
      <!-- 10 -->
      <g style="fill: #ff4500" transform="translate(33.215 115.914656) scale(0.1 -0.1)">
       <use xlink:href="#DejaVuSans-31"/>
       <use xlink:href="#DejaVuSans-30" x="63.623047"/>
      </g>
     </g>
    </g>
    <g id="text_13">
     <!-- Output Voltage -->
     <g style="fill: #ff4500" transform="translate(27.135313 231.066615) rotate(-90) scale(0.1 -0.1)">
      <defs>
       <path id="DejaVuSans-4f" d="M 2522 4238 
Q 1834 4238 1429 3725 
Q 1025 3213 1025 2328 
Q 1025 1447 1429 934 
Q 1834 422 2522 422 
Q 3209 422 3611 934 
Q 4013 1447 4013 2328 
Q 4013 3213 3611 3725 
Q 3209 4238 2522 4238 
z
M 2522 4750 
Q 3503 4750 4090 4092 
Q 4678 3434 4678 2328 
Q 4678 1225 4090 567 
Q 3503 -91 2522 -91 
Q 1538 -91 948 565 
Q 359 1222 359 2328 
Q 359 3434 948 4092 
Q 1538 4750 2522 4750 
z
" transform="scale(0.015625)"/>
       <path id="DejaVuSans-75" d="M 544 1381 
L 544 3500 
L 1119 3500 
L 1119 1403 
Q 1119 906 1312 657 
Q 1506 409 1894 409 
Q 2359 409 2629 706 
Q 2900 1003 2900 1516 
L 2900 3500 
L 3475 3500 
L 3475 0 
L 2900 0 
L 2900 538 
Q 2691 219 2414 64 
Q 2138 -91 1772 -91 
Q 1169 -91 856 284 
Q 544 659 544 1381 
z
M 1991 3584 
L 1991 3584 
z
" transform="scale(0.015625)"/>
       <path id="DejaVuSans-74" d="M 1172 4494 
L 1172 3500 
L 2356 3500 
L 2356 3053 
L 1172 3053 
L 1172 1153 
Q 1172 725 1289 603 
Q 1406 481 1766 481 
L 2356 481 
L 2356 0 
L 1766 0 
Q 1100 0 847 248 
Q 594 497 594 1153 
L 594 3053 
L 172 3053 
L 172 3500 
L 594 3500 
L 594 4494 
L 1172 4494 
z
" transform="scale(0.015625)"/>
       <path id="DejaVuSans-70" d="M 1159 525 
L 1159 -1331 
L 581 -1331 
L 581 3500 
L 1159 3500 
L 1159 2969 
Q 1341 3281 1617 3432 
Q 1894 3584 2278 3584 
Q 2916 3584 3314 3078 
Q 3713 2572 3713 1747 
Q 3713 922 3314 415 
Q 2916 -91 2278 -91 
Q 1894 -91 1617 61 
Q 1341 213 1159 525 
z
M 3116 1747 
Q 3116 2381 2855 2742 
Q 2594 3103 2138 3103 
Q 1681 3103 1420 2742 
Q 1159 2381 1159 1747 
Q 1159 1113 1420 752 
Q 1681 391 2138 391 
Q 2594 391 2855 752 
Q 3116 1113 3116 1747 
z
" transform="scale(0.015625)"/>
       <path id="DejaVuSans-20" transform="scale(0.015625)"/>
       <path id="DejaVuSans-56" d="M 1831 0 
L 50 4666 
L 709 4666 
L 2188 738 
L 3669 4666 
L 4325 4666 
L 2547 0 
L 1831 0 
z
" transform="scale(0.015625)"/>
       <path id="DejaVuSans-6f" d="M 1959 3097 
Q 1497 3097 1228 2736 
Q 959 2375 959 1747 
Q 959 1119 1226 758 
Q 1494 397 1959 397 
Q 2419 397 2687 759 
Q 2956 1122 2956 1747 
Q 2956 2369 2687 2733 
Q 2419 3097 1959 3097 
z
M 1959 3584 
Q 2709 3584 3137 3096 
Q 3566 2609 3566 1747 
Q 3566 888 3137 398 
Q 2709 -91 1959 -91 
Q 1206 -91 779 398 
Q 353 888 353 1747 
Q 353 2609 779 3096 
Q 1206 3584 1959 3584 
z
" transform="scale(0.015625)"/>
       <path id="DejaVuSans-6c" d="M 603 4863 
L 1178 4863 
L 1178 0 
L 603 0 
L 603 4863 
z
" transform="scale(0.015625)"/>
       <path id="DejaVuSans-61" d="M 2194 1759 
Q 1497 1759 1228 1600 
Q 959 1441 959 1056 
Q 959 750 1161 570 
Q 1363 391 1709 391 
Q 2188 391 2477 730 
Q 2766 1069 2766 1631 
L 2766 1759 
L 2194 1759 
z
M 3341 1997 
L 3341 0 
L 2766 0 
L 2766 531 
Q 2569 213 2275 61 
Q 1981 -91 1556 -91 
Q 1019 -91 701 211 
Q 384 513 384 1019 
Q 384 1609 779 1909 
Q 1175 2209 1959 2209 
L 2766 2209 
L 2766 2266 
Q 2766 2663 2505 2880 
Q 2244 3097 1772 3097 
Q 1472 3097 1187 3025 
Q 903 2953 641 2809 
L 641 3341 
Q 956 3463 1253 3523 
Q 1550 3584 1831 3584 
Q 2591 3584 2966 3190 
Q 3341 2797 3341 1997 
z
" transform="scale(0.015625)"/>
       <path id="DejaVuSans-67" d="M 2906 1791 
Q 2906 2416 2648 2759 
Q 2391 3103 1925 3103 
Q 1463 3103 1205 2759 
Q 947 2416 947 1791 
Q 947 1169 1205 825 
Q 1463 481 1925 481 
Q 2391 481 2648 825 
Q 2906 1169 2906 1791 
z
M 3481 434 
Q 3481 -459 3084 -895 
Q 2688 -1331 1869 -1331 
Q 1566 -1331 1297 -1286 
Q 1028 -1241 775 -1147 
L 775 -588 
Q 1028 -725 1275 -790 
Q 1522 -856 1778 -856 
Q 2344 -856 2625 -561 
Q 2906 -266 2906 331 
L 2906 616 
Q 2728 306 2450 153 
Q 2172 0 1784 0 
Q 1141 0 747 490 
Q 353 981 353 1791 
Q 353 2603 747 3093 
Q 1141 3584 1784 3584 
Q 2172 3584 2450 3431 
Q 2728 3278 2906 2969 
L 2906 3500 
L 3481 3500 
L 3481 434 
z
" transform="scale(0.015625)"/>
       <path id="DejaVuSans-65" d="M 3597 1894 
L 3597 1613 
L 953 1613 
Q 991 1019 1311 708 
Q 1631 397 2203 397 
Q 2534 397 2845 478 
Q 3156 559 3463 722 
L 3463 178 
Q 3153 47 2828 -22 
Q 2503 -91 2169 -91 
Q 1331 -91 842 396 
Q 353 884 353 1716 
Q 353 2575 817 3079 
Q 1281 3584 2069 3584 
Q 2775 3584 3186 3129 
Q 3597 2675 3597 1894 
z
M 3022 2063 
Q 3016 2534 2758 2815 
Q 2500 3097 2075 3097 
Q 1594 3097 1305 2825 
Q 1016 2553 972 2059 
L 3022 2063 
z
" transform="scale(0.015625)"/>
      </defs>
      <use xlink:href="#DejaVuSans-4f"/>
      <use xlink:href="#DejaVuSans-75" x="78.710938"/>
      <use xlink:href="#DejaVuSans-74" x="142.089844"/>
      <use xlink:href="#DejaVuSans-70" x="181.298828"/>
      <use xlink:href="#DejaVuSans-75" x="244.775391"/>
      <use xlink:href="#DejaVuSans-74" x="308.154297"/>
      <use xlink:href="#DejaVuSans-20" x="347.363281"/>
      <use xlink:href="#DejaVuSans-56" x="379.150391"/>
      <use xlink:href="#DejaVuSans-6f" x="439.808594"/>
      <use xlink:href="#DejaVuSans-6c" x="500.990234"/>
      <use xlink:href="#DejaVuSans-74" x="528.773438"/>
      <use xlink:href="#DejaVuSans-61" x="567.982422"/>
      <use xlink:href="#DejaVuSans-67" x="629.261719"/>
      <use xlink:href="#DejaVuSans-65" x="692.738281"/>
     </g>
    </g>
   </g>
   <g id="line2d_13">
    <path d="M 82.77 291.674545 
L 82.948285 291.541102 
L 83.185998 290.886447 
L 83.542567 288.974053 
L 84.017993 285.020029 
L 84.731132 276.91795 
L 86.038553 261.570839 
L 86.989404 250.195618 
L 91.743663 189.618489 
L 93.288797 177.161257 
L 95.844211 156.761109 
L 97.448773 145.724142 
L 98.934479 136.982938 
L 100.360756 129.865233 
L 100.717325 128.635946 
L 101.965318 125.25238 
L 105.59044 115.127304 
L 106.541292 112.992051 
L 107.373287 112.517287 
L 108.145854 111.72615 
L 109.334419 110.152857 
L 112.30583 106.032409 
L 112.484115 106.265877 
L 113.137825 107.543038 
L 113.67268 108.094097 
L 114.148105 108.298418 
L 114.682959 108.284743 
L 115.33667 108.01144 
L 116.168665 107.39125 
L 117.476086 106.08997 
L 121.754919 101.64546 
L 123.597194 100.129993 
L 125.439469 98.894086 
L 127.400601 97.846997 
L 129.540017 96.963563 
L 130.253156 96.780834 
L 130.609725 97.300714 
L 131.263436 98.046431 
L 131.976574 98.513825 
L 132.749141 98.734271 
L 133.165139 98.82631 
L 133.402852 99.323185 
L 134.056562 100.624373 
L 134.650845 101.344163 
L 135.245127 101.738965 
L 135.898838 101.899214 
L 136.611976 101.843235 
L 137.562828 101.527229 
L 138.989105 100.784591 
L 139.405103 100.670195 
L 140.237098 100.592293 
L 141.306806 100.253186 
L 142.435943 99.913093 
L 143.267938 99.905562 
L 144.337646 99.649843 
L 146.001637 98.991961 
L 148.081625 98.134628 
L 148.438194 98.616918 
L 149.091905 99.289559 
L 149.745615 99.653268 
L 150.458754 99.799872 
L 151.469034 99.951463 
L 152.182173 100.095638 
L 153.014168 100.032663 
L 153.965019 99.91451 
L 154.202732 100.477838 
L 154.797015 101.80307 
L 155.391297 102.623881 
L 155.985579 103.069327 
L 156.579862 103.238256 
L 156.995859 103.375949 
L 158.065567 105.218234 
L 158.600421 105.601854 
L 159.135275 105.726961 
L 159.729558 105.641646 
L 160.086127 105.636766 
L 160.620981 105.965819 
L 161.155835 106.045479 
L 161.809546 105.895575 
L 162.641541 105.438973 
L 163.057539 105.268731 
L 163.592393 105.455999 
L 164.186675 105.425484 
L 164.899814 105.15425 
L 165.910094 104.496388 
L 167.633512 103.050381 
L 170.72378 100.478055 
L 170.902065 100.488642 
L 171.08035 100.830849 
L 171.377491 102.094482 
L 171.793488 105.087317 
L 174.111189 124.725142 
L 174.646043 126.915594 
L 175.121469 127.994017 
L 175.537467 128.41435 
L 175.894036 128.464059 
L 176.250606 128.28137 
L 176.726031 127.750181 
L 177.379742 126.622525 
L 178.330594 124.465403 
L 180.351154 119.147046 
L 181.242577 117.094716 
L 184.332845 111.148542 
L 186.828831 107.45628 
L 188.908819 104.615776 
L 189.681386 103.824202 
L 190.037955 104.265216 
L 190.572809 104.726685 
L 191.107663 104.921698 
L 191.701945 104.906052 
L 192.415084 104.658591 
L 192.771654 104.59993 
L 193.306508 104.87808 
L 193.90079 104.930528 
L 194.613929 104.739191 
L 195.56478 104.350534 
L 195.802493 104.834413 
L 196.396776 105.948806 
L 196.93163 106.507224 
L 197.466484 106.749161 
L 198.001338 106.753267 
L 198.655048 106.524009 
L 199.487044 105.982956 
L 200.081326 105.632687 
L 200.259611 105.946147 
L 200.556752 107.148786 
L 200.972749 110.033424 
L 201.567032 116.015696 
L 202.28017 123.074306 
L 202.815024 126.371186 
L 203.349878 128.364021 
L 203.765876 129.213478 
L 204.122445 129.553681 
L 204.419587 129.753097 
L 204.6573 130.363137 
L 205.132725 131.510471 
L 205.489295 131.910953 
L 205.845864 131.992959 
L 206.202434 131.813687 
L 206.618431 131.338641 
L 207.390998 130.319675 
L 207.569283 130.59911 
L 208.044709 131.5081 
L 208.401278 131.775324 
L 208.757847 131.749114 
L 209.114417 131.482836 
L 209.589843 130.831565 
L 210.243553 129.528827 
L 211.253833 126.945364 
L 213.630962 120.622793 
L 214.106388 120.334639 
L 214.70067 119.664203 
L 215.532666 118.33855 
L 216.305233 117.135726 
L 216.483517 117.361197 
L 217.018371 118.333018 
L 217.434369 118.681422 
L 217.850367 118.743639 
L 218.266364 118.57869 
L 218.801218 118.110212 
L 219.514357 117.16658 
L 220.643493 115.240269 
L 225.338324 106.800208 
L 227.002314 104.450125 
L 228.606876 102.560117 
L 230.270867 100.947644 
L 231.994285 99.594964 
L 233.777132 98.475953 
L 235.738264 97.509541 
L 237.937108 96.683223 
L 240.433094 95.993401 
L 243.047936 95.497827 
L 243.226221 95.71139 
L 244.058216 97.357888 
L 244.711926 98.145271 
L 245.365637 98.611641 
L 246.078776 98.858373 
L 246.910771 98.90929 
L 247.980479 98.741574 
L 249.64447 98.226683 
L 252.081027 97.407103 
L 252.437596 97.917352 
L 253.091307 98.639883 
L 253.745017 99.051306 
L 254.458156 99.247136 
L 255.290151 99.248131 
L 256.419288 99.010731 
L 258.02385 98.592874 
L 259.390699 100.625767 
L 260.04441 101.001868 
L 260.69812 101.125436 
L 261.292403 101.24873 
L 261.946113 101.417343 
L 262.71868 101.367378 
L 263.669532 101.069453 
L 264.026101 100.97644 
L 264.917525 101.49057 
L 265.571235 101.570175 
L 266.40323 101.428885 
L 267.532367 100.976446 
L 269.552927 99.868301 
L 269.968924 99.691753 
L 270.979204 100.180813 
L 271.751771 100.228508 
L 272.702623 100.046241 
L 274.069472 99.534005 
L 275.971175 98.788157 
L 276.624886 99.221067 
L 277.338025 99.429069 
L 278.17002 99.433944 
L 279.239728 99.208354 
L 280.963147 98.586967 
L 285.717405 96.790251 
L 288.451104 96.042316 
L 291.481943 95.452069 
L 293.62136 95.214045 
L 293.859073 95.686532 
L 294.512783 96.986964 
L 295.166494 97.832313 
L 295.820204 98.345184 
L 296.533343 98.632583 
L 297.365338 98.720898 
L 298.197333 98.778862 
L 298.435046 99.435055 
L 298.791616 101.404065 
L 299.742467 109.072951 
L 300.33675 113.049159 
L 300.931032 115.578448 
L 301.465886 116.923019 
L 301.941312 117.553767 
L 302.238453 117.87542 
L 302.476166 118.622895 
L 303.664731 123.411053 
L 304.080728 124.078791 
L 304.496726 124.346724 
L 304.853295 124.319864 
L 305.269293 124.049142 
L 305.804147 123.407734 
L 306.576714 122.074683 
L 307.765278 119.505127 
L 311.74697 110.595682 
L 313.41096 107.563265 
L 314.480668 105.940778 
L 314.718381 106.013251 
L 315.253235 106.122324 
L 315.847518 106.017613 
L 316.620085 105.634696 
L 317.689793 104.828757 
L 320.007494 102.715806 
L 322.384623 100.683015 
L 324.345755 99.293961 
L 326.306886 98.173637 
L 328.386874 97.241135 
L 330.704575 96.452551 
L 333.319417 95.804536 
L 335.042836 95.545456 
L 335.221121 95.875818 
L 336.766255 100.374866 
L 337.360537 101.175132 
L 338.25196 102.17872 
L 339.143384 105.037525 
L 340.034807 107.268598 
L 340.450805 110.051514 
L 341.045087 115.923988 
L 342.055367 126.29122 
L 342.590221 129.37929 
L 343.065647 131.029353 
L 343.481645 131.810886 
L 343.838214 132.08596 
L 344.075927 132.242249 
L 344.31364 132.830524 
L 344.729637 133.82677 
L 345.086207 134.235895 
L 345.383348 134.318089 
L 345.739917 134.159116 
L 346.155915 133.68401 
L 346.750197 132.593413 
L 347.34448 131.527873 
L 347.760477 131.100851 
L 348.354759 130.099934 
L 349.186755 128.17837 
L 350.613032 124.197447 
L 353.584444 115.856044 
L 355.248434 111.894571 
L 355.783288 110.898321 
L 355.902145 110.932142 
L 356.080429 111.258931 
L 356.912425 113.435496 
L 357.38785 114.031379 
L 357.803848 114.252952 
L 358.219846 114.253426 
L 358.695271 114.184361 
L 358.873556 114.530576 
L 359.170697 115.735149 
L 359.705551 117.873154 
L 360.180977 119.023817 
L 360.656403 119.626681 
L 361.072401 119.800917 
L 361.488398 119.715434 
L 361.963824 119.369563 
L 362.617535 118.576459 
L 363.568386 117.005691 
L 365.11352 114.408684 
L 365.529518 114.546668 
L 366.004944 114.45451 
L 366.539798 114.107807 
L 367.252937 113.362987 
L 368.322645 111.885767 
L 370.699774 108.423624 
L 370.878059 108.732036 
L 372.126051 112.053953 
L 372.601477 112.526281 
L 373.076903 112.682555 
L 373.552329 112.595007 
L 374.146611 112.23002 
L 374.919178 111.463484 
L 376.107743 109.925134 
L 376.583169 109.394933 
L 376.761453 109.611682 
L 377.058594 110.605113 
L 377.593449 112.238688 
L 378.128303 113.196958 
L 378.603728 113.613324 
L 379.019726 113.716484 
L 379.732865 113.732825 
L 379.970578 114.392171 
L 380.505432 115.884835 
L 380.980858 116.627094 
L 381.396855 116.924227 
L 381.812853 116.961197 
L 382.288279 116.753482 
L 382.704276 116.544759 
L 382.882561 116.828211 
L 383.476843 118.031695 
L 383.892841 118.424363 
L 384.308839 118.523877 
L 384.724836 118.390381 
L 385.25969 117.955257 
L 385.972829 117.04625 
L 387.042537 115.265728 
L 392.153365 106.24128 
L 393.817355 103.984791 
L 395.421918 102.175648 
L 397.085908 100.634932 
L 397.620762 100.265626 
L 397.799047 100.476271 
L 398.393329 101.356121 
L 398.987611 101.865468 
L 399.581894 102.100631 
L 400.235604 102.130084 
L 401.067599 101.93081 
L 402.196736 101.409076 
L 403.623013 100.710603 
L 404.930434 102.402322 
L 405.524717 102.657539 
L 406.178427 102.691732 
L 406.950994 102.502684 
L 408.020702 101.991425 
L 409.922406 100.786509 
L 413.072102 98.828003 
L 415.270946 97.731305 
L 415.508659 97.689351 
L 415.865229 98.172763 
L 416.518939 98.854055 
L 417.17265 99.232567 
L 417.885788 99.399783 
L 418.064073 99.472744 
L 418.242358 99.83381 
L 418.539499 101.128669 
L 419.252638 104.567397 
L 419.728064 106.68693 
L 420.203489 110.432653 
L 421.035485 117.461978 
L 422.342906 124.925574 
L 422.818332 126.273806 
L 423.234329 126.893977 
L 423.590898 127.092269 
L 423.947468 127.040176 
L 424.363465 126.723557 
L 424.89832 126.003333 
L 425.670887 124.529903 
L 426.859451 121.713469 
L 427.216021 121.071533 
L 427.394305 121.196876 
L 428.166872 122.422246 
L 428.523442 122.572283 
L 428.880011 122.510174 
L 429.355437 122.163659 
L 429.949719 121.410891 
L 430.781714 119.960112 
L 432.207992 116.947941 
L 435.238832 110.512421 
L 436.902822 107.526072 
L 438.507384 105.09475 
L 439.458236 103.941849 
L 440.706229 103.09208 
L 446.173626 99.076591 
L 448.253614 97.957862 
L 450.39303 97.058269 
L 452.770159 96.30276 
L 455.503858 95.675959 
L 457.227277 95.427318 
L 457.880987 95.709297 
L 458.891267 95.922821 
L 460.198688 95.962273 
L 462.278676 95.772787 
L 462.932387 95.749725 
L 463.110671 96.085432 
L 463.883238 98.040232 
L 464.536949 99.072015 
L 465.190659 99.689014 
L 465.84437 100.006082 
L 466.141511 100.206497 
L 466.735793 100.917279 
L 467.330076 101.31294 
L 467.983786 101.482125 
L 468.756353 101.430959 
L 469.707205 101.129808 
L 471.192911 100.393141 
L 475.947169 97.876013 
L 476.125454 97.940056 
L 476.303738 98.335017 
L 476.60088 99.684909 
L 477.016877 102.794886 
L 478.502583 115.405873 
L 479.037437 117.648687 
L 479.572291 118.982634 
L 480.047717 119.581833 
L 480.463715 119.753989 
L 480.879712 119.667269 
L 481.355138 119.320806 
L 482.008848 118.527975 
L 482.9597 116.95912 
L 483.791695 115.637796 
L 483.96998 115.855668 
L 484.445406 116.488652 
L 484.683119 116.791544 
L 484.920832 117.5678 
L 485.277401 119.589625 
L 485.812255 124.160883 
L 486.584822 133.043979 
L 487.535674 143.998848 
L 488.070528 147.379644 
L 488.545954 149.012085 
L 488.902523 149.568745 
L 489.199664 149.676021 
L 489.496805 149.511451 
L 489.734518 149.353977 
L 489.912803 149.504529 
L 490.209944 149.731039 
L 490.507085 149.667218 
L 490.863655 149.270062 
L 491.339081 148.303904 
L 491.992791 146.375326 
L 492.943643 142.797667 
L 495.320772 132.631311 
L 496.331052 128.815971 
L 498.827038 120.557438 
L 501.44188 114.672667 
L 501.620164 114.953391 
L 502.749301 117.767212 
L 503.165298 118.113241 
L 503.581296 118.178541 
L 503.997294 118.02097 
L 504.829289 117.587516 
L 505.245286 117.72927 
L 505.661284 117.636165 
L 506.196138 117.250307 
L 506.909277 116.402475 
L 507.919557 114.80721 
L 508.454411 114.006057 
L 508.632695 114.156227 
L 508.870408 114.840249 
L 509.226978 116.759926 
L 509.702404 120.66734 
L 510.415542 128.609935 
L 511.306966 138.582099 
L 511.84182 141.972246 
L 512.317246 143.675106 
L 512.673815 144.313755 
L 512.970956 144.504378 
L 513.50581 144.637057 
L 514.278377 146.031359 
L 514.575518 146.058459 
L 514.87266 145.842684 
L 515.288657 145.204504 
L 515.823511 143.935306 
L 516.477222 142.320086 
L 516.655507 142.373154 
L 516.952648 142.483049 
L 517.249789 142.353898 
L 517.606358 141.935447 
L 518.081784 141.01964 
L 519.092064 138.763242 
L 519.151492 138.796975 
L 519.329777 139.084803 
L 519.626918 140.111884 
L 520.102344 141.606902 
L 520.458913 142.137784 
L 520.756054 142.264619 
L 521.053196 142.150738 
L 521.409765 141.748765 
L 521.885191 140.852216 
L 522.59833 138.947237 
L 523.668038 135.345277 
L 526.580021 125.202885 
L 528.362868 119.907394 
L 528.541153 119.850476 
L 528.95715 119.858538 
L 529.432576 119.594506 
L 530.026858 118.957853 
L 530.858853 117.68326 
L 532.225703 115.099767 
L 535.494255 108.821238 
L 537.217674 106.051972 
L 537.395959 105.935249 
L 538.168526 106.138832 
L 538.762808 106.022576 
L 539.535375 105.629299 
L 540.486227 105.126193 
L 541.021081 105.262889 
L 541.615363 105.194488 
L 542.38793 104.864017 
L 543.160497 104.501659 
L 543.338782 104.841413 
L 543.992492 106.446605 
L 544.527346 107.206842 
L 545.0622 107.588503 
L 545.597054 107.684381 
L 546.250765 107.660933 
L 547.261045 109.086255 
L 547.736471 109.296132 
L 548.271325 109.273918 
L 548.865607 109.011772 
L 549.638174 108.415594 
L 550.826739 107.180239 
L 552.253016 105.657283 
L 552.966155 106.020947 
L 553.560437 106.019598 
L 554.273576 105.759594 
L 555.224428 105.134407 
L 556.769562 103.797533 
L 557.720413 103.06322 
L 557.898698 103.372509 
L 558.195839 104.57865 
L 558.84955 107.586958 
L 559.443832 109.285576 
L 559.978686 110.177991 
L 560.454112 110.586093 
L 560.929538 110.71496 
L 561.464392 110.605246 
L 562.118102 110.204666 
L 563.009526 109.350782 
L 564.435803 107.622829 
L 567.823212 103.458191 
L 569.665488 101.591098 
L 569.962629 101.46501 
L 570.140913 101.768406 
L 570.735196 102.88357 
L 571.329478 103.535575 
L 571.92376 103.844585 
L 572.518043 103.902587 
L 572.755756 103.933281 
L 572.93404 104.25323 
L 574.241461 107.901808 
L 574.776315 108.515573 
L 575.251741 108.75687 
L 575.786595 108.768447 
L 576.380878 108.541862 
L 577.153445 107.988779 
L 578.282581 106.877246 
L 583.631122 101.251359 
L 585.473397 99.800094 
L 587.315672 98.625953 
L 589.276803 97.635613 
L 591.41622 96.802225 
L 593.852777 96.095545 
L 596.645904 95.519269 
L 596.824189 95.632347 
L 597.715612 96.915549 
L 598.428751 97.504832 
L 599.201318 97.839041 
L 600.092741 97.9607 
L 601.221878 97.866737 
L 602.945296 97.464605 
L 609.304117 95.80961 
L 612.632098 95.259267 
L 614.652658 95.081511 
L 615.722366 96.077036 
L 616.554361 96.470984 
L 617.505213 96.660133 
L 618.693777 96.660258 
L 620.714337 96.589757 
L 621.427476 97.218917 
L 622.200043 97.589176 
L 623.269751 98.014647 
L 623.507464 98.858196 
L 624.398887 102.742523 
L 624.99317 104.295922 
L 625.587452 105.237871 
L 626.122306 105.693682 
L 626.65716 105.870984 
L 627.251442 105.825594 
L 627.964581 105.533201 
L 628.974861 104.84224 
L 630.757708 103.284641 
L 632.302842 101.962059 
L 632.481127 102.167956 
L 633.194265 103.503906 
L 633.788548 104.110626 
L 634.323402 104.363231 
L 634.917684 104.403277 
L 635.333682 104.460934 
L 635.630823 105.186667 
L 636.225105 106.399749 
L 636.759959 107.016241 
L 637.294813 107.294082 
L 637.829667 107.317166 
L 638.483378 107.094056 
L 639.315373 106.542013 
L 640.563366 105.407921 
L 641.157648 104.952786 
L 641.335933 105.243341 
L 642.286785 107.618238 
L 642.821639 108.267344 
L 643.297064 108.535243 
L 643.831919 108.572311 
L 645.436481 108.209318 
L 646.209048 107.679674 
L 647.159899 106.930556 
L 647.338184 107.218325 
L 647.991895 108.640444 
L 648.526749 109.259682 
L 649.002175 109.495814 
L 649.4776 109.505209 
L 650.071883 109.27778 
L 650.84445 108.705846 
L 651.973586 107.544971 
L 656.014706 103.04864 
L 656.19299 103.338187 
L 657.143842 105.757111 
L 657.678696 106.457274 
L 658.21355 106.804914 
L 658.748404 106.886544 
L 659.164402 106.952766 
L 660.174682 108.499562 
L 660.650108 108.756827 
L 661.184962 108.781938 
L 661.779244 108.566094 
L 662.551811 108.259485 
L 663.205521 107.961973 
L 664.096945 107.269398 
L 665.463794 105.880559 
L 669.267201 101.90411 
L 671.168904 100.298724 
L 673.011179 99.030433 
L 674.972311 97.954128 
L 676.874014 97.134364 
L 677.052299 97.210411 
L 677.943722 98.320383 
L 678.597433 98.757149 
L 679.310572 98.978541 
L 679.37 98.987647 
L 679.37 98.987647 
" clip-path="url(#p603f82c5fc)" style="fill: none; stroke: #ff4500; stroke-width: 1.5; stroke-linecap: square"/>
   </g>
   <g id="patch_3">
    <path d="M 52.94 301.506667 
L 52.94 85.2 
" style="fill: none; stroke: #000000; stroke-width: 0.8; stroke-linejoin: miter; stroke-linecap: square"/>
   </g>
   <g id="patch_4">
    <path d="M 709.2 301.506667 
L 709.2 85.2 
" style="fill: none; stroke: #000000; stroke-width: 0.8; stroke-linejoin: miter; stroke-linecap: square"/>
   </g>
   <g id="patch_5">
    <path d="M 52.94 301.506667 
L 709.2 301.506667 
" style="fill: none; stroke: #000000; stroke-width: 0.8; stroke-linejoin: miter; stroke-linecap: square"/>
   </g>
   <g id="patch_6">
    <path d="M 52.94 85.2 
L 709.2 85.2 
" style="fill: none; stroke: #000000; stroke-width: 0.8; stroke-linejoin: miter; stroke-linecap: square"/>
   </g>
   <g id="text_14">
    <!-- Output Voltage -->
    <g transform="translate(335.814062 79.2) scale(0.12 -0.12)">
     <use xlink:href="#DejaVuSans-4f"/>
     <use xlink:href="#DejaVuSans-75" x="78.710938"/>
     <use xlink:href="#DejaVuSans-74" x="142.089844"/>
     <use xlink:href="#DejaVuSans-70" x="181.298828"/>
     <use xlink:href="#DejaVuSans-75" x="244.775391"/>
     <use xlink:href="#DejaVuSans-74" x="308.154297"/>
     <use xlink:href="#DejaVuSans-20" x="347.363281"/>
     <use xlink:href="#DejaVuSans-56" x="379.150391"/>
     <use xlink:href="#DejaVuSans-6f" x="439.808594"/>
     <use xlink:href="#DejaVuSans-6c" x="500.990234"/>
     <use xlink:href="#DejaVuSans-74" x="528.773438"/>
     <use xlink:href="#DejaVuSans-61" x="567.982422"/>
     <use xlink:href="#DejaVuSans-67" x="629.261719"/>
     <use xlink:href="#DejaVuSans-65" x="692.738281"/>
    </g>
   </g>
  </g>
  <g id="axes_2">
   <g id="patch_7">
    <path d="M 52.94 561.773333 
L 709.2 561.773333 
L 709.2 345.466667 
L 52.94 345.466667 
z
" style="fill: #ffffff"/>
   </g>
   <g id="matplotlib.axis_3">
    <g id="xtick_7">
     <g id="line2d_14">
      <g>
       <use xlink:href="#m1d22dea631" x="82.77" y="561.773333" style="stroke: #000000; stroke-width: 0.8"/>
      </g>
     </g>
     <g id="text_15">
      <!-- 0.00 -->
      <g transform="translate(71.637188 576.371771) scale(0.1 -0.1)">
       <use xlink:href="#DejaVuSans-30"/>
       <use xlink:href="#DejaVuSans-2e" x="63.623047"/>
       <use xlink:href="#DejaVuSans-30" x="95.410156"/>
       <use xlink:href="#DejaVuSans-30" x="159.033203"/>
      </g>
     </g>
    </g>
    <g id="xtick_8">
     <g id="line2d_15">
      <g>
       <use xlink:href="#m1d22dea631" x="201.62646" y="561.773333" style="stroke: #000000; stroke-width: 0.8"/>
      </g>
     </g>
     <g id="text_16">
      <!-- 0.02 -->
      <g transform="translate(190.493647 576.371771) scale(0.1 -0.1)">
       <use xlink:href="#DejaVuSans-30"/>
       <use xlink:href="#DejaVuSans-2e" x="63.623047"/>
       <use xlink:href="#DejaVuSans-30" x="95.410156"/>
       <use xlink:href="#DejaVuSans-32" x="159.033203"/>
      </g>
     </g>
    </g>
    <g id="xtick_9">
     <g id="line2d_16">
      <g>
       <use xlink:href="#m1d22dea631" x="320.48292" y="561.773333" style="stroke: #000000; stroke-width: 0.8"/>
      </g>
     </g>
     <g id="text_17">
      <!-- 0.04 -->
      <g transform="translate(309.350107 576.371771) scale(0.1 -0.1)">
       <use xlink:href="#DejaVuSans-30"/>
       <use xlink:href="#DejaVuSans-2e" x="63.623047"/>
       <use xlink:href="#DejaVuSans-30" x="95.410156"/>
       <use xlink:href="#DejaVuSans-34" x="159.033203"/>
      </g>
     </g>
    </g>
    <g id="xtick_10">
     <g id="line2d_17">
      <g>
       <use xlink:href="#m1d22dea631" x="439.339379" y="561.773333" style="stroke: #000000; stroke-width: 0.8"/>
      </g>
     </g>
     <g id="text_18">
      <!-- 0.06 -->
      <g transform="translate(428.206567 576.371771) scale(0.1 -0.1)">
       <use xlink:href="#DejaVuSans-30"/>
       <use xlink:href="#DejaVuSans-2e" x="63.623047"/>
       <use xlink:href="#DejaVuSans-30" x="95.410156"/>
       <use xlink:href="#DejaVuSans-36" x="159.033203"/>
      </g>
     </g>
    </g>
    <g id="xtick_11">
     <g id="line2d_18">
      <g>
       <use xlink:href="#m1d22dea631" x="558.195839" y="561.773333" style="stroke: #000000; stroke-width: 0.8"/>
      </g>
     </g>
     <g id="text_19">
      <!-- 0.08 -->
      <g transform="translate(547.063027 576.371771) scale(0.1 -0.1)">
       <use xlink:href="#DejaVuSans-30"/>
       <use xlink:href="#DejaVuSans-2e" x="63.623047"/>
       <use xlink:href="#DejaVuSans-30" x="95.410156"/>
       <use xlink:href="#DejaVuSans-38" x="159.033203"/>
      </g>
     </g>
    </g>
    <g id="xtick_12">
     <g id="line2d_19">
      <g>
       <use xlink:href="#m1d22dea631" x="677.052299" y="561.773333" style="stroke: #000000; stroke-width: 0.8"/>
      </g>
     </g>
     <g id="text_20">
      <!-- 0.10 -->
      <g transform="translate(665.919487 576.371771) scale(0.1 -0.1)">
       <use xlink:href="#DejaVuSans-30"/>
       <use xlink:href="#DejaVuSans-2e" x="63.623047"/>
       <use xlink:href="#DejaVuSans-31" x="95.410156"/>
       <use xlink:href="#DejaVuSans-30" x="159.033203"/>
      </g>
     </g>
    </g>
   </g>
   <g id="matplotlib.axis_4">
    <g id="ytick_7">
     <g id="line2d_20">
      <defs>
       <path id="mad4ba9122d" d="M 0 0 
L -3.5 0 
" style="stroke: #4682b4; stroke-width: 0.8"/>
      </defs>
      <g>
       <use xlink:href="#mad4ba9122d" x="52.94" y="561.504239" style="fill: #4682b4; stroke: #4682b4; stroke-width: 0.8"/>
      </g>
     </g>
     <g id="text_21">
      <!-- 0.0 -->
      <g style="fill: #4682b4" transform="translate(30.036875 565.303458) scale(0.1 -0.1)">
       <use xlink:href="#DejaVuSans-30"/>
       <use xlink:href="#DejaVuSans-2e" x="63.623047"/>
       <use xlink:href="#DejaVuSans-30" x="95.410156"/>
      </g>
     </g>
    </g>
    <g id="ytick_8">
     <g id="line2d_21">
      <g>
       <use xlink:href="#mad4ba9122d" x="52.94" y="520.263149" style="fill: #4682b4; stroke: #4682b4; stroke-width: 0.8"/>
      </g>
     </g>
     <g id="text_22">
      <!-- 0.2 -->
      <g style="fill: #4682b4" transform="translate(30.036875 524.062368) scale(0.1 -0.1)">
       <use xlink:href="#DejaVuSans-30"/>
       <use xlink:href="#DejaVuSans-2e" x="63.623047"/>
       <use xlink:href="#DejaVuSans-32" x="95.410156"/>
      </g>
     </g>
    </g>
    <g id="ytick_9">
     <g id="line2d_22">
      <g>
       <use xlink:href="#mad4ba9122d" x="52.94" y="479.022059" style="fill: #4682b4; stroke: #4682b4; stroke-width: 0.8"/>
      </g>
     </g>
     <g id="text_23">
      <!-- 0.4 -->
      <g style="fill: #4682b4" transform="translate(30.036875 482.821277) scale(0.1 -0.1)">
       <use xlink:href="#DejaVuSans-30"/>
       <use xlink:href="#DejaVuSans-2e" x="63.623047"/>
       <use xlink:href="#DejaVuSans-34" x="95.410156"/>
      </g>
     </g>
    </g>
    <g id="ytick_10">
     <g id="line2d_23">
      <g>
       <use xlink:href="#mad4ba9122d" x="52.94" y="437.780968" style="fill: #4682b4; stroke: #4682b4; stroke-width: 0.8"/>
      </g>
     </g>
     <g id="text_24">
      <!-- 0.6 -->
      <g style="fill: #4682b4" transform="translate(30.036875 441.580187) scale(0.1 -0.1)">
       <use xlink:href="#DejaVuSans-30"/>
       <use xlink:href="#DejaVuSans-2e" x="63.623047"/>
       <use xlink:href="#DejaVuSans-36" x="95.410156"/>
      </g>
     </g>
    </g>
    <g id="ytick_11">
     <g id="line2d_24">
      <g>
       <use xlink:href="#mad4ba9122d" x="52.94" y="396.539878" style="fill: #4682b4; stroke: #4682b4; stroke-width: 0.8"/>
      </g>
     </g>
     <g id="text_25">
      <!-- 0.8 -->
      <g style="fill: #4682b4" transform="translate(30.036875 400.339097) scale(0.1 -0.1)">
       <use xlink:href="#DejaVuSans-30"/>
       <use xlink:href="#DejaVuSans-2e" x="63.623047"/>
       <use xlink:href="#DejaVuSans-38" x="95.410156"/>
      </g>
     </g>
    </g>
    <g id="ytick_12">
     <g id="line2d_25">
      <g>
       <use xlink:href="#mad4ba9122d" x="52.94" y="355.298788" style="fill: #4682b4; stroke: #4682b4; stroke-width: 0.8"/>
      </g>
     </g>
     <g id="text_26">
      <!-- 1.0 -->
      <g style="fill: #4682b4" transform="translate(30.036875 359.098007) scale(0.1 -0.1)">
       <use xlink:href="#DejaVuSans-31"/>
       <use xlink:href="#DejaVuSans-2e" x="63.623047"/>
       <use xlink:href="#DejaVuSans-30" x="95.410156"/>
      </g>
     </g>
    </g>
    <g id="text_27">
     <!-- Duty Cycle -->
     <g style="fill: #4682b4" transform="translate(23.957187 480.812969) rotate(-90) scale(0.1 -0.1)">
      <defs>
       <path id="DejaVuSans-44" d="M 1259 4147 
L 1259 519 
L 2022 519 
Q 2988 519 3436 956 
Q 3884 1394 3884 2338 
Q 3884 3275 3436 3711 
Q 2988 4147 2022 4147 
L 1259 4147 
z
M 628 4666 
L 1925 4666 
Q 3281 4666 3915 4102 
Q 4550 3538 4550 2338 
Q 4550 1131 3912 565 
Q 3275 0 1925 0 
L 628 0 
L 628 4666 
z
" transform="scale(0.015625)"/>
       <path id="DejaVuSans-79" d="M 2059 -325 
Q 1816 -950 1584 -1140 
Q 1353 -1331 966 -1331 
L 506 -1331 
L 506 -850 
L 844 -850 
Q 1081 -850 1212 -737 
Q 1344 -625 1503 -206 
L 1606 56 
L 191 3500 
L 800 3500 
L 1894 763 
L 2988 3500 
L 3597 3500 
L 2059 -325 
z
" transform="scale(0.015625)"/>
       <path id="DejaVuSans-43" d="M 4122 4306 
L 4122 3641 
Q 3803 3938 3442 4084 
Q 3081 4231 2675 4231 
Q 1875 4231 1450 3742 
Q 1025 3253 1025 2328 
Q 1025 1406 1450 917 
Q 1875 428 2675 428 
Q 3081 428 3442 575 
Q 3803 722 4122 1019 
L 4122 359 
Q 3791 134 3420 21 
Q 3050 -91 2638 -91 
Q 1578 -91 968 557 
Q 359 1206 359 2328 
Q 359 3453 968 4101 
Q 1578 4750 2638 4750 
Q 3056 4750 3426 4639 
Q 3797 4528 4122 4306 
z
" transform="scale(0.015625)"/>
       <path id="DejaVuSans-63" d="M 3122 3366 
L 3122 2828 
Q 2878 2963 2633 3030 
Q 2388 3097 2138 3097 
Q 1578 3097 1268 2742 
Q 959 2388 959 1747 
Q 959 1106 1268 751 
Q 1578 397 2138 397 
Q 2388 397 2633 464 
Q 2878 531 3122 666 
L 3122 134 
Q 2881 22 2623 -34 
Q 2366 -91 2075 -91 
Q 1284 -91 818 406 
Q 353 903 353 1747 
Q 353 2603 823 3093 
Q 1294 3584 2113 3584 
Q 2378 3584 2631 3529 
Q 2884 3475 3122 3366 
z
" transform="scale(0.015625)"/>
      </defs>
      <use xlink:href="#DejaVuSans-44"/>
      <use xlink:href="#DejaVuSans-75" x="77.001953"/>
      <use xlink:href="#DejaVuSans-74" x="140.380859"/>
      <use xlink:href="#DejaVuSans-79" x="179.589844"/>
      <use xlink:href="#DejaVuSans-20" x="238.769531"/>
      <use xlink:href="#DejaVuSans-43" x="270.556641"/>
      <use xlink:href="#DejaVuSans-79" x="340.380859"/>
      <use xlink:href="#DejaVuSans-63" x="399.560547"/>
      <use xlink:href="#DejaVuSans-6c" x="454.541016"/>
      <use xlink:href="#DejaVuSans-65" x="482.324219"/>
     </g>
    </g>
   </g>
   <g id="line2d_26">
    <path d="M 82.77 412.062372 
L 85.087701 412.062372 
L 85.206557 383.354293 
L 87.46483 383.354293 
L 87.583687 362.640205 
L 89.841959 362.640205 
L 89.960816 380.23532 
L 92.219089 380.23532 
L 92.337945 355.298788 
L 94.596218 355.298788 
L 94.715074 369.075438 
L 96.973347 369.075438 
L 97.092203 355.298788 
L 99.350476 355.298788 
L 99.469333 370.205301 
L 101.727605 370.205301 
L 101.846462 358.076575 
L 104.104735 358.076575 
L 104.223591 369.239735 
L 106.481864 369.239735 
L 106.60072 363.690668 
L 108.858993 363.690668 
L 108.977849 355.298788 
L 111.236122 355.298788 
L 111.354979 383.284103 
L 113.613251 383.284103 
L 113.732108 355.298788 
L 127.876026 355.298788 
L 127.994883 368.996275 
L 130.253156 368.996275 
L 130.372012 364.781625 
L 132.630285 364.781625 
L 132.749141 374.947113 
L 135.007414 374.947113 
L 135.126271 355.298788 
L 137.384543 355.298788 
L 137.5034 362.862313 
L 139.761672 362.862313 
L 139.880529 361.018415 
L 142.138802 361.018415 
L 142.257658 382.479094 
L 144.515931 382.479094 
L 144.634787 355.298788 
L 146.89306 355.298788 
L 147.011917 370.363358 
L 149.270189 370.363358 
L 149.389046 360.893019 
L 151.647318 360.893019 
L 151.766175 378.643358 
L 154.024448 378.643358 
L 154.143304 361.496612 
L 156.401577 361.496612 
L 156.520433 372.945643 
L 158.778706 372.945643 
L 158.897563 363.977179 
L 161.155835 363.977179 
L 161.274692 363.729864 
L 163.532964 363.729864 
L 163.651821 355.298788 
L 170.664352 355.298788 
L 170.783208 530.597567 
L 173.041481 530.597567 
L 173.160338 355.298788 
L 180.172869 355.298788 
L 180.291725 362.367049 
L 182.549998 362.367049 
L 182.668854 362.09311 
L 184.927127 362.09311 
L 185.045984 355.298788 
L 187.304256 355.298788 
L 187.423113 374.971526 
L 189.681386 374.971526 
L 189.800242 360.595966 
L 192.058515 360.595966 
L 192.177371 365.117349 
L 194.435644 365.117349 
L 194.5545 377.350818 
L 196.812773 377.350818 
L 196.93163 355.298788 
L 199.189902 355.298788 
L 199.308759 478.166492 
L 201.567032 478.166492 
L 201.685888 363.705672 
L 203.944161 363.705672 
L 204.063017 380.237086 
L 206.32129 380.237086 
L 206.440146 392.158767 
L 208.698419 392.158767 
L 208.817276 355.298788 
L 211.075548 355.298788 
L 211.194405 373.562243 
L 213.452678 373.562243 
L 213.571534 355.298788 
L 215.829807 355.298788 
L 215.948663 386.293985 
L 218.206936 386.293985 
L 218.325792 355.375483 
L 225.338324 355.298788 
L 225.45718 367.700993 
L 227.715453 367.700993 
L 227.834309 355.298788 
L 241.978228 355.298788 
L 242.097084 375.314977 
L 244.355357 375.314977 
L 244.474214 355.298788 
L 251.486745 355.298788 
L 251.605601 369.613362 
L 253.863874 369.613362 
L 253.98273 356.296783 
L 256.241003 356.296783 
L 256.35986 372.279733 
L 258.618132 372.279733 
L 258.736989 362.202845 
L 260.995261 362.202845 
L 261.114118 355.298788 
L 263.372391 355.298788 
L 263.491247 364.032175 
L 265.74952 364.032175 
L 265.868376 355.298788 
L 268.126649 355.298788 
L 268.245506 364.135512 
L 270.503778 364.135512 
L 270.622635 355.298788 
L 272.880907 355.298788 
L 272.999764 367.988118 
L 275.258037 367.988118 
L 275.376893 363.556321 
L 277.635166 363.556321 
L 277.754022 355.298788 
L 291.897941 355.298788 
L 292.016797 375.893998 
L 294.27507 375.893998 
L 294.393927 355.298788 
L 296.652199 355.298788 
L 296.771056 474.263671 
L 299.029329 474.263671 
L 299.148185 368.3918 
L 301.406458 368.3918 
L 301.525314 398.75234 
L 303.783587 398.75234 
L 303.902443 355.298788 
L 313.292104 355.298788 
L 313.41096 369.884411 
L 315.669233 369.884411 
L 315.788089 358.556797 
L 318.046362 358.556797 
L 318.165219 355.298788 
L 332.309137 355.298788 
L 332.427994 357.513831 
L 334.686267 357.513831 
L 334.805123 385.496571 
L 337.063396 385.496571 
L 337.182252 380.455104 
L 339.440525 380.455104 
L 339.559381 473.33871 
L 341.817654 473.33871 
L 341.936511 383.651054 
L 344.194783 383.651054 
L 344.31364 355.298788 
L 346.571913 355.298788 
L 346.690769 370.302617 
L 348.949042 370.302617 
L 349.067898 355.298788 
L 353.7033 355.298788 
L 353.822157 396.499054 
L 356.080429 396.499054 
L 356.199286 355.298788 
L 358.457559 355.298788 
L 358.576415 397.000611 
L 360.834688 397.000611 
L 360.953544 359.300963 
L 363.211817 359.300963 
L 363.330673 373.072445 
L 365.588946 373.072445 
L 365.707803 355.854826 
L 367.966075 355.854826 
L 368.084932 355.298788 
L 370.343205 355.298788 
L 370.462061 394.676172 
L 372.720334 394.676172 
L 372.83919 355.298788 
L 375.097463 355.298788 
L 375.216319 394.75945 
L 377.474592 394.75945 
L 377.593449 386.215229 
L 379.851721 386.215229 
L 379.970578 399.22249 
L 382.22885 399.22249 
L 382.347707 383.169156 
L 384.60598 383.169156 
L 384.724836 355.298788 
L 389.360238 355.298788 
L 389.479095 356.53649 
L 391.737367 356.53649 
L 391.856224 362.689862 
L 394.114496 362.689862 
L 394.233353 355.298788 
L 396.491626 355.298788 
L 396.610482 372.668629 
L 398.868755 372.668629 
L 398.987611 359.180519 
L 401.245884 359.180519 
L 401.364741 375.375853 
L 403.623013 375.375853 
L 403.74187 355.298788 
L 413.13153 355.298788 
L 413.250386 368.135546 
L 415.508659 368.135546 
L 415.627516 378.729204 
L 417.885788 378.729204 
L 418.004645 506.278318 
L 420.262918 506.278318 
L 420.381774 376.497526 
L 422.640047 376.497526 
L 422.758903 355.298788 
L 425.017176 355.298788 
L 425.136032 391.753645 
L 427.394305 391.753645 
L 427.513162 380.976569 
L 429.771434 380.976569 
L 429.890291 355.298788 
L 436.902822 355.298788 
L 437.021678 360.99147 
L 439.279951 360.99147 
L 439.398808 379.347449 
L 441.65708 379.347449 
L 441.775937 355.298788 
L 446.411339 355.298788 
L 446.530195 356.053088 
L 448.788468 356.053088 
L 448.907324 355.298788 
L 451.165597 355.298788 
L 451.284454 367.444762 
L 453.542726 367.444762 
L 453.661583 355.298788 
L 455.919856 355.298788 
L 456.038712 361.658984 
L 458.296985 361.658984 
L 458.415841 355.298788 
L 460.674114 355.298788 
L 460.79297 378.392033 
L 463.051243 378.392033 
L 463.1701 355.298788 
L 465.428372 355.298788 
L 465.547229 365.16522 
L 467.805502 365.16522 
L 467.924358 355.298788 
L 474.936889 355.298788 
L 475.055746 499.506857 
L 477.314018 499.506857 
L 477.432875 355.298788 
L 482.068277 355.298788 
L 482.187133 380.291679 
L 484.445406 380.291679 
L 484.564262 551.941212 
L 486.822535 551.941212 
L 486.941392 371.712843 
L 489.199664 371.712843 
L 489.318521 377.968805 
L 491.576794 377.968805 
L 491.69565 355.298788 
L 493.953923 355.298788 
L 494.072779 360.813668 
L 496.331052 360.813668 
L 496.449908 362.051615 
L 498.708181 362.051615 
L 498.827038 384.38143 
L 501.08531 384.38143 
L 501.204167 397.441232 
L 503.462439 397.441232 
L 503.581296 369.671482 
L 505.839569 369.671482 
L 505.958425 355.298788 
L 508.216698 355.298788 
L 508.335554 532.279854 
L 510.593827 532.279854 
L 510.712684 370.897185 
L 512.970956 370.897185 
L 513.089813 385.659497 
L 515.348085 385.659497 
L 515.466942 385.138379 
L 517.725215 385.138379 
L 517.844071 413.334309 
L 520.102344 413.334309 
L 520.2212 355.298788 
L 524.856602 355.298788 
L 524.975459 362.811073 
L 527.233731 362.811073 
L 527.352588 379.341494 
L 529.610861 379.341494 
L 529.729717 355.298788 
L 534.365119 355.298788 
L 534.483975 393.979505 
L 536.742248 393.979505 
L 536.861105 371.235109 
L 539.119377 371.235109 
L 539.238234 365.754754 
L 541.496507 365.754754 
L 541.615363 380.07163 
L 543.873636 380.07163 
L 543.992492 375.138602 
L 546.250765 375.138602 
L 546.369621 366.8232 
L 548.627894 366.8232 
L 548.746751 355.298788 
L 551.005023 355.298788 
L 551.12388 371.651103 
L 553.382153 371.651103 
L 553.501009 355.298788 
L 555.759282 355.298788 
L 555.878138 402.228035 
L 558.136411 402.228035 
L 558.255267 371.736444 
L 560.51354 371.736444 
L 560.632397 355.298788 
L 565.267799 355.298788 
L 565.386655 358.323003 
L 567.644928 358.323003 
L 567.763784 377.251674 
L 570.022057 377.251674 
L 570.140913 379.388449 
L 572.399186 379.388449 
L 572.518043 385.858955 
L 574.776315 385.858955 
L 574.895172 355.298788 
L 579.530574 355.298788 
L 579.64943 355.762118 
L 581.907703 355.762118 
L 582.026559 364.027373 
L 584.284832 364.027373 
L 584.403689 355.298788 
L 589.039091 355.298788 
L 589.157947 358.267416 
L 591.41622 358.267416 
L 591.535076 355.298788 
L 596.170478 355.298788 
L 596.289335 371.700779 
L 598.547607 371.700779 
L 598.666464 355.298788 
L 605.678995 355.298788 
L 605.797851 365.239518 
L 608.056124 365.239518 
L 608.174981 355.298788 
L 612.810383 355.298788 
L 612.929239 366.987256 
L 615.187512 366.987256 
L 615.306368 355.298788 
L 619.94177 355.298788 
L 620.060627 365.789705 
L 622.318899 365.789705 
L 622.437756 395.43798 
L 624.696028 395.43798 
L 624.814885 357.984982 
L 627.073158 357.984982 
L 627.192014 355.298788 
L 629.450287 355.298788 
L 629.569143 394.231632 
L 631.827416 394.231632 
L 631.946273 379.161493 
L 634.204545 379.161493 
L 634.323402 376.320221 
L 636.581674 376.320221 
L 636.700531 355.298788 
L 638.958804 355.298788 
L 639.07766 384.796686 
L 641.335933 384.796686 
L 641.454789 362.077511 
L 643.713062 362.077511 
L 643.831919 361.545045 
L 646.090191 361.545045 
L 646.209048 383.599706 
L 648.46732 383.599706 
L 648.586177 355.298788 
L 650.84445 355.298788 
L 650.963306 359.202044 
L 653.221579 359.202044 
L 653.340435 367.565002 
L 655.598708 367.565002 
L 655.717564 386.804898 
L 657.975837 386.804898 
L 658.094694 372.306101 
L 660.352966 372.306101 
L 660.471823 362.216428 
L 662.730096 362.216428 
L 662.848952 355.458397 
L 665.107225 355.458397 
L 665.226081 355.298788 
L 674.615742 355.298788 
L 674.734598 370.209521 
L 676.992871 370.209521 
L 677.111727 370.476472 
L 679.37 370.476472 
L 679.37 370.476472 
" clip-path="url(#paef617a81c)" style="fill: none; stroke: #4682b4; stroke-width: 1.5; stroke-linecap: square"/>
   </g>
   <g id="patch_8">
    <path d="M 52.94 561.773333 
L 52.94 345.466667 
" style="fill: none; stroke: #000000; stroke-width: 0.8; stroke-linejoin: miter; stroke-linecap: square"/>
   </g>
   <g id="patch_9">
    <path d="M 709.2 561.773333 
L 709.2 345.466667 
" style="fill: none; stroke: #000000; stroke-width: 0.8; stroke-linejoin: miter; stroke-linecap: square"/>
   </g>
   <g id="patch_10">
    <path d="M 52.94 561.773333 
L 709.2 561.773333 
" style="fill: none; stroke: #000000; stroke-width: 0.8; stroke-linejoin: miter; stroke-linecap: square"/>
   </g>
   <g id="patch_11">
    <path d="M 52.94 345.466667 
L 709.2 345.466667 
" style="fill: none; stroke: #000000; stroke-width: 0.8; stroke-linejoin: miter; stroke-linecap: square"/>
   </g>
   <g id="text_28">
    <!-- Duty Cycle -->
    <g transform="translate(348.438437 339.466667) scale(0.12 -0.12)">
     <use xlink:href="#DejaVuSans-44"/>
     <use xlink:href="#DejaVuSans-75" x="77.001953"/>
     <use xlink:href="#DejaVuSans-74" x="140.380859"/>
     <use xlink:href="#DejaVuSans-79" x="179.589844"/>
     <use xlink:href="#DejaVuSans-20" x="238.769531"/>
     <use xlink:href="#DejaVuSans-43" x="270.556641"/>
     <use xlink:href="#DejaVuSans-79" x="340.380859"/>
     <use xlink:href="#DejaVuSans-63" x="399.560547"/>
     <use xlink:href="#DejaVuSans-6c" x="454.541016"/>
     <use xlink:href="#DejaVuSans-65" x="482.324219"/>
    </g>
   </g>
  </g>
  <g id="axes_3">
   <g id="patch_12">
    <path d="M 52.94 822.04 
L 709.2 822.04 
L 709.2 605.733333 
L 52.94 605.733333 
z
" style="fill: #ffffff"/>
   </g>
   <g id="matplotlib.axis_5">
    <g id="xtick_13">
     <g id="line2d_27">
      <g>
       <use xlink:href="#m1d22dea631" x="82.77" y="822.04" style="stroke: #000000; stroke-width: 0.8"/>
      </g>
     </g>
     <g id="text_29">
      <!-- 0.00 -->
      <g transform="translate(71.637188 836.638437) scale(0.1 -0.1)">
       <use xlink:href="#DejaVuSans-30"/>
       <use xlink:href="#DejaVuSans-2e" x="63.623047"/>
       <use xlink:href="#DejaVuSans-30" x="95.410156"/>
       <use xlink:href="#DejaVuSans-30" x="159.033203"/>
      </g>
     </g>
    </g>
    <g id="xtick_14">
     <g id="line2d_28">
      <g>
       <use xlink:href="#m1d22dea631" x="201.62646" y="822.04" style="stroke: #000000; stroke-width: 0.8"/>
      </g>
     </g>
     <g id="text_30">
      <!-- 0.02 -->
      <g transform="translate(190.493647 836.638437) scale(0.1 -0.1)">
       <use xlink:href="#DejaVuSans-30"/>
       <use xlink:href="#DejaVuSans-2e" x="63.623047"/>
       <use xlink:href="#DejaVuSans-30" x="95.410156"/>
       <use xlink:href="#DejaVuSans-32" x="159.033203"/>
      </g>
     </g>
    </g>
    <g id="xtick_15">
     <g id="line2d_29">
      <g>
       <use xlink:href="#m1d22dea631" x="320.48292" y="822.04" style="stroke: #000000; stroke-width: 0.8"/>
      </g>
     </g>
     <g id="text_31">
      <!-- 0.04 -->
      <g transform="translate(309.350107 836.638437) scale(0.1 -0.1)">
       <use xlink:href="#DejaVuSans-30"/>
       <use xlink:href="#DejaVuSans-2e" x="63.623047"/>
       <use xlink:href="#DejaVuSans-30" x="95.410156"/>
       <use xlink:href="#DejaVuSans-34" x="159.033203"/>
      </g>
     </g>
    </g>
    <g id="xtick_16">
     <g id="line2d_30">
      <g>
       <use xlink:href="#m1d22dea631" x="439.339379" y="822.04" style="stroke: #000000; stroke-width: 0.8"/>
      </g>
     </g>
     <g id="text_32">
      <!-- 0.06 -->
      <g transform="translate(428.206567 836.638437) scale(0.1 -0.1)">
       <use xlink:href="#DejaVuSans-30"/>
       <use xlink:href="#DejaVuSans-2e" x="63.623047"/>
       <use xlink:href="#DejaVuSans-30" x="95.410156"/>
       <use xlink:href="#DejaVuSans-36" x="159.033203"/>
      </g>
     </g>
    </g>
    <g id="xtick_17">
     <g id="line2d_31">
      <g>
       <use xlink:href="#m1d22dea631" x="558.195839" y="822.04" style="stroke: #000000; stroke-width: 0.8"/>
      </g>
     </g>
     <g id="text_33">
      <!-- 0.08 -->
      <g transform="translate(547.063027 836.638437) scale(0.1 -0.1)">
       <use xlink:href="#DejaVuSans-30"/>
       <use xlink:href="#DejaVuSans-2e" x="63.623047"/>
       <use xlink:href="#DejaVuSans-30" x="95.410156"/>
       <use xlink:href="#DejaVuSans-38" x="159.033203"/>
      </g>
     </g>
    </g>
    <g id="xtick_18">
     <g id="line2d_32">
      <g>
       <use xlink:href="#m1d22dea631" x="677.052299" y="822.04" style="stroke: #000000; stroke-width: 0.8"/>
      </g>
     </g>
     <g id="text_34">
      <!-- 0.10 -->
      <g transform="translate(665.919487 836.638437) scale(0.1 -0.1)">
       <use xlink:href="#DejaVuSans-30"/>
       <use xlink:href="#DejaVuSans-2e" x="63.623047"/>
       <use xlink:href="#DejaVuSans-31" x="95.410156"/>
       <use xlink:href="#DejaVuSans-30" x="159.033203"/>
      </g>
     </g>
    </g>
    <g id="text_35">
     <!-- Time -->
     <g transform="translate(368.836406 850.316562) scale(0.1 -0.1)">
      <defs>
       <path id="DejaVuSans-54" d="M -19 4666 
L 3928 4666 
L 3928 4134 
L 2272 4134 
L 2272 0 
L 1638 0 
L 1638 4134 
L -19 4134 
L -19 4666 
z
" transform="scale(0.015625)"/>
       <path id="DejaVuSans-69" d="M 603 3500 
L 1178 3500 
L 1178 0 
L 603 0 
L 603 3500 
z
M 603 4863 
L 1178 4863 
L 1178 4134 
L 603 4134 
L 603 4863 
z
" transform="scale(0.015625)"/>
       <path id="DejaVuSans-6d" d="M 3328 2828 
Q 3544 3216 3844 3400 
Q 4144 3584 4550 3584 
Q 5097 3584 5394 3201 
Q 5691 2819 5691 2113 
L 5691 0 
L 5113 0 
L 5113 2094 
Q 5113 2597 4934 2840 
Q 4756 3084 4391 3084 
Q 3944 3084 3684 2787 
Q 3425 2491 3425 1978 
L 3425 0 
L 2847 0 
L 2847 2094 
Q 2847 2600 2669 2842 
Q 2491 3084 2119 3084 
Q 1678 3084 1418 2786 
Q 1159 2488 1159 1978 
L 1159 0 
L 581 0 
L 581 3500 
L 1159 3500 
L 1159 2956 
Q 1356 3278 1631 3431 
Q 1906 3584 2284 3584 
Q 2666 3584 2933 3390 
Q 3200 3197 3328 2828 
z
" transform="scale(0.015625)"/>
      </defs>
      <use xlink:href="#DejaVuSans-54"/>
      <use xlink:href="#DejaVuSans-69" x="57.958984"/>
      <use xlink:href="#DejaVuSans-6d" x="85.742188"/>
      <use xlink:href="#DejaVuSans-65" x="183.154297"/>
     </g>
    </g>
   </g>
   <g id="matplotlib.axis_6">
    <g id="ytick_13">
     <g id="line2d_33">
      <defs>
       <path id="me28876eed9" d="M 0 0 
L -3.5 0 
" style="stroke: #008000; stroke-width: 0.8"/>
      </defs>
      <g>
       <use xlink:href="#me28876eed9" x="52.94" y="812.224451" style="fill: #008000; stroke: #008000; stroke-width: 0.8"/>
      </g>
     </g>
     <g id="text_36">
      <!-- 60 -->
      <g style="fill: #008000" transform="translate(24.835313 816.02367) scale(0.1 -0.1)">
       <defs>
        <path id="DejaVuSans-2212" d="M 678 2272 
L 4684 2272 
L 4684 1741 
L 678 1741 
L 678 2272 
z
" transform="scale(0.015625)"/>
       </defs>
       <use xlink:href="#DejaVuSans-2212"/>
       <use xlink:href="#DejaVuSans-36" x="83.789062"/>
       <use xlink:href="#DejaVuSans-30" x="147.412109"/>
      </g>
     </g>
    </g>
    <g id="ytick_14">
     <g id="line2d_34">
      <g>
       <use xlink:href="#me28876eed9" x="52.94" y="779.436742" style="fill: #008000; stroke: #008000; stroke-width: 0.8"/>
      </g>
     </g>
     <g id="text_37">
      <!-- 50 -->
      <g style="fill: #008000" transform="translate(24.835313 783.235961) scale(0.1 -0.1)">
       <defs>
        <path id="DejaVuSans-35" d="M 691 4666 
L 3169 4666 
L 3169 4134 
L 1269 4134 
L 1269 2991 
Q 1406 3038 1543 3061 
Q 1681 3084 1819 3084 
Q 2600 3084 3056 2656 
Q 3513 2228 3513 1497 
Q 3513 744 3044 326 
Q 2575 -91 1722 -91 
Q 1428 -91 1123 -41 
Q 819 9 494 109 
L 494 744 
Q 775 591 1075 516 
Q 1375 441 1709 441 
Q 2250 441 2565 725 
Q 2881 1009 2881 1497 
Q 2881 1984 2565 2268 
Q 2250 2553 1709 2553 
Q 1456 2553 1204 2497 
Q 953 2441 691 2322 
L 691 4666 
z
" transform="scale(0.015625)"/>
       </defs>
       <use xlink:href="#DejaVuSans-2212"/>
       <use xlink:href="#DejaVuSans-35" x="83.789062"/>
       <use xlink:href="#DejaVuSans-30" x="147.412109"/>
      </g>
     </g>
    </g>
    <g id="ytick_15">
     <g id="line2d_35">
      <g>
       <use xlink:href="#me28876eed9" x="52.94" y="746.649033" style="fill: #008000; stroke: #008000; stroke-width: 0.8"/>
      </g>
     </g>
     <g id="text_38">
      <!-- 40 -->
      <g style="fill: #008000" transform="translate(24.835313 750.448251) scale(0.1 -0.1)">
       <use xlink:href="#DejaVuSans-2212"/>
       <use xlink:href="#DejaVuSans-34" x="83.789062"/>
       <use xlink:href="#DejaVuSans-30" x="147.412109"/>
      </g>
     </g>
    </g>
    <g id="ytick_16">
     <g id="line2d_36">
      <g>
       <use xlink:href="#me28876eed9" x="52.94" y="713.861323" style="fill: #008000; stroke: #008000; stroke-width: 0.8"/>
      </g>
     </g>
     <g id="text_39">
      <!-- 30 -->
      <g style="fill: #008000" transform="translate(24.835313 717.660542) scale(0.1 -0.1)">
       <defs>
        <path id="DejaVuSans-33" d="M 2597 2516 
Q 3050 2419 3304 2112 
Q 3559 1806 3559 1356 
Q 3559 666 3084 287 
Q 2609 -91 1734 -91 
Q 1441 -91 1130 -33 
Q 819 25 488 141 
L 488 750 
Q 750 597 1062 519 
Q 1375 441 1716 441 
Q 2309 441 2620 675 
Q 2931 909 2931 1356 
Q 2931 1769 2642 2001 
Q 2353 2234 1838 2234 
L 1294 2234 
L 1294 2753 
L 1863 2753 
Q 2328 2753 2575 2939 
Q 2822 3125 2822 3475 
Q 2822 3834 2567 4026 
Q 2313 4219 1838 4219 
Q 1578 4219 1281 4162 
Q 984 4106 628 3988 
L 628 4550 
Q 988 4650 1302 4700 
Q 1616 4750 1894 4750 
Q 2613 4750 3031 4423 
Q 3450 4097 3450 3541 
Q 3450 3153 3228 2886 
Q 3006 2619 2597 2516 
z
" transform="scale(0.015625)"/>
       </defs>
       <use xlink:href="#DejaVuSans-2212"/>
       <use xlink:href="#DejaVuSans-33" x="83.789062"/>
       <use xlink:href="#DejaVuSans-30" x="147.412109"/>
      </g>
     </g>
    </g>
    <g id="ytick_17">
     <g id="line2d_37">
      <g>
       <use xlink:href="#me28876eed9" x="52.94" y="681.073614" style="fill: #008000; stroke: #008000; stroke-width: 0.8"/>
      </g>
     </g>
     <g id="text_40">
      <!-- 20 -->
      <g style="fill: #008000" transform="translate(24.835313 684.872833) scale(0.1 -0.1)">
       <use xlink:href="#DejaVuSans-2212"/>
       <use xlink:href="#DejaVuSans-32" x="83.789062"/>
       <use xlink:href="#DejaVuSans-30" x="147.412109"/>
      </g>
     </g>
    </g>
    <g id="ytick_18">
     <g id="line2d_38">
      <g>
       <use xlink:href="#me28876eed9" x="52.94" y="648.285905" style="fill: #008000; stroke: #008000; stroke-width: 0.8"/>
      </g>
     </g>
     <g id="text_41">
      <!-- 10 -->
      <g style="fill: #008000" transform="translate(24.835313 652.085124) scale(0.1 -0.1)">
       <use xlink:href="#DejaVuSans-2212"/>
       <use xlink:href="#DejaVuSans-31" x="83.789062"/>
       <use xlink:href="#DejaVuSans-30" x="147.412109"/>
      </g>
     </g>
    </g>
    <g id="ytick_19">
     <g id="line2d_39">
      <g>
       <use xlink:href="#me28876eed9" x="52.94" y="615.498196" style="fill: #008000; stroke: #008000; stroke-width: 0.8"/>
      </g>
     </g>
     <g id="text_42">
      <!-- 0 -->
      <g style="fill: #008000" transform="translate(39.5775 619.297414) scale(0.1 -0.1)">
       <use xlink:href="#DejaVuSans-30"/>
      </g>
     </g>
    </g>
    <g id="text_43">
     <!-- Cost -->
     <g style="fill: #008000" transform="translate(18.755625 725.002292) rotate(-90) scale(0.1 -0.1)">
      <defs>
       <path id="DejaVuSans-73" d="M 2834 3397 
L 2834 2853 
Q 2591 2978 2328 3040 
Q 2066 3103 1784 3103 
Q 1356 3103 1142 2972 
Q 928 2841 928 2578 
Q 928 2378 1081 2264 
Q 1234 2150 1697 2047 
L 1894 2003 
Q 2506 1872 2764 1633 
Q 3022 1394 3022 966 
Q 3022 478 2636 193 
Q 2250 -91 1575 -91 
Q 1294 -91 989 -36 
Q 684 19 347 128 
L 347 722 
Q 666 556 975 473 
Q 1284 391 1588 391 
Q 1994 391 2212 530 
Q 2431 669 2431 922 
Q 2431 1156 2273 1281 
Q 2116 1406 1581 1522 
L 1381 1569 
Q 847 1681 609 1914 
Q 372 2147 372 2553 
Q 372 3047 722 3315 
Q 1072 3584 1716 3584 
Q 2034 3584 2315 3537 
Q 2597 3491 2834 3397 
z
" transform="scale(0.015625)"/>
      </defs>
      <use xlink:href="#DejaVuSans-43"/>
      <use xlink:href="#DejaVuSans-6f" x="69.824219"/>
      <use xlink:href="#DejaVuSans-73" x="131.005859"/>
      <use xlink:href="#DejaVuSans-74" x="183.105469"/>
     </g>
    </g>
   </g>
   <g id="line2d_40">
    <path d="M 82.77 812.207879 
L 82.888856 799.750517 
L 83.067141 798.825487 
L 83.364282 795.48874 
L 83.78028 787.754107 
L 84.43399 770.652184 
L 85.979124 727.984275 
L 87.524258 690.782307 
L 88.772251 663.677522 
L 89.841959 646.117386 
L 90.733383 634.898438 
L 91.50595 627.713331 
L 92.040804 624.88943 
L 93.110512 620.299176 
L 93.883079 617.899471 
L 94.53679 616.542915 
L 95.071644 615.879161 
L 95.547069 615.601974 
L 95.844211 615.611236 
L 96.20078 615.729802 
L 96.735634 616.090781 
L 97.329916 616.779039 
L 98.102483 618.038098 
L 99.112763 620.137489 
L 101.133323 624.475895 
L 102.262459 626.491251 
L 104.045306 630.193363 
L 106.541292 635.399269 
L 107.313859 635.788019 
L 108.086426 636.498782 
L 109.215562 637.887247 
L 111.473835 641.12706 
L 112.30583 642.16429 
L 112.484115 641.913867 
L 113.078397 640.706535 
L 113.613251 640.119436 
L 114.088677 639.893749 
L 114.623531 639.889021 
L 115.217814 640.113171 
L 115.990381 640.656314 
L 117.119517 641.760279 
L 119.437218 644.434835 
L 121.933204 647.172167 
L 123.894335 648.989527 
L 125.796038 650.445675 
L 127.697742 651.626887 
L 129.718302 652.625552 
L 130.253156 652.772265 
L 130.669153 652.035103 
L 131.322864 651.183247 
L 131.976574 650.693852 
L 132.689713 650.450034 
L 133.165139 650.33163 
L 133.402852 649.738291 
L 133.997134 648.346484 
L 134.591416 647.490284 
L 135.185699 647.020266 
L 135.779981 646.829568 
L 136.433692 646.850305 
L 137.265687 647.113634 
L 138.394823 647.723633 
L 139.405103 648.23964 
L 140.17767 648.322685 
L 141.18795 648.682569 
L 142.435943 649.137518 
L 143.20851 649.145505 
L 144.159361 649.395382 
L 145.585639 650.033286 
L 148.141053 651.210826 
L 148.91362 650.089385 
L 149.507902 649.616177 
L 150.161613 649.373522 
L 150.874751 649.342514 
L 151.231321 649.283665 
L 151.885031 649.042152 
L 152.59817 649.01876 
L 153.489594 649.222128 
L 153.905591 649.300457 
L 154.083876 648.946788 
L 154.737586 647.192322 
L 155.331869 646.236103 
L 155.866723 645.753054 
L 156.461005 645.521887 
L 156.995859 645.353004 
L 158.006139 643.452644 
L 158.540993 643.022148 
L 159.075847 642.871948 
L 159.670129 642.946478 
L 160.086127 642.967563 
L 160.620981 642.631201 
L 161.155835 642.55522 
L 161.750118 642.694013 
L 162.522685 643.119691 
L 163.057539 643.379745 
L 163.592393 643.188876 
L 164.186675 643.227782 
L 164.899814 643.520598 
L 165.850665 644.180213 
L 167.336371 645.521061 
L 170.842637 648.751699 
L 171.020921 648.480257 
L 171.258634 647.545592 
L 171.615204 645.145529 
L 173.75462 628.290014 
L 174.289474 626.268774 
L 174.7649 625.24614 
L 175.240326 624.71834 
L 175.656323 624.551532 
L 176.131749 624.615188 
L 176.666603 624.937198 
L 177.320314 625.606012 
L 178.211737 626.876374 
L 179.400302 628.996547 
L 182.193429 634.150115 
L 184.273417 637.652642 
L 185.937407 640.009867 
L 189.384244 644.923029 
L 189.681386 645.142431 
L 190.988807 644.003471 
L 191.583089 643.981243 
L 192.236799 644.185955 
L 192.771654 644.332908 
L 193.306508 644.043223 
L 193.90079 643.994714 
L 194.5545 644.179086 
L 195.624209 644.533334 
L 196.57506 642.706865 
L 197.109914 642.258774 
L 197.644768 642.10733 
L 198.239051 642.194302 
L 198.952189 642.54973 
L 200.140754 643.23042 
L 200.378467 642.56554 
L 200.735036 640.632141 
L 201.329319 635.757889 
L 202.220742 628.472112 
L 202.755596 626.190948 
L 203.231022 625.022976 
L 203.706448 624.395044 
L 204.122445 624.162699 
L 204.479015 623.986741 
L 205.370438 622.95956 
L 205.786436 622.875099 
L 206.261862 623.004978 
L 206.856144 623.43135 
L 207.33157 623.786224 
L 207.569283 623.610421 
L 208.044709 623.138923 
L 208.460706 623.002838 
L 208.936132 623.087403 
L 209.470986 623.420498 
L 210.124697 624.093935 
L 211.01612 625.370097 
L 212.204685 627.518262 
L 213.571534 630.031247 
L 214.04696 630.226638 
L 214.641242 630.715685 
L 215.473237 631.727248 
L 216.305233 632.76779 
L 216.483517 632.577128 
L 217.018371 631.810613 
L 217.493797 631.527111 
L 217.969223 631.526115 
L 218.504077 631.780586 
L 219.157788 632.364046 
L 220.049211 633.492978 
L 221.356632 635.552905 
L 226.705173 644.369258 
L 228.48802 646.712345 
L 230.211438 648.619792 
L 231.934857 650.204362 
L 233.717704 651.546886 
L 235.619407 652.698808 
L 237.639967 653.664008 
L 239.89824 654.493425 
L 242.453654 655.190137 
L 243.107364 655.254414 
L 243.285649 654.848366 
L 243.939359 653.229102 
L 244.59307 652.201804 
L 245.246781 651.591846 
L 245.900491 651.277421 
L 246.673058 651.169775 
L 247.564482 651.279211 
L 248.812474 651.672736 
L 251.30846 652.755695 
L 252.081027 653.017519 
L 252.497025 652.301845 
L 253.150735 651.487107 
L 253.804446 651.036202 
L 254.517584 650.834698 
L 255.34958 650.858031 
L 256.419288 651.139212 
L 258.02385 651.640235 
L 259.271843 649.395857 
L 259.866125 648.93945 
L 260.460407 648.745245 
L 261.470687 648.509664 
L 262.124398 648.395066 
L 262.896965 648.51434 
L 263.847817 648.901873 
L 264.026101 648.920082 
L 264.798668 648.386028 
L 265.452379 648.259678 
L 266.165517 648.356783 
L 267.116369 648.731903 
L 268.542647 649.571667 
L 269.968924 650.450597 
L 270.800919 649.942135 
L 271.45463 649.831852 
L 272.227197 649.923866 
L 273.296905 650.298834 
L 275.020324 651.186404 
L 275.911747 651.611156 
L 276.803171 650.969399 
L 277.516309 650.797644 
L 278.348305 650.849514 
L 279.418013 651.160369 
L 281.141431 651.931558 
L 285.657977 654.027453 
L 288.213391 654.923257 
L 290.947089 655.639601 
L 293.561931 656.11105 
L 293.680788 655.970907 
L 294.928781 653.171217 
L 295.582491 652.431683 
L 296.236202 652.020846 
L 296.949341 651.835562 
L 297.781336 651.853645 
L 298.137905 651.838298 
L 298.31619 651.442263 
L 298.613331 649.973183 
L 299.029329 646.601699 
L 299.801896 640.153546 
L 300.33675 636.917237 
L 300.871604 634.904209 
L 301.406458 633.726508 
L 301.881884 633.177084 
L 302.297881 632.762061 
L 302.595022 631.84332 
L 303.248733 629.58996 
L 303.724159 628.70803 
L 304.199585 628.274954 
L 304.615582 628.170191 
L 305.091008 628.290105 
L 305.625862 628.661533 
L 306.339001 629.448596 
L 307.289853 630.86055 
L 308.71613 633.430106 
L 313.76753 642.867891 
L 314.540097 643.940345 
L 315.253235 643.750658 
L 315.847518 643.865929 
L 316.620085 644.272518 
L 317.689793 645.1312 
L 319.591496 647.012789 
L 322.562908 649.903224 
L 324.583467 651.54773 
L 326.544599 652.857701 
L 328.565159 653.940099 
L 330.764003 654.859694 
L 333.200561 655.629425 
L 334.983408 656.035192 
L 335.102264 655.902341 
L 335.339977 655.066531 
L 336.053116 652.040355 
L 336.647398 650.444968 
L 337.24168 649.44169 
L 337.835963 648.864589 
L 338.073676 648.652808 
L 338.311389 647.924198 
L 338.965099 645.532925 
L 339.499953 644.340181 
L 339.856523 643.54565 
L 340.213092 641.715062 
L 340.747946 637.496912 
L 341.877082 628.072714 
L 342.352508 626.0604 
L 342.827934 624.874194 
L 343.30336 624.23736 
L 343.719358 623.997093 
L 344.194783 623.763946 
L 344.789066 623.076917 
L 345.264491 622.90659 
L 345.739917 622.986235 
L 346.274771 623.305758 
L 346.928482 623.957305 
L 347.34448 624.29205 
L 347.879334 624.612453 
L 348.533044 625.274228 
L 349.365039 626.443839 
L 350.494176 628.4454 
L 352.217594 632.01095 
L 355.72386 639.343313 
L 355.902145 639.341661 
L 356.080429 639.028153 
L 356.852996 637.153515 
L 357.328422 636.59117 
L 357.803848 636.359566 
L 358.279274 636.379232 
L 358.695271 636.424123 
L 358.873556 636.115686 
L 359.230126 634.838389 
L 359.76498 633.204695 
L 360.240405 632.375963 
L 360.715831 631.969646 
L 361.131829 631.875734 
L 361.607255 631.99822 
L 362.201537 632.414543 
L 362.974104 633.271969 
L 364.043812 634.840916 
L 365.054092 636.30962 
L 365.648374 636.172186 
L 366.183228 636.33711 
L 366.836939 636.810921 
L 367.668934 637.71153 
L 368.916927 639.425412 
L 370.699774 641.879382 
L 370.878059 641.567043 
L 372.007195 638.593476 
L 372.482621 638.086864 
L 372.958047 637.888203 
L 373.433472 637.92413 
L 374.027755 638.216426 
L 374.800322 638.88831 
L 375.87003 640.158088 
L 376.583169 640.980903 
L 376.761453 640.762694 
L 377.058594 639.806436 
L 377.593449 638.304329 
L 378.128303 637.451676 
L 378.603728 637.090539 
L 379.079154 637.008465 
L 379.732865 636.989996 
L 379.970578 636.405112 
L 380.505432 635.145424 
L 380.980858 634.539769 
L 381.456283 634.288755 
L 381.931709 634.306064 
L 382.466563 634.568511 
L 382.704276 634.625761 
L 382.882561 634.385125 
L 383.417415 633.491007 
L 383.892841 633.123571 
L 384.368267 633.058166 
L 384.843693 633.22297 
L 385.437975 633.673369 
L 386.210542 634.551246 
L 387.339678 636.209691 
L 389.479095 639.850674 
L 392.153365 644.272286 
L 394.055068 646.981407 
L 395.778487 649.064767 
L 397.501906 650.809176 
L 397.68019 650.798793 
L 398.987611 649.029865 
L 399.581894 648.773797 
L 400.235604 648.748033 
L 401.008171 648.955268 
L 402.077879 649.503678 
L 403.623013 650.376208 
L 404.811578 648.570911 
L 405.40586 648.23765 
L 406.000142 648.158867 
L 406.713281 648.300843 
L 407.604705 648.716751 
L 408.971554 649.631082 
L 414.320095 653.439892 
L 415.508659 654.029148 
L 415.865229 653.44535 
L 416.459511 652.699273 
L 417.113221 652.232562 
L 417.766932 652.03078 
L 418.064073 651.928633 
L 418.242358 651.498574 
L 418.539499 649.997385 
L 419.193209 646.466982 
L 419.787492 643.611192 
L 420.322346 639.212692 
L 420.8572 635.140442 
L 421.629767 631.289147 
L 422.164621 629.220421 
L 422.640047 628.162732 
L 423.115473 627.608219 
L 423.53147 627.42429 
L 424.006896 627.474021 
L 424.54175 627.785285 
L 425.195461 628.444567 
L 426.086884 629.702507 
L 427.275449 631.475135 
L 427.453733 631.29922 
L 427.988588 630.629687 
L 428.404585 630.430589 
L 428.880011 630.465106 
L 429.414865 630.760599 
L 430.068576 631.398009 
L 430.959999 632.612031 
L 432.26742 634.827107 
L 438.150815 645.321061 
L 439.398808 647.05659 
L 440.052518 647.499908 
L 441.65708 648.851116 
L 445.401059 652.060808 
L 447.481047 653.513455 
L 449.501607 654.658083 
L 451.641023 655.616526 
L 454.018152 656.431148 
L 456.692423 657.105069 
L 457.227277 657.155191 
L 457.821559 656.832121 
L 458.712982 656.578701 
L 459.842119 656.501862 
L 461.446681 656.640766 
L 462.932387 656.798141 
L 463.110671 656.371911 
L 463.82381 654.140262 
L 464.418092 652.959601 
L 465.012375 652.22074 
L 465.606657 651.802895 
L 466.141511 651.470066 
L 466.735793 650.66135 
L 467.330076 650.219028 
L 467.924358 650.041325 
L 468.637497 650.07526 
L 469.52892 650.369179 
L 470.776913 651.045139 
L 476.125454 654.225373 
L 476.303738 653.743615 
L 476.60088 652.138804 
L 477.076305 648.000372 
L 478.086585 638.548883 
L 478.621439 635.850082 
L 479.156293 634.221815 
L 479.631719 633.396234 
L 480.107145 632.992082 
L 480.523143 632.899511 
L 480.998569 633.023071 
L 481.592851 633.440215 
L 482.365418 634.298037 
L 483.435126 635.866552 
L 483.732267 636.224923 
L 483.910552 636.113822 
L 484.445406 635.511006 
L 484.683119 635.259042 
L 484.98026 634.402859 
L 485.396258 632.369765 
L 486.287681 626.535036 
L 487.119676 621.744516 
L 487.535674 620.522772 
L 487.951671 619.883513 
L 488.427097 619.539112 
L 489.02138 619.407509 
L 490.744798 619.463127 
L 491.517365 619.750117 
L 492.289932 620.292249 
L 493.062499 621.111665 
L 493.953923 622.398663 
L 495.023631 624.364208 
L 498.113899 630.868659 
L 499.361892 633.447027 
L 501.44188 637.184737 
L 501.620164 636.935528 
L 502.689872 634.68337 
L 503.165298 634.35629 
L 503.640724 634.320304 
L 504.175578 634.542757 
L 504.769861 634.821929 
L 505.185858 634.683835 
L 505.661284 634.761778 
L 506.196138 635.079368 
L 506.909277 635.780515 
L 507.919557 637.133939 
L 508.454411 637.82549 
L 508.632695 637.685633 
L 508.870408 637.084131 
L 509.226978 635.463034 
L 509.82126 631.552733 
L 511.009825 623.531841 
L 511.485251 621.979338 
L 511.960676 621.165995 
L 512.436102 620.777512 
L 512.970956 620.64599 
L 513.624667 620.538891 
L 514.159521 620.306857 
L 514.753803 620.318585 
L 515.407514 620.564934 
L 516.120652 621.077544 
L 516.477222 621.284362 
L 517.54693 621.386245 
L 518.200641 621.805562 
L 519.151492 622.477952 
L 519.448633 622.239328 
L 520.161772 621.480773 
L 520.637198 621.334978 
L 521.172052 621.406866 
L 521.766334 621.711633 
L 522.479473 622.340183 
L 523.311468 623.39244 
L 524.321748 625.064256 
L 526.520593 629.352917 
L 528.541153 633.224672 
L 528.95715 633.224271 
L 529.492004 633.470242 
L 530.145715 634.052277 
L 531.037138 635.192229 
L 532.344559 637.290034 
L 537.395959 645.783588 
L 538.109098 645.577863 
L 538.70338 645.684132 
L 539.416519 646.044431 
L 540.486227 646.653027 
L 541.021081 646.515664 
L 541.615363 646.594447 
L 542.38793 646.951771 
L 543.160497 647.337288 
L 543.338782 646.966968 
L 543.992492 645.298985 
L 544.527346 644.532024 
L 545.0622 644.154768 
L 545.597054 644.065469 
L 546.250765 644.089204 
L 547.201617 642.731436 
L 547.677043 642.503484 
L 548.211897 642.505936 
L 548.806179 642.746997 
L 549.578746 643.322242 
L 550.707882 644.486664 
L 552.253016 646.194564 
L 552.906727 645.835289 
L 553.441581 645.809804 
L 554.095291 646.016935 
L 554.927287 646.538573 
L 556.115851 647.573015 
L 557.720413 649.015859 
L 557.898698 648.668645 
L 558.195839 647.355283 
L 558.790122 644.472521 
L 559.324976 642.851692 
L 559.85983 641.884916 
L 560.335256 641.427331 
L 560.810681 641.252997 
L 561.345535 641.312732 
L 561.939818 641.614649 
L 562.712385 642.265964 
L 563.841521 643.537372 
L 566.337507 646.798408 
L 568.714636 649.722373 
L 569.903201 650.931379 
L 570.022057 650.817083 
L 571.091765 648.840056 
L 571.626619 648.407129 
L 572.161473 648.233086 
L 572.815184 648.114974 
L 573.052897 647.417362 
L 573.706607 645.163384 
L 574.241461 644.076134 
L 574.776315 643.475681 
L 575.251741 643.245133 
L 575.786595 643.24067 
L 576.380878 643.470384 
L 577.153445 644.026723 
L 578.282581 645.157956 
L 580.540854 647.830984 
L 583.036839 650.653821 
L 584.997971 652.534229 
L 586.840246 654.000812 
L 588.741949 655.234742 
L 590.762509 656.279065 
L 592.961354 657.161149 
L 595.397911 657.897073 
L 596.76476 658.141402 
L 597.240186 657.20065 
L 597.893897 656.256639 
L 598.547607 655.681496 
L 599.260746 655.350631 
L 600.092741 655.231396 
L 601.103021 655.330998 
L 602.529299 655.715301 
L 610.670966 658.265174 
L 613.880091 658.859544 
L 614.652658 658.890598 
L 615.603509 657.753102 
L 616.316648 657.28144 
L 617.148643 657.006688 
L 618.158923 656.930731 
L 619.466344 657.071427 
L 620.595481 657.221186 
L 621.486904 656.254594 
L 622.200043 655.86026 
L 622.97261 655.689342 
L 623.150895 655.599897 
L 623.329179 655.154672 
L 623.62632 653.615021 
L 624.220603 650.583157 
L 624.814885 648.646908 
L 625.349739 647.564043 
L 625.884593 646.933178 
L 626.419447 646.636175 
L 626.954301 646.586793 
L 627.608012 646.770545 
L 628.440007 647.269046 
L 629.628572 648.279137 
L 632.36227 650.820212 
L 632.599983 650.316252 
L 633.194265 649.153768 
L 633.729119 648.552065 
L 634.263974 648.258884 
L 634.858256 648.199411 
L 635.333682 648.141195 
L 635.630823 647.364877 
L 636.165677 646.207824 
L 636.700531 645.540009 
L 637.235385 645.232084 
L 637.770239 645.190477 
L 638.364521 645.373191 
L 639.137088 645.862106 
L 640.206796 646.827049 
L 641.157648 647.670224 
L 641.335933 647.354662 
L 642.167928 645.126901 
L 642.702782 644.390335 
L 643.178208 644.067456 
L 643.713062 643.982854 
L 645.079911 644.216569 
L 645.733622 644.548254 
L 646.625045 645.280314 
L 647.159899 645.665937 
L 647.338184 645.364984 
L 647.932466 644.048229 
L 648.46732 643.404105 
L 648.942746 643.150561 
L 649.4776 643.133176 
L 650.071883 643.36045 
L 650.84445 643.927142 
L 651.914158 645.024103 
L 653.934718 647.493258 
L 655.955277 649.870723 
L 656.074134 649.778225 
L 656.311847 649.124064 
L 656.906129 647.419139 
L 657.440983 646.499884 
L 657.975837 646.001554 
L 658.510691 645.814117 
L 659.164402 645.738697 
L 660.115254 644.24735 
L 660.590679 643.969336 
L 661.125533 643.924724 
L 661.719816 644.122063 
L 662.670667 644.498679 
L 663.324378 644.841792 
L 664.215801 645.580774 
L 665.582651 647.041382 
L 670.158624 652.13169 
L 672.060328 653.829715 
L 673.962031 655.229501 
L 675.923163 656.39318 
L 676.992871 656.844856 
L 677.34944 656.231854 
L 678.003151 655.380016 
L 678.656861 654.896811 
L 679.37 654.664309 
L 679.37 654.664309 
" clip-path="url(#pbcb21a03a1)" style="fill: none; stroke: #008000; stroke-width: 1.5; stroke-linecap: square"/>
   </g>
   <g id="patch_13">
    <path d="M 52.94 822.04 
L 52.94 605.733333 
" style="fill: none; stroke: #000000; stroke-width: 0.8; stroke-linejoin: miter; stroke-linecap: square"/>
   </g>
   <g id="patch_14">
    <path d="M 709.2 822.04 
L 709.2 605.733333 
" style="fill: none; stroke: #000000; stroke-width: 0.8; stroke-linejoin: miter; stroke-linecap: square"/>
   </g>
   <g id="patch_15">
    <path d="M 52.94 822.04 
L 709.2 822.04 
" style="fill: none; stroke: #000000; stroke-width: 0.8; stroke-linejoin: miter; stroke-linecap: square"/>
   </g>
   <g id="patch_16">
    <path d="M 52.94 605.733333 
L 709.2 605.733333 
" style="fill: none; stroke: #000000; stroke-width: 0.8; stroke-linejoin: miter; stroke-linecap: square"/>
   </g>
   <g id="text_44">
    <!-- Cost Over Time -->
    <g transform="translate(334.804375 599.733333) scale(0.12 -0.12)">
     <defs>
      <path id="DejaVuSans-76" d="M 191 3500 
L 800 3500 
L 1894 563 
L 2988 3500 
L 3597 3500 
L 2284 0 
L 1503 0 
L 191 3500 
z
" transform="scale(0.015625)"/>
      <path id="DejaVuSans-72" d="M 2631 2963 
Q 2534 3019 2420 3045 
Q 2306 3072 2169 3072 
Q 1681 3072 1420 2755 
Q 1159 2438 1159 1844 
L 1159 0 
L 581 0 
L 581 3500 
L 1159 3500 
L 1159 2956 
Q 1341 3275 1631 3429 
Q 1922 3584 2338 3584 
Q 2397 3584 2469 3576 
Q 2541 3569 2628 3553 
L 2631 2963 
z
" transform="scale(0.015625)"/>
     </defs>
     <use xlink:href="#DejaVuSans-43"/>
     <use xlink:href="#DejaVuSans-6f" x="69.824219"/>
     <use xlink:href="#DejaVuSans-73" x="131.005859"/>
     <use xlink:href="#DejaVuSans-74" x="183.105469"/>
     <use xlink:href="#DejaVuSans-20" x="222.314453"/>
     <use xlink:href="#DejaVuSans-4f" x="254.101562"/>
     <use xlink:href="#DejaVuSans-76" x="332.8125"/>
     <use xlink:href="#DejaVuSans-65" x="391.992188"/>
     <use xlink:href="#DejaVuSans-72" x="453.515625"/>
     <use xlink:href="#DejaVuSans-20" x="494.628906"/>
     <use xlink:href="#DejaVuSans-54" x="526.416016"/>
     <use xlink:href="#DejaVuSans-69" x="584.375"/>
     <use xlink:href="#DejaVuSans-6d" x="612.158203"/>
     <use xlink:href="#DejaVuSans-65" x="709.570312"/>
    </g>
   </g>
  </g>
  <g id="text_45">
   <!-- Episode 12 - Total Reward: -2188.65 -->
   <g transform="translate(251.745938 26.398125) scale(0.12 -0.12)">
    <defs>
     <path id="DejaVuSans-45" d="M 628 4666 
L 3578 4666 
L 3578 4134 
L 1259 4134 
L 1259 2753 
L 3481 2753 
L 3481 2222 
L 1259 2222 
L 1259 531 
L 3634 531 
L 3634 0 
L 628 0 
L 628 4666 
z
" transform="scale(0.015625)"/>
     <path id="DejaVuSans-64" d="M 2906 2969 
L 2906 4863 
L 3481 4863 
L 3481 0 
L 2906 0 
L 2906 525 
Q 2725 213 2448 61 
Q 2172 -91 1784 -91 
Q 1150 -91 751 415 
Q 353 922 353 1747 
Q 353 2572 751 3078 
Q 1150 3584 1784 3584 
Q 2172 3584 2448 3432 
Q 2725 3281 2906 2969 
z
M 947 1747 
Q 947 1113 1208 752 
Q 1469 391 1925 391 
Q 2381 391 2643 752 
Q 2906 1113 2906 1747 
Q 2906 2381 2643 2742 
Q 2381 3103 1925 3103 
Q 1469 3103 1208 2742 
Q 947 2381 947 1747 
z
" transform="scale(0.015625)"/>
     <path id="DejaVuSans-2d" d="M 313 2009 
L 1997 2009 
L 1997 1497 
L 313 1497 
L 313 2009 
z
" transform="scale(0.015625)"/>
     <path id="DejaVuSans-52" d="M 2841 2188 
Q 3044 2119 3236 1894 
Q 3428 1669 3622 1275 
L 4263 0 
L 3584 0 
L 2988 1197 
Q 2756 1666 2539 1819 
Q 2322 1972 1947 1972 
L 1259 1972 
L 1259 0 
L 628 0 
L 628 4666 
L 2053 4666 
Q 2853 4666 3247 4331 
Q 3641 3997 3641 3322 
Q 3641 2881 3436 2590 
Q 3231 2300 2841 2188 
z
M 1259 4147 
L 1259 2491 
L 2053 2491 
Q 2509 2491 2742 2702 
Q 2975 2913 2975 3322 
Q 2975 3731 2742 3939 
Q 2509 4147 2053 4147 
L 1259 4147 
z
" transform="scale(0.015625)"/>
     <path id="DejaVuSans-77" d="M 269 3500 
L 844 3500 
L 1563 769 
L 2278 3500 
L 2956 3500 
L 3675 769 
L 4391 3500 
L 4966 3500 
L 4050 0 
L 3372 0 
L 2619 2869 
L 1863 0 
L 1184 0 
L 269 3500 
z
" transform="scale(0.015625)"/>
     <path id="DejaVuSans-3a" d="M 750 794 
L 1409 794 
L 1409 0 
L 750 0 
L 750 794 
z
M 750 3309 
L 1409 3309 
L 1409 2516 
L 750 2516 
L 750 3309 
z
" transform="scale(0.015625)"/>
    </defs>
    <use xlink:href="#DejaVuSans-45"/>
    <use xlink:href="#DejaVuSans-70" x="63.183594"/>
    <use xlink:href="#DejaVuSans-69" x="126.660156"/>
    <use xlink:href="#DejaVuSans-73" x="154.443359"/>
    <use xlink:href="#DejaVuSans-6f" x="206.542969"/>
    <use xlink:href="#DejaVuSans-64" x="267.724609"/>
    <use xlink:href="#DejaVuSans-65" x="331.201172"/>
    <use xlink:href="#DejaVuSans-20" x="392.724609"/>
    <use xlink:href="#DejaVuSans-31" x="424.511719"/>
    <use xlink:href="#DejaVuSans-32" x="488.134766"/>
    <use xlink:href="#DejaVuSans-20" x="551.757812"/>
    <use xlink:href="#DejaVuSans-2d" x="583.544922"/>
    <use xlink:href="#DejaVuSans-20" x="619.628906"/>
    <use xlink:href="#DejaVuSans-54" x="651.416016"/>
    <use xlink:href="#DejaVuSans-6f" x="695.5"/>
    <use xlink:href="#DejaVuSans-74" x="756.681641"/>
    <use xlink:href="#DejaVuSans-61" x="795.890625"/>
    <use xlink:href="#DejaVuSans-6c" x="857.169922"/>
    <use xlink:href="#DejaVuSans-20" x="884.953125"/>
    <use xlink:href="#DejaVuSans-52" x="916.740234"/>
    <use xlink:href="#DejaVuSans-65" x="981.722656"/>
    <use xlink:href="#DejaVuSans-77" x="1043.246094"/>
    <use xlink:href="#DejaVuSans-61" x="1125.033203"/>
    <use xlink:href="#DejaVuSans-72" x="1186.3125"/>
    <use xlink:href="#DejaVuSans-64" x="1225.675781"/>
    <use xlink:href="#DejaVuSans-3a" x="1289.152344"/>
    <use xlink:href="#DejaVuSans-20" x="1322.84375"/>
    <use xlink:href="#DejaVuSans-2d" x="1354.630859"/>
    <use xlink:href="#DejaVuSans-32" x="1390.714844"/>
    <use xlink:href="#DejaVuSans-31" x="1454.337891"/>
    <use xlink:href="#DejaVuSans-38" x="1517.960938"/>
    <use xlink:href="#DejaVuSans-38" x="1581.583984"/>
    <use xlink:href="#DejaVuSans-2e" x="1645.207031"/>
    <use xlink:href="#DejaVuSans-36" x="1676.994141"/>
    <use xlink:href="#DejaVuSans-35" x="1740.617188"/>
   </g>
  </g>
 </g>
 <defs>
  <clipPath id="p603f82c5fc">
   <rect x="52.94" y="85.2" width="656.26" height="216.306667"/>
  </clipPath>
  <clipPath id="paef617a81c">
   <rect x="52.94" y="345.466667" width="656.26" height="216.306667"/>
  </clipPath>
  <clipPath id="pbcb21a03a1">
   <rect x="52.94" y="605.733333" width="656.26" height="216.306667"/>
  </clipPath>
 </defs>
</svg>
