<?xml version="1.0" encoding="utf-8" standalone="no"?>
<!DOCTYPE svg PUBLIC "-//W3C//DTD SVG 1.1//EN"
  "http://www.w3.org/Graphics/SVG/1.1/DTD/svg11.dtd">
<svg xmlns:xlink="http://www.w3.org/1999/xlink" width="720pt" height="864pt" viewBox="0 0 720 864" xmlns="http://www.w3.org/2000/svg" version="1.1">
 <metadata>
  <rdf:RDF xmlns:dc="http://purl.org/dc/elements/1.1/" xmlns:cc="http://creativecommons.org/ns#" xmlns:rdf="http://www.w3.org/1999/02/22-rdf-syntax-ns#">
   <cc:Work>
    <dc:type rdf:resource="http://purl.org/dc/dcmitype/StillImage"/>
    <dc:date>2024-06-03T12:47:25.527031</dc:date>
    <dc:format>image/svg+xml</dc:format>
    <dc:creator>
     <cc:Agent>
      <dc:title>Matplotlib v3.8.4, https://matplotlib.org/</dc:title>
     </cc:Agent>
    </dc:creator>
   </cc:Work>
  </rdf:RDF>
 </metadata>
 <defs>
  <style type="text/css">*{stroke-linejoin: round; stroke-linecap: butt}</style>
 </defs>
 <g id="figure_1">
  <g id="patch_1">
   <path d="M 0 864 
L 720 864 
L 720 0 
L 0 0 
z
" style="fill: #ffffff"/>
  </g>
  <g id="axes_1">
   <g id="patch_2">
    <path d="M 52.94 301.506667 
L 709.2 301.506667 
L 709.2 85.2 
L 52.94 85.2 
z
" style="fill: #ffffff"/>
   </g>
   <g id="matplotlib.axis_1">
    <g id="xtick_1">
     <g id="line2d_1">
      <defs>
       <path id="mbe663b30eb" d="M 0 0 
L 0 3.5 
" style="stroke: #000000; stroke-width: 0.8"/>
      </defs>
      <g>
       <use xlink:href="#mbe663b30eb" x="82.77" y="301.506667" style="stroke: #000000; stroke-width: 0.8"/>
      </g>
     </g>
     <g id="text_1">
      <!-- 0.00 -->
      <g transform="translate(71.637188 316.105104) scale(0.1 -0.1)">
       <defs>
        <path id="DejaVuSans-30" d="M 2034 4250 
Q 1547 4250 1301 3770 
Q 1056 3291 1056 2328 
Q 1056 1369 1301 889 
Q 1547 409 2034 409 
Q 2525 409 2770 889 
Q 3016 1369 3016 2328 
Q 3016 3291 2770 3770 
Q 2525 4250 2034 4250 
z
M 2034 4750 
Q 2819 4750 3233 4129 
Q 3647 3509 3647 2328 
Q 3647 1150 3233 529 
Q 2819 -91 2034 -91 
Q 1250 -91 836 529 
Q 422 1150 422 2328 
Q 422 3509 836 4129 
Q 1250 4750 2034 4750 
z
" transform="scale(0.015625)"/>
        <path id="DejaVuSans-2e" d="M 684 794 
L 1344 794 
L 1344 0 
L 684 0 
L 684 794 
z
" transform="scale(0.015625)"/>
       </defs>
       <use xlink:href="#DejaVuSans-30"/>
       <use xlink:href="#DejaVuSans-2e" x="63.623047"/>
       <use xlink:href="#DejaVuSans-30" x="95.410156"/>
       <use xlink:href="#DejaVuSans-30" x="159.033203"/>
      </g>
     </g>
    </g>
    <g id="xtick_2">
     <g id="line2d_2">
      <g>
       <use xlink:href="#mbe663b30eb" x="201.62646" y="301.506667" style="stroke: #000000; stroke-width: 0.8"/>
      </g>
     </g>
     <g id="text_2">
      <!-- 0.02 -->
      <g transform="translate(190.493647 316.105104) scale(0.1 -0.1)">
       <defs>
        <path id="DejaVuSans-32" d="M 1228 531 
L 3431 531 
L 3431 0 
L 469 0 
L 469 531 
Q 828 903 1448 1529 
Q 2069 2156 2228 2338 
Q 2531 2678 2651 2914 
Q 2772 3150 2772 3378 
Q 2772 3750 2511 3984 
Q 2250 4219 1831 4219 
Q 1534 4219 1204 4116 
Q 875 4013 500 3803 
L 500 4441 
Q 881 4594 1212 4672 
Q 1544 4750 1819 4750 
Q 2544 4750 2975 4387 
Q 3406 4025 3406 3419 
Q 3406 3131 3298 2873 
Q 3191 2616 2906 2266 
Q 2828 2175 2409 1742 
Q 1991 1309 1228 531 
z
" transform="scale(0.015625)"/>
       </defs>
       <use xlink:href="#DejaVuSans-30"/>
       <use xlink:href="#DejaVuSans-2e" x="63.623047"/>
       <use xlink:href="#DejaVuSans-30" x="95.410156"/>
       <use xlink:href="#DejaVuSans-32" x="159.033203"/>
      </g>
     </g>
    </g>
    <g id="xtick_3">
     <g id="line2d_3">
      <g>
       <use xlink:href="#mbe663b30eb" x="320.48292" y="301.506667" style="stroke: #000000; stroke-width: 0.8"/>
      </g>
     </g>
     <g id="text_3">
      <!-- 0.04 -->
      <g transform="translate(309.350107 316.105104) scale(0.1 -0.1)">
       <defs>
        <path id="DejaVuSans-34" d="M 2419 4116 
L 825 1625 
L 2419 1625 
L 2419 4116 
z
M 2253 4666 
L 3047 4666 
L 3047 1625 
L 3713 1625 
L 3713 1100 
L 3047 1100 
L 3047 0 
L 2419 0 
L 2419 1100 
L 313 1100 
L 313 1709 
L 2253 4666 
z
" transform="scale(0.015625)"/>
       </defs>
       <use xlink:href="#DejaVuSans-30"/>
       <use xlink:href="#DejaVuSans-2e" x="63.623047"/>
       <use xlink:href="#DejaVuSans-30" x="95.410156"/>
       <use xlink:href="#DejaVuSans-34" x="159.033203"/>
      </g>
     </g>
    </g>
    <g id="xtick_4">
     <g id="line2d_4">
      <g>
       <use xlink:href="#mbe663b30eb" x="439.339379" y="301.506667" style="stroke: #000000; stroke-width: 0.8"/>
      </g>
     </g>
     <g id="text_4">
      <!-- 0.06 -->
      <g transform="translate(428.206567 316.105104) scale(0.1 -0.1)">
       <defs>
        <path id="DejaVuSans-36" d="M 2113 2584 
Q 1688 2584 1439 2293 
Q 1191 2003 1191 1497 
Q 1191 994 1439 701 
Q 1688 409 2113 409 
Q 2538 409 2786 701 
Q 3034 994 3034 1497 
Q 3034 2003 2786 2293 
Q 2538 2584 2113 2584 
z
M 3366 4563 
L 3366 3988 
Q 3128 4100 2886 4159 
Q 2644 4219 2406 4219 
Q 1781 4219 1451 3797 
Q 1122 3375 1075 2522 
Q 1259 2794 1537 2939 
Q 1816 3084 2150 3084 
Q 2853 3084 3261 2657 
Q 3669 2231 3669 1497 
Q 3669 778 3244 343 
Q 2819 -91 2113 -91 
Q 1303 -91 875 529 
Q 447 1150 447 2328 
Q 447 3434 972 4092 
Q 1497 4750 2381 4750 
Q 2619 4750 2861 4703 
Q 3103 4656 3366 4563 
z
" transform="scale(0.015625)"/>
       </defs>
       <use xlink:href="#DejaVuSans-30"/>
       <use xlink:href="#DejaVuSans-2e" x="63.623047"/>
       <use xlink:href="#DejaVuSans-30" x="95.410156"/>
       <use xlink:href="#DejaVuSans-36" x="159.033203"/>
      </g>
     </g>
    </g>
    <g id="xtick_5">
     <g id="line2d_5">
      <g>
       <use xlink:href="#mbe663b30eb" x="558.195839" y="301.506667" style="stroke: #000000; stroke-width: 0.8"/>
      </g>
     </g>
     <g id="text_5">
      <!-- 0.08 -->
      <g transform="translate(547.063027 316.105104) scale(0.1 -0.1)">
       <defs>
        <path id="DejaVuSans-38" d="M 2034 2216 
Q 1584 2216 1326 1975 
Q 1069 1734 1069 1313 
Q 1069 891 1326 650 
Q 1584 409 2034 409 
Q 2484 409 2743 651 
Q 3003 894 3003 1313 
Q 3003 1734 2745 1975 
Q 2488 2216 2034 2216 
z
M 1403 2484 
Q 997 2584 770 2862 
Q 544 3141 544 3541 
Q 544 4100 942 4425 
Q 1341 4750 2034 4750 
Q 2731 4750 3128 4425 
Q 3525 4100 3525 3541 
Q 3525 3141 3298 2862 
Q 3072 2584 2669 2484 
Q 3125 2378 3379 2068 
Q 3634 1759 3634 1313 
Q 3634 634 3220 271 
Q 2806 -91 2034 -91 
Q 1263 -91 848 271 
Q 434 634 434 1313 
Q 434 1759 690 2068 
Q 947 2378 1403 2484 
z
M 1172 3481 
Q 1172 3119 1398 2916 
Q 1625 2713 2034 2713 
Q 2441 2713 2670 2916 
Q 2900 3119 2900 3481 
Q 2900 3844 2670 4047 
Q 2441 4250 2034 4250 
Q 1625 4250 1398 4047 
Q 1172 3844 1172 3481 
z
" transform="scale(0.015625)"/>
       </defs>
       <use xlink:href="#DejaVuSans-30"/>
       <use xlink:href="#DejaVuSans-2e" x="63.623047"/>
       <use xlink:href="#DejaVuSans-30" x="95.410156"/>
       <use xlink:href="#DejaVuSans-38" x="159.033203"/>
      </g>
     </g>
    </g>
    <g id="xtick_6">
     <g id="line2d_6">
      <g>
       <use xlink:href="#mbe663b30eb" x="677.052299" y="301.506667" style="stroke: #000000; stroke-width: 0.8"/>
      </g>
     </g>
     <g id="text_6">
      <!-- 0.10 -->
      <g transform="translate(665.919487 316.105104) scale(0.1 -0.1)">
       <defs>
        <path id="DejaVuSans-31" d="M 794 531 
L 1825 531 
L 1825 4091 
L 703 3866 
L 703 4441 
L 1819 4666 
L 2450 4666 
L 2450 531 
L 3481 531 
L 3481 0 
L 794 0 
L 794 531 
z
" transform="scale(0.015625)"/>
       </defs>
       <use xlink:href="#DejaVuSans-30"/>
       <use xlink:href="#DejaVuSans-2e" x="63.623047"/>
       <use xlink:href="#DejaVuSans-31" x="95.410156"/>
       <use xlink:href="#DejaVuSans-30" x="159.033203"/>
      </g>
     </g>
    </g>
   </g>
   <g id="matplotlib.axis_2">
    <g id="ytick_1">
     <g id="line2d_7">
      <defs>
       <path id="m08f10b3b4d" d="M 0 0 
L -3.5 0 
" style="stroke: #ff4500; stroke-width: 0.8"/>
      </defs>
      <g>
       <use xlink:href="#m08f10b3b4d" x="52.94" y="291.681015" style="fill: #ff4500; stroke: #ff4500; stroke-width: 0.8"/>
      </g>
     </g>
     <g id="text_7">
      <!-- 0 -->
      <g style="fill: #ff4500" transform="translate(39.5775 295.480234) scale(0.1 -0.1)">
       <use xlink:href="#DejaVuSans-30"/>
      </g>
     </g>
    </g>
    <g id="ytick_2">
     <g id="line2d_8">
      <g>
       <use xlink:href="#m08f10b3b4d" x="52.94" y="255.735565" style="fill: #ff4500; stroke: #ff4500; stroke-width: 0.8"/>
      </g>
     </g>
     <g id="text_8">
      <!-- 2 -->
      <g style="fill: #ff4500" transform="translate(39.5775 259.534784) scale(0.1 -0.1)">
       <use xlink:href="#DejaVuSans-32"/>
      </g>
     </g>
    </g>
    <g id="ytick_3">
     <g id="line2d_9">
      <g>
       <use xlink:href="#m08f10b3b4d" x="52.94" y="219.790114" style="fill: #ff4500; stroke: #ff4500; stroke-width: 0.8"/>
      </g>
     </g>
     <g id="text_9">
      <!-- 4 -->
      <g style="fill: #ff4500" transform="translate(39.5775 223.589333) scale(0.1 -0.1)">
       <use xlink:href="#DejaVuSans-34"/>
      </g>
     </g>
    </g>
    <g id="ytick_4">
     <g id="line2d_10">
      <g>
       <use xlink:href="#m08f10b3b4d" x="52.94" y="183.844664" style="fill: #ff4500; stroke: #ff4500; stroke-width: 0.8"/>
      </g>
     </g>
     <g id="text_10">
      <!-- 6 -->
      <g style="fill: #ff4500" transform="translate(39.5775 187.643882) scale(0.1 -0.1)">
       <use xlink:href="#DejaVuSans-36"/>
      </g>
     </g>
    </g>
    <g id="ytick_5">
     <g id="line2d_11">
      <g>
       <use xlink:href="#m08f10b3b4d" x="52.94" y="147.899213" style="fill: #ff4500; stroke: #ff4500; stroke-width: 0.8"/>
      </g>
     </g>
     <g id="text_11">
      <!-- 8 -->
      <g style="fill: #ff4500" transform="translate(39.5775 151.698432) scale(0.1 -0.1)">
       <use xlink:href="#DejaVuSans-38"/>
      </g>
     </g>
    </g>
    <g id="ytick_6">
     <g id="line2d_12">
      <g>
       <use xlink:href="#m08f10b3b4d" x="52.94" y="111.953763" style="fill: #ff4500; stroke: #ff4500; stroke-width: 0.8"/>
      </g>
     </g>
     <g id="text_12">
      <!-- 10 -->
      <g style="fill: #ff4500" transform="translate(33.215 115.752981) scale(0.1 -0.1)">
       <use xlink:href="#DejaVuSans-31"/>
       <use xlink:href="#DejaVuSans-30" x="63.623047"/>
      </g>
     </g>
    </g>
    <g id="text_13">
     <!-- Output Voltage -->
     <g style="fill: #ff4500" transform="translate(27.135313 231.066615) rotate(-90) scale(0.1 -0.1)">
      <defs>
       <path id="DejaVuSans-4f" d="M 2522 4238 
Q 1834 4238 1429 3725 
Q 1025 3213 1025 2328 
Q 1025 1447 1429 934 
Q 1834 422 2522 422 
Q 3209 422 3611 934 
Q 4013 1447 4013 2328 
Q 4013 3213 3611 3725 
Q 3209 4238 2522 4238 
z
M 2522 4750 
Q 3503 4750 4090 4092 
Q 4678 3434 4678 2328 
Q 4678 1225 4090 567 
Q 3503 -91 2522 -91 
Q 1538 -91 948 565 
Q 359 1222 359 2328 
Q 359 3434 948 4092 
Q 1538 4750 2522 4750 
z
" transform="scale(0.015625)"/>
       <path id="DejaVuSans-75" d="M 544 1381 
L 544 3500 
L 1119 3500 
L 1119 1403 
Q 1119 906 1312 657 
Q 1506 409 1894 409 
Q 2359 409 2629 706 
Q 2900 1003 2900 1516 
L 2900 3500 
L 3475 3500 
L 3475 0 
L 2900 0 
L 2900 538 
Q 2691 219 2414 64 
Q 2138 -91 1772 -91 
Q 1169 -91 856 284 
Q 544 659 544 1381 
z
M 1991 3584 
L 1991 3584 
z
" transform="scale(0.015625)"/>
       <path id="DejaVuSans-74" d="M 1172 4494 
L 1172 3500 
L 2356 3500 
L 2356 3053 
L 1172 3053 
L 1172 1153 
Q 1172 725 1289 603 
Q 1406 481 1766 481 
L 2356 481 
L 2356 0 
L 1766 0 
Q 1100 0 847 248 
Q 594 497 594 1153 
L 594 3053 
L 172 3053 
L 172 3500 
L 594 3500 
L 594 4494 
L 1172 4494 
z
" transform="scale(0.015625)"/>
       <path id="DejaVuSans-70" d="M 1159 525 
L 1159 -1331 
L 581 -1331 
L 581 3500 
L 1159 3500 
L 1159 2969 
Q 1341 3281 1617 3432 
Q 1894 3584 2278 3584 
Q 2916 3584 3314 3078 
Q 3713 2572 3713 1747 
Q 3713 922 3314 415 
Q 2916 -91 2278 -91 
Q 1894 -91 1617 61 
Q 1341 213 1159 525 
z
M 3116 1747 
Q 3116 2381 2855 2742 
Q 2594 3103 2138 3103 
Q 1681 3103 1420 2742 
Q 1159 2381 1159 1747 
Q 1159 1113 1420 752 
Q 1681 391 2138 391 
Q 2594 391 2855 752 
Q 3116 1113 3116 1747 
z
" transform="scale(0.015625)"/>
       <path id="DejaVuSans-20" transform="scale(0.015625)"/>
       <path id="DejaVuSans-56" d="M 1831 0 
L 50 4666 
L 709 4666 
L 2188 738 
L 3669 4666 
L 4325 4666 
L 2547 0 
L 1831 0 
z
" transform="scale(0.015625)"/>
       <path id="DejaVuSans-6f" d="M 1959 3097 
Q 1497 3097 1228 2736 
Q 959 2375 959 1747 
Q 959 1119 1226 758 
Q 1494 397 1959 397 
Q 2419 397 2687 759 
Q 2956 1122 2956 1747 
Q 2956 2369 2687 2733 
Q 2419 3097 1959 3097 
z
M 1959 3584 
Q 2709 3584 3137 3096 
Q 3566 2609 3566 1747 
Q 3566 888 3137 398 
Q 2709 -91 1959 -91 
Q 1206 -91 779 398 
Q 353 888 353 1747 
Q 353 2609 779 3096 
Q 1206 3584 1959 3584 
z
" transform="scale(0.015625)"/>
       <path id="DejaVuSans-6c" d="M 603 4863 
L 1178 4863 
L 1178 0 
L 603 0 
L 603 4863 
z
" transform="scale(0.015625)"/>
       <path id="DejaVuSans-61" d="M 2194 1759 
Q 1497 1759 1228 1600 
Q 959 1441 959 1056 
Q 959 750 1161 570 
Q 1363 391 1709 391 
Q 2188 391 2477 730 
Q 2766 1069 2766 1631 
L 2766 1759 
L 2194 1759 
z
M 3341 1997 
L 3341 0 
L 2766 0 
L 2766 531 
Q 2569 213 2275 61 
Q 1981 -91 1556 -91 
Q 1019 -91 701 211 
Q 384 513 384 1019 
Q 384 1609 779 1909 
Q 1175 2209 1959 2209 
L 2766 2209 
L 2766 2266 
Q 2766 2663 2505 2880 
Q 2244 3097 1772 3097 
Q 1472 3097 1187 3025 
Q 903 2953 641 2809 
L 641 3341 
Q 956 3463 1253 3523 
Q 1550 3584 1831 3584 
Q 2591 3584 2966 3190 
Q 3341 2797 3341 1997 
z
" transform="scale(0.015625)"/>
       <path id="DejaVuSans-67" d="M 2906 1791 
Q 2906 2416 2648 2759 
Q 2391 3103 1925 3103 
Q 1463 3103 1205 2759 
Q 947 2416 947 1791 
Q 947 1169 1205 825 
Q 1463 481 1925 481 
Q 2391 481 2648 825 
Q 2906 1169 2906 1791 
z
M 3481 434 
Q 3481 -459 3084 -895 
Q 2688 -1331 1869 -1331 
Q 1566 -1331 1297 -1286 
Q 1028 -1241 775 -1147 
L 775 -588 
Q 1028 -725 1275 -790 
Q 1522 -856 1778 -856 
Q 2344 -856 2625 -561 
Q 2906 -266 2906 331 
L 2906 616 
Q 2728 306 2450 153 
Q 2172 0 1784 0 
Q 1141 0 747 490 
Q 353 981 353 1791 
Q 353 2603 747 3093 
Q 1141 3584 1784 3584 
Q 2172 3584 2450 3431 
Q 2728 3278 2906 2969 
L 2906 3500 
L 3481 3500 
L 3481 434 
z
" transform="scale(0.015625)"/>
       <path id="DejaVuSans-65" d="M 3597 1894 
L 3597 1613 
L 953 1613 
Q 991 1019 1311 708 
Q 1631 397 2203 397 
Q 2534 397 2845 478 
Q 3156 559 3463 722 
L 3463 178 
Q 3153 47 2828 -22 
Q 2503 -91 2169 -91 
Q 1331 -91 842 396 
Q 353 884 353 1716 
Q 353 2575 817 3079 
Q 1281 3584 2069 3584 
Q 2775 3584 3186 3129 
Q 3597 2675 3597 1894 
z
M 3022 2063 
Q 3016 2534 2758 2815 
Q 2500 3097 2075 3097 
Q 1594 3097 1305 2825 
Q 1016 2553 972 2059 
L 3022 2063 
z
" transform="scale(0.015625)"/>
      </defs>
      <use xlink:href="#DejaVuSans-4f"/>
      <use xlink:href="#DejaVuSans-75" x="78.710938"/>
      <use xlink:href="#DejaVuSans-74" x="142.089844"/>
      <use xlink:href="#DejaVuSans-70" x="181.298828"/>
      <use xlink:href="#DejaVuSans-75" x="244.775391"/>
      <use xlink:href="#DejaVuSans-74" x="308.154297"/>
      <use xlink:href="#DejaVuSans-20" x="347.363281"/>
      <use xlink:href="#DejaVuSans-56" x="379.150391"/>
      <use xlink:href="#DejaVuSans-6f" x="439.808594"/>
      <use xlink:href="#DejaVuSans-6c" x="500.990234"/>
      <use xlink:href="#DejaVuSans-74" x="528.773438"/>
      <use xlink:href="#DejaVuSans-61" x="567.982422"/>
      <use xlink:href="#DejaVuSans-67" x="629.261719"/>
      <use xlink:href="#DejaVuSans-65" x="692.738281"/>
     </g>
    </g>
   </g>
   <g id="line2d_13">
    <path d="M 82.77 291.674545 
L 82.948285 291.540982 
L 83.185998 290.885738 
L 83.542567 288.971621 
L 84.017993 285.014037 
L 84.731132 276.904663 
L 85.979124 262.286762 
L 86.81112 252.994686 
L 88.237397 236.569897 
L 88.712823 234.064823 
L 89.188249 231.848631 
L 89.841959 228.600954 
L 90.317385 226.976031 
L 90.792811 224.285018 
L 91.268237 221.869373 
L 91.624806 221.058185 
L 91.981376 220.530751 
L 92.337945 219.323307 
L 92.813371 216.803823 
L 93.52651 211.617358 
L 94.120792 207.559478 
L 94.477361 206.464765 
L 95.249928 205.069747 
L 95.725354 202.995615 
L 96.379065 198.982262 
L 97.627057 190.897993 
L 98.102483 189.336158 
L 98.696766 186.430102 
L 100.004187 179.655168 
L 100.2419 179.496112 
L 100.420184 179.641554 
L 101.133323 180.656618 
L 101.371036 180.490676 
L 101.668177 179.95186 
L 102.084175 178.683723 
L 102.500172 177.554635 
L 102.678457 177.481352 
L 102.856742 177.635331 
L 103.153883 178.338318 
L 103.56988 180.111224 
L 103.985878 181.772107 
L 104.283019 182.273983 
L 104.520732 182.323752 
L 104.758445 182.102812 
L 105.115014 181.338208 
L 105.649869 180.025038 
L 105.828153 180.007014 
L 106.065866 180.317902 
L 106.363007 181.176435 
L 107.076146 183.502566 
L 107.313859 183.654773 
L 107.551572 183.519495 
L 107.848713 183.001051 
L 108.740136 181.08134 
L 108.918421 181.254189 
L 109.215562 181.971224 
L 110.166414 184.913347 
L 110.404127 184.925887 
L 110.64184 184.66457 
L 110.998409 183.834605 
L 111.473835 182.066269 
L 112.365258 178.438781 
L 113.078397 177.535914 
L 113.553823 176.028522 
L 114.207534 173.06204 
L 115.217814 167.230594 
L 115.752668 164.514648 
L 116.822376 158.859223 
L 121.398349 133.401407 
L 122.943483 126.544942 
L 123.71605 123.78626 
L 123.894335 123.708131 
L 124.07262 123.949858 
L 124.310333 124.716737 
L 125.023471 127.381533 
L 125.439469 128.152787 
L 125.796038 128.445235 
L 126.152608 128.460241 
L 126.509177 128.248006 
L 126.984603 127.684176 
L 127.638314 126.521813 
L 128.708022 124.451398 
L 128.886306 124.682557 
L 129.124019 125.434966 
L 129.480589 127.383334 
L 130.015443 131.776588 
L 131.085151 141.143304 
L 131.560577 143.219565 
L 131.976574 144.17632 
L 132.333144 144.484132 
L 132.630285 144.443522 
L 132.986854 144.099897 
L 133.46228 143.239861 
L 134.115991 141.504411 
L 135.066842 138.266894 
L 137.325115 129.48934 
L 137.800541 127.936025 
L 137.978826 127.848907 
L 138.15711 128.075406 
L 138.394823 128.81334 
L 138.751393 130.724755 
L 139.286247 135.018375 
L 139.821101 138.887253 
L 140.296527 140.945131 
L 140.712524 141.910536 
L 141.069094 142.240245 
L 141.366235 142.226129 
L 141.722804 141.922309 
L 142.19823 141.125941 
L 142.85194 139.491843 
L 143.802792 136.417409 
L 145.942208 128.474695 
L 147.962768 121.378627 
L 149.56733 116.519711 
L 151.053036 112.688711 
L 152.538742 109.458556 
L 153.965019 106.880327 
L 154.143304 106.818384 
L 154.678158 106.89483 
L 155.27244 106.748354 
L 156.045007 106.306054 
L 156.817574 105.827003 
L 156.995859 106.140078 
L 157.887283 108.476237 
L 158.422137 109.176374 
L 158.897563 109.465539 
L 159.372988 109.513896 
L 159.907842 109.349528 
L 160.620981 108.872642 
L 161.393548 108.282911 
L 161.571833 108.565855 
L 161.868974 109.714264 
L 162.284972 112.517399 
L 162.879254 118.375652 
L 163.651821 126.094988 
L 165.078098 137.297806 
L 166.02895 148.757498 
L 166.563804 154.230597 
L 167.03923 157.180301 
L 167.455228 158.602157 
L 167.811797 159.129499 
L 168.04951 159.185917 
L 168.287223 159.040123 
L 168.643792 158.49772 
L 169.356931 156.779669 
L 170.010641 154.526836 
L 171.139778 150.356975 
L 171.318063 150.380397 
L 171.555775 150.818562 
L 171.852917 151.936987 
L 172.863197 157.419147 
L 173.75462 163.369806 
L 174.170618 164.52924 
L 174.467759 164.82178 
L 174.705472 164.78593 
L 175.002613 164.452543 
L 175.41861 163.53728 
L 175.953464 161.762552 
L 176.78546 158.093946 
L 182.252857 131.815877 
L 183.679134 126.009757 
L 183.916847 125.74314 
L 184.392273 125.269141 
L 185.045984 124.239707 
L 185.996835 122.24935 
L 187.957967 117.456377 
L 189.621957 113.550135 
L 189.800242 113.497376 
L 190.21624 113.552676 
L 190.691666 113.39555 
L 191.285948 112.950985 
L 192.355656 111.967706 
L 192.533941 112.306896 
L 192.89051 113.718134 
L 193.425364 115.462151 
L 193.90079 116.375514 
L 194.376216 116.824367 
L 194.792213 116.91811 
L 195.208211 116.79252 
L 195.743065 116.383026 
L 196.456204 115.527491 
L 197.525912 113.851645 
L 201.329319 107.559054 
L 201.507603 107.863643 
L 202.755596 111.197052 
L 203.231022 111.68497 
L 203.706448 111.860636 
L 204.181874 111.795172 
L 204.776156 111.460255 
L 205.548723 110.734948 
L 206.737288 109.260648 
L 207.569283 108.260977 
L 208.282422 108.464678 
L 208.817276 108.347079 
L 209.530414 107.935285 
L 210.243553 107.473347 
L 210.421838 107.774755 
L 211.669831 111.096675 
L 212.145256 111.583809 
L 212.620682 111.760009 
L 213.096108 111.696084 
L 213.69039 111.364125 
L 214.462957 110.643805 
L 215.651522 109.178469 
L 216.364661 108.349721 
L 216.542946 108.564241 
L 217.0778 109.30594 
L 217.553225 109.62145 
L 218.028651 109.688234 
L 218.563505 109.537171 
L 219.098359 109.351569 
L 219.276644 109.684903 
L 219.633213 111.099215 
L 220.168068 112.877674 
L 220.702922 113.931854 
L 220.940635 114.356372 
L 221.237776 115.543494 
L 221.653773 118.346884 
L 222.248056 124.119871 
L 223.080051 132.427418 
L 223.614905 135.519074 
L 224.090331 137.096579 
L 224.506328 137.770537 
L 224.803469 137.925533 
L 225.100611 137.854653 
L 225.45718 137.520407 
L 225.932606 136.73562 
L 226.586316 135.191069 
L 227.596596 132.154692 
L 231.518859 119.692948 
L 232.231998 118.711099 
L 233.301706 116.787319 
L 238.353106 107.129766 
L 239.957668 104.755577 
L 241.56223 102.772836 
L 243.166793 101.137636 
L 244.830783 99.754571 
L 246.61363 98.565118 
L 248.515333 97.565377 
L 250.595321 96.721891 
L 252.97245 96.001792 
L 255.111867 95.541589 
L 257.607852 96.013573 
L 259.331271 95.87456 
L 261.232974 95.729739 
L 262.124398 96.036238 
L 263.194106 96.158882 
L 263.847817 96.212554 
L 264.026101 96.562692 
L 264.798668 98.55459 
L 265.452379 99.592338 
L 266.046661 100.158567 
L 266.700372 100.478955 
L 267.41351 100.570437 
L 268.245506 100.448451 
L 269.43407 100.023535 
L 269.909496 99.869193 
L 270.266065 100.331974 
L 270.860348 100.906709 
L 271.45463 101.201989 
L 272.10834 101.292047 
L 272.940336 101.162377 
L 274.010044 100.751245 
L 275.911747 99.734684 
L 279.358585 97.90758 
L 281.735714 96.919721 
L 281.973427 96.925516 
L 282.86485 97.084769 
L 283.993986 97.051798 
L 285.717405 96.750761 
L 287.856821 96.382285 
L 288.56996 97.006093 
L 289.342527 97.373519 
L 290.233951 97.528809 
L 291.363087 97.471406 
L 293.027077 97.129683 
L 293.205362 97.146125 
L 293.383647 97.459757 
L 293.680788 98.694306 
L 294.512783 102.934117 
L 295.107065 104.811873 
L 295.701348 105.974443 
L 296.236202 106.561457 
L 296.592771 106.908095 
L 297.008769 108.173305 
L 297.543623 109.385058 
L 298.078477 110.068258 
L 298.553903 110.335503 
L 299.029329 110.357304 
L 299.564183 110.301978 
L 299.801896 110.803976 
L 300.33675 111.802646 
L 300.812176 112.260491 
L 301.287601 112.40666 
L 301.763027 112.312475 
L 302.357309 111.942956 
L 303.129876 111.175091 
L 304.318441 109.641049 
L 308.775558 103.620799 
L 310.498977 101.777919 
L 312.222396 100.254658 
L 314.005243 98.976771 
L 315.906946 97.893522 
L 317.927506 96.997824 
L 320.185778 96.239074 
L 322.800621 95.599753 
L 325.890889 95.079615 
L 326.366314 95.078686 
L 326.782312 95.763175 
L 327.495451 96.655236 
L 328.20859 97.191389 
L 328.981156 97.491232 
L 329.87258 97.593669 
L 331.061145 97.485217 
L 332.90342 97.060163 
L 335.339977 96.455697 
L 336.350257 97.253265 
L 337.122824 97.52881 
L 338.014247 97.612403 
L 338.192532 97.66933 
L 338.430245 98.155549 
L 339.083956 99.448171 
L 339.678238 100.180187 
L 340.27252 100.600501 
L 340.926231 100.799177 
L 341.698798 100.784283 
L 342.649649 100.52776 
L 344.075927 99.887184 
L 349.602752 97.209312 
L 350.315891 97.03076 
L 351.207314 97.181501 
L 352.336451 97.1377 
L 352.811877 97.132625 
L 352.990161 97.462458 
L 353.287303 98.666341 
L 353.941013 101.098613 
L 354.535295 102.531214 
L 355.129578 103.413568 
L 355.783288 104.178847 
L 356.080429 105.426224 
L 356.852996 109.321753 
L 357.38785 110.961009 
L 357.922704 111.938866 
L 358.39813 112.381161 
L 358.873556 112.514066 
L 359.348982 112.408515 
L 359.943264 112.026983 
L 360.715831 111.246397 
L 361.963824 109.614077 
L 366.183228 103.858105 
L 367.906647 101.974823 
L 369.630066 100.41525 
L 370.521489 99.786676 
L 370.699774 100.01726 
L 370.937487 100.834006 
L 371.82891 104.595363 
L 372.423193 106.052878 
L 372.958047 106.832086 
L 373.492901 107.230556 
L 374.027755 107.341403 
L 374.622037 107.215465 
L 375.335176 106.821641 
L 376.345456 105.985494 
L 376.761453 105.729251 
L 376.939738 106.025328 
L 377.593449 107.485951 
L 378.128303 108.142752 
L 378.603728 108.415171 
L 379.138583 108.455303 
L 379.91115 108.418012 
L 380.56486 109.403255 
L 381.040286 109.730104 
L 381.515712 109.804354 
L 382.050566 109.658076 
L 382.704276 109.239761 
L 383.655128 108.330839 
L 385.319118 106.360773 
L 388.171673 103.015378 
L 389.003669 102.288585 
L 390.073377 101.790221 
L 391.440226 101.092171 
L 391.618511 101.448707 
L 391.97508 102.944206 
L 392.569362 105.088569 
L 393.163645 106.437465 
L 393.698499 107.139825 
L 394.233353 107.477062 
L 394.768207 107.539102 
L 395.362489 107.370438 
L 396.135056 106.893159 
L 397.264193 105.889201 
L 397.739618 105.552505 
L 398.452757 106.002638 
L 398.987611 106.054711 
L 399.641322 105.87716 
L 400.473317 105.392824 
L 400.651602 105.324687 
L 400.948743 105.622498 
L 401.483597 105.997864 
L 402.018451 106.108833 
L 402.612733 106.002991 
L 403.266444 105.831849 
L 403.444729 106.19272 
L 403.74187 107.450063 
L 404.336152 109.95517 
L 404.871006 111.363886 
L 405.40586 112.165327 
L 405.881286 112.486841 
L 406.356712 112.526053 
L 406.891566 112.313941 
L 407.545276 111.78858 
L 408.496128 110.692924 
L 410.219547 108.280298 
L 412.47782 105.201098 
L 412.656104 105.319232 
L 413.190958 105.85412 
L 413.725812 106.085337 
L 414.320095 106.077242 
L 414.973805 105.837448 
L 415.865229 105.256792 
L 417.291506 104.019972 
L 421.154341 100.568912 
L 421.332626 100.491603 
L 421.51091 100.714589 
L 422.224049 102.124433 
L 422.818332 102.796013 
L 423.412614 103.128591 
L 424.006896 103.212622 
L 424.54175 103.26477 
L 425.136032 103.733363 
L 425.730315 103.904641 
L 426.384025 103.846093 
L 427.216021 103.519251 
L 428.404585 102.771575 
L 434.763406 98.357963 
L 436.902822 97.331075 
L 439.161095 96.498059 
L 439.458236 96.496122 
L 440.349659 96.696185 
L 441.478796 96.711478 
L 442.370219 96.746119 
L 443.083358 97.418743 
L 443.796497 97.789782 
L 444.628492 97.960898 
L 444.866205 98.033737 
L 445.044489 98.39333 
L 445.341631 99.678176 
L 445.995341 102.539027 
L 446.589623 104.220607 
L 447.183906 105.252659 
L 447.71876 105.764709 
L 448.491327 106.361027 
L 449.026181 106.834859 
L 449.561035 107.007068 
L 450.155317 106.936239 
L 450.868456 106.594399 
L 451.284454 106.436297 
L 451.819308 106.619245 
L 452.41359 106.563475 
L 453.126729 106.242347 
L 454.07758 105.542648 
L 454.374722 105.413926 
L 455.08786 105.123383 
L 456.09814 104.442968 
L 457.880987 102.914718 
L 460.852399 100.406471 
L 462.872958 99.007119 
L 464.120951 98.344082 
L 464.299236 98.60868 
L 464.536949 99.469501 
L 464.893518 101.698276 
L 465.428372 106.723458 
L 466.141511 113.555978 
L 466.735793 117.174115 
L 467.270647 119.20643 
L 467.746073 120.268355 
L 468.162071 120.74772 
L 468.578069 120.894035 
L 468.994066 120.775339 
L 469.469492 120.386801 
L 470.123203 119.529711 
L 471.074054 117.860765 
L 472.975758 113.948506 
L 474.936889 110.087178 
L 475.174602 110.065129 
L 475.709456 109.959058 
L 476.363167 109.570378 
L 477.25459 108.74129 
L 477.967729 108.076632 
L 478.621439 108.39341 
L 479.156293 108.365514 
L 479.810004 108.074946 
L 480.641999 107.43342 
L 481.94942 106.1009 
L 486.109396 101.687522 
L 486.584822 101.319021 
L 486.763107 101.522632 
L 487.119676 102.634357 
L 487.713959 104.120295 
L 488.308241 105.013872 
L 488.843095 105.438653 
L 489.377949 105.594047 
L 489.972231 105.532527 
L 490.68537 105.229243 
L 491.69565 104.533604 
L 493.537925 102.930789 
L 495.677341 101.1282 
L 495.855626 101.331456 
L 496.449908 102.180043 
L 497.044191 102.649975 
L 497.638473 102.840551 
L 498.292183 102.817621 
L 498.648753 102.790934 
L 498.827038 103.07905 
L 499.42132 104.136529 
L 499.956174 104.68169 
L 500.491028 104.936845 
L 501.08531 104.966765 
L 501.798449 104.751985 
L 502.749301 104.193978 
L 504.235006 103.01992 
L 507.503559 100.355874 
L 507.622416 100.390037 
L 508.989265 102.012388 
L 509.583547 102.222734 
L 510.237258 102.227126 
L 510.534399 102.231924 
L 510.712684 102.531793 
L 511.306966 103.627138 
L 511.84182 104.204599 
L 512.376674 104.490353 
L 512.970956 104.552292 
L 513.684095 104.373252 
L 514.575518 103.897144 
L 516.001796 102.838965 
L 516.477222 102.595577 
L 516.714935 103.049981 
L 517.309217 104.125645 
L 517.844071 104.682829 
L 518.378925 104.946875 
L 518.973207 104.983832 
L 519.686346 104.774531 
L 520.57777 104.261329 
L 522.004047 103.147674 
L 525.569741 100.270685 
L 526.223452 100.180046 
L 527.412016 99.786788 
L 529.610861 98.761854 
L 532.879413 97.293455 
L 534.305691 96.830128 
L 534.483975 97.118174 
L 535.137686 98.332168 
L 535.791397 99.086872 
L 536.445107 99.507954 
L 537.336531 99.973487 
L 538.406239 102.54247 
L 539.000521 103.260853 
L 539.594803 103.619069 
L 540.070229 103.854433 
L 540.307942 104.552802 
L 541.139937 107.740538 
L 541.674791 108.922107 
L 542.209645 109.589421 
L 542.685071 109.851712 
L 543.160497 109.875151 
L 543.338782 109.895342 
L 543.992492 110.314118 
L 544.467918 110.328868 
L 545.002772 110.125195 
L 545.715911 109.595011 
L 546.726191 108.532819 
L 548.865607 105.85866 
L 551.183308 103.111828 
L 553.025583 101.276618 
L 554.80843 99.81443 
L 556.650705 98.594541 
L 557.363844 98.253839 
L 557.542129 98.518615 
L 557.779842 99.379885 
L 558.136411 101.609723 
L 558.908978 106.900752 
L 559.50326 109.456069 
L 560.038114 110.904967 
L 560.572968 111.742591 
L 561.048394 112.093342 
L 561.464392 112.365919 
L 561.939818 112.485493 
L 562.415244 112.370051 
L 563.009526 111.979952 
L 563.841521 111.122985 
L 564.079234 110.976103 
L 565.20837 111.70885 
L 565.683796 111.604428 
L 566.278078 111.236368 
L 568.655208 109.16437 
L 570.140913 107.356563 
L 573.409466 103.334429 
L 575.251741 101.458188 
L 577.034588 99.961047 
L 578.876863 98.710977 
L 580.778567 97.687546 
L 582.858555 96.81873 
L 584.879114 96.192569 
L 585.116827 96.393984 
L 585.829966 96.945148 
L 586.602533 97.262229 
L 587.493957 97.38477 
L 588.682521 97.302197 
L 590.524796 96.913184 
L 593.733921 96.158289 
L 593.912205 96.464363 
L 594.565916 97.739615 
L 595.219626 98.548756 
L 595.873337 99.018449 
L 596.586476 99.254308 
L 596.824189 99.346145 
L 597.656184 100.225492 
L 598.309894 100.546864 
L 599.023033 100.637528 
L 599.855028 100.512957 
L 601.043593 100.082656 
L 602.529299 99.503143 
L 602.707583 99.884654 
L 603.658435 102.745728 
L 604.252717 103.739598 
L 604.787571 104.24883 
L 605.322426 104.483421 
L 605.916708 104.504047 
L 606.629847 104.291689 
L 607.580698 103.751971 
L 609.125832 102.576049 
L 612.810383 99.721905 
L 614.890371 98.434788 
L 616.970359 97.411873 
L 617.445784 97.273502 
L 617.624069 97.561277 
L 618.396636 99.328114 
L 618.990918 100.158589 
L 619.585201 100.649815 
L 620.238911 100.902515 
L 620.95205 100.933988 
L 621.843473 100.73683 
L 623.091466 100.212271 
L 626.181734 98.727401 
L 626.360019 99.109605 
L 626.716588 100.660972 
L 627.310871 102.908358 
L 627.905153 104.368104 
L 628.440007 105.173507 
L 628.974861 105.614572 
L 629.509715 105.779569 
L 630.103997 105.722815 
L 630.817136 105.41932 
L 631.233134 105.302329 
L 631.411418 105.650145 
L 631.70856 106.904058 
L 632.897124 113.209698 
L 633.431978 114.623251 
L 633.907404 115.325353 
L 634.323402 115.60559 
L 634.739399 115.639148 
L 635.214825 115.440505 
L 635.809107 114.925877 
L 636.641103 113.871341 
L 638.007952 111.7082 
L 641.395361 106.237534 
L 643.11878 103.921218 
L 644.426201 102.468397 
L 645.13934 102.145109 
L 646.684474 101.196051 
L 647.219328 100.898628 
L 647.397612 101.126431 
L 647.991895 102.043487 
L 648.586177 102.564797 
L 649.180459 102.793632 
L 649.83417 102.801277 
L 650.606737 102.583851 
L 651.676445 102.038009 
L 653.697005 100.7013 
L 656.668416 98.798851 
L 658.867261 97.666277 
L 661.125533 96.758442 
L 663.562091 96.022267 
L 664.92894 95.760498 
L 665.107225 96.082252 
L 666.176933 99.047462 
L 666.830643 100.054767 
L 667.424926 100.593295 
L 668.078636 100.883768 
L 668.791775 100.943762 
L 669.683199 100.769043 
L 670.99062 100.374442 
L 671.228333 100.90634 
L 671.822615 102.162022 
L 672.416897 102.923882 
L 673.011179 103.318974 
L 673.605462 103.444564 
L 674.140316 103.52049 
L 674.67517 103.971235 
L 675.269452 104.175261 
L 675.923163 104.136852 
L 676.69573 103.848826 
L 677.765438 103.190339 
L 679.37 101.963319 
L 679.37 101.963319 
" clip-path="url(#pe3856e2799)" style="fill: none; stroke: #ff4500; stroke-width: 1.5; stroke-linecap: square"/>
   </g>
   <g id="patch_3">
    <path d="M 52.94 301.506667 
L 52.94 85.2 
" style="fill: none; stroke: #000000; stroke-width: 0.8; stroke-linejoin: miter; stroke-linecap: square"/>
   </g>
   <g id="patch_4">
    <path d="M 709.2 301.506667 
L 709.2 85.2 
" style="fill: none; stroke: #000000; stroke-width: 0.8; stroke-linejoin: miter; stroke-linecap: square"/>
   </g>
   <g id="patch_5">
    <path d="M 52.94 301.506667 
L 709.2 301.506667 
" style="fill: none; stroke: #000000; stroke-width: 0.8; stroke-linejoin: miter; stroke-linecap: square"/>
   </g>
   <g id="patch_6">
    <path d="M 52.94 85.2 
L 709.2 85.2 
" style="fill: none; stroke: #000000; stroke-width: 0.8; stroke-linejoin: miter; stroke-linecap: square"/>
   </g>
   <g id="text_14">
    <!-- Output Voltage -->
    <g transform="translate(335.814062 79.2) scale(0.12 -0.12)">
     <use xlink:href="#DejaVuSans-4f"/>
     <use xlink:href="#DejaVuSans-75" x="78.710938"/>
     <use xlink:href="#DejaVuSans-74" x="142.089844"/>
     <use xlink:href="#DejaVuSans-70" x="181.298828"/>
     <use xlink:href="#DejaVuSans-75" x="244.775391"/>
     <use xlink:href="#DejaVuSans-74" x="308.154297"/>
     <use xlink:href="#DejaVuSans-20" x="347.363281"/>
     <use xlink:href="#DejaVuSans-56" x="379.150391"/>
     <use xlink:href="#DejaVuSans-6f" x="439.808594"/>
     <use xlink:href="#DejaVuSans-6c" x="500.990234"/>
     <use xlink:href="#DejaVuSans-74" x="528.773438"/>
     <use xlink:href="#DejaVuSans-61" x="567.982422"/>
     <use xlink:href="#DejaVuSans-67" x="629.261719"/>
     <use xlink:href="#DejaVuSans-65" x="692.738281"/>
    </g>
   </g>
  </g>
  <g id="axes_2">
   <g id="patch_7">
    <path d="M 52.94 561.773333 
L 709.2 561.773333 
L 709.2 345.466667 
L 52.94 345.466667 
z
" style="fill: #ffffff"/>
   </g>
   <g id="matplotlib.axis_3">
    <g id="xtick_7">
     <g id="line2d_14">
      <g>
       <use xlink:href="#mbe663b30eb" x="82.77" y="561.773333" style="stroke: #000000; stroke-width: 0.8"/>
      </g>
     </g>
     <g id="text_15">
      <!-- 0.00 -->
      <g transform="translate(71.637188 576.371771) scale(0.1 -0.1)">
       <use xlink:href="#DejaVuSans-30"/>
       <use xlink:href="#DejaVuSans-2e" x="63.623047"/>
       <use xlink:href="#DejaVuSans-30" x="95.410156"/>
       <use xlink:href="#DejaVuSans-30" x="159.033203"/>
      </g>
     </g>
    </g>
    <g id="xtick_8">
     <g id="line2d_15">
      <g>
       <use xlink:href="#mbe663b30eb" x="201.62646" y="561.773333" style="stroke: #000000; stroke-width: 0.8"/>
      </g>
     </g>
     <g id="text_16">
      <!-- 0.02 -->
      <g transform="translate(190.493647 576.371771) scale(0.1 -0.1)">
       <use xlink:href="#DejaVuSans-30"/>
       <use xlink:href="#DejaVuSans-2e" x="63.623047"/>
       <use xlink:href="#DejaVuSans-30" x="95.410156"/>
       <use xlink:href="#DejaVuSans-32" x="159.033203"/>
      </g>
     </g>
    </g>
    <g id="xtick_9">
     <g id="line2d_16">
      <g>
       <use xlink:href="#mbe663b30eb" x="320.48292" y="561.773333" style="stroke: #000000; stroke-width: 0.8"/>
      </g>
     </g>
     <g id="text_17">
      <!-- 0.04 -->
      <g transform="translate(309.350107 576.371771) scale(0.1 -0.1)">
       <use xlink:href="#DejaVuSans-30"/>
       <use xlink:href="#DejaVuSans-2e" x="63.623047"/>
       <use xlink:href="#DejaVuSans-30" x="95.410156"/>
       <use xlink:href="#DejaVuSans-34" x="159.033203"/>
      </g>
     </g>
    </g>
    <g id="xtick_10">
     <g id="line2d_17">
      <g>
       <use xlink:href="#mbe663b30eb" x="439.339379" y="561.773333" style="stroke: #000000; stroke-width: 0.8"/>
      </g>
     </g>
     <g id="text_18">
      <!-- 0.06 -->
      <g transform="translate(428.206567 576.371771) scale(0.1 -0.1)">
       <use xlink:href="#DejaVuSans-30"/>
       <use xlink:href="#DejaVuSans-2e" x="63.623047"/>
       <use xlink:href="#DejaVuSans-30" x="95.410156"/>
       <use xlink:href="#DejaVuSans-36" x="159.033203"/>
      </g>
     </g>
    </g>
    <g id="xtick_11">
     <g id="line2d_18">
      <g>
       <use xlink:href="#mbe663b30eb" x="558.195839" y="561.773333" style="stroke: #000000; stroke-width: 0.8"/>
      </g>
     </g>
     <g id="text_19">
      <!-- 0.08 -->
      <g transform="translate(547.063027 576.371771) scale(0.1 -0.1)">
       <use xlink:href="#DejaVuSans-30"/>
       <use xlink:href="#DejaVuSans-2e" x="63.623047"/>
       <use xlink:href="#DejaVuSans-30" x="95.410156"/>
       <use xlink:href="#DejaVuSans-38" x="159.033203"/>
      </g>
     </g>
    </g>
    <g id="xtick_12">
     <g id="line2d_19">
      <g>
       <use xlink:href="#mbe663b30eb" x="677.052299" y="561.773333" style="stroke: #000000; stroke-width: 0.8"/>
      </g>
     </g>
     <g id="text_20">
      <!-- 0.10 -->
      <g transform="translate(665.919487 576.371771) scale(0.1 -0.1)">
       <use xlink:href="#DejaVuSans-30"/>
       <use xlink:href="#DejaVuSans-2e" x="63.623047"/>
       <use xlink:href="#DejaVuSans-31" x="95.410156"/>
       <use xlink:href="#DejaVuSans-30" x="159.033203"/>
      </g>
     </g>
    </g>
   </g>
   <g id="matplotlib.axis_4">
    <g id="ytick_7">
     <g id="line2d_20">
      <defs>
       <path id="m5afc58cf2d" d="M 0 0 
L -3.5 0 
" style="stroke: #4682b4; stroke-width: 0.8"/>
      </defs>
      <g>
       <use xlink:href="#m5afc58cf2d" x="52.94" y="525.824411" style="fill: #4682b4; stroke: #4682b4; stroke-width: 0.8"/>
      </g>
     </g>
     <g id="text_21">
      <!-- 0.2 -->
      <g style="fill: #4682b4" transform="translate(30.036875 529.62363) scale(0.1 -0.1)">
       <use xlink:href="#DejaVuSans-30"/>
       <use xlink:href="#DejaVuSans-2e" x="63.623047"/>
       <use xlink:href="#DejaVuSans-32" x="95.410156"/>
      </g>
     </g>
    </g>
    <g id="ytick_8">
     <g id="line2d_21">
      <g>
       <use xlink:href="#m5afc58cf2d" x="52.94" y="483.193005" style="fill: #4682b4; stroke: #4682b4; stroke-width: 0.8"/>
      </g>
     </g>
     <g id="text_22">
      <!-- 0.4 -->
      <g style="fill: #4682b4" transform="translate(30.036875 486.992224) scale(0.1 -0.1)">
       <use xlink:href="#DejaVuSans-30"/>
       <use xlink:href="#DejaVuSans-2e" x="63.623047"/>
       <use xlink:href="#DejaVuSans-34" x="95.410156"/>
      </g>
     </g>
    </g>
    <g id="ytick_9">
     <g id="line2d_22">
      <g>
       <use xlink:href="#m5afc58cf2d" x="52.94" y="440.561599" style="fill: #4682b4; stroke: #4682b4; stroke-width: 0.8"/>
      </g>
     </g>
     <g id="text_23">
      <!-- 0.6 -->
      <g style="fill: #4682b4" transform="translate(30.036875 444.360818) scale(0.1 -0.1)">
       <use xlink:href="#DejaVuSans-30"/>
       <use xlink:href="#DejaVuSans-2e" x="63.623047"/>
       <use xlink:href="#DejaVuSans-36" x="95.410156"/>
      </g>
     </g>
    </g>
    <g id="ytick_10">
     <g id="line2d_23">
      <g>
       <use xlink:href="#m5afc58cf2d" x="52.94" y="397.930194" style="fill: #4682b4; stroke: #4682b4; stroke-width: 0.8"/>
      </g>
     </g>
     <g id="text_24">
      <!-- 0.8 -->
      <g style="fill: #4682b4" transform="translate(30.036875 401.729412) scale(0.1 -0.1)">
       <use xlink:href="#DejaVuSans-30"/>
       <use xlink:href="#DejaVuSans-2e" x="63.623047"/>
       <use xlink:href="#DejaVuSans-38" x="95.410156"/>
      </g>
     </g>
    </g>
    <g id="ytick_11">
     <g id="line2d_24">
      <g>
       <use xlink:href="#m5afc58cf2d" x="52.94" y="355.298788" style="fill: #4682b4; stroke: #4682b4; stroke-width: 0.8"/>
      </g>
     </g>
     <g id="text_25">
      <!-- 1.0 -->
      <g style="fill: #4682b4" transform="translate(30.036875 359.098007) scale(0.1 -0.1)">
       <use xlink:href="#DejaVuSans-31"/>
       <use xlink:href="#DejaVuSans-2e" x="63.623047"/>
       <use xlink:href="#DejaVuSans-30" x="95.410156"/>
      </g>
     </g>
    </g>
    <g id="text_26">
     <!-- Duty Cycle -->
     <g style="fill: #4682b4" transform="translate(23.957187 480.812969) rotate(-90) scale(0.1 -0.1)">
      <defs>
       <path id="DejaVuSans-44" d="M 1259 4147 
L 1259 519 
L 2022 519 
Q 2988 519 3436 956 
Q 3884 1394 3884 2338 
Q 3884 3275 3436 3711 
Q 2988 4147 2022 4147 
L 1259 4147 
z
M 628 4666 
L 1925 4666 
Q 3281 4666 3915 4102 
Q 4550 3538 4550 2338 
Q 4550 1131 3912 565 
Q 3275 0 1925 0 
L 628 0 
L 628 4666 
z
" transform="scale(0.015625)"/>
       <path id="DejaVuSans-79" d="M 2059 -325 
Q 1816 -950 1584 -1140 
Q 1353 -1331 966 -1331 
L 506 -1331 
L 506 -850 
L 844 -850 
Q 1081 -850 1212 -737 
Q 1344 -625 1503 -206 
L 1606 56 
L 191 3500 
L 800 3500 
L 1894 763 
L 2988 3500 
L 3597 3500 
L 2059 -325 
z
" transform="scale(0.015625)"/>
       <path id="DejaVuSans-43" d="M 4122 4306 
L 4122 3641 
Q 3803 3938 3442 4084 
Q 3081 4231 2675 4231 
Q 1875 4231 1450 3742 
Q 1025 3253 1025 2328 
Q 1025 1406 1450 917 
Q 1875 428 2675 428 
Q 3081 428 3442 575 
Q 3803 722 4122 1019 
L 4122 359 
Q 3791 134 3420 21 
Q 3050 -91 2638 -91 
Q 1578 -91 968 557 
Q 359 1206 359 2328 
Q 359 3453 968 4101 
Q 1578 4750 2638 4750 
Q 3056 4750 3426 4639 
Q 3797 4528 4122 4306 
z
" transform="scale(0.015625)"/>
       <path id="DejaVuSans-63" d="M 3122 3366 
L 3122 2828 
Q 2878 2963 2633 3030 
Q 2388 3097 2138 3097 
Q 1578 3097 1268 2742 
Q 959 2388 959 1747 
Q 959 1106 1268 751 
Q 1578 397 2138 397 
Q 2388 397 2633 464 
Q 2878 531 3122 666 
L 3122 134 
Q 2881 22 2623 -34 
Q 2366 -91 2075 -91 
Q 1284 -91 818 406 
Q 353 903 353 1747 
Q 353 2603 823 3093 
Q 1294 3584 2113 3584 
Q 2378 3584 2631 3529 
Q 2884 3475 3122 3366 
z
" transform="scale(0.015625)"/>
      </defs>
      <use xlink:href="#DejaVuSans-44"/>
      <use xlink:href="#DejaVuSans-75" x="77.001953"/>
      <use xlink:href="#DejaVuSans-74" x="140.380859"/>
      <use xlink:href="#DejaVuSans-79" x="179.589844"/>
      <use xlink:href="#DejaVuSans-20" x="238.769531"/>
      <use xlink:href="#DejaVuSans-43" x="270.556641"/>
      <use xlink:href="#DejaVuSans-79" x="340.380859"/>
      <use xlink:href="#DejaVuSans-63" x="399.560547"/>
      <use xlink:href="#DejaVuSans-6c" x="454.541016"/>
      <use xlink:href="#DejaVuSans-65" x="482.324219"/>
     </g>
    </g>
   </g>
   <g id="line2d_25">
    <path d="M 82.77 382.298666 
L 85.087701 382.298666 
L 85.206557 437.242684 
L 87.46483 437.242684 
L 87.583687 527.351618 
L 89.841959 527.351618 
L 89.960816 420.845593 
L 92.219089 420.845593 
L 92.337945 430.410891 
L 94.596218 430.410891 
L 94.715074 356.512289 
L 96.973347 356.512289 
L 97.092203 452.017824 
L 99.350476 452.017824 
L 99.469333 432.141272 
L 101.727605 432.141272 
L 101.846462 459.72506 
L 104.104735 459.72506 
L 104.223591 446.344131 
L 106.481864 446.344131 
L 106.60072 450.734389 
L 108.858993 450.734389 
L 108.977849 401.123294 
L 111.236122 401.123294 
L 111.354979 398.643196 
L 113.613251 398.643196 
L 113.732108 370.868401 
L 115.990381 370.868401 
L 116.109237 355.298788 
L 118.36751 355.298788 
L 118.486366 391.280217 
L 120.744639 391.280217 
L 120.863495 358.381011 
L 123.121768 358.381011 
L 123.240625 421.185214 
L 125.498897 421.185214 
L 125.617754 355.298788 
L 127.876026 355.298788 
L 127.994883 493.210631 
L 130.253156 493.210631 
L 130.372012 371.110756 
L 132.630285 371.110756 
L 132.749141 355.298788 
L 137.384543 355.298788 
L 137.5034 476.408057 
L 139.761672 476.408057 
L 139.880529 355.298788 
L 151.647318 355.298788 
L 151.766175 371.707661 
L 154.024448 371.707661 
L 154.143304 376.293824 
L 156.401577 376.293824 
L 156.520433 385.751069 
L 158.778706 385.751069 
L 158.897563 355.298788 
L 161.155835 355.298788 
L 161.274692 496.318209 
L 163.532964 496.318209 
L 163.651821 497.512253 
L 165.910094 497.512253 
L 166.02895 382.376274 
L 168.287223 382.376274 
L 168.406079 361.926057 
L 170.664352 361.926057 
L 170.783208 551.941212 
L 173.041481 551.941212 
L 173.160338 355.298788 
L 175.41861 355.298788 
L 175.537467 364.251523 
L 177.79574 364.251523 
L 177.914596 355.298788 
L 182.549998 355.298788 
L 182.668854 380.342249 
L 184.927127 380.342249 
L 185.045984 355.298788 
L 187.304256 355.298788 
L 187.423113 374.748205 
L 189.681386 374.748205 
L 189.800242 355.298788 
L 192.058515 355.298788 
L 192.177371 400.769019 
L 194.435644 400.769019 
L 194.5545 357.739722 
L 196.812773 357.739722 
L 196.93163 355.298788 
L 199.189902 355.298788 
L 199.308759 396.669868 
L 201.567032 396.669868 
L 201.685888 376.930158 
L 203.944161 376.930158 
L 204.063017 355.298788 
L 206.32129 355.298788 
L 206.440146 370.977617 
L 208.698419 370.977617 
L 208.817276 389.448525 
L 211.075548 389.448525 
L 211.194405 355.298788 
L 213.452678 355.298788 
L 213.571534 365.851926 
L 215.829807 365.851926 
L 215.948663 377.512916 
L 218.206936 377.512916 
L 218.325792 396.547125 
L 220.584065 396.547125 
L 220.702922 475.575042 
L 222.961194 475.575042 
L 223.080051 355.298788 
L 227.715453 355.298788 
L 227.834309 358.136879 
L 230.092582 358.136879 
L 230.211438 369.857937 
L 232.469711 369.857937 
L 232.588568 355.298788 
L 239.601099 355.298788 
L 239.719955 358.975601 
L 241.978228 358.975601 
L 242.097084 355.298788 
L 249.109615 355.298788 
L 249.228472 368.314121 
L 251.486745 368.314121 
L 251.605601 355.298788 
L 253.863874 355.298788 
L 253.98273 362.99589 
L 256.241003 362.99589 
L 256.35986 355.298788 
L 258.618132 355.298788 
L 258.736989 362.376474 
L 260.995261 362.376474 
L 261.114118 355.298788 
L 263.372391 355.298788 
L 263.491247 377.890498 
L 265.74952 377.890498 
L 265.868376 355.298788 
L 268.126649 355.298788 
L 268.245506 371.703938 
L 270.503778 371.703938 
L 270.622635 355.298788 
L 277.635166 355.298788 
L 277.754022 358.659966 
L 280.012295 358.659966 
L 280.131152 363.113883 
L 282.389424 363.113883 
L 282.508281 355.298788 
L 287.143683 355.298788 
L 287.262539 365.34266 
L 289.520812 365.34266 
L 289.639668 355.298788 
L 291.897941 355.298788 
L 292.016797 402.368722 
L 294.27507 402.368722 
L 294.393927 380.798468 
L 296.652199 380.798468 
L 296.771056 365.475512 
L 299.029329 365.475512 
L 299.148185 380.16272 
L 301.406458 380.16272 
L 301.525314 355.298788 
L 325.17775 355.298788 
L 325.296606 368.385259 
L 327.554879 368.385259 
L 327.673735 355.298788 
L 332.309137 355.298788 
L 332.427994 369.035686 
L 334.686267 369.035686 
L 334.805123 365.093254 
L 337.063396 365.093254 
L 337.182252 376.403775 
L 339.440525 376.403775 
L 339.559381 355.298788 
L 344.194783 355.298788 
L 344.31364 395.829255 
L 346.571913 395.829255 
L 346.690769 355.298788 
L 348.949042 355.298788 
L 349.067898 362.398245 
L 351.326171 362.398245 
L 351.445027 390.619043 
L 353.7033 390.619043 
L 353.822157 401.526606 
L 356.080429 401.526606 
L 356.199286 355.298788 
L 370.343205 355.298788 
L 370.462061 400.77004 
L 372.720334 400.77004 
L 372.83919 357.761646 
L 375.097463 357.761646 
L 375.216319 381.403175 
L 377.474592 381.403175 
L 377.593449 373.345468 
L 379.851721 373.345468 
L 379.970578 365.859344 
L 382.22885 365.859344 
L 382.347707 355.298788 
L 386.983109 355.298788 
L 387.101965 362.99915 
L 389.360238 362.99915 
L 389.479095 395.912911 
L 391.737367 395.912911 
L 391.856224 383.327345 
L 394.114496 383.327345 
L 394.233353 355.298788 
L 396.491626 355.298788 
L 396.610482 372.076394 
L 398.868755 372.076394 
L 398.987611 369.574477 
L 401.245884 369.574477 
L 401.364741 398.943822 
L 403.623013 398.943822 
L 403.74187 383.694666 
L 406.000142 383.694666 
L 406.118999 355.298788 
L 408.377272 355.298788 
L 408.496128 358.774686 
L 410.754401 358.774686 
L 410.873257 372.712787 
L 413.13153 372.712787 
L 413.250386 355.353274 
L 420.262918 355.298788 
L 420.381774 378.156437 
L 422.640047 378.156437 
L 422.758903 366.543976 
L 425.017176 366.543976 
L 425.136032 355.298788 
L 436.902822 355.298788 
L 437.021678 361.053009 
L 439.279951 361.053009 
L 439.398808 398.050249 
L 441.65708 398.050249 
L 441.775937 367.446815 
L 444.03421 367.446815 
L 444.153066 394.167774 
L 446.411339 394.167774 
L 446.530195 364.544508 
L 448.788468 364.544508 
L 448.907324 364.216083 
L 451.165597 364.216083 
L 451.284454 355.298788 
L 453.542726 355.298788 
L 453.661583 363.224574 
L 455.919856 363.224574 
L 456.038712 355.298788 
L 463.051243 355.298788 
L 463.1701 506.159115 
L 465.428372 506.159115 
L 465.547229 355.298788 
L 472.55976 355.298788 
L 472.678616 372.062576 
L 474.936889 372.062576 
L 475.055746 370.499774 
L 477.314018 370.499774 
L 477.432875 371.72222 
L 479.691148 371.72222 
L 479.810004 355.298788 
L 484.445406 355.298788 
L 484.564262 386.907846 
L 486.822535 386.907846 
L 486.941392 359.498518 
L 489.199664 359.498518 
L 489.318521 355.298788 
L 493.953923 355.298788 
L 494.072779 372.563526 
L 496.331052 372.563526 
L 496.509337 372.713394 
L 498.708181 372.713394 
L 498.827038 355.298788 
L 505.839569 355.298788 
L 505.958425 374.076653 
L 508.216698 374.076653 
L 508.335554 376.190847 
L 510.593827 376.190847 
L 510.712684 362.36024 
L 512.970956 362.36024 
L 513.089813 355.298788 
L 515.348085 355.298788 
L 515.466942 378.445026 
L 517.725215 378.445026 
L 517.844071 355.298788 
L 522.479473 355.298788 
L 522.59833 360.045647 
L 524.856602 360.045647 
L 524.975459 362.18253 
L 527.233731 362.18253 
L 527.352588 355.298788 
L 529.610861 355.298788 
L 529.729717 357.352512 
L 531.98799 357.352512 
L 532.106846 376.072101 
L 534.365119 376.072101 
L 534.483975 390.578669 
L 536.742248 390.578669 
L 536.861105 377.481629 
L 539.119377 377.481629 
L 539.238234 390.369524 
L 541.496507 390.369524 
L 541.615363 365.01369 
L 543.873636 365.01369 
L 543.992492 355.298788 
L 546.250765 355.298788 
L 546.369621 360.766019 
L 548.627894 360.766019 
L 548.746751 355.298788 
L 555.759282 355.298788 
L 555.878138 427.408626 
L 558.136411 427.408626 
L 558.255267 355.298788 
L 560.51354 355.298788 
L 560.632397 361.068979 
L 562.890669 361.068979 
L 563.009526 374.281424 
L 565.267799 374.281424 
L 565.386655 360.989257 
L 567.644928 360.989257 
L 567.763784 355.298788 
L 570.022057 355.298788 
L 570.140913 375.079566 
L 572.399186 375.079566 
L 572.518043 355.298788 
L 579.530574 355.298788 
L 579.64943 357.063422 
L 581.907703 357.063422 
L 582.026559 377.991189 
L 584.284832 377.991189 
L 584.403689 365.852268 
L 586.661961 365.852268 
L 586.780818 355.298788 
L 591.41622 355.298788 
L 591.535076 375.857046 
L 593.793349 375.857046 
L 593.912205 355.298788 
L 596.170478 355.298788 
L 596.289335 366.017782 
L 598.547607 366.017782 
L 598.666464 359.192979 
L 600.924737 359.192979 
L 601.043593 388.606416 
L 603.301866 388.606416 
L 603.420722 355.298788 
L 605.678995 355.298788 
L 605.797851 357.753096 
L 608.056124 357.753096 
L 608.174981 355.298788 
L 615.187512 355.298788 
L 615.306368 378.505461 
L 617.564641 378.505461 
L 617.683497 355.298788 
L 624.696028 355.298788 
L 624.814885 395.716598 
L 627.073158 395.716598 
L 627.192014 355.298788 
L 629.450287 355.298788 
L 629.569143 459.589099 
L 631.827416 459.589099 
L 631.946273 355.298788 
L 636.581674 355.298788 
L 636.700531 358.736848 
L 638.958804 358.736848 
L 639.07766 355.298788 
L 643.713062 355.298788 
L 643.831919 360.073915 
L 646.090191 360.073915 
L 646.209048 373.891794 
L 648.46732 373.891794 
L 648.586177 355.298788 
L 657.975837 355.298788 
L 658.094694 358.695513 
L 660.352966 358.695513 
L 660.471823 355.298788 
L 662.730096 355.298788 
L 662.848952 381.422549 
L 665.107225 381.422549 
L 665.226081 367.603164 
L 667.484354 367.603164 
L 667.60321 355.826478 
L 669.861483 355.826478 
L 669.98034 378.282256 
L 672.238612 378.282256 
L 672.357469 367.462202 
L 674.615742 367.462202 
L 674.734598 359.223214 
L 676.992871 359.223214 
L 677.111727 377.664378 
L 679.37 377.664378 
L 679.37 377.664378 
" clip-path="url(#padb0a1ae4b)" style="fill: none; stroke: #4682b4; stroke-width: 1.5; stroke-linecap: square"/>
   </g>
   <g id="patch_8">
    <path d="M 52.94 561.773333 
L 52.94 345.466667 
" style="fill: none; stroke: #000000; stroke-width: 0.8; stroke-linejoin: miter; stroke-linecap: square"/>
   </g>
   <g id="patch_9">
    <path d="M 709.2 561.773333 
L 709.2 345.466667 
" style="fill: none; stroke: #000000; stroke-width: 0.8; stroke-linejoin: miter; stroke-linecap: square"/>
   </g>
   <g id="patch_10">
    <path d="M 52.94 561.773333 
L 709.2 561.773333 
" style="fill: none; stroke: #000000; stroke-width: 0.8; stroke-linejoin: miter; stroke-linecap: square"/>
   </g>
   <g id="patch_11">
    <path d="M 52.94 345.466667 
L 709.2 345.466667 
" style="fill: none; stroke: #000000; stroke-width: 0.8; stroke-linejoin: miter; stroke-linecap: square"/>
   </g>
   <g id="text_27">
    <!-- Duty Cycle -->
    <g transform="translate(348.438437 339.466667) scale(0.12 -0.12)">
     <use xlink:href="#DejaVuSans-44"/>
     <use xlink:href="#DejaVuSans-75" x="77.001953"/>
     <use xlink:href="#DejaVuSans-74" x="140.380859"/>
     <use xlink:href="#DejaVuSans-79" x="179.589844"/>
     <use xlink:href="#DejaVuSans-20" x="238.769531"/>
     <use xlink:href="#DejaVuSans-43" x="270.556641"/>
     <use xlink:href="#DejaVuSans-79" x="340.380859"/>
     <use xlink:href="#DejaVuSans-63" x="399.560547"/>
     <use xlink:href="#DejaVuSans-6c" x="454.541016"/>
     <use xlink:href="#DejaVuSans-65" x="482.324219"/>
    </g>
   </g>
  </g>
  <g id="axes_3">
   <g id="patch_12">
    <path d="M 52.94 822.04 
L 709.2 822.04 
L 709.2 605.733333 
L 52.94 605.733333 
z
" style="fill: #ffffff"/>
   </g>
   <g id="matplotlib.axis_5">
    <g id="xtick_13">
     <g id="line2d_26">
      <g>
       <use xlink:href="#mbe663b30eb" x="82.77" y="822.04" style="stroke: #000000; stroke-width: 0.8"/>
      </g>
     </g>
     <g id="text_28">
      <!-- 0.00 -->
      <g transform="translate(71.637188 836.638437) scale(0.1 -0.1)">
       <use xlink:href="#DejaVuSans-30"/>
       <use xlink:href="#DejaVuSans-2e" x="63.623047"/>
       <use xlink:href="#DejaVuSans-30" x="95.410156"/>
       <use xlink:href="#DejaVuSans-30" x="159.033203"/>
      </g>
     </g>
    </g>
    <g id="xtick_14">
     <g id="line2d_27">
      <g>
       <use xlink:href="#mbe663b30eb" x="201.62646" y="822.04" style="stroke: #000000; stroke-width: 0.8"/>
      </g>
     </g>
     <g id="text_29">
      <!-- 0.02 -->
      <g transform="translate(190.493647 836.638437) scale(0.1 -0.1)">
       <use xlink:href="#DejaVuSans-30"/>
       <use xlink:href="#DejaVuSans-2e" x="63.623047"/>
       <use xlink:href="#DejaVuSans-30" x="95.410156"/>
       <use xlink:href="#DejaVuSans-32" x="159.033203"/>
      </g>
     </g>
    </g>
    <g id="xtick_15">
     <g id="line2d_28">
      <g>
       <use xlink:href="#mbe663b30eb" x="320.48292" y="822.04" style="stroke: #000000; stroke-width: 0.8"/>
      </g>
     </g>
     <g id="text_30">
      <!-- 0.04 -->
      <g transform="translate(309.350107 836.638437) scale(0.1 -0.1)">
       <use xlink:href="#DejaVuSans-30"/>
       <use xlink:href="#DejaVuSans-2e" x="63.623047"/>
       <use xlink:href="#DejaVuSans-30" x="95.410156"/>
       <use xlink:href="#DejaVuSans-34" x="159.033203"/>
      </g>
     </g>
    </g>
    <g id="xtick_16">
     <g id="line2d_29">
      <g>
       <use xlink:href="#mbe663b30eb" x="439.339379" y="822.04" style="stroke: #000000; stroke-width: 0.8"/>
      </g>
     </g>
     <g id="text_31">
      <!-- 0.06 -->
      <g transform="translate(428.206567 836.638437) scale(0.1 -0.1)">
       <use xlink:href="#DejaVuSans-30"/>
       <use xlink:href="#DejaVuSans-2e" x="63.623047"/>
       <use xlink:href="#DejaVuSans-30" x="95.410156"/>
       <use xlink:href="#DejaVuSans-36" x="159.033203"/>
      </g>
     </g>
    </g>
    <g id="xtick_17">
     <g id="line2d_30">
      <g>
       <use xlink:href="#mbe663b30eb" x="558.195839" y="822.04" style="stroke: #000000; stroke-width: 0.8"/>
      </g>
     </g>
     <g id="text_32">
      <!-- 0.08 -->
      <g transform="translate(547.063027 836.638437) scale(0.1 -0.1)">
       <use xlink:href="#DejaVuSans-30"/>
       <use xlink:href="#DejaVuSans-2e" x="63.623047"/>
       <use xlink:href="#DejaVuSans-30" x="95.410156"/>
       <use xlink:href="#DejaVuSans-38" x="159.033203"/>
      </g>
     </g>
    </g>
    <g id="xtick_18">
     <g id="line2d_31">
      <g>
       <use xlink:href="#mbe663b30eb" x="677.052299" y="822.04" style="stroke: #000000; stroke-width: 0.8"/>
      </g>
     </g>
     <g id="text_33">
      <!-- 0.10 -->
      <g transform="translate(665.919487 836.638437) scale(0.1 -0.1)">
       <use xlink:href="#DejaVuSans-30"/>
       <use xlink:href="#DejaVuSans-2e" x="63.623047"/>
       <use xlink:href="#DejaVuSans-31" x="95.410156"/>
       <use xlink:href="#DejaVuSans-30" x="159.033203"/>
      </g>
     </g>
    </g>
    <g id="text_34">
     <!-- Time -->
     <g transform="translate(368.836406 850.316562) scale(0.1 -0.1)">
      <defs>
       <path id="DejaVuSans-54" d="M -19 4666 
L 3928 4666 
L 3928 4134 
L 2272 4134 
L 2272 0 
L 1638 0 
L 1638 4134 
L -19 4134 
L -19 4666 
z
" transform="scale(0.015625)"/>
       <path id="DejaVuSans-69" d="M 603 3500 
L 1178 3500 
L 1178 0 
L 603 0 
L 603 3500 
z
M 603 4863 
L 1178 4863 
L 1178 4134 
L 603 4134 
L 603 4863 
z
" transform="scale(0.015625)"/>
       <path id="DejaVuSans-6d" d="M 3328 2828 
Q 3544 3216 3844 3400 
Q 4144 3584 4550 3584 
Q 5097 3584 5394 3201 
Q 5691 2819 5691 2113 
L 5691 0 
L 5113 0 
L 5113 2094 
Q 5113 2597 4934 2840 
Q 4756 3084 4391 3084 
Q 3944 3084 3684 2787 
Q 3425 2491 3425 1978 
L 3425 0 
L 2847 0 
L 2847 2094 
Q 2847 2600 2669 2842 
Q 2491 3084 2119 3084 
Q 1678 3084 1418 2786 
Q 1159 2488 1159 1978 
L 1159 0 
L 581 0 
L 581 3500 
L 1159 3500 
L 1159 2956 
Q 1356 3278 1631 3431 
Q 1906 3584 2284 3584 
Q 2666 3584 2933 3390 
Q 3200 3197 3328 2828 
z
" transform="scale(0.015625)"/>
      </defs>
      <use xlink:href="#DejaVuSans-54"/>
      <use xlink:href="#DejaVuSans-69" x="57.958984"/>
      <use xlink:href="#DejaVuSans-6d" x="85.742188"/>
      <use xlink:href="#DejaVuSans-65" x="183.154297"/>
     </g>
    </g>
   </g>
   <g id="matplotlib.axis_6">
    <g id="ytick_12">
     <g id="line2d_32">
      <defs>
       <path id="m8c0f52d094" d="M 0 0 
L -3.5 0 
" style="stroke: #008000; stroke-width: 0.8"/>
      </defs>
      <g>
       <use xlink:href="#m8c0f52d094" x="52.94" y="812.223687" style="fill: #008000; stroke: #008000; stroke-width: 0.8"/>
      </g>
     </g>
     <g id="text_35">
      <!-- 60 -->
      <g style="fill: #008000" transform="translate(24.835313 816.022906) scale(0.1 -0.1)">
       <defs>
        <path id="DejaVuSans-2212" d="M 678 2272 
L 4684 2272 
L 4684 1741 
L 678 1741 
L 678 2272 
z
" transform="scale(0.015625)"/>
       </defs>
       <use xlink:href="#DejaVuSans-2212"/>
       <use xlink:href="#DejaVuSans-36" x="83.789062"/>
       <use xlink:href="#DejaVuSans-30" x="147.412109"/>
      </g>
     </g>
    </g>
    <g id="ytick_13">
     <g id="line2d_33">
      <g>
       <use xlink:href="#m8c0f52d094" x="52.94" y="779.405087" style="fill: #008000; stroke: #008000; stroke-width: 0.8"/>
      </g>
     </g>
     <g id="text_36">
      <!-- 50 -->
      <g style="fill: #008000" transform="translate(24.835313 783.204306) scale(0.1 -0.1)">
       <defs>
        <path id="DejaVuSans-35" d="M 691 4666 
L 3169 4666 
L 3169 4134 
L 1269 4134 
L 1269 2991 
Q 1406 3038 1543 3061 
Q 1681 3084 1819 3084 
Q 2600 3084 3056 2656 
Q 3513 2228 3513 1497 
Q 3513 744 3044 326 
Q 2575 -91 1722 -91 
Q 1428 -91 1123 -41 
Q 819 9 494 109 
L 494 744 
Q 775 591 1075 516 
Q 1375 441 1709 441 
Q 2250 441 2565 725 
Q 2881 1009 2881 1497 
Q 2881 1984 2565 2268 
Q 2250 2553 1709 2553 
Q 1456 2553 1204 2497 
Q 953 2441 691 2322 
L 691 4666 
z
" transform="scale(0.015625)"/>
       </defs>
       <use xlink:href="#DejaVuSans-2212"/>
       <use xlink:href="#DejaVuSans-35" x="83.789062"/>
       <use xlink:href="#DejaVuSans-30" x="147.412109"/>
      </g>
     </g>
    </g>
    <g id="ytick_14">
     <g id="line2d_34">
      <g>
       <use xlink:href="#m8c0f52d094" x="52.94" y="746.586487" style="fill: #008000; stroke: #008000; stroke-width: 0.8"/>
      </g>
     </g>
     <g id="text_37">
      <!-- 40 -->
      <g style="fill: #008000" transform="translate(24.835313 750.385705) scale(0.1 -0.1)">
       <use xlink:href="#DejaVuSans-2212"/>
       <use xlink:href="#DejaVuSans-34" x="83.789062"/>
       <use xlink:href="#DejaVuSans-30" x="147.412109"/>
      </g>
     </g>
    </g>
    <g id="ytick_15">
     <g id="line2d_35">
      <g>
       <use xlink:href="#m8c0f52d094" x="52.94" y="713.767886" style="fill: #008000; stroke: #008000; stroke-width: 0.8"/>
      </g>
     </g>
     <g id="text_38">
      <!-- 30 -->
      <g style="fill: #008000" transform="translate(24.835313 717.567105) scale(0.1 -0.1)">
       <defs>
        <path id="DejaVuSans-33" d="M 2597 2516 
Q 3050 2419 3304 2112 
Q 3559 1806 3559 1356 
Q 3559 666 3084 287 
Q 2609 -91 1734 -91 
Q 1441 -91 1130 -33 
Q 819 25 488 141 
L 488 750 
Q 750 597 1062 519 
Q 1375 441 1716 441 
Q 2309 441 2620 675 
Q 2931 909 2931 1356 
Q 2931 1769 2642 2001 
Q 2353 2234 1838 2234 
L 1294 2234 
L 1294 2753 
L 1863 2753 
Q 2328 2753 2575 2939 
Q 2822 3125 2822 3475 
Q 2822 3834 2567 4026 
Q 2313 4219 1838 4219 
Q 1578 4219 1281 4162 
Q 984 4106 628 3988 
L 628 4550 
Q 988 4650 1302 4700 
Q 1616 4750 1894 4750 
Q 2613 4750 3031 4423 
Q 3450 4097 3450 3541 
Q 3450 3153 3228 2886 
Q 3006 2619 2597 2516 
z
" transform="scale(0.015625)"/>
       </defs>
       <use xlink:href="#DejaVuSans-2212"/>
       <use xlink:href="#DejaVuSans-33" x="83.789062"/>
       <use xlink:href="#DejaVuSans-30" x="147.412109"/>
      </g>
     </g>
    </g>
    <g id="ytick_16">
     <g id="line2d_36">
      <g>
       <use xlink:href="#m8c0f52d094" x="52.94" y="680.949286" style="fill: #008000; stroke: #008000; stroke-width: 0.8"/>
      </g>
     </g>
     <g id="text_39">
      <!-- 20 -->
      <g style="fill: #008000" transform="translate(24.835313 684.748505) scale(0.1 -0.1)">
       <use xlink:href="#DejaVuSans-2212"/>
       <use xlink:href="#DejaVuSans-32" x="83.789062"/>
       <use xlink:href="#DejaVuSans-30" x="147.412109"/>
      </g>
     </g>
    </g>
    <g id="ytick_17">
     <g id="line2d_37">
      <g>
       <use xlink:href="#m8c0f52d094" x="52.94" y="648.130686" style="fill: #008000; stroke: #008000; stroke-width: 0.8"/>
      </g>
     </g>
     <g id="text_40">
      <!-- 10 -->
      <g style="fill: #008000" transform="translate(24.835313 651.929904) scale(0.1 -0.1)">
       <use xlink:href="#DejaVuSans-2212"/>
       <use xlink:href="#DejaVuSans-31" x="83.789062"/>
       <use xlink:href="#DejaVuSans-30" x="147.412109"/>
      </g>
     </g>
    </g>
    <g id="ytick_18">
     <g id="line2d_38">
      <g>
       <use xlink:href="#m8c0f52d094" x="52.94" y="615.312085" style="fill: #008000; stroke: #008000; stroke-width: 0.8"/>
      </g>
     </g>
     <g id="text_41">
      <!-- 0 -->
      <g style="fill: #008000" transform="translate(39.5775 619.111304) scale(0.1 -0.1)">
       <use xlink:href="#DejaVuSans-30"/>
      </g>
     </g>
    </g>
    <g id="text_42">
     <!-- Cost -->
     <g style="fill: #008000" transform="translate(18.755625 725.002292) rotate(-90) scale(0.1 -0.1)">
      <defs>
       <path id="DejaVuSans-73" d="M 2834 3397 
L 2834 2853 
Q 2591 2978 2328 3040 
Q 2066 3103 1784 3103 
Q 1356 3103 1142 2972 
Q 928 2841 928 2578 
Q 928 2378 1081 2264 
Q 1234 2150 1697 2047 
L 1894 2003 
Q 2506 1872 2764 1633 
Q 3022 1394 3022 966 
Q 3022 478 2636 193 
Q 2250 -91 1575 -91 
Q 1294 -91 989 -36 
Q 684 19 347 128 
L 347 722 
Q 666 556 975 473 
Q 1284 391 1588 391 
Q 1994 391 2212 530 
Q 2431 669 2431 922 
Q 2431 1156 2273 1281 
Q 2116 1406 1581 1522 
L 1381 1569 
Q 847 1681 609 1914 
Q 372 2147 372 2553 
Q 372 3047 722 3315 
Q 1072 3584 1716 3584 
Q 2034 3584 2315 3537 
Q 2597 3491 2834 3397 
z
" transform="scale(0.015625)"/>
      </defs>
      <use xlink:href="#DejaVuSans-43"/>
      <use xlink:href="#DejaVuSans-6f" x="69.824219"/>
      <use xlink:href="#DejaVuSans-73" x="131.005859"/>
      <use xlink:href="#DejaVuSans-74" x="183.105469"/>
     </g>
    </g>
   </g>
   <g id="line2d_39">
    <path d="M 82.77 812.207879 
L 82.888856 799.738001 
L 83.067141 798.8121 
L 83.364282 795.472208 
L 83.78028 787.730288 
L 84.43399 770.612252 
L 85.979124 728.156974 
L 87.108261 701.969918 
L 87.999684 682.919344 
L 88.47511 677.515652 
L 89.782531 667.877581 
L 90.436242 664.438092 
L 91.446522 657.614323 
L 91.803091 656.970779 
L 92.040804 656.330533 
L 92.397373 654.64278 
L 92.932227 650.9141 
L 94.299077 640.799435 
L 94.596218 640.207724 
L 94.952787 639.791315 
L 95.309357 638.778879 
L 95.844211 636.39365 
L 96.85449 630.520647 
L 97.448773 627.592594 
L 99.23162 622.431428 
L 99.707046 621.094064 
L 100.063615 620.677986 
L 100.360756 620.689681 
L 100.717325 621.02725 
L 101.073895 621.20595 
L 101.371036 621.120871 
L 101.787034 620.717723 
L 102.619029 619.782706 
L 102.91617 619.903234 
L 103.272739 620.362315 
L 104.283019 622.044019 
L 104.58016 622.047773 
L 104.93673 621.780749 
L 105.768725 620.924059 
L 106.065866 621.093293 
L 106.422436 621.635907 
L 107.016718 622.673034 
L 107.313859 622.796308 
L 107.611 622.677494 
L 107.967569 622.275313 
L 108.62128 621.472344 
L 108.858993 621.526451 
L 109.156134 621.845773 
L 109.572132 622.709601 
L 109.988129 623.408066 
L 110.28527 623.546249 
L 110.582412 623.425759 
L 110.938981 623.003135 
L 111.473835 621.968078 
L 112.30583 620.305976 
L 113.375538 619.524153 
L 114.266962 618.102443 
L 115.33667 616.489221 
L 115.930952 616.024176 
L 116.703519 615.63338 
L 117.178945 615.579337 
L 117.416658 615.652295 
L 118.01094 615.887075 
L 118.605223 616.369288 
L 119.318361 617.251406 
L 120.209785 618.751256 
L 121.338921 621.1251 
L 123.121768 625.470237 
L 123.775479 626.830783 
L 123.953763 626.800592 
L 124.191476 626.444221 
L 125.261184 624.198771 
L 125.677182 623.917895 
L 126.09318 623.872051 
L 126.568605 624.043331 
L 127.162888 624.517908 
L 127.935455 625.462512 
L 128.708022 626.379465 
L 128.886306 626.219736 
L 129.183448 625.556184 
L 129.658873 623.745527 
L 130.906866 618.555682 
L 131.382292 617.771734 
L 131.857718 617.400802 
L 132.392572 617.281142 
L 132.986854 617.395498 
L 133.640565 617.755889 
L 134.413132 618.464168 
L 135.245127 619.544409 
L 136.255407 621.245315 
L 137.978826 624.334398 
L 138.216538 624.109451 
L 138.51368 623.450586 
L 139.048534 621.562415 
L 139.702244 619.301646 
L 140.17767 618.482316 
L 140.653096 618.088982 
L 141.128522 617.967728 
L 141.663376 618.058737 
L 142.317086 618.423016 
L 143.030225 619.0897 
L 143.86222 620.180837 
L 144.8725 621.891781 
L 146.179921 624.573093 
L 148.497622 629.940336 
L 151.290749 636.239944 
L 153.192452 639.976711 
L 154.083876 641.384349 
L 154.797015 641.311775 
L 155.450725 641.538067 
L 156.28272 642.098648 
L 156.817574 642.409113 
L 156.995859 642.076584 
L 157.827854 639.837995 
L 158.362708 639.112631 
L 158.838134 638.806658 
L 159.31356 638.740665 
L 159.848414 638.883846 
L 160.561553 639.334209 
L 161.393548 639.961165 
L 161.571833 639.673878 
L 161.868974 638.547419 
L 162.284972 635.927132 
L 163.889534 624.590936 
L 164.840385 620.871959 
L 165.731809 617.375283 
L 166.207235 616.308966 
L 166.563804 616.033011 
L 166.979802 615.982837 
L 167.158086 616.039248 
L 169.05979 616.019321 
L 169.891785 616.09024 
L 170.664352 616.332982 
L 171.139778 616.481743 
L 171.615204 616.3841 
L 172.74434 616.021014 
L 173.338622 616.284145 
L 174.289474 616.696077 
L 174.883756 616.6765 
L 175.77518 616.374169 
L 176.78546 616.078883 
L 177.260886 616.137167 
L 177.974024 616.358934 
L 178.687163 616.781267 
L 179.400302 617.464913 
L 180.232297 618.595178 
L 181.242577 620.392331 
L 182.549998 623.227351 
L 183.797991 625.955464 
L 184.451701 626.366736 
L 185.16484 627.146354 
L 186.115692 628.562919 
L 187.482541 631.055386 
L 189.740814 635.337345 
L 190.335096 635.298563 
L 190.86995 635.522645 
L 191.583089 636.09875 
L 192.355656 636.71451 
L 192.533941 636.397807 
L 192.949938 634.927147 
L 193.484792 633.528328 
L 193.960218 632.83348 
L 194.435644 632.516208 
L 194.91107 632.483714 
L 195.445924 632.704511 
L 196.099634 633.247729 
L 196.991058 634.320665 
L 198.298479 636.292346 
L 201.329319 641.011506 
L 201.507603 640.698518 
L 202.63674 637.671778 
L 203.112166 637.143793 
L 203.587591 636.924932 
L 204.063017 636.941587 
L 204.6573 637.210698 
L 205.370438 637.794814 
L 206.380718 638.933353 
L 207.628711 640.3392 
L 208.104137 640.178368 
L 208.638991 640.23252 
L 209.292701 640.545391 
L 210.302981 641.104306 
L 210.540694 640.482393 
L 211.134977 638.631768 
L 211.669831 637.673029 
L 212.145256 637.230213 
L 212.620682 637.075436 
L 213.155536 637.161337 
L 213.749819 637.496272 
L 214.581814 638.258294 
L 215.770379 639.699132 
L 216.364661 640.35242 
L 216.542946 640.133576 
L 217.0778 639.418985 
L 217.553225 639.122163 
L 218.028651 639.064535 
L 218.563505 639.216213 
L 219.098359 639.393682 
L 219.276644 639.0644 
L 219.692642 637.500699 
L 220.227496 635.980009 
L 220.702922 635.191581 
L 220.940635 634.819779 
L 221.237776 633.796569 
L 221.713202 631.123653 
L 223.139479 622.304427 
L 223.614905 621.092091 
L 224.090331 620.447573 
L 224.565757 620.174067 
L 225.041182 620.160085 
L 225.576036 620.376885 
L 226.229747 620.906463 
L 227.002314 621.838384 
L 227.953166 623.35184 
L 229.201158 625.788059 
L 231.637716 630.710933 
L 232.410283 631.593076 
L 233.479991 633.193571 
L 235.322266 636.434661 
L 238.531391 642.050863 
L 240.433094 644.902392 
L 242.156513 647.099604 
L 243.879931 648.942219 
L 245.60335 650.466243 
L 247.386197 651.753806 
L 249.2879 652.856485 
L 251.367888 653.803109 
L 253.685589 654.607558 
L 255.171295 654.954045 
L 255.706149 654.683537 
L 256.597572 654.455421 
L 257.726709 654.411037 
L 259.331271 654.59371 
L 261.173546 654.821516 
L 262.005541 654.448179 
L 262.956393 654.283767 
L 263.847817 654.209071 
L 264.026101 653.769522 
L 264.73924 651.520191 
L 265.333522 650.34447 
L 265.927805 649.6219 
L 266.522087 649.227861 
L 267.175797 649.067054 
L 267.948364 649.132317 
L 268.899216 649.455275 
L 269.968924 649.82445 
L 270.682063 648.859493 
L 271.276345 648.445864 
L 271.870628 648.288588 
L 272.583766 648.339178 
L 273.47519 648.645532 
L 274.782611 649.365813 
L 281.20086 653.247349 
L 281.913998 653.517227 
L 282.448852 653.356452 
L 283.340276 653.293706 
L 284.528841 653.444428 
L 286.430544 653.938897 
L 287.797393 654.268851 
L 288.688817 653.352386 
L 289.401955 652.983174 
L 290.174522 652.829474 
L 291.125374 652.868549 
L 292.492223 653.172333 
L 293.205362 653.311291 
L 293.383647 652.922391 
L 293.680788 651.434072 
L 294.453355 646.874888 
L 295.047637 644.767149 
L 295.582491 643.590795 
L 296.117345 642.905315 
L 296.652199 642.303169 
L 297.484195 640.106168 
L 298.019049 639.409895 
L 298.494475 639.129886 
L 298.9699 639.089966 
L 299.564183 639.150326 
L 299.861324 638.540419 
L 300.396178 637.686522 
L 300.871604 637.317166 
L 301.34703 637.222331 
L 301.881884 637.36369 
L 302.535594 637.798397 
L 303.427018 638.705154 
L 304.734439 640.401198 
L 309.72641 647.178739 
L 311.568685 649.174322 
L 313.351532 650.784605 
L 315.193807 652.148016 
L 317.095511 653.280658 
L 319.175499 654.25653 
L 321.433771 655.069152 
L 324.048613 655.76574 
L 326.306886 656.181808 
L 326.425743 656.042549 
L 327.257738 654.496332 
L 327.911448 653.770183 
L 328.624587 653.318385 
L 329.397154 653.105928 
L 330.288578 653.0963 
L 331.477142 653.315639 
L 333.497702 653.950838 
L 335.339977 654.503317 
L 336.231401 653.615604 
L 336.944539 653.264051 
L 337.717106 653.125688 
L 338.192532 653.050423 
L 338.430245 652.459729 
L 339.024527 651.053601 
L 339.61881 650.169496 
L 340.213092 649.662888 
L 340.807374 649.430046 
L 341.520513 649.406992 
L 342.352508 649.618073 
L 343.541073 650.179274 
L 345.858774 651.592808 
L 348.770757 653.287038 
L 350.256463 653.954557 
L 350.791317 653.800212 
L 351.68274 653.74802 
L 352.871305 653.730836 
L 353.109018 652.92189 
L 353.941013 649.161104 
L 354.535295 647.568773 
L 355.129578 646.611455 
L 355.783288 645.783834 
L 356.080429 644.451318 
L 356.793568 640.768447 
L 357.328422 639.136506 
L 357.863276 638.181826 
L 358.338702 637.746983 
L 358.814128 637.602965 
L 359.289554 637.680803 
L 359.883836 638.012156 
L 360.656403 638.718717 
L 361.785539 640.095072 
L 364.10324 643.383848 
L 366.599226 646.763057 
L 368.500929 648.960426 
L 370.283776 650.688496 
L 370.521489 650.81982 
L 370.699774 650.543534 
L 370.937487 649.595721 
L 371.710054 645.874872 
L 372.304336 644.195837 
L 372.83919 643.300827 
L 373.374044 642.82752 
L 373.908898 642.665432 
L 374.443752 642.733864 
L 375.097463 643.044135 
L 375.988886 643.736331 
L 376.761453 644.333109 
L 376.939738 644.017464 
L 377.53402 642.638072 
L 378.068874 641.943624 
L 378.5443 641.649318 
L 379.079154 641.589537 
L 379.91115 641.631997 
L 380.505432 640.738034 
L 380.980858 640.395856 
L 381.456283 640.304405 
L 381.991138 640.428399 
L 382.644848 640.819032 
L 383.536272 641.636223 
L 384.903121 643.234761 
L 388.884812 648.09725 
L 389.479095 648.355621 
L 390.727087 649.140337 
L 391.380798 649.543182 
L 391.559083 649.258237 
L 391.796795 648.318317 
L 392.450506 645.495724 
L 392.98536 644.070944 
L 393.520214 643.212215 
L 394.055068 642.767844 
L 394.589922 642.629303 
L 395.184205 642.738299 
L 395.897343 643.127703 
L 396.848195 643.929444 
L 397.739618 644.691173 
L 398.393329 644.249126 
L 398.928183 644.177448 
L 399.522465 644.322244 
L 400.295032 644.757047 
L 400.651602 644.955586 
L 401.008171 644.582333 
L 401.543025 644.234985 
L 402.077879 644.152859 
L 402.672162 644.289819 
L 403.266444 644.444011 
L 403.444729 644.062406 
L 403.74187 642.772425 
L 404.276724 640.525147 
L 404.811578 639.135402 
L 405.346432 638.354347 
L 405.821858 638.033867 
L 406.297284 637.977079 
L 406.832138 638.151635 
L 407.485848 638.616768 
L 408.377272 639.552364 
L 409.744121 641.357243 
L 412.537248 645.17852 
L 413.785241 644.261369 
L 414.379523 644.301003 
L 415.092662 644.609014 
L 416.043513 645.305104 
L 417.529219 646.723553 
L 421.273198 650.423701 
L 421.392054 650.384244 
L 421.629767 649.841989 
L 422.224049 648.582793 
L 422.818332 647.848643 
L 423.353186 647.513806 
L 423.947468 647.405611 
L 424.54175 647.349472 
L 425.076604 646.881949 
L 425.611458 646.68519 
L 426.205741 646.699496 
L 426.918879 646.946206 
L 427.869731 647.526168 
L 429.414865 648.772714 
L 433.455985 652.127104 
L 435.535973 653.516891 
L 437.615961 654.637827 
L 439.339379 655.3586 
L 439.874233 655.173263 
L 440.765657 655.047667 
L 441.894793 655.12055 
L 442.310791 655.108583 
L 443.142786 654.172233 
L 443.796497 653.781971 
L 444.569064 653.590681 
L 444.866205 653.49659 
L 445.044489 653.058891 
L 445.341631 651.536996 
L 445.935913 648.541979 
L 446.530195 646.636992 
L 447.065049 645.578528 
L 447.599903 644.969324 
L 449.501607 643.632037 
L 450.036461 643.670722 
L 450.690171 643.950465 
L 451.284454 644.22031 
L 451.759879 644.046654 
L 452.294734 644.072075 
L 452.948444 644.33479 
L 453.839868 644.968697 
L 454.374722 645.3082 
L 455.08786 645.620453 
L 456.038712 646.3011 
L 457.583846 647.725589 
L 461.506109 651.419528 
L 463.526669 652.967041 
L 464.120951 653.289015 
L 464.299236 652.965704 
L 464.536949 651.943104 
L 464.952947 648.856526 
L 466.49808 635.507585 
L 467.032935 633.502041 
L 467.50836 632.449041 
L 467.983786 631.8826 
L 468.399784 631.684695 
L 468.87521 631.717874 
L 469.410064 632.009113 
L 470.063774 632.637324 
L 470.955198 633.830826 
L 472.262619 635.998173 
L 475.055746 640.842555 
L 475.531171 640.882352 
L 476.125454 641.157243 
L 476.898021 641.777524 
L 478.027157 642.748642 
L 478.502583 642.505194 
L 479.037437 642.488804 
L 479.631719 642.706642 
L 480.404286 643.24911 
L 481.473994 644.297559 
L 483.553982 646.721773 
L 486.228253 649.737195 
L 486.584822 650.028022 
L 486.703679 649.911968 
L 486.941392 649.197466 
L 487.535674 647.34311 
L 488.070528 646.312184 
L 488.605382 645.718311 
L 489.140236 645.44754 
L 489.67509 645.416486 
L 490.328801 645.614765 
L 491.160796 646.12286 
L 492.34936 647.135449 
L 495.73677 650.278441 
L 496.984762 648.661407 
L 497.579045 648.432261 
L 498.232755 648.44387 
L 498.648753 648.484825 
L 498.827038 648.161149 
L 499.361892 647.112431 
L 499.896746 646.498387 
L 500.4316 646.205294 
L 500.966454 646.150523 
L 501.620164 646.318625 
L 502.45216 646.787304 
L 503.640724 647.743259 
L 507.622416 651.255511 
L 508.870408 649.510223 
L 509.464691 649.229803 
L 510.118401 649.190381 
L 510.534399 649.200557 
L 510.712684 648.860634 
L 511.247538 647.764033 
L 511.782392 647.109111 
L 512.317246 646.780466 
L 512.8521 646.694235 
L 513.50581 646.828146 
L 514.337806 647.258419 
L 515.52637 648.166738 
L 516.477222 648.846776 
L 516.714935 648.339806 
L 517.309217 647.184869 
L 517.844071 646.598564 
L 518.378925 646.326233 
L 518.973207 646.294312 
L 519.626918 646.495396 
L 520.518341 647.034337 
L 521.825763 648.129847 
L 525.688597 651.55015 
L 526.580021 651.767976 
L 527.828014 652.331166 
L 530.680569 653.957157 
L 533.354839 655.349139 
L 534.305691 655.693536 
L 534.483975 655.33469 
L 535.078258 653.989498 
L 535.67254 653.127534 
L 536.266822 652.615892 
L 536.920533 652.344769 
L 537.217674 652.22259 
L 537.395959 651.785903 
L 538.049669 649.802597 
L 538.643952 648.71299 
L 539.178806 648.151651 
L 539.71366 647.881847 
L 540.010801 647.759621 
L 540.189086 647.358147 
L 540.605083 645.505282 
L 541.139937 643.631764 
L 541.674791 642.476478 
L 542.209645 641.839667 
L 542.685071 641.59537 
L 543.160497 641.579338 
L 543.338782 641.558529 
L 543.933064 641.182356 
L 544.40849 641.149316 
L 544.943344 641.327335 
L 545.656483 641.821574 
L 546.607334 642.779089 
L 548.152468 644.69615 
L 551.837019 649.339917 
L 553.738722 651.340912 
L 555.580997 652.959072 
L 557.244988 654.168448 
L 557.423272 654.106753 
L 557.601557 653.648515 
L 557.898698 652.086755 
L 559.324976 642.723378 
L 559.85983 641.111834 
L 560.394684 640.168354 
L 560.87011 639.73841 
L 561.880389 639.309673 
L 562.415244 639.420391 
L 563.009526 639.781892 
L 563.841521 640.580124 
L 564.079234 640.711828 
L 565.089514 640.048343 
L 565.56494 640.103645 
L 566.159222 640.407233 
L 566.931789 641.077915 
L 567.347787 641.368071 
L 568.060925 641.892212 
L 569.071205 642.947487 
L 570.794624 645.139891 
L 574.063177 649.294796 
L 575.96488 651.334687 
L 577.807155 652.987479 
L 579.64943 654.343409 
L 581.551134 655.472699 
L 583.631122 656.447147 
L 584.938543 656.864497 
L 585.829966 655.978802 
L 586.543105 655.620888 
L 587.3751 655.466978 
L 588.38538 655.522883 
L 589.811658 655.846689 
L 593.43678 656.999071 
L 593.733921 657.0097 
L 593.912205 656.624804 
L 594.506488 655.197296 
L 595.10077 654.266719 
L 595.695052 653.696791 
L 596.348763 653.370636 
L 596.883617 653.113903 
L 597.477899 652.347983 
L 598.072181 651.924418 
L 598.725892 651.741786 
L 599.439031 651.779743 
L 600.330454 652.055112 
L 601.637875 652.71318 
L 602.469871 653.12917 
L 602.648155 652.807429 
L 604.015004 648.681696 
L 604.549859 647.979322 
L 605.084713 647.615005 
L 605.619567 647.501824 
L 606.273277 647.611536 
L 607.045844 647.984235 
L 608.115552 648.763795 
L 610.136112 650.569594 
L 612.988667 653.047772 
L 615.068655 654.55141 
L 617.089215 655.738894 
L 617.445784 655.843543 
L 617.624069 655.486583 
L 618.337208 653.520384 
L 618.93149 652.517112 
L 619.525772 651.926541 
L 620.120055 651.635057 
L 620.773765 651.562118 
L 621.546332 651.706773 
L 622.61604 652.162597 
L 624.339459 653.184542 
L 626.122306 654.236472 
L 626.300591 653.91017 
L 626.597732 652.557318 
L 627.192014 649.821718 
L 627.786296 648.092418 
L 628.321151 647.144121 
L 628.856005 646.613471 
L 629.390859 646.391745 
L 629.985141 646.411425 
L 630.638851 646.664885 
L 631.233134 646.885015 
L 631.411418 646.513046 
L 631.70856 645.211342 
L 632.778268 639.604421 
L 633.313122 638.222578 
L 633.788548 637.53092 
L 634.263974 637.210085 
L 634.739399 637.169456 
L 635.274253 637.37698 
L 635.927964 637.899068 
L 636.819387 638.935633 
L 638.126808 640.840853 
L 643.237636 648.618507 
L 644.426201 650.053586 
L 645.020483 650.347666 
L 646.327904 651.227397 
L 647.219328 651.833966 
L 647.397612 651.567194 
L 647.991895 650.544754 
L 648.526749 650.015283 
L 649.121031 649.742476 
L 649.715313 649.712039 
L 650.428452 649.900248 
L 651.379304 650.397873 
L 652.865009 651.462664 
L 657.322127 654.784863 
L 659.461543 656.037999 
L 661.600959 657.037085 
L 663.91866 657.874282 
L 664.92894 658.091806 
L 665.107225 657.683988 
L 666.058077 654.403329 
L 666.652359 653.216275 
L 667.246641 652.492832 
L 667.840923 652.105049 
L 668.494634 651.956716 
L 669.207773 652.027428 
L 670.158624 652.36545 
L 670.931191 652.688933 
L 671.109476 652.366908 
L 671.763187 650.718962 
L 672.357469 649.837767 
L 672.892323 649.409432 
L 673.486605 649.228538 
L 674.199744 649.068285 
L 674.734598 648.623845 
L 675.269452 648.447024 
L 675.863734 648.481449 
L 676.576873 648.750102 
L 677.587153 649.400752 
L 679.191715 650.745998 
L 679.37 650.904952 
L 679.37 650.904952 
" clip-path="url(#pef61166810)" style="fill: none; stroke: #008000; stroke-width: 1.5; stroke-linecap: square"/>
   </g>
   <g id="patch_13">
    <path d="M 52.94 822.04 
L 52.94 605.733333 
" style="fill: none; stroke: #000000; stroke-width: 0.8; stroke-linejoin: miter; stroke-linecap: square"/>
   </g>
   <g id="patch_14">
    <path d="M 709.2 822.04 
L 709.2 605.733333 
" style="fill: none; stroke: #000000; stroke-width: 0.8; stroke-linejoin: miter; stroke-linecap: square"/>
   </g>
   <g id="patch_15">
    <path d="M 52.94 822.04 
L 709.2 822.04 
" style="fill: none; stroke: #000000; stroke-width: 0.8; stroke-linejoin: miter; stroke-linecap: square"/>
   </g>
   <g id="patch_16">
    <path d="M 52.94 605.733333 
L 709.2 605.733333 
" style="fill: none; stroke: #000000; stroke-width: 0.8; stroke-linejoin: miter; stroke-linecap: square"/>
   </g>
   <g id="text_43">
    <!-- Cost Over Time -->
    <g transform="translate(334.804375 599.733333) scale(0.12 -0.12)">
     <defs>
      <path id="DejaVuSans-76" d="M 191 3500 
L 800 3500 
L 1894 563 
L 2988 3500 
L 3597 3500 
L 2284 0 
L 1503 0 
L 191 3500 
z
" transform="scale(0.015625)"/>
      <path id="DejaVuSans-72" d="M 2631 2963 
Q 2534 3019 2420 3045 
Q 2306 3072 2169 3072 
Q 1681 3072 1420 2755 
Q 1159 2438 1159 1844 
L 1159 0 
L 581 0 
L 581 3500 
L 1159 3500 
L 1159 2956 
Q 1341 3275 1631 3429 
Q 1922 3584 2338 3584 
Q 2397 3584 2469 3576 
Q 2541 3569 2628 3553 
L 2631 2963 
z
" transform="scale(0.015625)"/>
     </defs>
     <use xlink:href="#DejaVuSans-43"/>
     <use xlink:href="#DejaVuSans-6f" x="69.824219"/>
     <use xlink:href="#DejaVuSans-73" x="131.005859"/>
     <use xlink:href="#DejaVuSans-74" x="183.105469"/>
     <use xlink:href="#DejaVuSans-20" x="222.314453"/>
     <use xlink:href="#DejaVuSans-4f" x="254.101562"/>
     <use xlink:href="#DejaVuSans-76" x="332.8125"/>
     <use xlink:href="#DejaVuSans-65" x="391.992188"/>
     <use xlink:href="#DejaVuSans-72" x="453.515625"/>
     <use xlink:href="#DejaVuSans-20" x="494.628906"/>
     <use xlink:href="#DejaVuSans-54" x="526.416016"/>
     <use xlink:href="#DejaVuSans-69" x="584.375"/>
     <use xlink:href="#DejaVuSans-6d" x="612.158203"/>
     <use xlink:href="#DejaVuSans-65" x="709.570312"/>
    </g>
   </g>
  </g>
  <g id="text_44">
   <!-- Episode 7 - Total Reward: -2211.45 -->
   <g transform="translate(255.563438 26.398125) scale(0.12 -0.12)">
    <defs>
     <path id="DejaVuSans-45" d="M 628 4666 
L 3578 4666 
L 3578 4134 
L 1259 4134 
L 1259 2753 
L 3481 2753 
L 3481 2222 
L 1259 2222 
L 1259 531 
L 3634 531 
L 3634 0 
L 628 0 
L 628 4666 
z
" transform="scale(0.015625)"/>
     <path id="DejaVuSans-64" d="M 2906 2969 
L 2906 4863 
L 3481 4863 
L 3481 0 
L 2906 0 
L 2906 525 
Q 2725 213 2448 61 
Q 2172 -91 1784 -91 
Q 1150 -91 751 415 
Q 353 922 353 1747 
Q 353 2572 751 3078 
Q 1150 3584 1784 3584 
Q 2172 3584 2448 3432 
Q 2725 3281 2906 2969 
z
M 947 1747 
Q 947 1113 1208 752 
Q 1469 391 1925 391 
Q 2381 391 2643 752 
Q 2906 1113 2906 1747 
Q 2906 2381 2643 2742 
Q 2381 3103 1925 3103 
Q 1469 3103 1208 2742 
Q 947 2381 947 1747 
z
" transform="scale(0.015625)"/>
     <path id="DejaVuSans-37" d="M 525 4666 
L 3525 4666 
L 3525 4397 
L 1831 0 
L 1172 0 
L 2766 4134 
L 525 4134 
L 525 4666 
z
" transform="scale(0.015625)"/>
     <path id="DejaVuSans-2d" d="M 313 2009 
L 1997 2009 
L 1997 1497 
L 313 1497 
L 313 2009 
z
" transform="scale(0.015625)"/>
     <path id="DejaVuSans-52" d="M 2841 2188 
Q 3044 2119 3236 1894 
Q 3428 1669 3622 1275 
L 4263 0 
L 3584 0 
L 2988 1197 
Q 2756 1666 2539 1819 
Q 2322 1972 1947 1972 
L 1259 1972 
L 1259 0 
L 628 0 
L 628 4666 
L 2053 4666 
Q 2853 4666 3247 4331 
Q 3641 3997 3641 3322 
Q 3641 2881 3436 2590 
Q 3231 2300 2841 2188 
z
M 1259 4147 
L 1259 2491 
L 2053 2491 
Q 2509 2491 2742 2702 
Q 2975 2913 2975 3322 
Q 2975 3731 2742 3939 
Q 2509 4147 2053 4147 
L 1259 4147 
z
" transform="scale(0.015625)"/>
     <path id="DejaVuSans-77" d="M 269 3500 
L 844 3500 
L 1563 769 
L 2278 3500 
L 2956 3500 
L 3675 769 
L 4391 3500 
L 4966 3500 
L 4050 0 
L 3372 0 
L 2619 2869 
L 1863 0 
L 1184 0 
L 269 3500 
z
" transform="scale(0.015625)"/>
     <path id="DejaVuSans-3a" d="M 750 794 
L 1409 794 
L 1409 0 
L 750 0 
L 750 794 
z
M 750 3309 
L 1409 3309 
L 1409 2516 
L 750 2516 
L 750 3309 
z
" transform="scale(0.015625)"/>
    </defs>
    <use xlink:href="#DejaVuSans-45"/>
    <use xlink:href="#DejaVuSans-70" x="63.183594"/>
    <use xlink:href="#DejaVuSans-69" x="126.660156"/>
    <use xlink:href="#DejaVuSans-73" x="154.443359"/>
    <use xlink:href="#DejaVuSans-6f" x="206.542969"/>
    <use xlink:href="#DejaVuSans-64" x="267.724609"/>
    <use xlink:href="#DejaVuSans-65" x="331.201172"/>
    <use xlink:href="#DejaVuSans-20" x="392.724609"/>
    <use xlink:href="#DejaVuSans-37" x="424.511719"/>
    <use xlink:href="#DejaVuSans-20" x="488.134766"/>
    <use xlink:href="#DejaVuSans-2d" x="519.921875"/>
    <use xlink:href="#DejaVuSans-20" x="556.005859"/>
    <use xlink:href="#DejaVuSans-54" x="587.792969"/>
    <use xlink:href="#DejaVuSans-6f" x="631.876953"/>
    <use xlink:href="#DejaVuSans-74" x="693.058594"/>
    <use xlink:href="#DejaVuSans-61" x="732.267578"/>
    <use xlink:href="#DejaVuSans-6c" x="793.546875"/>
    <use xlink:href="#DejaVuSans-20" x="821.330078"/>
    <use xlink:href="#DejaVuSans-52" x="853.117188"/>
    <use xlink:href="#DejaVuSans-65" x="918.099609"/>
    <use xlink:href="#DejaVuSans-77" x="979.623047"/>
    <use xlink:href="#DejaVuSans-61" x="1061.410156"/>
    <use xlink:href="#DejaVuSans-72" x="1122.689453"/>
    <use xlink:href="#DejaVuSans-64" x="1162.052734"/>
    <use xlink:href="#DejaVuSans-3a" x="1225.529297"/>
    <use xlink:href="#DejaVuSans-20" x="1259.220703"/>
    <use xlink:href="#DejaVuSans-2d" x="1291.007812"/>
    <use xlink:href="#DejaVuSans-32" x="1327.091797"/>
    <use xlink:href="#DejaVuSans-32" x="1390.714844"/>
    <use xlink:href="#DejaVuSans-31" x="1454.337891"/>
    <use xlink:href="#DejaVuSans-31" x="1517.960938"/>
    <use xlink:href="#DejaVuSans-2e" x="1581.583984"/>
    <use xlink:href="#DejaVuSans-34" x="1613.371094"/>
    <use xlink:href="#DejaVuSans-35" x="1676.994141"/>
   </g>
  </g>
 </g>
 <defs>
  <clipPath id="pe3856e2799">
   <rect x="52.94" y="85.2" width="656.26" height="216.306667"/>
  </clipPath>
  <clipPath id="padb0a1ae4b">
   <rect x="52.94" y="345.466667" width="656.26" height="216.306667"/>
  </clipPath>
  <clipPath id="pef61166810">
   <rect x="52.94" y="605.733333" width="656.26" height="216.306667"/>
  </clipPath>
 </defs>
</svg>
